<svg width="140" height="140" viewBox="0 0 140 140" fill="none" xmlns="http://www.w3.org/2000/svg">
<g id="Group">
<path id="Vector" d="M137.8 51.3272C123.644 41.6007 110.609 35.9806 98.8686 32.9629C98.152 34.1458 95.7858 38.3453 95.4346 42.643C105.495 45.3016 117.028 50.265 129.79 59.0339C130.955 59.8345 132.377 60.2255 133.792 60.2255C135.555 60.2255 137.307 59.6177 138.534 58.4372C140.746 56.3087 140.417 53.1254 137.8 51.3272Z" fill="black"/>
<path id="Vector_2" d="M24.6446 36.2241C19.1621 36.2995 17.2486 35.5374 16.7674 35.2837C16.7686 34.7475 17.1254 32.5473 21.6874 27.5758C19.2016 26.313 17.5394 24.0744 17.5394 21.5207C17.5394 19.307 18.7845 17.3255 20.7353 16.0145C18.7942 15.8729 16.8009 16.4708 15.4434 17.7703C8.82441 24.1116 0.659604 33.3758 6.14573 40.5836C9.58483 45.1018 16.8841 46.5372 26.1494 46.2722C26.264 44.5993 26.3606 40.1169 24.6446 36.2241Z" fill="black"/>
<path id="Vector_3" d="M69.3549 30.1027L70.2083 40.4198L61.028 34.3371L63.7895 30.5897C60.2591 30.9954 56.9839 31.5499 53.9795 32.1488L53.1585 32.3127C53.1338 32.3176 53.1055 32.3233 53.0806 32.3283L57.3509 34.9257L51.6913 43.3836L47.5997 33.3977C42.9767 34.2654 37.166 35.249 31.6206 35.7966C29.65 35.9912 27.9331 36.1092 26.4321 36.1719C28.0426 40.1221 27.9856 44.3944 27.8658 46.2039C31.9677 46.0019 36.4135 45.4991 41.0562 44.8029C41.1272 44.9912 41.1975 45.1798 41.2871 45.3662C41.487 45.7831 60.6454 87.4944 3.58157 125.194C-0.574132 127.939 -1.20549 132.904 2.17118 136.283C4.0875 138.2 6.88245 139.195 9.70129 139.195C11.8498 139.195 14.0123 138.617 15.8097 137.43C43.3777 119.216 55.5375 99.874 60.5992 84.192C65.527 84.3333 70.9242 84.3812 75.6679 84.4146C76.8967 86.1777 78.2263 87.9165 79.6677 89.6135C100.488 114.125 105.221 133.389 105.261 133.556C106.128 137.35 110.202 140 114.782 140C115.37 140 115.966 139.956 116.565 139.865C121.829 139.07 125.304 134.955 124.325 130.675C124.117 129.768 118.979 108.151 95.6233 80.6543C82.5339 65.2441 80.586 44.4602 80.3172 40.1067C84.4219 40.3943 88.9114 41.039 93.7589 42.2172C94.1949 37.9748 96.3461 34.0047 97.2129 32.5519C86.8465 30.0754 77.5193 29.6151 69.3549 30.1027Z" fill="black"/>
<path id="Vector_4" d="M87.7931 8.6083C87.7931 6.11165 80.3263 4.0881 71.1165 4.0881C70.8014 4.0881 70.4939 4.09617 70.1831 4.1009C67.031 1.56622 62.6985 0 57.9144 0C48.2767 0 40.4629 6.35312 40.4629 14.1891C40.4629 22.0264 48.2767 28.3782 57.9144 28.3782C66.7557 28.3782 74.0545 23.0331 75.2029 16.1006C73.6294 16.0354 71.9693 15.8976 70.2621 15.6819C61.3269 14.5525 54.439 11.7064 54.6368 9.26844C55.8189 11.4502 62.7358 13.1274 71.1164 13.1274C77.4408 13.1274 82.9422 12.1731 85.7694 10.7671C87.0594 10.1255 87.7931 9.39021 87.7931 8.6083Z" fill="black"/>
<path id="Vector_5" d="M26.3236 27.2745C30.2325 27.2745 33.4012 24.6982 33.4012 21.5201C33.4012 18.342 30.2325 15.7656 26.3236 15.7656C22.4148 15.7656 19.2461 18.342 19.2461 21.5201C19.2461 24.6982 22.4148 27.2745 26.3236 27.2745Z" fill="black"/>
</g>
</svg>
