<svg xmlns="http://www.w3.org/2000/svg" viewBox="0 0 126.1 115.71"><defs><style>.cls-1{fill:#bd3333;}.cls-2{fill:#7093b5;}.cls-3{fill:#fff;}.cls-4{fill:#f0ca80;}.cls-5{fill:#34383f;}</style></defs><g id="Layer_2" data-name="Layer 2"><g id="Layer_1-2" data-name="Layer 1"><path class="cls-1" d="M126.1,115.71l-4.08-7-4-7-8.09-14.07-16-28.23q-4-7.06-8-14.13L77.93,31.07,62.11,2.73H64L48.17,31.08l-8,14.15q-4,7.08-8,14.13l-16,28.23L8.13,101.66l-4.05,7-4.08,7,3.8-7.17,3.83-7.16,7.67-14.3L30.81,58.56q3.86-7.14,7.78-14.24L46.4,30.09,62.11,1.69,63.05,0,64,1.69l15.71,28.4,7.82,14.23c2.61,4.73,5.2,9.49,7.78,14.24l15.5,28.52,7.67,14.3,3.84,7.16Z"/><polygon class="cls-2" points="3.07 115.71 123.02 115.71 63.05 8.21 3.07 115.71"/><path class="cls-3" d="M88.53,17.44a2.12,2.12,0,0,0,0-.44V14.46a1.86,1.86,0,0,0-1.86-1.86H81a2.52,2.52,0,0,0-2-1h-.11a2.49,2.49,0,0,0-1.31.37,2.55,2.55,0,0,0-1.32-.37H76.1a2.49,2.49,0,0,0-1.31.37,2.55,2.55,0,0,0-1.32-.37h-.11a2.49,2.49,0,0,0-1.31.37,2.55,2.55,0,0,0-1.32-.37h-.11a2.49,2.49,0,0,0-1.31.37A2.55,2.55,0,0,0,68,11.63h-.11a2.54,2.54,0,0,0-2,1H63.66a2,2,0,0,0-.72.14,1.87,1.87,0,0,0-.71-.14H60.05a2.52,2.52,0,0,0-2-1h-.11a2.49,2.49,0,0,0-1.31.37,2.55,2.55,0,0,0-1.32-.37H55.2a2.55,2.55,0,0,0-1.32.37,2.49,2.49,0,0,0-1.31-.37h-.11a2.55,2.55,0,0,0-1.32.37,2.49,2.49,0,0,0-1.31-.37h-.11A2.55,2.55,0,0,0,48.4,12a2.49,2.49,0,0,0-1.31-.37H47a2.56,2.56,0,0,0-2,1H39.38a1.86,1.86,0,0,0-1.86,1.86V17a2.2,2.2,0,0,0,0,.44,3.05,3.05,0,0,0-.06.6v67a3.15,3.15,0,0,0,3.14,3.14h3a3.15,3.15,0,0,0,3.14-3.14V19.45h.31a2.58,2.58,0,0,0,1.31-.36,2.64,2.64,0,0,0,1.32.36h.11a2.58,2.58,0,0,0,1.31-.36,2.64,2.64,0,0,0,1.32.36h.11a2.58,2.58,0,0,0,1.31-.36,2.64,2.64,0,0,0,1.32.36h.11a2.64,2.64,0,0,0,1.32-.36,2.58,2.58,0,0,0,1.31.36h.11a2.11,2.11,0,0,0,.36,0V85.07a3.15,3.15,0,0,0,3.15,3.14h3a3.15,3.15,0,0,0,3.14-3.14V19.45H68a2.64,2.64,0,0,0,1.32-.36,2.58,2.58,0,0,0,1.31.36h.11a2.64,2.64,0,0,0,1.32-.36,2.58,2.58,0,0,0,1.31.36h.11a2.64,2.64,0,0,0,1.32-.36,2.58,2.58,0,0,0,1.31.36h.11a2.64,2.64,0,0,0,1.32-.36,2.61,2.61,0,0,0,1.31.36H79a2.23,2.23,0,0,0,.37,0V85.07a3.15,3.15,0,0,0,3.14,3.14h3a3.15,3.15,0,0,0,3.15-3.14V18A3.05,3.05,0,0,0,88.53,17.44ZM85.44,87.36h-3a2.3,2.3,0,0,1-2.3-2.29v-67A1.69,1.69,0,0,1,79,18.6h-.15a1.59,1.59,0,0,1-.72-.17,1.72,1.72,0,0,1-.57-.43h0a1.29,1.29,0,0,1-.17.16,1.61,1.61,0,0,1-.74.39,1.58,1.58,0,0,1-.38.05H76.1a1.7,1.7,0,0,1-1.2-.52L74.81,18h0l-.12.12a1.51,1.51,0,0,1-.45.31,1.59,1.59,0,0,1-.72.17h-.11a1.72,1.72,0,0,1-1.29-.6h0a1.7,1.7,0,0,1-1.29.6h-.11a1.72,1.72,0,0,1-1.29-.6h0a1.72,1.72,0,0,1-.91.55,1.58,1.58,0,0,1-.38.05h-.11a1.36,1.36,0,0,1-.29,0,1.78,1.78,0,0,1-.52-.18,1.88,1.88,0,0,1-.23-.16V85.07a2.3,2.3,0,0,1-2.3,2.29h-3A2.28,2.28,0,0,1,60.27,87a3,3,0,0,1-.34-.28,2.14,2.14,0,0,1-.37-.52,2.37,2.37,0,0,1-.25-.64,2.4,2.4,0,0,1-.05-.46v-67a1.71,1.71,0,0,1-1.17.49h-.15a1.58,1.58,0,0,1-.38-.05,1.06,1.06,0,0,1-.34-.12,1.35,1.35,0,0,1-.44-.31,1.42,1.42,0,0,1-.13-.12h0a1.42,1.42,0,0,1-.13.12,1.69,1.69,0,0,1-1.16.48H55.2a1.58,1.58,0,0,1-.38-.05,1.68,1.68,0,0,1-.65-.3,2.06,2.06,0,0,1-.26-.25h0a3.07,3.07,0,0,1-.26.25,1.75,1.75,0,0,1-1,.35h-.11a1.58,1.58,0,0,1-.38-.05,1.68,1.68,0,0,1-.91-.55h-.05a1.7,1.7,0,0,1-1.29.6h-.11a1.58,1.58,0,0,1-.38-.05,1.68,1.68,0,0,1-.91-.55h0a3.07,3.07,0,0,1-.26.25,1.68,1.68,0,0,1-.65.3,1.65,1.65,0,0,1-.38.05H47a1.36,1.36,0,0,1-.29,0,2,2,0,0,1-.53-.18l-.23-.16V85.07a2.29,2.29,0,0,1-.27,1.07,2.42,2.42,0,0,1-.4.55,2.3,2.3,0,0,1-.34.28,2.25,2.25,0,0,1-1.28.39h-3a2.3,2.3,0,0,1-2.29-2.29V18a1.86,1.86,0,0,1,.06-.48l0-.16a.6.6,0,0,1-.06-.19.75.75,0,0,1,0-.21V14.46a1,1,0,0,1,.29-.72,1,1,0,0,1,.72-.29h6.06a1.59,1.59,0,0,1,.43-.56A1.67,1.67,0,0,1,47,12.48h.11a1.67,1.67,0,0,1,1,.36,2.13,2.13,0,0,1,.26.26,1.72,1.72,0,0,1,1.32-.62h.11a1.68,1.68,0,0,1,1.31.62,1.78,1.78,0,0,1,.93-.58,1.72,1.72,0,0,1,.39,0h.11a1.63,1.63,0,0,1,1.31.62A.86.86,0,0,1,54,13a1.66,1.66,0,0,1,.7-.42,1.85,1.85,0,0,1,.48-.07h.11a1.67,1.67,0,0,1,1,.36,2.23,2.23,0,0,1,.27.26,1.68,1.68,0,0,1,1.31-.62h.11a1.7,1.7,0,0,1,1.42.76.88.88,0,0,1,.12.21h2.64a1,1,0,0,1,.56.17.44.44,0,0,1,.15.12,1,1,0,0,1,.72-.3h2.68a1.84,1.84,0,0,1,.68-.73,1.65,1.65,0,0,1,.86-.23H68a1.72,1.72,0,0,1,1.32.62,1.6,1.6,0,0,1,.26-.26,1.71,1.71,0,0,1,.54-.27,1.44,1.44,0,0,1,.51-.09h.11a1.44,1.44,0,0,1,.51.09,1.54,1.54,0,0,1,.35.15,1.87,1.87,0,0,1,.46.38,1.64,1.64,0,0,1,.8-.53,1.44,1.44,0,0,1,.51-.09h.11a1.67,1.67,0,0,1,.39,0,1.78,1.78,0,0,1,.93.58,1.75,1.75,0,0,1,.93-.58,1.58,1.58,0,0,1,.38,0h.11a1.67,1.67,0,0,1,.39,0,1.78,1.78,0,0,1,.93.58,1.7,1.7,0,0,1,.46-.38,1.47,1.47,0,0,1,.34-.15,1.44,1.44,0,0,1,.51-.09h.36a2.1,2.1,0,0,1,.24.06,1.47,1.47,0,0,1,.34.15,1.7,1.7,0,0,1,.45.35,1.73,1.73,0,0,1,.19.28.41.41,0,0,1,.07.11h6.23a1.08,1.08,0,0,1,.51.14l.18.14,0,0a1,1,0,0,1,.29.72V17a.81.81,0,0,1-.07.35.43.43,0,0,1,0,0,2.3,2.3,0,0,1,.09.64v67A2.3,2.3,0,0,1,85.44,87.36Z"/><path class="cls-4" d="M58.18,16.53a1.73,1.73,0,0,0,.57-.57V14.2a.7.7,0,0,0-.7-.71h-.11a.7.7,0,0,0-.7.71v2.5A1.4,1.4,0,0,0,58.18,16.53Z"/><path class="cls-4" d="M52.46,13.49a.7.7,0,0,0-.7.71h0v2.49a1.41,1.41,0,0,0,1-.16,1.75,1.75,0,0,0,.53-.52V14.2a.7.7,0,0,0-.7-.71Z"/><path class="cls-4" d="M56,16V14.2a.7.7,0,0,0-.7-.71H55.2a.7.7,0,0,0-.7.71h0v2.49a1.35,1.35,0,0,0,1-.16A1.7,1.7,0,0,0,56,16Z"/><rect class="cls-4" x="59.77" y="14.46" width="2.46" height="1.23"/><path class="cls-4" d="M60.54,85.07l2.83-.44V18.26l-2.83-.44,2.83-.43v-.63H61.56a1.28,1.28,0,0,0-.72.22,1.24,1.24,0,0,0-.53.8,1.09,1.09,0,0,0,0,.26v67a1.24,1.24,0,0,0,.22.71,1.39,1.39,0,0,0,.15.19,1.28,1.28,0,0,0,.91.37h1.81V85.5ZM62,63.47c0-1.88,0-3.83,0-5.82s0-4,0-6,0-4,0-6,0-3.93,0-5.82c0-3.77.09-7.3.16-10.32s.15-5.54.19-7.3c0-.88.06-1.57.07-2.05l0-.72,0,.72c0,.48,0,1.17.07,2.05,0,1.32.09,3.07.14,5.13,0,.69,0,1.42.05,2.17,0,1.13,0,2.34.07,3.6,0,.42,0,.85,0,1.28,0,1.73.05,3.55.07,5.44s0,3.84,0,5.82,0,4,0,6,0,4,0,6,0,3.94,0,5.82,0,3.72-.07,5.45-.06,3.37-.09,4.88c-.06,3-.15,5.53-.19,7.3,0,.88-.06,1.57-.07,2s0,.73,0,.73,0-.26,0-.73,0-1.16-.07-2c0-1.33-.09-3.07-.14-5.14,0-.34,0-.69,0-1.06s0-.73,0-1.1c0-.76,0-1.55,0-2.36s0-1.66-.05-2.52c0-.43,0-.87,0-1.32C62,66.27,62,64.89,62,63.47Z"/><path class="cls-4" d="M39.48,17.54a2.25,2.25,0,0,0-.08.24,2.11,2.11,0,0,0,0,.26v67a1.27,1.27,0,0,0,1.27,1.27h1.82V85.5l-2.82-.43,2.82-.44V18.26l-2.82-.44,2.82-.43v-.63H40.65a1.16,1.16,0,0,0-.49.1,1.27,1.27,0,0,0-.41.27A1.39,1.39,0,0,0,39.48,17.54Zm1.58,45.93c0-1.88,0-3.83-.05-5.82s0-4,0-6,0-4,0-6,0-3.93.05-5.82c0-.94,0-1.87,0-2.78,0-1.36,0-2.68,0-3.94s0-2.47.07-3.6c.06-3,.15-5.54.2-7.3,0-.88.05-1.57.07-2.05s0-.72,0-.72,0,.25,0,.72c0,.24,0,.53,0,.87,0,.18,0,.36,0,.56s0,.4,0,.62c0,1.54.12,3.66.17,6.19q0,.54,0,1.11c0,1.89.07,4,.1,6.19,0,1.34,0,2.72.05,4.13,0,1.89,0,3.84,0,5.82s0,4,0,6,0,4,0,6,0,3.94,0,5.82-.05,3.72-.07,5.45-.06,3.37-.09,4.88c0,3-.14,5.53-.19,7.3,0,.44,0,.83,0,1.17,0,.17,0,.33,0,.48s0,.27,0,.39,0,.22,0,.31v.23c0-.12,0-.3,0-.54,0-.47,0-1.16-.07-2s-.06-1.95-.1-3.18c0-.62,0-1.27-.05-2s0-1.41,0-2.16c0-1.51-.05-3.15-.08-4.88S41.08,65.36,41.06,63.47Z"/><rect class="cls-4" x="39.38" y="14.46" width="5.88" height="1.23"/><path class="cls-4" d="M49.72,13.49a.7.7,0,0,0-.7.71v2.49a1.38,1.38,0,0,0,1-.16,1.65,1.65,0,0,0,.52-.5V14.2a.7.7,0,0,0-.7-.71Z"/><path class="cls-4" d="M47.79,14.2a.7.7,0,0,0-.7-.71H47a.7.7,0,0,0-.7.71h0v2.48a1.33,1.33,0,0,0,1-.15,1.72,1.72,0,0,0,.5-.47Z"/><path class="cls-4" d="M79,16.53a1.73,1.73,0,0,0,.56-.55c0-.08.1-.15.14-.23V14.2h0a.71.71,0,0,0-.71-.71h-.11a.7.7,0,0,0-.7.71v2.52A1.46,1.46,0,0,0,79,16.53Z"/><polygon class="cls-4" points="86.72 14.46 86.72 14.46 80.67 14.46 80.67 15.68 86.72 15.68 86.72 14.46"/><path class="cls-4" d="M82.46,86.34h1.82V85.5l-2.8-.43,2.8-.44V18.26l-2.8-.44,2.8-.43v-.63H82.46a1.18,1.18,0,0,0-.5.1.94.94,0,0,0-.22.12A1.28,1.28,0,0,0,81.18,18v67A1.27,1.27,0,0,0,82.46,86.34Zm.43-22.87c0-1.88,0-3.83,0-5.82s0-4,0-6c0-1,0-2,0-3s0-2,0-3,0-2,0-2.94,0-1.93,0-2.88c0-2.36,0-4.62.09-6.72,0-.84,0-1.66,0-2.44,0-.4,0-.78,0-1.16.06-3,.15-5.54.2-7.3,0-.22,0-.43,0-.62s0-.38,0-.56c0-.34,0-.63,0-.87l0-.72v0c0,.09,0,.32,0,.67s0,1.17.08,2.05c0,1.76.13,4.28.19,7.3,0,1.13.05,2.34.07,3.6,0,.42,0,.85,0,1.28,0,1.73,0,3.55.06,5.44s0,3.84,0,5.82,0,4,0,6,0,4,0,6,0,3.94,0,5.82q0,1.43,0,2.79c0,.45,0,.9,0,1.34s0,.89,0,1.32c0,1.73-.06,3.37-.08,4.88,0,1.13,0,2.19-.08,3.17,0,.32,0,.64,0,1,0,1.23-.07,2.3-.1,3.18s-.05,1.57-.07,2,0,.73,0,.73,0-.26,0-.73c0-.12,0-.25,0-.39,0-.29,0-.64,0-1,0-.2,0-.4,0-.62,0-1.77-.14-4.28-.19-7.3,0-1.51-.06-3.15-.09-4.88,0-.43,0-.87,0-1.32s0-.89,0-1.34Q82.91,64.89,82.89,63.47Z"/><path class="cls-4" d="M76.91,14.2a.7.7,0,0,0-.7-.71H76.1a.7.7,0,0,0-.7.71h0v2.51a1.37,1.37,0,0,0,.84-.18,1.8,1.8,0,0,0,.67-.75Z"/><path class="cls-4" d="M74.17,14.2a.7.7,0,0,0-.7-.71h-.11a.7.7,0,0,0-.7.71v2.51a1.33,1.33,0,0,0,.85-.18,1.73,1.73,0,0,0,.66-.71Z"/><polygon class="cls-4" points="66.16 15.68 66.16 14.46 63.66 14.46 63.66 14.46 63.66 15.68 66.16 15.68"/><path class="cls-4" d="M68.07,16.53a1.79,1.79,0,0,0,.62-.66V14.2a.7.7,0,0,0-.7-.71h-.11a.7.7,0,0,0-.7.71v2.51A1.47,1.47,0,0,0,68.07,16.53Z"/><path class="cls-4" d="M71.43,14.2a.7.7,0,0,0-.7-.71h-.11a.7.7,0,0,0-.7.71v2.51a1.39,1.39,0,0,0,.87-.18,1.77,1.77,0,0,0,.64-.69V14.2Z"/><path class="cls-5" d="M87.74,18a2.3,2.3,0,0,0-.09-.64.43.43,0,0,0,0,0,.81.81,0,0,0,.07-.35V14.46a1,1,0,0,0-.29-.72l0,0-.18-.14a1.08,1.08,0,0,0-.51-.14H80.49a.41.41,0,0,0-.07-.11,1.73,1.73,0,0,0-.19-.28,1.7,1.7,0,0,0-.45-.35,1.47,1.47,0,0,0-.34-.15,2.1,2.1,0,0,0-.24-.06h-.36a1.44,1.44,0,0,0-.51.09,1.47,1.47,0,0,0-.34.15,1.7,1.7,0,0,0-.46.38,1.78,1.78,0,0,0-.93-.58,1.67,1.67,0,0,0-.39,0H76.1a1.58,1.58,0,0,0-.38,0,1.75,1.75,0,0,0-.93.58,1.78,1.78,0,0,0-.93-.58,1.67,1.67,0,0,0-.39,0h-.11a1.44,1.44,0,0,0-.51.09,1.64,1.64,0,0,0-.8.53,1.87,1.87,0,0,0-.46-.38,1.54,1.54,0,0,0-.35-.15,1.44,1.44,0,0,0-.51-.09h-.11a1.44,1.44,0,0,0-.51.09,1.71,1.71,0,0,0-.54.27,1.6,1.6,0,0,0-.26.26A1.72,1.72,0,0,0,68,12.48h-.11a1.65,1.65,0,0,0-.86.23,1.84,1.84,0,0,0-.68.73H63.66a1,1,0,0,0-.72.3.44.44,0,0,0-.15-.12,1,1,0,0,0-.56-.17H59.59a.88.88,0,0,0-.12-.21,1.7,1.7,0,0,0-1.42-.76h-.11a1.68,1.68,0,0,0-1.31.62,2.23,2.23,0,0,0-.27-.26,1.67,1.67,0,0,0-1-.36H55.2a1.85,1.85,0,0,0-.48.07A1.66,1.66,0,0,0,54,13a.86.86,0,0,0-.14.13,1.63,1.63,0,0,0-1.31-.62h-.11a1.72,1.72,0,0,0-.39,0,1.78,1.78,0,0,0-.93.58,1.68,1.68,0,0,0-1.31-.62h-.11a1.72,1.72,0,0,0-1.32.62,2.13,2.13,0,0,0-.26-.26,1.67,1.67,0,0,0-1-.36H47a1.67,1.67,0,0,0-1.11.41,1.59,1.59,0,0,0-.43.56H39.38a1,1,0,0,0-.72.29,1,1,0,0,0-.29.72V17a.75.75,0,0,0,0,.21.6.6,0,0,0,.06.19l0,.16a1.86,1.86,0,0,0-.06.48v67a2.3,2.3,0,0,0,2.29,2.29h3A2.25,2.25,0,0,0,44.92,87a2.3,2.3,0,0,0,.34-.28,2.42,2.42,0,0,0,.4-.55,2.29,2.29,0,0,0,.27-1.07V18.24l.23.16a2,2,0,0,0,.53.18,1.36,1.36,0,0,0,.29,0h.11a1.65,1.65,0,0,0,.38-.05,1.68,1.68,0,0,0,.65-.3,3.07,3.07,0,0,0,.26-.25h0a1.68,1.68,0,0,0,.91.55,1.58,1.58,0,0,0,.38.05h.11a1.7,1.7,0,0,0,1.29-.6h.05a1.68,1.68,0,0,0,.91.55,1.58,1.58,0,0,0,.38.05h.11a1.75,1.75,0,0,0,1-.35,3.07,3.07,0,0,0,.26-.25h0a2.06,2.06,0,0,0,.26.25,1.68,1.68,0,0,0,.65.3,1.58,1.58,0,0,0,.38.05h.11a1.69,1.69,0,0,0,1.16-.48A1.42,1.42,0,0,0,56.6,18h0a1.42,1.42,0,0,0,.13.12,1.35,1.35,0,0,0,.44.31,1.06,1.06,0,0,0,.34.12,1.58,1.58,0,0,0,.38.05h.15a1.71,1.71,0,0,0,1.17-.49v67a2.4,2.4,0,0,0,.05.46,2.37,2.37,0,0,0,.25.64,2.14,2.14,0,0,0,.37.52,3,3,0,0,0,.34.28,2.28,2.28,0,0,0,1.29.39h3a2.3,2.3,0,0,0,2.3-2.29V18.24a1.88,1.88,0,0,0,.23.16,1.78,1.78,0,0,0,.52.18,1.36,1.36,0,0,0,.29,0H68a1.58,1.58,0,0,0,.38-.05,1.72,1.72,0,0,0,.91-.55h0a1.72,1.72,0,0,0,1.29.6h.11A1.7,1.7,0,0,0,72,18h0a1.72,1.72,0,0,0,1.29.6h.11a1.59,1.59,0,0,0,.72-.17,1.51,1.51,0,0,0,.45-.31l.12-.12h0l.09.08a1.7,1.7,0,0,0,1.2.52h.11a1.58,1.58,0,0,0,.38-.05,1.61,1.61,0,0,0,.74-.39A1.29,1.29,0,0,0,77.5,18h0a1.72,1.72,0,0,0,.57.43,1.59,1.59,0,0,0,.72.17H79a1.69,1.69,0,0,0,1.17-.49v67a2.3,2.3,0,0,0,2.3,2.29h3a2.3,2.3,0,0,0,2.3-2.29Zm-6.56,67V18A1.28,1.28,0,0,1,81.74,17a.94.94,0,0,1,.22-.12,1.18,1.18,0,0,1,.5-.1h1.82v.63l-2.8.43,2.8.44V84.63l-2.8.44,2.8.43v.84H82.46A1.27,1.27,0,0,1,81.18,85.07Zm-3-68.35V14.2a.7.7,0,0,1,.7-.71H79a.71.71,0,0,1,.71.71h0v1.55c0,.08-.09.15-.14.23a1.73,1.73,0,0,1-.56.55A1.46,1.46,0,0,1,78.14,16.72Zm2.53-1V14.46h6v1.22Zm-4.43.85a1.37,1.37,0,0,1-.84.18V14.2h0a.7.7,0,0,1,.7-.71h.11a.7.7,0,0,1,.7.71v1.58A1.8,1.8,0,0,1,76.24,16.53Zm-2.73,0a1.33,1.33,0,0,1-.85.18V14.2a.7.7,0,0,1,.7-.71h.11a.7.7,0,0,1,.7.71v1.62A1.73,1.73,0,0,1,73.51,16.53Zm-6.33.18V14.2a.7.7,0,0,1,.7-.71H68a.7.7,0,0,1,.7.71v1.67a1.79,1.79,0,0,1-.62.66A1.47,1.47,0,0,1,67.18,16.71ZM61.56,86.34a1.28,1.28,0,0,1-.91-.37,1.39,1.39,0,0,1-.15-.19,1.24,1.24,0,0,1-.22-.71V18a1.09,1.09,0,0,1,0-.26,1.24,1.24,0,0,1,.53-.8,1.28,1.28,0,0,1,.72-.22h1.81v.63l-2.83.43,2.83.44V84.63l-2.83.44,2.83.43v.84ZM57.24,16.7V14.2a.7.7,0,0,1,.7-.71h.11a.7.7,0,0,1,.7.71V16a1.73,1.73,0,0,1-.57.57A1.4,1.4,0,0,1,57.24,16.7Zm-1.78-.17a1.35,1.35,0,0,1-1,.16V14.2h0a.7.7,0,0,1,.7-.71h.11a.7.7,0,0,1,.7.71V16A1.7,1.7,0,0,1,55.46,16.53ZM50.53,14.2V16a1.65,1.65,0,0,1-.52.5,1.38,1.38,0,0,1-1,.16V14.2a.7.7,0,0,1,.7-.71h.11A.7.7,0,0,1,50.53,14.2Zm2.74,0V16a1.75,1.75,0,0,1-.53.52,1.41,1.41,0,0,1-1,.16V14.2h0a.7.7,0,0,1,.7-.71h.11A.7.7,0,0,1,53.27,14.2Zm9,1.48H59.77V14.46h2.46Zm1.43,0V14.46h2.5v1.22Zm7.13.85a1.39,1.39,0,0,1-.87.18V14.2a.7.7,0,0,1,.7-.71h.11a.7.7,0,0,1,.7.71h0v1.64A1.77,1.77,0,0,1,70.79,16.53Zm-23.5,0a1.33,1.33,0,0,1-1,.15V14.2h0a.7.7,0,0,1,.7-.71h.11a.7.7,0,0,1,.7.71v1.86A1.72,1.72,0,0,1,47.29,16.53Zm-6.64.23h1.82v.63l-2.82.43,2.82.44V84.63l-2.82.44,2.82.43v.84H40.65a1.27,1.27,0,0,1-1.27-1.27V18a2.11,2.11,0,0,1,0-.26,2.25,2.25,0,0,1,.08-.24,1.39,1.39,0,0,1,.27-.41,1.27,1.27,0,0,1,.41-.27A1.16,1.16,0,0,1,40.65,16.76Zm-1.27-1.08V14.46h5.88v1.22Z"/><path class="cls-5" d="M83,68.92c0,1.73.06,3.37.09,4.88,0,3,.14,5.53.19,7.3,0,.22,0,.42,0,.62,0,.39,0,.74,0,1,0,.14,0,.27,0,.39,0,.47,0,.73,0,.73s0-.26,0-.73,0-1.16.07-2,.06-1.95.1-3.18c0-.31,0-.63,0-1,0-1,.06-2,.08-3.17,0-1.51.05-3.15.08-4.88,0-.43,0-.87,0-1.32s0-.89,0-1.34q0-1.37,0-2.79c0-1.88,0-3.83,0-5.82s0-4,0-6,0-4,0-6,0-3.93,0-5.82,0-3.71-.06-5.44c0-.43,0-.86,0-1.28,0-1.26,0-2.47-.07-3.6-.06-3-.15-5.54-.19-7.3,0-.88-.06-1.57-.08-2.05s0-.58,0-.67v0l0,.72c0,.24,0,.53,0,.87,0,.18,0,.36,0,.56s0,.4,0,.62c0,1.76-.14,4.28-.2,7.3,0,.38,0,.76,0,1.16,0,.78,0,1.6,0,2.44,0,2.1-.07,4.36-.09,6.72q0,1.42,0,2.88c0,1,0,2,0,2.94s0,2,0,3,0,2,0,3c0,2,0,4,0,6s0,3.94,0,5.82q0,1.43,0,2.79c0,.45,0,.9,0,1.34S83,68.49,83,68.92Z"/><path class="cls-5" d="M62,68.92c0,.86,0,1.71.05,2.52s0,1.6,0,2.36c0,.37,0,.74,0,1.1s0,.72,0,1.06c0,2.07.11,3.81.14,5.14,0,.88.06,1.57.07,2s0,.73,0,.73,0-.26,0-.73,0-1.16.07-2c0-1.77.13-4.28.19-7.3,0-1.51.06-3.15.09-4.88s0-3.56.07-5.45,0-3.83,0-5.82,0-4,0-6,0-4,0-6,0-3.93,0-5.82,0-3.71-.07-5.44c0-.43,0-.86,0-1.28,0-1.26,0-2.47-.07-3.6,0-.75,0-1.48-.05-2.17,0-2.06-.11-3.81-.14-5.13,0-.88-.06-1.57-.07-2.05l0-.72,0,.72c0,.48,0,1.17-.07,2.05,0,1.76-.14,4.28-.19,7.3S62,36,62,39.81c0,1.89,0,3.84,0,5.82s0,4,0,6,0,4,0,6,0,3.94,0,5.82c0,1.42,0,2.8.06,4.13C62,68.05,62,68.49,62,68.92Z"/><path class="cls-5" d="M41.13,68.92c0,1.73.06,3.37.08,4.88,0,.75,0,1.47,0,2.16s0,1.34.05,2c0,1.23.07,2.3.1,3.18s.05,1.57.07,2c0,.24,0,.42,0,.54v-.23c0-.09,0-.19,0-.31s0-.25,0-.39,0-.31,0-.48c0-.34,0-.73,0-1.17,0-1.77.14-4.28.19-7.3,0-1.51.06-3.15.09-4.88s0-3.56.07-5.45,0-3.83,0-5.82,0-4,0-6,0-4,0-6,0-3.93,0-5.82c0-1.41,0-2.79-.05-4.13,0-2.22-.06-4.3-.1-6.19q0-.57,0-1.11c-.05-2.53-.13-4.65-.17-6.19,0-.22,0-.43,0-.62s0-.38,0-.56c0-.34,0-.63,0-.87,0-.47,0-.72,0-.72s0,.25,0,.72,0,1.17-.07,2.05c0,1.76-.14,4.28-.2,7.3,0,1.13-.05,2.34-.07,3.6s0,2.58,0,3.94c0,.91,0,1.84,0,2.78,0,1.89-.05,3.84-.05,5.82s0,4,0,6,0,4,0,6,0,3.94.05,5.82S41.1,67.19,41.13,68.92Z"/><path class="cls-3" d="M24.72,97.92c0,3,1,4.74,3.54,4.74a3.56,3.56,0,0,0,3-1.46,2.1,2.1,0,0,1,.88,1.65c0,2.42-3.07,3.48-5.66,3.48-5.53,0-8.08-3.21-8.08-7.24,0-5,2.89-7.41,8.19-7.41,2.37,0,5.34.48,5.34,2.69,0,1.8-1.56,2.71-3.33,2.71-.31,0-.78,0-1.16,0a6.81,6.81,0,0,0,.09-1.19c0-1.19-.05-2.59-1.32-2.59C24.7,93.26,24.72,96.54,24.72,97.92Z"/><path class="cls-3" d="M44.23,100.26l3.38,5.61h-6l-1.91-6a3.39,3.39,0,0,1-.22-1c1.41,0,1.41-1.09,1.41-2.45s0-2.79-1.21-2.79a1.89,1.89,0,0,0-.67.12v12.17h-5.9V92.34A58.42,58.42,0,0,1,39.64,92c3.92,0,7,.65,7,4.36A4.09,4.09,0,0,1,44.23,100.26Z"/><path class="cls-3" d="M54,105.87h-5.9V92.09H54Z"/><path class="cls-3" d="M61.63,97.92c0,3,1,4.74,3.53,4.74a3.58,3.58,0,0,0,3-1.46,2.09,2.09,0,0,1,.87,1.65c0,2.42-3.06,3.48-5.66,3.48-5.52,0-8.07-3.21-8.07-7.24,0-5,2.88-7.41,8.18-7.41,2.37,0,5.35.48,5.35,2.69,0,1.8-1.57,2.71-3.33,2.71-.32,0-.79,0-1.17,0a6.81,6.81,0,0,0,.09-1.19c0-1.19,0-2.59-1.32-2.59C61.61,93.26,61.63,96.54,61.63,97.92Z"/><path class="cls-3" d="M70.06,105.87V92.09H76v13.78Zm15-13.78L82,98.5l3.43,7.37H79.48l-3.09-7,2.93-6.81Z"/><path class="cls-3" d="M95.58,94H92.09v3.91h2.82v1.88H92.09V104h3.83l-.18,1.85H86.19V92.09h9.39Z"/><path class="cls-3" d="M107.55,94h-2.73v11.92H98.91V94H96V92.09h11.7Z"/><path class="cls-3" d="M37.5,112.47l-1,.42a1.69,1.69,0,0,1-1.24-.42,1.5,1.5,0,0,1-.46-1.16,1.65,1.65,0,0,1,.45-1.2,1.58,1.58,0,0,1,1.18-.47,1.76,1.76,0,0,1,1,.29h0v.14a1.87,1.87,0,0,1-.1.64h-.38l-.08-.54a1.73,1.73,0,0,0-.76-.17H36a1,1,0,0,0-.41.49,1.8,1.8,0,0,0-.13.69,1.31,1.31,0,0,0,.31.92,1,1,0,0,0,.84.32l.81-.25Z"/><path class="cls-3" d="M43.08,112.58v.23H41.58l0-.15.43-.17v-1h-1.5v1.06l.48,0v.23H39.47l0-.15.43-.17V110l-.39-.05v-.23h1.4l0,.15a2.69,2.69,0,0,1-.43.17v1H42V110l-.39-.05v-.23H43l0,.15a3.16,3.16,0,0,1-.43.17v2.48Z"/><path class="cls-3" d="M48.37,112.58v.23H46.89l0-.15.47-.18-.24-.57H45.81l-.25.61.49.06v.23H44.71l0-.15a2.85,2.85,0,0,1,.42-.16l1.15-2.62,0-.11.53-.15L48,112.54Zm-1.42-1-.5-1.22-.51,1.22Z"/><path class="cls-3" d="M54.45,112.59v.22H53l0-.15a4.1,4.1,0,0,1,.44-.17l0-1.47.07-.8-1,2.51h0l-.51.11-1-2.6L51,111l0,1.51.43.06v.22H50.08l0-.15c.1,0,.25-.1.44-.17l.09-2.46-.41-.06v-.22h1.17l.94,2.44.94-2.44h1.05l0,.15a1.84,1.84,0,0,1-.39.16l0,2.46Z"/><path class="cls-3" d="M57.39,111.68v.83l.6.07v.23h-1.6l0-.15a2.85,2.85,0,0,1,.42-.16V110l-.36,0v-.24l1.52,0a1.37,1.37,0,0,1,.9.29.85.85,0,0,1,.35.71.89.89,0,0,1-.33.7,1.29,1.29,0,0,1-.85.29Zm0-1.59v1.22a2.38,2.38,0,0,0,.46,0,.62.62,0,0,0,.68-.67.93.93,0,0,0-.09-.4.62.62,0,0,0-.26-.27Z"/><path class="cls-3" d="M62.5,112.58v.23H61l0-.15.43-.17V110L61,110v-.23h1.4l0,.15a2.69,2.69,0,0,1-.43.17v2.48Z"/><path class="cls-3" d="M66,109.64a1.56,1.56,0,0,1,1.16.46,1.66,1.66,0,0,1,.45,1.21,1.58,1.58,0,0,1-.44,1.16,1.54,1.54,0,0,1-1.13.44,1.58,1.58,0,0,1-1.16-.45,1.55,1.55,0,0,1-.45-1.17,1.68,1.68,0,0,1,.44-1.19A1.51,1.51,0,0,1,66,109.64Zm-.49.44a.92.92,0,0,0-.31.45,2.17,2.17,0,0,0-.11.69,1.45,1.45,0,0,0,.28,1,.92.92,0,0,0,.76.36,1.24,1.24,0,0,0,.33,0,.94.94,0,0,0,.35-.46,1.71,1.71,0,0,0,.13-.7,1.54,1.54,0,0,0-.28-1,.86.86,0,0,0-.73-.36A1.28,1.28,0,0,0,65.47,110.08Z"/><path class="cls-3" d="M72.64,112.81l-.62.06h0l-1.69-2.48.08.61v1.53l.44,0v.23H69.54l0-.15.43-.17V110L69.6,110v-.23h1l1.64,2.43-.08-.6V110l-.49-.06v-.23H73l0,.15a2.43,2.43,0,0,1-.41.17Z"/><path class="cls-3" d="M77.46,112a.82.82,0,0,1-.34.67,1.34,1.34,0,0,1-.84.26,2.32,2.32,0,0,1-.62-.09,1.26,1.26,0,0,1-.52-.23h0v-.17a3.2,3.2,0,0,1,.06-.65h.32l.16.62a1.55,1.55,0,0,0,.76.18h.11a.46.46,0,0,0,.29-.44c0-.18-.12-.33-.35-.45l-.8-.38a.87.87,0,0,1-.54-.76.74.74,0,0,1,.35-.64,1.46,1.46,0,0,1,.89-.25,3.26,3.26,0,0,1,.92.15,3.49,3.49,0,0,1-.07.84H76.9l-.09-.49a1.33,1.33,0,0,0-.67-.16H76a.43.43,0,0,0-.24.4c0,.17.12.31.36.43l.76.35A.91.91,0,0,1,77.46,112Z"/><path class="cls-3" d="M83.17,112.58v.23H81.67l0-.15.43-.17v-1h-1.5v1.06l.48,0v.23H79.56l0-.15.43-.17V110l-.39-.05v-.23H81l0,.15a2.69,2.69,0,0,1-.43.17v1h1.5V110l-.39-.05v-.23h1.4l0,.15a3.16,3.16,0,0,1-.43.17v2.48Z"/><path class="cls-3" d="M86.59,112.58v.23H85.1l0-.15.43-.17V110l-.39-.05v-.23h1.4l0,.15a2.69,2.69,0,0,1-.43.17v2.48Z"/><path class="cls-3" d="M89.52,111.68v.83l.61.07v.23h-1.6l0-.15a2.85,2.85,0,0,1,.42-.16V110l-.37,0v-.24l1.52,0a1.37,1.37,0,0,1,.9.29.85.85,0,0,1,.35.71.89.89,0,0,1-.33.7,1.29,1.29,0,0,1-.85.29Zm0-1.59v1.22a2.53,2.53,0,0,0,.46,0,.7.7,0,0,0,.52-.19.72.72,0,0,0,.17-.48.93.93,0,0,0-.09-.4.68.68,0,0,0-.26-.27Z"/><polygon class="cls-1" points="62.62 40.64 62.62 40.64 62.62 40.64 62.62 40.64"/><path class="cls-5" d="M80.29,54.21c-.1-.29-.2-.58-.31-.86-.23-.58-.48-1.14-.76-1.69a18.77,18.77,0,0,0-2.12-3.28c-.27-.33-.56-.66-.85-1a18.62,18.62,0,0,0-9.87-5.54,17.34,17.34,0,0,0-2.49-.34c-.42,0-.85-.05-1.27-.05v1.36h.24l.75,0,.75.07a17.08,17.08,0,0,1,2.88.58,16.68,16.68,0,0,1,5,2.4,20.07,20.07,0,0,1,2,1.63,19.76,19.76,0,0,1,1.59,1.78c.23.3.45.61.65.91a15.35,15.35,0,0,1,1,1.8c.15.29.28.58.41.86a15.39,15.39,0,0,1,.94,3,14.71,14.71,0,0,1,.29,2l0,.71-.12-.7c0-.23-.11-.51-.18-.83s-.09-.34-.13-.53-.1-.38-.17-.59a17,17,0,0,0-1.17-2.86,17.42,17.42,0,0,0-2.24-3.28,17.11,17.11,0,0,0-1.59-1.6,19.43,19.43,0,0,0-1.93-1.45,16.2,16.2,0,0,0-1.93-1.06,17.71,17.71,0,0,1,1.45,1.89l-1,.16a.26.26,0,0,0-.21.3.26.26,0,0,0,.25.21h0l1.19-.19h0c.25.41.5.85.74,1.32A39.19,39.19,0,0,0,65,51.14c-.58.2-1.17.41-1.75.64A41.1,41.1,0,0,0,55,56.13a39.3,39.3,0,0,0-5.71,4.73,35.37,35.37,0,0,0-2.47,2.73c0,.17.06.33.1.49a2.43,2.43,0,0,1,.2-.25.26.26,0,0,1,.4.32c-.16.19-.31.37-.45.56,0,.1.05.2.07.3a15.6,15.6,0,0,0,.62,1.79c.16.41.34.8.52,1.16A36,36,0,0,1,57.78,59c1-.69,2.14-1.33,3.25-1.91a37.41,37.41,0,0,1,12.49-4c.1.46.19.94.26,1.44a.17.17,0,0,0-.1,0l-1.11.16a.26.26,0,0,0,0,.51h0c.36-.06.73-.12,1.1-.16l.09,0A20,20,0,0,1,73,63a18.37,18.37,0,0,1-5.88,9.11c-.19.15-.37.3-.55.43a17.34,17.34,0,0,1-2.75,1.71c-.36.18-.72.35-1.06.5a18.86,18.86,0,0,1-4.53,1.29,16.6,16.6,0,0,1-5.82-2.91c-.29-.23-.57-.46-.85-.71s-.54-.5-.8-.77l-.49-.46A16.62,16.62,0,0,1,49,69.71,15.59,15.59,0,0,1,47.27,67a19.09,19.09,0,0,1-.77-1.8,17.48,17.48,0,0,1-.58-2.11c-.07-.37-.15-.75-.2-1.15,0-.1,0-.2,0-.3v-.3l0-.6a16.63,16.63,0,0,1,.49-5.24,12.91,12.91,0,0,1,.41-1.34c.16-.45.34-.89.54-1.33a16.64,16.64,0,0,1,3.34-4.91,17.11,17.11,0,0,1,5-3.54c.47-.22,1-.41,1.44-.59a17.53,17.53,0,0,1,2.23-.61,17.77,17.77,0,0,1,2.29-.32l.73,0h.54V41.48a19.92,19.92,0,0,0-2.18.13,19.09,19.09,0,0,0-3.72.85,19.85,19.85,0,0,0-2.53,1,18.51,18.51,0,0,0-7.32,6.68c-.16.25-.31.51-.46.78a18.48,18.48,0,0,0-1.47,3.37,18.46,18.46,0,0,0-.57,9.35.41.41,0,0,0,0,.16,18.86,18.86,0,0,0,1.65,4.69,18.48,18.48,0,0,0,10.41,9.11,19.09,19.09,0,0,0,2.43.68,18.88,18.88,0,0,0,3.76.38,18.6,18.6,0,0,0,8.42-2c.45-.22.88-.47,1.3-.73s.85-.54,1.26-.84a18.2,18.2,0,0,0,3.16-2.91A19.19,19.19,0,0,0,78.39,70a16.53,16.53,0,0,0,.89-1.59c.14-.28.27-.55.39-.83a18.1,18.1,0,0,0,.66-1.73A18.49,18.49,0,0,0,80.29,54.21ZM68,53.92H67.9a.26.26,0,0,1-.24-.19.26.26,0,0,1,.17-.32l1.12-.3a.26.26,0,0,1,.31.19.25.25,0,0,1-.18.31Zm-3.52-2.19,1.13-.39a.27.27,0,0,1,.33.17.26.26,0,0,1-.17.32l-1.12.38-.08,0a.25.25,0,0,1-.24-.17A.26.26,0,0,1,64.45,51.73Zm6-1.63a.27.27,0,0,1,.3.21.26.26,0,0,1-.21.3l-1.15.23h0a.25.25,0,0,1-.25-.2.26.26,0,0,1,.1-.27l.09,0Zm-3.67,4.18c-.36.11-.73.24-1.09.37H65.6a.25.25,0,0,1-.24-.17.26.26,0,0,1,.15-.33l1.1-.37a.26.26,0,1,1,.16.49Zm-6.94-.57c.35-.18.71-.35,1.08-.52a.25.25,0,0,1,.34.12.28.28,0,0,1,0,.2.22.22,0,0,1,0,.08.16.16,0,0,1-.08.06l-1.07.52a.23.23,0,0,1-.11,0,.24.24,0,0,1-.23-.14A.25.25,0,0,1,59.83,53.71ZM69.56,52c-.66.16-1.37.35-2.12.57s-1.52.48-2.32.77-1.61.62-2.43,1-1.64.75-2.44,1.17-1.6.86-2.36,1.33-1.5.94-2.2,1.42A43.31,43.31,0,0,0,52,61.1c-1,.9-1.82,1.68-2.37,2.24s-.85.89-.85.89l.81-1c.26-.3.59-.66,1-1.06s.82-.84,1.32-1.3c.24-.24.51-.48.78-.72.83-.73,1.77-1.5,2.81-2.25.7-.49,1.43-1,2.19-1.46s1.56-.92,2.37-1.34,1.63-.81,2.46-1.17S64.18,53.31,65,53s1.6-.52,2.35-.73L68.44,52l1-.23c1.33-.28,2.46-.42,3.25-.51l.23,0,0,.06-.23,0C72,51.47,70.87,51.69,69.56,52ZM59,54.43a.26.26,0,0,1-.1.35l-1,.58a.22.22,0,0,1-.13,0,.26.26,0,0,1-.13-.48l1-.59A.26.26,0,0,1,59,54.43Zm-2.16,1.25a.27.27,0,0,1-.08.36l-1,.64a.24.24,0,0,1-.14,0,.25.25,0,0,1-.22-.12.25.25,0,0,1,.07-.35c.34-.23.67-.45,1-.66A.26.26,0,0,1,56.85,55.68Zm4.41.86a.23.23,0,0,1-.11,0,.25.25,0,0,1-.23-.15.24.24,0,0,1,.11-.34l1-.51a.26.26,0,0,1,.34.12.44.44,0,0,1,0,.1.27.27,0,0,1-.15.25Zm3.11-1.41-.93.38a.15.15,0,0,1-.09,0,.22.22,0,0,1-.21-.14.22.22,0,0,1,.12-.3c.31-.14.62-.27.94-.39a.23.23,0,0,1,.3.13.23.23,0,0,1,0,.18.12.12,0,0,1,0,.07A.18.18,0,0,1,64.37,55.13Zm8-5.34c.07.16.15.32.22.49l-.77.11h0a.27.27,0,0,1-.17-.06.29.29,0,0,1-.09-.15.28.28,0,0,1,.12-.26l.1,0Zm-8.81,2.55a.25.25,0,0,1-.14.33c-.37.14-.74.3-1.1.45l-.1,0a.26.26,0,0,1-.1-.49c.36-.16.74-.31,1.11-.46A.26.26,0,0,1,63.55,52.34ZM54.41,57a.26.26,0,1,1,.3.42l-.94.7a.25.25,0,0,1-.16.06.26.26,0,0,1-.2-.1.25.25,0,0,1,0-.36ZM50,65.3a.22.22,0,0,1-.09.07l-.1,0a.23.23,0,0,1-.17-.07.25.25,0,0,1,0-.36c.25-.29.51-.57.77-.85a.25.25,0,0,1,.36,0,.27.27,0,0,1,0,.37ZM72.36,52.69a.26.26,0,0,1,.22-.29l.72-.1c0,.16.09.33.13.5l-.78.1h0A.26.26,0,0,1,72.36,52.69Zm-4-1.86a.35.35,0,0,1,0,.2.24.24,0,0,1-.16.11L67,51.45h-.07a.25.25,0,0,1-.24-.18.26.26,0,0,1,.17-.32L68,50.65A.26.26,0,0,1,68.31,50.83ZM52.43,58.55a.25.25,0,1,1,.32.39l-.89.76a.23.23,0,0,1-.17.07.26.26,0,0,1-.17-.45C51.82,59.06,52.12,58.8,52.43,58.55ZM50.54,60.2a.27.27,0,0,1,.37,0,.41.41,0,0,1,.05.09.25.25,0,0,1-.06.27l-.85.82a.26.26,0,0,1-.18.07.24.24,0,0,1-.18-.07.24.24,0,0,1-.06-.09.29.29,0,0,1,0-.09.27.27,0,0,1,.08-.19ZM48.78,62a.25.25,0,1,1,.37.35l-.79.87a.27.27,0,0,1-.36,0,.25.25,0,0,1,0-.36C48.24,62.54,48.51,62.25,48.78,62Zm.37,4.29c-.24.3-.48.59-.7.89a.25.25,0,0,1-.21.1.27.27,0,0,1-.15,0,.26.26,0,0,1-.05-.36l.71-.9a.26.26,0,1,1,.4.32Zm2.43-2.69a.26.26,0,0,1-.18.07.24.24,0,0,1-.18-.07.27.27,0,0,1,0-.37c.26-.27.54-.54.82-.8a.26.26,0,1,1,.36.37C52.12,63,51.84,63.29,51.58,63.56Zm1.74-1.64a.27.27,0,0,1-.17.06.25.25,0,0,1-.19-.09.26.26,0,0,1,0-.36c.29-.26.59-.51.88-.75a.26.26,0,0,1,.33.39Q53.76,61.53,53.32,61.92Zm1.85-1.53a.3.3,0,0,1-.16,0,.25.25,0,0,1-.2-.1.26.26,0,0,1-.05-.19.16.16,0,0,1,0-.09.18.18,0,0,1,.07-.08l.92-.7a.27.27,0,0,1,.36.06.26.26,0,0,1-.06.36ZM57.12,59A.28.28,0,0,1,57,59a.26.26,0,0,1-.21-.11.3.3,0,0,1,0-.1.14.14,0,0,1,0-.09.25.25,0,0,1,.11-.17l1-.64a.26.26,0,0,1,.35.08.42.42,0,0,1,0,.1v.1a.31.31,0,0,1-.12.16C57.75,58.55,57.43,58.76,57.12,59Zm2-1.29a.22.22,0,0,1-.13,0,.26.26,0,0,1-.13-.48c.33-.2.67-.39,1-.57a.25.25,0,0,1,.35.1.26.26,0,0,1-.1.35C59.81,57.31,59.48,57.5,59.15,57.69ZM70,53.14a.26.26,0,0,1,.2-.31c.38-.08.76-.16,1.13-.22a.25.25,0,1,1,.1.5l-1.12.22h-.06A.26.26,0,0,1,70,53.14Z"/><path class="cls-3" d="M80,51.27A19.44,19.44,0,0,0,62.62,40.64h0A19.45,19.45,0,0,0,43.53,63.78a.87.87,0,0,0,.06.32,19.88,19.88,0,0,0,1.7,4.82A19.47,19.47,0,0,0,62.65,79.56a19.62,19.62,0,0,0,8.81-2.12A19.46,19.46,0,0,0,80,51.27Zm-.31,16.32c-.12.28-.25.55-.39.83A16.53,16.53,0,0,1,78.39,70a19.19,19.19,0,0,1-1.6,2.19,18.2,18.2,0,0,1-3.16,2.91q-.61.45-1.26.84c-.42.26-.85.51-1.3.73a18.6,18.6,0,0,1-8.42,2,18.88,18.88,0,0,1-3.76-.38,19.09,19.09,0,0,1-2.43-.68,18.48,18.48,0,0,1-10.41-9.11,18.86,18.86,0,0,1-1.65-4.69.41.41,0,0,1,0-.16,18.4,18.4,0,0,1,.57-9.35A18.48,18.48,0,0,1,46.41,51c.15-.27.3-.53.46-.78a18.51,18.51,0,0,1,7.32-6.68,19.85,19.85,0,0,1,2.53-1,19.09,19.09,0,0,1,3.72-.85,19.92,19.92,0,0,1,2.18-.13c.42,0,.85,0,1.27.05a17.34,17.34,0,0,1,2.49.34,18.57,18.57,0,0,1,9.87,5.54c.29.31.58.64.85,1a18.77,18.77,0,0,1,2.12,3.28c.28.55.53,1.11.76,1.69.11.28.21.57.31.86a18.49,18.49,0,0,1,0,11.65A18.1,18.1,0,0,1,79.67,67.59Z"/><path class="cls-1" d="M49.11,65.89a.26.26,0,0,0-.36,0l-.71.9a.26.26,0,0,0,.05.36.27.27,0,0,0,.15,0,.25.25,0,0,0,.21-.1c.22-.3.46-.59.7-.89A.26.26,0,0,0,49.11,65.89Z"/><path class="cls-1" d="M52.41,62.4a.27.27,0,0,0-.37,0c-.28.26-.56.53-.82.8a.27.27,0,0,0,0,.37.24.24,0,0,0,.18.07.26.26,0,0,0,.18-.07c.26-.27.54-.54.82-.8A.26.26,0,0,0,52.41,62.4Z"/><path class="cls-1" d="M50.7,64.09a.25.25,0,0,0-.36,0c-.26.28-.52.56-.77.85a.25.25,0,0,0,0,.36.23.23,0,0,0,.17.07l.1,0A.22.22,0,0,0,50,65.3l.76-.84A.27.27,0,0,0,50.7,64.09Z"/><path class="cls-1" d="M53.41,58.09a.26.26,0,0,0,.2.1.25.25,0,0,0,.16-.06l.94-.7a.26.26,0,1,0-.3-.42l-1,.72A.25.25,0,0,0,53.41,58.09Z"/><path class="cls-1" d="M54.22,60.81a.25.25,0,0,0-.36,0c-.29.24-.59.49-.88.75a.26.26,0,0,0,0,.36.25.25,0,0,0,.19.09.27.27,0,0,0,.17-.06q.43-.39.87-.75A.25.25,0,0,0,54.22,60.81Z"/><path class="cls-1" d="M51.49,59.68a.25.25,0,0,0,.2.09.23.23,0,0,0,.17-.07l.89-.76a.25.25,0,1,0-.32-.39c-.31.25-.61.51-.91.77A.25.25,0,0,0,51.49,59.68Z"/><path class="cls-1" d="M48,63.2a.27.27,0,0,0,.36,0l.79-.87a.25.25,0,1,0-.37-.35c-.27.29-.54.58-.8.88A.25.25,0,0,0,48,63.2Z"/><path class="cls-1" d="M49.61,61.21a.29.29,0,0,0,0,.09.24.24,0,0,0,.06.09.24.24,0,0,0,.18.07.26.26,0,0,0,.18-.07l.85-.82A.25.25,0,0,0,51,60.3a.41.41,0,0,0-.05-.09.27.27,0,0,0-.37,0l-.85.82A.27.27,0,0,0,49.61,61.21Z"/><path class="cls-1" d="M66.94,54a.27.27,0,0,0-.33-.17l-1.1.37a.26.26,0,0,0-.15.33.25.25,0,0,0,.24.17h.08c.36-.13.73-.26,1.09-.37A.26.26,0,0,0,66.94,54Z"/><path class="cls-1" d="M72.75,51.35l.23,0,0-.06-.23,0c-.79.09-1.92.23-3.25.51l-1,.23-1.11.28c-.75.21-1.54.45-2.35.73s-1.63.6-2.45.95-1.65.75-2.46,1.17-1.6.87-2.37,1.34-1.49,1-2.19,1.46c-1,.75-2,1.52-2.81,2.25-.27.24-.54.48-.78.72-.5.46-.94.9-1.32,1.3s-.71.76-1,1.06l-.81,1s.3-.33.85-.89S51,62,52,61.1a43.31,43.31,0,0,1,3.65-2.85c.7-.48,1.43-1,2.2-1.42s1.55-.91,2.36-1.33,1.62-.81,2.44-1.17,1.63-.69,2.43-1,1.58-.55,2.32-.77,1.46-.41,2.12-.57C70.87,51.69,72,51.47,72.75,51.35Z"/><path class="cls-1" d="M70.3,53.33l1.12-.22a.25.25,0,1,0-.1-.5c-.37.06-.75.14-1.13.22a.26.26,0,0,0,0,.51Z"/><path class="cls-1" d="M69.26,53.31a.26.26,0,0,0-.31-.19l-1.12.3a.26.26,0,0,0-.17.32.26.26,0,0,0,.24.19H68l1.11-.3A.25.25,0,0,0,69.26,53.31Z"/><path class="cls-1" d="M72.61,52.91h0l.78-.1c0-.17-.08-.34-.13-.5l-.72.1a.26.26,0,0,0,0,.51Z"/><path class="cls-1" d="M58.19,58.19v-.1a.42.42,0,0,0,0-.1.26.26,0,0,0-.35-.08l-1,.64a.25.25,0,0,0-.11.17.14.14,0,0,0,0,.09.3.3,0,0,0,0,.1A.26.26,0,0,0,57,59a.28.28,0,0,0,.15,0c.31-.22.63-.43,1-.63A.31.31,0,0,0,58.19,58.19Z"/><path class="cls-1" d="M56.5,55.6c-.34.21-.67.43-1,.66a.25.25,0,0,0-.07.35.25.25,0,0,0,.22.12.24.24,0,0,0,.14,0l1-.64a.27.27,0,0,0,.08-.36A.26.26,0,0,0,56.5,55.6Z"/><path class="cls-1" d="M64.49,55a.23.23,0,0,0,0-.18.23.23,0,0,0-.3-.13c-.32.12-.63.25-.94.39a.22.22,0,0,0-.12.3.22.22,0,0,0,.21.14.15.15,0,0,0,.09,0l.93-.38a.18.18,0,0,0,.07-.05A.12.12,0,0,0,64.49,55Z"/><path class="cls-1" d="M60.25,56.78a.25.25,0,0,0-.35-.1c-.34.18-.68.37-1,.57a.26.26,0,0,0,.13.48.22.22,0,0,0,.13,0c.33-.19.66-.38,1-.56A.26.26,0,0,0,60.25,56.78Z"/><path class="cls-1" d="M62.44,55.79a.44.44,0,0,0,0-.1.26.26,0,0,0-.34-.12l-1,.51a.24.24,0,0,0-.11.34.25.25,0,0,0,.23.15.23.23,0,0,0,.11,0l1-.5A.27.27,0,0,0,62.44,55.79Z"/><path class="cls-1" d="M56.14,59.34a.27.27,0,0,0-.36-.06l-.92.7a.18.18,0,0,0-.07.08.16.16,0,0,0,0,.09.26.26,0,0,0,.05.19.25.25,0,0,0,.2.1.3.3,0,0,0,.16,0l.91-.69A.26.26,0,0,0,56.14,59.34Z"/><path class="cls-1" d="M64.3,52.06a.25.25,0,0,0,.24.17l.08,0,1.12-.38a.26.26,0,0,0,.17-.32.27.27,0,0,0-.33-.17l-1.13.39A.26.26,0,0,0,64.3,52.06Z"/><path class="cls-1" d="M59.72,54.06a.24.24,0,0,0,.23.14.23.23,0,0,0,.11,0l1.07-.52a.16.16,0,0,0,.08-.06.22.22,0,0,0,0-.08.28.28,0,0,0,0-.2.25.25,0,0,0-.34-.12c-.37.17-.73.34-1.08.52A.25.25,0,0,0,59.72,54.06Z"/><path class="cls-1" d="M62.11,52.65a.26.26,0,0,0,.1.49l.1,0c.36-.15.73-.31,1.1-.45a.25.25,0,0,0,.14-.33.26.26,0,0,0-.33-.15C62.85,52.34,62.47,52.49,62.11,52.65Z"/><path class="cls-1" d="M66.84,51a.26.26,0,0,0-.17.32.25.25,0,0,0,.24.18H67l1.14-.31a.24.24,0,0,0,.16-.11.35.35,0,0,0,0-.2.26.26,0,0,0-.32-.18Z"/><path class="cls-1" d="M71.63,49.92a.28.28,0,0,0-.12.26.29.29,0,0,0,.09.15.27.27,0,0,0,.17.06h0l.77-.11c-.07-.17-.15-.33-.22-.49l-.63.09Z"/><path class="cls-1" d="M62.62,42.84h-.54l-.73,0a17.77,17.77,0,0,0-2.29.32,17.53,17.53,0,0,0-2.23.61c-.49.18-1,.37-1.44.59a17.11,17.11,0,0,0-5,3.54A16.64,16.64,0,0,0,47,52.85c-.2.44-.38.88-.54,1.33a12.91,12.91,0,0,0-.41,1.34,16.63,16.63,0,0,0-.49,5.24l0,.6v.3c0,.1,0,.2,0,.3.05.4.13.78.2,1.15a17.48,17.48,0,0,0,.58,2.11,19.09,19.09,0,0,0,.77,1.8A15.59,15.59,0,0,0,49,69.71a16.62,16.62,0,0,0,1.34,1.52l.49.46c.26.27.53.52.8.77s.56.48.85.71a16.6,16.6,0,0,0,5.82,2.91,18.86,18.86,0,0,0,4.53-1.29c.34-.15.7-.32,1.06-.5a17.34,17.34,0,0,0,2.75-1.71c.18-.13.36-.28.55-.43A18.37,18.37,0,0,0,73,63a20,20,0,0,0,.82-8l-.09,0c-.37,0-.74.1-1.1.16h0a.26.26,0,0,1,0-.51l1.11-.16a.17.17,0,0,1,.1,0c-.07-.5-.16-1-.26-1.44A37.41,37.41,0,0,0,61,57.1c-1.11.58-2.2,1.22-3.25,1.91A36,36,0,0,0,48.29,68c-.18-.36-.36-.75-.52-1.16A15.6,15.6,0,0,1,47.15,65c0-.1,0-.2-.07-.3.14-.19.29-.37.45-.56a.26.26,0,0,0-.4-.32,2.43,2.43,0,0,0-.2.25c0-.16-.07-.32-.1-.49a35.37,35.37,0,0,1,2.47-2.73A39.3,39.3,0,0,1,55,56.13a41.1,41.1,0,0,1,8.21-4.35c.58-.23,1.17-.44,1.75-.64a39.19,39.19,0,0,1,7.21-1.72c-.24-.47-.49-.91-.74-1.32h0l-1.19.19h0a.26.26,0,0,1-.25-.21.26.26,0,0,1,.21-.3l1-.16a17.71,17.71,0,0,0-1.45-1.89,16.2,16.2,0,0,1,1.93,1.06,19.43,19.43,0,0,1,1.93,1.45,17.11,17.11,0,0,1,1.59,1.6,17.42,17.42,0,0,1,2.24,3.28A17,17,0,0,1,78.55,56c.07.21.12.41.17.59s.1.36.13.53.14.6.18.83l.12.7,0-.71a14.71,14.71,0,0,0-.29-2,15.39,15.39,0,0,0-.94-3c-.13-.28-.26-.57-.41-.86a15.35,15.35,0,0,0-1-1.8c-.2-.3-.42-.61-.65-.91a19.76,19.76,0,0,0-1.59-1.78,20.07,20.07,0,0,0-2-1.63,16.68,16.68,0,0,0-5-2.4,17.08,17.08,0,0,0-2.88-.58l-.75-.07-.75,0h-.24v0ZM68.28,54.7a.25.25,0,0,1,.31.17.26.26,0,0,1-.17.32q-.54.15-1.08.33h-.08a.26.26,0,0,1-.08-.5C67.55,54.91,67.91,54.8,68.28,54.7Zm5-.79a.26.26,0,0,1-.22.29c-.37,0-.74.12-1.1.18h0a.26.26,0,0,1-.25-.22.24.24,0,0,1,.2-.29L73,53.69A.26.26,0,0,1,73.24,53.91ZM50.34,66.1a.26.26,0,0,1,.39.33c-.25.28-.49.57-.72.86l-.09.07a.22.22,0,0,1-.11,0,.3.3,0,0,1-.16,0,.27.27,0,0,1,0-.37C49.85,66.67,50.09,66.38,50.34,66.1Zm7.47-6.27a.27.27,0,0,1-.06.36l-.93.64a.2.2,0,0,1-.15.05l-.11,0a.24.24,0,0,1-.09-.08.23.23,0,0,1,0-.19.29.29,0,0,1,0-.1.23.23,0,0,1,.07-.07c.31-.22.62-.45.94-.66A.25.25,0,0,1,57.81,59.83Zm2.76-2c.33-.18.67-.36,1-.53a.25.25,0,0,1,.34.11.27.27,0,0,1-.11.35l-1,.52a.27.27,0,0,1-.12,0,.26.26,0,0,1-.23-.13A.26.26,0,0,1,60.57,57.85Zm10-3.73a.25.25,0,0,1,.3.2.26.26,0,0,1-.19.3l-1.1.25h-.06a.25.25,0,0,1-.06-.5C69.86,54.28,70.23,54.2,70.6,54.12ZM58.66,60.46a.25.25,0,0,1-.07.35l-.92.63a.2.2,0,0,1-.15.05.24.24,0,0,1-.2-.11.24.24,0,0,1,.06-.35c.3-.22.61-.44.93-.64A.25.25,0,0,1,58.66,60.46Zm4.1-2.33a.28.28,0,0,1,0,.2.41.41,0,0,1-.05.09l-.08.06-1,.51-.12,0a.27.27,0,0,1-.23-.14.26.26,0,0,1,.11-.35l1-.51A.27.27,0,0,1,62.76,58.13Zm2.15-1a.25.25,0,0,1-.14.33c-.34.14-.69.29-1,.45l-.11,0a.25.25,0,0,1-.23-.15.26.26,0,0,1,.13-.34c.34-.16.69-.31,1-.45A.26.26,0,0,1,64.91,57.18Zm.67-.27a.25.25,0,0,1,.15-.33l1.06-.38a.25.25,0,0,1,.32.16.26.26,0,0,1-.16.33l-1,.37-.09,0A.25.25,0,0,1,65.58,56.91Zm2.22-.77a.25.25,0,0,1,.17-.32l1.08-.31a.25.25,0,1,1,.14.49l-1.07.31H68A.25.25,0,0,1,67.8,56.14Zm-7.13,3.09a.26.26,0,0,1-.09.35l-1,.57a.22.22,0,0,1-.13,0,.25.25,0,0,1-.22-.12.26.26,0,0,1,.08-.36c.32-.19.64-.39,1-.57A.25.25,0,0,1,60.67,59.23Zm-5.79,4.41c-.27.24-.55.49-.82.75a.27.27,0,0,1-.17.06.24.24,0,0,1-.19-.08.25.25,0,0,1,0-.36l.84-.75a.25.25,0,1,1,.33.38Zm-1.7,1.59-.77.79a.25.25,0,0,1-.36,0,.25.25,0,0,1,0-.36c.25-.27.51-.54.78-.8a.25.25,0,0,1,.36.36Zm2.64-2.37a.27.27,0,0,1-.16.06.26.26,0,0,1-.2-.1.22.22,0,0,1-.06-.19.16.16,0,0,1,0-.09.24.24,0,0,1,.06-.08l.89-.7a.26.26,0,1,1,.31.41Q56.26,62.5,55.82,62.86Zm-5.34,4.57c.24-.29.48-.57.73-.85a.25.25,0,0,1,.36,0,.28.28,0,0,1,.09.17.3.3,0,0,1,0,.1.2.2,0,0,1,0,.09c-.24.27-.48.55-.71.84a.27.27,0,0,1-.2.09.23.23,0,0,1-.16-.06A.26.26,0,0,1,50.48,67.43Zm21.36-5.29c0,.14-.07.35-.13.61s-.14.57-.24.93-.26.76-.42,1.19c-.1.21-.19.43-.29.66s-.23.46-.34.7-.26.47-.4.71-.3.48-.46.73l-.24.36-.27.36c-.09.12-.17.25-.27.36l-.29.36a17.65,17.65,0,0,1-1.25,1.36l-.69.63-.71.59-.72.54c-.25.18-.49.34-.74.5a16.9,16.9,0,0,1-2.14,1.16l-.66.29c-.43.17-.83.31-1.19.42s-.67.19-.93.25l-.61.12-.22,0,.19-.11.54-.3c.45-.27,1.09-.66,1.84-1.14.37-.25.77-.51,1.18-.81s.85-.61,1.28-.94.87-.7,1.31-1.07l.64-.58c.21-.2.43-.39.64-.6.41-.4.82-.82,1.2-1.25.19-.21.38-.42.56-.64s.19-.21.28-.31l.26-.33.25-.31.24-.32.47-.62c.29-.41.56-.81.81-1.18.12-.18.23-.37.34-.54s.21-.33.3-.49c.19-.32.37-.58.49-.82l.31-.53.09-.14,0,0Zm-.29-6.71-.1,0c-.35.07-.72.15-1.08.24h-.06a.26.26,0,0,1-.25-.2.32.32,0,0,1,0-.19.23.23,0,0,1,.16-.11l1.1-.24a.26.26,0,0,1,.31.2A.27.27,0,0,1,71.55,55.43ZM55.88,61.22a.26.26,0,0,1,0,.36l-.88.7a.27.27,0,0,1-.16.06.26.26,0,0,1-.17-.45l.89-.72A.27.27,0,0,1,55.88,61.22Zm-2.2,1.49a.26.26,0,1,1,.34.38l-.82.76a.31.31,0,0,1-.18.07.29.29,0,0,1-.19-.08.32.32,0,0,1-.07-.19.33.33,0,0,1,.08-.18Zm-2.51,2.46c.25-.27.51-.55.78-.82a.27.27,0,0,1,.37,0,.22.22,0,0,1,0,.08.18.18,0,0,1,0,.1.26.26,0,0,1-.07.18c-.27.27-.53.54-.77.81a.29.29,0,0,1-.19.08.24.24,0,0,1-.18-.07A.25.25,0,0,1,51.17,65.17Zm15.15-9.59a.25.25,0,0,1-.07.28l-.08,0-1.06.39a.15.15,0,0,1-.09,0,.25.25,0,0,1-.24-.16.18.18,0,0,1,0-.1.3.3,0,0,1,0-.1.25.25,0,0,1,.14-.13l1.07-.4A.26.26,0,0,1,66.32,55.58Zm-2.56.72a.27.27,0,0,1,.34.14.25.25,0,0,1-.14.33l-1,.46a.19.19,0,0,1-.1,0,.28.28,0,0,1-.24-.15.26.26,0,0,1,.13-.34Zm-3.93,2.26a.69.69,0,0,1,0,.1.34.34,0,0,1,0,.1.31.31,0,0,1-.12.16l-1,.58a.23.23,0,0,1-.14,0,.25.25,0,0,1-.21-.12.25.25,0,0,1,.08-.35l1-.6A.26.26,0,0,1,59.83,58.56ZM48.51,68.39l.33-.45a.27.27,0,0,1,.36,0,.25.25,0,0,1,0,.36l-.47.64C48.69,68.73,48.6,68.57,48.51,68.39Zm.67,1.16c0-.08-.1-.16-.14-.24s0,0,0,0c.21-.3.44-.6.66-.9a.27.27,0,0,1,.36,0,.25.25,0,0,1,0,.36c-.22.3-.44.59-.65.89l-.09.07a.2.2,0,0,1-.11,0ZM71.52,48.82a.25.25,0,0,1-.21.29c-.4.06-.79.13-1.18.21h0a.26.26,0,0,1-.14-.47l.09,0,1.19-.21A.27.27,0,0,1,71.52,48.82Zm-6.34,1.75a.28.28,0,0,1-.15,0,.38.38,0,0,1-.09-.13.27.27,0,0,1,.17-.33l1.16-.35a.24.24,0,0,1,.31.17.25.25,0,0,1-.17.32l-1.15.35ZM46.73,63a.13.13,0,0,1,0-.06c0-.21-.06-.41-.08-.63l.48-.54a.25.25,0,0,1,.36,0,.26.26,0,0,1,0,.36C47.24,62.43,47,62.73,46.73,63ZM69.14,48.25a.26.26,0,0,1-.2.3l-1.18.27H67.7a.26.26,0,0,1-.25-.19.26.26,0,0,1,.19-.32l1.19-.27A.26.26,0,0,1,69.14,48.25ZM46.55,61l.27-.3a.25.25,0,0,1,.38.34l-.62.7V61.3C46.56,61.19,46.55,61.08,46.55,61Zm19.78-12.3a.26.26,0,0,1,.32.18.25.25,0,0,1-.18.31l-1.16.35h-.08a.26.26,0,0,1-.07-.5C65.54,48.89,65.94,48.78,66.33,48.67Zm-3.76,1.52a.25.25,0,0,1,.15-.33l1.15-.42a.25.25,0,0,1,.33.16.26.26,0,0,1-.16.33l-1.14.41-.09,0A.25.25,0,0,1,62.57,50.19Zm-2,1.14-.11,0a.26.26,0,0,1-.11-.49c.38-.17.76-.34,1.13-.49a.26.26,0,0,1,.34.13.27.27,0,0,1-.14.34C61.29,51,60.92,51.16,60.55,51.33Zm-2.64,1A.26.26,0,0,1,58,52l1.1-.56a.26.26,0,0,1,.34.11.26.26,0,0,1-.11.35l-1.09.55a.21.21,0,0,1-.12,0A.25.25,0,0,1,57.91,52.35Zm-3,2.09c-.34.22-.67.45-1,.68a.3.3,0,0,1-.15.05.26.26,0,0,1-.21-.11.26.26,0,0,1,.06-.36q.51-.36,1-.69a.24.24,0,0,1,.35.07A.26.26,0,0,1,54.91,54.44Zm-4.07,3.05-.91.8a.23.23,0,0,1-.17.07.26.26,0,0,1-.17-.45c.3-.27.61-.55.92-.81a.26.26,0,1,1,.33.39Zm-3.1,2.2c.28-.29.58-.58.87-.86a.25.25,0,0,1,.36,0,.27.27,0,0,1,0,.37l-.85.85a.27.27,0,0,1-.19.08.27.27,0,0,1-.18-.44Zm3.72-3.18a.25.25,0,0,1,0-.19l.07-.08c.31-.25.64-.5,1-.75a.27.27,0,0,1,.36,0,.26.26,0,0,1-.05.36c-.33.25-.65.49-1,.75a.33.33,0,0,1-.16.05.23.23,0,0,1-.2-.1A.13.13,0,0,1,51.46,56.51Zm4.31-3.23,1.06-.63a.26.26,0,0,1,.35.1.25.25,0,0,1-.1.35l-1,.62a.23.23,0,0,1-.14,0,.24.24,0,0,1-.21-.13A.25.25,0,0,1,55.77,53.28Zm-7.39,7.9a.25.25,0,0,1-.18.08.29.29,0,0,1-.18-.07.27.27,0,0,1,0-.37c.27-.29.56-.58.84-.86a.27.27,0,0,1,.37,0,.26.26,0,0,1,.07.18.16.16,0,0,1,0,.1.22.22,0,0,1-.05.08C48.93,60.6,48.65,60.89,48.38,61.18ZM67.62,49.87a.26.26,0,0,1-.25-.19.26.26,0,0,1,.18-.32l1.18-.28a.26.26,0,0,1,.31.2.26.26,0,0,1-.2.3l-1.16.28ZM50,59.48a.24.24,0,0,1-.19-.08.19.19,0,0,1,0-.09.25.25,0,0,1,.06-.27l.9-.81a.25.25,0,0,1,.36,0,.47.47,0,0,1,.06.09.34.34,0,0,1,0,.1.28.28,0,0,1-.09.17l-.89.81A.27.27,0,0,1,50,59.48Zm2.07-1.72a.27.27,0,0,1-.17.06.27.27,0,0,1-.2-.09.26.26,0,0,1,0-.36c.31-.26.63-.51,1-.76a.27.27,0,0,1,.36,0A.25.25,0,0,1,53,57C52.68,57.26,52.36,57.51,52.06,57.76Zm1.84-1.48a.26.26,0,0,1-.21-.11.25.25,0,0,1,0-.19.16.16,0,0,1,0-.09l.07-.07,1-.7a.26.26,0,0,1,.36.07.28.28,0,0,1-.07.36c-.34.22-.67.45-1,.68A.21.21,0,0,1,53.9,56.28ZM56,54.86a.25.25,0,0,1-.14-.47c.34-.21.69-.43,1-.63a.26.26,0,1,1,.26.44c-.35.2-.69.41-1,.62A.22.22,0,0,1,56,54.86Zm2.19-1.28a.28.28,0,0,1-.23-.13.26.26,0,0,1,.1-.35l1.08-.57a.27.27,0,0,1,.35.11.36.36,0,0,1,0,.1.2.2,0,0,1-.06.18.19.19,0,0,1-.08.07c-.36.18-.71.37-1.06.56A.27.27,0,0,1,58.2,53.58Zm2.37-1.17a.2.2,0,0,1-.11,0,.25.25,0,0,1-.23-.15.26.26,0,0,1,.12-.34l1.12-.5a.26.26,0,0,1,.2.48C61.31,52.07,60.94,52.24,60.57,52.41Zm2.32-1-.09,0a.25.25,0,0,1-.24-.16.27.27,0,0,1,.14-.34l1.14-.43a.27.27,0,0,1,.33.16.29.29,0,0,1-.07.28A.19.19,0,0,1,64,51Zm.88-7.65.22,0h-.22l-.81,0c-.35,0-.77.06-1.25.12s-1,.16-1.6.28-1.2.3-1.84.51a19.72,19.72,0,0,0-2,.8c-.17.07-.34.16-.51.25l-.12.06-.06,0-.06,0-.25.14c-.32.19-.66.37-1,.59l-.49.31-.46.35-.47.35-.45.38a17.15,17.15,0,0,0-1.67,1.63c-.13.14-.24.29-.37.44l-.36.43c-.22.31-.45.61-.66.91s-.4.61-.58.92l-.26.45a4.92,4.92,0,0,0-.24.45c-.31.61-.57,1.19-.79,1.74l-.29.8c-.09.26-.16.51-.23.74s-.07.23-.1.34,0,.21-.08.31-.1.4-.14.56c-.08.44-.15.75-.18.93l0,.09v-.22c0-.19,0-.46,0-.82,0-.17,0-.37.07-.58a6.37,6.37,0,0,1,.11-.68c0-.24.09-.5.15-.77s.15-.55.23-.85.2-.59.3-.9a4.52,4.52,0,0,1,.18-.47l.2-.48a5.24,5.24,0,0,1,.23-.48l.24-.49c.08-.17.18-.33.27-.49s.2-.32.29-.49.44-.64.66-1,.48-.63.74-.94a18.83,18.83,0,0,1,1.73-1.73l.48-.39.49-.37.5-.35.51-.33c.18-.1.34-.22.52-.31L55,45.4l.26-.14.06,0,.07,0,.13-.06c.18-.08.34-.17.53-.24a15.81,15.81,0,0,1,2.09-.73A13.48,13.48,0,0,1,60,43.78a14.91,14.91,0,0,1,1.65-.13,12.47,12.47,0,0,1,1.28,0A8.09,8.09,0,0,1,63.77,43.76Z"/><path class="cls-1" d="M69.08,50.65a.25.25,0,0,0,.25.2h0l1.15-.23a.26.26,0,0,0,.21-.3.27.27,0,0,0-.3-.21l-1.17.24-.09,0A.26.26,0,0,0,69.08,50.65Z"/><path class="cls-1" d="M57.62,54.92a.26.26,0,0,0,.13.48.22.22,0,0,0,.13,0l1-.58a.26.26,0,1,0-.25-.45Z"/><path class="cls-5" d="M71.76,62.11l-.31.53c-.12.24-.3.5-.49.82-.09.16-.19.32-.3.49s-.22.36-.34.54c-.25.37-.52.77-.81,1.18l-.47.62-.24.32-.25.31-.26.33c-.09.1-.18.21-.28.31s-.37.43-.56.64c-.38.43-.79.85-1.2,1.25-.21.21-.43.4-.64.6l-.64.58c-.44.37-.88.73-1.31,1.07s-.86.65-1.28.94-.81.56-1.18.81c-.75.48-1.39.87-1.84,1.14l-.54.3-.19.11.22,0,.61-.12c.26-.06.58-.14.93-.25s.76-.25,1.19-.42l.66-.29a16.9,16.9,0,0,0,2.14-1.16c.25-.16.49-.32.74-.5l.72-.54.71-.59.69-.63a17.65,17.65,0,0,0,1.25-1.36l.29-.36c.1-.11.18-.24.27-.36l.27-.36.24-.36c.16-.25.32-.48.46-.73s.28-.47.4-.71.24-.47.34-.7.19-.45.29-.66c.16-.43.31-.83.42-1.19s.19-.67.24-.93.1-.47.13-.61l0-.22,0,0Z"/><path class="cls-5" d="M49.25,68.25a.25.25,0,0,0,0-.36.27.27,0,0,0-.36,0l-.33.45c.09.18.18.34.27.5Z"/><path class="cls-5" d="M49.65,67.33a.3.3,0,0,0,.16,0,.22.22,0,0,0,.11,0l.09-.07c.23-.29.47-.58.72-.86a.26.26,0,0,0-.39-.33c-.25.28-.49.57-.73.86A.27.27,0,0,0,49.65,67.33Z"/><path class="cls-5" d="M51.18,65.53a.24.24,0,0,0,.18.07.29.29,0,0,0,.19-.08c.24-.27.5-.54.77-.81a.26.26,0,0,0,.07-.18.18.18,0,0,0,0-.1.22.22,0,0,0,0-.08.27.27,0,0,0-.37,0c-.27.27-.53.55-.78.82A.25.25,0,0,0,51.18,65.53Z"/><path class="cls-5" d="M52.76,63.65a.32.32,0,0,0,.07.19.29.29,0,0,0,.19.08.31.31,0,0,0,.18-.07l.82-.76a.26.26,0,1,0-.34-.38l-.84.76A.33.33,0,0,0,52.76,63.65Z"/><path class="cls-5" d="M54.63,61.89a.26.26,0,0,0,.17.45.27.27,0,0,0,.16-.06l.88-.7a.26.26,0,0,0,0-.36.27.27,0,0,0-.36,0Z"/><path class="cls-5" d="M56.52,60.42a.23.23,0,0,0-.07.07.29.29,0,0,0,0,.1.23.23,0,0,0,0,.19.24.24,0,0,0,.09.08l.11,0a.2.2,0,0,0,.15-.05l.93-.64a.27.27,0,0,0,.06-.36.25.25,0,0,0-.35-.07C57.14,60,56.83,60.2,56.52,60.42Z"/><path class="cls-5" d="M58.51,59.07a.25.25,0,0,0-.08.35.25.25,0,0,0,.21.12.23.23,0,0,0,.14,0l1-.58a.31.31,0,0,0,.12-.16.34.34,0,0,0,0-.1.69.69,0,0,0,0-.1.26.26,0,0,0-.35-.09Z"/><path class="cls-5" d="M60.7,58.33a.27.27,0,0,0,.12,0l1-.52a.27.27,0,0,0,.11-.35.25.25,0,0,0-.34-.11c-.35.17-.69.35-1,.53a.26.26,0,0,0-.1.35A.26.26,0,0,0,60.7,58.33Z"/><path class="cls-5" d="M62.59,57.11a.28.28,0,0,0,.24.15.19.19,0,0,0,.1,0l1-.46a.25.25,0,0,0,.14-.33.27.27,0,0,0-.34-.14l-1,.47A.26.26,0,0,0,62.59,57.11Z"/><path class="cls-5" d="M64.92,55.83a.25.25,0,0,0-.14.13.3.3,0,0,0,0,.1.18.18,0,0,0,0,.1.25.25,0,0,0,.24.16.15.15,0,0,0,.09,0l1.06-.39.08,0a.25.25,0,0,0,.07-.28.26.26,0,0,0-.33-.15Z"/><path class="cls-5" d="M67,55.35a.25.25,0,0,0,.24.18h.08q.54-.18,1.08-.33a.26.26,0,0,0,.17-.32.25.25,0,0,0-.31-.17c-.37.1-.73.21-1.1.33A.25.25,0,0,0,67,55.35Z"/><path class="cls-5" d="M69.49,54.38a.25.25,0,0,0,.06.5h.06l1.1-.25a.26.26,0,0,0,.19-.3.25.25,0,0,0-.3-.2C70.23,54.2,69.86,54.28,69.49,54.38Z"/><path class="cls-5" d="M73,53.69l-1.13.19a.24.24,0,0,0-.2.29.26.26,0,0,0,.25.22h0c.36-.06.73-.13,1.1-.18a.26.26,0,0,0,.22-.29A.26.26,0,0,0,73,53.69Z"/><path class="cls-5" d="M49.47,69.59c.21-.3.43-.59.65-.89a.25.25,0,0,0,0-.36.27.27,0,0,0-.36,0c-.22.3-.45.6-.66.9,0,0,0,0,0,0s.09.16.14.24l.09.14a.2.2,0,0,0,.11,0Z"/><path class="cls-5" d="M50.52,67.79a.23.23,0,0,0,.16.06.27.27,0,0,0,.2-.09c.23-.29.47-.57.71-.84a.2.2,0,0,0,0-.09.3.3,0,0,0,0-.1.28.28,0,0,0-.09-.17.25.25,0,0,0-.36,0c-.25.28-.49.56-.73.85A.26.26,0,0,0,50.52,67.79Z"/><path class="cls-5" d="M53.18,64.87a.25.25,0,0,0-.36,0c-.27.26-.53.53-.78.8a.25.25,0,0,0,0,.36.25.25,0,0,0,.36,0l.77-.79A.25.25,0,0,0,53.18,64.87Z"/><path class="cls-5" d="M54.91,63.28a.25.25,0,0,0-.36,0l-.84.75a.25.25,0,0,0,0,.36.24.24,0,0,0,.19.08.27.27,0,0,0,.17-.06c.27-.26.55-.51.82-.75A.25.25,0,0,0,54.91,63.28Z"/><path class="cls-5" d="M56.74,61.81a.27.27,0,0,0-.36-.05l-.89.7a.24.24,0,0,0-.06.08.16.16,0,0,0,0,.09.22.22,0,0,0,.06.19.26.26,0,0,0,.2.1.27.27,0,0,0,.16-.06q.43-.36.87-.69A.27.27,0,0,0,56.74,61.81Z"/><path class="cls-5" d="M58.31,60.39c-.32.2-.63.42-.93.64a.24.24,0,0,0-.06.35.24.24,0,0,0,.2.11.2.2,0,0,0,.15-.05l.92-.63a.25.25,0,1,0-.28-.42Z"/><path class="cls-5" d="M60.32,59.14c-.33.18-.65.38-1,.57a.26.26,0,0,0-.08.36.25.25,0,0,0,.22.12.22.22,0,0,0,.13,0l1-.57a.26.26,0,0,0,.09-.35A.25.25,0,0,0,60.32,59.14Z"/><path class="cls-5" d="M62.41,58l-1,.51a.26.26,0,0,0-.11.35.27.27,0,0,0,.23.14l.12,0,1-.51.08-.06a.41.41,0,0,0,.05-.09.28.28,0,0,0,0-.2A.27.27,0,0,0,62.41,58Z"/><path class="cls-5" d="M64.57,57c-.34.14-.69.29-1,.45a.26.26,0,0,0-.13.34.25.25,0,0,0,.23.15l.11,0c.33-.16.68-.31,1-.45a.25.25,0,0,0,.14-.33A.26.26,0,0,0,64.57,57Z"/><path class="cls-5" d="M65.82,57.08l.09,0,1-.37a.26.26,0,0,0,.16-.33.25.25,0,0,0-.32-.16l-1.06.38a.25.25,0,0,0-.15.33A.25.25,0,0,0,65.82,57.08Z"/><path class="cls-5" d="M68,56.32h.08L69.19,56a.25.25,0,1,0-.14-.49L68,55.82a.25.25,0,0,0-.17.32A.25.25,0,0,0,68,56.32Z"/><path class="cls-5" d="M71.66,55.17a.26.26,0,0,0-.31-.2l-1.1.24a.23.23,0,0,0-.16.11.32.32,0,0,0,0,.19.26.26,0,0,0,.25.2h.06c.36-.09.73-.17,1.08-.24l.1,0A.27.27,0,0,0,71.66,55.17Z"/><path class="cls-5" d="M47.5,62.14a.26.26,0,0,0,0-.36.25.25,0,0,0-.36,0l-.48.54c0,.22,0,.42.08.63a.13.13,0,0,0,0,.06C47,62.73,47.24,62.43,47.5,62.14Z"/><path class="cls-5" d="M49.22,60.32a.22.22,0,0,0,.05-.08.16.16,0,0,0,0-.1.26.26,0,0,0-.07-.18.27.27,0,0,0-.37,0c-.28.28-.57.57-.84.86a.27.27,0,0,0,0,.37.29.29,0,0,0,.18.07.25.25,0,0,0,.18-.08C48.65,60.89,48.93,60.6,49.22,60.32Z"/><path class="cls-5" d="M51.05,58.61a.28.28,0,0,0,.09-.17.34.34,0,0,0,0-.1.47.47,0,0,0-.06-.09.25.25,0,0,0-.36,0l-.9.81a.25.25,0,0,0-.06.27.19.19,0,0,0,0,.09.24.24,0,0,0,.19.08.27.27,0,0,0,.17-.06Z"/><path class="cls-5" d="M53,56.66a.27.27,0,0,0-.36,0c-.32.25-.64.5-1,.76a.26.26,0,0,0,0,.36.27.27,0,0,0,.2.09.27.27,0,0,0,.17-.06c.3-.25.62-.5.93-.74A.25.25,0,0,0,53,56.66Z"/><path class="cls-5" d="M55,55.55a.28.28,0,0,0,.07-.36.26.26,0,0,0-.36-.07l-1,.7-.07.07a.16.16,0,0,0,0,.09.25.25,0,0,0,0,.19.26.26,0,0,0,.21.11.21.21,0,0,0,.15-.05C54.37,56,54.7,55.77,55,55.55Z"/><path class="cls-5" d="M57.26,53.85a.26.26,0,0,0-.35-.09c-.35.2-.7.42-1,.63a.25.25,0,0,0,.14.47.22.22,0,0,0,.13,0c.34-.21.68-.42,1-.62A.26.26,0,0,0,57.26,53.85Z"/><path class="cls-5" d="M59.38,53a.19.19,0,0,0,.08-.07.2.2,0,0,0,.06-.18.36.36,0,0,0,0-.1.27.27,0,0,0-.35-.11l-1.08.57a.26.26,0,0,0-.1.35.28.28,0,0,0,.23.13.27.27,0,0,0,.12,0C58.67,53.36,59,53.17,59.38,53Z"/><path class="cls-5" d="M61.8,51.58a.25.25,0,0,0-.33-.14l-1.12.5a.26.26,0,0,0-.12.34.25.25,0,0,0,.23.15.2.2,0,0,0,.11,0c.37-.17.74-.34,1.1-.49A.26.26,0,0,0,61.8,51.58Z"/><path class="cls-5" d="M64.17,50.66a.27.27,0,0,0-.33-.16l-1.14.43a.27.27,0,0,0-.14.34.25.25,0,0,0,.24.16l.09,0L64,51a.19.19,0,0,0,.09-.05A.29.29,0,0,0,64.17,50.66Z"/><path class="cls-5" d="M66.41,50.21a.25.25,0,0,0,.17-.32.24.24,0,0,0-.31-.17l-1.16.35a.27.27,0,0,0-.17.33.38.38,0,0,0,.09.13.28.28,0,0,0,.15,0h.08Z"/><path class="cls-5" d="M68.84,49.58a.26.26,0,0,0,.2-.3.26.26,0,0,0-.31-.2l-1.18.28a.26.26,0,0,0-.18.32.26.26,0,0,0,.25.19h.06Z"/><path class="cls-5" d="M71.22,48.6,70,48.81l-.09,0a.26.26,0,0,0,.14.47h0c.39-.08.78-.15,1.18-.21a.25.25,0,0,0,.21-.29A.27.27,0,0,0,71.22,48.6Z"/><path class="cls-5" d="M46.56,61.45v.26l.62-.7a.25.25,0,0,0-.38-.34l-.27.3c0,.11,0,.22,0,.33Z"/><path class="cls-5" d="M47.75,60.05a.25.25,0,0,0,.17.08.27.27,0,0,0,.19-.08L49,59.2a.27.27,0,0,0,0-.37.25.25,0,0,0-.36,0c-.29.28-.59.57-.87.86A.25.25,0,0,0,47.75,60.05Z"/><path class="cls-5" d="M50.51,57.1c-.31.26-.62.54-.92.81a.26.26,0,0,0,.17.45.23.23,0,0,0,.17-.07l.91-.8a.26.26,0,1,0-.33-.39Z"/><path class="cls-5" d="M51.71,56.7a.33.33,0,0,0,.16-.05c.31-.26.63-.5,1-.75a.26.26,0,0,0,.05-.36.27.27,0,0,0-.36,0c-.33.25-.66.5-1,.75l-.07.08a.25.25,0,0,0,0,.19.13.13,0,0,0,0,.09A.23.23,0,0,0,51.71,56.7Z"/><path class="cls-5" d="M55,54.08a.24.24,0,0,0-.35-.07q-.51.33-1,.69a.26.26,0,0,0-.06.36.26.26,0,0,0,.21.11.3.3,0,0,0,.15-.05c.33-.23.66-.46,1-.68A.26.26,0,0,0,55,54.08Z"/><path class="cls-5" d="M55.9,53.76a.23.23,0,0,0,.14,0l1-.62a.25.25,0,0,0,.1-.35.26.26,0,0,0-.35-.1l-1.06.63a.25.25,0,0,0-.08.35A.24.24,0,0,0,55.9,53.76Z"/><path class="cls-5" d="M58.25,52.45l1.09-.55a.26.26,0,0,0,.11-.35.26.26,0,0,0-.34-.11L58,52a.26.26,0,0,0-.1.35.25.25,0,0,0,.22.13A.21.21,0,0,0,58.25,52.45Z"/><path class="cls-5" d="M61.8,50.5a.26.26,0,0,0-.34-.13c-.37.15-.75.32-1.13.49a.26.26,0,0,0,.11.49l.11,0c.37-.17.74-.34,1.11-.49A.27.27,0,0,0,61.8,50.5Z"/><path class="cls-5" d="M62.9,50.34,64,49.93a.26.26,0,0,0,.16-.33.25.25,0,0,0-.33-.16l-1.15.42a.25.25,0,0,0-.15.33.25.25,0,0,0,.24.17Z"/><path class="cls-5" d="M65,49.34a.25.25,0,0,0,.24.18h.08l1.16-.35a.25.25,0,0,0,.18-.31.26.26,0,0,0-.32-.18c-.39.11-.79.22-1.17.35A.24.24,0,0,0,65,49.34Z"/><path class="cls-5" d="M67.64,48.32a.26.26,0,0,0-.19.32.26.26,0,0,0,.25.19h.06l1.18-.27a.26.26,0,1,0-.11-.5Z"/><path class="cls-5" d="M61.68,43.65a14.91,14.91,0,0,0-1.65.13,13.48,13.48,0,0,0-1.93.39A15.81,15.81,0,0,0,56,44.9c-.19.07-.35.16-.53.24l-.13.06-.07,0-.06,0L55,45.4l-.53.28c-.18.09-.34.21-.52.31l-.51.33-.5.35-.49.37-.48.39a18.83,18.83,0,0,0-1.73,1.73c-.26.31-.5.63-.74.94s-.45.65-.66,1-.19.33-.29.49-.19.32-.27.49l-.24.49a5.24,5.24,0,0,0-.23.48l-.2.48a4.52,4.52,0,0,0-.18.47c-.1.31-.22.61-.3.9s-.16.58-.23.85-.1.53-.15.77a6.37,6.37,0,0,0-.11.68c0,.21-.05.41-.07.58,0,.36,0,.63,0,.82v.22l0-.09c0-.18.1-.49.18-.93,0-.16.09-.35.14-.56s.05-.2.08-.31.07-.22.1-.34.14-.48.23-.74l.29-.8c.22-.55.48-1.13.79-1.74a4.92,4.92,0,0,1,.24-.45l.26-.45c.18-.31.39-.61.58-.92s.44-.6.66-.91l.36-.43c.13-.15.24-.3.37-.44a17.15,17.15,0,0,1,1.67-1.63l.45-.38.47-.35.46-.35.49-.31c.32-.22.66-.4,1-.59l.25-.14.06,0,.06,0,.12-.06c.17-.09.34-.18.51-.25a19.72,19.72,0,0,1,2-.8c.64-.21,1.26-.38,1.84-.51s1.12-.22,1.6-.28.9-.1,1.25-.12l.81,0H64l-.22,0a8.09,8.09,0,0,0-.81-.08A12.47,12.47,0,0,0,61.68,43.65Z"/><polygon class="cls-3" points="95.58 110.15 95.58 112.5 114.02 111.32 95.58 110.15"/><polygon class="cls-3" points="30.52 110.15 30.52 112.5 12.07 111.32 30.52 110.15"/></g></g></svg>