<svg xmlns="http://www.w3.org/2000/svg" version="1.1" xmlns:xlink="http://www.w3.org/1999/xlink" xmlns:svgjs="http://svgjs.com/svgjs" width="512" height="512" x="0" y="0" viewBox="0 0 512 512" style="enable-background:new 0 0 512 512" xml:space="preserve"><g><path d="M390.247 460.578V500.5a4 4 0 0 1-4 4H277.399a4 4 0 0 1-4-4v-39.922h116.848z" style="" fill="#d78878" data-original="#d78878"></path><path d="m480.155 192.174-22.239 38.752c-6.24 12.57-9.922 24.912-14.092 38.312-3.54 11.37-8.521 18.191-13.651 25.321-5.13 7.13-12.035 13.576-18.495 18.716-8.57 6.85-11.096 17.875-11.156 28.845l.11 48.4-162.192 29.75.33-57.72c.08-14.05 8.71-27.91 8.71-40.73 0-4.06-.86-8.01-3.13-11.83a102.26 102.26 0 0 1-14.34-52.18l41.7-166.26h.07l-.02-42.48c-.007-8.693 4.991-16.223 12.273-19.863 2.979-1.489 6.209-.739 9.766-.739.01 0-.01 0 0 0 6.13 0 8.861 4.072 12.881 8.092 4.03 4.02 9.481 6.4 9.491 12.53l-.01-19.4c-.007-8.653 4.946-16.154 12.173-19.813 3.004-1.521 6.456-.906 10.052-.906.01 0-.01 0 0 0 12.26.01 19.156 10.612 19.156 22.882l3.039 16.797c.134-8.499 5.044-15.84 12.172-19.445 3.003-1.519 6.374.254 9.973.254.01 0-.01 0 0 0 12.26.01 13.761 11.52 13.761 23.78l8.564 126.571.02 45.55 38.49-59.41a24.635 24.635 0 0 1 10.72-9.141c3.14-1.389 5.903.356 9.363.356 3.18 0 5.937 2.025 9.028 3.315 13.527 5.65 14.533 18.834 7.483 31.694z" style="" fill="#0ab69f" data-original="#0ab69f"></path><path d="m384.977 49.04.074 140.945 3.85 33.455 12.648-1.101 3.5-42.529-.07-130.77c0-12.26-9.95-22.2-22.21-22.21h-.02c-3.599 0-6.992.861-9.995 2.38 7.247 3.66 12.223 11.162 12.223 19.83zM340.557 29.71l.061 113.77c.005 9.39 7.619 17 17.009 17a3 3 0 0 0 3-3.002l-.068-127.768c0-12.26-9.95-22.2-22.21-22.21h-.02c-3.599 0-6.992.861-9.995 2.38 7.247 3.66 12.223 11.162 12.223 19.83zM296.089 49.04l.117 94.903c.012 9.386 7.624 16.988 17.009 16.988h.01a3 3 0 0 0 3-3.004l-.134-108.887c0-12.26-9.95-22.2-22.21-22.21h-.02c-3.599 0-6.825.859-9.828 2.378 7.246 3.659 12.056 11.164 12.056 19.832zM473.779 156.59c-3.09-1.29-6.31-1.9-9.49-1.9a24.76 24.76 0 0 0-10.01 2.126c13.162 5.838 18.589 21.726 11.628 34.424l-21.18 38.59c-6.24 12.57-11.31 25.68-15.48 39.08-3.54 11.37-7.95 20.06-13.08 27.19-5.13 7.13-11 12.7-17.46 17.84a36.329 36.329 0 0 0-13.64 28.18l.11 48.4h20.002l-.11-48.4a36.329 36.329 0 0 1 13.64-28.18c6.46-5.14 12.33-10.71 17.46-17.84 5.13-7.13 9.54-15.82 13.08-27.19 4.17-13.4 9.24-26.51 15.48-39.08l21.18-38.59c7.05-12.86 1.401-29-12.13-34.65z" style="" fill="#01998d" data-original="#01998d"></path><path d="M387.018 478.066H260.749c-9.589 0-17.362-7.773-17.362-17.362v-68.977c0-9.589 7.773-17.362 17.362-17.362H384.21c9.589 0 31.211 8.147 31.211 17.736v66.055c0 9.589-18.815 19.91-28.403 19.91z" style="" fill="#0ed2b3" data-original="#0ed2b3"></path><path d="M420.259 391.727c0-9.589-7.773-17.362-17.362-17.362h-22.002c9.589 0 17.362 7.773 17.362 17.362v68.977c0 9.589-7.773 17.362-17.362 17.362h22.002c9.589 0 17.362-7.773 17.362-17.362v-15.337l-6.286-19.151 6.286-19.151v-15.338z" style="" fill="#0ab69f" data-original="#0ab69f"></path><path d="m417.568 441.642-19.312 3.724h-46.569c-10.971 0-19.864-8.574-19.864-19.151s8.893-19.151 19.864-19.151h46.569l17 4.192 2.312 30.386z" style="" fill="#eef5f6" data-original="#eef5f6"></path><path d="M398.257 407.064h22.002v38.302h-22.002z" style="" fill="#deecf1" data-original="#deecf1"></path><path d="m400.669 220.798-15.597 14.739-138.543 70.503-11.969-39.48 150.492-76.575 16.278-4.636z" style="" fill="#eef5f6" data-original="#eef5f6"></path><path d="m385.072 235.537 19.998-10.177-.021-45.55-19.997 10.175z" style="" fill="#deecf1" data-original="#deecf1"></path><path d="M121.753 460.578V500.5a4 4 0 0 0 4 4h108.848a4 4 0 0 0 4-4v-39.922H121.753z" style="" fill="#d78878" data-original="#d78878"></path><path d="m278.467 92.321-.11 164.861c0 3.61-.2 7.19-.58 10.76a101.978 101.978 0 0 1-13.76 41.42c-9.34 15.71-15.55 34.59-15.55 52.85v.66l5.252 57.398-146.9-29.75.11-48.4a36.297 36.297 0 0 0-13.64-28.18c-6.46-5.14-12.33-10.71-17.46-17.84-5.13-7.13-9.54-15.82-13.08-27.19-4.17-13.4-9.24-26.51-15.48-39.08l-21.17-38.59c-7.06-12.86-1.916-28.766 11.614-34.416 3.09-1.29 6.767-.704 9.947-.704 8.16 0 13.991 4.139 18.661 11.339l40.609 57.901 8.602-20.027-8.582-25.523.07-130.77c0-8.67 4.98-16.18 12.23-19.83 3-1.52 6.454-.842 10.044-.852.01 0-.01 0 0 0 10.69 0 17.496 6.564 19.596 16.624.32 1.48 2.54 2.468 2.54 4.038l.01-19.3c0-8.652 4.942-16.158 12.158-19.828 3.017-1.535 6.228-.687 9.842-.69.01 0-.01 0 0 0 12.25 0 18.725 10.429 18.716 22.679l3.674 17.209c.01-6.13 2.49-11.68 6.52-15.7 1.664-1.664 3.579-3.087 5.699-4.159 3.003-1.518 6.495-.323 10.088-.323.01 0-.01 0 0 0 12.25 0 18.175 9.548 18.165 21.798l3.917 40.844h.07c0-7.921 4.411-14.813 10.909-18.358 2.969-1.62 6.696-.247 10.315-.247.01 0-.01 0 0 0 11.53 0 16.954 7.846 16.954 19.376z" style="" fill="#0ab69f" data-original="#0ab69f"></path><path d="M151.429 49.02v108.367a2 2 0 0 1-2.003 2c-9.949-.015-18.007-8.085-18.007-18.034V48.99c0-8.65-4.96-16.12-12.17-19.78 3-1.52 6.39-2.37 9.98-2.38h.02c10.69 0 19.6 7.55 21.7 17.61.28 2.7.48 4.58.48 4.58zM195.771 29.69v127.716a2 2 0 0 1-2.003 2c-9.949-.015-18.007-8.085-18.007-18.034V29.66c0-8.65-4.954-16.108-12.164-19.768 3-1.52 6.384-2.382 9.974-2.392h.02c10.69 0 19.6 7.55 21.7 17.61.28 2.7.48 4.58.48 4.58zM240.218 49.02v124.809a2 2 0 0 1-2.003 2c-9.949-.015-18.007-8.085-18.007-18.034V48.99c0-8.65-4.949-16.099-12.159-19.759 3-1.52 6.379-2.391 9.969-2.401h.02c10.69 0 19.6 7.55 21.7 17.61.28 2.7.48 4.58.48 4.58zM48.437 165.95l31.399 48.468a23.982 23.982 0 0 0 20.13 10.942l6.963-.001-38.49-59.41c-6.486-10.012-19.206-13.951-30.215-9.356-.174.072-.34.154-.511.23a24.587 24.587 0 0 1 10.724 9.127zM261.193 70.648c-3.62.002-7.026.923-9.995 2.545 6.484 3.543 10.882 10.427 10.878 18.34l-.085 166.282a102.236 102.236 0 0 1-14.347 52.178 101.629 101.629 0 0 0-14.259 52.559l.308 53.663 20.025 4.056-.332-57.719a101.626 101.626 0 0 1 14.259-52.559 98.86 98.86 0 0 0 1.272-2.203c3.197-5.698-1.522-16.705.521-22.863 2.301-6.934 11.206-9.069 11.981-16.355.379-3.563.571-7.153.573-10.757l.085-166.282c.007-11.541-9.343-20.891-20.884-20.885z" style="" fill="#01998d" data-original="#01998d"></path><path d="M109.103 478.066h129.498c9.589 0 23.243-7.773 23.243-17.362v-68.977c0-9.589-13.654-17.362-23.243-17.362H109.103c-9.589 0-17.362 7.773-17.362 17.362v15.337l6.286 19.151-6.286 19.151v15.337c0 9.59 7.773 17.363 17.362 17.363z" style="" fill="#0ed2b3" data-original="#0ed2b3"></path><path d="M253.075 374.365h-19.691c8.581 0 15.538 7.773 15.538 17.362v68.977c0 9.589-6.957 17.362-15.538 17.362h19.691c8.581 0 15.538-7.773 15.538-17.362v-68.977c0-9.588-6.957-17.362-15.538-17.362z" style="" fill="#0ab69f" data-original="#0ab69f"></path><path d="M91.741 445.367h68.572c10.971 0 19.864-8.574 19.864-19.151s-8.893-19.151-19.864-19.151H91.741l.171 20.873-.171 17.429zM277.201 269.239c-1.45 13.76-3.211 20.907-10.011 33.028L253 299.688 106.929 225.36l.02-45.55 155.043 78.881 15.209 10.548z" style="" fill="#eef5f6" data-original="#eef5f6"></path><path d="m281.408 268.615-19.416-9.924a102.236 102.236 0 0 1-8.991 40.996l15.888 8.133a102.242 102.242 0 0 0 12.519-39.205z" style="" fill="#deecf1" data-original="#deecf1"></path><path d="M316.165 49.092c-.006-12.263-9.952-22.209-22.215-22.215h0c-12.263-.006-22.199 9.93-22.193 22.193l.011 21.816M405.071 225.363l-.09-176.319c-.006-12.263-9.952-22.209-22.215-22.215h0c-12.263-.006-22.199 9.93-22.193 22.193" style="stroke-width:15;stroke-linecap:round;stroke-linejoin:round;stroke-miterlimit:10;" fill="none" stroke="#000000" stroke-width="15" stroke-linecap="round" stroke-linejoin="round" stroke-miterlimit="10" data-original="#000000"></path><path d="m405.069 225.36 38.49-59.41c4.67-7.2 12.57-11.26 20.73-11.26 3.18 0 6.4.61 9.49 1.9 13.53 5.65 19.18 21.79 12.13 34.65l-18.35 33.43M405.179 371.95l-.11-29.83a36.329 36.329 0 0 1 13.64-28.18c6.46-5.14 12.33-10.71 17.46-17.84s9.54-15.82 13.08-27.19c1.28-4.1 2.64-8.17 4.09-12.21M360.634 159.394l-.071-129.679c-.006-12.263-9.952-22.209-22.215-22.215h0c-12.263-.006-22.199 9.93-22.193 22.193l.072 131.239M303.819 478.07h-52.57M251.249 374.37h151.65c9.59 0 17.36 7.77 17.36 17.36v68.97c0 9.59-7.77 17.37-17.36 17.37h-64.08M273.398 481.716V504.5M390.246 481.716V504.5" style="stroke-width:15;stroke-linecap:round;stroke-linejoin:round;stroke-miterlimit:10;" fill="none" stroke="#000000" stroke-width="15" stroke-linecap="round" stroke-linejoin="round" stroke-miterlimit="10" data-original="#000000"></path><path d="M416.781 445.367h-65.808c-10.577 0-19.151-8.574-19.151-19.151v0c0-10.577 8.574-19.151 19.151-19.151h66.11M405.071 225.363 279.38 289.32M405.071 179.793l-119.554 60.835M195.834 49.092c.006-12.263 9.952-22.209 22.215-22.215h0c12.263-.006 22.199 9.93 22.193 22.193l-.07 126.761M240.287 91.554c.006-11.54 9.366-20.9 20.906-20.906h0c11.54-.006 20.891 9.345 20.885 20.885l-.064 124.66M151.429 49.02v-.07c-.04-12.22-9.94-22.12-22.18-22.12h-.02c-12.26.01-22.21 9.95-22.21 22.21l-.04 69.77M106.969 153.81l-.02 25.99-.02 45.56" style="stroke-width:15;stroke-linecap:round;stroke-linejoin:round;stroke-miterlimit:10;" fill="none" stroke="#000000" stroke-width="15" stroke-linecap="round" stroke-linejoin="round" stroke-miterlimit="10" data-original="#000000"></path><path d="m151.364 159.394.071-129.679c.006-12.263 9.952-22.209 22.215-22.215h0c12.263-.006 22.199 9.93 22.193 22.193l-.072 131.239M282.049 148.317l-.056 109.498a102.236 102.236 0 0 1-14.347 52.178h0a101.629 101.629 0 0 0-14.259 52.559l.332 9.402M106.823 371.954l.107-29.836a36.307 36.307 0 0 0-13.636-28.181h0c-12.92-10.278-23.463-22.281-30.541-45.027-4.17-13.403-9.238-26.51-15.48-39.082L26.095 191.24c-7.057-12.858-1.407-28.997 12.129-34.646h0c11.009-4.595 23.729-.656 30.215 9.356l38.489 59.412M170.229 374.37h81.02c9.59 0 17.36 7.77 17.36 17.36v68.97c0 9.59-7.77 17.37-17.36 17.37h-142.15c-9.59 0-17.36-7.78-17.36-17.37v-68.97c0-9.59 7.77-17.36 17.36-17.36h26.13M238.601 481.716V504.5M121.753 481.716V504.5" style="stroke-width:15;stroke-linecap:round;stroke-linejoin:round;stroke-miterlimit:10;" fill="none" stroke="#000000" stroke-width="15" stroke-linecap="round" stroke-linejoin="round" stroke-miterlimit="10" data-original="#000000"></path><path d="M95.218 445.367h65.808c10.577 0 19.151-8.574 19.151-19.151v0c0-10.577-8.574-19.151-19.151-19.151h-66.11M106.928 225.363l158.544 80.674M106.928 179.793l170.508 86.762" style="stroke-width:15;stroke-linecap:round;stroke-linejoin:round;stroke-miterlimit:10;" fill="none" stroke="#000000" stroke-width="15" stroke-linecap="round" stroke-linejoin="round" stroke-miterlimit="10" data-original="#000000"></path></g></svg>