<svg width="148" height="148" viewBox="0 0 148 148" fill="none" xmlns="http://www.w3.org/2000/svg">
<g id="Group" filter="url(#filter0_d_1019_2359)">
<path id="Vector" d="M81.5238 106.45C81.4166 106.45 81.3097 106.441 81.2027 106.432L82.8151 121.456H80.8031L82.7763 133.915H104.713C105.864 133.915 106.801 134.857 106.801 136.016C106.801 137.174 105.864 138.116 104.713 138.116H56.8548C55.7026 138.116 54.7658 137.174 54.7658 136.016C54.7658 134.857 55.7026 133.915 56.8548 133.915H61.6535L59.6803 121.456H56.4418C52.1302 121.456 48.6346 124.971 48.6346 129.308C48.6346 132.363 50.3733 135.004 52.9064 136.302C53.0533 138.366 54.766 140 56.8548 140H104.713C106.897 140 108.675 138.213 108.675 136.016C108.675 133.818 106.897 132.031 104.713 132.031H98.8223C99.2372 130.903 99.4037 129.686 99.2725 128.465L96.7045 104.537L82.7357 106.369C82.335 106.423 81.9269 106.45 81.5238 106.45Z" fill="#2A373F"/>
<path id="Vector_2" d="M92.8073 70.1015C92.3023 70.226 91.7857 70.2886 91.2697 70.2886C90.4285 70.2886 89.607 70.126 88.828 69.8046L83.4332 67.5784L74.548 93.2397C74.422 93.5732 74.3377 93.9119 74.2872 94.2509C73.8104 95.454 73.6199 96.7911 73.7984 98.1666C73.8029 98.2016 73.8121 98.2346 73.817 98.2693C74.4239 102.514 78.3058 105.497 82.5498 104.936L113.626 100.86L114.231 103.268L126.497 100.952L121.836 82.2526C121.538 81.0549 122.264 79.8363 123.455 79.5364C123.636 79.4906 123.817 79.4689 123.996 79.4689C124.992 79.4689 125.902 80.1482 126.155 81.1635L138.059 128.923C138.358 130.12 137.632 131.339 136.441 131.639H136.441C135.251 131.94 134.039 131.208 133.741 130.012L132.273 124.124L120.049 126.432L121.966 134.066C122.86 137.625 126.039 139.996 129.53 139.996C130.163 139.996 130.806 139.918 131.448 139.755C134.574 138.961 136.778 136.372 137.249 133.359C137.837 133.153 138.351 132.821 138.772 132.402C139.771 131.41 140.242 129.93 139.877 128.465L127.973 80.7053C127.423 78.5003 125.195 77.1554 122.998 77.7084C120.806 78.2614 119.469 80.505 120.019 82.7106L120.066 82.8986L120.435 84.3826C119.8 84.3054 119.147 84.2993 118.486 84.3862L91.5799 87.9158L91.4386 86.4776L110.84 83.9325L120.229 63.2148C119.904 63.3563 119.567 63.4789 119.212 63.5667L92.8073 70.1015Z" fill="#2A373F"/>
<path id="Vector_3" d="M131.36 120.462L127.41 104.615L115.151 106.93L119.129 122.771L131.36 120.462Z" fill="#2A373F"/>
<path id="Vector_4" d="M91.7697 57.0314L106.98 53.267L107.407 54.6491L91.658 58.5471L59.233 45.166C56.6791 44.114 53.7612 45.3396 52.7133 47.9074C51.666 50.4752 52.8865 53.4103 55.4392 54.4642L89.3726 68.4674C89.9783 68.717 90.623 68.8434 91.2695 68.8434C91.6697 68.8434 92.0704 68.7949 92.4638 68.698L118.868 62.1633C121.513 61.5087 123.139 58.8472 122.546 56.186C122.538 56.1515 122.534 56.117 122.526 56.0824C122.402 55.5757 122.205 55.1061 121.95 54.6819C121.417 53.7155 120.556 52.925 119.448 52.5015L96.891 43.881C95.7755 43.4547 94.602 43.4743 93.5598 43.8477C92.7422 44.025 91.9572 44.4078 91.2885 45.008L82.2677 53.1103L91.7697 57.0314Z" fill="#2A373F"/>
<path id="Vector_5" d="M122.77 39.4787L125.117 40.3312C126.123 38.8147 126.843 37.0919 127.205 35.2382L124.814 34.8906C124.471 36.5485 123.777 38.1151 122.77 39.4787Z" fill="#2A373F"/>
<path id="Vector_6" d="M125.067 32.5481C125.066 32.8544 125.048 33.1588 125.023 33.4622L127.409 33.8089C127.446 33.3963 127.47 32.9795 127.471 32.5573C127.477 31.1603 127.277 29.8112 126.907 28.5352L124.45 28.7532C124.859 29.9712 125.072 31.242 125.067 32.5481Z" fill="#2A373F"/>
<path id="Vector_7" d="M114.206 34.767C114.169 34.9457 114.044 35.5057 113.823 36.2319L121.348 38.9643C122.357 37.7156 123.052 36.2487 123.389 34.6854L114.386 33.377L114.206 34.767Z" fill="#2A373F"/>
<path id="Vector_8" d="M110.585 41.3701C109.815 41.786 108.965 41.8307 108.13 41.4992C106.31 40.7771 104.17 41.1533 102.673 41.6043C105.239 44.6652 109.072 46.618 113.365 46.6346C117.727 46.6515 121.632 44.6677 124.222 41.5412L113.345 37.5918C112.761 39.0614 111.865 40.6792 110.585 41.3701Z" fill="#2A373F"/>
<path id="Vector_9" d="M114.622 31.5493L114.571 31.9429L123.596 33.2545C123.613 33.0179 123.629 32.781 123.63 32.5424C123.635 31.2773 123.403 30.0522 122.966 28.8848L116.817 29.4305C115.672 29.5321 114.769 30.4034 114.622 31.5493Z" fill="#2A373F"/>
<path id="Vector_10" d="M127.933 23.6173C125.651 17.1063 119.482 12.5723 112.344 12.5723C112.077 12.5723 111.809 12.5787 111.54 12.5916C103.759 12.9612 97.2587 18.8509 96.0821 26.5962C95.291 31.8079 96.989 37.0817 100.635 40.8048C101.922 40.2494 105.559 38.9275 108.657 40.1555C109.104 40.3328 109.501 40.3153 109.905 40.0982C111.481 39.248 112.523 35.784 112.791 34.521L113.197 31.3625C113.433 29.5388 114.87 28.1522 116.69 27.9905L125.119 27.2424C126.865 27.1496 128.657 26.9854 130.152 26.772C132.246 26.4731 133.755 26.0781 133.727 25.6483C133.667 24.7017 131.954 23.9858 129.481 23.7196C128.992 23.6671 128.474 23.6331 127.933 23.6173ZM121.098 19.6068C121.851 19.1266 123.047 19.6674 123.771 20.8147C124.495 21.9619 124.472 23.2812 123.72 23.7614C122.967 24.2416 121.77 23.7008 121.046 22.5535C120.323 21.4062 120.346 20.087 121.098 19.6068Z" fill="#2A373F"/>
<path id="Vector_11" d="M43.3272 45.7371L50.5367 37.2649L7.24562 0.00463137C7.24562 0.00463137 5.51385 -0.26283 2.50987 3.26732C-0.494168 6.7974 0.0361007 8.47686 0.0361007 8.47686L43.3272 45.7371Z" fill="#2A373F"/>
<path id="Vector_12" d="M53.9732 44.2989L51.7419 42.3784L51.0815 39.7402L45.8438 45.8953L48.5376 46.1439L51.0815 48.3333C51.1582 48.0059 51.2533 47.6799 51.3842 47.359C51.9167 46.0545 52.8351 45.0005 53.9732 44.2989Z" fill="#2A373F"/>
<path id="Vector_13" d="M56.007 56.2617L68.2535 71.9996C69.105 73.094 70.3688 73.7847 71.7448 73.908C71.893 73.9215 72.0406 73.9279 72.1883 73.9279C73.4112 73.9279 74.5969 73.4764 75.5167 72.6508L81.8776 66.9375L56.007 56.2617Z" fill="#2A373F"/>
<path id="Vector_14" d="M65.4486 133.914H78.9815L77.0083 121.455H63.4753L65.4486 133.914Z" fill="#2A373F"/>
</g>
<defs>
<filter id="filter0_d_1019_2359" x="0" y="0" width="148" height="148" filterUnits="userSpaceOnUse" color-interpolation-filters="sRGB">
<feFlood flood-opacity="0" result="BackgroundImageFix"/>
<feColorMatrix in="SourceAlpha" type="matrix" values="0 0 0 0 0 0 0 0 0 0 0 0 0 0 0 0 0 0 127 0" result="hardAlpha"/>
<feOffset dx="4" dy="4"/>
<feGaussianBlur stdDeviation="2"/>
<feComposite in2="hardAlpha" operator="out"/>
<feColorMatrix type="matrix" values="0 0 0 0 0 0 0 0 0 0 0 0 0 0 0 0 0 0 0.25 0"/>
<feBlend mode="normal" in2="BackgroundImageFix" result="effect1_dropShadow_1019_2359"/>
<feBlend mode="normal" in="SourceGraphic" in2="effect1_dropShadow_1019_2359" result="shape"/>
</filter>
</defs>
</svg>
