<svg xmlns="http://www.w3.org/2000/svg" viewBox="0 0 125.44 121.71"><defs><style>.cls-1{fill:#7093b5;}.cls-2{fill:#fff;}.cls-3{fill:#bd3333;}.cls-4{fill:#34383f;}.cls-5{fill:#f0ca80;}</style></defs><g id="Layer_2" data-name="Layer 2"><g id="Layer_1-2" data-name="Layer 1"><circle class="cls-1" cx="62.71" cy="58.62" r="58.62"/><polygon class="cls-2" points="62.45 51.64 14.05 64.72 62.45 77.81 110.85 64.72 62.45 51.64"/><polygon class="cls-3" points="61.56 88.77 61.56 88.77 61.56 88.77 61.56 88.77"/><path class="cls-4" d="M72.89,99.23a11,11,0,0,0-.35-1.48,12.75,12.75,0,0,0-.74-1.85,12.26,12.26,0,0,0-1.31-2l-.52-.6a11.44,11.44,0,0,0-2.48-2,11.39,11.39,0,0,0-5.93-1.64v.83h.14l.47,0a3.57,3.57,0,0,1,.46,0,11.44,11.44,0,0,1,1.78.35c.29.08.56.18.84.28a11,11,0,0,1,1.54.76,8.18,8.18,0,0,1,.69.45,11,11,0,0,1,1.22,1,10.77,10.77,0,0,1,1,1.1,9.88,9.88,0,0,1,1.3,2.2,10.38,10.38,0,0,1,.37,1l.12.45c0,.14.07.28.1.42a9.14,9.14,0,0,1,.17,1.23l0,.45-.08-.44c0-.07,0-.15,0-.23s0-.18-.07-.28,0-.21-.08-.33-.06-.23-.1-.36-.08-.26-.13-.4-.1-.28-.16-.43-.27-.61-.43-.94a11,11,0,0,0-1.38-2,11.56,11.56,0,0,0-1-1c-.18-.15-.37-.31-.57-.46s-.4-.29-.62-.43-.38-.24-.58-.35l-.61-.31a10.44,10.44,0,0,1,.89,1.17l-.61.1a.16.16,0,0,0,0,.31h0l.73-.12h0a7.76,7.76,0,0,1,.45.81,24.39,24.39,0,0,0-3.35.72c-.73.21-1.46.46-2.17.74s-1.41.59-2.1.93-1.35.72-2,1.12a24.55,24.55,0,0,0-6,5.24c0,.1,0,.2.07.3l.12-.16a.16.16,0,0,1,.22,0,.16.16,0,0,1,0,.22L52,104a1.21,1.21,0,0,0,.05.18,9.62,9.62,0,0,0,.37,1.11c.11.25.21.49.32.71a22.77,22.77,0,0,1,7.87-6.7c.34-.18.69-.35,1-.51A22.78,22.78,0,0,1,66,97.24a22.09,22.09,0,0,1,2.27-.42,8.25,8.25,0,0,1,.16.89h-.06l-.68.1a.15.15,0,0,0-.13.18.14.14,0,0,0,.05.1.17.17,0,0,0,.1,0h0l.67-.1.06,0c0,.18,0,.36,0,.54,0,.37,0,.76,0,1.15a13.1,13.1,0,0,1-.57,3.24,12.4,12.4,0,0,1-1.42,3.13A10.83,10.83,0,0,1,64,108.82,11.53,11.53,0,0,1,58.86,111a9.88,9.88,0,0,1-3-1.4c-.19-.12-.37-.26-.55-.4a8.74,8.74,0,0,1-1-.91L54,108c-.15-.16-.35-.36-.58-.64q-.12-.14-.24-.3a7.69,7.69,0,0,1-.52-.73,8.82,8.82,0,0,1-.52-.93,10.56,10.56,0,0,1-.48-1.11,11.12,11.12,0,0,1-.36-1.3c0-.23-.09-.47-.12-.71l0-.18v-.19l0-.37a10.49,10.49,0,0,1,0-1.58,7.68,7.68,0,0,1,.11-.82,8.15,8.15,0,0,1,.17-.83,10.12,10.12,0,0,1,.58-1.65,10.37,10.37,0,0,1,2.06-3,8.57,8.57,0,0,1,.7-.64,10.26,10.26,0,0,1,6.07-2.48l.46,0h.33v-.83a11.41,11.41,0,0,0-4,.71,9.69,9.69,0,0,0-1.24.54,11.44,11.44,0,0,0-5.71,6.68c-.08.23-.15.47-.21.71s-.11.48-.16.72a11.41,11.41,0,0,0-.2,2.18,12.08,12.08,0,0,0,.22,2.16.13.13,0,0,0,0,.09,11.46,11.46,0,0,0,7.44,8.52,13.22,13.22,0,0,0,1.49.42,13.56,13.56,0,0,0,1.54.21c.26,0,.52,0,.79,0h0c.22,0,.44,0,.67,0l.67-.06a11.75,11.75,0,0,0,1.32-.23l.65-.18a10.68,10.68,0,0,0,1.27-.47c.21-.09.41-.18.61-.29s.29-.16.43-.24a11.26,11.26,0,0,0,1.49-1,11.2,11.2,0,0,0,2.89-3.38,11.36,11.36,0,0,0,.9-2.08,10.52,10.52,0,0,0,.3-1.1A11.28,11.28,0,0,0,72.89,99.23Zm-4.66-2.62-.48.06h0a.16.16,0,0,1-.15-.14.14.14,0,0,1,0-.12.17.17,0,0,1,.1-.06l.45-.06C68.18,96.4,68.2,96.5,68.23,96.61ZM67,96.8l-.69.14h0a.15.15,0,0,1-.15-.12.15.15,0,0,1,.12-.19l.7-.14a.15.15,0,0,1,.18.13A.16.16,0,0,1,67,96.8Zm-11.74,6-.5.49a.13.13,0,0,1-.11.05.16.16,0,0,1-.12,0,.17.17,0,0,1,0-.23l.51-.5a.17.17,0,0,1,.23,0A.16.16,0,0,1,55.25,102.75Zm-1.51,1.57a.13.13,0,0,1-.12.05.19.19,0,0,1-.1,0,.17.17,0,0,1,0-.23l.48-.52a.16.16,0,0,1,.23.21Zm-.93,1.14a.14.14,0,0,1-.12.06.19.19,0,0,1-.1,0,.17.17,0,0,1,0-.23l.44-.55a.15.15,0,0,1,.22,0,.16.16,0,0,1,0,.22C53.1,105.09,53,105.27,52.81,105.46Zm.43-3.21a.16.16,0,0,1,0,.23c-.17.17-.33.35-.49.53a.13.13,0,0,1-.12,0,.19.19,0,0,1-.1,0,.17.17,0,0,1,0-.23l.5-.54A.16.16,0,0,1,53.24,102.25Zm.34-.57.53-.51a.16.16,0,0,1,.22,0,.15.15,0,0,1,0,.22l-.52.51a.17.17,0,0,1-.22,0A.17.17,0,0,1,53.58,101.68Zm5.54-4.13a.16.16,0,0,1,.15.28l-.64.36-.08,0-.07,0a.09.09,0,0,1-.06-.06.17.17,0,0,1,0-.12.16.16,0,0,1,.07-.09Zm2.81-1.32a.16.16,0,0,1,.2.09.17.17,0,0,1-.09.21l-.67.28h-.06a.16.16,0,0,1-.15-.1.15.15,0,0,1,.08-.2Zm1.46-.52a.16.16,0,0,1,.2.1.16.16,0,0,1-.11.2l-.69.24h0a.17.17,0,0,1-.15-.11.16.16,0,0,1,.1-.2Zm.77-.24.71-.19a.17.17,0,0,1,.2.11.16.16,0,0,1-.12.2l-.7.19h0a.16.16,0,0,1-.16-.11A.18.18,0,0,1,64.16,95.47Zm-.71,2.28H63.4a.12.12,0,0,1-.09,0,.16.16,0,0,1,0-.28l.68-.23a.16.16,0,0,1,.2.1.16.16,0,0,1-.1.2Zm-2.73,1.16a.1.1,0,0,1-.07,0,.16.16,0,0,1-.14-.08.16.16,0,0,1,.07-.22l.64-.31a.16.16,0,0,1,.21.07.2.2,0,0,1,0,.13.23.23,0,0,1-.08.09Zm-1.52.66a.17.17,0,0,1,.06-.22l.62-.35a.16.16,0,0,1,.21.06.13.13,0,0,1,0,.12.16.16,0,0,1-.08.1l-.61.35-.08,0A.16.16,0,0,1,59.2,99.57Zm-.45.46-.59.39a.16.16,0,0,1-.09,0,.17.17,0,0,1-.13-.07.16.16,0,0,1,0-.22l.6-.4a.17.17,0,0,1,.22,0A.15.15,0,0,1,58.75,100Zm-4,.6.56-.48a.16.16,0,0,1,.22,0,.15.15,0,0,1,0,.22l-.55.47a.15.15,0,0,1-.11,0,.16.16,0,0,1-.12-.06A.16.16,0,0,1,54.71,100.63Zm6-3.71a.16.16,0,0,1-.07.22l-.66.32h-.07a.15.15,0,0,1-.14-.08.16.16,0,0,1,.07-.22l.66-.32A.16.16,0,0,1,60.71,96.92Zm6.47-2.11.39-.06.13.3-.47.07h0a.14.14,0,0,1-.15-.13A.15.15,0,0,1,67.18,94.81Zm-4.54,3.24-.58.23H62a.11.11,0,0,1-.08,0,.15.15,0,0,1,0-.06A.14.14,0,0,1,62,98l.58-.24a.15.15,0,0,1,.11.27Zm-5.78,3.27a.16.16,0,0,1-.12-.06.16.16,0,0,1,0-.22c.18-.15.38-.29.57-.43a.16.16,0,0,1,.22,0,.17.17,0,0,1,0,.23c-.19.13-.38.28-.57.42A.17.17,0,0,1,56.86,101.32Zm-3.81,2.34s.17-.22.49-.59.8-.88,1.41-1.45a22.37,22.37,0,0,1,2.22-1.83q.64-.47,1.35-.9c.48-.29,1-.57,1.46-.83s1-.5,1.52-.72,1-.41,1.52-.59A22.58,22.58,0,0,1,65.79,96c.61-.13,1.16-.21,1.6-.27l.4,0,.15,0v0l-.14,0c-.48.07-1.16.2-2,.4A27,27,0,0,0,63.1,97q-.74.27-1.5.6c-.5.22-1,.47-1.5.73s-1,.53-1.46.81-.93.58-1.36.88A26.52,26.52,0,0,0,55,101.73c-.62.55-1.12,1-1.46,1.38ZM66.38,95a.16.16,0,0,1,.19.12.12.12,0,0,1,0,.12.18.18,0,0,1-.1.07l-.71.14h0a.16.16,0,0,1-.16-.13.17.17,0,0,1,.12-.19Zm-8.6,3.39a.15.15,0,0,1,.22,0,.17.17,0,0,1,0,.22c-.2.12-.41.26-.61.4l-.09,0a.15.15,0,0,1-.13-.07.16.16,0,0,1,0-.22Zm-1.06.9a.16.16,0,0,1,0,.22l-.58.44a.19.19,0,0,1-.1,0,.18.18,0,0,1-.13-.06.24.24,0,0,1,0-.12.21.21,0,0,1,.06-.1l.59-.44A.17.17,0,0,1,56.72,99.24Zm-1,3a.17.17,0,0,1-.12,0,.16.16,0,0,1,0-.22l.54-.47a.16.16,0,0,1,.23,0,.14.14,0,0,1,0,.12.12.12,0,0,1,0,.1l-.54.46A.14.14,0,0,1,55.72,102.27Zm9.14-5h0a.16.16,0,0,1-.16-.11.17.17,0,0,1,.11-.2l.69-.18a.17.17,0,0,1,.2.11.15.15,0,0,1-.12.19Z"/><path class="cls-2" d="M72.56,95.52a12.33,12.33,0,0,0-11-6.75h0A12.39,12.39,0,0,0,56,90.12a12.34,12.34,0,0,0-6.52,13.31.69.69,0,0,0,0,.24,12.08,12.08,0,0,0,1.07,3,12.34,12.34,0,1,0,22-11.19Zm-.08,9.14a11.36,11.36,0,0,1-.9,2.08,11.2,11.2,0,0,1-2.89,3.38,11.26,11.26,0,0,1-1.49,1c-.14.08-.28.17-.43.24s-.4.2-.61.29a10.68,10.68,0,0,1-1.27.47l-.65.18a11.75,11.75,0,0,1-1.32.23l-.67.06c-.23,0-.45,0-.67,0h0c-.27,0-.53,0-.79,0a13.56,13.56,0,0,1-1.54-.21,13.22,13.22,0,0,1-1.49-.42,11.26,11.26,0,0,1-2.11-1,11.42,11.42,0,0,1-5.33-7.53.13.13,0,0,1,0-.09,12.08,12.08,0,0,1-.22-2.16,11.41,11.41,0,0,1,.2-2.18c0-.24.1-.48.16-.72s.13-.48.21-.71a11.44,11.44,0,0,1,5.71-6.68,9.69,9.69,0,0,1,1.24-.54,11.41,11.41,0,0,1,4-.71,12,12,0,0,1,2.32.23,12,12,0,0,1,3.61,1.41,11.44,11.44,0,0,1,2.48,2l.52.6a12.26,12.26,0,0,1,1.31,2,12.75,12.75,0,0,1,.74,1.85,11,11,0,0,1,.35,1.48,11.28,11.28,0,0,1-.11,4.33A10.52,10.52,0,0,1,72.48,104.66Z"/><path class="cls-3" d="M53.22,104.69a.15.15,0,0,0-.22,0l-.44.55a.17.17,0,0,0,0,.23.19.19,0,0,0,.1,0,.14.14,0,0,0,.12-.06c.14-.19.29-.37.44-.55A.16.16,0,0,0,53.22,104.69Z"/><path class="cls-3" d="M55.26,102.53a.17.17,0,0,0-.23,0l-.51.5a.17.17,0,0,0,0,.23.16.16,0,0,0,.12,0,.13.13,0,0,0,.11-.05l.5-.49A.16.16,0,0,0,55.26,102.53Z"/><path class="cls-3" d="M54.2,103.58a.15.15,0,0,0-.22,0l-.48.52a.17.17,0,0,0,0,.23.19.19,0,0,0,.1,0,.13.13,0,0,0,.12-.05l.47-.52A.15.15,0,0,0,54.2,103.58Z"/><path class="cls-3" d="M55.9,99.65a.21.21,0,0,0-.06.1.24.24,0,0,0,0,.12.18.18,0,0,0,.13.06.19.19,0,0,0,.1,0l.58-.44a.16.16,0,0,0,0-.22.17.17,0,0,0-.23,0Z"/><path class="cls-3" d="M56.36,101.77a.12.12,0,0,0,0-.1.14.14,0,0,0,0-.12.16.16,0,0,0-.23,0l-.54.47a.16.16,0,0,0,0,.22.17.17,0,0,0,.12,0,.14.14,0,0,0,.1,0Z"/><path class="cls-3" d="M54.81,100.91a.15.15,0,0,0,.11,0l.55-.47a.15.15,0,0,0,0-.22.16.16,0,0,0-.22,0l-.56.48a.16.16,0,0,0,0,.22A.16.16,0,0,0,54.81,100.91Z"/><path class="cls-3" d="M52.52,102.8a.17.17,0,0,0,0,.23.19.19,0,0,0,.1,0,.13.13,0,0,0,.12,0c.16-.18.32-.36.49-.53a.16.16,0,0,0,0-.23.16.16,0,0,0-.22,0Z"/><path class="cls-3" d="M53.58,101.91a.17.17,0,0,0,.22,0l.52-.51a.15.15,0,0,0,0-.22.16.16,0,0,0-.22,0l-.53.51A.17.17,0,0,0,53.58,101.91Z"/><path class="cls-3" d="M64.12,97.52a.16.16,0,0,0,.1-.2.16.16,0,0,0-.2-.1l-.68.23a.16.16,0,0,0,0,.28.12.12,0,0,0,.09,0h.05Z"/><path class="cls-3" d="M53.57,103.11c.34-.35.84-.83,1.46-1.38A26.52,26.52,0,0,1,57.28,100c.43-.3.89-.59,1.36-.88s1-.56,1.46-.81,1-.51,1.5-.73,1-.42,1.5-.6a27,27,0,0,1,2.74-.83c.81-.2,1.49-.33,2-.4l.14,0v0l-.15,0-.4,0c-.44.06-1,.14-1.6.27a22.58,22.58,0,0,0-2.77.76c-.5.18-1,.37-1.52.59s-1,.46-1.52.72-1,.54-1.46.83-.92.59-1.35.9A22.37,22.37,0,0,0,55,101.62c-.61.57-1.08,1.09-1.41,1.45s-.49.59-.49.59Z"/><path class="cls-3" d="M66.93,96.49l-.7.14a.15.15,0,0,0-.12.19.15.15,0,0,0,.15.12h0L67,96.8a.16.16,0,0,0,.12-.18A.15.15,0,0,0,66.93,96.49Z"/><path class="cls-3" d="M65.54,97.11a.15.15,0,0,0,.12-.19.17.17,0,0,0-.2-.11l-.69.18a.17.17,0,0,0-.11.2.16.16,0,0,0,.16.11h0Z"/><path class="cls-3" d="M68.15,96.3l-.45.06a.17.17,0,0,0-.1.06.14.14,0,0,0,0,.12.16.16,0,0,0,.15.14h0l.48-.06C68.2,96.5,68.18,96.4,68.15,96.3Z"/><path class="cls-3" d="M58.58,99.76l-.6.4a.16.16,0,0,0,0,.22.17.17,0,0,0,.13.07.16.16,0,0,0,.09,0l.59-.39a.15.15,0,0,0,0-.22A.17.17,0,0,0,58.58,99.76Z"/><path class="cls-3" d="M57.12,99a.15.15,0,0,0,.13.07l.09,0c.2-.14.41-.28.61-.4a.17.17,0,0,0,0-.22.15.15,0,0,0-.22,0l-.62.4A.16.16,0,0,0,57.12,99Z"/><path class="cls-3" d="M62.53,97.78,62,98a.14.14,0,0,0-.07.19.15.15,0,0,0,0,.06.11.11,0,0,0,.08,0h.05l.58-.23a.15.15,0,0,0-.11-.27Z"/><path class="cls-3" d="M59.42,99.63l.61-.35a.16.16,0,0,0,.08-.1.13.13,0,0,0,0-.12.16.16,0,0,0-.21-.06l-.62.35a.17.17,0,0,0-.06.22.16.16,0,0,0,.14.08Z"/><path class="cls-3" d="M61.36,98.61a.23.23,0,0,0,.08-.09.2.2,0,0,0,0-.13.16.16,0,0,0-.21-.07l-.64.31a.16.16,0,0,0-.07.22.16.16,0,0,0,.14.08.1.1,0,0,0,.07,0Z"/><path class="cls-3" d="M57,101.29c.19-.14.38-.29.57-.42a.17.17,0,0,0,0-.23.16.16,0,0,0-.22,0c-.19.14-.39.28-.57.43a.16.16,0,0,0,0,.22.16.16,0,0,0,.12.06A.17.17,0,0,0,57,101.29Z"/><path class="cls-3" d="M62.59,96.15a.17.17,0,0,0,.15.11h0l.69-.24a.16.16,0,0,0,.11-.2.16.16,0,0,0-.2-.1l-.7.24A.16.16,0,0,0,62.59,96.15Z"/><path class="cls-3" d="M59.84,97.17a.16.16,0,0,0-.07.22.15.15,0,0,0,.14.08H60l.66-.32a.16.16,0,0,0,.07-.22.16.16,0,0,0-.21-.07Z"/><path class="cls-3" d="M61.16,96.72a.16.16,0,0,0,.15.1h.06l.67-.28a.17.17,0,0,0,.09-.21.16.16,0,0,0-.2-.09l-.69.29A.15.15,0,0,0,61.16,96.72Z"/><path class="cls-3" d="M64.05,95.67a.16.16,0,0,0,.16.11h0l.7-.19a.16.16,0,0,0,.12-.2.17.17,0,0,0-.2-.11l-.71.19A.18.18,0,0,0,64.05,95.67Z"/><path class="cls-3" d="M67.05,95a.14.14,0,0,0,.15.13h0l.47-.07-.13-.3-.39.06A.15.15,0,0,0,67.05,95Z"/><path class="cls-3" d="M61.56,90.46h-.33l-.46,0A10.26,10.26,0,0,0,54.7,93a8.57,8.57,0,0,0-.7.64,10.37,10.37,0,0,0-2.06,3,10.12,10.12,0,0,0-.58,1.65,8.15,8.15,0,0,0-.17.83,7.68,7.68,0,0,0-.11.82,10.49,10.49,0,0,0,0,1.58l0,.37v.19l0,.18c0,.24.08.48.12.71a11.12,11.12,0,0,0,.36,1.3,10.56,10.56,0,0,0,.48,1.11,8.82,8.82,0,0,0,.52.93,7.69,7.69,0,0,0,.52.73q.12.17.24.3c.23.28.43.48.58.64l.3.28a8.74,8.74,0,0,0,1,.91c.18.14.36.28.55.4a9.88,9.88,0,0,0,3,1.4A11.53,11.53,0,0,0,64,108.82a10.83,10.83,0,0,0,2.54-2.76A12.4,12.4,0,0,0,68,102.93a13.1,13.1,0,0,0,.57-3.24c0-.39,0-.78,0-1.15,0-.18,0-.36,0-.54l-.06,0-.67.1h0a.17.17,0,0,1-.1,0,.14.14,0,0,1-.05-.1.15.15,0,0,1,.13-.18l.68-.1h.06a8.25,8.25,0,0,0-.16-.89,22.09,22.09,0,0,0-2.27.42,22.78,22.78,0,0,0-4.39,1.51c-.35.16-.7.33-1,.51a22.77,22.77,0,0,0-7.87,6.7c-.11-.22-.21-.46-.32-.71a9.62,9.62,0,0,1-.37-1.11A1.21,1.21,0,0,1,52,104l.28-.35a.16.16,0,0,0,0-.22.16.16,0,0,0-.22,0l-.12.16c0-.1-.05-.2-.07-.3a24.55,24.55,0,0,1,6-5.24c.66-.4,1.33-.77,2-1.12s1.39-.65,2.1-.93,1.44-.53,2.17-.74a24.39,24.39,0,0,1,3.35-.72,7.76,7.76,0,0,0-.45-.81h0l-.73.12h0a.16.16,0,0,1,0-.31l.61-.1a10.44,10.44,0,0,0-.89-1.17l.61.31c.2.11.4.23.58.35s.42.28.62.43.39.31.57.46a11.56,11.56,0,0,1,1,1,11,11,0,0,1,1.38,2c.16.33.31.64.43.94s.11.29.16.43.09.27.13.4.07.25.1.36.06.22.08.33.05.19.07.28,0,.16,0,.23l.08.44,0-.45a9.14,9.14,0,0,0-.17-1.23c0-.14-.06-.28-.1-.42l-.12-.45a10.38,10.38,0,0,0-.37-1,9.88,9.88,0,0,0-1.3-2.2,10.77,10.77,0,0,0-1-1.1,11,11,0,0,0-1.22-1,8.18,8.18,0,0,0-.69-.45,11,11,0,0,0-1.54-.76c-.28-.1-.55-.2-.84-.28a11.44,11.44,0,0,0-1.78-.35,3.57,3.57,0,0,0-.46,0l-.47,0h-.14v0Zm4.63,4h0a.16.16,0,0,1,0-.31l.74-.13a.16.16,0,0,1,.18.13.16.16,0,0,1-.13.18Zm-1.51.34h0a.14.14,0,0,1-.15-.12.17.17,0,0,1,0-.12.23.23,0,0,1,.1-.07l.73-.18a.18.18,0,0,1,.19.12.16.16,0,0,1,0,.12.14.14,0,0,1-.1.07ZM63.9,95l-.71.22h0a.16.16,0,0,1-.15-.11.15.15,0,0,1,.1-.2c.24-.08.48-.16.72-.22a.15.15,0,0,1,.19.1A.15.15,0,0,1,63.9,95Zm-5,2.06-.08,0a.16.16,0,0,1-.14-.08.17.17,0,0,1,.06-.22l.67-.35a.15.15,0,0,1,.21.07.16.16,0,0,1-.07.22C59.34,96.84,59.12,97,58.91,97.07Zm-1.35.79-.08,0a.16.16,0,0,1-.14-.07.17.17,0,0,1,0-.12.18.18,0,0,1,.07-.1L58,97.2a.15.15,0,0,1,.22.06.16.16,0,0,1,0,.12.16.16,0,0,1-.07.09Zm-1.94,1.35-.58.46a.13.13,0,0,1-.1,0,.14.14,0,0,1-.12-.06.15.15,0,0,1,0-.22l.59-.47a.16.16,0,1,1,.19.25Zm-1.2,1-.55.49a.15.15,0,0,1-.11,0,.13.13,0,0,1-.11,0,.15.15,0,0,1,0-.11.16.16,0,0,1,0-.11c.18-.17.36-.34.55-.5a.16.16,0,1,1,.21.24Zm-2.67,2.72v0c0-.12,0-.25,0-.38l.29-.34a.16.16,0,0,1,.23,0,.16.16,0,0,1,0,.22Zm10-7.17h0a.14.14,0,0,1-.15-.1.17.17,0,0,1,0-.12.14.14,0,0,1,.09-.08l.7-.27a.16.16,0,0,1,.2.1.16.16,0,0,1-.09.2ZM65.46,94l-.73.17h0a.15.15,0,0,1-.15-.12.15.15,0,0,1,.11-.19l.74-.17a.15.15,0,0,1,.19.12A.16.16,0,0,1,65.46,94Zm-2.29.59a.14.14,0,0,1-.09,0,.12.12,0,0,1-.06-.08.17.17,0,0,1,0-.12.24.24,0,0,1,.09-.08l.73-.21a.15.15,0,0,1,.19.11.13.13,0,0,1,0,.12.15.15,0,0,1-.1.07l-.71.22Zm-4.3,1.82h-.08a.11.11,0,0,1-.08,0,.17.17,0,0,1-.06-.06.15.15,0,0,1,.07-.21c.22-.12.44-.24.67-.35a.15.15,0,0,1,.21.07.15.15,0,0,1-.07.21Zm2.1-1c-.23.09-.46.2-.69.3h-.07a.15.15,0,0,1-.14-.09.17.17,0,0,1,0-.12.2.2,0,0,1,.09-.09l.69-.3a.15.15,0,0,1,.21.08A.16.16,0,0,1,61,95.4ZM56.8,97.62c-.21.13-.41.28-.62.42a.16.16,0,0,1-.09,0l-.07,0L56,98a.16.16,0,0,1,0-.22l.63-.43a.16.16,0,0,1,.24.17A.17.17,0,0,1,56.8,97.62Zm-4.42,3.46a.15.15,0,0,1,0-.22c.17-.18.35-.36.53-.53a.17.17,0,0,1,.23,0,.16.16,0,0,1,0,.23l-.52.52a.21.21,0,0,1-.12,0A.16.16,0,0,1,52.38,101.08ZM61.53,95a.16.16,0,0,1,.09-.2l.71-.26a.16.16,0,0,1,.2.09.16.16,0,0,1-.1.21l-.7.25h-.06A.15.15,0,0,1,61.53,95Zm-8,5a.16.16,0,0,1,0-.23c.18-.17.38-.34.57-.5a.16.16,0,0,1,.22,0,.15.15,0,0,1,0,.22l-.56.5a.21.21,0,0,1-.11,0A.16.16,0,0,1,53.51,100Zm1.19-1a.17.17,0,0,1,0-.23c.19-.15.39-.31.6-.46a.16.16,0,0,1,.22,0,.27.27,0,0,1,0,.12.17.17,0,0,1-.06.1l-.6.46a.15.15,0,0,1-.09,0A.16.16,0,0,1,54.7,99Zm2.58-1.84a.16.16,0,0,1,0-.12.13.13,0,0,1,.07-.09q.33-.21.66-.39a.15.15,0,0,1,.15.27l-.64.39-.09,0A.16.16,0,0,1,57.28,97.12Zm-5.63,4.73a1.41,1.41,0,0,0,0-.2l.17-.19a.16.16,0,0,1,.22,0,.17.17,0,0,1,0,.23l-.39.42v-.25Zm1.64-.6c-.18.17-.35.35-.52.53a.16.16,0,0,1-.27-.11.15.15,0,0,1,0-.11c.17-.18.35-.36.53-.53a.14.14,0,0,1,.22,0A.16.16,0,0,1,53.29,101.25Zm3-2.52a.16.16,0,0,1-.09,0l-.07,0-.06,0a.16.16,0,0,1,0-.22L56.7,98a.16.16,0,0,1,.22,0,.18.18,0,0,1,0,.12.14.14,0,0,1-.07.1Zm4-2.36h-.06a.16.16,0,0,1-.07-.3l.69-.31a.15.15,0,0,1,.2.09.14.14,0,0,1-.08.2ZM55,93.3l.29-.24.3-.23.31-.22.32-.2a3.21,3.21,0,0,1,.31-.19l.33-.18L57,92l0,0,0,0,.08,0,.33-.15a9,9,0,0,1,1.29-.44A7,7,0,0,1,60,91.05,8,8,0,0,1,61,91c.31,0,.57,0,.79,0l.5,0,.18,0h-.68l-.36,0-.41,0a8.58,8.58,0,0,0-1,.17c-.36.08-.74.18-1.14.31s-.8.3-1.21.49l-.31.16-.08,0,0,0,0,0-.15.09a6.48,6.48,0,0,0-.61.36l-.3.19-.29.22-.28.21-.28.24a10.83,10.83,0,0,0-1,1L54,95l-.22.27c-.14.19-.28.37-.41.56s-.25.38-.35.57l-.17.28-.15.28A10.79,10.79,0,0,0,52.25,98c-.07.17-.12.34-.18.49l-.14.46a1.66,1.66,0,0,0-.06.21l0,.19-.09.35-.13.67v-.18a5,5,0,0,1,0-.5l0-.36a3.27,3.27,0,0,1,.06-.42c0-.15.06-.31.1-.48s.09-.34.14-.52.12-.37.18-.56.07-.19.11-.29l.13-.29c0-.1.09-.2.14-.3l.15-.3a1.82,1.82,0,0,1,.16-.31l.18-.3.41-.6c.15-.19.29-.39.46-.58A10.72,10.72,0,0,1,55,93.3Zm13.14,4a.16.16,0,0,1,0,.12.13.13,0,0,1-.1.06l-.69.11h0a.21.21,0,0,1-.11,0,.19.19,0,0,1,0-.09.16.16,0,0,1,.13-.19l.69-.11A.17.17,0,0,1,68.11,97.29Zm-10.31,4c.18-.14.38-.27.57-.41a.15.15,0,0,1,.22,0,.16.16,0,0,1,0,.22l-.57.4a.16.16,0,0,1-.09,0,.17.17,0,0,1-.13-.07A.16.16,0,0,1,57.8,101.31Zm1.82-1.2a.15.15,0,0,1,.22.06.16.16,0,0,1,0,.12.17.17,0,0,1-.08.09l-.59.37-.09,0-.07,0-.06,0a.16.16,0,0,1,.05-.22Zm1.3-.71a.15.15,0,0,1,.21.07.16.16,0,0,1-.07.21l-.61.32a.12.12,0,0,1-.08,0,.17.17,0,0,1-.14-.08.15.15,0,0,1,.07-.21C60.5,99.61,60.71,99.5,60.92,99.4Zm4.13-1.62a.15.15,0,0,1,.19.11.15.15,0,0,1-.11.19l-.66.2h0a.15.15,0,0,1-.15-.11.17.17,0,0,1,0-.12.18.18,0,0,1,.09-.08Zm1.43-.36a.16.16,0,0,1,.07.31l-.68.16h0a.16.16,0,0,1,0-.31Zm.76,5a2.9,2.9,0,0,1-.07.38c0,.08,0,.17-.07.26s0,.2-.08.31l-.12.35-.14.39-.18.4c-.06.15-.14.28-.21.43a4.91,4.91,0,0,1-.25.44c-.08.15-.18.3-.28.45l-.15.23-.16.22-.17.22-.18.22c-.24.29-.5.57-.77.84l-.43.39c-.14.12-.28.25-.43.36l-.45.34q-.23.16-.45.3a11.58,11.58,0,0,1-1.73.9c-.27.1-.51.19-.74.26a4.91,4.91,0,0,1-.57.15l-.38.08H59.1l.11-.06.33-.19c.29-.16.68-.4,1.14-.7l.73-.5c.26-.18.52-.37.79-.58s.54-.43.81-.66l.39-.36a4.59,4.59,0,0,0,.39-.37c.26-.25.51-.51.75-.77l.35-.39.16-.2.16-.2.16-.19.15-.2.29-.38c.18-.25.34-.5.5-.73l.21-.33.19-.31c.11-.19.22-.35.3-.5a3.78,3.78,0,0,1,.19-.33l.07-.11Zm-13.71,3,.45-.54a.16.16,0,0,1,.22,0,.15.15,0,0,1,0,.22c-.15.17-.3.35-.44.53a.16.16,0,0,1-.13.06.15.15,0,0,1-.09,0A.16.16,0,0,1,53.53,105.35Zm1-1.11.49-.51a.16.16,0,0,1,.22,0,.17.17,0,0,1,0,.23c-.16.16-.32.33-.47.5a.21.21,0,0,1-.12.05.16.16,0,0,1-.11-.05A.16.16,0,0,1,54.49,104.24Zm1-1,.51-.47a.17.17,0,0,1,.23,0,.16.16,0,0,1,0,.23l-.5.46a.18.18,0,0,1-.11,0,.17.17,0,0,1-.12,0A.16.16,0,0,1,55.53,103.19Zm2.79-1.51.58-.39a.16.16,0,0,1,.22,0,.17.17,0,0,1,0,.22l-.56.39a.17.17,0,0,1-.1,0,.14.14,0,0,1-.12-.07A.15.15,0,0,1,58.32,101.68Zm1.22-.8q.3-.19.6-.36a.16.16,0,0,1,.22.06.16.16,0,0,1-.06.21l-.59.35a.16.16,0,0,1-.09,0,.16.16,0,0,1-.13-.08A.15.15,0,0,1,59.54,100.88ZM67,98a.14.14,0,0,1,.18.12.16.16,0,0,1-.12.19l-.67.14h0a.16.16,0,0,1-.15-.13.17.17,0,0,1,0-.12.18.18,0,0,1,.1-.07ZM62,99.59a.14.14,0,0,1,.08-.09l.64-.28a.17.17,0,0,1,.21.09.17.17,0,0,1-.09.21c-.21.08-.42.18-.63.27h-.06a.15.15,0,0,1-.09,0L62,99.71A.24.24,0,0,1,62,99.59Zm-5.24,3.49a.16.16,0,0,1,0,.22l-.51.46a.15.15,0,0,1-.11,0,.18.18,0,0,1-.12,0,.17.17,0,0,1,0-.23l.52-.46A.15.15,0,0,1,56.8,103.08Zm4.84-3.18a.15.15,0,0,1-.07.21l-.61.32h-.08a.17.17,0,0,1-.14-.08.15.15,0,0,1,.07-.21l.62-.32A.15.15,0,0,1,61.64,99.9Zm-3.71,2.27a.16.16,0,0,1,0,.22l-.54.42a.13.13,0,0,1-.1,0,.16.16,0,0,1-.12-.06.15.15,0,0,1,0-.22l.55-.43A.15.15,0,0,1,57.93,102.17Zm-2.42,1.88a.16.16,0,1,1,.23.23c-.17.16-.33.32-.48.49a.17.17,0,0,1-.12,0,.16.16,0,0,1-.1,0,.15.15,0,0,1,0-.22Zm9.35-5.58.67-.19a.16.16,0,0,1,.19.11.17.17,0,0,1-.11.2l-.66.19h0a.16.16,0,0,1-.15-.11.24.24,0,0,1,0-.12A.16.16,0,0,1,64.86,98.47Zm-10.79,7.17.45-.53a.16.16,0,0,1,.22,0,.15.15,0,0,1,0,.22l-.44.52a.14.14,0,0,1-.12.06.21.21,0,0,1-.1,0A.15.15,0,0,1,54.07,105.64Zm9.4-6.7.66-.23a.16.16,0,0,1,.1.3l-.64.23h-.06a.18.18,0,0,1-.15-.1.19.19,0,0,1,0-.13A.15.15,0,0,1,63.47,98.94Zm-1-.09a.16.16,0,0,1-.08.21l-.64.28-.07,0a.16.16,0,0,1-.14-.09.15.15,0,0,1,.08-.21l.64-.29A.15.15,0,0,1,62.47,98.85Zm-5.07,3a.16.16,0,0,1,0,.22l-.54.44a.18.18,0,0,1-.1,0,.16.16,0,0,1-.12-.06.15.15,0,0,1,0-.22l.55-.45A.16.16,0,0,1,57.4,101.8Zm6.24-3.57a.15.15,0,0,1,.2.1.17.17,0,0,1,0,.12.24.24,0,0,1-.09.08l-.66.24H63a.16.16,0,0,1-.06-.3C63.19,98.39,63.41,98.31,63.64,98.23Zm-10.79,8,.21-.28a.16.16,0,0,1,.22,0,.12.12,0,0,1,.06.1.12.12,0,0,1,0,.12l-.29.4Zm.42.71-.09-.14v0l.41-.55a.16.16,0,0,1,.22,0,.21.21,0,0,1,.06.1.24.24,0,0,1,0,.12c-.14.18-.28.36-.41.55a.17.17,0,0,1-.12.06A.41.41,0,0,0,53.27,106.94Z"/><path class="cls-3" d="M65.66,95.09a.17.17,0,0,0-.12.19.16.16,0,0,0,.16.13h0l.71-.14a.18.18,0,0,0,.1-.07.12.12,0,0,0,0-.12.16.16,0,0,0-.19-.12Z"/><path class="cls-3" d="M58.4,98a.17.17,0,0,0,0,.12.09.09,0,0,0,.06.06l.07,0,.08,0,.64-.36a.16.16,0,0,0-.15-.28l-.65.37A.16.16,0,0,0,58.4,98Z"/><path class="cls-4" d="M67.27,102.24l-.07.11a3.78,3.78,0,0,0-.19.33c-.08.15-.19.31-.3.5l-.19.31-.21.33c-.16.23-.32.48-.5.73l-.29.38-.15.2-.16.19-.16.2-.16.2-.35.39c-.24.26-.49.52-.75.77a4.59,4.59,0,0,1-.39.37l-.39.36q-.4.35-.81.66c-.27.21-.53.4-.79.58l-.73.5c-.46.3-.85.54-1.14.7l-.33.19-.11.06h.13l.38-.08a4.91,4.91,0,0,0,.57-.15c.23-.07.47-.16.74-.26a11.58,11.58,0,0,0,1.73-.9q.23-.14.45-.3l.45-.34c.15-.11.29-.24.43-.36l.43-.39c.27-.27.53-.55.77-.84l.18-.22.17-.22.16-.22.15-.23c.1-.15.2-.3.28-.45a4.91,4.91,0,0,0,.25-.44c.07-.15.15-.28.21-.43l.18-.4.14-.39.12-.35c0-.11.06-.21.08-.31s.05-.18.07-.26a2.9,2.9,0,0,0,.07-.38Z"/><path class="cls-4" d="M53.31,106.14a.12.12,0,0,0,0-.12.12.12,0,0,0-.06-.1.16.16,0,0,0-.22,0l-.21.28.17.31Z"/><path class="cls-4" d="M53.65,105.61a.16.16,0,0,0,.13-.06c.14-.18.29-.36.44-.53a.15.15,0,0,0,0-.22.16.16,0,0,0-.22,0l-.45.54a.16.16,0,0,0,0,.22A.15.15,0,0,0,53.65,105.61Z"/><path class="cls-4" d="M54.5,104.46a.16.16,0,0,0,.11.05.21.21,0,0,0,.12-.05c.15-.17.31-.34.47-.5a.17.17,0,0,0,0-.23.16.16,0,0,0-.22,0l-.49.51A.16.16,0,0,0,54.5,104.46Z"/><path class="cls-4" d="M55.52,103.42a.17.17,0,0,0,.12,0,.18.18,0,0,0,.11,0l.5-.46a.16.16,0,0,0,0-.23.17.17,0,0,0-.23,0l-.51.47A.16.16,0,0,0,55.52,103.42Z"/><path class="cls-4" d="M57.18,101.77l-.55.45a.15.15,0,0,0,0,.22.16.16,0,0,0,.12.06.18.18,0,0,0,.1,0l.54-.44a.16.16,0,1,0-.19-.25Z"/><path class="cls-4" d="M57.76,101.53a.17.17,0,0,0,.13.07.16.16,0,0,0,.09,0l.57-.4a.16.16,0,0,0,0-.22.15.15,0,0,0-.22,0c-.19.14-.39.27-.57.41A.16.16,0,0,0,57.76,101.53Z"/><path class="cls-4" d="M59,100.7l.06,0,.07,0,.09,0,.59-.37a.17.17,0,0,0,.08-.09.16.16,0,0,0,0-.12.15.15,0,0,0-.22-.06l-.6.37A.16.16,0,0,0,59,100.7Z"/><path class="cls-4" d="M60.3,99.73a.15.15,0,0,0-.07.21.17.17,0,0,0,.14.08.12.12,0,0,0,.08,0l.61-.32a.16.16,0,0,0,.07-.21.15.15,0,0,0-.21-.07C60.71,99.5,60.5,99.61,60.3,99.73Z"/><path class="cls-4" d="M62.26,98.77l-.64.29a.15.15,0,0,0-.08.21.16.16,0,0,0,.14.09l.07,0,.64-.28a.16.16,0,0,0,.08-.21A.15.15,0,0,0,62.26,98.77Z"/><path class="cls-4" d="M63,98.48a.16.16,0,0,0,.06.3h.05l.66-.24a.24.24,0,0,0,.09-.08.17.17,0,0,0,0-.12.15.15,0,0,0-.2-.1C63.41,98.31,63.19,98.39,63,98.48Z"/><path class="cls-4" d="M64.28,98.06a.17.17,0,0,0,0,.12.15.15,0,0,0,.15.11h0l.66-.2a.15.15,0,0,0,.11-.19.15.15,0,0,0-.19-.11l-.68.2A.18.18,0,0,0,64.28,98.06Z"/><path class="cls-4" d="M65.8,97.58a.16.16,0,0,0,0,.31h0l.68-.16a.16.16,0,0,0-.07-.31Z"/><path class="cls-4" d="M67.24,97.27a.16.16,0,0,0-.13.19.19.19,0,0,0,0,.09.21.21,0,0,0,.11,0h0l.69-.11a.13.13,0,0,0,.1-.06.16.16,0,0,0,0-.12.17.17,0,0,0-.18-.13Z"/><path class="cls-4" d="M53.85,106.42a.24.24,0,0,0,0-.12.21.21,0,0,0-.06-.1.16.16,0,0,0-.22,0l-.41.55v0l.09.14a.41.41,0,0,1,0,.09.17.17,0,0,0,.12-.06C53.57,106.78,53.71,106.6,53.85,106.42Z"/><path class="cls-4" d="M54.09,105.86a.21.21,0,0,0,.1,0,.14.14,0,0,0,.12-.06l.44-.52a.15.15,0,0,0,0-.22.16.16,0,0,0-.22,0l-.45.53A.15.15,0,0,0,54.09,105.86Z"/><path class="cls-4" d="M55,104.55a.15.15,0,0,0,0,.22.16.16,0,0,0,.1,0,.17.17,0,0,0,.12,0c.15-.17.31-.33.48-.49a.16.16,0,1,0-.23-.23Z"/><path class="cls-4" d="M56.06,103.52a.17.17,0,0,0,0,.23.18.18,0,0,0,.12,0,.15.15,0,0,0,.11,0l.51-.46a.16.16,0,0,0,0-.22.15.15,0,0,0-.22,0Z"/><path class="cls-4" d="M57.16,102.57a.15.15,0,0,0,0,.22.16.16,0,0,0,.12.06.13.13,0,0,0,.1,0l.54-.42a.16.16,0,0,0,0-.22.15.15,0,0,0-.22,0Z"/><path class="cls-4" d="M58.29,101.9a.14.14,0,0,0,.12.07.17.17,0,0,0,.1,0l.56-.39a.17.17,0,0,0,0-.22.16.16,0,0,0-.22,0l-.58.39A.15.15,0,0,0,58.29,101.9Z"/><path class="cls-4" d="M59.49,101.09a.16.16,0,0,0,.13.08.16.16,0,0,0,.09,0l.59-.35a.16.16,0,0,0,.06-.21.16.16,0,0,0-.22-.06q-.3.17-.6.36A.15.15,0,0,0,59.49,101.09Z"/><path class="cls-4" d="M60.81,100.15a.15.15,0,0,0-.07.21.17.17,0,0,0,.14.08H61l.61-.32a.16.16,0,0,0-.14-.28Z"/><path class="cls-4" d="M62.1,99.78a.15.15,0,0,0,.09,0h.06c.21-.09.42-.19.63-.27a.17.17,0,0,0,.09-.21.17.17,0,0,0-.21-.09l-.64.28a.14.14,0,0,0-.08.09.24.24,0,0,0,0,.12Z"/><path class="cls-4" d="M63.38,99.15a.18.18,0,0,0,.15.1h.06l.64-.23a.16.16,0,0,0-.1-.3l-.66.23a.15.15,0,0,0-.08.08A.19.19,0,0,0,63.38,99.15Z"/><path class="cls-4" d="M64.75,98.67a.16.16,0,0,0,.15.11h0l.66-.19a.17.17,0,0,0,.11-.2.16.16,0,0,0-.19-.11l-.67.19a.16.16,0,0,0-.1.08A.24.24,0,0,0,64.75,98.67Z"/><path class="cls-4" d="M66.27,98.09a.18.18,0,0,0-.1.07.17.17,0,0,0,0,.12.16.16,0,0,0,.15.13h0l.67-.14a.16.16,0,0,0,.12-.19A.14.14,0,0,0,67,98Z"/><path class="cls-4" d="M52.23,102.37a.16.16,0,0,0,0-.22.16.16,0,0,0-.23,0l-.29.34c0,.13,0,.26,0,.38v0Z"/><path class="cls-4" d="M53.07,101c-.18.17-.36.35-.53.53a.15.15,0,0,0,0,.11.16.16,0,0,0,.27.11c.17-.18.34-.36.52-.53a.16.16,0,0,0,0-.22A.14.14,0,0,0,53.07,101Z"/><path class="cls-4" d="M54.44,100a.17.17,0,0,0-.23,0c-.19.16-.37.33-.55.5a.16.16,0,0,0,0,.11.15.15,0,0,0,0,.11.13.13,0,0,0,.11,0,.15.15,0,0,0,.11,0l.55-.49A.17.17,0,0,0,54.44,100Z"/><path class="cls-4" d="M55.43,99l-.59.47a.15.15,0,0,0,0,.22.14.14,0,0,0,.12.06.13.13,0,0,0,.1,0l.58-.46a.16.16,0,1,0-.19-.25Z"/><path class="cls-4" d="M56.88,98.3a.14.14,0,0,0,.07-.1.18.18,0,0,0,0-.12.16.16,0,0,0-.22,0l-.61.43a.16.16,0,0,0,0,.22l.06,0,.07,0a.16.16,0,0,0,.09,0Z"/><path class="cls-4" d="M58.25,97.26A.15.15,0,0,0,58,97.2l-.64.39a.18.18,0,0,0-.07.1.17.17,0,0,0,0,.12.16.16,0,0,0,.14.07l.08,0,.64-.39a.16.16,0,0,0,.07-.09A.16.16,0,0,0,58.25,97.26Z"/><path class="cls-4" d="M59.56,96.73a.16.16,0,0,0,.07-.22.15.15,0,0,0-.21-.07l-.67.35a.17.17,0,0,0-.06.22.16.16,0,0,0,.14.08l.08,0C59.12,97,59.34,96.84,59.56,96.73Z"/><path class="cls-4" d="M61,96.06a.14.14,0,0,0,.08-.2.15.15,0,0,0-.2-.09l-.69.31a.16.16,0,0,0,.07.3h.06Z"/><path class="cls-4" d="M62.42,95.49a.16.16,0,0,0,.09-.2.16.16,0,0,0-.2-.1l-.7.27a.14.14,0,0,0-.09.08.17.17,0,0,0,0,.12.14.14,0,0,0,.15.1h0Z"/><path class="cls-4" d="M64,94.81a.15.15,0,0,0-.19-.1c-.24.06-.48.14-.72.22a.15.15,0,0,0-.1.2.16.16,0,0,0,.15.11h0L63.9,95A.15.15,0,0,0,64,94.81Z"/><path class="cls-4" d="M65.5,94.55a.16.16,0,0,0,0-.12.18.18,0,0,0-.19-.12l-.73.18a.23.23,0,0,0-.1.07.17.17,0,0,0,0,.12.14.14,0,0,0,.15.12h0l.72-.18A.14.14,0,0,0,65.5,94.55Z"/><path class="cls-4" d="M67.05,94.15a.16.16,0,0,0-.18-.13l-.74.13a.16.16,0,0,0,0,.31h0l.73-.13A.16.16,0,0,0,67.05,94.15Z"/><path class="cls-4" d="M51.65,101.94v.16l.39-.42a.17.17,0,0,0,0-.23.16.16,0,0,0-.22,0l-.17.19a1.41,1.41,0,0,1,0,.2Z"/><path class="cls-4" d="M52.61,101.08l.52-.52a.16.16,0,0,0,0-.23.17.17,0,0,0-.23,0c-.18.17-.36.35-.53.53a.16.16,0,0,0,.11.27A.21.21,0,0,0,52.61,101.08Z"/><path class="cls-4" d="M53.73,100l.56-.5a.15.15,0,0,0,0-.22.16.16,0,0,0-.22,0c-.19.16-.39.33-.57.5a.16.16,0,0,0,.1.28A.21.21,0,0,0,53.73,100Z"/><path class="cls-4" d="M54.92,99l.6-.46a.17.17,0,0,0,.06-.1.27.27,0,0,0,0-.12.16.16,0,0,0-.22,0c-.21.15-.41.31-.6.46a.17.17,0,0,0,0,.23.16.16,0,0,0,.13.06A.15.15,0,0,0,54.92,99Z"/><path class="cls-4" d="M56.63,97.35l-.63.43A.16.16,0,0,0,56,98l.06,0,.07,0a.16.16,0,0,0,.09,0c.21-.14.41-.29.62-.42a.17.17,0,0,0,.07-.1.16.16,0,0,0-.24-.17Z"/><path class="cls-4" d="M57.5,97.18l.64-.39a.15.15,0,0,0-.15-.27q-.33.18-.66.39a.13.13,0,0,0-.07.09.16.16,0,0,0,0,.12.16.16,0,0,0,.13.08Z"/><path class="cls-4" d="M59.6,95.84a.15.15,0,0,0-.21-.07c-.23.11-.45.23-.67.35a.15.15,0,0,0-.07.21.17.17,0,0,0,.06.06.11.11,0,0,0,.08,0h.08l.66-.35A.15.15,0,0,0,59.6,95.84Z"/><path class="cls-4" d="M61.05,95.19a.15.15,0,0,0-.21-.08l-.69.3a.2.2,0,0,0-.09.09.17.17,0,0,0,0,.12.15.15,0,0,0,.14.09h.07c.23-.1.46-.21.69-.3A.16.16,0,0,0,61.05,95.19Z"/><path class="cls-4" d="M61.73,95.09l.7-.25a.16.16,0,0,0,.1-.21.16.16,0,0,0-.2-.09l-.71.26a.16.16,0,0,0-.09.2.15.15,0,0,0,.14.1Z"/><path class="cls-4" d="M63.93,94.36a.15.15,0,0,0,.1-.07.13.13,0,0,0,0-.12.15.15,0,0,0-.19-.11l-.73.21a.24.24,0,0,0-.09.08.17.17,0,0,0,0,.12.12.12,0,0,0,.06.08.14.14,0,0,0,.09,0h0Z"/><path class="cls-4" d="M65.39,93.68l-.74.17a.15.15,0,0,0-.11.19.15.15,0,0,0,.15.12h0l.73-.17a.16.16,0,0,0,.12-.19A.15.15,0,0,0,65.39,93.68Z"/><path class="cls-4" d="M53.44,94.94l-.41.6-.18.3a1.82,1.82,0,0,0-.16.31l-.15.3c0,.1-.1.2-.14.3l-.13.29c0,.1-.08.19-.11.29s-.13.38-.18.56-.1.35-.14.52-.07.33-.1.48a3.27,3.27,0,0,0-.06.42l0,.36a5,5,0,0,0,0,.5v.18l.13-.67.09-.35,0-.19a1.66,1.66,0,0,1,.06-.21l.14-.46c.06-.15.11-.32.18-.49a10.79,10.79,0,0,1,.48-1.07l.15-.28.17-.28c.1-.19.23-.38.35-.57s.27-.37.41-.56L54,95l.23-.27a10.83,10.83,0,0,1,1-1l.28-.24.28-.21.29-.22.3-.19a6.48,6.48,0,0,1,.61-.36l.15-.09,0,0,0,0,.08,0,.31-.16c.41-.19.82-.35,1.21-.49s.78-.23,1.14-.31a8.58,8.58,0,0,1,1-.17l.41,0,.36,0h.68l-.18,0-.5,0c-.22,0-.48,0-.79,0a8,8,0,0,0-1,.09,7,7,0,0,0-1.19.24,9,9,0,0,0-1.29.44l-.33.15-.08,0,0,0,0,0-.16.08-.33.18a3.21,3.21,0,0,0-.31.19l-.32.2-.31.22-.3.23L55,93.3a10.72,10.72,0,0,0-1.07,1.06C53.73,94.55,53.59,94.75,53.44,94.94Z"/><path class="cls-2" d="M43.34,23.68A9,9,0,0,1,36.46,28c-2.83.25-4.27-1.11-3.87-4.6.43-3.69,3-10.77,8.86-11.29,1.93-.17,3.44.44,3.2,2.46a2,2,0,0,1-1.72,2,1.32,1.32,0,0,1-1.17-.42A2.94,2.94,0,0,0,43,14.21c.07-.67-.25-1.23-1.09-1.15-2.51.22-5.2,5.76-5.68,9.86-.23,2,.09,3.3,2.18,3.11a6.91,6.91,0,0,0,4.49-2.51Z"/><path class="cls-2" d="M48.16,16.6l-.45,1.31a5.61,5.61,0,0,1,2.8-1.62,1.15,1.15,0,0,1,1.31,1.39,1.87,1.87,0,0,1-1.73,1.63c-1.21.11-.45-1.23-1.1-1.17a3.11,3.11,0,0,0-1.67.95L44.69,27l-3.11.27,3.47-10.39Z"/><path class="cls-2" d="M56.29,15.88l-2.37,7.06a3.25,3.25,0,0,0-.16.66c-.06.57.2.73.8.68a3,3,0,0,0,2.15-2l.91-.08c-1.62,3.43-3.81,4.07-5,4.17s-2.23-.53-2-2.24a7.09,7.09,0,0,1,.32-1.34l2.23-6.67Zm-.47-4.26a1.33,1.33,0,0,1,1.54,1.48,2.15,2.15,0,0,1-1.92,1.76,1.3,1.3,0,0,1-1.52-1.46A2.17,2.17,0,0,1,55.82,11.62Z"/><path class="cls-2" d="M63.56,17c0-.47-.11-.74-.52-.7-1.49.13-3.28,3.92-3.53,6.14-.17,1.38.4,1.68,1.44,1.58,1.7-.15,2.84-1.14,4.06-2.39l.73-.07c-1.45,2-3.5,4-6.38,4.3-2,.18-3.26-.64-3-2.94s2.26-7.3,6.65-7.69c1.92-.17,2.29.7,2.19,1.58s-.72,1.76-1.35,1.81a1.46,1.46,0,0,1-.83-.16A4.94,4.94,0,0,0,63.56,17Z"/><path class="cls-2" d="M76,14.13l-4.65,3.22A6.14,6.14,0,0,1,72,17.2a1.77,1.77,0,0,1,2.1,2.18c-.1.87-.63,1.69-.72,2.48,0,.41.09.74.76.68.95-.08,1.42-.85,2-1.95l.91-.08c-1.63,3.53-3.42,4-4.42,4.12-1.77.15-2.62-.6-2.45-2.08.11-.94.6-1.79.69-2.65.07-.59-.1-1-.66-.91a3.59,3.59,0,0,0-1.69.9L66.88,25l-3.12.28,4.75-14.13,3.24-.7L69.3,17.79l4.53-3.47Z"/><path class="cls-2" d="M80.43,22.25c1.71-.15,2.85-1.14,4.07-2.4l.73-.06c-1.45,2-3.51,4-6.38,4.29-2,.18-3.26-.64-3-2.94s2.24-7.3,6.67-7.69c1.92-.17,2.26.73,2.14,1.75-.26,2.3-2.85,4.28-5.46,4.66,0,.28-.1.57-.13.82C78.92,22.06,79.4,22.34,80.43,22.25Zm2.14-7.73c-1.08.09-2.38,2.3-3.07,4.34A4.46,4.46,0,0,0,83,15.3C83.07,14.8,83,14.48,82.57,14.52Z"/><path class="cls-2" d="M87.56,20a3.58,3.58,0,0,0-.19.73c-.05.42.09.71.67.66a1.79,1.79,0,0,0,.57-.11c-.81,1.81-1.79,2.14-2.52,2.2-1.51.13-2-.81-1.89-2.11a5,5,0,0,1,.25-1.09L86.54,14l-.71.07.27-.83.71-.07,1-2.87L91,9.61,89.92,12.9l1.3-.12-.27.83-1.29.12Z"/><path class="cls-2" d="M55.51,35.17l-1.18.49a2,2,0,0,1-1.45-.49,1.77,1.77,0,0,1-.54-1.35,2,2,0,0,1,.53-1.4,1.84,1.84,0,0,1,1.37-.55,2.11,2.11,0,0,1,1.17.34v.17a2.19,2.19,0,0,1-.12.75h-.45l-.09-.63a2.14,2.14,0,0,0-.88-.19h-.14a1.13,1.13,0,0,0-.48.57,2.15,2.15,0,0,0-.15.8,1.48,1.48,0,0,0,.37,1.07,1.13,1.13,0,0,0,1,.37l.94-.29Z"/><path class="cls-2" d="M60.65,34.39a5.78,5.78,0,0,1-.07,1.18h-3l0-.18.49-.2V32.31l-.45-.06V32h1.63l0,.18a3.85,3.85,0,0,1-.5.2v2.8l1.3-.08.19-.72Z"/><path class="cls-2" d="M66.46,32.16a3.85,3.85,0,0,1-.5.2V34c0,1.1-.51,1.64-1.47,1.64A1.55,1.55,0,0,1,62.8,34v-1.7l-.45-.06V32H64l0,.18a4.58,4.58,0,0,1-.5.2v1.73a1.15,1.15,0,0,0,.27.83,1,1,0,0,0,.76.29,1.32,1.32,0,0,0,.53-.11A1.29,1.29,0,0,0,65.43,34V32.31l-.51-.06V32h1.51Z"/><path class="cls-2" d="M70.8,33.66a1.21,1.21,0,0,1,.73.32.83.83,0,0,1,.26.6.84.84,0,0,1-.41.71,2.13,2.13,0,0,1-1.12.28H68.41l0-.18.5-.2V32.3l-.41,0V32c.68,0,1.25,0,1.69,0a1.9,1.9,0,0,1,1,.25.76.76,0,0,1,.4.67.77.77,0,0,1-.21.52A.94.94,0,0,1,70.8,33.66Zm-1.21-1.27v1.14h.29a1.19,1.19,0,0,0,.72-.18.51.51,0,0,0,.24-.43.6.6,0,0,0-.15-.39.64.64,0,0,0-.37-.22Zm.53,2.8h.12A.8.8,0,0,0,70.8,35a.53.53,0,0,0,.2-.43.63.63,0,0,0-.25-.51.92.92,0,0,0-.63-.21h-.53v1.29Z"/><polygon class="cls-2" points="40.16 28.91 88 28.91 88 24.81 40.16 28.91"/><path class="cls-3" d="M10.28,25.06s-.13.23-.39.66-.65,1.08-1.11,2a62.92,62.92,0,0,0-3.57,7.71,61.48,61.48,0,0,0-4.1,20.75,70.28,70.28,0,0,0,.39,8.93A61.19,61.19,0,0,0,7,84.28a62.57,62.57,0,0,0,13,18,61.31,61.31,0,0,0,43.94,17.22,60.78,60.78,0,0,0,23.85-5.32,61.82,61.82,0,0,0,19.36-13.67A62.72,62.72,0,0,0,119.41,82a59.25,59.25,0,0,0,3.22-9.85,58.16,58.16,0,0,0,1.48-9.59c.09-.77.11-1.54.13-2.3s.07-1.53.06-2.26,0-1.5,0-2.23-.06-1.44-.1-2.14a62.07,62.07,0,0,0-4.93-20.57,64.5,64.5,0,0,0-3.89-7.55c-.49-.86-.92-1.47-1.19-1.9s-.42-.65-.42-.65l.44.63c.29.42.75,1,1.27,1.86a57.53,57.53,0,0,1,4.17,7.44c.75,1.68,1.58,3.55,2.3,5.65a59.52,59.52,0,0,1,2,6.91,65.09,65.09,0,0,1,1.29,8.1c0,.72.11,1.45.16,2.2s0,1.48.07,2.23,0,1.53,0,2.31,0,1.56-.08,2.35a62.72,62.72,0,0,1-4.47,20A62.71,62.71,0,0,1,64,121.7a62.61,62.61,0,0,1-45.32-18A62.59,62.59,0,0,1,.3,65.19C.21,64.4.18,63.6.12,62.83c0-.39,0-.78-.07-1.16s0-.76,0-1.14c0-.76,0-1.48,0-2.25s.05-1.47.07-2.19A63.24,63.24,0,0,1,4.82,35.22a58.24,58.24,0,0,1,3.86-7.61c.49-.85.92-1.47,1.19-1.9Z"/><path class="cls-2" d="M117.27,10.27A3.74,3.74,0,0,0,114.65,9a3.78,3.78,0,0,0-2.59,1.32l-5,5L89.39,32.93a8.5,8.5,0,0,1-4,2.42c-2-1.41-3.59-2.1-5-2.1a3.58,3.58,0,0,0-2.56,1c-.51.49-5.69,5.81-15.39,15.81-9.7-10-14.88-15.31-15.4-15.81a3.57,3.57,0,0,0-2.55-1c-1.43,0-3.07.69-5,2.1a8.5,8.5,0,0,1-4-2.42L23.28,20.71,12.84,10.27A3.81,3.81,0,0,0,10.24,9a3.72,3.72,0,0,0-2.61,1.32A3.58,3.58,0,0,0,6.32,13.1a4,4,0,0,0,1.31,2.38L30.29,38.14A8.68,8.68,0,0,1,32.69,42c-2.68,3.51-3.16,6.2-1.43,8,.5.53,5.91,5.79,16.06,15.64C35,78.39,23.53,90.25,23.35,90.44a3.84,3.84,0,0,0-.57,4.62,14,14,0,0,0,2.6,3.17c.29.3.61.61.94.93l0,0c.37.36.77.75,1.18,1.17s.81.81,1.18,1.19l0,0,.93.94c1.32,1.32,3.13,3.13,5.2,3.13a3.69,3.69,0,0,0,2.58-1.1l25-24.2c12.82,12.42,24.8,24,25,24.2a3.69,3.69,0,0,0,2.58,1.1c2.07,0,3.88-1.81,5.21-3.13l1-1,1.17-1.19,1.19-1.18,1-1a14,14,0,0,0,2.61-3.17,3.85,3.85,0,0,0-.57-4.62c-.19-.19-11.66-12-24-24.76C87.73,55.83,93.13,50.57,93.63,50c1.73-1.81,1.25-4.5-1.42-8a8.55,8.55,0,0,1,2.39-3.89L115.54,17.2l1.73-1.72C119,13.72,119,12,117.27,10.27Zm.35,3.23a3.39,3.39,0,0,1-.18.39c-.06.1-.12.2-.19.3a3.92,3.92,0,0,1-.37.46l-.22.22-2.26,2.27-1.34,1.33-.75.75-1.64,1.64-.87.88-4.7,4.69-3.79,3.79L94,37.53a10.49,10.49,0,0,0-2,2.65,8.51,8.51,0,0,0-.49,1.12,7.66,7.66,0,0,0-.24.94,14.15,14.15,0,0,1,2.11,3.47A4.5,4.5,0,0,1,93.75,48,2.68,2.68,0,0,1,93,49.45c-.21.23-1.34,1.34-3.15,3.1l-.47.45-1.55,1.52-1.16,1.12c-2.82,2.75-6.39,6.21-10.32,10L94.12,84l.8.82,6,6.21a3.63,3.63,0,0,1,.54.75,2.8,2.8,0,0,1,.28.86,2.78,2.78,0,0,1,0,.51,3.39,3.39,0,0,1-.42,1.51,6.36,6.36,0,0,1-.67,1,23.5,23.5,0,0,1-1.78,1.95l-.31.3-.65.64-1.19,1.18-.61.62c-.2.19-.39.39-.57.57h0c-.34.33-.65.65-1,1-.09.09-.18.19-.28.28l-.08.09-.25.23-.08.08-.32.31-.07.06-.27.24-.1.09-.32.26,0,0-.36.27-.09.07-.29.19-.1.06-.38.21-.06,0a2.41,2.41,0,0,1-.33.15l-.11,0-.33.1-.07,0a2.57,2.57,0,0,1-.4.07h-.49l-.4-.06-.06,0a3,3,0,0,1-.39-.14l-.07,0a4,4,0,0,1-.39-.23l0,0a3.12,3.12,0,0,1-.41-.33l-.62-.6-4.12-4-11.37-11-9.48-9.18c-1,1-2.05,2-3.05,2.95l-1.76,1.7L54.1,87.23l-2.25,2.18-7,6.8-6.66,6.44-.69.67c-.38.37-.6.57-.62.6a3.71,3.71,0,0,1-.41.33l-.05,0-.4.23-.07,0a2.58,2.58,0,0,1-.39.14l-.06,0a2.76,2.76,0,0,1-.4.06h-.49a2.66,2.66,0,0,1-.39-.07l-.08,0-.32-.1-.12,0a2.41,2.41,0,0,1-.33-.15l-.05,0-.38-.21-.11-.06-.28-.19-.1-.07-.36-.27s0,0,0,0l-.31-.25-.11-.09-.27-.24-.06-.06-.33-.31a.6.6,0,0,1-.08-.08l-.24-.23-.09-.09-.28-.28-.94-1h0l-.58-.57-.6-.62-1.2-1.18-1-.94h0c-.3-.3-.57-.57-.82-.84s-.47-.51-.68-.75a10.23,10.23,0,0,1-.77-1,3.65,3.65,0,0,1-.18-.34,3.29,3.29,0,0,1-.42-1.49v0a2.58,2.58,0,0,1,.08-.75l.06-.22a2.43,2.43,0,0,1,.18-.4,2.91,2.91,0,0,1,.2-.35A5,5,0,0,1,24,91l6.8-7,.83-.86L48.53,65.66,43,60.25l-8.77-8.53L33.46,51l-.31-.31c-.71-.68-1.14-1.12-1.27-1.25A2.66,2.66,0,0,1,31.15,48a6.54,6.54,0,0,1,1.38-4.22,16.1,16.1,0,0,1,1.08-1.5,7.16,7.16,0,0,0-.46-1.48,7.77,7.77,0,0,0-.63-1.2,11,11,0,0,0-1.63-2L8.23,14.87,8,14.65a3.75,3.75,0,0,1-.65-.91,2.18,2.18,0,0,1-.16-.47,2,2,0,0,1,.32-1.53,4.3,4.3,0,0,1,.7-.87,3.58,3.58,0,0,1,.29-.27l.09-.08.19-.15.11-.07.16-.12.11-.06L9.33,10l.12,0,.14-.06.11,0,.14,0,.11,0h.5l.11,0,.14,0,.11,0L11,10l.1,0,.14.07.1.06.14.08.1.07.14.11.09.07.16.13.08.07.23.22L34.89,33.53a9,9,0,0,0,4.79,2.73h0c.18-.14.37-.27.56-.4l.16-.12.42-.27.17-.11.53-.31,0,0c.19-.1.37-.2.56-.28l.16-.08.4-.17.17-.06.47-.16h.06a5.2,5.2,0,0,1,.51-.11l.15,0,.37,0h.15l.44,0h0a2.39,2.39,0,0,1,.46.12l.12,0a3.18,3.18,0,0,1,.32.16l.12.08a2.87,2.87,0,0,1,.4.31l.32.32.39.4.25.24c2.24,2.29,8,8.26,15,15.46l2.75-2.84,8.77-9,1-1,2.54-2.6.45-.46.51-.5a2.79,2.79,0,0,1,.39-.31l.12-.08.32-.16.13,0a2.5,2.5,0,0,1,.45-.12h.05l.44,0h.15l.37,0,.14,0a4.64,4.64,0,0,1,.51.11h0l.49.16.16.06.41.17.16.08c.18.08.36.18.55.28l0,0c.18.09.35.2.53.31l.17.11.42.27.17.12.56.4h0l.44-.09a8,8,0,0,0,1.64-.62,9.55,9.55,0,0,0,1.3-.8c.23-.17.46-.35.7-.55s.47-.43.71-.67l1-1,.53-.53.61-.6,9.91-9.92,1.91-1.9.92-.93,3.42-3.41.75-.76,1.34-1.33,2.26-2.27.24-.22a.46.46,0,0,1,.07-.07l.16-.13.09-.07.14-.11.1-.07.14-.08.1-.06.14-.07.11,0,.13,0,.11,0,.14,0,.11,0h.5l.11,0,.14,0,.11,0,.15.06.11,0,.15.08a.41.41,0,0,1,.11.07l.17.11.1.07.19.15.09.08a2.44,2.44,0,0,1,.29.27,4.38,4.38,0,0,1,.71.87,2.18,2.18,0,0,1,.35,1A1.75,1.75,0,0,1,117.62,13.5Z"/><path class="cls-2" d="M25.8,26.39l.23-.17a2.64,2.64,0,0,0,.44-.41,2.65,2.65,0,0,0-.6,0l-.28.06-.3.08a5.33,5.33,0,0,0-.63.23l-.31.14-.55.33-.22.17a1.57,1.57,0,0,0-.19.15,3,3,0,0,0-.25.26,2.67,2.67,0,0,0,.6,0,4.94,4.94,0,0,0,1.2-.37,4.82,4.82,0,0,0,.6-.31Z"/><path class="cls-5" d="M38.25,53.66,44.64,60l1.53,1.51,3.27,3.23c.64-.65,1.27-1.31,1.91-2L33.3,45.39c-.09.16-.17.33-.25.48-.5,1.1-.6,2-.08,2.54l.47.47Z"/><path class="cls-2" d="M22.87,24.79a5.65,5.65,0,0,0,.6-.31,5.2,5.2,0,0,0,.49-.33,2.64,2.64,0,0,0,.44-.41,2.65,2.65,0,0,0-.6,0l-.28.06-.3.08a5.33,5.33,0,0,0-.63.23l-.31.14-.28.16a3.46,3.46,0,0,0-.49.34,2.64,2.64,0,0,0-.44.41,2.67,2.67,0,0,0,.6,0A4.94,4.94,0,0,0,22.87,24.79Z"/><path class="cls-2" d="M21.4,22.41a5.2,5.2,0,0,0,.49-.33,2.64,2.64,0,0,0,.44-.41,2.65,2.65,0,0,0-.6,0,3.72,3.72,0,0,0-.58.14,4,4,0,0,0-.63.23,5,5,0,0,0-.86.47,2.11,2.11,0,0,0-.22.17,2.64,2.64,0,0,0-.44.41,2.67,2.67,0,0,0,.6,0,4.94,4.94,0,0,0,1.2-.37A5.65,5.65,0,0,0,21.4,22.41Z"/><path class="cls-2" d="M34.15,34.13l-.28.06-.3.08a6.06,6.06,0,0,0-.63.23,6.12,6.12,0,0,0-.85.47l-.23.17-.19.16a2.35,2.35,0,0,0-.25.25,2.67,2.67,0,0,0,.6,0l.28-.06a4.12,4.12,0,0,0,.61-.18l.32-.13a5.49,5.49,0,0,0,.59-.31,3.21,3.21,0,0,0,.49-.33,2.64,2.64,0,0,0,.44-.41A2.67,2.67,0,0,0,34.15,34.13Z"/><path class="cls-2" d="M31.75,32.76,32,32.6l.23-.17a2.64,2.64,0,0,0,.44-.41,2.65,2.65,0,0,0-.6,0,5.36,5.36,0,0,0-.58.14,6.06,6.06,0,0,0-.63.23,5,5,0,0,0-1.08.64,2.64,2.64,0,0,0-.44.41,2.67,2.67,0,0,0,.6,0,4.59,4.59,0,0,0,.89-.24l.32-.13A5.49,5.49,0,0,0,31.75,32.76Z"/><path class="cls-2" d="M29.68,30.69a3.21,3.21,0,0,0,.49-.33,2.75,2.75,0,0,0,.41-.38l0,0a2.65,2.65,0,0,0-.6,0l-.28.06-.3.08a6.06,6.06,0,0,0-.63.23,5,5,0,0,0-1.08.64,2.64,2.64,0,0,0-.44.41,2.67,2.67,0,0,0,.6,0l.28-.06a4.12,4.12,0,0,0,.61-.18l.32-.13A5.49,5.49,0,0,0,29.68,30.69Z"/><path class="cls-2" d="M34.09,37.58a5.14,5.14,0,0,0,1.21-.37,4.14,4.14,0,0,0,.59-.31,3.21,3.21,0,0,0,.49-.33,2.64,2.64,0,0,0,.44-.41,2.67,2.67,0,0,0-.6,0c-.17,0-.37.08-.58.14a6.06,6.06,0,0,0-.63.23,5,5,0,0,0-1.08.64,2.64,2.64,0,0,0-.44.41A2.67,2.67,0,0,0,34.09,37.58Z"/><path class="cls-2" d="M20.26,19.6a2.65,2.65,0,0,0-.6,0l-.28.05c-.1,0-.2,0-.3.09a4,4,0,0,0-.63.23,4.74,4.74,0,0,0-1.08.64,2.64,2.64,0,0,0-.44.41,2.67,2.67,0,0,0,.6,0,5.42,5.42,0,0,0,1.2-.37,5.65,5.65,0,0,0,.6-.31,5.2,5.2,0,0,0,.49-.33A3.25,3.25,0,0,0,20.26,19.6Z"/><path class="cls-2" d="M27.61,28.62a4.16,4.16,0,0,0,.49-.33,2.47,2.47,0,0,0,.32-.29,1.06,1.06,0,0,0,.12-.12,2.65,2.65,0,0,0-.6,0,3.72,3.72,0,0,0-.58.14,5.33,5.33,0,0,0-.63.23l-.3.14-.56.33-.22.17a2.64,2.64,0,0,0-.44.41,2.67,2.67,0,0,0,.6,0l.28-.06.3-.08a6.06,6.06,0,0,0,.63-.23A5.49,5.49,0,0,0,27.61,28.62Z"/><path class="cls-5" d="M45.58,36.13l-.1-.1L45.42,36c-.73-.7-2.11-.3-3.74.74.21.23.5.53.85.92l.66.71.8.82c.56.59,1.2,1.25,1.91,2,1.42,1.43,3.1,3.06,4.93,4.8s3.79,3.56,5.77,5.39l3.08,2.85q.93-1,1.86-1.92c-4.42-4.46-8.13-8.22-10.87-11L46.2,36.75l-.32-.32A4.18,4.18,0,0,1,45.58,36.13Z"/><path class="cls-5" d="M39.06,39.23l.88.92.62.64,3.52,3.68,12.43,13,1-1c-.67-.72-1.27-1.4-1.83-2l-.53-.6-.5-.56-.85-1-.68-.81-.92-1.11.7.72,1,1.07.91.95,1.09,1.1c.59.59,1.23,1.23,1.93,1.91l1.4-1.45-3.16-2.73-3-2.63-2.93-2.56-2.71-2.43Q46.13,43.08,45,42c-.75-.68-1.41-1.33-2-1.9s-1.11-1.07-1.52-1.5l-1-1.05L40,38A13.72,13.72,0,0,1,39.06,39.23Z"/><path class="cls-5" d="M52.65,61.41c-.55-.58-1.09-1.16-1.61-1.73-1.76-2-3.37-3.83-4.71-5.46-.67-.82-1.27-1.58-1.8-2.25l-.38-.49-1-1.27-1-1.32L42,48.66l1.3,1.43,1.07,1.19.41.46.92,1,1,1.11c1.41,1.56,3.1,3.35,4.92,5.24l1.61,1.67,1.54-1.59L43,47.84l-2.74-2.62L36.59,41.7a14.81,14.81,0,0,1-1.41,1q-.6.72-1.08,1.41L51.61,62.48Z"/><path class="cls-2" d="M86.44,39.12a10,10,0,0,0,.92,1.05,9.88,9.88,0,0,0,1,.92,8.82,8.82,0,0,0,1,.67,5.76,5.76,0,0,0,.92.42l.18,0s-.36-.32-.86-.79-1.17-1.12-1.81-1.76L87,38.85l.24-.34.27-.39c.35-.53.65-1.07.65-1.07l-.1,0-.26.12-.17.07-.6.25c-.38.15-.76.27-1,.34h0l-.33-.36L85.3,37l.06.18a5,5,0,0,0,.41.91A7.39,7.39,0,0,0,86.44,39.12Z"/><path class="cls-2" d="M15.19,16.2l.26-.16.23-.17a2.93,2.93,0,0,0,.44-.42,3.14,3.14,0,0,0-.6.05,3.47,3.47,0,0,0-.58.14,4,4,0,0,0-.63.23L14,16l-.29.16a5.19,5.19,0,0,0-.49.34c-.13.1-.24.21-.32.28l-.11.13a2.67,2.67,0,0,0,.6,0,5.42,5.42,0,0,0,1.2-.37A5.65,5.65,0,0,0,15.19,16.2Z"/><path class="cls-2" d="M11.89,14.67a5.33,5.33,0,0,0,.63-.23,5.65,5.65,0,0,0,.6-.31,5.2,5.2,0,0,0,.49-.33,2.93,2.93,0,0,0,.44-.42,3.14,3.14,0,0,0-.6,0,3.47,3.47,0,0,0-.58.14,4,4,0,0,0-.63.23,5.06,5.06,0,0,0-1.09.64,3.26,3.26,0,0,0-.44.41,2.75,2.75,0,0,0,.61,0A5.22,5.22,0,0,0,11.89,14.67Z"/><path class="cls-2" d="M17.75,17.94a2.93,2.93,0,0,0,.44-.42,3.14,3.14,0,0,0-.6.05,3.47,3.47,0,0,0-.58.14,4,4,0,0,0-.63.23l-.31.14a5,5,0,0,0-.78.5,2.8,2.8,0,0,0-.43.41,2.67,2.67,0,0,0,.6,0,5.42,5.42,0,0,0,1.2-.37,5.65,5.65,0,0,0,.6-.31A5.2,5.2,0,0,0,17.75,17.94Z"/><path class="cls-2" d="M38.8,37.87h0l-.19-.06-.49-.17-.28-.11c-.43-.16-.85-.35-1-.44l-.09,0s.17.3.4.68l.25.39c.17.27.36.53.51.73l-.83.83-.48.48c-.32.31-.63.62-.92.89l-.4.39-.86.79A3.61,3.61,0,0,0,35,42a4.41,4.41,0,0,0,.43-.22,7.39,7.39,0,0,0,1-.67,11.06,11.06,0,0,0,1.06-.92,9.91,9.91,0,0,0,.91-1.05,7.39,7.39,0,0,0,.67-1A4.43,4.43,0,0,0,39.59,37l-.47.5Z"/><path class="cls-2" d="M11.05,12.06a5.2,5.2,0,0,0,.49-.33l.18-.16a1.71,1.71,0,0,0,.26-.26,3.14,3.14,0,0,0-.6,0,3.47,3.47,0,0,0-.58.14,4,4,0,0,0-.63.23,5.06,5.06,0,0,0-1.09.64l-.18.15a2.51,2.51,0,0,0-.26.26,2.75,2.75,0,0,0,.61,0l.27-.06.3-.08a5.33,5.33,0,0,0,.63-.23A5.65,5.65,0,0,0,11.05,12.06Z"/><path class="cls-2" d="M109.6,18.58a5,5,0,0,0-.78-.5l-.31-.14a4,4,0,0,0-.63-.23,3.62,3.62,0,0,0-.57-.14,3.26,3.26,0,0,0-.61-.05,3.7,3.7,0,0,0,.44.42,4.34,4.34,0,0,0,.5.33,4.68,4.68,0,0,0,.59.31,5.66,5.66,0,0,0,1.21.37,2.65,2.65,0,0,0,.6,0A2.64,2.64,0,0,0,109.6,18.58Z"/><path class="cls-2" d="M94.28,30l0,0a.75.75,0,0,0,.09.09,2.47,2.47,0,0,0,.32.29,3.8,3.8,0,0,0,.49.33,5.65,5.65,0,0,0,.6.31l.31.13a3.9,3.9,0,0,0,.62.18c.09,0,.19,0,.27.06a2.75,2.75,0,0,0,.61,0,2.64,2.64,0,0,0-.44-.41,5.06,5.06,0,0,0-1.09-.64,5.33,5.33,0,0,0-.63-.23,4.85,4.85,0,0,0-.58-.14A2.65,2.65,0,0,0,94.28,30Z"/><path class="cls-2" d="M92.65,32.43a3.8,3.8,0,0,0,.49.33,5.65,5.65,0,0,0,.6.31,5.07,5.07,0,0,0,1.2.37,2.75,2.75,0,0,0,.61,0,3.26,3.26,0,0,0-.44-.41A5.06,5.06,0,0,0,94,32.43a5.33,5.33,0,0,0-.63-.23,4.85,4.85,0,0,0-.58-.14,2.65,2.65,0,0,0-.6,0A2.64,2.64,0,0,0,92.65,32.43Z"/><path class="cls-2" d="M90.58,34.5a3.8,3.8,0,0,0,.49.33,5.65,5.65,0,0,0,.6.31l.31.13a3.9,3.9,0,0,0,.62.18l.27.06a2.75,2.75,0,0,0,.61,0,3.5,3.5,0,0,0-.26-.25,1.45,1.45,0,0,0-.18-.16A5.06,5.06,0,0,0,92,34.5a5.33,5.33,0,0,0-.63-.23,4.85,4.85,0,0,0-.58-.14,2.65,2.65,0,0,0-.6,0A2.64,2.64,0,0,0,90.58,34.5Z"/><path class="cls-2" d="M96.79,28.29l.23.17.26.16a5.65,5.65,0,0,0,.6.31,5.33,5.33,0,0,0,.63.23l.3.08.27.06a2.75,2.75,0,0,0,.61,0,2.64,2.64,0,0,0-.44-.41,5.88,5.88,0,0,0-.78-.5l-.31-.14a5.33,5.33,0,0,0-.63-.23l-.3-.08c-.09,0-.19,0-.27-.06a2.75,2.75,0,0,0-.61,0l.12.12A2.47,2.47,0,0,0,96.79,28.29Z"/><path class="cls-2" d="M101.5,27l-.18-.15-.23-.17-.55-.33-.31-.14A5.33,5.33,0,0,0,99.6,26a3.62,3.62,0,0,0-.57-.14,2.75,2.75,0,0,0-.61,0,2.64,2.64,0,0,0,.44.41,5.2,5.2,0,0,0,.49.33,5.65,5.65,0,0,0,.6.31,5.07,5.07,0,0,0,1.2.37,2.75,2.75,0,0,0,.61,0A2.51,2.51,0,0,0,101.5,27Z"/><path class="cls-2" d="M105.07,20a5.2,5.2,0,0,0,.49.33,5.4,5.4,0,0,0,1.81.68,2.65,2.65,0,0,0,.6,0,2.64,2.64,0,0,0-.44-.41,5.19,5.19,0,0,0-.49-.34l-.29-.16-.31-.14a4,4,0,0,0-.63-.23c-.1,0-.2-.06-.3-.09l-.27-.05a2.75,2.75,0,0,0-.61,0A4.24,4.24,0,0,0,105.07,20Z"/><path class="cls-2" d="M103.39,24.79a5.06,5.06,0,0,0-1.09-.64,5.33,5.33,0,0,0-.63-.23,3.62,3.62,0,0,0-.57-.14,2.75,2.75,0,0,0-.61,0,2.64,2.64,0,0,0,.44.41,5.2,5.2,0,0,0,.49.33,5.65,5.65,0,0,0,.6.31,5.07,5.07,0,0,0,1.2.37,2.75,2.75,0,0,0,.61,0A2.64,2.64,0,0,0,103.39,24.79Z"/><path class="cls-2" d="M103,22.08a5.2,5.2,0,0,0,.49.33,5.65,5.65,0,0,0,.6.31,5.14,5.14,0,0,0,1.21.37,2.65,2.65,0,0,0,.6,0,2.64,2.64,0,0,0-.44-.41l-.23-.17a4.67,4.67,0,0,0-.86-.47,4,4,0,0,0-.63-.23,3.62,3.62,0,0,0-.57-.14,2.75,2.75,0,0,0-.61,0A3.26,3.26,0,0,0,103,22.08Z"/><path class="cls-2" d="M88.67,36.2a2.65,2.65,0,0,0-.6,0,2.64,2.64,0,0,0,.44.41l.23.17.26.16a4.25,4.25,0,0,0,.6.31l.31.13a3.9,3.9,0,0,0,.62.18l.27.06a2.67,2.67,0,0,0,.6,0l-.11-.12L91,37.21a5.06,5.06,0,0,0-1.09-.64,5.33,5.33,0,0,0-.63-.23A4.85,4.85,0,0,0,88.67,36.2Z"/><path class="cls-5" d="M100.47,92.1l-.2-.25-.1-.13-.09-.09-.36-.36-.7-.73L97.61,89.1l-2.8-2.87L83.89,75l-3.7-3.79-3.61-3.69L74,70c2.72,2.2,5.43,4.42,7.84,6.66l.93.87c.3.29.6.59.88.88.59.58,1.16,1.15,1.69,1.73l.78.85c.52.56,1,1.11,1.48,1.64q.34.41.69.78c.67.78,1.3,1.5,1.88,2.15,1,1.1,1.84,2,2.55,2.71.56.56,1,1,1.32,1.28l.48.44-.51-.4c-.34-.26-.82-.66-1.42-1.18L92.08,88q-.49-.45-1-1c-.94-.89-2-2-3.2-3.21-.93-1-1.94-2.06-3-3.16-.55-.55-1.13-1.1-1.72-1.65s-1.21-1.12-1.85-1.68C80,76.21,78.69,75.11,77.35,74l-2-1.65-2.07-1.65-2.09,2L83.92,86l.92,1c2.11,2.2,3.87,4,5.13,5.4.72.78,1.28,1.39,1.66,1.82l.43.48.15.16-.16-.15-.48-.43-.78-.7-1-1c-1.55-1.44-3.74-3.54-6.36-6L70,73.75l-1.62,1.54.26.24c.78.71,1.5,1.36,2.14,1.92L72.1,78.6l.37.32,1.07,1,.38.34L73.68,80l-1.33-1L72,78.78l-.89-.67-.49-.38c-.68-.52-1.45-1.11-2.27-1.77L68,75.69l-1.51,1.44,1.91,1.43.74.56c1.11.84,2.34,1.81,3.64,2.86,2.18,1.75,4.54,3.75,6.85,5.82,3.69,3.3,7.23,6.79,9.79,9.49.33.33.63.66.92,1,.88.93,1.6,1.72,2.15,2.33l.3.33a4,4,0,0,1-.29.29,10.41,10.41,0,0,1-.78.71l-.32-.38c-.17-.21-.36-.44-.57-.68l-.68-.8-1.66-1.9c-2.14-2.43-5-5.49-8-8.51L79.1,88.35l-1.34-1.28c-.89-.84-1.79-1.67-2.67-2.47S73.34,83,72.5,82.29c-1.26-1.09-2.46-2.1-3.53-3s-1.85-1.51-2.58-2.09l-2.17,2.05,1.9,1.87L72,86.89,83.23,97.81l2.88,2.8,1.44,1.4.72.71.36.35.1.09c.07.07.07.06.07.07h0l.05,0,.2.16a1.9,1.9,0,0,0,1.35.28,3.12,3.12,0,0,0,1.1-.46A5.09,5.09,0,0,0,92,103c.29-.22.56-.45.81-.68l.38-.35c1-1,1.93-1.93,2.89-2.88.47-.48,1-1,1.44-1.43s1-1,1.43-1.45a11,11,0,0,0,1.35-1.64c.09-.17.19-.33.27-.51s.08-.19.11-.28a1.65,1.65,0,0,0,.07-.32A1.88,1.88,0,0,0,100.47,92.1ZM90,90.07c-1.14-1.24-2.24-2.52-3.21-3.69l-.56-.69c-.74-.9-1.37-1.71-1.88-2.36l-.65-.84-.55-.75.61.7q.44.51,1.14,1.29c.61.68,1.36,1.49,2.2,2.37l1.31,1.36,1.41,1.39.72.69c1.23,1.19,2.49,2.33,3.65,3.33,1.48,1.28,2.78,2.35,3.59,3-.33.34-.66.68-1,1C95.41,95.58,92.62,92.93,90,90.07Z"/><path class="cls-2" d="M115.81,12.37a5.19,5.19,0,0,0-.49-.34l-.29-.16-.31-.14a3.66,3.66,0,0,0-.63-.23,3.62,3.62,0,0,0-.57-.14,3.18,3.18,0,0,0-.6,0,1.92,1.92,0,0,0,.25.26l.19.16a3.46,3.46,0,0,0,.49.33,4.68,4.68,0,0,0,.59.31,5.6,5.6,0,0,0,1.21.37,2.65,2.65,0,0,0,.6,0A2.64,2.64,0,0,0,115.81,12.37Z"/><path class="cls-5" d="M91.45,48.88l.47-.47a1.67,1.67,0,0,0,.25-1.65,6.55,6.55,0,0,0-.33-.89c-.07-.15-.15-.32-.24-.48l-24,23.1L90.79,44.11q-.48-.69-1.08-1.41a14.81,14.81,0,0,1-1.41-1L74.38,55l-1.06,1L61.91,67l-1.18,1.13-2.62,2.51L41.5,86.56c-2.62,2.51-4.8,4.61-6.36,6-.77.72-1.39,1.28-1.81,1.66l-.65.58.58-.64c.38-.43,1-1,1.67-1.82,1.26-1.36,3-3.2,5.12-5.4L41,86l7.41-7.74,7.25-7.56c.42-.44.84-.87,1.25-1.31l2.51-2.61c2.65-2.76,5.29-5.53,7.84-8.18l1.08-1.13L83.05,42.13l2.78-2.9A13.72,13.72,0,0,1,84.92,38l-.48-.38-1,1.05-.33.34-1.19,1.16c-.59.57-1.26,1.22-2,1.9s-1.54,1.44-2.4,2.22-1.76,1.59-2.71,2.43L73.32,48l-3,2.6L68.8,51.87c-4.08,3.51-8.14,7-11.08,9.78l-1,1-.94.91-.81.8-.36.37-.33.33L53,66.4l.5-.56.21-.24.52-.59c.79-.87,1.94-2.09,3.36-3.53C60.4,58.62,64.35,55,68.3,51.31c2-1.83,3.94-3.66,5.76-5.39s3.51-3.37,4.93-4.8c.71-.71,1.35-1.37,1.92-2l.79-.82.66-.71.85-.92c-1.63-1-3-1.44-3.73-.74l-.46.46-.73.73-4.07,4.08-7.8,7.9-.93.94L60.43,55.2C54.74,61,48.08,67.74,41,75L30.08,86.23l-2.8,2.87-1.41,1.44-.7.73-.35.36-.09.09-.11.13c-.06.08-.13.16-.19.25a1.89,1.89,0,0,0-.26,1.31,3.09,3.09,0,0,0,.46,1.11A11,11,0,0,0,26,96.16c1,1,1.92,1.92,2.88,2.88s1.88,1.93,2.88,2.88a11,11,0,0,0,1.64,1.34,3.09,3.09,0,0,0,1.11.46,1.87,1.87,0,0,0,1.34-.28l.21-.16,0,0,.09-.08.09-.09.36-.35.72-.71c.49-.46,1-.93,1.45-1.4l2.87-2.8L52.87,86.89c5.46-5.31,10.61-10.39,15.3-15l4.52-4.44,1.07-1.06c5.3-5.24,9.73-9.61,12.88-12.74ZM51.25,69.76c.71-.56,1.42-1.12,2.12-1.69s1.41-1.13,2.1-1.69c1.38-1.13,2.72-2.26,4-3.38l1.89-1.64,1.78-1.6c1.14-1,2.21-2.07,3.18-3s1.87-1.81,2.65-2.6L70.06,53l.91-.95,1.48-1.52.26-.27-.1.13-.31.37-.51.61-.67.81-.86,1c-.32.35-.66.74-1,1.16l-.57.64c-.59.65-1.23,1.37-1.94,2.11-1.88,2-4.15,4.21-6.67,6.52s-5.35,4.6-8.17,6.89c-2.14,1.68-4.27,3.37-6.26,5.07-.67.57-1.32,1.13-1.95,1.7S42.42,78.43,41.83,79c-.3.27-.6.55-.88.83l-.85.82c-1.09,1.1-2.1,2.18-3,3.16s-1.82,1.88-2.62,2.65-1.49,1.44-2.09,2-1.09.92-1.42,1.18l-.52.4.12-.11.16-.14.2-.19c.32-.29.77-.72,1.32-1.28.15-.14.29-.29.45-.45.61-.62,1.32-1.38,2.1-2.26l.6-.67c.41-.47.84-1,1.28-1.48.68-.76,1.4-1.58,2.17-2.42l.79-.85c.53-.58,1.09-1.15,1.68-1.73s1.18-1.17,1.81-1.75c1.25-1.17,2.59-2.32,4-3.47.69-.58,1.38-1.16,2.09-1.73ZM28.08,96.88l-1-1c.45-.36,1.05-.84,1.75-1.43.14-.11.29-.23.43-.36.45-.37.92-.77,1.42-1.2,1.15-1,2.41-2.14,3.64-3.33,1.71-1.61,3.34-3.3,4.63-4.7,1.66-1.79,2.76-3.1,2.76-3.1l-.55.75-.65.84c-.5.65-1.14,1.46-1.87,2.36-.19.22-.37.45-.57.69-1,1.17-2.07,2.45-3.21,3.69C32.27,92.93,29.48,95.58,28.08,96.88Zm5.43,4.65-.32.38c-.26-.22-.52-.46-.78-.71l-.29-.29c.1-.1.19-.21.3-.33l.61-.67,1.54-1.66.92-1c.64-.68,1.34-1.4,2.09-2.16,1.5-1.52,3.19-3.17,5-4.84.89-.83,1.8-1.67,2.72-2.49s1.86-1.65,2.78-2.44,1.85-1.56,2.75-2.3,1.77-1.44,2.6-2.1,1.63-1.28,2.37-1.84l.54-.41c1.24-.94,2.29-1.71,3-2.27l1-.73.16-.11.2-.15-1.34,1c-.64.5-1.48,1.17-2.46,2l-1,.84c-2.5,2.06-5.66,4.82-8.79,7.77L45.8,88.35c-3.55,3.43-6.93,7-9.37,9.8-.62.69-1.17,1.33-1.66,1.9-.25.28-.47.55-.68.8S33.68,101.32,33.51,101.53ZM82.68,48.87l.11-.12.08-.09-.17.23-.29.4-.69.92-.29.39-.68.88c-.13.15-.26.32-.39.49l-1.79,2.25c-1.35,1.63-3,3.49-4.71,5.46s-3.74,4-5.72,6-4.08,3.88-6,5.65c-1.5,1.3-2.93,2.52-4.24,3.61l-1.28,1c-.82.66-1.59,1.25-2.27,1.77s-1.27,1-1.77,1.34l-1.15.84-.18.13-.23.17s.29-.27.83-.74l.61-.55c.47-.4,1-.9,1.67-1.47s1.36-1.21,2.13-1.92c1.58-1.39,3.38-3.06,5.29-4.86L63,69.3l1.48-1.42c1-1,2-1.94,3-2.93,2-2,4-4,5.78-5.86s3.51-3.68,4.92-5.24l2-2.11c.14-.16.28-.32.42-.46l1.06-1.19.55-.61C82.37,49.22,82.55,49,82.68,48.87Z"/><path class="cls-2" d="M109.21,15.87l.23.17.27.16a4.68,4.68,0,0,0,.59.31,5.66,5.66,0,0,0,1.21.37,2.65,2.65,0,0,0,.6,0,2.64,2.64,0,0,0-.44-.41,5.19,5.19,0,0,0-.49-.34l-.29-.16-.31-.14a3.66,3.66,0,0,0-.63-.23,3.62,3.62,0,0,0-.57-.14,3.18,3.18,0,0,0-.6-.05A3.14,3.14,0,0,0,109.21,15.87Z"/><path class="cls-2" d="M110.85,13.38a2.93,2.93,0,0,0,.44.42,3.46,3.46,0,0,0,.49.33,4.68,4.68,0,0,0,.59.31,5.66,5.66,0,0,0,1.21.37,2.65,2.65,0,0,0,.6,0l-.12-.13a2.53,2.53,0,0,0-.32-.28,5,5,0,0,0-.78-.5l-.31-.14a3.66,3.66,0,0,0-.63-.23,3.62,3.62,0,0,0-.57-.14A3.18,3.18,0,0,0,110.85,13.38Z"/><path class="cls-4" d="M96.81,96.88c.35-.34.68-.68,1-1-.81-.64-2.11-1.71-3.59-3-1.16-1-2.42-2.14-3.65-3.33l-.72-.69-1.41-1.39L87.14,86.1c-.84-.88-1.59-1.69-2.2-2.37q-.7-.78-1.14-1.29l-.61-.7.55.75.65.84c.51.65,1.14,1.46,1.88,2.36l.56.69c1,1.17,2.07,2.45,3.21,3.69C92.62,92.93,95.41,95.58,96.81,96.88Z"/><path class="cls-4" d="M116.66,10.87a2.44,2.44,0,0,0-.29-.27l-.09-.08-.19-.15-.1-.07-.17-.11a.41.41,0,0,0-.11-.07l-.15-.08-.11,0-.15-.06-.11,0-.14,0-.11,0h-.5l-.11,0-.14,0-.11,0L114,10l-.11,0-.14.07-.1.06-.14.08-.1.07-.14.11-.09.07-.16.13a.46.46,0,0,0-.07.07l-.24.22-2.26,2.27-1.34,1.33-.75.76-3.42,3.41-.92.93-1.91,1.9-9.91,9.92-.61.6-.53.53-1,1c-.24.24-.48.46-.71.67s-.47.38-.7.55a9.55,9.55,0,0,1-1.3.8,8,8,0,0,1-1.64.62l-.44.09h0l-.56-.4-.17-.12-.42-.27-.17-.11c-.18-.11-.35-.22-.53-.31l0,0c-.19-.1-.37-.2-.55-.28l-.16-.08-.41-.17-.16-.06-.49-.16h0a4.64,4.64,0,0,0-.51-.11l-.14,0-.37,0h-.15l-.44,0h-.05a2.5,2.5,0,0,0-.45.12l-.13,0-.32.16-.12.08a2.79,2.79,0,0,0-.39.31l-.51.5-.45.46-2.54,2.6-1,1-8.77,9L62.45,51.3c-7-7.2-12.79-13.17-15-15.46l-.25-.24-.39-.4-.32-.32a2.87,2.87,0,0,0-.4-.31l-.12-.08a3.18,3.18,0,0,0-.32-.16l-.12,0a2.39,2.39,0,0,0-.46-.12h0l-.44,0h-.15l-.37,0-.15,0a5.2,5.2,0,0,0-.51.11h-.06l-.47.16-.17.06-.4.17-.16.08c-.19.08-.37.18-.56.28l0,0-.53.31-.17.11-.42.27-.16.12c-.19.13-.38.26-.56.4h0a9,9,0,0,1-4.79-2.73L12.23,10.87,12,10.65l-.08-.07-.16-.13-.09-.07-.14-.11-.1-.07-.14-.08-.1-.06L11.05,10,11,10l-.14,0-.11,0-.14,0-.11,0H10l-.11,0-.14,0-.11,0L9.45,10l-.12,0-.15.08-.11.06-.16.12-.11.07-.19.15-.09.08a3.58,3.58,0,0,0-.29.27,4.3,4.3,0,0,0-.7.87,2,2,0,0,0-.32,1.53,2.18,2.18,0,0,0,.16.47,3.75,3.75,0,0,0,.65.91l.21.22L30.89,37.53a11,11,0,0,1,1.63,2,7.77,7.77,0,0,1,.63,1.2,7.16,7.16,0,0,1,.46,1.48,16.1,16.1,0,0,0-1.08,1.5A6.54,6.54,0,0,0,31.15,48a2.66,2.66,0,0,0,.73,1.49c.13.13.56.57,1.27,1.25l.31.31.73.71L43,60.25l5.57,5.41L31.6,83.14l-.83.86L24,91a5,5,0,0,0-.33.4,2.91,2.91,0,0,0-.2.35,2.43,2.43,0,0,0-.18.4l-.06.22a2.58,2.58,0,0,0-.08.75v0a3.29,3.29,0,0,0,.42,1.49,3.65,3.65,0,0,0,.18.34,10.23,10.23,0,0,0,.77,1c.21.24.43.49.68.75s.52.54.82.84h0l1,.94,1.2,1.18.6.62.58.57h0l.94,1,.28.28.09.09.24.23a.6.6,0,0,0,.08.08l.33.31.06.06.27.24.11.09.31.25s0,0,0,0l.36.27.1.07.28.19.11.06.38.21.05,0a2.41,2.41,0,0,0,.33.15l.12,0,.32.1.08,0a2.66,2.66,0,0,0,.39.07h.49a2.76,2.76,0,0,0,.4-.06l.06,0a2.58,2.58,0,0,0,.39-.14l.07,0,.4-.23.05,0a3.71,3.71,0,0,0,.41-.33s.24-.23.62-.6l.69-.67,6.66-6.44,7-6.8,2.25-2.18,3.54-3.43,1.76-1.7c1-1,2-2,3.05-2.95l9.48,9.18,11.37,11,4.12,4,.62.6a3.12,3.12,0,0,0,.41.33l0,0a4,4,0,0,0,.39.23l.07,0a3,3,0,0,0,.39.14l.06,0,.4.06h.49a2.57,2.57,0,0,0,.4-.07l.07,0,.33-.1.11,0a2.41,2.41,0,0,0,.33-.15l.06,0,.38-.21.1-.06.29-.19.09-.07.36-.27,0,0,.32-.26.1-.09.27-.24.07-.06.32-.31.08-.08.25-.23.08-.09c.1-.09.19-.19.28-.28.3-.3.61-.62,1-1h0c.18-.18.37-.38.57-.57l.61-.62L98,98.57l.65-.64.31-.3a23.5,23.5,0,0,0,1.78-1.95,6.36,6.36,0,0,0,.67-1,3.39,3.39,0,0,0,.42-1.51,2.78,2.78,0,0,0,0-.51,2.8,2.8,0,0,0-.28-.86,3.63,3.63,0,0,0-.54-.75l-6-6.21-.8-.82L76.36,65.66c3.93-3.81,7.5-7.27,10.32-10l1.16-1.12L89.39,53l.47-.45c1.81-1.76,2.94-2.87,3.15-3.1A2.68,2.68,0,0,0,93.75,48a4.5,4.5,0,0,0-.35-2.25,14.15,14.15,0,0,0-2.11-3.47,7.66,7.66,0,0,1,.24-.94A8.51,8.51,0,0,1,92,40.18a10.49,10.49,0,0,1,2-2.65l7.31-7.31,3.79-3.79,4.7-4.69.87-.88,1.64-1.64.75-.75,1.34-1.33,2.26-2.27.22-.22a3.92,3.92,0,0,0,.37-.46c.07-.1.13-.2.19-.3a3.39,3.39,0,0,0,.18-.39,1.75,1.75,0,0,0,.1-.72,2.18,2.18,0,0,0-.35-1A4.38,4.38,0,0,0,116.66,10.87Zm-11.42,8.77.27.05c.1,0,.2,0,.3.09a4,4,0,0,1,.63.23l.31.14.29.16a5.19,5.19,0,0,1,.49.34,2.64,2.64,0,0,1,.44.41,2.65,2.65,0,0,1-.6,0,5.4,5.4,0,0,1-1.81-.68,5.2,5.2,0,0,1-.49-.33,4.24,4.24,0,0,1-.44-.41A2.75,2.75,0,0,1,105.24,19.64Zm4.14-4.14a3.62,3.62,0,0,1,.57.14,3.66,3.66,0,0,1,.63.23l.31.14.29.16a5.19,5.19,0,0,1,.49.34,2.64,2.64,0,0,1,.44.41,2.65,2.65,0,0,1-.6,0,5.66,5.66,0,0,1-1.21-.37,4.68,4.68,0,0,1-.59-.31l-.27-.16-.23-.17a3.14,3.14,0,0,1-.43-.42A3.18,3.18,0,0,1,109.38,15.5Zm6.27-2.76a5.6,5.6,0,0,1-1.21-.37,4.68,4.68,0,0,1-.59-.31,3.46,3.46,0,0,1-.49-.33l-.19-.16a1.92,1.92,0,0,1-.25-.26,3.18,3.18,0,0,1,.6,0,3.62,3.62,0,0,1,.57.14,3.66,3.66,0,0,1,.63.23l.31.14.29.16a5.19,5.19,0,0,1,.49.34,2.64,2.64,0,0,1,.44.41A2.65,2.65,0,0,1,115.65,12.74ZM109.44,19a5.66,5.66,0,0,1-1.21-.37,4.68,4.68,0,0,1-.59-.31,4.34,4.34,0,0,1-.5-.33,3.7,3.7,0,0,1-.44-.42,3.26,3.26,0,0,1,.61.05,3.62,3.62,0,0,1,.57.14,4,4,0,0,1,.63.23l.31.14a5,5,0,0,1,.78.5A2.64,2.64,0,0,1,110,19,2.65,2.65,0,0,1,109.44,19Zm-6.22,6.21a5.07,5.07,0,0,1-1.2-.37,5.65,5.65,0,0,1-.6-.31,5.2,5.2,0,0,1-.49-.33,2.64,2.64,0,0,1-.44-.41,2.75,2.75,0,0,1,.61,0,3.62,3.62,0,0,1,.57.14,5.33,5.33,0,0,1,.63.23,5.06,5.06,0,0,1,1.09.64,2.64,2.64,0,0,1,.44.41A2.75,2.75,0,0,1,103.22,25.16Zm-2.07,2.07a5.07,5.07,0,0,1-1.2-.37,5.65,5.65,0,0,1-.6-.31,5.2,5.2,0,0,1-.49-.33,2.64,2.64,0,0,1-.44-.41,2.75,2.75,0,0,1,.61,0,3.62,3.62,0,0,1,.57.14,5.33,5.33,0,0,1,.63.23l.31.14.55.33.23.17.18.15a2.51,2.51,0,0,1,.26.26A2.75,2.75,0,0,1,101.15,27.23ZM100.54,94c-.08.18-.18.34-.27.51a11,11,0,0,1-1.35,1.64c-.47.5-1,1-1.43,1.45s-1,1-1.44,1.43c-1,.95-1.89,1.93-2.89,2.88l-.38.35c-.25.23-.52.46-.81.68a5.09,5.09,0,0,1-.45.31,3.12,3.12,0,0,1-1.1.46,1.9,1.9,0,0,1-1.35-.28l-.2-.16-.05,0h0s0,0-.07-.07l-.1-.09-.36-.35-.72-.71-1.44-1.4-2.88-2.8L72,86.89l-5.9-5.76-1.9-1.87,2.17-2.05c.73.58,1.6,1.28,2.58,2.09s2.27,1.9,3.53,3c.84.74,1.71,1.51,2.59,2.31s1.78,1.63,2.67,2.47l1.34,1.28,1.32,1.29c3.06,3,5.91,6.08,8,8.51l1.66,1.9.68.8c.21.24.4.47.57.68l.32.38a10.41,10.41,0,0,0,.78-.71,4,4,0,0,0,.29-.29l-.3-.33c-.55-.61-1.27-1.4-2.15-2.33-.29-.3-.59-.63-.92-1-2.56-2.7-6.1-6.19-9.79-9.49-2.31-2.07-4.67-4.07-6.85-5.82-1.3-1-2.53-2-3.64-2.86l-.74-.56-1.91-1.43L68,75.69l.33.27c.82.66,1.59,1.25,2.27,1.77l.49.38.89.67.39.29,1.33,1,.24.17-.38-.34-1.07-1-.37-.32-1.29-1.15c-.64-.56-1.36-1.21-2.14-1.92l-.26-.24L70,73.75,83.39,86.56c2.62,2.51,4.81,4.61,6.36,6l1,1,.78.7.48.43.16.15-.15-.16-.43-.48c-.38-.43-.94-1-1.66-1.82-1.26-1.36-3-3.2-5.13-5.4l-.92-1L71.14,72.7l2.09-2,2.07,1.65,2,1.65c1.34,1.1,2.64,2.2,3.87,3.31.64.56,1.26,1.11,1.85,1.68s1.17,1.1,1.72,1.65c1.1,1.1,2.11,2.18,3,3.16C89,85,90.09,86.13,91,87q.56.54,1,1l.47.42c.6.52,1.08.92,1.42,1.18l.51.4L94,89.57c-.31-.29-.76-.72-1.32-1.28-.71-.7-1.57-1.61-2.55-2.71-.58-.65-1.21-1.37-1.88-2.15q-.34-.37-.69-.78c-.47-.53-1-1.08-1.48-1.64l-.78-.85c-.53-.58-1.1-1.15-1.69-1.73-.28-.29-.58-.59-.88-.88l-.93-.87C79.39,74.44,76.68,72.22,74,70l2.62-2.49,3.61,3.69L83.89,75,94.81,86.23l2.8,2.87L99,90.54l.7.73.36.36.09.09.1.13.2.25a1.88,1.88,0,0,1,.25,1.31,1.65,1.65,0,0,1-.07.32C100.62,93.82,100.58,93.92,100.54,94ZM73.76,66.4l-1.07,1.06L68.17,71.9c-4.69,4.6-9.84,9.68-15.3,15L41.66,97.81l-2.87,2.8c-.48.47-1,.94-1.45,1.4l-.72.71-.36.35-.09.09-.09.08,0,0-.21.16a1.87,1.87,0,0,1-1.34.28,3.09,3.09,0,0,1-1.11-.46,11,11,0,0,1-1.64-1.34c-1-1-1.92-1.93-2.88-2.88S26.92,97.16,26,96.16a11,11,0,0,1-1.34-1.64,3.09,3.09,0,0,1-.46-1.11,1.89,1.89,0,0,1,.26-1.31c.06-.09.13-.17.19-.25l.11-.13.09-.09.35-.36.7-.73,1.41-1.44,2.8-2.87L41,75c7.08-7.27,13.74-14,19.43-19.81l5.06-5.12.93-.94,7.8-7.9,4.07-4.08.73-.73.46-.46c.73-.7,2.1-.3,3.73.74l-.85.92-.66.71-.79.82c-.57.59-1.21,1.25-1.92,2-1.42,1.43-3.1,3.06-4.93,4.8s-3.79,3.56-5.76,5.39c-4,3.65-7.9,7.31-10.75,10.17C56.13,62.92,55,64.14,54.19,65l-.52.59-.21.24-.5.56,1.27-1.34.33-.33.36-.37.81-.8.94-.91,1-1c2.94-2.75,7-6.27,11.08-9.78l1.53-1.32,3-2.6,1.44-1.27c.95-.84,1.86-1.65,2.71-2.43s1.67-1.52,2.4-2.22,1.42-1.33,2-1.9L83.07,39l.33-.34,1-1.05.48.38a13.72,13.72,0,0,0,.91,1.27l-2.78,2.9L68.32,57.5l-1.08,1.13c-2.55,2.65-5.19,5.42-7.84,8.18l-2.51,2.61c-.41.44-.83.87-1.25,1.31l-7.25,7.56L41,86l-.93,1c-2.1,2.2-3.86,4-5.12,5.4-.72.78-1.29,1.39-1.67,1.82l-.58.64.65-.58c.42-.38,1-.94,1.81-1.66,1.56-1.44,3.74-3.54,6.36-6L58.11,70.64l2.62-2.51L61.91,67,73.32,56.06l1.06-1L88.3,41.7a14.81,14.81,0,0,0,1.41,1q.6.72,1.08,1.41L67.56,68.49l24-23.1c.09.16.17.33.24.48a6.55,6.55,0,0,1,.33.89,1.67,1.67,0,0,1-.25,1.65l-.47.47-4.81,4.78C83.49,56.79,79.06,61.16,73.76,66.4ZM33.44,48.88,33,48.41c-.52-.54-.42-1.44.08-2.54.08-.15.16-.32.25-.48L51.35,62.75c-.64.66-1.27,1.32-1.91,2l-3.27-3.23L44.64,60l-6.39-6.32ZM30,33.44a2.67,2.67,0,0,1-.6,0,2.64,2.64,0,0,1,.44-.41,5,5,0,0,1,1.08-.64,6.06,6.06,0,0,1,.63-.23,5.36,5.36,0,0,1,.58-.14,2.65,2.65,0,0,1,.6,0,2.64,2.64,0,0,1-.44.41L32,32.6l-.26.16a5.49,5.49,0,0,1-.59.31l-.32.13A4.59,4.59,0,0,1,30,33.44Zm-1.79-2.13-.28.06a2.67,2.67,0,0,1-.6,0,2.64,2.64,0,0,1,.44-.41,5,5,0,0,1,1.08-.64,6.06,6.06,0,0,1,.63-.23l.3-.08L30,30a2.65,2.65,0,0,1,.6,0l0,0a2.75,2.75,0,0,1-.41.38,3.21,3.21,0,0,1-.49.33,5.49,5.49,0,0,1-.59.31l-.32.13A4.12,4.12,0,0,1,28.16,31.31Zm-1.77-2.15-.3.08-.28.06a2.67,2.67,0,0,1-.6,0,2.64,2.64,0,0,1,.44-.41l.22-.17.56-.33.3-.14a5.33,5.33,0,0,1,.63-.23,3.72,3.72,0,0,1,.58-.14,2.65,2.65,0,0,1,.6,0,1.06,1.06,0,0,1-.12.12,2.47,2.47,0,0,1-.32.29,4.16,4.16,0,0,1-.49.33,5.49,5.49,0,0,1-.59.31A6.06,6.06,0,0,1,26.39,29.16Zm-2.65-1.93a2.67,2.67,0,0,1-.6,0,3,3,0,0,1,.25-.26,1.57,1.57,0,0,1,.19-.15l.22-.17.55-.33.31-.14a5.33,5.33,0,0,1,.63-.23l.3-.08.28-.06a2.65,2.65,0,0,1,.6,0,2.64,2.64,0,0,1-.44.41l-.23.17-.26.16a4.82,4.82,0,0,1-.6.31A4.94,4.94,0,0,1,23.74,27.23Zm-2.07-2.07a2.67,2.67,0,0,1-.6,0,2.64,2.64,0,0,1,.44-.41,3.46,3.46,0,0,1,.49-.34l.28-.16.31-.14a5.33,5.33,0,0,1,.63-.23l.3-.08.28-.06a2.65,2.65,0,0,1,.6,0,2.64,2.64,0,0,1-.44.41,5.2,5.2,0,0,1-.49.33,5.65,5.65,0,0,1-.6.31A4.94,4.94,0,0,1,21.67,25.16ZM19.6,23.09a2.67,2.67,0,0,1-.6,0,2.64,2.64,0,0,1,.44-.41,2.11,2.11,0,0,1,.22-.17,5,5,0,0,1,.86-.47,4,4,0,0,1,.63-.23,3.72,3.72,0,0,1,.58-.14,2.65,2.65,0,0,1,.6,0,2.64,2.64,0,0,1-.44.41,5.2,5.2,0,0,1-.49.33,5.65,5.65,0,0,1-.6.31A4.94,4.94,0,0,1,19.6,23.09Zm-.87-2.44a5.42,5.42,0,0,1-1.2.37,2.67,2.67,0,0,1-.6,0,2.64,2.64,0,0,1,.44-.41A4.74,4.74,0,0,1,18.45,20a4,4,0,0,1,.63-.23c.1,0,.2-.06.3-.09l.28-.05a2.65,2.65,0,0,1,.6,0,3.25,3.25,0,0,1-.44.41,5.2,5.2,0,0,1-.49.33A5.65,5.65,0,0,1,18.73,20.65Zm-2.07-2.07a5.42,5.42,0,0,1-1.2.37,2.67,2.67,0,0,1-.6,0,2.8,2.8,0,0,1,.43-.41,5,5,0,0,1,.78-.5l.31-.14a4,4,0,0,1,.63-.23,3.47,3.47,0,0,1,.58-.14,3.14,3.14,0,0,1,.6-.05,2.93,2.93,0,0,1-.44.42,5.2,5.2,0,0,1-.49.33A5.65,5.65,0,0,1,16.66,18.58Zm-3.27-1.7a2.67,2.67,0,0,1-.6,0l.11-.13c.08-.07.19-.18.32-.28a5.19,5.19,0,0,1,.49-.34L14,16l.31-.14a4,4,0,0,1,.63-.23,3.47,3.47,0,0,1,.58-.14,3.14,3.14,0,0,1,.6-.05,2.93,2.93,0,0,1-.44.42l-.23.17-.26.16a5.65,5.65,0,0,1-.6.31A5.42,5.42,0,0,1,13.39,16.88Zm-2.68-2a3.26,3.26,0,0,1,.44-.41,5.06,5.06,0,0,1,1.09-.64,4,4,0,0,1,.63-.23,3.47,3.47,0,0,1,.58-.14,3.14,3.14,0,0,1,.6,0,2.93,2.93,0,0,1-.44.42,5.2,5.2,0,0,1-.49.33,5.65,5.65,0,0,1-.6.31,5.33,5.33,0,0,1-.63.23,5.22,5.22,0,0,1-.57.14A2.75,2.75,0,0,1,10.71,14.85ZM9.82,12.6l-.3.08-.27.06a2.75,2.75,0,0,1-.61,0,2.51,2.51,0,0,1,.26-.26l.18-.15a5.06,5.06,0,0,1,1.09-.64,4,4,0,0,1,.63-.23,3.47,3.47,0,0,1,.58-.14,3.14,3.14,0,0,1,.6,0,1.71,1.71,0,0,1-.26.26l-.18.16a5.2,5.2,0,0,1-.49.33,5.65,5.65,0,0,1-.6.31A5.33,5.33,0,0,1,9.82,12.6ZM34.75,34.09a2.64,2.64,0,0,1-.44.41,3.21,3.21,0,0,1-.49.33,5.49,5.49,0,0,1-.59.31l-.32.13a4.12,4.12,0,0,1-.61.18l-.28.06a2.67,2.67,0,0,1-.6,0,2.35,2.35,0,0,1,.25-.25l.19-.16.23-.17a6.12,6.12,0,0,1,.85-.47,6.06,6.06,0,0,1,.63-.23l.3-.08.28-.06A2.67,2.67,0,0,1,34.75,34.09Zm15.92,7.15c2.74,2.78,6.45,6.54,10.87,11q-.93.94-1.86,1.92L56.6,51.31c-2-1.83-4-3.66-5.77-5.39s-3.51-3.37-4.93-4.8c-.71-.71-1.35-1.37-1.91-2l-.8-.82-.66-.71c-.35-.39-.64-.69-.85-.92,1.63-1,3-1.44,3.74-.74l.06.06.1.1a4.18,4.18,0,0,0,.3.3l.32.32Zm34.69-4.05L85.3,37l.47.5.33.36h0c.21-.07.59-.19,1-.34l.6-.25.17-.07.26-.12.1,0s-.3.54-.65,1.07l-.27.39-.24.34.82.83c.64.64,1.3,1.28,1.81,1.76s.86.79.86.79l-.18,0a5.76,5.76,0,0,1-.92-.42,8.82,8.82,0,0,1-1-.67,9.88,9.88,0,0,1-1-.92,10,10,0,0,1-.92-1.05,7.39,7.39,0,0,1-.67-1A5,5,0,0,1,85.36,37.19Zm5.38-3.06a4.85,4.85,0,0,1,.58.14,5.33,5.33,0,0,1,.63.23,5.06,5.06,0,0,1,1.09.64,1.45,1.45,0,0,1,.18.16,3.5,3.5,0,0,1,.26.25,2.75,2.75,0,0,1-.61,0l-.27-.06a3.9,3.9,0,0,1-.62-.18l-.31-.13a5.65,5.65,0,0,1-.6-.31,3.8,3.8,0,0,1-.49-.33,2.64,2.64,0,0,1-.44-.41A2.65,2.65,0,0,1,90.74,34.13Zm-.86,2.44a5.06,5.06,0,0,1,1.09.64l.32.29.11.12a2.67,2.67,0,0,1-.6,0l-.27-.06a3.9,3.9,0,0,1-.62-.18l-.31-.13a4.25,4.25,0,0,1-.6-.31l-.26-.16-.23-.17a2.64,2.64,0,0,1-.44-.41,2.65,2.65,0,0,1,.6,0,4.85,4.85,0,0,1,.58.14A5.33,5.33,0,0,1,89.88,36.57ZM34.1,44.11q.48-.69,1.08-1.41a14.81,14.81,0,0,0,1.41-1l3.67,3.52L43,47.84,54.82,59.17l-1.54,1.59-1.61-1.67c-1.82-1.89-3.51-3.68-4.92-5.24l-1-1.11-.92-1-.41-.46-1.07-1.19L42,48.66l.17.23,1,1.32,1,1.27.38.49c.53.67,1.13,1.43,1.8,2.25,1.34,1.63,3,3.49,4.71,5.46.52.57,1.06,1.15,1.61,1.73l-1,1.07Zm6.35-6.53,1,1.05c.41.43.92.93,1.52,1.5s1.25,1.22,2,1.9,1.54,1.44,2.4,2.22l2.71,2.43,2.93,2.56,3,2.63,3.16,2.73-1.4,1.45c-.7-.68-1.34-1.32-1.93-1.91L54.83,53l-.91-.95-1-1.07-.7-.72.92,1.11.68.81.85,1,.5.56.53.6c.56.62,1.16,1.3,1.83,2l-1,1-12.43-13-3.52-3.68-.62-.64-.88-.92A13.72,13.72,0,0,0,40,38Zm-1.33.52a7.39,7.39,0,0,1-.67,1,9.91,9.91,0,0,1-.91,1.05,11.06,11.06,0,0,1-1.06.92,7.39,7.39,0,0,1-1,.67A4.41,4.41,0,0,1,35,42a3.61,3.61,0,0,1-.66.25l.86-.79.4-.39c.29-.27.6-.58.92-.89l.48-.48.83-.83c-.15-.2-.34-.46-.51-.73l-.25-.39c-.23-.38-.4-.68-.4-.68l.09,0c.19.09.61.28,1,.44l.28.11.49.17.19.06h0l.32-.36.47-.5A4.43,4.43,0,0,1,39.12,38.1Zm-5.63-.48a2.64,2.64,0,0,1,.44-.41A5,5,0,0,1,35,36.57a6.06,6.06,0,0,1,.63-.23c.21-.06.41-.11.58-.14a2.67,2.67,0,0,1,.6,0,2.64,2.64,0,0,1-.44.41,3.21,3.21,0,0,1-.49.33,4.14,4.14,0,0,1-.59.31,5.14,5.14,0,0,1-1.21.37A2.67,2.67,0,0,1,33.49,37.62Zm59.32-5.56a4.85,4.85,0,0,1,.58.14,5.33,5.33,0,0,1,.63.23,5.06,5.06,0,0,1,1.09.64,3.26,3.26,0,0,1,.44.41,2.75,2.75,0,0,1-.61,0,5.07,5.07,0,0,1-1.2-.37,5.65,5.65,0,0,1-.6-.31,3.8,3.8,0,0,1-.49-.33,2.64,2.64,0,0,1-.44-.41A2.65,2.65,0,0,1,92.81,32.06ZM94.88,30a4.85,4.85,0,0,1,.58.14,5.33,5.33,0,0,1,.63.23,5.06,5.06,0,0,1,1.09.64,2.64,2.64,0,0,1,.44.41,2.75,2.75,0,0,1-.61,0c-.08,0-.18,0-.27-.06a3.9,3.9,0,0,1-.62-.18L95.81,31a5.65,5.65,0,0,1-.6-.31,3.8,3.8,0,0,1-.49-.33,2.47,2.47,0,0,1-.32-.29.75.75,0,0,1-.09-.09l0,0A2.65,2.65,0,0,1,94.88,30ZM97,27.92c.08,0,.18,0,.27.06l.3.08a5.33,5.33,0,0,1,.63.23l.31.14a5.88,5.88,0,0,1,.78.5,2.64,2.64,0,0,1,.44.41,2.75,2.75,0,0,1-.61,0l-.27-.06-.3-.08a5.33,5.33,0,0,1-.63-.23,5.65,5.65,0,0,1-.6-.31L97,28.46l-.23-.17a2.47,2.47,0,0,1-.32-.29l-.12-.12A2.75,2.75,0,0,1,97,27.92Zm6.21-6.21a3.62,3.62,0,0,1,.57.14,4,4,0,0,1,.63.23,4.67,4.67,0,0,1,.86.47l.23.17a2.64,2.64,0,0,1,.44.41,2.65,2.65,0,0,1-.6,0,5.14,5.14,0,0,1-1.21-.37,5.65,5.65,0,0,1-.6-.31,5.2,5.2,0,0,1-.49-.33,3.26,3.26,0,0,1-.44-.41A2.75,2.75,0,0,1,103.17,21.71Zm8.28-8.28a3.62,3.62,0,0,1,.57.14,3.66,3.66,0,0,1,.63.23l.31.14a5,5,0,0,1,.78.5,2.53,2.53,0,0,1,.32.28l.12.13a2.65,2.65,0,0,1-.6,0,5.66,5.66,0,0,1-1.21-.37,4.68,4.68,0,0,1-.59-.31,3.46,3.46,0,0,1-.49-.33,2.93,2.93,0,0,1-.44-.42A3.18,3.18,0,0,1,111.45,13.43Z"/><path class="cls-4" d="M36.43,98.15c2.44-2.78,5.82-6.37,9.37-9.8l1.33-1.28c3.13-2.95,6.29-5.71,8.79-7.77l1-.84c1-.8,1.82-1.47,2.46-2l1.34-1-.2.15-.16.11-1,.73c-.76.56-1.81,1.33-3,2.27l-.54.41c-.74.56-1.54,1.18-2.37,1.84s-1.71,1.36-2.6,2.1-1.82,1.51-2.75,2.3S46.21,87,45.28,87.8s-1.83,1.66-2.72,2.49c-1.79,1.67-3.48,3.32-5,4.84-.75.76-1.45,1.48-2.09,2.16l-.92,1L33,99.91l-.61.67c-.11.12-.2.23-.3.33l.29.29c.26.25.52.49.78.71l.32-.38c.17-.21.37-.44.58-.68s.43-.52.68-.8C35.26,99.48,35.81,98.84,36.43,98.15Z"/><path class="cls-4" d="M34.85,90.07c1.14-1.24,2.24-2.52,3.21-3.69.2-.24.38-.47.57-.69.73-.9,1.37-1.71,1.87-2.36l.65-.84.55-.75s-1.1,1.31-2.76,3.1c-1.29,1.4-2.92,3.09-4.63,4.7-1.23,1.19-2.49,2.33-3.64,3.33-.5.43-1,.83-1.42,1.2-.14.13-.29.25-.43.36-.7.59-1.3,1.07-1.75,1.43l1,1C29.48,95.58,32.27,92.93,34.85,90.07Z"/><path class="cls-4" d="M43.09,76.68c-.63.58-1.23,1.16-1.81,1.75s-1.15,1.15-1.68,1.73l-.79.85c-.77.84-1.49,1.66-2.17,2.42-.44.52-.87,1-1.28,1.48l-.6.67c-.78.88-1.49,1.64-2.1,2.26-.16.16-.3.31-.45.45-.55.56-1,1-1.32,1.28l-.2.19-.16.14-.12.11.52-.4c.33-.26.82-.66,1.42-1.18s1.3-1.19,2.09-2,1.67-1.66,2.62-2.65,1.95-2.06,3-3.16l.85-.82c.28-.28.58-.56.88-.83.59-.57,1.21-1.12,1.84-1.68s1.28-1.13,1.95-1.7c2-1.7,4.12-3.39,6.26-5.07,2.82-2.29,5.62-4.61,8.17-6.89s4.79-4.54,6.67-6.52c.71-.74,1.35-1.46,1.94-2.11l.57-.64c.37-.42.71-.81,1-1.16l.86-1,.67-.81.51-.61.31-.37.1-.13-.26.27L71,52.09l-.91.95L69,54.14c-.78.79-1.66,1.67-2.65,2.6s-2,2-3.18,3l-1.78,1.6L59.47,63c-1.28,1.12-2.62,2.25-4,3.38-.69.56-1.39,1.13-2.1,1.69S52,69.2,51.25,69.76l-2.11,1.72c-.71.57-1.4,1.15-2.09,1.73C45.68,74.36,44.34,75.51,43.09,76.68Z"/><path class="cls-4" d="M80.51,51.28c-.14.14-.28.3-.42.46l-2,2.11c-1.41,1.56-3.09,3.35-4.92,5.24S69.44,63,67.44,65c-1,1-2,2-3,2.93L63,69.3l-1.46,1.37c-1.91,1.8-3.71,3.47-5.29,4.86-.77.71-1.49,1.36-2.13,1.92s-1.2,1.07-1.67,1.47l-.61.55c-.54.47-.83.74-.83.74l.23-.17.18-.13,1.15-.84c.5-.36,1.09-.82,1.77-1.34s1.45-1.11,2.27-1.77l1.28-1c1.31-1.09,2.74-2.31,4.24-3.61,2-1.77,4-3.69,6-5.65s3.93-4,5.72-6,3.36-3.83,4.71-5.46L80.36,52c.13-.17.26-.34.39-.49l.68-.88.29-.39.69-.92.29-.4.17-.23-.08.09-.11.12c-.13.14-.31.35-.56.61l-.55.61Z"/></g></g></svg>