<svg xmlns="http://www.w3.org/2000/svg" viewBox="0 0 115.24 129.39"><defs><style>.cls-1{fill:#7093b5;}.cls-2{fill:#fff;}.cls-3{fill:#bd3333;}.cls-4{fill:#f2c8a6;}.cls-5{fill:#f0ca80;}.cls-6{fill:#34383f;}</style></defs><g id="Layer_2" data-name="Layer 2"><g id="Layer_1-2" data-name="Layer 1"><path class="cls-1" d="M0,27.24H0L9.86,84.46c3.14,16.73,14.37,30.89,30,37.06a48.55,48.55,0,0,0,17.73,3.35h0a48.33,48.33,0,0,0,17.72-3.35c15.66-6.16,26.89-20.33,30-37.06l9.87-57.22h0A96.93,96.93,0,0,0,0,27.24Z"/><polygon class="cls-2" points="58.1 39 10.06 51.99 58.1 64.97 106.14 51.99 58.1 39"/><circle class="cls-2" cx="57.75" cy="50.92" r="34.75"/><path class="cls-3" d="M115.24,23.68l-1.18-.75c-.77-.47-1.87-1.22-3.33-2.06l-2.4-1.4-2.88-1.57c-1-.55-2.16-1.08-3.33-1.67s-2.44-1.12-3.74-1.72-2.71-1.13-4.14-1.7L92,12l-1.13-.42-1.16-.38-2.37-.77L84.9,9.74l-1.24-.36-1.28-.31L79.8,8.43C76.31,7.66,72.67,7.07,69,6.61A109.06,109.06,0,0,0,57.62,6a109.25,109.25,0,0,0-11.34.63c-3.71.47-7.36,1-10.85,1.83l-2.58.63-1.27.32-1.25.35-2.45.7-2.37.77-1.17.38L23.21,12,21,12.82c-1.43.57-2.82,1.12-4.14,1.69s-2.57,1.14-3.74,1.72-2.3,1.12-3.33,1.67L6.91,19.47,4.5,20.88c-1.46.83-2.56,1.58-3.33,2.05L0,23.68l1.09-.86,1.31-1,.84-.65,1-.69,2.29-1.62L9.3,17.05c1-.63,2.1-1.24,3.24-1.92s2.41-1.27,3.69-2,2.69-1.28,4.12-1.94l2.21-.92,1.13-.48,1.17-.43,2.39-.88,2.48-.81L31,7.3,32.28,7l2.63-.71A100.14,100.14,0,0,1,46,4.15a106.63,106.63,0,0,1,11.63-.73,109,109,0,0,1,11.62.73A100.76,100.76,0,0,1,80.33,6.24L83,7l1.29.36,1.26.41L88,8.53l2.39.88,1.17.43,1.13.47,2.22.92c1.43.66,2.8,1.3,4.11,1.95s2.54,1.29,3.69,2,2.24,1.28,3.24,1.91l2.79,1.79,2.3,1.61,1,.7c.3.22.57.44.83.64l1.31,1Z"/><path class="cls-2" d="M35.36,115.28l-.92.38a1.56,1.56,0,0,1-1.14-.38,1.37,1.37,0,0,1-.42-1.06,1.5,1.5,0,0,1,.42-1.09,1.39,1.39,0,0,1,1.07-.43,1.55,1.55,0,0,1,.91.27h0v.12a1.87,1.87,0,0,1-.09.59h-.35l-.07-.5a1.58,1.58,0,0,0-.69-.15H34a.89.89,0,0,0-.38.45,1.8,1.8,0,0,0-.11.62,1.25,1.25,0,0,0,.28.85.94.94,0,0,0,.77.29l.73-.24Z"/><path class="cls-2" d="M40.26,115.38v.21H38.9l0-.13.39-.16v-.93H37.89v1l.44,0v.21H37l0-.13.39-.16V113L37,113v-.21h1.28l0,.13a2.68,2.68,0,0,1-.4.16v1h1.37v-1l-.35,0v-.21h1.27l0,.13a3,3,0,0,1-.39.16v2.25Z"/><path class="cls-2" d="M44.89,115.38v.21H43.55l0-.13a2.94,2.94,0,0,1,.43-.17l-.22-.52H42.56l-.23.56.45,0v.21H41.56l0-.13a1.88,1.88,0,0,1,.38-.15L43,112.92l-.05-.1.49-.14,1.16,2.66Zm-1.29-.9-.45-1.11-.47,1.11Z"/><path class="cls-2" d="M50.24,115.39v.2H48.89l0-.13a2.42,2.42,0,0,1,.39-.16l0-1.34.07-.73-.9,2.29h0l-.46.09L47,113.25l.08.71,0,1.37.39.06v.2H46.27l0-.13a3,3,0,0,1,.4-.16l.08-2.24-.37,0v-.21h1.08l.85,2.22.86-2.22h1l0,.14a1.59,1.59,0,0,1-.36.14l0,2.25Z"/><path class="cls-2" d="M52.74,114.56v.75l.54.07v.21H51.82l0-.13a1.76,1.76,0,0,1,.39-.15V113l-.34,0v-.21l1.38,0a1.26,1.26,0,0,1,.82.26.78.78,0,0,1,.32.65.81.81,0,0,1-.3.64,1.18,1.18,0,0,1-.78.26Zm0-1.45v1.11a2,2,0,0,0,.42,0,.57.57,0,0,0,.46-.18.59.59,0,0,0,.16-.43.86.86,0,0,0-.08-.36.53.53,0,0,0-.24-.25Z"/><path class="cls-2" d="M57.21,115.38v.21H55.85l0-.13.39-.16V113l-.35,0v-.21h1.28l0,.13a2.1,2.1,0,0,1-.39.16v2.25Z"/><path class="cls-2" d="M60.18,112.7a1.42,1.42,0,0,1,1,.42,1.5,1.5,0,0,1,.41,1.1,1.42,1.42,0,0,1-.4,1.06,1.37,1.37,0,0,1-1,.4,1.42,1.42,0,0,1-1.05-.41,1.39,1.39,0,0,1-.41-1.06,1.5,1.5,0,0,1,.4-1.09A1.36,1.36,0,0,1,60.18,112.7Zm-.45.4a.85.85,0,0,0-.28.41,1.81,1.81,0,0,0-.1.63,1.38,1.38,0,0,0,.25.87.83.83,0,0,0,.69.33,1.65,1.65,0,0,0,.31,0,.93.93,0,0,0,.31-.42,1.61,1.61,0,0,0,.12-.63,1.41,1.41,0,0,0-.25-.88.8.8,0,0,0-.66-.33A1.32,1.32,0,0,0,59.73,113.1Z"/><path class="cls-2" d="M66.07,115.59l-.56.06h0L64,113.39,64,114v1.39l.41,0v.21H63.26l0-.13.39-.16V113l-.31,0v-.21h.93L65.73,115l-.07-.55v-1.4l-.45,0v-.21h1.22l0,.13a2.14,2.14,0,0,1-.38.15Z"/><path class="cls-2" d="M70.28,114.83a.71.71,0,0,1-.31.61,1.2,1.2,0,0,1-.77.24,2.36,2.36,0,0,1-.56-.08,1.21,1.21,0,0,1-.47-.21h0v-.15a2.77,2.77,0,0,1,.06-.6h.29l.14.57a1.41,1.41,0,0,0,.69.16h.11a.41.41,0,0,0,.25-.4.48.48,0,0,0-.31-.41l-.73-.35a.8.8,0,0,1-.49-.69.69.69,0,0,1,.32-.58,1.36,1.36,0,0,1,.81-.23,2.94,2.94,0,0,1,.83.14,2.49,2.49,0,0,1-.06.76h-.31l-.09-.44a1.16,1.16,0,0,0-.6-.15h-.14a.4.4,0,0,0-.22.37c0,.15.11.28.34.39l.68.32A.82.82,0,0,1,70.28,114.83Z"/><path class="cls-2" d="M75.29,115.38v.21H73.93l0-.13.39-.16v-.93H72.93v1l.44,0v.21H72l0-.13.39-.16V113L72,113v-.21h1.27l0,.13a2.1,2.1,0,0,1-.39.16v1H74.3v-1l-.36,0v-.21h1.27l0,.13a3,3,0,0,1-.39.16v2.25Z"/><path class="cls-2" d="M78.23,115.38v.21H76.87l0-.13.39-.16V113l-.35,0v-.21h1.27l0,.13a2.1,2.1,0,0,1-.39.16v2.25Z"/><path class="cls-2" d="M80.72,114.56v.75l.54.07v.21H79.8l0-.13a1.88,1.88,0,0,1,.38-.15V113l-.33,0v-.21l1.38,0A1.26,1.26,0,0,1,82,113a.78.78,0,0,1,.32.65.81.81,0,0,1-.3.64,1.18,1.18,0,0,1-.78.26Zm0-1.45v1.11a2,2,0,0,0,.41,0,.58.58,0,0,0,.47-.18.59.59,0,0,0,.16-.43.74.74,0,0,0-.09-.36.47.47,0,0,0-.23-.25Z"/><path class="cls-2" d="M28.38,103.17c0,2.3.77,3.62,2.7,3.62a2.74,2.74,0,0,0,2.27-1.12,1.64,1.64,0,0,1,.66,1.26c0,1.85-2.34,2.66-4.32,2.66-4.21,0-6.16-2.45-6.16-5.52,0-3.8,2.2-5.66,6.25-5.66,1.81,0,4.08.37,4.08,2.06,0,1.37-1.2,2.07-2.55,2.07-.23,0-.59,0-.88,0a5.46,5.46,0,0,0,.07-.9c0-.91,0-2-1-2C28.36,99.62,28.38,102.12,28.38,103.17Z"/><path class="cls-2" d="M43.26,105l2.58,4.28H41.3l-1.45-4.59a2.38,2.38,0,0,1-.17-.79c1.07,0,1.07-.83,1.07-1.87s0-2.13-.92-2.13a1.25,1.25,0,0,0-.51.1v9.28H34.81V98.92a44.89,44.89,0,0,1,4.95-.29c3,0,5.36.5,5.36,3.33A3.13,3.13,0,0,1,43.26,105Z"/><path class="cls-2" d="M50.73,109.24h-4.5V98.73h4.5Z"/><path class="cls-2" d="M56.53,103.17c0,2.3.77,3.62,2.7,3.62a2.72,2.72,0,0,0,2.27-1.12,1.62,1.62,0,0,1,.67,1.26c0,1.85-2.34,2.66-4.32,2.66-4.22,0-6.16-2.45-6.16-5.52,0-3.8,2.2-5.66,6.24-5.66,1.81,0,4.08.37,4.08,2.06,0,1.37-1.19,2.07-2.54,2.07-.24,0-.6,0-.89,0a5.46,5.46,0,0,0,.07-.9c0-.91,0-2-1-2S56.53,102.12,56.53,103.17Z"/><path class="cls-2" d="M63,109.24V98.73h4.5v10.51ZM74.43,98.73l-2.37,4.89,2.61,5.62H70.15l-2.35-5.32L70,98.73Z"/><path class="cls-2" d="M82.44,100.15H79.77v3h2.15v1.43H79.77v3.26h2.92l-.13,1.42H75.27V98.73h7.17Z"/><path class="cls-2" d="M91.57,100.15H89.48v9.09H85v-9.09h-2.2V98.73H91.7Z"/><path class="cls-3" d="M7.47,85.67l.42,1.55c.14.5.28,1.13.5,1.86s.51,1.54.81,2.46.73,1.91,1.15,3,1,2.21,1.55,3.44c.31.6.64,1.21,1,1.84l.51,1c.18.32.38.63.58,1l1.21,2,1.39,2a54.64,54.64,0,0,0,7,7.92,49.49,49.49,0,0,0,9.54,6.9,51.14,51.14,0,0,0,11.64,4.67,50.71,50.71,0,0,0,25.66,0,50.4,50.4,0,0,0,6-2l1.48-.62c.5-.21,1-.42,1.43-.65l1.37-.69c.45-.23.91-.44,1.35-.72a50.52,50.52,0,0,0,9.54-6.89,56.4,56.4,0,0,0,7-7.92l1.38-2c.42-.67.82-1.33,1.21-2,.2-.32.4-.63.58-1l.52-1c.33-.63.66-1.24,1-1.84.54-1.23,1.11-2.36,1.55-3.44s.85-2.08,1.14-3l.81-2.47c.22-.72.37-1.35.51-1.85.27-1,.41-1.55.41-1.55s-.1.55-.28,1.58c-.09.51-.19,1.16-.34,1.9l-.62,2.54c-.23,1-.6,2-.94,3.11-.16.57-.4,1.14-.63,1.74l-.72,1.85a53.16,53.16,0,0,1-4.35,8.13A52,52,0,0,1,93,115a48.65,48.65,0,0,1-9.74,7.47c-.45.29-.94.53-1.42.79l-1.45.76a16.16,16.16,0,0,1-1.46.7l-1.47.65a43.8,43.8,0,0,1-6.32,2.21,51,51,0,0,1-26.94,0,45.52,45.52,0,0,1-6.3-2.2l-1.51-.67a15.31,15.31,0,0,1-1.47-.71l-1.44-.75c-.47-.26-1-.49-1.4-.79A48.33,48.33,0,0,1,22.29,115,52.11,52.11,0,0,1,11,98.39l-.72-1.85c-.23-.6-.47-1.17-.63-1.74-.35-1.14-.71-2.16-.95-3.11l-.62-2.55c-.15-.74-.24-1.38-.34-1.89C7.57,86.22,7.47,85.67,7.47,85.67Z"/><path class="cls-2" d="M17.55,93.28s1.24-.09,3.4-.21,5.25-.27,9-.39c1.86-.07,3.87-.14,6-.18s4.37-.12,6.69-.14,4.71-.09,7.14-.09l7.38,0,7.38,0c2.44,0,4.83.07,7.15.09s4.56.09,6.68.14,4.14.12,6,.18c3.71.13,6.8.28,9,.4s3.4.21,3.4.21l-3.4.21c-2.17.11-5.26.27-9,.39-1.85.07-3.86.13-6,.18s-4.36.11-6.68.14-4.71.09-7.15.09l-7.38,0-7.38,0c-2.43,0-4.83-.06-7.14-.09s-4.56-.09-6.69-.14-4.13-.12-6-.18c-3.71-.13-6.8-.28-9-.4Z"/><path class="cls-2" d="M39.29,119.46s2.29-.21,5.73-.36c1.71-.08,3.72-.15,5.87-.19,1.07,0,2.18-.06,3.31-.06l3.42,0,3.42,0c1.12,0,2.23,0,3.31.05,2.15,0,4.15.12,5.87.2,3.44.15,5.73.36,5.73.36s-2.29.22-5.73.37c-1.72.08-3.72.15-5.87.19-1.08,0-2.19.06-3.31.06l-3.42,0-3.42,0c-1.13,0-2.24,0-3.31-.06-2.15,0-4.16-.11-5.87-.19C41.58,119.68,39.29,119.46,39.29,119.46Z"/><path class="cls-2" d="M88.31,85.43c-.51-1.46-6.69-8.72-10.43-13a8.06,8.06,0,0,0-1.34-2.83A11.48,11.48,0,0,0,73.68,67a26.19,26.19,0,0,0-2-7.79,14.85,14.85,0,0,1-1-5.81,18.87,18.87,0,0,0-.26-3c-.1-.5-.18-1-.26-1.54a9,9,0,0,0-1.81-5,5.85,5.85,0,0,1-.86-3,9.27,9.27,0,0,0,.53-2.36v0a.49.49,0,0,0,0-.12,11.21,11.21,0,0,0-.27-3.63,13.89,13.89,0,0,0-3.64-5.88c.47-.29.81-.82,1-2a2,2,0,0,0,1-1.81,2.93,2.93,0,0,0-1.15-2,10.84,10.84,0,0,0-1-3,6.88,6.88,0,0,0-6.37-4c-4.32,0-7,2.6-7.32,7a2.59,2.59,0,0,0-.39,2.5l.18.5a10.05,10.05,0,0,0-4.41,1,4.12,4.12,0,0,0-.22-2.29c-.09-.31-.2-.62-.32-.92a101.28,101.28,0,0,0,9.19-9.51c3.47-4.11,7-9.66,7.32-10.83a2.05,2.05,0,0,0-.41-1.76A6.31,6.31,0,0,0,56.68,0h0a6.8,6.8,0,0,0-1,.08c-1,.17-1.59,1-3.13,3.11-1.21,1.67-3,4.19-5.66,7.18-3.78,4.31-6.48,7.35-7.52,8.53h-.18A3.17,3.17,0,0,0,36.49,20l-.48.54a12.76,12.76,0,0,0-2.26,3A5.2,5.2,0,0,0,32,24.92c-.19.22-.42.47-.67.73-1,1-2.11,2.23-2.11,3.78a5.86,5.86,0,0,0,1.23,4.1l.06.06a2.58,2.58,0,0,0,.52.82,2.47,2.47,0,0,0,1.29.76,8.06,8.06,0,0,1,.13,1c0,.12,0,.25,0,.38a5.83,5.83,0,0,0,.74,3.2c.08.14.16.27.23.41.54,1,1.36,2.44,3.15,2.44a3.12,3.12,0,0,0,.52,0A17.8,17.8,0,0,0,41.47,41a4,4,0,0,0,1.24.2,4.4,4.4,0,0,0,.95-.11,4.83,4.83,0,0,0,1.82-.89,9.74,9.74,0,0,0,.7,2,13.82,13.82,0,0,0,.8,1.49,3.69,3.69,0,0,1,.49,1.3,3.47,3.47,0,0,1,0,1.83,8.62,8.62,0,0,0-.15,1.44v.32a2.43,2.43,0,0,1-.82,2.24l-.71.76A34.94,34.94,0,0,0,42,56.21a6.69,6.69,0,0,0-2.5-.58,3.49,3.49,0,0,0-1.69.4c-1.56.82-2,2.68-2.35,4.33a11.9,11.9,0,0,1-.61,2.14l0,0c-.93,2-2.21,4.82-1.41,7.24-.11,1.49-.65,9-1.07,11.78-.16,1.07-.35,2.16-.52,3.13-.25,1.39-.42,2.39-.5,3.14a3.93,3.93,0,0,0-2.36,2.12,2.83,2.83,0,0,0,.22,2.69,2.91,2.91,0,0,0,2.55,1.09l1,0c.75,0,1.75.05,2.82.05a23.32,23.32,0,0,0,5.71-.51c.66-.18,2.75-1,2.1-4-.12-.85.77-7.91,1.15-10.92.31-2.48.58-4.63.66-5.68l.41-.73c.27-.46.54-.94.75-1.4A17.15,17.15,0,0,0,49.54,69a50.09,50.09,0,0,0,4.51-3.14c.72-.53,1.39-1,2.07-1.51a6,6,0,0,1,1.15-.69,6.46,6.46,0,0,1,.67.55,31.51,31.51,0,0,1,3.3,4.68,3.33,3.33,0,0,0,0,3.21,16.46,16.46,0,0,0,2.47,3.07l.55.6.09.09a11,11,0,0,1,.9,1.1c.12.19.23.4.33.59A3.92,3.92,0,0,0,68.7,79.9c1.15,1.35,4.1,4.81,5.76,6.68.5.55,1,1.14,1.44,1.72,1.29,1.58,2.41,3,3.74,3.55a2.84,2.84,0,0,0,.54.86,3.18,3.18,0,0,0,2.45,1,15.13,15.13,0,0,0,4.13-.38,2.28,2.28,0,0,0,1.6-1.78,6.3,6.3,0,0,0-.28-3.4A3.14,3.14,0,0,0,88.31,85.43Zm-.67,5.18a3.22,3.22,0,0,1-.08.66.17.17,0,0,1,0,.07,1.53,1.53,0,0,1-.89,1.14l-.12,0-.4.1a7.93,7.93,0,0,1-.85.14,22.74,22.74,0,0,1-2.66.11A3.37,3.37,0,0,1,82,92.8a3,3,0,0,1-.51-.17,2.05,2.05,0,0,1-1.15-1.42,3.08,3.08,0,0,1-.47-.19,3.87,3.87,0,0,1-.47-.28,16,16,0,0,1-2.82-3l-.22-.27c-.4-.5-.81-1-1.24-1.48l-1-1.08c-1.82-2.09-4.29-5-5-5.83a3.54,3.54,0,0,1-1.53-.47,2.34,2.34,0,0,1-.34-.26,4.4,4.4,0,0,1-.9-1.27q-.17-.31-.36-.63a5.58,5.58,0,0,0-.44-.59c-.17-.21-.38-.44-.59-.68h0l-.6-.65c-.46-.49-.92-1-1.33-1.48l-.3-.36A7.54,7.54,0,0,1,62,71.66a2.76,2.76,0,0,1-.3-.86,2.42,2.42,0,0,1,.52-1.93c-.24-.39-.53-.86-.85-1.36l-.24-.38-.6-.91-.36-.52c-.11-.17-.22-.33-.34-.49l-.49-.67a8.7,8.7,0,0,0-.86-1,5.7,5.7,0,0,0-.74-.62.91.91,0,0,0-.45-.18.92.92,0,0,0-.3.07l-.12.05-.33.15c-.29.17-.61.38-.92.59l-1,.74-1.06.79c-.91.68-1.84,1.38-2.86,2.07-.51.34-1,.68-1.58,1l-.26.15-.56.32-.7.37-.62.3-.4.17a8.22,8.22,0,0,1-.91.31,5.78,5.78,0,0,1-.31.68c-.16.33-.35.66-.55,1,0,.09-.1.18-.15.27l-.15.27a2.37,2.37,0,0,0-.2.41c0,.14,0,.3,0,.48,0,.46-.12,1.08-.2,1.8-.06.5-.13,1-.2,1.64q-.06.43-.12.9l-.12,1c-.06.49-.12,1-.19,1.56s-.11.84-.16,1.27-.07.59-.11.88c-.3,2.49-.59,5.07-.67,6.48a5.41,5.41,0,0,0,0,1,4.23,4.23,0,0,1,.1.73,1.71,1.71,0,0,1,0,.32,2,2,0,0,1-1.6,2l-.47.12a22.82,22.82,0,0,1-4.11.36H34.72l-1.41,0-.59,0h-1a3.17,3.17,0,0,1-1.14-.18,1.81,1.81,0,0,1-.41-.23,1.26,1.26,0,0,1-.32-.33,1.44,1.44,0,0,1-.2-.39,1.9,1.9,0,0,1-.06-1,3.31,3.31,0,0,1,.15-.58,2.07,2.07,0,0,1,.66-.9l.1-.07a5.46,5.46,0,0,1,1.61-.82,9,9,0,0,1,.1-1c.08-.66.23-1.5.43-2.59s.36-2.06.52-3.14c.12-.82.26-2,.39-3.37.05-.6.11-1.22.16-1.85l.12-1.41c0-.31,0-.62.08-.92s.05-.59.07-.88c.13-1.72.23-3.12.27-3.6A4.32,4.32,0,0,1,34,68a8.34,8.34,0,0,1,.41-2.21l.15-.43a25.83,25.83,0,0,1,1-2.45v0c.08-.17.14-.34.21-.53.18-.55.32-1.17.46-1.78s.26-1.16.44-1.7a3.78,3.78,0,0,1,1.06-1.79,2.36,2.36,0,0,1,.42-.28,2.46,2.46,0,0,1,.61-.22,1.75,1.75,0,0,1,.33-.06l.36,0h0a5.06,5.06,0,0,1,1.15.16,6.94,6.94,0,0,1,.73.24c.23.08.45.18.65.27l.27.13a27.9,27.9,0,0,1,2.16-2.93c.71-.84,1.39-1.57,2-2.22l.72-.77a4.51,4.51,0,0,0,.71-1A1.81,1.81,0,0,0,48,50a1.18,1.18,0,0,0,.07-.2,3.09,3.09,0,0,0,.09-.53c0-.12,0-.25,0-.38h0c0-.12,0-.24,0-.37v-.32a5,5,0,0,1,0-.7,2.91,2.91,0,0,1,0-.31c0-.1,0-.2.05-.29s0-.31.07-.46a4,4,0,0,0,0-1.36c0-.11,0-.23-.08-.36s-.12-.44-.17-.6a3.08,3.08,0,0,0-.41-.92c-.05-.07-.09-.15-.14-.23-.15-.26-.35-.62-.62-1.19a9.55,9.55,0,0,1-.62-1.7,4.5,4.5,0,0,1-.16-1.1L46,38.89l-.24-.23a3.11,3.11,0,0,1-.23.28c-.11.12-.22.24-.34.35a3.9,3.9,0,0,1-1.76,1,2.32,2.32,0,0,1-.38.07,2.3,2.3,0,0,1-.37,0,3,3,0,0,1-1.29-.29l-.5.27a20.33,20.33,0,0,1-3,1.16,7.62,7.62,0,0,1-1,.23,2.43,2.43,0,0,1-.38,0,2.15,2.15,0,0,1-.45,0,2.1,2.1,0,0,1-.74-.34,2.61,2.61,0,0,1-.31-.27,4.76,4.76,0,0,1-.71-1c-.07-.12-.14-.24-.2-.36l-.24-.42a5,5,0,0,1-.63-2.78c0-.15,0-.28,0-.41s0-.39-.06-.62-.06-.33-.08-.49,0-.17-.05-.25-.06-.31-.09-.45a1.07,1.07,0,0,1-.32,0,1.37,1.37,0,0,1-.8-.3,1.71,1.71,0,0,1-.25-.22,1.59,1.59,0,0,1-.36-.64.59.59,0,0,1,0-.08L31,33a3,3,0,0,1-.61-1,4.13,4.13,0,0,1-.14-.42A8.14,8.14,0,0,1,30,29.43h0a3.39,3.39,0,0,1,.88-2.08l.32-.39c.22-.25.45-.49.68-.74l0,0,.5-.54.18-.2c.08-.1.17-.19.25-.28a4.48,4.48,0,0,1,.95-.75,4.2,4.2,0,0,1,.6-.27A7.5,7.5,0,0,1,35.75,22c.28-.32.57-.65.88-1l.31-.35.12-.13a.74.74,0,0,0,.09-.12,1.45,1.45,0,0,1,.34-.31,1.9,1.9,0,0,1,.45-.23,3.63,3.63,0,0,1,1.23-.18l.54,0,1-1.12,1.19-1.35,1-1.12,4.61-5.25c.66-.75,1.27-1.48,1.83-2.17.29-.34.56-.68.81-1l.91-1.16c.86-1.13,1.58-2.12,2.16-2.91C54.61,1.75,55.13,1,55.8.91l.35,0h.08l.34,0h.11a5.57,5.57,0,0,1,4,1.53.88.88,0,0,1,.12.17,1.33,1.33,0,0,1,.18.57,1.25,1.25,0,0,1,0,.21.24.24,0,0,1,0,.09,1.28,1.28,0,0,1-.07.21,12.66,12.66,0,0,1-.63,1.19c-.09.17-.2.35-.32.55-.35.58-.78,1.26-1.27,2-.33.49-.68,1-1.06,1.55-1.12,1.62-2.43,3.37-3.79,5-.57.67-1.21,1.41-1.9,2.17s-1.41,1.54-2.13,2.31c-1.45,1.53-2.88,3-4,4a11.59,11.59,0,0,1-1.59,1.32c.1.23.21.46.3.7s.18.49.26.74a5.53,5.53,0,0,1,.22,1,2.31,2.31,0,0,1,0,.62.92.92,0,0,1-.17.51l0,0a1.37,1.37,0,0,1-.17.19,6.63,6.63,0,0,1-.52.43c-.09.08-.2.15-.3.23l.69.84,1.69-1a4.48,4.48,0,0,1,.58-.29,12.38,12.38,0,0,1,4-.62H51a.72.72,0,0,0,.28-.07.2.2,0,0,0,.08,0,.69.69,0,0,0,0-.13l-.23-.55L51,25.8c0-.13-.09-.27-.14-.4a2.45,2.45,0,0,1-.12-.6,1.7,1.7,0,0,1,.11-.68c0-.06,0-.12.08-.17a2.13,2.13,0,0,1,.17-.25l.09-.09a.76.76,0,0,1,.09-.09,8.67,8.67,0,0,1,.31-2.13c.77-2.8,2.93-4.36,6.18-4.36a6.7,6.7,0,0,1,1.77.23,5.45,5.45,0,0,1,1.54.67,4.69,4.69,0,0,1,.68.49,6.35,6.35,0,0,1,1,1.15,8.38,8.38,0,0,1,.6,1,9.92,9.92,0,0,1,.93,3l.3.26a2.1,2.1,0,0,1,.79,1.32A1.08,1.08,0,0,1,65,26l-.17.13a2.5,2.5,0,0,1-.43.23,6.65,6.65,0,0,1-.11.81,2.29,2.29,0,0,1-.07.28s0,.06,0,.08a2.44,2.44,0,0,1-.15.35L64,28a.59.59,0,0,1-.23.22.6.6,0,0,1-.16.08,1.08,1.08,0,0,1-.42.08,2.08,2.08,0,0,1-.57-.1l-.06.19c.13.12.29.26.46.43l.3.29.47.48.49.54.34.4A11.32,11.32,0,0,1,67,35a11.05,11.05,0,0,1,.28,1.86,10,10,0,0,1,0,1.57h0v0a9.84,9.84,0,0,1-.18,1.16c0,.22-.11.42-.16.59s0,.17-.07.24-.1.26-.13.35a2.36,2.36,0,0,0,0,.36,7.35,7.35,0,0,0,.77,2.93,2.32,2.32,0,0,0,.29.39,6,6,0,0,1,1.28,2.71c.14.6.23,1.21.32,1.82s.16,1.06.27,1.58a18,18,0,0,1,.24,2.9l0,.78c0,.52,0,1,.09,1.58a10.87,10.87,0,0,0,.92,3.8,26.94,26.94,0,0,1,1.91,7.93,10.79,10.79,0,0,1,1.54,1.07,9.36,9.36,0,0,1,1.12,1.06q.18.19.33.39a5.94,5.94,0,0,1,.5.77,8.33,8.33,0,0,1,.74,2l2.19,2.55.57.66,1.67,2,1.3,1.56.43.51.83,1,1.16,1.44.35.45c.23.29.44.57.63.83a10.17,10.17,0,0,1,1.26,1.92,3,3,0,0,1,.11.37c0,.12,0,.24,0,.35v.37a1.86,1.86,0,0,1-.1.48,2.15,2.15,0,0,1-.43.74,6.09,6.09,0,0,1,.52,2.57Z"/><path class="cls-2" d="M39,34.44a3.7,3.7,0,0,1,.49-.46l.33-.27.92-.75.07-.05c-.15-.14-.28-.25-.43-.37a7.82,7.82,0,0,1-.66-.6l-.23-.27a4.37,4.37,0,0,1-.51-.79,3.16,3.16,0,0,1-.29,1.26c0,.08-.08.15-.12.24a5.16,5.16,0,0,0-.21.49l-.08.21a8.46,8.46,0,0,1,.4,1.75c.05-.06.09-.12.15-.18Zm.17-1.34.16-.37.17.16-.32.25Z"/><path class="cls-2" d="M45,29.52l1.32,1.21c.52.47,1.09,1,1.61,1.42l.6.5.54-.53L49,33c.25.2.48.38.71.54a5.18,5.18,0,0,0,1.85,1,7.18,7.18,0,0,0,2.3.06l.62-.05.35,0,.39,0a6.18,6.18,0,0,0,2.14-.68c.38-.17.77-.34,1.19-.5a1.86,1.86,0,0,1-.34,0,3.87,3.87,0,0,1-.82-.24.94.94,0,0,1-.12.18,2.75,2.75,0,0,1-.33.37,2.36,2.36,0,0,1-.47.34,2,2,0,0,1-1,.24h-.17c-1.38-.1-2.73-.89-2.63-2.43a6.83,6.83,0,0,1,.51-2c.08-.21.15-.39.23-.55a4,4,0,0,1-.46-.38,13.52,13.52,0,0,1-1.2-1.21,1.5,1.5,0,0,1-.75.21h-.26l-.89,0a9.65,9.65,0,0,0-2.81.54,2.58,2.58,0,0,0-.44.22l-.11.07.22.17a5.86,5.86,0,0,1,.45.43c.07.08.15.16.22.25a6.05,6.05,0,0,1,.67,1,3.45,3.45,0,0,1,.2.46l0,0a4.52,4.52,0,0,0-.32-.43,6,6,0,0,0-.84-.81,5.49,5.49,0,0,0-1-.58L45.86,29Z"/><path class="cls-2" d="M43.09,28.35a9.07,9.07,0,0,0-1.87,1.56,1.37,1.37,0,0,0-.38.63.88.88,0,0,0,.06.48,1,1,0,0,0,.12.23,1.64,1.64,0,0,0,.14.22l.25-.25L41.7,31l.66-.6.35-.31c.36-.3.73-.59,1.07-.82C43.56,29,43.31,28.65,43.09,28.35Z"/><path class="cls-2" d="M32.66,26.52h.21a3.53,3.53,0,0,1,.87.21,4.58,4.58,0,0,1,.86.54l.37.33.35.33c.21.24.4.46.56.66l.06.09h.22c.39,0,.66-.05.75-.19a.41.41,0,0,0,.05-.19,1.15,1.15,0,0,0-.12-.51l-.11-.23a.46.46,0,0,0-.07-.07,2.65,2.65,0,0,0-.29-.29,3.63,3.63,0,0,0-.35-.3,4.23,4.23,0,0,0-.81-.54,3.85,3.85,0,0,0-.88-.4,4.43,4.43,0,0,0-.83-.24l-.1,0a2.5,2.5,0,0,0-.22.24C33,26.14,32.84,26.33,32.66,26.52Z"/><path class="cls-2" d="M33.68,25.45l.37,0,.4.06a5,5,0,0,1,1,.39,4.77,4.77,0,0,1,.86.66,4.34,4.34,0,0,1,.57.74l0,.07,0,0a.59.59,0,0,0,.23-.73,3.3,3.3,0,0,0-2.63-1.73A3.09,3.09,0,0,0,33.68,25.45Z"/><path class="cls-2" d="M36.93,25.28a2.45,2.45,0,0,1,1.52.3,2.71,2.71,0,0,1,.73.57l.58,0,.74,0a.66.66,0,0,0,.31-.06,2.7,2.7,0,0,0,.35-.21l2-1.28-.8.73-.3.27-.63.58a2.73,2.73,0,0,1-.36.3,1.18,1.18,0,0,1-.5.19l-.76.09h-.1l.12.23c.05.11.1.24.15.36l.32,0,.74,0a.66.66,0,0,0,.31-.06,2.7,2.7,0,0,0,.35-.21l2-1.28-.54.49-.56.51-.63.58a2.73,2.73,0,0,1-.36.3,1.18,1.18,0,0,1-.5.19l-.76.09h-.14a5.62,5.62,0,0,1,.09.57,6,6,0,0,0,.84,0,2.74,2.74,0,0,0,.77-.27,14.13,14.13,0,0,0,2.42-1.75,3.15,3.15,0,0,0-.13-.93,8.7,8.7,0,0,0-.45-1.33,8.28,8.28,0,0,0-.46-.89,9.78,9.78,0,0,0-1.7-2,4.45,4.45,0,0,0-.48-.38A3.48,3.48,0,0,0,40,20.57l-.3,0-.52,0a3.56,3.56,0,0,0-.8.08,1,1,0,0,0-.61.34l-.13.16,2.59.21-3.2.46c-.11.13-.23.25-.34.39l2.69.1-3.31.62c-.15.19-.29.39-.43.58l2.87-.11-3.29.84c0,.06-.05.11-.07.17a3.32,3.32,0,0,1,1,.34A3.69,3.69,0,0,1,36.93,25.28Zm5.47-1.92-.22.21-.33.29-.4.3-.41.27-.2.12-.17.1-.28.14-.11,0,.08-.08.22-.22c.1-.08.21-.19.33-.28l.39-.3.42-.27a4,4,0,0,1,.37-.22l.16-.08.12-.06.11-.05Zm-.87-1.25-.07.11c-.06.06-.12.15-.22.25l-.32.34-.39.37-.41.34c-.13.11-.26.2-.37.28s-.21.14-.28.19l-.11.06,0,0,.06-.08a12,12,0,0,1,.54-.59l.38-.37.41-.35c.13-.11.27-.19.38-.28l.27-.18Z"/><path class="cls-4" d="M49.18,38.49a2.82,2.82,0,0,0,.8.3l.59.1.87.11.89.11L52.09,39c-.75-.25-1.49-.52-1.49-.52s.79,0,1.57-.12l.84-.08a17,17,0,0,1-.78-2.94,5.76,5.76,0,0,1-.84-.13,2,2,0,0,1-.23-.06h0a4.78,4.78,0,0,1-.29.78,3.58,3.58,0,0,1-.43.69l-.09.11a.36.36,0,0,1-.08.09l-.06.07,0-.09.09-.24a4.32,4.32,0,0,0,.16-.74,2.8,2.8,0,0,0,0-.4c0-.12,0-.24,0-.33s0-.14,0-.2a15,15,0,0,1-3-2.2c-1.06-.91-2.32-2.06-3-2.67l-.24-.23a8.29,8.29,0,0,0-.74.55c-.37.51-.73,1-1.07,1.56a1.74,1.74,0,0,0-.29.72,1.11,1.11,0,0,0,.18.61,1.88,1.88,0,0,0,.12.18l4.8,3.71A18.35,18.35,0,0,0,49.18,38.49Z"/><path class="cls-5" d="M36.55,29.73a1.41,1.41,0,0,1-.09.41l1.9-2c0-.09,0-.2,0-.31a1.1,1.1,0,0,0,0-.18,1.62,1.62,0,0,0-.46-.91,1.33,1.33,0,0,1-.16.78,1,1,0,0,1-.19.23,1.88,1.88,0,0,1,.08.51,1.08,1.08,0,0,1-.15.57,1.18,1.18,0,0,1-.9.48A1.87,1.87,0,0,1,36.55,29.73Z"/><path class="cls-5" d="M40.56,20a5.09,5.09,0,0,1,.95.53l5.21-5.38-4.64,5.83a9.28,9.28,0,0,1,.83.83c.18-.14.46-.38.81-.71l.37-.36c.79-.82,1.86-2,2.92-3.11l1.19-1.26L51.27,13l-.18.25L47.5,18c-.39.52-.78,1-1.16,1.53C47.83,18,49.7,16,51.65,13.71c1.41-1.67,2.83-3.53,4.2-5.43s2.72-3.85,4-5.7l-.23-.17-.29-.16L58.14,3.54,58.75,2a6,6,0,0,0-1.86-.39c-.33.47-1.86,2.58-3.59,4.68L53,6.71C52.3,7.51,51.62,8.28,51,9l-.71.78L49.17,11l-.21.21-.39.41s1.21-1.39,2.63-3.2c.47-.6,1-1.25,1.45-1.91.35-.48.7-1,1-1.42,1-1.4,1.83-2.69,2.29-3.4h0a.7.7,0,0,0-.35.22,6.92,6.92,0,0,0-.8.94c-1.2,1.59-3.26,4.66-6.71,8.6L46.71,13c-.43.5-.85,1-1.25,1.42l-1.13,1.29c-.54.61-1,1.17-1.48,1.68-.3.33-.57.64-.82.93l-.69.78C41,19.43,40.77,19.73,40.56,20Z"/><path class="cls-4" d="M34.54,38.92l.32.58c0-.06,0-.12,0-.18a9.43,9.43,0,0,1-.25-1.55,9.23,9.23,0,0,0,.61,1.41,7.93,7.93,0,0,0,.53.87l0,0a4.24,4.24,0,0,0,2.11-.23,14.41,14.41,0,0,0,3.54-1.69l-1.47.36,1.44-1.3a5.06,5.06,0,0,0-2.14-1.6l.08-.29a1.32,1.32,0,0,1-.63.57v0A6.82,6.82,0,0,1,38.32,37a6.29,6.29,0,0,1-.52,1c-.16.25-.28.41-.28.41a6.28,6.28,0,0,0,.25-.69A5.72,5.72,0,0,0,38,36.9a6,6,0,0,0,.09-1c0-.14,0-.26,0-.34a1.16,1.16,0,0,1,0-.13h0c0-.2-.06-.45-.1-.7a3.81,3.81,0,0,1-1.5.76,3.58,3.58,0,0,1-1,.13,5,5,0,0,1-1.54-.27,6.6,6.6,0,0,1,.09.79,9.8,9.8,0,0,0,.09,1.66,3,3,0,0,0,.09.38A3.83,3.83,0,0,0,34.54,38.92Z"/><path class="cls-2" d="M44,39a3.78,3.78,0,0,0-.14-.71,4.6,4.6,0,0,0-.42-1l-.06-.09a6.45,6.45,0,0,0,.65-.63c-.6-.74-1.24-1.51-1.79-2.15l-.62-.7-.27-.28L40,34.57a2.7,2.7,0,0,0-.38.37,3.57,3.57,0,0,1,1,.57l.33.32.37.35.4.37.39.39.38.39c.11.14.24.26.34.4s.42.53.58.76l.39.57.16.23S44,39.19,44,39Z"/><path class="cls-2" d="M35.12,34.78a1.62,1.62,0,0,1-.19-.29,2.42,2.42,0,0,1-.16-.39,6.12,6.12,0,0,0-.44-1l-.69.7c0,.14.08.36.13.62a5.5,5.5,0,0,0,.9.28Z"/><path class="cls-5" d="M32,33.49a1.29,1.29,0,0,0,.17.16.87.87,0,0,0,.5.2.31.31,0,0,0,.23-.08.4.4,0,0,0,.09-.4.93.93,0,0,0-.1-.26,1.15,1.15,0,0,0-.19-.26.8.8,0,0,0-.17-.15,1,1,0,0,0-.17-.12.75.75,0,0,0-.33-.09.36.36,0,0,0-.23.08C31.57,32.75,31.66,33.16,32,33.49Z"/><path class="cls-5" d="M35.9,30.72a1.13,1.13,0,0,1-.8.13.84.84,0,0,1-.27.33.93.93,0,0,1-.78.12,3.78,3.78,0,0,1-.53-.16l-.21-.08L33.15,31c-.09.12-.22.27-.37.45l-.51.6a1.43,1.43,0,0,1,.41.17,2.64,2.64,0,0,1,.37.31l.15.19,1.65-1.11L34,32.69Z"/><path class="cls-2" d="M31.34,32.11l.27-.31a6.08,6.08,0,0,1-.06-1.54.82.82,0,0,1,.19-.55.58.58,0,0,1,.48-.11.75.75,0,0,1,.24.08,1.55,1.55,0,0,1,.22.12,4.62,4.62,0,0,1,.5.37l.06,0,.18.14.09.08a3.11,3.11,0,0,0,.69.24.29.29,0,0,0,.25,0,.43.43,0,0,0,.14-.29l0-.44-.1-.08c-.18-.15-.4-.31-.64-.48l-.74-.56a3.93,3.93,0,0,0-.71-.51,1.3,1.3,0,0,0-.69-.22.93.93,0,0,0-.49.05,2.31,2.31,0,0,0-.49,1.3A5.3,5.3,0,0,0,31.34,32.11Z"/><path class="cls-2" d="M35.17,30.2s.21.09.52-.08.21-.82.17-1v0l-.09-.25-.09-.08c-.19-.16-.41-.34-.65-.52s-.48-.4-.74-.6a4,4,0,0,0-.74-.53,2.8,2.8,0,0,0-.72-.32,1.62,1.62,0,0,0-.34-.1c-.36.39-.74.78-1,1.18a1.17,1.17,0,0,1,.3-.1,1.87,1.87,0,0,1,.89.1,4.3,4.3,0,0,1,.85.52l.71.62.49.54h0l.06.09h0Z"/><path class="cls-2" d="M69.5,73.7l-4.18-5.87a9,9,0,0,0-1.12.55l4.33,5.83A7.66,7.66,0,0,0,69.5,73.7Z"/><path class="cls-2" d="M71.68,67.84a9.37,9.37,0,0,0-1-.32c-.35-.08-.69-.14-1-.19a3.87,3.87,0,0,0-.48,0h-.63l-.22,0a5.34,5.34,0,0,0-.8,0l3.65,5a9.64,9.64,0,0,0,.66-.8l-2.87-4,.64.12c.31.06.65.14,1,.23s.66.17,1,.27.59.17.84.27.45.15.59.21l.23.07-.2-.14a4.42,4.42,0,0,0-.54-.34A7.74,7.74,0,0,0,71.68,67.84Z"/><path class="cls-2" d="M67,74.64a5.52,5.52,0,0,0,1-.24l-4.27-5.75c-.37.23-.64.44-.8.56l0,0Z"/><path class="cls-2" d="M73,77.61,79.87,86l.92-.72-7-8.26C73.51,77.23,73.26,77.43,73,77.61Z"/><path class="cls-2" d="M75,75.92c-.24.25-.5.5-.79.76l7,8.28.86-.67Z"/><path class="cls-2" d="M69.92,73.42a6.83,6.83,0,0,0,.92-.75L67,67.34l-.59.13-.57.17Z"/><path class="cls-2" d="M78.59,87l.88-.68-6.88-8.4c-.29.19-.56.34-.82.48Z"/><path class="cls-2" d="M55.81,41.11l.1.06.08,0,.07,0L55.92,41l-.35-.62L55.35,40l-.23-.47a1.42,1.42,0,0,1-.08-.18l1.48,0c.59,0,1.17,0,1.75-.08s1.15-.11,1.72-.2a28.32,28.32,0,0,0,3.39-.7l-3.25.4L64.9,37a4.07,4.07,0,0,0-.31-1.28,4.4,4.4,0,0,0-1-1.45l-.32-.29A10,10,0,0,0,62,33.67a7.14,7.14,0,0,0-4.34.82,6.5,6.5,0,0,1-2.4.74l-1.06.07-.3,0-.89.06a18.06,18.06,0,0,0,.53,2.17s0,.05,0,.08c0,.19.1.38.17.57s.14.38.22.57.17.37.26.55.21.35.32.51a4.34,4.34,0,0,0,.68.81,3.76,3.76,0,0,0,.32.28Z"/><path class="cls-4" d="M59.16,32.53a1.39,1.39,0,0,0,.52-.17,1,1,0,0,0,.21-.16,5.58,5.58,0,0,0,1-1.77c.08-.18.16-.38.24-.59s.23-.67.34-1l.29-1-.09,0-.06,0a1.38,1.38,0,0,0-.35.23,1,1,0,0,1-.31.16.78.78,0,0,1-.22,0l-.11,0-.11,0-.11-.08,0,.07.13.29a2.52,2.52,0,0,1,.13.33,3.58,3.58,0,0,0,.11.35,1.36,1.36,0,0,1,.09.43.61.61,0,0,1-.23.42,1.07,1.07,0,0,1-.38.2,2.1,2.1,0,0,1-.69,0l-.47,0h-.19l.07-.05.18-.11A.41.41,0,0,0,59.3,30l.09,0,.09,0a2.36,2.36,0,0,1,.37,0l.33,0h.18a.38.38,0,0,0,.13-.09.54.54,0,0,0,.09-.12.27.27,0,0,0,0-.12.86.86,0,0,0-.06-.33,2.7,2.7,0,0,1-.09-.36l-.17-.64a2.7,2.7,0,0,1-.08-.47.38.38,0,0,1,0-.1v-.09a1.56,1.56,0,0,1,0-.24.42.42,0,0,1,.19-.29.45.45,0,0,1,.29,0,1.06,1.06,0,0,0,.15,0H61a2.35,2.35,0,0,1,.68.08l.25.09c0-.14.07-.27.1-.38a29.92,29.92,0,0,1-3.63.27h0a3.31,3.31,0,0,1,.41.14l.1.06a.67.67,0,0,1,.26.31.88.88,0,0,1,0,.4c0,.09,0,.16,0,.21v.07h0a.15.15,0,0,0,0,.06l-.08-.07a.28.28,0,0,1-.05-.08.51.51,0,0,1-.13-.09,1.67,1.67,0,0,0-.16-.12l0,0,0,0-.08-.06-.13.09a3.3,3.3,0,0,1-.32.18l-.09,0-.15,0a1,1,0,0,1-.24,0l-.23,0-.14,0-.05,0h0a1.08,1.08,0,0,0-.3-.11l-.14,0-.12,0h0l-.14,0-.1,0,.08,0a1.24,1.24,0,0,1,.23-.11l.15-.06.18-.06.39-.08.39,0h.1l-.06-.05h-.15a4.73,4.73,0,0,0-.53,0,3.92,3.92,0,0,1-.48,0,2.51,2.51,0,0,1-.34,0l-.13,0,.12-.05.32-.11c.14,0,.3-.09.47-.12l.3-.05H55.25a4,4,0,0,1-.39,2.29.57.57,0,0,1-.47.23h0a1.29,1.29,0,0,1-.25,0l-.2.49a6.08,6.08,0,0,0-.44,1.75c-.07,1.05.86,1.42,1.47,1.55l.45.07a1.41,1.41,0,0,0,1.21-.58l-.27.11-.89.34h0l0,0,.47-.82.26-.45c-.12-.14-.25-.27-.37-.42l-.25-.3c-.08-.1-.15-.21-.22-.31s-.26-.39-.36-.56a4.75,4.75,0,0,1-.3-.57s.15.21.4.5a8.5,8.5,0,0,0,1,1l.29.23a9.82,9.82,0,0,0,.84.55l.36.21A3.27,3.27,0,0,0,59.16,32.53Zm1.07-1.84c.1,0,.19,0,.25,0l.09,0h0l-.07,0-.24.06a2.81,2.81,0,0,1-.35.06l-.39,0h-.4c-.13,0-.24,0-.34,0h-.24l-.09,0,.07-.08a.35.35,0,0,1,.09-.07.59.59,0,0,1,.14-.06,1.74,1.74,0,0,1,.36-.08l.39,0h.4A3.27,3.27,0,0,1,60.23,30.69Zm-.33.62.17,0,.07,0-.06,0-.17.06a1.83,1.83,0,0,1-.25.06l-.28,0H59.1a1.57,1.57,0,0,1-.24,0l-.18,0,0,0h0l.07,0a1.07,1.07,0,0,1,.17-.06,1.4,1.4,0,0,1,.24-.06l.28,0h.28A1.9,1.9,0,0,1,59.9,31.31Z"/><path class="cls-4" d="M61.47,27.5l.07.05s.07.07.11.1.05.07.07.09l0,0h0c0-.16.09-.32.13-.47h-.12l-.07.07a.88.88,0,0,1-.19.12Z"/><path class="cls-2" d="M69.66,57.42a15.32,15.32,0,0,1-.33-2.3c0-.68,0-1.25,0-1.65s.05-.63.05-.63-.05.23-.1.62a14.3,14.3,0,0,0-.08,1.66,13.16,13.16,0,0,0,.26,2.35,12.69,12.69,0,0,0,.33,1.28q.09.33.21.66l.22.64.24.64.24.64c.15.42.3.84.42,1.25.06.2.12.4.17.6s.11.39.16.58q.14.57.24,1.08c0,.17.06.33.08.48.06.31.1.58.14.82s0,.23,0,.33c0,.4.07.62.07.62s0-.23,0-.63-.07-1-.17-1.65c-.06-.34-.12-.7-.2-1.09,0-.19-.09-.39-.14-.59s-.1-.41-.16-.62c-.23-.83-.56-1.69-.87-2.54A19,19,0,0,1,69.66,57.42Z"/><path class="cls-1" d="M51.56,25.15c.06.18.12.36.19.53.13.34.26.67.37.92s.1.24.14.32h0a11.17,11.17,0,0,0,1.82,1.72l.22.12h0a5.17,5.17,0,0,0,.14-2.1l0-.45.45,0h1l2.32,0h.14c.73,0,1.48,0,2.18-.1l.59,0,1-.1c.34,0,.68-.11,1-.18a8.11,8.11,0,0,0,.85-.25,4.7,4.7,0,0,0,.58-.24l.22-.1-.23.06-.27.06-.34.08c-.23.06-.5.1-.79.16a3,3,0,0,0-.82-1l-.69.08-1.33.12-.49,0c-.67.05-1.37.09-2.08.12s-1.42.08-2.1.05a7.69,7.69,0,0,1-1.41-.16l-.41-.1-.37-.12a4.8,4.8,0,0,1-.59-.27,2.36,2.36,0,0,1-.23-.13l-.3-.2-.1-.08a3.53,3.53,0,0,0,.43.23,3.19,3.19,0,0,0,.51.2l.33.1.37.07a7.23,7.23,0,0,0,1.77.06c.64-.05,1.33-.17,2-.28,1.29-.21,2.56-.44,3.55-.65a12.26,12.26,0,0,0-.78-2.45l-.19-.38L60,20.49a5,5,0,0,0-1.74-1.74,4.58,4.58,0,0,0-2.59-.55,3.77,3.77,0,0,1,.58-.14,5.41,5.41,0,0,1,.82-.1l.41,0h.41a7.17,7.17,0,0,1,.81.07l.39.07a5.86,5.86,0,0,1,1.11.4,5.2,5.2,0,0,1,.64.39,5,5,0,0,1,.56.45,5.61,5.61,0,0,1,.85,1,9.35,9.35,0,0,1,.55,1l.19.43.14.38c.08.23.14.41.17.54l.06.19,0-.19c0-.13-.08-.32-.14-.55l-.12-.39c-.06-.14-.11-.29-.17-.45a7,7,0,0,0-.52-1,5.45,5.45,0,0,0-.84-1.08,5,5,0,0,0-1.23-.91,5.18,5.18,0,0,0-1.56-.5,6.84,6.84,0,0,0-1.69-.06,5,5,0,0,0-.84.11,4.7,4.7,0,0,0-.82.21,5.13,5.13,0,0,0-.76.33,1.55,1.55,0,0,0-.35.21l-.34.22a4.59,4.59,0,0,0-1,1.15,2.49,2.49,0,0,0-.19.3l-.15.32-.08.15-.05.16-.12.3c-.06.2-.11.4-.16.58s-.07.37-.1.54,0,.33-.05.48,0,.28,0,.4,0,.23,0,.33v.44a.81.81,0,0,0-.52.62,1.22,1.22,0,0,0,0,.27A1.56,1.56,0,0,0,51.56,25.15Z"/><path class="cls-2" d="M66.67,43.17a7.66,7.66,0,0,1-.33-1c0-.06,0-.12,0-.17a.6.6,0,0,1,0-.12l0-.1s0,.14,0,.4,0,.29.08.46a5.89,5.89,0,0,0,.16.59l.12.33a5.43,5.43,0,0,0,.32.7c.06.12.13.24.2.36.23.36.48.71.7,1.09a2.82,2.82,0,0,1,.21.38,5.53,5.53,0,0,1,.34.79,6.21,6.21,0,0,1,.24.81,14.35,14.35,0,0,1,.28,1.47c0,.44.1.81.13,1.06s.05.41.05.41v-.41c0-.26,0-.63,0-1.07a11.44,11.44,0,0,0-.2-1.51c-.06-.28-.14-.56-.23-.84a6.58,6.58,0,0,0-.34-.83,17,17,0,0,0-1-1.47A7,7,0,0,1,66.67,43.17Z"/><path class="cls-2" d="M66.63,38c0-.11,0-.26-.09-.43a5.31,5.31,0,0,0-.13-.55,8.55,8.55,0,0,0-.49-1.34,6.54,6.54,0,0,0-.88-1.4c-.09-.11-.19-.21-.29-.31l-.31-.28a4.79,4.79,0,0,0-.67-.47,2.91,2.91,0,0,0-.35-.18,4.05,4.05,0,0,0-.69-.24l-.32-.06a3.42,3.42,0,0,0-1,0l-.28.06-.1,0,.1,0,.28,0a3.84,3.84,0,0,1,1,.1l.31.08a4.64,4.64,0,0,1,1,.45l.32.21a4.49,4.49,0,0,1,.86.83,6.46,6.46,0,0,1,.88,1.32,10.14,10.14,0,0,1,.55,1.29c.13.39.24.72.31,1l.1.36S66.66,38.25,66.63,38Z"/><path class="cls-2" d="M63.44,30.26l-.16-.15-.06-.05.05.06.13.17.47.61c.2.24.42.54.66.85s.48.65.71,1a10.8,10.8,0,0,1,.63,1,10.21,10.21,0,0,1,.46,1c.11.3.2.54.25.72a2.61,2.61,0,0,1,.08.28,2,2,0,0,0,0-.29,3,3,0,0,0-.06-.33,4.19,4.19,0,0,0-.1-.42c0-.16-.11-.32-.17-.49a4.16,4.16,0,0,0-.23-.54,8.62,8.62,0,0,0-.62-1.09c-.24-.35-.5-.69-.75-1S64.19,31,64,30.8s-.21-.22-.31-.31Z"/><path class="cls-2" d="M36.2,90.23,36,89.94a5.1,5.1,0,0,0-.31-.52,1.22,1.22,0,0,0-.89-.68,5.3,5.3,0,0,0-.76,0l.18,0a2.43,2.43,0,0,1,.36.16.57.57,0,0,1,.13.08l.1.07.08.07h-.11c-.06,0-.16,0-.27,0s-.24,0-.37,0l-.41,0a3.2,3.2,0,0,0-.41-.07l-.12,0a3.94,3.94,0,0,1-.59.11h.08l.35.13a2.48,2.48,0,0,1,.29.17.89.89,0,0,1,.17.16l.06.07h-.09s-.14,0-.23,0-.2,0-.3,0l-.34-.07-.34-.1L32,89.27l-.48.21a2.87,2.87,0,0,0-.86.6,1,1,0,0,0-.23.37l-.09.29a1.84,1.84,0,0,0-.05.5.66.66,0,0,0,0,.21,1.32,1.32,0,0,0,.52.28,3.27,3.27,0,0,0,.94.1h.59l-.58-.16-.7-.21-.5-.17s.5,0,1.25.08a19.69,19.69,0,0,0,2.71-.07c.55-.05,1.08-.12,1.58-.21l.47-.09C36.48,90.74,36.33,90.48,36.2,90.23Z"/><path class="cls-2" d="M43.26,66.68a6.8,6.8,0,0,0,.82-.14l.3-.08H43.24c-.34,0-.73,0-1.15,0l-.65,0-.66-.08a13.23,13.23,0,0,1-1.31-.23h0a11.58,11.58,0,0,1-2.78-1l-.37-.21-.56-.36c-.17.38-.32.77-.46,1.17a13.63,13.63,0,0,0,2.29,1.1l.77.27a16.74,16.74,0,0,0,1.84.49l1.14.23c0-.33,0-.66,0-1l.81.05A10.27,10.27,0,0,0,43.26,66.68Z"/><path class="cls-2" d="M39.93,71.73l-.9-.24L37.58,88.4A31.94,31.94,0,0,0,39,82.64l.82-8.54C39.85,73.31,39.86,72.52,39.93,71.73Z"/><path class="cls-2" d="M55.15,62.77l-.11.09-.15.11L54,63.7c-.37.3-.82.63-1.29,1s-1,.75-1.51,1.13-1,.75-1.53,1.08l-.73.48a7.09,7.09,0,0,1-.65.42c-.41.25-.75.47-1,.6l-.38.23h0l.39-.15c.26-.11.63-.26,1.07-.48s.93-.49,1.45-.81,1-.68,1.58-1l.76-.59.73-.59c.46-.39.87-.78,1.23-1.11l.25-.24.41-.42.16-.17.3-.33Z"/><path class="cls-2" d="M44.64,62.26a2.47,2.47,0,0,0,0-.51,4.12,4.12,0,0,0-.14-.7,6.9,6.9,0,0,0-.3-.78A4.75,4.75,0,0,0,43.29,59l0,0a3.86,3.86,0,0,0-.49-.5l-2.62,7c.32.07.66.13,1,.18l2.27-6a.75.75,0,0,0,.07.12,7.67,7.67,0,0,1,.36.7,7.55,7.55,0,0,1,.32.72c.09.23.19.45.25.64s.14.35.17.47l.07.18Z"/><path class="cls-2" d="M40.92,70c-.42-.09-.87-.19-1.34-.32a23,23,0,0,1-4.82-1.84,3.94,3.94,0,0,0,.07,1.14c.13.08.41.24.83.45a20.72,20.72,0,0,0,2.4,1l.8.26c.57.17,1.11.32,1.62.44A7.35,7.35,0,0,0,40.92,70Z"/><path class="cls-2" d="M85.75,89.33a3.35,3.35,0,0,0-.06-.36c-1.1-.29-2.71-.54-3.68.09a2.05,2.05,0,0,0-.83,1,2.39,2.39,0,0,0-.15.81,1.41,1.41,0,0,0,1.6,1.2c1,0,1.68,0,2.3-.07l0,0-.61,0c-.47,0-.94-.13-1.34-.21-.66-.13-1.13-.27-1.13-.27a15.7,15.7,0,0,0,2.46-.16,12.12,12.12,0,0,0,1.28-.25,3.31,3.31,0,0,0,.12-.42A4,4,0,0,0,85.75,89.33Zm-2.57.21.45,0,.45,0a3.08,3.08,0,0,1,.39.07,2,2,0,0,1,.28.08l.08,0h0l-.08,0c-.07,0-.17,0-.28.06s-.25,0-.39.06l-.45,0-.45,0c-.14,0-.27,0-.39-.05a1.49,1.49,0,0,1-.28-.06l-.1,0h0l.08,0a2,2,0,0,1,.28-.08A3.08,3.08,0,0,1,83.18,89.54ZM82.79,89a3.08,3.08,0,0,1,.39-.07l.45,0,.45,0c.15,0,.28,0,.39.06a2,2,0,0,1,.28.08l.08,0h0l-.1,0c-.07,0-.17.05-.28.06s-.25,0-.39,0l-.45,0-.45,0-.39,0c-.11,0-.21,0-.28-.06l-.1,0,.1,0Z"/><path class="cls-2" d="M41.26,68.22c-.39-.07-.79-.14-1.22-.24a17.86,17.86,0,0,1-3.8-1.25c-.53-.25-.92-.47-1.16-.61a9.06,9.06,0,0,0-.26,1.12l.68.35.49.23a23.61,23.61,0,0,0,3.72,1.32c.47.12.92.23,1.35.32,0-.2.09-.41.12-.61S41.24,68.43,41.26,68.22Z"/><path class="cls-2" d="M67.58,77.61A8,8,0,0,0,69.9,77c.21-.09.44-.19.67-.31a11.6,11.6,0,0,0,1.46-.9,13.57,13.57,0,0,0,2.29-2.11c-.08-.16-.16-.32-.26-.48a4.53,4.53,0,0,0-.3-.46,9.54,9.54,0,0,1-2.1,2.18,9.7,9.7,0,0,1-2.13,1.22l-.63.23a7.54,7.54,0,0,1-1.88.37A5.13,5.13,0,0,0,67.58,77.61Z"/><path class="cls-2" d="M69.32,78.36l.17,0,.29,0a8.29,8.29,0,0,0,3.69-2A17.62,17.62,0,0,0,74.77,75a5.49,5.49,0,0,0-.22-.82,15.24,15.24,0,0,1-2.22,2,10.28,10.28,0,0,1-4.22,1.88,2.26,2.26,0,0,0,.52.2,3,3,0,0,0,.32.06Z"/><path class="cls-2" d="M84.35,87l-.17-.23-1.79-2.1-3.48,2.7,1.69,2.13a2.92,2.92,0,0,1,.25-.4,2.66,2.66,0,0,1,.36-.4l-.24.1-.19.09L80.6,89l.12-.16a4.38,4.38,0,0,1,.37-.36,3.91,3.91,0,0,1,.62-.39,5.32,5.32,0,0,1,.79-.29,6.31,6.31,0,0,1,.83-.11q.4,0,.72,0l.5.09.19,0-.19,0-.27,0,.54.06c-.1-.21-.17-.47-.31-.73Zm-4.54,0,.43-.41.53-.42.57-.36.53-.28.4-.16.15,0-.1.13-.28.32-.44.4-.53.42-.57.36-.28.15-.25.13-.39.17-.12,0,0,0,0,0,.07-.1Z"/><path class="cls-2" d="M66.65,76.07s0,.09.08.14H67a6.17,6.17,0,0,0,.62-.07,8.56,8.56,0,0,0,1.48-.4l.35-.14a9.71,9.71,0,0,0,1.91-1.11,7.94,7.94,0,0,0,1.17-1q.26-.29.48-.57c.15-.19.29-.38.42-.56a5.44,5.44,0,0,0-.48-.48l.06-.09a7.59,7.59,0,0,0,.52-1,4,4,0,0,0,.16-.43c0-.13.08-.24.11-.34l0-.22,0-.07-.08.15-.06.12-.17.3-.22.39c-.16.29-.38.6-.61.94a9,9,0,0,1-.78,1c-.14.17-.28.33-.43.49s-.29.3-.44.44l-.31.28-.66.48a6.8,6.8,0,0,1-3.7,1.21h-.21C66.37,75.67,66.53,75.88,66.65,76.07Z"/><path class="cls-2" d="M65.4,74.55a3.11,3.11,0,0,0,1,.13l-3.8-5a1.54,1.54,0,0,0-.16.91,2.16,2.16,0,0,0,.12.45,1.92,1.92,0,0,0,.12.25,10.79,10.79,0,0,0,1.55,2l.39.42C64.9,74,65.16,74.28,65.4,74.55Z"/><path class="cls-2" d="M59.61,63.63l0,.06c.33.41.7.91,1.07,1.44l.19.27.15.22.3.44.42.65.39.62c.25.39.47.75.64,1a8.28,8.28,0,0,1,.82-.55,12.42,12.42,0,0,1,1.1-.58,8.55,8.55,0,0,1,1.32-.47,7.25,7.25,0,0,1,1.49-.25l-1.29-3.22,1.63,2.49A36.48,36.48,0,0,1,66.09,60c-.08-.36-.17-.72-.27-1.06-.31-1-.72-2-1-3h0c-.41.18-.83.36-1.21.54L62.53,57l-.76.33-.29.12.24-.21.67-.49c.29-.19.63-.4,1-.62s.79-.42,1.2-.61l.1,0c0-.13-.06-.26-.08-.39l-.07,0-1.74.73-.89.35-.86.35-.81.32-.72.29-.33.12-.55.21-.22.08-.17.07-.14,0-.11,0,.38-.24,1-.58c.43-.23.93-.48,1.47-.75s1.14-.52,1.74-.77,1.21-.46,1.77-.67l.16,0c0-.22-.05-.44-.06-.67-.43.11-.88.2-1.33.28s-.92.14-1.4.2a28.32,28.32,0,0,1-3,.16c-1,0-2.09-.06-3.19-.16a15.37,15.37,0,0,1-3.72-.84l-1.06-.42c-.5-.21-1-.43-1.36-.64l-.39-.2c-.48-.27-.87-.51-1.14-.68-.06.07-.12.15-.2.23-.63.69-1.41,1.48-2.23,2.42-.21.23-.42.48-.63.74a25.85,25.85,0,0,0-1.92,2.62,5.75,5.75,0,0,1,1.88,2.5,5.87,5.87,0,0,1,.24.63,13.66,13.66,0,0,1,.38,1.33c.31-.1.7-.22,1.09-.36.85-.28,1.68-.6,1.68-.6s-.74.49-1.52,1c-.26.16-.53.32-.77.45a4.93,4.93,0,0,0,.73-.27c.24-.11.49-.23.73-.36.5-.26,1-.56,1.58-.86a15.4,15.4,0,0,1,2.58-1.12l-.17-.06a16.05,16.05,0,0,0-2.79-.53l-.28,0-.25,0-.41,0h-.27l.27,0,.41,0,.25,0h.29a16.53,16.53,0,0,1,2.9.11,17.1,17.1,0,0,1,2.65.55,16.52,16.52,0,0,1,3,1.16c.67.38,1.3.78,1.9,1.2a11.93,11.93,0,0,1,1.44,1.34c.37.43.66.81.86,1.07l.29.43-.1-.09-.11-.12-.16-.15c-.23-.24-.56-.57-1-.94L60,63.42l-.36-.3c-.25-.2-.52-.4-.81-.59l-.25-.16a15.23,15.23,0,0,1,1.07,1.26ZM52,54.45l-.65-.32c-.19-.1-.36-.18-.49-.26l-.41-.26h0l.23.09.19.07.24.09.28.1.32.11.36.11a16.41,16.41,0,0,0,1.73.46,17.34,17.34,0,0,0,2,.35c.34,0,.69.09,1,.11l1,.06a17.15,17.15,0,0,0,1.78,0l.72,0,.29,0,.26,0,.2,0,.28,0-.12,0-.34.1c-.15.05-.34.09-.55.14s-.45.1-.71.14a17,17,0,0,1-1.81.18,18.72,18.72,0,0,1-2.09-.1,20,20,0,0,1-2.05-.43A15.86,15.86,0,0,1,52,54.45Zm-4.42-1.27.13.13.11.09.26.25.35.32.39.4.45.43.47.47.5.47c.31.34.64.66.95,1s.58.6.83.84l.58.61.21.24-.27-.16-.71-.47L50.89,57c-.33-.29-.67-.6-1-.92s-.64-.68-.93-1-.53-.66-.74-.94l-.47-.7Z"/><path class="cls-2" d="M37.26,64.47c.24.12.52.24.82.36l2.8-7.32a5,5,0,0,0-.94-.23Z"/><path class="cls-2" d="M34,83.62c.17.08.39.16.66.26L36,70.39l-.56-.26L35,69.9q0,.16,0,.39c0,.14,0,.31,0,.5,0,.65-.11,1.5-.18,2.46,0,.28-.05.56-.07.85-.15,1.87-.33,4-.51,5.69-.09.78-.17,1.47-.25,2s-.17,1.13-.27,1.68Z"/><path class="cls-2" d="M37.39,84.59l1.14-13.25-.76-.25L36.39,84.38l.48.1Z"/><path class="cls-2" d="M49,44.55c.47,1.79-.05,2.39-.05,3.67a4.5,4.5,0,0,1-.45,2.58,19,19,0,0,0,3.72,1.82l.53.18a14,14,0,0,0,2.91.6,33.05,33.05,0,0,0,3.38.15c.56,0,1.12,0,1.67,0s1.2-.09,1.77-.17a15.21,15.21,0,0,0,1.63-.31,14.87,14.87,0,0,0,1.44-.39c.66-.21,1.22-.43,1.66-.62l.4-.19.32-.15.24-.12.19-.11-.21.06-.25.08-.34.1-.43.12-.49.13-1.2.28-1.11.2c0-.58,0-1.17,0-1.77a9.53,9.53,0,0,0-.17-2.85c0-.12-.07-.27-.11-.43-.1-.41-.21-.93-.34-1.45s-.21-.86-.33-1.25c0-.2-.11-.38-.17-.55A4.58,4.58,0,0,0,63,43.5a2.54,2.54,0,0,1-.33-1.16l-.56,0a4.66,4.66,0,0,1-1.25-.17l-.38-.1c-.21-.06-.43-.12-.67-.17a6.26,6.26,0,0,0-2.35.14,5.46,5.46,0,0,1-1.34.15l-.27,0a2,2,0,0,1-.68-.3,2.9,2.9,0,0,1-.55-.46,19.09,19.09,0,0,0-2.67-.28l-.74,0c0,.12-.08.26-.14.4s-.2.45-.31.67-.27.44-.4.63a6.46,6.46,0,0,1-.41.51,4.48,4.48,0,0,1-.33.32l-.14.12.08-.16.21-.41.15-.26a2.88,2.88,0,0,1,.16-.29c.11-.2.23-.42.34-.64s.24-.43.35-.63l.15-.29-.54,0A7.78,7.78,0,0,1,49,40.8a3.82,3.82,0,0,1-.53-.2A8.29,8.29,0,0,1,47,39.72a7.66,7.66,0,0,0,.62,1.76C48.51,43.33,48.55,42.76,49,44.55Zm13.74,2.39h0l-.2.23c-.15.15-.35.38-.62.62a12.11,12.11,0,0,1-.94.79c-.36.27-.75.54-1.15.8s-.84.48-1.24.68a11,11,0,0,1-1.12.49c-.33.14-.63.21-.83.28l-.31.08.07-.05.21-.13.73-.44c.32-.17.66-.4,1-.62s.79-.46,1.18-.72l1.17-.73c.36-.25.73-.45,1-.66s.55-.34.72-.46l.21-.13ZM60.25,49.6l.48-.25c.15-.08.3-.13.43-.19s.24-.09.31-.12l.13,0-.09.1a1.79,1.79,0,0,1-.24.24,4,4,0,0,1-.37.3l-.46.29-.49.24-.24.09-.21.07a2.18,2.18,0,0,1-.33.08l-.13,0,.09-.08.12-.1.15-.11a4.4,4.4,0,0,1,.39-.26Zm.7-7.3-.34.44-.41.48-.54.61c-.42.43-.92.92-1.46,1.43s-1.18,1-1.8,1.51c-.33.24-.65.47-1,.69s-.64.44-1,.65c-.65.39-1.25.74-1.78,1l-.38.19-.92.44-.51.21.43-.34c.29-.2.68-.5,1.15-.87s1-.75,1.63-1.21,1.22-.91,1.84-1.4,1.26-.94,1.84-1.41,1.14-.86,1.6-1.24L60,43l.49-.39Zm-2.89.27c-.05.08-.09.17-.15.27a3.49,3.49,0,0,1-.21.33,9.43,9.43,0,0,1-.57.78c-.11.14-.23.27-.35.41l-.38.42-.41.39-.41.36-.4.32-.38.26-.32.21-.26.15-.24.12a2.24,2.24,0,0,0,.17-.2c.12-.11.27-.3.47-.5s.2-.21.31-.32l.35-.37c.25-.24.5-.5.76-.78s.52-.51.76-.77.49-.46.68-.67.38-.35.5-.47l.19-.17Z"/><path class="cls-2" d="M38.56,65a9.49,9.49,0,0,0,1.06.31l2.7-7.15-.18-.1L41.92,58l-.56-.26Z"/><path class="cls-2" d="M36,63.73l.32.21c.13.09.28.18.46.28l2.61-7a3.41,3.41,0,0,0-.46,0,1.92,1.92,0,0,0-.42.16,1.58,1.58,0,0,0-.48.38,3.37,3.37,0,0,0-.36.56l-.15.33a25.36,25.36,0,0,0-.74,2.84,9.27,9.27,0,0,1-.37,1.23c0,.13-.1.26-.15.38S36.11,63.54,36,63.73Z"/><path class="cls-2" d="M35.14,84l.75.21,1.38-13.34c-.28-.1-.53-.21-.77-.31Z"/><path class="cls-2" d="M80.31,90.39a2.46,2.46,0,0,1,.07-.33L71.29,78.6a6.39,6.39,0,0,1-1.23.42l1.5,1.76.75.88,2,2.27,1.38,1.58a48.27,48.27,0,0,0,3.86,4.38l.26.2A2.37,2.37,0,0,0,80.31,90.39Z"/><path class="cls-2" d="M37.35,85.1A16.19,16.19,0,0,1,33.55,84c-.31,1.75-.61,3.31-.67,4.25a3.06,3.06,0,0,0,.46-.13,2.15,2.15,0,0,1,.47-.13h-.75l.16-.09a4.34,4.34,0,0,1,.44-.19,5.09,5.09,0,0,1,.67-.12,3.68,3.68,0,0,1,.8.08,2.47,2.47,0,0,1,.73.35,2.36,2.36,0,0,1,.5.5,2.09,2.09,0,0,1,.21.44,1.64,1.64,0,0,1,0,.18L36.48,89a2.07,2.07,0,0,0-.33-.3,8,8,0,0,1,.72,1.17l.06.11Zm-2.87-.4.27.06.58.16.56.18a5,5,0,0,0,.5.17c.14.07.26.11.35.15l.14.06-.15,0-.39,0-.55,0c-.19,0-.4-.08-.61-.13l-.58-.23a2.8,2.8,0,0,1-.25-.14,2.11,2.11,0,0,1-.22-.14l-.31-.24-.08-.08,0,0,.15,0,.37.07Z"/><path class="cls-6" d="M87.13,88a2.15,2.15,0,0,0,.43-.74,1.86,1.86,0,0,0,.1-.48v-.37c0-.11,0-.23,0-.35a3,3,0,0,0-.11-.37,10.17,10.17,0,0,0-1.26-1.92c-.19-.26-.4-.54-.63-.83l-.35-.45-1.16-1.44-.83-1-.43-.51L81.55,78l-1.67-2-.57-.66-2.19-2.55a8.33,8.33,0,0,0-.74-2,5.94,5.94,0,0,0-.5-.77q-.15-.19-.33-.39a9.36,9.36,0,0,0-1.12-1.06,10.79,10.79,0,0,0-1.54-1.07A26.94,26.94,0,0,0,71,59.62a10.87,10.87,0,0,1-.92-3.8c0-.53-.07-1.06-.09-1.58l0-.78a18,18,0,0,0-.24-2.9c-.11-.52-.19-1.06-.27-1.58s-.18-1.22-.32-1.82a6,6,0,0,0-1.28-2.71,2.32,2.32,0,0,1-.29-.39,7.35,7.35,0,0,1-.77-2.93,2.36,2.36,0,0,1,0-.36c0-.09.08-.2.13-.35s.05-.15.07-.24.11-.37.16-.59a9.84,9.84,0,0,0,.18-1.16v0h0a10,10,0,0,0,0-1.57A11.05,11.05,0,0,0,67,35a11.32,11.32,0,0,0-2.43-4.38l-.34-.4-.49-.54-.47-.48-.3-.29c-.17-.17-.33-.31-.46-.43l.06-.19a2.08,2.08,0,0,0,.57.1,1.08,1.08,0,0,0,.42-.08.6.6,0,0,0,.16-.08A.59.59,0,0,0,64,28l.06-.08a2.44,2.44,0,0,0,.15-.35s0-.05,0-.08a2.29,2.29,0,0,0,.07-.28,6.65,6.65,0,0,0,.11-.81,2.5,2.5,0,0,0,.43-.23L65,26a1.08,1.08,0,0,0,.38-.87,2.1,2.1,0,0,0-.79-1.32l-.3-.26a9.92,9.92,0,0,0-.93-3,8.38,8.38,0,0,0-.6-1,6.35,6.35,0,0,0-1-1.15,4.69,4.69,0,0,0-.68-.49,5.45,5.45,0,0,0-1.54-.67A6.7,6.7,0,0,0,57.74,17c-3.25,0-5.41,1.56-6.18,4.36a8.67,8.67,0,0,0-.31,2.13.76.76,0,0,0-.09.09l-.09.09a2.13,2.13,0,0,0-.17.25c0,.05,0,.11-.08.17a1.7,1.7,0,0,0-.11.68,2.45,2.45,0,0,0,.12.6c.05.13.09.27.14.4l.15.4.23.55a.69.69,0,0,1,0,.13.2.2,0,0,1-.08,0A.72.72,0,0,1,51,27h-.26a12.38,12.38,0,0,0-4,.62,4.48,4.48,0,0,0-.58.29l-1.69,1-.69-.84c.1-.08.21-.15.3-.23a6.63,6.63,0,0,0,.52-.43,1.37,1.37,0,0,0,.17-.19l0,0a.92.92,0,0,0,.17-.51,2.31,2.31,0,0,0,0-.62,5.53,5.53,0,0,0-.22-1c-.08-.25-.16-.5-.26-.74s-.2-.47-.3-.7a11.59,11.59,0,0,0,1.59-1.32c1.09-1,2.52-2.45,4-4,.72-.77,1.45-1.55,2.13-2.31s1.33-1.5,1.9-2.17c1.36-1.61,2.67-3.36,3.79-5,.38-.54.73-1.06,1.06-1.55.49-.75.92-1.43,1.27-2,.12-.2.23-.38.32-.55a12.66,12.66,0,0,0,.63-1.19A1.28,1.28,0,0,0,61,3.41a.24.24,0,0,0,0-.09,1.25,1.25,0,0,0,0-.21,1.33,1.33,0,0,0-.18-.57.88.88,0,0,0-.12-.17,5.57,5.57,0,0,0-4-1.53h-.11l-.34,0h-.08l-.35,0c-.67.11-1.19.84-2.59,2.77-.58.79-1.3,1.78-2.16,2.91l-.91,1.16c-.25.32-.52.66-.81,1-.56.69-1.17,1.42-1.83,2.17l-4.61,5.25-1,1.12L40.7,18.64l-1,1.12-.54,0a3.63,3.63,0,0,0-1.23.18,1.9,1.9,0,0,0-.45.23,1.45,1.45,0,0,0-.34.31.74.74,0,0,1-.09.12l-.12.13-.31.35c-.31.33-.6.66-.88,1a7.5,7.5,0,0,0-1.36,2.12,4.2,4.2,0,0,0-.6.27,4.48,4.48,0,0,0-.95.75c-.08.09-.17.18-.25.28l-.18.2-.5.54,0,0c-.23.25-.46.49-.68.74l-.32.39A3.39,3.39,0,0,0,30,29.43h0a8.14,8.14,0,0,0,.25,2.11,4.13,4.13,0,0,0,.14.42A3,3,0,0,0,31,33l.18.17a.59.59,0,0,0,0,.08,1.59,1.59,0,0,0,.36.64,1.71,1.71,0,0,0,.25.22,1.37,1.37,0,0,0,.8.3,1.07,1.07,0,0,0,.32,0q0,.21.09.45c0,.08,0,.16.05.25s0,.33.08.49,0,.45.06.62,0,.26,0,.41a5,5,0,0,0,.63,2.78l.24.42c.06.12.13.24.2.36a4.76,4.76,0,0,0,.71,1,2.61,2.61,0,0,0,.31.27,2.1,2.1,0,0,0,.74.34,2.15,2.15,0,0,0,.45,0,2.43,2.43,0,0,0,.38,0,7.62,7.62,0,0,0,1-.23,20.33,20.33,0,0,0,3-1.16l.5-.27a3,3,0,0,0,1.29.29,2.3,2.3,0,0,0,.37,0,2.32,2.32,0,0,0,.38-.07,3.9,3.9,0,0,0,1.76-1c.12-.11.23-.23.34-.35a3.11,3.11,0,0,0,.23-.28l.24.23.13.11a4.5,4.5,0,0,0,.16,1.1,9.55,9.55,0,0,0,.62,1.7c.27.57.47.93.62,1.19,0,.08.09.16.14.23a3.08,3.08,0,0,1,.41.92c0,.16.11.35.17.6s.06.25.08.36a4,4,0,0,1,0,1.36c0,.15,0,.3-.07.46s0,.19-.05.29a2.91,2.91,0,0,0,0,.31,5,5,0,0,0,0,.7v.32c0,.13,0,.25,0,.37h0c0,.13,0,.26,0,.38a3.09,3.09,0,0,1-.09.53A1.18,1.18,0,0,1,48,50a1.81,1.81,0,0,1-.16.35,4.51,4.51,0,0,1-.71,1l-.72.77c-.62.65-1.3,1.38-2,2.22a27.9,27.9,0,0,0-2.16,2.93L42,57.14c-.2-.09-.42-.19-.65-.27a6.94,6.94,0,0,0-.73-.24,5.06,5.06,0,0,0-1.15-.16h0l-.36,0a1.75,1.75,0,0,0-.33.06,2.46,2.46,0,0,0-.61.22,2.36,2.36,0,0,0-.42.28,3.78,3.78,0,0,0-1.06,1.79c-.18.54-.31,1.12-.44,1.7s-.28,1.23-.46,1.78c-.07.19-.13.36-.21.53v0a25.83,25.83,0,0,0-1,2.45l-.15.43A8.34,8.34,0,0,0,34,68a4.32,4.32,0,0,0,.26,1.68c0,.48-.14,1.88-.27,3.6,0,.29,0,.58-.07.88s0,.61-.08.92l-.12,1.41c-.05.63-.11,1.25-.16,1.85-.13,1.34-.27,2.55-.39,3.37-.16,1.08-.35,2.18-.52,3.14s-.35,1.93-.43,2.59a9,9,0,0,0-.1,1,5.46,5.46,0,0,0-1.61.82l-.1.07a2.07,2.07,0,0,0-.66.9,3.31,3.31,0,0,0-.15.58,1.9,1.9,0,0,0,.06,1,1.44,1.44,0,0,0,.2.39,1.26,1.26,0,0,0,.32.33,1.81,1.81,0,0,0,.41.23,3.17,3.17,0,0,0,1.14.18h1l.59,0,1.41,0h1.69a22.82,22.82,0,0,0,4.11-.36l.47-.12a2,2,0,0,0,1.6-2,1.71,1.71,0,0,0,0-.32,4.23,4.23,0,0,0-.1-.73,5.41,5.41,0,0,1,0-1c.08-1.41.37-4,.67-6.48,0-.29.07-.59.11-.88s.11-.86.16-1.27.13-1.07.19-1.56l.12-1q.06-.47.12-.9c.07-.59.14-1.14.2-1.64.08-.72.15-1.34.2-1.8,0-.18,0-.34,0-.48a2.37,2.37,0,0,1,.2-.41l.15-.27c.05-.09.11-.18.15-.27.2-.33.39-.66.55-1a5.78,5.78,0,0,0,.31-.68,8.22,8.22,0,0,0,.91-.31l.4-.17.62-.3.7-.37.56-.32.26-.15c.56-.34,1.07-.68,1.58-1,1-.69,2-1.39,2.86-2.07l1.06-.79,1-.74c.31-.21.63-.42.92-.59l.33-.15.12-.05a.92.92,0,0,1,.3-.07.91.91,0,0,1,.45.18,5.7,5.7,0,0,1,.74.62,8.7,8.7,0,0,1,.86,1l.49.67c.12.16.23.32.34.49l.36.52.6.91.24.38c.32.5.61,1,.85,1.36a2.42,2.42,0,0,0-.52,1.93,2.76,2.76,0,0,0,.3.86,7.54,7.54,0,0,0,.71,1.06l.3.36c.41.49.87,1,1.33,1.48l.6.65h0c.21.24.42.47.59.68a5.58,5.58,0,0,1,.44.59q.19.31.36.63a4.4,4.4,0,0,0,.9,1.27,2.34,2.34,0,0,0,.34.26,3.54,3.54,0,0,0,1.53.47c.72.85,3.19,3.74,5,5.83l1,1.08c.43.48.84,1,1.24,1.48l.22.27a16,16,0,0,0,2.82,3,3.87,3.87,0,0,0,.47.28,3.08,3.08,0,0,0,.47.19,2.05,2.05,0,0,0,1.15,1.42,3,3,0,0,0,.51.17,3.37,3.37,0,0,0,.66.06,22.74,22.74,0,0,0,2.66-.11,7.93,7.93,0,0,0,.85-.14l.4-.1.12,0a1.53,1.53,0,0,0,.89-1.14.17.17,0,0,0,0-.07,3.22,3.22,0,0,0,.08-.66v0A6.09,6.09,0,0,0,87.13,88ZM84.34,91.3a15.7,15.7,0,0,1-2.46.16s.47.14,1.13.27c.4.08.87.16,1.34.21L85,92l0,0c-.62.06-1.35.07-2.3.07a1.41,1.41,0,0,1-1.6-1.2,2.39,2.39,0,0,1,.15-.81,2.05,2.05,0,0,1,.83-1c1-.63,2.58-.38,3.68-.09a3.35,3.35,0,0,1,.06.36,4,4,0,0,1,0,1.3,3.31,3.31,0,0,1-.12.42A12.12,12.12,0,0,1,84.34,91.3ZM58.54,62.37l.25.16c.29.19.56.39.81.59l.36.3.32.29c.43.37.76.7,1,.94l.16.15.11.12.1.09-.29-.43c-.2-.26-.49-.64-.86-1.07a11.93,11.93,0,0,0-1.44-1.34c-.6-.42-1.23-.82-1.9-1.2a16.52,16.52,0,0,0-3-1.16,17.1,17.1,0,0,0-2.65-.55,16.53,16.53,0,0,0-2.9-.11H48.3l-.25,0-.41,0-.27,0h.27l.41,0,.25,0,.28,0a16.05,16.05,0,0,1,2.79.53l.17.06A15.4,15.4,0,0,0,49,61.06c-.57.3-1.08.6-1.58.86-.24.13-.49.25-.73.36a4.93,4.93,0,0,1-.73.27c.24-.13.51-.29.77-.45.78-.46,1.52-1,1.52-1s-.83.32-1.68.6c-.39.14-.78.26-1.09.36a13.66,13.66,0,0,0-.38-1.33,5.87,5.87,0,0,0-.24-.63,5.75,5.75,0,0,0-1.88-2.5A25.85,25.85,0,0,1,44.86,55c.21-.26.42-.51.63-.74.82-.94,1.6-1.73,2.23-2.42.08-.08.14-.16.2-.23.27.17.66.41,1.14.68l.39.2c.4.21.86.43,1.36.64l1.06.42a15.37,15.37,0,0,0,3.72.84c1.1.1,2.16.16,3.19.16a28.32,28.32,0,0,0,3-.16c.48-.06.94-.12,1.4-.2s.9-.17,1.33-.28c0,.23,0,.45.06.67l-.16,0c-.56.21-1.17.43-1.77.67s-1.19.52-1.74.77-1,.52-1.47.75l-1,.58-.38.24.11,0,.14,0,.17-.07.22-.08.55-.21.33-.12.72-.29.81-.32.86-.35.89-.35,1.74-.73.07,0c0,.13,0,.26.08.39l-.1,0c-.41.19-.82.4-1.2.61s-.71.43-1,.62l-.67.49-.24.21.29-.12.76-.33,1.06-.48c.38-.18.8-.36,1.21-.54h0c.28,1,.69,2,1,3,.1.34.19.7.27,1.06a36.48,36.48,0,0,0,1.8,5.75l-1.63-2.49,1.29,3.22a7.25,7.25,0,0,0-1.49.25,8.55,8.55,0,0,0-1.32.47,12.42,12.42,0,0,0-1.1.58,8.28,8.28,0,0,0-.82.55c-.17-.28-.39-.64-.64-1l-.39-.62-.42-.65-.3-.44-.15-.22-.19-.27c-.37-.53-.74-1-1.07-1.44l0-.06h0A15.23,15.23,0,0,0,58.54,62.37Zm-3.6.66-.16.17-.41.42-.25.24c-.36.33-.77.72-1.23,1.11l-.73.59-.76.59c-.53.37-1.07.73-1.58,1s-1,.59-1.45.81-.81.37-1.07.48l-.39.15h0l.38-.23c.25-.13.59-.35,1-.6a7.09,7.09,0,0,0,.65-.42l.73-.48c.5-.33,1-.7,1.53-1.08s1-.76,1.51-1.13.92-.71,1.29-1l.92-.73.15-.11.11-.09.09-.07Zm-18.51-.24a9.27,9.27,0,0,0,.37-1.23,25.36,25.36,0,0,1,.74-2.84l.15-.33a3.37,3.37,0,0,1,.36-.56,1.58,1.58,0,0,1,.48-.38,1.92,1.92,0,0,1,.42-.16,3.41,3.41,0,0,1,.46,0l-2.61,7c-.18-.1-.33-.19-.46-.28L36,63.73c.09-.19.17-.38.26-.56S36.39,62.92,36.43,62.79ZM52,23.94V23.5c0-.1,0-.21,0-.33s0-.26,0-.4,0-.31.05-.48.07-.35.1-.54.1-.38.16-.58l.12-.3.05-.16.08-.15.15-.32a2.49,2.49,0,0,1,.19-.3,4.59,4.59,0,0,1,1-1.15l.34-.22a1.55,1.55,0,0,1,.35-.21,5.13,5.13,0,0,1,.76-.33,4.7,4.7,0,0,1,.82-.21,5,5,0,0,1,.84-.11,6.84,6.84,0,0,1,1.69.06,5.18,5.18,0,0,1,1.56.5,5,5,0,0,1,1.23.91,5.45,5.45,0,0,1,.84,1.08,7,7,0,0,1,.52,1c.06.16.11.31.17.45l.12.39c.06.23.11.42.14.55l0,.19-.06-.19c0-.13-.09-.31-.17-.54L63,21.75l-.19-.43a9.35,9.35,0,0,0-.55-1,5.61,5.61,0,0,0-.85-1,5,5,0,0,0-.56-.45,5.2,5.2,0,0,0-.64-.39,5.86,5.86,0,0,0-1.11-.4L58.72,18a7.17,7.17,0,0,0-.81-.07H57.5l-.41,0a5.41,5.41,0,0,0-.82.1,3.77,3.77,0,0,0-.58.14,4.58,4.58,0,0,1,2.59.55A5,5,0,0,1,60,20.49l.21.36.19.38a12.26,12.26,0,0,1,.78,2.45c-1,.21-2.26.44-3.55.65-.7.11-1.39.23-2,.28a7.23,7.23,0,0,1-1.77-.06l-.37-.07-.33-.1a3.19,3.19,0,0,1-.51-.2,3.53,3.53,0,0,1-.43-.23l.1.08.3.2a2.36,2.36,0,0,0,.23.13,4.8,4.8,0,0,0,.59.27l.37.12.41.1a7.69,7.69,0,0,0,1.41.16c.68,0,1.39,0,2.1-.05s1.41-.07,2.08-.12l.49,0,1.33-.12.69-.08a3,3,0,0,1,.82,1c.29-.06.56-.1.79-.16l.34-.08.27-.06.23-.06-.22.1a4.7,4.7,0,0,1-.58.24,8.11,8.11,0,0,1-.85.25c-.32.07-.66.13-1,.18l-1,.1-.59,0c-.7.06-1.45.1-2.18.1h-.14l-2.32,0h-1l-.45,0,0,.45a5.17,5.17,0,0,1-.14,2.1h0l-.22-.12a11.17,11.17,0,0,1-1.82-1.72h0c0-.08-.09-.19-.14-.32s-.24-.58-.37-.92c-.07-.17-.13-.35-.19-.53a1.56,1.56,0,0,1-.07-.32,1.22,1.22,0,0,1,0-.27A.81.81,0,0,1,52,23.94ZM79.78,90.09l-.26-.2a48.27,48.27,0,0,1-3.86-4.38l-1.38-1.58-2-2.27-.75-.88L70.06,79a6.39,6.39,0,0,0,1.23-.42l9.09,11.46a2.46,2.46,0,0,0-.07.33A2.37,2.37,0,0,1,79.78,90.09ZM62.7,71.3a1.92,1.92,0,0,1-.12-.25,2.16,2.16,0,0,1-.12-.45,1.54,1.54,0,0,1,.16-.91l3.8,5a3.11,3.11,0,0,1-1-.13c-.24-.27-.5-.54-.76-.82l-.39-.42A10.79,10.79,0,0,1,62.7,71.3ZM43.86,39.06l-.39-.57c-.16-.23-.36-.49-.58-.76s-.23-.26-.34-.4l-.38-.39-.39-.39-.4-.37L41,35.83l-.33-.32a3.57,3.57,0,0,0-1-.57,2.7,2.7,0,0,1,.38-.37l1.35-1.08.27.28.62.7c.55.64,1.19,1.41,1.79,2.15a6.45,6.45,0,0,1-.65.63l.06.09a4.6,4.6,0,0,1,.42,1A3.78,3.78,0,0,1,44,39c0,.18,0,.28,0,.28Zm-9.11-9.4h0l-.06-.09h0L34.19,29l-.71-.62a4.3,4.3,0,0,0-.85-.52,1.87,1.87,0,0,0-.89-.1,1.17,1.17,0,0,0-.3.1c.3-.4.68-.79,1-1.18a1.62,1.62,0,0,1,.34.1,2.8,2.8,0,0,1,.72.32,4,4,0,0,1,.74.53c.26.2.51.4.74.6s.46.36.65.52l.09.08.09.25v0c0,.15.18.77-.17,1s-.48.12-.52.08ZM33.18,26a2.5,2.5,0,0,1,.22-.24l.1,0a4.43,4.43,0,0,1,.83.24,3.85,3.85,0,0,1,.88.4,4.23,4.23,0,0,1,.81.54,3.63,3.63,0,0,1,.35.3,2.65,2.65,0,0,1,.29.29.46.46,0,0,1,.07.07l.11.23a1.15,1.15,0,0,1,.12.51.41.41,0,0,1-.05.19c-.09.14-.36.21-.75.19h-.22l-.06-.09c-.16-.2-.35-.42-.56-.66L35,27.6l-.37-.33a4.58,4.58,0,0,0-.86-.54,3.53,3.53,0,0,0-.87-.21h-.21C32.84,26.33,33,26.14,33.18,26Zm1.39-1a3.3,3.3,0,0,1,2.63,1.73.59.59,0,0,1-.23.73l0,0,0-.07a4.34,4.34,0,0,0-.57-.74,4.77,4.77,0,0,0-.86-.66,5,5,0,0,0-1-.39l-.4-.06-.37,0A3.09,3.09,0,0,1,34.57,24.91Zm.64-.73,3.29-.84-2.87.11c.14-.19.28-.39.43-.58l3.31-.62-2.69-.1c.11-.14.23-.26.34-.39l3.2-.46-2.59-.21.13-.16a1,1,0,0,1,.61-.34,3.56,3.56,0,0,1,.8-.08l.52,0,.3,0a3.48,3.48,0,0,1,1.06.52,4.45,4.45,0,0,1,.48.38,9.78,9.78,0,0,1,1.7,2,8.28,8.28,0,0,1,.46.89,8.7,8.7,0,0,1,.45,1.33,3.15,3.15,0,0,1,.13.93,14.13,14.13,0,0,1-2.42,1.75,2.74,2.74,0,0,1-.77.27,6,6,0,0,1-.84,0,5.62,5.62,0,0,0-.09-.57h.14l.76-.09a1.18,1.18,0,0,0,.5-.19,2.73,2.73,0,0,0,.36-.3l.63-.58.56-.51.54-.49-2,1.28a2.7,2.7,0,0,1-.35.21.66.66,0,0,1-.31.06l-.74,0-.32,0c-.05-.12-.1-.25-.15-.36l-.12-.23h.1l.76-.09a1.18,1.18,0,0,0,.5-.19,2.73,2.73,0,0,0,.36-.3l.63-.58.3-.27.8-.73-2,1.28a2.7,2.7,0,0,1-.35.21.66.66,0,0,1-.31.06l-.74,0-.58,0a2.71,2.71,0,0,0-.73-.57,2.45,2.45,0,0,0-1.52-.3,3.69,3.69,0,0,0-.83-.59,3.32,3.32,0,0,0-1-.34C35.16,24.29,35.19,24.24,35.21,24.18Zm6.13-5.1L42,18.3c.25-.29.52-.6.82-.93.44-.51.94-1.07,1.48-1.68l1.13-1.29c.4-.45.82-.92,1.25-1.42l1.36-1.55c3.45-3.94,5.51-7,6.71-8.6a6.92,6.92,0,0,1,.8-.94.7.7,0,0,1,.35-.22h0c-.46.71-1.3,2-2.29,3.4-.32.46-.67.94-1,1.42-.49.66-1,1.31-1.45,1.91-1.42,1.81-2.63,3.2-2.63,3.2l.39-.41.21-.21L50.3,9.75,51,9c.61-.69,1.29-1.46,1.94-2.26l.35-.42c1.73-2.1,3.26-4.21,3.59-4.68A6,6,0,0,1,58.75,2l-.61,1.54L59.3,2.25l.29.16.23.17c-1.25,1.85-2.59,3.79-4,5.7s-2.79,3.76-4.2,5.43C49.7,16,47.83,18,46.34,19.52c.38-.49.77-1,1.16-1.53l3.59-4.7.18-.25L48.2,16.32,47,17.58c-1.06,1.13-2.13,2.29-2.92,3.11l-.37.36c-.35.33-.63.57-.81.71a9.28,9.28,0,0,0-.83-.83l4.64-5.83-5.21,5.38a5.09,5.09,0,0,0-.95-.53C40.77,19.73,41,19.43,41.34,19.08Zm30,43.43c.06.21.11.42.16.62s.1.4.14.59c.08.39.14.75.2,1.09.1.68.14,1.26.17,1.65s0,.63,0,.63,0-.22-.07-.62c0-.1,0-.21,0-.33s-.08-.51-.14-.82c0-.15-.05-.31-.08-.48q-.11-.51-.24-1.08c0-.19-.1-.38-.16-.58s-.11-.4-.17-.6c-.12-.41-.27-.83-.42-1.25l-.24-.64-.24-.64L70,59.41q-.12-.33-.21-.66a12.69,12.69,0,0,1-.33-1.28,13.16,13.16,0,0,1-.26-2.35,14.3,14.3,0,0,1,.08-1.66c0-.39.1-.62.1-.62s0,.23-.05.63,0,1,0,1.65a15.32,15.32,0,0,0,.33,2.3A19,19,0,0,0,70.45,60C70.76,60.82,71.09,61.68,71.32,62.51ZM73,68.57l.2.14L73,68.64c-.14-.06-.35-.12-.59-.21s-.54-.17-.84-.27-.63-.19-1-.27-.66-.17-1-.23L69,67.54l2.87,4a9.64,9.64,0,0,1-.66.8l-3.65-5a5.34,5.34,0,0,1,.8,0l.22,0h.63a3.87,3.87,0,0,1,.48,0c.33,0,.67.11,1,.19a9.37,9.37,0,0,1,1,.32,7.74,7.74,0,0,1,.81.39A4.42,4.42,0,0,1,73,68.57Zm-1.26,9.81c.26-.14.53-.29.82-.48l6.88,8.4-.88.68Zm2-1.37,7,8.26-.92.72L73,77.61C73.26,77.43,73.51,77.23,73.78,77Zm8.28,7.28L81.2,85l-7-8.28c.29-.26.55-.51.79-.76ZM84.82,88l-.54-.06.27,0,.19,0-.19,0-.5-.09q-.31,0-.72,0a6.31,6.31,0,0,0-.83.11,5.32,5.32,0,0,0-.79.29,3.91,3.91,0,0,0-.62.39,4.38,4.38,0,0,0-.37.36L80.6,89l.18-.08.19-.09.24-.1a2.66,2.66,0,0,0-.36.4,2.92,2.92,0,0,0-.25.4l-1.69-2.13,3.48-2.7,1.79,2.1.17.23.16.26C84.65,87.53,84.72,87.79,84.82,88ZM63,69.21c.16-.12.43-.33.8-.56L68,74.4a5.52,5.52,0,0,1-1,.24l-4.11-5.39Zm1.24-.83a9,9,0,0,1,1.12-.55L69.5,73.7a7.66,7.66,0,0,1-1,.51Zm1.61-.74.57-.17.59-.13,3.87,5.33a6.83,6.83,0,0,1-.92.75Zm-31-36.06L33.2,32.69l-.15-.19a2.64,2.64,0,0,0-.37-.31,1.43,1.43,0,0,0-.41-.17l.51-.6c.15-.18.28-.33.37-.45l.16.09.21.08a3.78,3.78,0,0,0,.53.16.93.93,0,0,0,.78-.12.84.84,0,0,0,.27-.33,1.13,1.13,0,0,0,.8-.13l-1.88,2Zm1.7-2.26a1.18,1.18,0,0,0,.9-.48,1.08,1.08,0,0,0,.15-.57,1.88,1.88,0,0,0-.08-.51,1,1,0,0,0,.19-.23,1.33,1.33,0,0,0,.16-.78,1.62,1.62,0,0,1,.46.91,1.1,1.1,0,0,1,0,.18c0,.11,0,.22,0,.31l-1.9,2a1.41,1.41,0,0,0,.09-.41A1.87,1.87,0,0,0,36.55,29.32Zm2.17,5.51a8.46,8.46,0,0,0-.4-1.75l.08-.21a5.16,5.16,0,0,1,.21-.49c0-.09.08-.16.12-.24A3.16,3.16,0,0,0,39,30.88a4.37,4.37,0,0,0,.51.79l.23.27a7.82,7.82,0,0,0,.66.6c.15.12.28.23.43.37l-.07.05-.92.75-.33.27a3.7,3.7,0,0,0-.49.46l-.17.21C38.81,34.71,38.77,34.77,38.72,34.83Zm3.73-1.38a1.88,1.88,0,0,1-.12-.18,1.11,1.11,0,0,1-.18-.61,1.74,1.74,0,0,1,.29-.72c.34-.54.7-1.05,1.07-1.56a8.29,8.29,0,0,1,.74-.55l.24.23c.66.61,1.92,1.76,3,2.67a15,15,0,0,0,3,2.2c0,.06,0,.12,0,.2s0,.21,0,.33a2.8,2.8,0,0,1,0,.4,4.32,4.32,0,0,1-.16.74l-.09.24,0,.09.06-.07a.36.36,0,0,0,.08-.09l.09-.11a3.58,3.58,0,0,0,.43-.69,4.78,4.78,0,0,0,.29-.78h0a2,2,0,0,0,.23.06,5.76,5.76,0,0,0,.84.13A17,17,0,0,0,53,38.31l-.84.08c-.78.07-1.57.12-1.57.12s.74.27,1.49.52l.24.08L51.44,39l-.87-.11-.59-.1a2.82,2.82,0,0,1-.8-.3,18.35,18.35,0,0,1-1.93-1.33Zm15.12-1.2L57.21,32a9.82,9.82,0,0,1-.84-.55l-.29-.23a8.5,8.5,0,0,1-1-1c-.25-.29-.4-.5-.4-.5a4.75,4.75,0,0,0,.3.57c.1.17.22.36.36.56s.14.21.22.31l.25.3c.12.15.25.28.37.42l-.26.45-.47.82,0,0h0l.89-.34.27-.11a1.41,1.41,0,0,1-1.21.58L55,33.29c-.61-.13-1.54-.5-1.47-1.55A6.08,6.08,0,0,1,53.92,30l.2-.49a1.29,1.29,0,0,0,.25,0h0a.57.57,0,0,0,.47-.23A4,4,0,0,0,55.25,27h2.19l-.3.05c-.17,0-.33.09-.47.12l-.32.11-.12.05.13,0a2.51,2.51,0,0,0,.34,0,3.92,3.92,0,0,0,.48,0,4.73,4.73,0,0,1,.53,0h.15l.06.05h-.1l-.39,0-.39.08-.18.06-.15.06a1.24,1.24,0,0,0-.23.11l-.08,0,.1,0,.14,0h0l.12,0,.14,0a1.08,1.08,0,0,1,.3.11h0l.05,0,.14,0,.23,0a1,1,0,0,0,.24,0l.15,0,.09,0a3.3,3.3,0,0,0,.32-.18l.13-.09.08.06,0,0,0,0a1.67,1.67,0,0,1,.16.12.51.51,0,0,0,.13.09.28.28,0,0,0,.05.08l.08.07a.15.15,0,0,1,0-.06h0v-.07c0-.05,0-.12,0-.21a.88.88,0,0,0,0-.4.67.67,0,0,0-.26-.31l-.1-.06a3.31,3.31,0,0,0-.41-.14h0A29.92,29.92,0,0,0,62,26.78c0,.11-.06.24-.1.38l-.25-.09A2.35,2.35,0,0,0,61,27h-.19a1.06,1.06,0,0,1-.15,0,.45.45,0,0,0-.29,0,.42.42,0,0,0-.19.29,1.56,1.56,0,0,0,0,.24v.09a.38.38,0,0,0,0,.1,2.7,2.7,0,0,0,.08.47l.17.64a2.7,2.7,0,0,0,.09.36.86.86,0,0,1,.06.33.27.27,0,0,1,0,.12.54.54,0,0,1-.09.12.38.38,0,0,1-.13.09h-.18l-.33,0a2.36,2.36,0,0,0-.37,0l-.09,0-.09,0a.41.41,0,0,1-.11.07l-.18.11-.07.05h.19l.47,0a2.1,2.1,0,0,0,.69,0,1.07,1.07,0,0,0,.38-.2.61.61,0,0,0,.23-.42,1.36,1.36,0,0,0-.09-.43,3.58,3.58,0,0,1-.11-.35,2.52,2.52,0,0,0-.13-.33l-.13-.29,0-.07.11.08.11,0,.11,0a.78.78,0,0,0,.22,0,1,1,0,0,0,.31-.16,1.38,1.38,0,0,1,.35-.23l.06,0,.09,0-.29,1c-.11.35-.22.7-.34,1s-.16.41-.24.59a5.58,5.58,0,0,1-1,1.77,1,1,0,0,1-.21.16,1.39,1.39,0,0,1-.52.17A3.27,3.27,0,0,1,57.57,32.25Zm4.14-4.89.07-.07h.12c0,.15-.08.31-.13.47h0l0,0s0-.07-.07-.09-.07-.08-.11-.1l-.07-.05.05,0A.88.88,0,0,0,61.71,27.36Zm5,11-.1-.36c-.07-.24-.18-.57-.31-1a10.14,10.14,0,0,0-.55-1.29,6.46,6.46,0,0,0-.88-1.32,4.49,4.49,0,0,0-.86-.83l-.32-.21a4.64,4.64,0,0,0-1-.45l-.31-.08a3.84,3.84,0,0,0-1-.1l-.28,0-.1,0,.1,0,.28-.06a3.42,3.42,0,0,1,1,0l.32.06a4.05,4.05,0,0,1,.69.24,2.91,2.91,0,0,1,.35.18,4.79,4.79,0,0,1,.67.47l.31.28c.1.1.2.2.29.31a6.54,6.54,0,0,1,.88,1.4A8.55,8.55,0,0,1,66.41,37a5.31,5.31,0,0,1,.13.55c0,.17.06.32.09.43S66.68,38.39,66.68,38.39ZM54.54,39.83c-.11-.16-.22-.33-.32-.51S54,39,54,38.77s-.15-.38-.22-.57-.12-.38-.17-.57c0,0,0-.05,0-.08A18.06,18.06,0,0,1,53,35.38l.89-.06.3,0,1.06-.07a6.5,6.5,0,0,0,2.4-.74A7.14,7.14,0,0,1,62,33.67a10,10,0,0,1,1.29.27l.32.29a4.4,4.4,0,0,1,1,1.45A4.07,4.07,0,0,1,64.9,37l-4.77,1.79,3.25-.4a28.32,28.32,0,0,1-3.39.7c-.57.09-1.14.15-1.72.2s-1.16.07-1.75.08l-1.48,0a1.42,1.42,0,0,0,.08.18l.23.47.22.42.35.62.14.25-.07,0-.08,0-.1-.06-.27-.19a3.76,3.76,0,0,1-.32-.28A4.34,4.34,0,0,1,54.54,39.83ZM43.78,29.22c-.34.23-.71.52-1.07.82l-.35.31-.66.6-.29.27-.25.25a1.64,1.64,0,0,1-.14-.22A1,1,0,0,1,40.9,31a.88.88,0,0,1-.06-.48,1.37,1.37,0,0,1,.38-.63,9.07,9.07,0,0,1,1.87-1.56C43.31,28.65,43.56,29,43.78,29.22Zm-10,5.21c-.05-.26-.1-.48-.13-.62l.69-.7a6.12,6.12,0,0,1,.44,1,2.42,2.42,0,0,0,.16.39,1.62,1.62,0,0,0,.19.29l-.45-.07A5.5,5.5,0,0,1,33.77,34.43Zm32.42,41h.21a6.8,6.8,0,0,0,3.7-1.21l.66-.48.31-.28c.15-.14.3-.29.44-.44s.29-.32.43-.49a9,9,0,0,0,.78-1c.23-.34.45-.65.61-.94l.22-.39.17-.3.06-.12.08-.15,0,.07,0,.22c0,.1-.06.21-.11.34a4,4,0,0,1-.16.43,7.59,7.59,0,0,1-.52,1l-.06.09a5.44,5.44,0,0,1,.48.48c-.13.18-.27.37-.42.56s-.31.38-.48.57a7.94,7.94,0,0,1-1.17,1,9.71,9.71,0,0,1-1.91,1.11l-.35.14a8.56,8.56,0,0,1-1.48.4,6.17,6.17,0,0,1-.62.07h-.26s0-.1-.08-.14S66.37,75.67,66.19,75.44ZM67,76.71a7.54,7.54,0,0,0,1.88-.37l.63-.23a9.7,9.7,0,0,0,2.13-1.22,9.54,9.54,0,0,0,2.1-2.18,4.53,4.53,0,0,1,.3.46c.1.16.18.32.26.48A13.57,13.57,0,0,1,72,75.76a11.6,11.6,0,0,1-1.46.9c-.23.12-.46.22-.67.31a8,8,0,0,1-2.32.64A5.13,5.13,0,0,1,67,76.71Zm1.61,1.54a2.26,2.26,0,0,1-.52-.2,10.28,10.28,0,0,0,4.22-1.88,15.24,15.24,0,0,0,2.22-2,5.49,5.49,0,0,1,.22.82,17.62,17.62,0,0,1-1.3,1.27,8.29,8.29,0,0,1-3.69,2l-.29,0-.17,0-.37,0A3,3,0,0,1,68.63,78.25ZM64.7,31.61c.25.31.51.65.75,1a8.62,8.62,0,0,1,.62,1.09,4.16,4.16,0,0,1,.23.54c.06.17.12.33.17.49a4.19,4.19,0,0,1,.1.42,3,3,0,0,1,.06.33,2,2,0,0,1,0,.29,2.61,2.61,0,0,0-.08-.28c0-.18-.14-.42-.25-.72a10.21,10.21,0,0,0-.46-1,10.8,10.8,0,0,0-.63-1c-.23-.35-.47-.69-.71-1s-.46-.61-.66-.85l-.47-.61-.13-.17-.05-.06.06.05.16.15.23.23c.1.09.2.2.31.31S64.45,31.31,64.7,31.61ZM47.15,29.73a6,6,0,0,1,.84.81,4.52,4.52,0,0,1,.32.43l0,0a3.45,3.45,0,0,0-.2-.46,6.05,6.05,0,0,0-.67-1c-.07-.09-.15-.17-.22-.25a5.86,5.86,0,0,0-.45-.43l-.22-.17.11-.07a2.58,2.58,0,0,1,.44-.22,9.65,9.65,0,0,1,2.81-.54l.89,0H51a1.5,1.5,0,0,0,.75-.21A13.52,13.52,0,0,0,53,28.75a4,4,0,0,0,.46.38c-.08.16-.15.34-.23.55a6.83,6.83,0,0,0-.51,2c-.1,1.54,1.25,2.33,2.63,2.43h.17a2,2,0,0,0,1-.24,2.36,2.36,0,0,0,.47-.34,2.75,2.75,0,0,0,.33-.37.94.94,0,0,0,.12-.18,3.87,3.87,0,0,0,.82.24,1.86,1.86,0,0,0,.34,0c-.42.16-.81.33-1.19.5a6.18,6.18,0,0,1-2.14.68l-.39,0-.35,0-.62.05a7.18,7.18,0,0,1-2.3-.06,5.18,5.18,0,0,1-1.85-1c-.23-.16-.46-.34-.71-.54l.11-.89-.54.53-.6-.5c-.52-.45-1.09-.95-1.61-1.42L45,29.52l.82-.5.32.13A5.49,5.49,0,0,1,47.15,29.73Zm-15.88-1.6a.93.93,0,0,1,.49-.05,1.3,1.3,0,0,1,.69.22,3.93,3.93,0,0,1,.71.51l.74.56c.24.17.46.33.64.48l.1.08,0,.44a.43.43,0,0,1-.14.29.29.29,0,0,1-.25,0,3.11,3.11,0,0,1-.69-.24l-.09-.08-.18-.14-.06,0a4.62,4.62,0,0,0-.5-.37,1.55,1.55,0,0,0-.22-.12.75.75,0,0,0-.24-.08.58.58,0,0,0-.48.11.82.82,0,0,0-.19.55,6.08,6.08,0,0,0,.06,1.54l-.27.31a5.3,5.3,0,0,1-.56-2.68A2.31,2.31,0,0,1,31.27,28.13Zm.5,4.44a.36.36,0,0,1,.23-.08.75.75,0,0,1,.33.09,1,1,0,0,1,.17.12.8.8,0,0,1,.17.15,1.15,1.15,0,0,1,.19.26.93.93,0,0,1,.1.26.4.4,0,0,1-.09.4.31.31,0,0,1-.23.08.87.87,0,0,1-.5-.2,1.29,1.29,0,0,1-.17-.16C31.66,33.16,31.57,32.75,31.77,32.57ZM34,36.09a6.6,6.6,0,0,0-.09-.79,5,5,0,0,0,1.54.27,3.58,3.58,0,0,0,1-.13,3.81,3.81,0,0,0,1.5-.76c0,.25.07.5.1.7h0a1.16,1.16,0,0,0,0,.13c0,.08,0,.2,0,.34a6,6,0,0,1-.09,1,5.72,5.72,0,0,1-.18.81,6.28,6.28,0,0,1-.25.69s.12-.16.28-.41a6.29,6.29,0,0,0,.52-1,6.82,6.82,0,0,0,.36-1.08v0a1.32,1.32,0,0,0,.63-.57l-.08.29a5.06,5.06,0,0,1,2.14,1.6l-1.44,1.3,1.47-.36a14.41,14.41,0,0,1-3.54,1.69,4.24,4.24,0,0,1-2.11.23l0,0a7.93,7.93,0,0,1-.53-.87,9.23,9.23,0,0,1-.61-1.41,9.43,9.43,0,0,0,.25,1.55c0,.06,0,.12,0,.18l-.32-.58a3.83,3.83,0,0,1-.35-.79,3,3,0,0,1-.09-.38A9.8,9.8,0,0,1,34,36.09Zm13,3.63a8.29,8.29,0,0,0,1.47.88,3.82,3.82,0,0,0,.53.2,7.78,7.78,0,0,0,1.34.22l.54,0-.15.29c-.11.2-.22.42-.35.63s-.23.44-.34.64a2.88,2.88,0,0,0-.16.29l-.15.26-.21.41-.08.16.14-.12a4.48,4.48,0,0,0,.33-.32,6.46,6.46,0,0,0,.41-.51c.13-.19.27-.41.4-.63s.22-.45.31-.67.1-.28.14-.4l.74,0a19.09,19.09,0,0,1,2.67.28,2.9,2.9,0,0,0,.55.46,2,2,0,0,0,.68.3l.27,0a5.46,5.46,0,0,0,1.34-.15,6.26,6.26,0,0,1,2.35-.14c.24,0,.46.11.67.17l.38.1a4.66,4.66,0,0,0,1.25.17l.56,0A2.54,2.54,0,0,0,63,43.5a4.58,4.58,0,0,1,.29.65c.06.17.12.35.17.55.12.39.23.82.33,1.25s.24,1,.34,1.45c0,.16.07.31.11.43a9.53,9.53,0,0,1,.17,2.85c0,.6-.06,1.19,0,1.77l1.11-.2,1.2-.28.49-.13.43-.12.34-.1.25-.08.21-.06-.19.11-.24.12-.32.15-.4.19c-.44.19-1,.41-1.66.62a14.87,14.87,0,0,1-1.44.39,15.21,15.21,0,0,1-1.63.31c-.57.08-1.17.14-1.77.17s-1.11,0-1.67,0a33.05,33.05,0,0,1-3.38-.15,14,14,0,0,1-2.91-.6l-.53-.18a19,19,0,0,1-3.72-1.82A4.5,4.5,0,0,0,49,48.22c0-1.28.52-1.88.05-3.67s-.51-1.22-1.38-3.07A7.66,7.66,0,0,1,47,39.72ZM39.84,74.1,39,82.64a31.94,31.94,0,0,1-1.44,5.76L39,71.49l.9.24C39.86,72.52,39.85,73.31,39.84,74.1ZM36.63,91l-.47.09c-.5.09-1,.16-1.58.21a19.69,19.69,0,0,1-2.71.07c-.75,0-1.25-.08-1.25-.08l.5.17.7.21.58.16h-.59a3.27,3.27,0,0,1-.94-.1,1.32,1.32,0,0,1-.52-.28.66.66,0,0,1,0-.21,1.84,1.84,0,0,1,.05-.5l.09-.29a1,1,0,0,1,.23-.37,2.87,2.87,0,0,1,.86-.6l.48-.21.27.08.34.1.34.07c.1,0,.21,0,.3,0s.18,0,.23,0h.09l-.06-.07a.89.89,0,0,0-.17-.16,2.48,2.48,0,0,0-.29-.17l-.35-.13h-.08a3.94,3.94,0,0,0,.59-.11l.12,0a3.2,3.2,0,0,1,.41.07l.41,0c.13,0,.26,0,.37,0s.21,0,.27,0h.11l-.08-.07-.1-.07a.57.57,0,0,0-.13-.08,2.43,2.43,0,0,0-.36-.16l-.18,0a5.3,5.3,0,0,1,.76,0,1.22,1.22,0,0,1,.89.68,5.1,5.1,0,0,1,.31.52l.16.29C36.33,90.48,36.48,90.74,36.63,91Zm.3-1-.06-.11a8,8,0,0,0-.72-1.17,2.07,2.07,0,0,1,.33.3l.13.13a1.64,1.64,0,0,0,0-.18,2.09,2.09,0,0,0-.21-.44,2.36,2.36,0,0,0-.5-.5,2.47,2.47,0,0,0-.73-.35,3.68,3.68,0,0,0-.8-.08,5.09,5.09,0,0,0-.67.12,4.34,4.34,0,0,0-.44.19l-.16.09h.75a2.15,2.15,0,0,0-.47.13,3.06,3.06,0,0,1-.46.13c.06-.94.36-2.5.67-4.25a16.19,16.19,0,0,0,3.8,1.11Zm-3-8.18c.08-.53.16-1.22.25-2,.18-1.7.36-3.82.51-5.69,0-.29,0-.57.07-.85.07-1,.14-1.81.18-2.46,0-.19,0-.36,0-.5s0-.28,0-.39l.45.23.56.26L34.65,83.88c-.27-.1-.49-.18-.66-.26l-.35-.15C33.74,82.92,33.83,82.35,33.91,81.79Zm7-24.28-2.8,7.32c-.3-.12-.58-.24-.82-.36l2.68-7.19A5,5,0,0,1,40.88,57.51Zm1,.44.22.11.18.1-2.7,7.15A9.49,9.49,0,0,1,38.56,65l2.8-7.31Zm2.72,4.5-.07-.18c0-.12-.1-.28-.17-.47s-.16-.41-.25-.64a7.55,7.55,0,0,0-.32-.72,7.67,7.67,0,0,0-.36-.7.75.75,0,0,1-.07-.12l-2.27,6c-.34,0-.68-.11-1-.18l2.62-7a3.86,3.86,0,0,1,.49.5l0,0a4.75,4.75,0,0,1,.88,1.26,6.9,6.9,0,0,1,.3.78,4.12,4.12,0,0,1,.14.7,2.47,2.47,0,0,1,0,.51ZM36.39,84.38l1.38-13.29.76.25L37.39,84.59l-.52-.11Zm.88-13.47L35.89,84.25,35.14,84,36.5,70.6C36.74,70.7,37,70.81,37.27,70.91Zm3.21.17c-.51-.12-1-.27-1.62-.44l-.8-.26a20.72,20.72,0,0,1-2.4-1c-.42-.21-.7-.37-.83-.45a3.94,3.94,0,0,1-.07-1.14,23,23,0,0,0,4.82,1.84c.47.13.92.23,1.34.32A7.35,7.35,0,0,1,40.48,71.08Zm.58-1.62c-.43-.09-.88-.2-1.35-.32A23.61,23.61,0,0,1,36,67.82l-.49-.23-.68-.35a9.06,9.06,0,0,1,.26-1.12c.24.14.63.36,1.16.61A17.86,17.86,0,0,0,40,68c.43.1.83.17,1.22.24,0,.21,0,.42-.08.63S41.1,69.26,41.06,69.46Zm1-2.7-.81-.05c0,.34,0,.67,0,1l-1.14-.23A16.74,16.74,0,0,1,38.31,67l-.77-.27a13.63,13.63,0,0,1-2.29-1.1c.14-.4.29-.79.46-1.17l.56.36.37.21a11.58,11.58,0,0,0,2.78,1h0a13.23,13.23,0,0,0,1.31.23l.66.08.65,0c.42,0,.81,0,1.15,0h1.14l-.3.08a6.8,6.8,0,0,1-.82.14A10.27,10.27,0,0,1,42.08,66.76ZM68.31,46a6.58,6.58,0,0,1,.34.83c.09.28.17.56.23.84a11.44,11.44,0,0,1,.2,1.51c0,.44,0,.81,0,1.07v.41s0-.15-.05-.41-.08-.62-.13-1.06a14.35,14.35,0,0,0-.28-1.47,6.21,6.21,0,0,0-.24-.81,5.53,5.53,0,0,0-.34-.79,2.82,2.82,0,0,0-.21-.38c-.22-.38-.47-.73-.7-1.09-.07-.12-.14-.24-.2-.36a5.43,5.43,0,0,1-.32-.7l-.12-.33a5.89,5.89,0,0,1-.16-.59c0-.17-.06-.33-.08-.46s0-.4,0-.4l0,.1a.6.6,0,0,0,0,.12s0,.11,0,.17a7.66,7.66,0,0,0,.33,1,7,7,0,0,0,.69,1.32A17,17,0,0,1,68.31,46Z"/><path class="cls-6" d="M48.21,54.16c.21.28.46.6.74.94s.6.67.93,1,.68.63,1,.92l.94.73.71.47.27.16-.21-.24L52,57.54c-.25-.24-.53-.53-.83-.84s-.64-.62-.95-1l-.5-.47-.47-.47-.45-.43-.39-.4-.35-.32-.26-.25-.11-.09-.13-.13.16.28Z"/><path class="cls-6" d="M53.72,55.08a20,20,0,0,0,2.05.43,18.72,18.72,0,0,0,2.09.1,17,17,0,0,0,1.81-.18c.26,0,.5-.09.71-.14s.4-.09.55-.14l.34-.1.12,0-.28,0-.2,0-.26,0-.29,0-.72,0a17.15,17.15,0,0,1-1.78,0l-1-.06c-.34,0-.69-.06-1-.11a17.34,17.34,0,0,1-2-.35,16.41,16.41,0,0,1-1.73-.46l-.36-.11L51.42,54l-.28-.1-.24-.09-.19-.07-.23-.09h0l.41.26c.13.08.3.16.49.26l.65.32A15.86,15.86,0,0,0,53.72,55.08Z"/><path class="cls-6" d="M60.51,42.63,60,43l-.65.49c-.46.38-1,.8-1.6,1.24s-1.2,1-1.84,1.41-1.24,1-1.84,1.4-1.14.87-1.63,1.21-.86.67-1.15.87l-.43.34.51-.21.92-.44.38-.19c.53-.29,1.13-.64,1.78-1,.31-.21.63-.42,1-.65s.65-.45,1-.69c.62-.5,1.23-1,1.8-1.51s1-1,1.46-1.43l.54-.61.41-.48L61,42.3Z"/><path class="cls-6" d="M58,42.51c-.12.12-.3.27-.5.47s-.44.42-.68.67-.5.52-.76.77-.51.54-.76.78l-.35.37c-.11.11-.21.23-.31.32s-.35.39-.47.5a2.24,2.24,0,0,1-.17.2l.24-.12.26-.15.32-.21.38-.26.4-.32.41-.36.41-.39.38-.42c.12-.14.24-.27.35-.41a9.43,9.43,0,0,0,.57-.78,3.49,3.49,0,0,0,.21-.33c.06-.1.1-.19.15-.27l.11-.23Z"/><path class="cls-6" d="M61.76,47.57c-.29.21-.66.41-1,.66L59.57,49c-.39.26-.8.5-1.18.72s-.72.45-1,.62l-.73.44-.21.13-.07.05.31-.08c.2-.07.5-.14.83-.28a11,11,0,0,0,1.12-.49c.4-.2.82-.43,1.24-.68s.79-.53,1.15-.8a12.11,12.11,0,0,0,.94-.79c.27-.24.47-.47.62-.62l.2-.23h0l-.07,0-.21.13C62.31,47.23,62.05,47.37,61.76,47.57Z"/><path class="cls-6" d="M59.4,50.14l-.15.11-.12.1-.09.08.13,0a2.18,2.18,0,0,0,.33-.08l.21-.07.24-.09.49-.24.46-.29a4,4,0,0,0,.37-.3,1.79,1.79,0,0,0,.24-.24l.09-.1-.13,0c-.07,0-.19.06-.31.12s-.28.11-.43.19l-.48.25-.46.28A4.4,4.4,0,0,0,59.4,50.14Z"/><path class="cls-6" d="M82.79,89.61a2,2,0,0,0-.28.08l-.08,0h0l.1,0a1.49,1.49,0,0,0,.28.06c.12,0,.25.05.39.05l.45,0,.45,0c.14,0,.27,0,.39-.06s.21,0,.28-.06l.08,0h0l-.08,0a2,2,0,0,0-.28-.08,3.08,3.08,0,0,0-.39-.07l-.45,0-.45,0A3.08,3.08,0,0,0,82.79,89.61Z"/><path class="cls-6" d="M82.41,89.11l.1,0c.07,0,.17,0,.28.06l.39,0,.45,0,.45,0c.14,0,.27,0,.39,0s.21,0,.28-.06l.1,0h0l-.08,0a2,2,0,0,0-.28-.08c-.11,0-.24,0-.39-.06l-.45,0-.45,0a3.08,3.08,0,0,0-.39.07l-.28.09Z"/><path class="cls-6" d="M34.24,84.63l-.37-.07-.15,0,0,0,.08.08.31.24a2.11,2.11,0,0,0,.22.14,2.8,2.8,0,0,0,.25.14l.58.23c.21,0,.42.1.61.13l.55,0,.39,0,.15,0-.14-.06c-.09,0-.21-.08-.35-.15a5,5,0,0,1-.5-.17l-.56-.18-.58-.16-.27-.06Z"/><path class="cls-6" d="M79.45,87.4l0,0,0,0,.12,0,.39-.17.25-.13.28-.15.57-.36.53-.42.44-.4.28-.32.1-.13-.15,0-.4.16-.53.28-.57.36-.53.42-.43.41-.29.31Z"/><path class="cls-6" d="M41.15,22.36c-.11.09-.25.17-.38.28l-.41.35-.38.37a12,12,0,0,0-.54.59l-.06.08,0,0,.11-.06c.07,0,.17-.1.28-.19s.24-.17.37-.28l.41-.34.39-.37.32-.34c.1-.1.16-.19.22-.25l.07-.11-.11.07Z"/><path class="cls-6" d="M42.25,23.38l-.16.08a4,4,0,0,0-.37.22L41.3,24l-.39.3c-.12.09-.23.2-.33.28l-.22.22-.08.08.11,0,.28-.14.17-.1.2-.12.41-.27.4-.3.33-.29.22-.21.08-.09-.11.05Z"/><path class="cls-6" d="M59.48,30.65l-.39,0a1.74,1.74,0,0,0-.36.08.59.59,0,0,0-.14.06.35.35,0,0,0-.09.07l-.07.08.09,0h.24c.1,0,.21,0,.34,0h.4l.39,0a2.81,2.81,0,0,0,.35-.06l.24-.06.07,0h0l-.09,0c-.06,0-.15,0-.25,0a3.27,3.27,0,0,0-.35,0Z"/><path class="cls-6" d="M59.65,31.28h-.28l-.28,0a1.4,1.4,0,0,0-.24.06,1.07,1.07,0,0,0-.17.06l-.07,0h0l0,0,.18,0a1.57,1.57,0,0,0,.24,0h.28l.28,0a1.83,1.83,0,0,0,.25-.06l.17-.06.06,0-.07,0-.17,0A1.9,1.9,0,0,0,59.65,31.28Z"/></g></g></svg>