<svg width="60" height="48" viewBox="0 0 60 48" fill="none" xmlns="http://www.w3.org/2000/svg">
<g id="Group 6">
<path id="Vector" d="M23.4785 15.5503C25.032 16.476 26.5761 17.3914 28.1197 18.3066C31.4494 20.2805 34.7768 22.2532 38.191 24.3251C36.097 25.6232 33.7297 26.9923 31.2395 28.4315L31.1598 28.4776C28.6637 29.9201 26.0486 31.4315 23.4785 33.0042V15.5503Z" stroke="black"/>
<path id="Vector_2" d="M7.2351 46.4355L7.23315 46.4351C5.70727 46.0834 4.39288 45.3059 3.43271 44.1874L3.42929 44.1835C2.70463 43.3569 2.09427 42.053 1.60974 40.1567L1.60884 40.1533C1.19873 38.5945 1.03619 37.2971 0.801787 34.0372C0.443115 26.6785 0.358217 20.6732 0.801039 13.9675C0.836128 13.6118 0.869351 13.2522 0.90278 12.8903C1.0461 11.339 1.19322 9.74656 1.50757 8.24321C1.895 6.39035 2.52353 4.74813 3.65049 3.5577C4.74 2.41767 5.99279 1.69723 7.38984 1.39944L7.3913 1.39913C8.51525 1.15604 11.5583 0.928771 15.6671 0.764136C19.7537 0.600389 24.8434 0.5 30.0222 0.5C35.1893 0.5 40.2787 0.600388 44.3683 0.764136C48.48 0.928772 51.5292 1.15605 52.6543 1.39915L52.6554 1.39937C54.4024 1.77287 56.0477 2.89505 57.0117 4.33134C58.9502 7.81767 59.1738 12.0766 59.3672 15.7602C59.388 16.1563 59.4084 16.5457 59.4306 16.9267C59.5231 18.7626 59.5231 29.2326 59.4306 31.0683C59.0785 37.2054 58.7969 39.3062 58.0249 41.4788L58.0239 41.4818C57.5455 42.8564 57.1523 43.5446 56.4756 44.3145C55.4045 45.5091 54.0498 46.2969 52.5942 46.5875C42.7383 47.4308 34.366 47.6139 24.8591 47.4406C13.4067 47.2004 9.56974 46.9835 7.2351 46.4355Z" stroke="black"/>
</g>
</svg>
