<svg width="40" height="40" viewBox="0 0 40 40" fill="none" xmlns="http://www.w3.org/2000/svg">
<g id="Group 10461">
<g id="Group 10454">
<g id="Group">
<path id="Vector" d="M20 40C31.0457 40 40 31.0457 40 20C40 8.95436 31.0457 0 20 0C8.9543 0 0 8.95436 0 20C0 31.0457 8.9543 40 20 40Z" fill="#DFDFDF"/>
</g>
</g>
<g id="Icons">
<g id="XMLID_1845_">
<g id="XMLID_665_">
<path id="XMLID_2610_" d="M27.5092 7.02252C27.2323 6.88373 26.8863 6.95313 26.7478 7.23069C25.2252 10.284 24.8791 14.1699 26.1249 18.0559C27.3707 21.9419 29.9315 24.9258 32.9076 26.4524C33.1844 26.5912 33.5305 26.4524 33.6689 26.1748C35.1223 22.9134 35.4684 19.0968 34.2918 15.3496C33.1152 11.6718 30.6236 8.75733 27.5092 7.02252Z" fill="#9CEB60"/>
<path id="XMLID_2609_" d="M34.915 18.1947C32.9079 14.6557 29.5858 11.9494 25.5715 10.8391C25.7792 9.52065 26.1944 8.34097 26.7481 7.23069C26.8865 6.95313 27.2326 6.88373 27.5094 7.02252C30.6239 8.82672 33.1155 11.7412 34.2921 15.419C34.5689 16.3211 34.7766 17.2232 34.915 18.1947Z" fill="#C8FFA1"/>
<path id="XMLID_2608_" d="M27.5092 7.02252C27.2323 6.88373 26.8863 6.95313 26.7478 7.23069C25.2252 10.284 24.8791 14.1699 26.1249 18.0559C27.3707 21.9419 29.9315 24.9258 32.9076 26.4524C33.1844 26.5912 33.5305 26.4524 33.6689 26.1748C35.1223 22.9134 35.4684 19.0968 34.2918 15.3496C33.1152 11.6718 30.6236 8.75733 27.5092 7.02252Z" stroke="#45413C" stroke-width="1.006" stroke-miterlimit="10" stroke-linecap="round" stroke-linejoin="round"/>
<path id="XMLID_2607_" d="M24.5332 6.95422C24.8101 6.32968 24.464 5.63576 23.8411 5.49697C21.1419 4.80305 18.3043 4.80305 15.4666 5.70515C12.629 6.60725 10.2758 8.34206 8.47632 10.4238C8.06105 10.9096 8.19947 11.6729 8.75316 12.0199C11.9369 13.8935 14.6361 17.1549 15.9511 21.3185C17.2661 25.482 17.0585 29.6455 15.5358 33.0458C15.259 33.6703 15.605 34.3642 16.2279 34.503C18.9272 35.1969 21.7648 35.1969 24.6025 34.2948C27.4401 33.3927 29.7933 31.7273 31.5235 29.5762C31.9388 29.0904 31.8004 28.3271 31.2467 27.9801C28.063 26.1065 25.3638 22.8451 24.0488 18.6815C22.7338 14.518 23.0106 10.3544 24.5332 6.95422Z" fill="#9CEB60"/>
<path id="XMLID_672_" d="M24.5333 6.95422C24.0488 8.0645 23.7028 9.17478 23.4951 10.4238C22.803 10.3544 22.1801 10.2851 21.488 10.2851C17.6122 10.2851 14.1517 11.6729 11.4524 14.0322C10.6219 13.2689 9.72218 12.575 8.82244 12.0199C8.26875 11.6729 8.13033 10.9096 8.54559 10.4238C10.2759 8.27267 12.629 6.60725 15.4667 5.70515C18.3043 4.80305 21.142 4.80305 23.8412 5.49697C24.4641 5.63576 24.8101 6.32968 24.5333 6.95422Z" fill="#C8FFA1"/>
<path id="XMLID_670_" d="M24.5332 6.95422C24.8101 6.32968 24.464 5.63576 23.8411 5.49697C21.1419 4.80305 18.3043 4.80305 15.4666 5.70515C12.629 6.60725 10.2758 8.34206 8.47632 10.4238C8.06105 10.9096 8.19947 11.6729 8.75316 12.0199C11.9369 13.8935 14.6361 17.1549 15.9511 21.3185C17.2661 25.482 17.0585 29.6455 15.5358 33.0458C15.259 33.6703 15.605 34.3642 16.2279 34.503C18.9272 35.1969 21.7648 35.1969 24.6025 34.2948C27.4401 33.3927 29.7933 31.7273 31.5235 29.5762C31.9388 29.0904 31.8004 28.3271 31.2467 27.9801C28.063 26.1065 25.3638 22.8451 24.0488 18.6815C22.7338 14.518 23.0106 10.3544 24.5332 6.95422Z" stroke="#45413C" stroke-width="1.006" stroke-miterlimit="10" stroke-linecap="round" stroke-linejoin="round"/>
<path id="XMLID_669_" d="M7.09217 13.6169C6.81533 13.4782 6.46928 13.6169 6.33085 13.8945C4.87743 17.156 4.53137 20.9725 5.70796 24.7197C6.88454 28.3975 9.37613 31.312 12.4906 33.1162C12.7675 33.255 13.1135 33.1856 13.2519 32.9081C14.7746 29.8548 15.1206 25.9688 13.8748 22.0828C12.6983 18.1275 10.1375 15.1436 7.09217 13.6169Z" fill="#9CEB60"/>
<path id="XMLID_668_" d="M9.8603 15.561C7.57634 18.1979 6.12291 21.5981 6.0537 25.4147C5.98449 25.1371 5.84606 24.929 5.77685 24.6514C4.60027 20.9736 4.87711 17.157 6.39975 13.8262C6.53817 13.5486 6.88423 13.4098 7.16107 13.5486C8.06081 14.1037 9.02977 14.7283 9.8603 15.561Z" fill="#C8FFA1"/>
<path id="XMLID_666_" d="M7.09217 13.6169C6.81533 13.4782 6.46928 13.6169 6.33085 13.8945C4.87743 17.156 4.53137 20.9725 5.70796 24.7197C6.88454 28.3975 9.37613 31.312 12.4906 33.1162C12.7675 33.255 13.1135 33.1856 13.2519 32.9081C14.7746 29.8548 15.1206 25.9688 13.8748 22.0828C12.6983 18.1275 10.1375 15.1436 7.09217 13.6169Z" stroke="#45413C" stroke-width="1.006" stroke-miterlimit="10" stroke-linecap="round" stroke-linejoin="round"/>
</g>
<path id="XMLID_664_" d="M33.0461 26.5224C32.7001 27.2857 32.2848 27.9796 31.8004 28.6041C31.7311 28.396 31.5927 28.1878 31.3851 28.049C28.2014 26.1754 25.5022 22.914 24.1872 18.7504C22.8029 14.5869 23.0106 10.3539 24.5332 6.95369C24.6024 6.74551 24.6716 6.46794 24.6024 6.25977C25.3637 6.53734 26.1251 6.81491 26.8172 7.16187C25.2945 10.2151 24.9485 14.1011 26.1943 17.9871C27.4401 21.8731 30.0009 24.8569 32.9769 26.3836C32.9769 26.453 32.9769 26.5224 33.0461 26.5224Z" fill="#E0E0E0"/>
<path id="XMLID_663_" d="M26.748 7.16187C26.748 7.23126 26.748 7.23126 26.748 7.16187C26.1943 8.20275 25.8483 9.38243 25.5714 10.6315C24.8793 10.4233 24.1872 10.2845 23.4951 10.2151C23.7027 9.03546 24.0488 7.99458 24.5333 6.95369C24.6025 6.74551 24.6717 6.46794 24.6025 6.25977C25.3638 6.53734 26.0559 6.81491 26.748 7.16187Z" fill="white"/>
<path id="XMLID_662_" d="M33.0461 26.5224C32.7001 27.2857 32.2848 27.9796 31.8004 28.6041C31.7311 28.396 31.5927 28.1878 31.3851 28.049C28.2014 26.1754 25.5022 22.914 24.1872 18.7504C22.8029 14.5869 23.0106 10.3539 24.5332 6.95369C24.6024 6.74551 24.6716 6.46794 24.6024 6.25977C25.3637 6.53734 26.1251 6.81491 26.8172 7.16187C25.2945 10.2151 24.9485 14.1011 26.1943 17.9871C27.4401 21.8731 30.0009 24.8569 32.9769 26.3836C32.9769 26.453 32.9769 26.5224 33.0461 26.5224Z" stroke="#45413C" stroke-width="1.006" stroke-miterlimit="10" stroke-linecap="round" stroke-linejoin="round"/>
<path id="XMLID_661_" d="M15.536 33.1122C15.4668 33.3204 15.3976 33.5979 15.4668 33.8061C14.7055 33.5285 13.9442 33.251 13.2521 32.904C14.7747 29.9201 15.1207 25.9648 13.875 22.0788C12.6292 18.1928 10.0684 15.2089 7.09229 13.6823C7.43834 12.9884 7.8536 12.2945 8.33808 11.6699C8.40729 11.8781 8.54571 12.0169 8.75335 12.1557C11.937 14.0293 14.6363 17.2907 15.9513 21.4543C17.2663 25.479 17.0587 29.712 15.536 33.1122Z" fill="#E0E0E0"/>
<path id="XMLID_660_" d="M11.3834 14.0323C10.8297 14.518 10.3452 15.0037 9.86072 15.5589C9.03019 14.7956 8.06124 14.1016 7.09229 13.6159C7.43834 12.922 7.8536 12.228 8.33808 11.6035C8.40729 11.8117 8.54571 11.9505 8.75335 12.0893C9.7223 12.575 10.5528 13.2689 11.3834 14.0323Z" fill="white"/>
<path id="XMLID_658_" d="M15.536 33.1122C15.4668 33.3204 15.3976 33.5979 15.4668 33.8061C14.7055 33.5285 13.9442 33.251 13.2521 32.904C14.7747 29.9201 15.1207 25.9648 13.875 22.0788C12.6292 18.1928 10.0684 15.2089 7.09229 13.6823C7.43834 12.9884 7.8536 12.2945 8.33808 11.6699C8.40729 11.8781 8.54571 12.0169 8.75335 12.1557C11.937 14.0293 14.6363 17.2907 15.9513 21.4543C17.2663 25.479 17.0587 29.712 15.536 33.1122Z" stroke="#45413C" stroke-width="1.006" stroke-miterlimit="10" stroke-linecap="round" stroke-linejoin="round"/>
</g>
</g>
</g>
</svg>
