<svg xmlns="http://www.w3.org/2000/svg" viewBox="0 0 129.85 128.3"><defs><style>.cls-1{fill:#bd3333;}.cls-2{fill:#7093b5;}.cls-3{fill:#34383f;}.cls-4{fill:#fff;}.cls-5{fill:#f0ca80;}</style></defs><g id="Layer_2" data-name="Layer 2"><g id="Layer_1-2" data-name="Layer 1"><path class="cls-1" d="M128.17,107.27l-.17-4-.3-4-.41-4-.55-4-.68-4-.81-3.93-1-3.9-1.07-3.86L122,71.78,120.73,68l-1.44-3.73-1.56-3.68L116,57l-1.79-3.58c-.63-1.17-1.25-2.35-1.9-3.51s-1.34-2.3-2-3.44-1.4-2.26-2.13-3.38-1.48-2.21-2.24-3.3-1.55-2.17-2.35-3.23-1.61-2.12-2.44-3.15-1.68-2.07-2.55-3.08-1.74-2-2.64-3-1.81-2-2.74-2.9-1.87-1.89-2.83-2.81-1.94-1.82-2.92-2.71-2-1.78-3-2.63-2-1.71-3.08-2.53-2.1-1.64-3.17-2.43S76.09,9.74,75,9L71.69,6.76,68.31,4.64l-3.45-2h1.27l-3.44,2L59.31,6.76,56,9c-1.09.76-2.16,1.55-3.24,2.32s-2.11,1.62-3.16,2.43-2.05,1.69-3.08,2.53-2,1.75-3,2.63-1.94,1.81-2.92,2.72-1.89,1.87-2.83,2.8-1.83,1.93-2.74,2.9-1.76,2-2.65,3-1.69,2-2.54,3.07-1.63,2.1-2.45,3.15-1.55,2.16-2.34,3.23-1.49,2.21-2.24,3.3-1.42,2.26-2.14,3.38-1.34,2.3-2,3.44-1.27,2.35-1.91,3.52L15,57l-1.68,3.63-1.56,3.68L10.27,68,9,71.79,7.77,75.61,6.69,79.47l-.94,3.9L4.94,87.3l-.69,4-.54,4-.42,4-.3,4-.17,4,0-4,.1-4,.27-4,.4-4,.54-4,.68-4,.81-4,.94-3.94,1.09-3.9,1.23-3.86,1.36-3.82,1.48-3.77c.54-1.24,1.07-2.49,1.62-3.73l1.75-3.66c.62-1.2,1.23-2.41,1.87-3.6s1.31-2.37,2-3.54,1.38-2.33,2.11-3.47,1.46-2.28,2.22-3.41,1.54-2.22,2.34-3.32S27.21,33,28.05,32s1.68-2.12,2.56-3.16,1.75-2.07,2.66-3.07,1.82-2,2.76-3,1.88-1.95,2.86-2.89,1.94-1.89,3-2.8,2-1.82,3-2.69S47,12.6,48,11.76s2.14-1.68,3.22-2.49,2.19-1.61,3.3-2.39L57.91,4.6l3.44-2.17L64.86.37,65.5,0l.63.37,3.51,2.06L73.09,4.6l3.37,2.28c1.11.78,2.19,1.59,3.29,2.39S81.9,10.93,83,11.76s2.09,1.73,3.13,2.59,2,1.8,3.05,2.69,2,1.87,3,2.8S94,21.77,95,22.73s1.84,2,2.76,3,1.77,2.05,2.66,3.08,1.71,2.1,2.56,3.15,1.63,2.17,2.45,3.25,1.57,2.21,2.34,3.32,1.48,2.27,2.22,3.4,1.41,2.32,2.11,3.47,1.33,2.36,2,3.54,1.25,2.4,1.87,3.6l1.75,3.67c.55,1.23,1.08,2.48,1.62,3.72l1.48,3.77,1.36,3.82,1.23,3.86,1.09,3.9.94,3.94.81,4,.68,4,.54,4,.4,4,.27,4,.11,4Z"/><path class="cls-2" d="M65.5,6.18A122.11,122.11,0,0,0,4.43,111.94h0a122.11,122.11,0,0,0,122.13,0h0A122.12,122.12,0,0,0,65.5,6.18Z"/><path class="cls-3" d="M51.7,62.75c0-.24,0-.47,0-.71a14.39,14.39,0,0,0-1.58-6.15c-.16-.31-.32-.6-.5-.89a14.24,14.24,0,0,0-2.53-3.14A14.93,14.93,0,0,0,44.67,50,14.8,14.8,0,0,0,37.18,48h0a14.44,14.44,0,0,0-2.54.22,15,15,0,0,0-2.47.67,15.42,15.42,0,0,0-1.56.69,14.48,14.48,0,0,0-5.32,4.61q-.41.59-.75,1.2A15.07,15.07,0,0,0,23.39,58a14.43,14.43,0,0,0-.68,5.47c0,.31.05.61.09.92s.09.6.15.9a.18.18,0,0,0,0,.12,14.63,14.63,0,0,0,1.28,3.66,14.28,14.28,0,0,0,3,4c.24.23.5.46.76.67a14.92,14.92,0,0,0,1.66,1.16,14.53,14.53,0,0,0,4.56,1.78,14.35,14.35,0,0,0,2.93.3h0c.28,0,.57,0,.85,0a14.37,14.37,0,0,0,4.15-.87,14.58,14.58,0,0,0,1.57-.68,15,15,0,0,0,2.41-1.54,14.12,14.12,0,0,0,2.9-3.08,14.66,14.66,0,0,0,2.62-8Zm-10.35-5.1H41.3a.21.21,0,0,1-.2-.15.2.2,0,0,1,.14-.25l.87-.23a.21.21,0,0,1,.25.14.21.21,0,0,1-.15.25Zm-1.85.58a.2.2,0,0,1-.07-.39l.86-.29a.19.19,0,0,1,.25.13.19.19,0,0,1-.13.25l-.84.29Zm-1,.37-.72.29-.07,0a.18.18,0,0,1-.17-.11.18.18,0,0,1,.1-.24l.73-.3a.18.18,0,0,1,.23.1A.19.19,0,0,1,38.54,58.6Zm-1.62.7-.8.39a.15.15,0,0,1-.09,0,.2.2,0,0,1-.18-.11.19.19,0,0,1,.09-.26c.26-.14.54-.27.81-.4A.2.2,0,0,1,37,59,.19.19,0,0,1,36.92,59.3Zm-4,2.29a.19.19,0,0,1-.12,0l-.09,0a.23.23,0,0,1-.07-.07.2.2,0,0,1,0-.28l.76-.49a.2.2,0,1,1,.21.33ZM30.6,63.31l-.67.57a.18.18,0,0,1-.13,0,.2.2,0,0,1-.14-.35l.69-.58a.2.2,0,0,1,.28,0A.21.21,0,0,1,30.6,63.31Zm-3.5-.12c.21-.22.44-.43.66-.64a.2.2,0,0,1,.29,0,.2.2,0,0,1,0,.28l-.66.63a.2.2,0,0,1-.14.06.18.18,0,0,1-.14-.06A.19.19,0,0,1,27.1,63.19Zm3.68-3.13a.2.2,0,0,1,.23.33l-.73.55a.2.2,0,0,1-.13,0A.19.19,0,0,1,30,60.9a.19.19,0,0,1,0-.28C30.27,60.43,30.53,60.25,30.78,60.06Zm3.58-2a.19.19,0,0,1-.08.27l-.8.46-.1,0a.19.19,0,0,1-.17-.1.19.19,0,0,1,.07-.27l.81-.46A.2.2,0,0,1,34.36,58.05Zm1.48-1a.2.2,0,0,1,.27.1.19.19,0,0,1-.1.26l-.83.41-.09,0a.21.21,0,0,1-.18-.11.2.2,0,0,1,.09-.27Zm1.8-.77a.18.18,0,0,1,.26.11.2.2,0,0,1-.11.26l-.85.35h-.08a.21.21,0,0,1-.19-.12.17.17,0,0,1,0-.07.19.19,0,0,1,0-.08.2.2,0,0,1,.11-.11Zm6.64-1.81.49-.07.17.38-.6.09h0a.2.2,0,0,1,0-.4ZM28.57,65.16a.19.19,0,0,1-.28,0,.18.18,0,0,1-.06-.14.2.2,0,0,1,.06-.14l.64-.63a.22.22,0,0,1,.29,0,.2.2,0,0,1,0,.28Zm-.05-3.3c.23-.2.47-.41.71-.6a.19.19,0,0,1,.28,0,.2.2,0,0,1,0,.28c-.24.19-.47.39-.7.59a.24.24,0,0,1-.14.05.19.19,0,0,1-.15-.07A.2.2,0,0,1,28.52,61.86ZM39,57q.94-.33,1.83-.57l.86-.22.81-.18c1-.22,1.92-.33,2.54-.4l.18,0,0,0-.19,0c-.6.1-1.46.26-2.49.51a31.6,31.6,0,0,0-3.45,1.05c-.62.23-1.26.48-1.9.76s-1.27.59-1.9.91-1.25.68-1.84,1-1.17.73-1.71,1.11a33.6,33.6,0,0,0-2.85,2.22c-.79.7-1.42,1.31-1.85,1.75l-.66.69s.22-.28.63-.74,1-1.12,1.78-1.84a26.53,26.53,0,0,1,2.81-2.31c.54-.39,1.11-.78,1.7-1.14s1.22-.72,1.85-1,1.27-.63,1.91-.91S38.39,57.18,39,57Zm4.14.23h0a.19.19,0,0,1-.19-.16.2.2,0,0,1,.15-.24l.88-.17a.21.21,0,0,1,.24.16A.2.2,0,0,1,44,57ZM45,56.86h0a.2.2,0,0,1,0-.4l.56-.07c0,.12.07.26.11.39Zm-1.73-2.18a.21.21,0,0,1,.24.16.2.2,0,0,1-.16.23l-.9.18h0a.19.19,0,0,1-.2-.16.11.11,0,0,1,0-.08.11.11,0,0,1,0-.07.23.23,0,0,1,.12-.09Zm-1.9.42a.2.2,0,0,1,.24.14.11.11,0,0,1,0,.08.24.24,0,0,1,0,.08.27.27,0,0,1-.12.09c-.3.07-.6.16-.89.24h-.06a.21.21,0,0,1-.19-.15.11.11,0,0,1,0-.08.19.19,0,0,1,0-.07.2.2,0,0,1,.12-.1Zm-1.88.54a.21.21,0,0,1,.25.13.19.19,0,0,1-.13.25l-.87.3h-.07a.21.21,0,0,1-.19-.13.22.22,0,0,1,.12-.26ZM32.4,59a.21.21,0,0,1,.28.07.2.2,0,0,1-.06.27l-.78.51a.2.2,0,0,1-.11,0,.19.19,0,0,1-.16-.09.2.2,0,0,1,.05-.28Zm-6,5a.2.2,0,0,1,.29.27c-.21.23-.42.45-.62.68a.19.19,0,0,1-.28,0,.22.22,0,0,1,0-.29C26,64.37,26.17,64.14,26.39,63.92Zm-.58,3.79.56-.7a.2.2,0,0,1,.28,0,.22.22,0,0,1,0,.29c-.19.22-.37.46-.55.69A.21.21,0,0,1,26,68a.25.25,0,0,1-.12,0A.21.21,0,0,1,25.81,67.71Zm1.49-1.19a.19.19,0,0,1-.28,0,.2.2,0,0,1,0-.28l.6-.67a.2.2,0,0,1,.28,0,.21.21,0,0,1,0,.29Zm4.07-3.83a.19.19,0,0,1-.28,0,.2.2,0,0,1,0-.28l.73-.55a.2.2,0,1,1,.23.33Zm3.1-2.1a.19.19,0,0,1-.27-.07.19.19,0,0,1,.07-.27c.26-.16.52-.31.79-.45a.2.2,0,0,1,.27.08.2.2,0,0,1-.08.27ZM37.18,49h.18L38,49l.58.05a13.79,13.79,0,0,1,2.25.45,13.08,13.08,0,0,1,3.88,1.88,13.87,13.87,0,0,1,1.54,1.27,14.25,14.25,0,0,1,1.23,1.39,12.83,12.83,0,0,1,1.64,2.78,12.15,12.15,0,0,1,.74,2.35q.06.26.09.48a3.53,3.53,0,0,1,.06.42c0,.26.06.49.07.67,0,.36,0,.56,0,.56s0-.2-.09-.55c0-.18-.08-.4-.14-.66s-.07-.26-.1-.4-.08-.3-.13-.46a13,13,0,0,0-2.66-4.79,13.4,13.4,0,0,0-1.25-1.25,12.29,12.29,0,0,0-3-2l.27.32.28.35c.19.25.39.52.58.8l-.77.13-.08,0s0,0,0,.05a.21.21,0,0,0,0,.15.19.19,0,0,0,.19.17h0l.93-.16h0c.2.32.39.66.58,1a31.72,31.72,0,0,0-9.64,3c-.86.44-1.71.91-2.53,1.42a30.86,30.86,0,0,0-7.6,6.61c0,.13.06.26.08.38l.16-.19a.2.2,0,1,1,.31.25l-.35.43.06.24a14.08,14.08,0,0,0,.48,1.39c.13.32.26.63.4.91.29-.39.58-.78.89-1.15s.62-.75.95-1.11a28.6,28.6,0,0,1,2.07-2,28.27,28.27,0,0,1,3.49-2.67c.82-.54,1.67-1,2.54-1.49A30,30,0,0,1,41.38,58a29,29,0,0,1,4.29-.9,9.66,9.66,0,0,1,.21,1.12H45.8l-.87.13a.2.2,0,0,0,0,.4h0l.85-.13.08,0a15.46,15.46,0,0,1-.65,6.22,13.88,13.88,0,0,1-8.38,9.32c-.13.06-.26.1-.39.15l-.74.25-.35.1a15.72,15.72,0,0,1-1.65.35A12.7,12.7,0,0,1,31.39,74c-.25-.13-.5-.26-.74-.4A13,13,0,0,1,28,71.51l-.38-.36A14.2,14.2,0,0,1,26.52,70a12.5,12.5,0,0,1-1.31-2.09,14.23,14.23,0,0,1-.6-1.41,12.63,12.63,0,0,1-.45-1.64c-.06-.29-.12-.59-.16-.9l0-.23v-.24c0-.15,0-.31,0-.46a13.53,13.53,0,0,1,0-2,14.17,14.17,0,0,1,.36-2.08A11.75,11.75,0,0,1,25,56.82,13.12,13.12,0,0,1,27.63,53a13.51,13.51,0,0,1,3.91-2.76,13.24,13.24,0,0,1,4.65-1.18c.19,0,.37,0,.57,0h.42v0Z"/><path class="cls-4" d="M50.87,55.51a15.32,15.32,0,0,0-13.69-8.39h0a15.44,15.44,0,0,0-6.95,1.67,15.39,15.39,0,0,0-8.12,16.57,1.27,1.27,0,0,0,.06.28,15.33,15.33,0,0,0,22,10.5,15.35,15.35,0,0,0,6.72-20.63ZM49.08,70.78a14.12,14.12,0,0,1-2.9,3.08,15,15,0,0,1-2.41,1.54,14.58,14.58,0,0,1-1.57.68,14.37,14.37,0,0,1-4.15.87c-.28,0-.57,0-.85,0h0a14.35,14.35,0,0,1-2.93-.3,14.53,14.53,0,0,1-4.56-1.78,14.92,14.92,0,0,1-1.66-1.16c-.26-.21-.52-.44-.76-.67a14.28,14.28,0,0,1-3-4A14.63,14.63,0,0,1,23,65.39a.18.18,0,0,1,0-.12q-.09-.45-.15-.9c0-.31-.07-.61-.09-.92A14.43,14.43,0,0,1,23.39,58a15.07,15.07,0,0,1,1.15-2.63q.34-.62.75-1.2a14.48,14.48,0,0,1,5.32-4.61,15.42,15.42,0,0,1,1.56-.69,15,15,0,0,1,2.47-.67,14.73,14.73,0,0,1,10,1.85,14.93,14.93,0,0,1,2.42,1.83A14.24,14.24,0,0,1,49.62,55c.18.29.34.58.5.89A14.39,14.39,0,0,1,51.7,62c0,.24,0,.47,0,.71a14.66,14.66,0,0,1-2.62,8Z"/><path class="cls-1" d="M26,68a.21.21,0,0,0,.16-.08c.18-.23.36-.47.55-.69a.22.22,0,0,0,0-.29.2.2,0,0,0-.28,0l-.56.7a.21.21,0,0,0,0,.29A.25.25,0,0,0,26,68Z"/><path class="cls-1" d="M29.21,64.54a.2.2,0,0,0,0-.28.22.22,0,0,0-.29,0l-.64.63a.2.2,0,0,0-.06.14.18.18,0,0,0,.06.14.19.19,0,0,0,.28,0Z"/><path class="cls-1" d="M27.9,65.87a.21.21,0,0,0,0-.29.2.2,0,0,0-.28,0l-.6.67a.2.2,0,0,0,0,.28.19.19,0,0,0,.28,0Z"/><path class="cls-1" d="M30,60.62a.19.19,0,0,0,0,.28.19.19,0,0,0,.15.08.2.2,0,0,0,.13,0l.73-.55a.2.2,0,0,0-.23-.33C30.53,60.25,30.27,60.43,30,60.62Z"/><path class="cls-1" d="M30.63,63a.2.2,0,0,0-.28,0l-.69.58a.2.2,0,0,0,.14.35.18.18,0,0,0,.13,0l.67-.57A.21.21,0,0,0,30.63,63Z"/><path class="cls-1" d="M28.5,62.14a.19.19,0,0,0,.15.07.24.24,0,0,0,.14-.05c.23-.2.46-.4.7-.59a.2.2,0,0,0,0-.28.19.19,0,0,0-.28,0c-.24.19-.48.4-.71.6A.2.2,0,0,0,28.5,62.14Z"/><path class="cls-1" d="M25.76,64.6a.22.22,0,0,0,0,.29.19.19,0,0,0,.28,0c.2-.23.41-.45.62-.68a.2.2,0,0,0-.29-.27C26.17,64.14,26,64.37,25.76,64.6Z"/><path class="cls-1" d="M27.1,63.47a.18.18,0,0,0,.14.06.2.2,0,0,0,.14-.06l.66-.63a.2.2,0,0,0,0-.28.2.2,0,0,0-.29,0c-.22.21-.45.42-.66.64A.19.19,0,0,0,27.1,63.47Z"/><path class="cls-1" d="M40.41,57.93a.19.19,0,0,0,.13-.25.19.19,0,0,0-.25-.13l-.86.29a.2.2,0,0,0,.07.39h.07Z"/><path class="cls-1" d="M37.1,57.7c-.64.28-1.28.58-1.91.91s-1.25.68-1.85,1-1.16.75-1.7,1.14a26.53,26.53,0,0,0-2.81,2.31c-.77.72-1.37,1.38-1.78,1.84s-.63.74-.63.74l.66-.69c.43-.44,1.06-1,1.85-1.75A33.6,33.6,0,0,1,31.78,61q.81-.57,1.71-1.11c.59-.36,1.21-.71,1.84-1s1.26-.63,1.9-.91,1.28-.53,1.9-.76a31.6,31.6,0,0,1,3.45-1.05c1-.25,1.89-.41,2.49-.51l.19,0,0,0-.18,0c-.62.07-1.5.18-2.54.4l-.81.18-.86.22Q40,56.63,39,57C38.39,57.18,37.75,57.43,37.1,57.7Z"/><path class="cls-1" d="M44,57a.2.2,0,0,0,.16-.23.21.21,0,0,0-.24-.16l-.88.17a.2.2,0,0,0-.15.24.19.19,0,0,0,.19.16h0Z"/><path class="cls-1" d="M42.21,57.42a.21.21,0,0,0,.15-.25.21.21,0,0,0-.25-.14l-.87.23a.2.2,0,0,0-.14.25.21.21,0,0,0,.2.15h.05Z"/><path class="cls-1" d="M45.5,56.39l-.56.07a.2.2,0,0,0,0,.4h0l.61-.08C45.57,56.65,45.54,56.51,45.5,56.39Z"/><path class="cls-1" d="M33.63,61.1a.2.2,0,1,0-.21-.33l-.76.49a.2.2,0,0,0,0,.28.23.23,0,0,0,.07.07l.09,0a.19.19,0,0,0,.12,0Z"/><path class="cls-1" d="M31.62,59.47a.2.2,0,0,0-.05.28.19.19,0,0,0,.16.09.2.2,0,0,0,.11,0l.78-.51a.2.2,0,0,0,.06-.27A.21.21,0,0,0,32.4,59Z"/><path class="cls-1" d="M38.64,58.36a.18.18,0,0,0-.23-.1l-.73.3a.18.18,0,0,0-.1.24.18.18,0,0,0,.17.11l.07,0,.72-.29A.19.19,0,0,0,38.64,58.36Z"/><path class="cls-1" d="M35.25,60.15a.2.2,0,0,0,.08-.27.2.2,0,0,0-.27-.08c-.27.14-.53.29-.79.45a.19.19,0,0,0-.07.27.19.19,0,0,0,.27.07Z"/><path class="cls-1" d="M37,59a.2.2,0,0,0-.27-.1c-.27.13-.55.26-.81.4a.19.19,0,0,0-.09.26.2.2,0,0,0,.18.11.15.15,0,0,0,.09,0l.8-.39A.19.19,0,0,0,37,59Z"/><path class="cls-1" d="M32.08,62.16a.2.2,0,1,0-.23-.33l-.73.55a.2.2,0,0,0,0,.28.19.19,0,0,0,.28,0Z"/><path class="cls-1" d="M38.6,55.94a.22.22,0,0,0-.12.26.21.21,0,0,0,.19.13h.07l.87-.3a.19.19,0,0,0,.13-.25.21.21,0,0,0-.25-.13Z"/><path class="cls-1" d="M34.91,57.76a.21.21,0,0,0,.18.11l.09,0,.83-.41a.19.19,0,0,0,.1-.26.2.2,0,0,0-.27-.1l-.84.41A.2.2,0,0,0,34.91,57.76Z"/><path class="cls-1" d="M36.78,56.66a.2.2,0,0,0-.11.11.19.19,0,0,0,0,.08.17.17,0,0,0,0,.07.21.21,0,0,0,.19.12h.08l.85-.35a.2.2,0,0,0,.11-.26.18.18,0,0,0-.26-.11Z"/><path class="cls-1" d="M40.47,55.34a.2.2,0,0,0-.12.1.19.19,0,0,0,0,.07.11.11,0,0,0,0,.08.21.21,0,0,0,.19.15h.06c.29-.08.59-.17.89-.24a.27.27,0,0,0,.12-.09.24.24,0,0,0,0-.08.11.11,0,0,0,0-.08.2.2,0,0,0-.24-.14Z"/><path class="cls-1" d="M44.11,54.73a.2.2,0,0,0,.2.17h0l.6-.09-.17-.38-.49.07A.2.2,0,0,0,44.11,54.73Z"/><path class="cls-1" d="M37.18,49h-.42c-.2,0-.38,0-.57,0a13.24,13.24,0,0,0-4.65,1.18A13.51,13.51,0,0,0,27.63,53,13.12,13.12,0,0,0,25,56.82a11.75,11.75,0,0,0-.74,2.08A14.17,14.17,0,0,0,23.93,61a13.53,13.53,0,0,0,0,2c0,.15,0,.31,0,.46v.24l0,.23c0,.31.1.61.16.9a12.63,12.63,0,0,0,.45,1.64,14.23,14.23,0,0,0,.6,1.41A12.5,12.5,0,0,0,26.52,70a14.2,14.2,0,0,0,1.05,1.19l.38.36a13,13,0,0,0,2.7,2.11c.24.14.49.27.74.4a12.7,12.7,0,0,0,2.38.91,15.72,15.72,0,0,0,1.65-.35l.35-.1.74-.25c.13,0,.26-.09.39-.15a13.88,13.88,0,0,0,8.38-9.32,15.46,15.46,0,0,0,.65-6.22l-.08,0-.85.13h0a.2.2,0,0,1,0-.4l.87-.13h.08a9.66,9.66,0,0,0-.21-1.12,29,29,0,0,0-4.29.9,30,30,0,0,0-5.44,2.18c-.87.46-1.72.95-2.54,1.49a28.27,28.27,0,0,0-3.49,2.67,28.6,28.6,0,0,0-2.07,2c-.33.36-.64.73-.95,1.11s-.6.76-.89,1.15c-.14-.28-.27-.59-.4-.91a14.08,14.08,0,0,1-.48-1.39l-.06-.24.35-.43a.2.2,0,1,0-.31-.25l-.16.19c0-.12-.05-.25-.08-.38a30.86,30.86,0,0,1,7.6-6.61c.82-.51,1.67-1,2.53-1.42a31.72,31.72,0,0,1,9.64-3c-.19-.37-.38-.71-.58-1h0l-.93.16h0a.19.19,0,0,1-.19-.17.21.21,0,0,1,0-.15s0,0,0-.05l.08,0,.77-.13c-.19-.28-.39-.55-.58-.8L43,51.59l-.27-.32a12.29,12.29,0,0,1,3,2,13.4,13.4,0,0,1,1.25,1.25,13,13,0,0,1,2.66,4.79c0,.16.09.31.13.46s.08.28.1.4.11.48.14.66c.06.35.09.55.09.55s0-.2,0-.56c0-.18,0-.41-.07-.67a3.53,3.53,0,0,0-.06-.42q0-.22-.09-.48a12.15,12.15,0,0,0-.74-2.35,12.83,12.83,0,0,0-1.64-2.78,14.25,14.25,0,0,0-1.23-1.39,13.87,13.87,0,0,0-1.54-1.27,13.08,13.08,0,0,0-3.88-1.88,13.79,13.79,0,0,0-2.25-.45L38,49l-.59,0h-.18v0Zm6.93,4.66a.2.2,0,0,1-.16.23l-.92.16h0a.2.2,0,0,1-.19-.17.2.2,0,0,1,.16-.23l.93-.16A.19.19,0,0,1,44.11,53.67ZM33.82,57.36a.16.16,0,0,1-.09,0,.21.21,0,0,1-.18-.11.21.21,0,0,1,.08-.27l.84-.44a.2.2,0,0,1,.27.09.19.19,0,0,1,0,.07.2.2,0,0,1,0,.15l-.07,0C34.37,57.07,34.09,57.21,33.82,57.36Zm-.89.51c-.27.16-.54.32-.8.49a.23.23,0,0,1-.11,0,.22.22,0,0,1-.17-.1.2.2,0,0,1,.06-.27l.82-.5a.2.2,0,0,1,.27.08A.2.2,0,0,1,32.93,57.87Zm-3.26,2.2-.73.58a.2.2,0,0,1-.13,0,.2.2,0,0,1-.12-.35l.74-.59a.2.2,0,1,1,.24.32Zm-1.51,1.24-.69.63a.24.24,0,0,1-.14.05.22.22,0,0,1-.15-.06.21.21,0,0,1,0-.29l.7-.63a.22.22,0,0,1,.29,0A.2.2,0,0,1,28.16,61.31Zm-1.43,1.33-.65.67a.2.2,0,0,1-.15.06.19.19,0,0,1-.13,0,.21.21,0,0,1,0-.29c.21-.22.43-.45.66-.67a.19.19,0,0,1,.28,0,.2.2,0,0,1,.06.14A.18.18,0,0,1,26.73,62.64ZM42,54.27l-.91.22h0a.19.19,0,0,1-.19-.15A.2.2,0,0,1,41,54.1l.92-.22a.2.2,0,1,1,.09.39Zm-1.9.49-.89.27h-.06A.18.18,0,0,1,39,54.9a.19.19,0,0,1,.13-.25l.9-.28a.2.2,0,1,1,.11.39Zm-1.87.61q-.43.15-.87.33h-.08a.2.2,0,0,1-.18-.13.19.19,0,0,1,0-.08.22.22,0,0,1,.13-.18l.89-.33a.19.19,0,0,1,.25.12.24.24,0,0,1,0,.08.21.21,0,0,1-.07.13A.18.18,0,0,1,38.26,55.37Zm-6.32,2.16a.21.21,0,0,1-.17-.1.2.2,0,0,1,.07-.28l.82-.49a.21.21,0,0,1,.28.08.26.26,0,0,1,0,.15.16.16,0,0,1,0,.07.1.1,0,0,1-.06,0l-.81.49A.23.23,0,0,1,31.94,57.53Zm-6.22,5a.2.2,0,0,1-.14-.06.19.19,0,0,1,0-.28l.67-.67a.21.21,0,0,1,.29,0,.22.22,0,0,1,0,.29l-.67.66A.18.18,0,0,1,25.72,62.49Zm14.6-8.79a.19.19,0,0,1-.14.24l-.91.27h-.06a.2.2,0,0,1-.06-.39c.31-.1.61-.19.92-.27A.2.2,0,0,1,40.32,53.7Zm1.7-.62a.2.2,0,0,1,.24.15.21.21,0,0,1-.16.24c-.31.06-.61.13-.92.21h0a.2.2,0,0,1-.2-.15.25.25,0,0,1,0-.15.21.21,0,0,1,.13-.09C41.39,53.21,41.71,53.14,42,53.08ZM29.54,59.2l-.75.58a.17.17,0,0,1-.12,0,.21.21,0,0,1-.16-.08.2.2,0,0,1,0-.28l.75-.58a.2.2,0,0,1,.24.32Zm5.76-3.67a.2.2,0,0,1,.09-.27l.88-.38a.21.21,0,0,1,.27.11.2.2,0,0,1-.11.26l-.87.38-.08,0A.2.2,0,0,1,35.3,55.53Zm1.84-.78a.2.2,0,0,1,.11-.26q.45-.18.9-.33a.2.2,0,0,1,.26.12.21.21,0,0,1-.12.26l-.89.32-.08,0A.19.19,0,0,1,37.14,54.75Zm-10,6.36a.22.22,0,0,1-.15-.06.22.22,0,0,1,0-.29l.71-.63a.21.21,0,0,1,.29,0,.21.21,0,0,1,0,.29l-.7.62A.24.24,0,0,1,27.15,61.11Zm3.12-2.49a.2.2,0,0,1-.12-.36c.27-.18.53-.37.8-.54a.19.19,0,0,1,.27.06.19.19,0,0,1,0,.27l-.79.54A.2.2,0,0,1,30.27,58.62Zm3.23-2.19a.21.21,0,0,1,.09-.28l.85-.43a.2.2,0,0,1,.27.09.2.2,0,0,1,0,.15.16.16,0,0,1,0,.07l-.06,0-.85.43-.09,0A.22.22,0,0,1,33.5,56.43Zm-8.83,7.19v-.21a2.35,2.35,0,0,1,0-.26l.21-.24a.2.2,0,0,1,.3.27l-.49.54Zm.12,1.14a.43.43,0,0,0,0-.05l-.06-.49.37-.43a.2.2,0,0,1,.3.27C25.19,64.28,25,64.52,24.79,64.76Zm5.43-5.35a.19.19,0,0,1,0-.28c.26-.18.52-.37.78-.54a.2.2,0,1,1,.23.33l-.77.53a.19.19,0,0,1-.12,0A.21.21,0,0,1,30.22,59.41Zm5.09-3a.21.21,0,0,1,.1-.27l.87-.39a.19.19,0,0,1,.26.11.2.2,0,0,1-.1.26l-.86.38a.13.13,0,0,1-.08,0A.21.21,0,0,1,35.31,56.38Zm2.76-6.62-.63,0c-.27,0-.6.05-1,.1a11.42,11.42,0,0,0-1.25.22c-.45.1-.93.23-1.43.39-.25.09-.51.18-.76.29a7.51,7.51,0,0,0-.77.34c-.13,0-.26.12-.4.19l-.1,0,0,0,0,0-.19.11c-.25.15-.52.29-.76.46s-.26.16-.38.25-.25.17-.37.26-.25.18-.36.28l-.35.3A11.92,11.92,0,0,0,28,54.34c-.11.11-.19.23-.29.35l-.29.34c-.17.24-.35.47-.51.7s-.31.48-.45.72l-.2.35a3.13,3.13,0,0,0-.19.36c-.24.47-.44.92-.62,1.35l-.22.63q-.11.3-.18.57c0,.09-.06.18-.08.26l-.06.25c0,.16-.08.31-.11.44-.11.53-.17.84-.17.84v-.22c0-.15,0-.37,0-.64l.05-.45a5.24,5.24,0,0,1,.08-.53c0-.19.08-.4.12-.61l.18-.65c.07-.23.15-.47.23-.71s.09-.24.14-.36.11-.25.16-.38a3.14,3.14,0,0,1,.18-.37l.19-.39a3.59,3.59,0,0,1,.21-.38l.23-.38c.15-.25.33-.5.5-.76s.38-.49.59-.73a13.23,13.23,0,0,1,1.35-1.35l.37-.3L29.6,52l.39-.27.4-.26c.13-.08.26-.17.4-.24L31.2,51l.21-.11.05,0,.05,0,.1-.05.41-.18a13.25,13.25,0,0,1,1.63-.57,11.83,11.83,0,0,1,1.51-.3,8.76,8.76,0,0,1,1.29-.1,7.7,7.7,0,0,1,1,0l.64.06.22,0Zm-.82,10.11.82-.36a.19.19,0,0,1,.26.1.21.21,0,0,1-.11.27l-.8.36h-.08a.19.19,0,0,1-.18-.11.16.16,0,0,1,0-.15A.23.23,0,0,1,37.25,59.87ZM27.6,67.15a.2.2,0,0,1,.28,0,.2.2,0,0,1,0,.29l-.55.66a.21.21,0,0,1-.16.08.24.24,0,0,1-.13-.05.2.2,0,0,1,0-.28C27.22,67.59,27.41,67.37,27.6,67.15Zm.65-.73c.2-.21.4-.43.61-.64a.19.19,0,0,1,.28,0,.2.2,0,0,1,0,.28l-.61.63a.17.17,0,0,1-.14.07.2.2,0,0,1-.14-.06A.19.19,0,0,1,28.25,66.42ZM31,63.86l.69-.55a.2.2,0,1,1,.25.31l-.68.55a.21.21,0,0,1-.29,0A.22.22,0,0,1,31,63.86Zm1.47-1.14.73-.52a.21.21,0,0,1,.23.34c-.24.16-.49.33-.72.5a.19.19,0,0,1-.12,0,.21.21,0,0,1-.16-.08A.19.19,0,0,1,32.42,62.72Zm4.22-2.33a.2.2,0,0,1-.09.27l-.78.41a.15.15,0,0,1-.09,0,.2.2,0,0,1-.18-.1.21.21,0,0,1,.08-.27l.79-.42A.2.2,0,0,1,36.64,60.39Zm-.27,13a8.87,8.87,0,0,1-.93.33c-.28.09-.52.15-.73.2s-.36.07-.47.09l-.13,0h0l.15-.08.41-.24c.36-.2.86-.51,1.44-.88.29-.19.6-.4.92-.63s.66-.48,1-.74.68-.54,1-.83c.17-.15.33-.31.5-.45l.49-.47c.33-.32.64-.64.94-1,.15-.17.3-.33.44-.5l.21-.25.21-.25.2-.25.19-.25.35-.48c.24-.32.44-.63.64-.92l.26-.42c.09-.13.17-.26.24-.38s.29-.46.38-.64L44.3,64l.09-.15,0,.17-.09.47a2.46,2.46,0,0,1-.09.34c0,.12-.07.25-.11.39s-.19.59-.32.93c-.08.16-.15.34-.23.51s-.17.36-.26.55l-.32.55a5.84,5.84,0,0,1-.35.57c-.06.09-.12.19-.19.28l-.21.28c-.07.1-.13.19-.21.29l-.22.27c-.31.37-.64.72-1,1.06l-.54.5c-.18.15-.36.31-.55.45l-.57.43-.57.38A13.44,13.44,0,0,1,36.37,73.44ZM38.7,60.08a.2.2,0,1,1,.15.37l-.79.35-.09,0a.21.21,0,0,1-.18-.12.21.21,0,0,1,.1-.27Zm.9-.35c.27-.11.55-.21.83-.3a.19.19,0,0,1,.25.12.22.22,0,0,1,0,.22l-.07,0-.82.29h-.07a.21.21,0,0,1-.19-.13A.2.2,0,0,1,39.6,59.73ZM44,58.47a.2.2,0,0,1,.23.15.21.21,0,0,1-.16.24l-.84.18h0a.19.19,0,0,1-.19-.16.2.2,0,0,1,.15-.24C43.41,58.59,43.7,58.52,44,58.47ZM27.71,68.18l.57-.66a.2.2,0,0,1,.28,0,.21.21,0,0,1,0,.29c-.19.21-.37.43-.56.65a.18.18,0,0,1-.15.07.2.2,0,0,1-.13,0,.21.21,0,0,1-.07-.14A.21.21,0,0,1,27.71,68.18Zm6.92-6,.75-.45a.21.21,0,0,1,.28.07.2.2,0,0,1-.08.27l-.74.45a.2.2,0,0,1-.11,0,.2.2,0,0,1-.1-.37Zm1.6-.92c.26-.14.53-.28.79-.4a.19.19,0,0,1,.26.09.2.2,0,0,1-.09.27l-.77.39-.09,0a.19.19,0,0,1-.18-.11A.2.2,0,0,1,36.23,61.25Zm-7.3,5.56c.19-.21.4-.42.61-.62a.2.2,0,0,1,.28.28c-.2.2-.41.41-.6.62a.2.2,0,0,1-.15.06.16.16,0,0,1-.13-.06A.19.19,0,0,1,28.93,66.81Zm4.88-4.12A.21.21,0,0,1,34,63c-.24.16-.49.32-.72.49a.2.2,0,0,1-.11,0,.19.19,0,0,1-.17-.08.21.21,0,0,1,.05-.28Zm-1.5,1.07a.2.2,0,0,1,.28,0,.19.19,0,0,1,0,.28l-.68.54a.17.17,0,0,1-.12,0,.2.2,0,0,1-.16-.07.2.2,0,0,1,0-.15.17.17,0,0,1,.07-.13Zm-1.43,1.17a.22.22,0,0,1,.29,0,.2.2,0,0,1,0,.28l-.65.58a.15.15,0,0,1-.13,0,.2.2,0,0,1-.14-.34Zm11.31-6a.2.2,0,0,1,.25.14.21.21,0,0,1-.14.25q-.42.11-.84.24h-.05a.2.2,0,0,1-.06-.39ZM34.73,61.2a.2.2,0,0,1,.27.07.21.21,0,0,1,0,.15.16.16,0,0,1,0,.07.17.17,0,0,1-.06.06c-.25.14-.5.3-.75.46a.19.19,0,0,1-.1,0,.21.21,0,0,1-.17-.1.2.2,0,0,1,.06-.27Zm-4.52,3.3a.2.2,0,0,1,.27.3l-.65.59a.2.2,0,0,1-.14.06.17.17,0,0,1-.14-.07.19.19,0,0,1,0-.28Zm-3.77,4.08a.21.21,0,0,1,.28,0,.22.22,0,0,1,0,.29c-.13.16-.25.33-.37.49q-.11-.18-.21-.39Zm.15,1.07a0,0,0,0,1,0,0c.16-.23.34-.47.52-.7a.2.2,0,1,1,.31.25l-.51.68a.21.21,0,0,1-.15.09.75.75,0,0,0-.07-.12S26.63,69.71,26.59,69.65ZM42.53,58l.87-.2a.19.19,0,0,1,.23.15.2.2,0,0,1-.15.24l-.85.2h-.05a.19.19,0,0,1-.19-.15A.19.19,0,0,1,42.53,58Zm-1.79.5.85-.25a.2.2,0,0,1,.11.38l-.84.26H40.8a.2.2,0,0,1-.19-.14A.2.2,0,0,1,40.74,58.51Zm-.93.32a.2.2,0,0,1,.13.37l-.82.31h-.07a.2.2,0,0,1-.19-.12.12.12,0,0,1,0-.08.22.22,0,0,1,0-.08.22.22,0,0,1,.11-.1C39.24,59,39.52,58.93,39.81,58.83Zm5.48-1-.87.14h0a.19.19,0,0,1-.2-.16v-.08a.19.19,0,0,1,.16-.15l.88-.15a.2.2,0,0,1,.22.17A.2.2,0,0,1,45.29,57.87Z"/><path class="cls-1" d="M42.36,54.86a.23.23,0,0,0-.12.09.11.11,0,0,0,0,.07.11.11,0,0,0,0,.08.19.19,0,0,0,.2.16h0l.9-.18a.2.2,0,0,0,.16-.23.21.21,0,0,0-.24-.16Z"/><path class="cls-1" d="M33.28,58.43a.19.19,0,0,0-.07.27.19.19,0,0,0,.17.1l.1,0,.8-.46a.19.19,0,0,0,.08-.27.2.2,0,0,0-.27-.08Z"/><path class="cls-3" d="M38.55,72.31l.57-.38.57-.43c.19-.14.37-.3.55-.45l.54-.5c.34-.34.67-.69,1-1.06l.22-.27c.08-.1.14-.19.21-.29l.21-.28c.07-.09.13-.19.19-.28a5.84,5.84,0,0,0,.35-.57l.32-.55c.09-.19.19-.37.26-.55s.15-.35.23-.51c.13-.34.24-.65.32-.93s.08-.27.11-.39a2.46,2.46,0,0,0,.09-.34l.09-.47,0-.17L44.3,64l-.24.41c-.09.18-.24.39-.38.64s-.15.25-.24.38l-.26.42c-.2.29-.4.6-.64.92l-.35.48-.19.25-.2.25-.21.25-.21.25c-.14.17-.29.33-.44.5-.3.33-.61.65-.94,1l-.49.47c-.17.14-.33.3-.5.45-.34.29-.68.57-1,.83s-.67.51-1,.74-.63.44-.92.63c-.58.37-1.08.68-1.44.88l-.41.24-.15.08h0l.13,0c.11,0,.27,0,.47-.09s.45-.11.73-.2a8.87,8.87,0,0,0,.93-.33A13.44,13.44,0,0,0,38.55,72.31Z"/><path class="cls-3" d="M26.18,68.93q.11.21.21.39c.12-.16.24-.33.37-.49a.22.22,0,0,0,0-.29.21.21,0,0,0-.28,0Z"/><path class="cls-3" d="M27.06,68.1a.24.24,0,0,0,.13.05.21.21,0,0,0,.16-.08l.55-.66a.2.2,0,0,0,0-.29.2.2,0,0,0-.28,0c-.19.22-.38.44-.56.67A.2.2,0,0,0,27.06,68.1Z"/><path class="cls-3" d="M28.26,66.7a.2.2,0,0,0,.14.06.17.17,0,0,0,.14-.07l.61-.63a.2.2,0,0,0,0-.28.19.19,0,0,0-.28,0c-.21.21-.41.43-.61.64A.19.19,0,0,0,28.26,66.7Z"/><path class="cls-3" d="M29.55,65.38a.17.17,0,0,0,.14.07.2.2,0,0,0,.14-.06l.65-.59a.2.2,0,0,0-.27-.3l-.65.6A.19.19,0,0,0,29.55,65.38Z"/><path class="cls-3" d="M30.92,64.15a.21.21,0,0,0,.29,0l.68-.55a.2.2,0,1,0-.25-.31l-.69.55A.22.22,0,0,0,30.92,64.15Z"/><path class="cls-3" d="M32.38,63a.21.21,0,0,0,.16.08.19.19,0,0,0,.12,0c.23-.17.48-.34.72-.5a.21.21,0,0,0-.23-.34l-.73.52A.19.19,0,0,0,32.38,63Z"/><path class="cls-3" d="M34,61.67a.2.2,0,0,0-.06.27.21.21,0,0,0,.17.1.19.19,0,0,0,.1,0c.25-.16.5-.32.75-.46a.17.17,0,0,0,.06-.06.16.16,0,0,0,0-.07.21.21,0,0,0,0-.15.2.2,0,0,0-.27-.07Z"/><path class="cls-3" d="M36.37,60.3l-.79.42a.21.21,0,0,0-.08.27.2.2,0,0,0,.18.1.15.15,0,0,0,.09,0l.78-.41a.2.2,0,1,0-.18-.36Z"/><path class="cls-3" d="M37.16,60.14a.19.19,0,0,0,.18.11h.08l.8-.36a.21.21,0,0,0,.11-.27.19.19,0,0,0-.26-.1l-.82.36a.23.23,0,0,0-.1.12A.16.16,0,0,0,37.16,60.14Z"/><path class="cls-3" d="M39,59.14a.22.22,0,0,0-.11.1.22.22,0,0,0,0,.08.12.12,0,0,0,0,.08.2.2,0,0,0,.19.12h.07l.82-.31a.2.2,0,0,0-.13-.37C39.52,58.93,39.24,59,39,59.14Z"/><path class="cls-3" d="M40.61,58.77a.2.2,0,0,0,.19.14h.06l.84-.26a.2.2,0,0,0-.11-.38l-.85.25A.2.2,0,0,0,40.61,58.77Z"/><path class="cls-3" d="M42.39,58.25a.19.19,0,0,0,.19.15h.05l.85-.2a.2.2,0,0,0,.15-.24.19.19,0,0,0-.23-.15l-.87.2A.19.19,0,0,0,42.39,58.25Z"/><path class="cls-3" d="M45.45,57.64a.2.2,0,0,0-.22-.17l-.88.15a.19.19,0,0,0-.16.15v.08a.19.19,0,0,0,.2.16h0l.87-.14A.2.2,0,0,0,45.45,57.64Z"/><path class="cls-3" d="M26.77,70a.21.21,0,0,0,.15-.09l.51-.68a.2.2,0,1,0-.31-.25c-.18.23-.36.47-.52.7a0,0,0,0,0,0,0c0,.06.07.13.11.18A.75.75,0,0,1,26.77,70Z"/><path class="cls-3" d="M27.74,68.47a.2.2,0,0,0,.13,0,.18.18,0,0,0,.15-.07c.19-.22.37-.44.56-.65a.21.21,0,0,0,0-.29.2.2,0,0,0-.28,0l-.57.66a.21.21,0,0,0,0,.15A.21.21,0,0,0,27.74,68.47Z"/><path class="cls-3" d="M29.07,67.15a.2.2,0,0,0,.15-.06c.19-.21.4-.42.6-.62a.2.2,0,0,0-.28-.28c-.21.2-.42.41-.61.62a.19.19,0,0,0,0,.28A.16.16,0,0,0,29.07,67.15Z"/><path class="cls-3" d="M30.23,65.52a.2.2,0,0,0,.14.34.15.15,0,0,0,.13,0l.65-.58a.2.2,0,0,0,0-.28.22.22,0,0,0-.29,0Z"/><path class="cls-3" d="M31.62,64.31a.17.17,0,0,0-.07.13.2.2,0,0,0,0,.15.2.2,0,0,0,.16.07.17.17,0,0,0,.12,0l.68-.54a.19.19,0,0,0,0-.28.2.2,0,0,0-.28,0Z"/><path class="cls-3" d="M33.09,63.19a.21.21,0,0,0-.05.28.19.19,0,0,0,.17.08.2.2,0,0,0,.11,0c.23-.17.48-.33.72-.49a.21.21,0,0,0-.23-.34Z"/><path class="cls-3" d="M34.56,62.44a.2.2,0,0,0,.17.1.2.2,0,0,0,.11,0l.74-.45a.2.2,0,0,0,.08-.27.21.21,0,0,0-.28-.07l-.75.45A.2.2,0,0,0,34.56,62.44Z"/><path class="cls-3" d="M36.15,61.52a.19.19,0,0,0,.18.11l.09,0,.77-.39a.2.2,0,0,0,.09-.27.19.19,0,0,0-.26-.09c-.26.12-.53.26-.79.4A.2.2,0,0,0,36.15,61.52Z"/><path class="cls-3" d="M37.89,60.43a.21.21,0,0,0-.1.27.21.21,0,0,0,.18.12l.09,0,.79-.35a.2.2,0,1,0-.15-.37Z"/><path class="cls-3" d="M39.48,60a.21.21,0,0,0,.19.13h.07l.82-.29.07,0a.22.22,0,0,0,0-.22.19.19,0,0,0-.25-.12c-.28.09-.56.19-.83.3A.2.2,0,0,0,39.48,60Z"/><path class="cls-3" d="M41.35,59.13a.2.2,0,0,0,.06.39h.05q.42-.14.84-.24a.21.21,0,0,0,.14-.25.2.2,0,0,0-.25-.14Z"/><path class="cls-3" d="M43.13,58.65a.2.2,0,0,0-.15.24.19.19,0,0,0,.19.16h0l.84-.18a.21.21,0,0,0,.16-.24.2.2,0,0,0-.23-.15C43.7,58.52,43.41,58.59,43.13,58.65Z"/><path class="cls-3" d="M25.39,64.06a.2.2,0,0,0-.3-.27l-.37.43.06.49a.43.43,0,0,1,0,.05C25,64.52,25.19,64.28,25.39,64.06Z"/><path class="cls-3" d="M26.73,62.36a.19.19,0,0,0-.28,0c-.23.22-.45.45-.66.67a.21.21,0,0,0,0,.29.19.19,0,0,0,.13,0,.2.2,0,0,0,.15-.06l.65-.67a.18.18,0,0,0,.06-.14A.2.2,0,0,0,26.73,62.36Z"/><path class="cls-3" d="M28.18,61a.22.22,0,0,0-.29,0l-.7.63a.21.21,0,0,0,0,.29.22.22,0,0,0,.15.06.24.24,0,0,0,.14-.05l.69-.63A.2.2,0,0,0,28.18,61Z"/><path class="cls-3" d="M29.71,59.79a.2.2,0,0,0-.28,0l-.74.59a.2.2,0,0,0,.12.35.2.2,0,0,0,.13,0l.73-.58A.2.2,0,0,0,29.71,59.79Z"/><path class="cls-3" d="M30.5,59.45l.77-.53a.2.2,0,1,0-.23-.33c-.26.17-.52.36-.78.54a.19.19,0,0,0,0,.28.21.21,0,0,0,.16.08A.19.19,0,0,0,30.5,59.45Z"/><path class="cls-3" d="M33,57.6a.2.2,0,0,0-.27-.08l-.82.5a.2.2,0,0,0-.06.27.22.22,0,0,0,.17.1.23.23,0,0,0,.11,0c.26-.17.53-.33.8-.49A.2.2,0,0,0,33,57.6Z"/><path class="cls-3" d="M34.72,56.88a.2.2,0,0,0,0-.15.19.19,0,0,0,0-.07.2.2,0,0,0-.27-.09l-.84.44a.21.21,0,0,0-.08.27.21.21,0,0,0,.18.11.16.16,0,0,0,.09,0c.27-.15.55-.29.83-.43Z"/><path class="cls-3" d="M35.58,56.47l.86-.38a.2.2,0,0,0,.1-.26.19.19,0,0,0-.26-.11l-.87.39a.2.2,0,0,0,.09.38A.13.13,0,0,0,35.58,56.47Z"/><path class="cls-3" d="M38.4,55.19a.24.24,0,0,0,0-.08.19.19,0,0,0-.25-.12l-.89.33a.22.22,0,0,0-.13.18.19.19,0,0,0,0,.08.2.2,0,0,0,.18.13h.08q.44-.18.87-.33a.18.18,0,0,0,.07,0A.21.21,0,0,0,38.4,55.19Z"/><path class="cls-3" d="M40.27,54.51a.2.2,0,0,0-.25-.14l-.9.28a.19.19,0,0,0-.13.25.18.18,0,0,0,.19.14h.06l.89-.27A.2.2,0,0,0,40.27,54.51Z"/><path class="cls-3" d="M42.18,54a.2.2,0,0,0-.24-.15L41,54.1a.2.2,0,0,0-.14.24.19.19,0,0,0,.19.15h0l.91-.22A.2.2,0,0,0,42.18,54Z"/><path class="cls-3" d="M43,53.67a.2.2,0,0,0-.16.23.2.2,0,0,0,.19.17h0L44,53.9a.2.2,0,0,0,.16-.23.19.19,0,0,0-.22-.16Z"/><path class="cls-3" d="M25.16,63.18a.2.2,0,0,0-.3-.27l-.21.24a2.35,2.35,0,0,0,0,.26v.31Z"/><path class="cls-3" d="M26.53,61.77a.22.22,0,0,0,0-.29.21.21,0,0,0-.29,0l-.67.67a.19.19,0,0,0,0,.28.2.2,0,0,0,.14.06.18.18,0,0,0,.14-.06Z"/><path class="cls-3" d="M27.29,61.06l.7-.62a.21.21,0,0,0,0-.29.21.21,0,0,0-.29,0l-.71.63a.22.22,0,0,0,0,.29.22.22,0,0,0,.15.06A.24.24,0,0,0,27.29,61.06Z"/><path class="cls-3" d="M29.58,58.92a.19.19,0,0,0-.28,0l-.75.58a.2.2,0,0,0,0,.28.21.21,0,0,0,.16.08.17.17,0,0,0,.12,0l.75-.58A.2.2,0,0,0,29.58,58.92Z"/><path class="cls-3" d="M31.17,58.05a.19.19,0,0,0,0-.27.19.19,0,0,0-.27-.06c-.27.17-.53.36-.8.54a.2.2,0,0,0,.12.36.2.2,0,0,0,.11,0Z"/><path class="cls-3" d="M32.86,57a.1.1,0,0,0,.06,0,.16.16,0,0,0,0-.07.26.26,0,0,0,0-.15.21.21,0,0,0-.28-.08l-.82.49a.2.2,0,0,0-.07.28.21.21,0,0,0,.17.1.23.23,0,0,0,.11,0Z"/><path class="cls-3" d="M33.77,56.51l.85-.43.06,0a.16.16,0,0,0,0-.07.2.2,0,0,0,0-.15.2.2,0,0,0-.27-.09l-.85.43a.21.21,0,0,0-.09.28.22.22,0,0,0,.18.1Z"/><path class="cls-3" d="M35.56,55.63l.87-.38a.2.2,0,0,0,.11-.26.21.21,0,0,0-.27-.11l-.88.38a.2.2,0,0,0-.09.27.2.2,0,0,0,.18.12Z"/><path class="cls-3" d="M37.4,54.86l.89-.32a.21.21,0,0,0,.12-.26.2.2,0,0,0-.26-.12q-.45.15-.9.33a.2.2,0,0,0-.11.26.19.19,0,0,0,.18.13Z"/><path class="cls-3" d="M39.15,53.83a.2.2,0,0,0,.06.39h.06l.91-.27a.19.19,0,0,0,.14-.24.2.2,0,0,0-.25-.14C39.76,53.64,39.46,53.73,39.15,53.83Z"/><path class="cls-3" d="M41,53.38a.25.25,0,0,0,0,.15.2.2,0,0,0,.2.15h0c.31-.08.61-.15.92-.21a.21.21,0,0,0,.16-.24.2.2,0,0,0-.24-.15c-.31.06-.63.13-.93.21A.21.21,0,0,0,41,53.38Z"/><path class="cls-3" d="M37.44,49.67a7.7,7.7,0,0,0-1,0,8.76,8.76,0,0,0-1.29.1,11.83,11.83,0,0,0-1.51.3,13.25,13.25,0,0,0-1.63.57l-.41.18-.1.05-.05,0-.05,0L31.2,51l-.41.22c-.14.07-.27.16-.4.24l-.4.26L29.6,52l-.38.29-.37.3a13.23,13.23,0,0,0-1.35,1.35c-.21.24-.4.49-.59.73s-.35.51-.5.76l-.23.38a3.59,3.59,0,0,0-.21.38l-.19.39a3.14,3.14,0,0,0-.18.37c-.05.13-.1.25-.16.38s-.1.24-.14.36-.16.48-.23.71l-.18.65c0,.21-.08.42-.12.61a5.24,5.24,0,0,0-.08.53l-.05.45c0,.27,0,.49,0,.64v.22s.06-.31.17-.84c0-.13.07-.28.11-.44l.06-.25c0-.08.05-.17.08-.26s.11-.37.18-.57l.22-.63c.18-.43.38-.88.62-1.35a3.13,3.13,0,0,1,.19-.36l.2-.35c.14-.24.3-.47.45-.72s.34-.46.51-.7l.29-.34c.1-.12.18-.24.29-.35a11.92,11.92,0,0,1,1.3-1.26l.35-.3c.11-.1.24-.18.36-.28s.24-.18.37-.26.25-.17.38-.25.51-.31.76-.46l.19-.11,0,0,0,0,.1,0c.14-.07.27-.14.4-.19a7.51,7.51,0,0,1,.77-.34c.25-.11.51-.2.76-.29.5-.16,1-.29,1.43-.39a11.42,11.42,0,0,1,1.25-.22c.37,0,.7-.08,1-.1l.63,0h.23l-.22,0Z"/><path class="cls-3" d="M99.55,34.23c-.19-.1-.39-.19-.58-.27a7.32,7.32,0,0,0-1.6-.46,8.11,8.11,0,0,0-.15-.88,5.34,5.34,0,0,0-1-2.21l-.08-.1a3.41,3.41,0,0,0-.38-.38,8,8,0,0,0-1.28-.87,7.85,7.85,0,0,0-.88-.42q-.28-.12-.57-.21a5.37,5.37,0,0,0-1.65-.29,3.48,3.48,0,0,0-.58.05c0-.14-.1-.29-.16-.43a3.61,3.61,0,0,0-.73-1.16A4.18,4.18,0,0,0,88,25.54a5.42,5.42,0,0,0-.65-.14l-.48-.07c-.3,0-.56,0-.75,0h-.21l-.5,0c-.18,0-.37,0-.56.08l-.29.07a2.36,2.36,0,0,0-.52.21,1.67,1.67,0,0,0-.33.23,2.26,2.26,0,0,0-.29.31h0a2.39,2.39,0,0,0-1.05-.54h-.07a9.52,9.52,0,0,0-2.16-.34,3.06,3.06,0,0,0-2.31.92,3.94,3.94,0,0,0-.53.72,8.08,8.08,0,0,0-.37.77c-.2.45-.4,1-.61,1.58S76,30.38,75.79,31c.1,1,.19,2.09.28,3.36a39,39,0,0,1,2.31-6.75,1.94,1.94,0,0,1,.78-.8l.23-.1a2.09,2.09,0,0,1,.76-.12,8.74,8.74,0,0,1,1.95.33,1.4,1.4,0,0,1,.94.86c-.52,3.37-1.71,9.37-2.91,15.13L79.68,45c-1,5-2,9.44-2.48,11.54l1.19-8.2-2.47,9-.08,0c0,.35,0,.69,0,1l19.51,4.58c-.23.53-.46,1-.67,1.5l-.21.46c-.81,1.75-1.36,2.83-1.36,2.83s-.28.15-.64.15c-2.49,0-11.54-2.15-17-3.58a2.68,2.68,0,0,1-.89,1.19,37,37,0,0,0,.24,5.47,22.78,22.78,0,0,1,.18,3.44h.21c.49,0,1.07.07,1.69.14s1.27.17,1.92.28,1.3.28,1.9.43,1.16.33,1.63.49.85.3,1.12.41l.42.17-.43-.13-.5-.14-.31-.09-.34-.09-.38-.1a3.89,3.89,0,0,0-.4-.1l-.86-.21c-.6-.15-1.24-.28-1.89-.4s-1.3-.23-1.91-.31-1.18-.17-1.67-.21l-.21,0c0,.16,0,.31,0,.45.58,0,1.19.08,1.84.15s1.1.14,1.67.24,1.13.22,1.7.35,1.13.29,1.68.46,1.08.35,1.6.52l1.47.51,1.32.44a19.57,19.57,0,0,0,2,.52l.33.07.25,0,.2,0h-.79A13.74,13.74,0,0,1,86,78l-1.38-.32c-.48-.13-1-.27-1.51-.43l-1.59-.46c-.55-.15-1.1-.29-1.66-.42s-1.11-.25-1.67-.36l-.82-.16-.8-.14c-.65-.11-1.28-.19-1.86-.27a2.45,2.45,0,0,1-.33.71c.92.13,1.92.29,3,.48l.34.06c1.42.26,3,.6,4.61,1l.29.08.93.24.43.11.69.17.41.09.6.13.4.08.51.1.38.07.44.07.33,0,.39,0,.29,0,.35,0h1l.22,0,.19,0,.18,0,.15,0,.14-.06.12-.06.11-.08.08-.06a.76.76,0,0,0,.08-.11l.06-.07,0-.12s0,0,0-.08a.47.47,0,0,0,0-.17.09.09,0,0,0,0,0,27.28,27.28,0,0,1,.59-5.3c.12-.58.25-1.13.38-1.65,0-.18.1-.36.14-.53.13-.45.25-.86.37-1.24,0-.09.06-.18.08-.26l.16,0a1.69,1.69,0,0,0,.74-.28,1.33,1.33,0,0,0,.45-.51c0-.07.19-.37.43-.87.34-.69.84-1.75,1.43-3.06l.53-1.18c.72-1.66,1.52-3.6,2.27-5.66a58.74,58.74,0,0,0,2.37-8C103,41.11,101.67,35.36,99.55,34.23ZM96.67,59.71c.17-.58.36-1.21.54-1.84.66-2.29,1.24-4.6,1.24-4.6s-.87,2.22-1.81,4.4c-.77,1.78-1.59,3.53-1.87,4.11l-4.16-1c.22-.55.65-1.63,1.2-3.15.2-.58.42-1.21.65-1.9s.47-1.44.72-2.23c.08-.27.16-.54.25-.82.16-.56.33-1.13.5-1.73.08-.3.17-.6.25-.91q.39-1.4.75-2.91c.33-1.35.65-2.77.95-4.24.51-2.59,1-5.35,1.27-8.22a6.19,6.19,0,0,1,1.82.61c1.29.68,2.79,5.64,1,14A66.33,66.33,0,0,1,96.67,59.71ZM77.92,57.83c.08-.35.26-1.16.5-2.29,0-.22.1-.46.16-.72.16-.75.35-1.62.55-2.57.07-.31.14-.64.21-1,.22-1,.45-2.08.69-3.2.56-2.63,1.16-5.52,1.74-8.33,1-4.83,1.87-9.44,2.28-12.14a1.76,1.76,0,0,1,.57-.84,3.5,3.5,0,0,1,1.51-.26,6.26,6.26,0,0,1,1.59.21,4,4,0,0,1,.73.29,2.59,2.59,0,0,1,.59.44,3.35,3.35,0,0,1,.75,1.7,55.62,55.62,0,0,1-1.14,10.07c-.06.34-.12.68-.19,1-.47,2.4-1,4.83-1.57,7.12-.16.66-.32,1.3-.47,1.93-.87,3.45-1.71,6.42-2.23,8.22l1.63-7.41-3.14,8.84ZM90.77,29.48l.14-.06a1.77,1.77,0,0,1,.48-.05A6.35,6.35,0,0,1,95,30.86a2.5,2.5,0,0,1,.35.38,4.47,4.47,0,0,1,.76,1.95,9.65,9.65,0,0,1,.12,1.16,103.74,103.74,0,0,1-6,24.71c.22-.83.49-1.84.73-2.85.59-2.4,1-4.82,1-4.82s-.24.74-.6,1.8l-.12.36c-.26.75-.58,1.62-.9,2.48-.53,1.4-1.1,2.78-1.46,3.64l-.29.68-4-.94c0-.15.11-.36.19-.63.75-2.53,2.92-10.05,4.42-17.47.39-2,.74-3.91,1-5.76A47.23,47.23,0,0,0,90.77,29.48Zm.73,40.4-.17,1c-.07.39-.15.85-.24,1.34,0,.24-.09.49-.13.75s-.09.51-.14.77-.09.52-.12.78-.08.51-.12.75-.08.48-.11.71-.06.44-.09.64c-.06.39-.11.72-.15,1s-.07.37-.07.37,0-.14-.08-.37S90,77,90,76.56q0-.3,0-.66c0-.23,0-.48,0-.73s0-.52.06-.78.06-.54.1-.81.1-.53.16-.79a7.63,7.63,0,0,1,.2-.76,9.37,9.37,0,0,1,.47-1.31q.06-.15.12-.27l.11-.24c.07-.15.14-.27.2-.38l.19-.32S91.54,69.65,91.5,69.88Zm-1.65,1.18c.08-.29.16-.54.22-.71l.09-.26,0,.27c0,.18-.07.43-.13.73s-.1.66-.17,1-.13.78-.18,1.19-.12.8-.16,1.18-.1.74-.13,1-.06.56-.08.74,0,.28,0,.28v-.29c0-.17,0-.43,0-.74s0-.67.05-1,.08-.79.13-1.2.13-.81.21-1.18S89.77,71.36,89.85,71.06Z"/><path class="cls-4" d="M99.94,33.49a7.46,7.46,0,0,0-1.82-.69,6,6,0,0,0-1.81-3.51,8.2,8.2,0,0,0-4.92-2h0A4.51,4.51,0,0,0,90.53,26a6.34,6.34,0,0,0-4.4-1.57h0a5.53,5.53,0,0,0-2.48.5,3.33,3.33,0,0,0-.32.2,3.74,3.74,0,0,0-.75-.28H82.5a10.2,10.2,0,0,0-2.35-.37,3.89,3.89,0,0,0-3.57,2.07,17.2,17.2,0,0,0-1,2.46,15.75,15.75,0,0,0-.41-2c-.92-2.9-3.74-2.9-4.67-2.9h-.85a3.51,3.51,0,0,0-.8.12,3.34,3.34,0,0,0-.27-.27,6.83,6.83,0,0,0-4-1.17,5.12,5.12,0,0,0-3,.81,4.29,4.29,0,0,0-1.09,1.08,5.48,5.48,0,0,0-1.18-.12,9,9,0,0,0-4.06,1,6,6,0,0,0-2.49,3.06,8.38,8.38,0,0,0-1.93.3c-3.12.9-5.38,7.4-5.38,15.44,0,8.67,2.92,19.54,3,20a2.19,2.19,0,0,0,1.17,1.43,29.13,29.13,0,0,1-.36,8.36,1.63,1.63,0,0,0,.33,1.4c.73.88,2.51,1.28,5.78,1.28,1,0,2.21,0,3.53-.12,1-.06,2.08-.09,3.16-.09,2.26,0,4.2.13,5.92.25,1.24.08,2.32.16,3.23.16a7.93,7.93,0,0,0,2.12-.23h0a64.47,64.47,0,0,1,8.72,1.69,30.45,30.45,0,0,0,7.19,1.34c2.4,0,2.77-1.17,2.77-1.86a28.86,28.86,0,0,1,1.37-8.26,2.25,2.25,0,0,0,1.45-1.16c.21-.42,5.31-10.46,7.1-18.94C103.68,41.83,102.8,35,99.94,33.49Zm-1.11,24c-.75,2.06-1.55,4-2.27,5.66L96,64.33c-.59,1.31-1.09,2.37-1.43,3.06-.24.5-.4.8-.43.87a1.33,1.33,0,0,1-.45.51,1.69,1.69,0,0,1-.74.28l-.16,0c0,.08,0,.17-.08.26-.12.38-.24.79-.37,1.24,0,.17-.09.35-.14.53-.13.52-.26,1.07-.38,1.65a27.28,27.28,0,0,0-.59,5.3.09.09,0,0,1,0,0,.47.47,0,0,1,0,.17s0,0,0,.08l0,.12-.06.07a.76.76,0,0,1-.08.11l-.08.06-.11.08-.12.06-.14.06-.15,0-.18,0-.19,0-.22,0h-1l-.35,0-.29,0-.39,0-.33,0L87,78.84l-.38-.07-.51-.1-.4-.08-.6-.13-.41-.09L84,78.2l-.43-.11-.93-.24-.29-.08c-1.65-.45-3.19-.79-4.61-1l-.34-.06c-1.07-.19-2.07-.35-3-.48a2.45,2.45,0,0,0,.33-.71c.58.08,1.21.16,1.86.27l.8.14.82.16c.56.11,1.12.23,1.67.36s1.11.27,1.66.42l1.59.46c.52.16,1,.3,1.51.43L86,78a13.74,13.74,0,0,0,2.1.26h.79l-.2,0-.25,0-.33-.07a19.57,19.57,0,0,1-2-.52l-1.32-.44-1.47-.51c-.52-.17-1-.36-1.6-.52s-1.11-.32-1.68-.46-1.14-.25-1.7-.35-1.13-.18-1.67-.24S75.44,75,74.86,75c0-.14,0-.29,0-.45l.21,0c.49,0,1.06.13,1.67.21s1.26.19,1.91.31,1.29.25,1.89.4l.86.21a3.89,3.89,0,0,1,.4.1l.38.1.34.09.31.09.5.14.43.13-.42-.17c-.27-.11-.65-.26-1.12-.41s-1-.33-1.63-.49-1.25-.3-1.9-.43-1.31-.21-1.92-.28-1.2-.11-1.69-.14h-.21a22.78,22.78,0,0,0-.18-3.44,37,37,0,0,1-.24-5.47,2.68,2.68,0,0,0,.89-1.19c5.51,1.43,14.56,3.58,17,3.58.36,0,.59,0,.64-.15s.55-1.08,1.36-2.83l.21-.46c.21-.46.44-1,.67-1.5L75.81,58.34c0-.31,0-.65,0-1l.08,0,2.47-9-1.19,8.2c.46-2.1,1.44-6.59,2.48-11.54l.45-2.14c1.2-5.76,2.39-11.76,2.91-15.13a1.4,1.4,0,0,0-.94-.86,8.74,8.74,0,0,0-1.95-.33,2.09,2.09,0,0,0-.76.12l-.23.1a1.94,1.94,0,0,0-.78.8,39,39,0,0,0-2.31,6.75c-.09-1.27-.18-2.39-.28-3.36.18-.58.36-1.13.54-1.64s.41-1.13.61-1.58a8.08,8.08,0,0,1,.37-.77,3.94,3.94,0,0,1,.53-.72,3.06,3.06,0,0,1,2.31-.92,9.52,9.52,0,0,1,2.16.34h.07a2.39,2.39,0,0,1,1.05.54h0a2.26,2.26,0,0,1,.29-.31,1.67,1.67,0,0,1,.33-.23,2.36,2.36,0,0,1,.52-.21l.29-.07c.19,0,.38-.06.56-.08l.5,0h.21c.19,0,.45,0,.75,0l.48.07a5.42,5.42,0,0,1,.65.14,4.18,4.18,0,0,1,1.91,1.06,3.61,3.61,0,0,1,.73,1.16c.06.14.11.29.16.43a3.48,3.48,0,0,1,.58-.05,5.37,5.37,0,0,1,1.65.29q.28.09.57.21a7.85,7.85,0,0,1,.88.42,8,8,0,0,1,1.28.87,3.41,3.41,0,0,1,.38.38l.08.1a5.34,5.34,0,0,1,1,2.21,8.11,8.11,0,0,1,.15.88A7.32,7.32,0,0,1,99,34c.19.08.39.17.58.27,2.12,1.13,3.42,6.88,1.65,15.3A58.74,58.74,0,0,1,98.83,57.49ZM50.14,74.42a25.25,25.25,0,0,0,.47-3.76c0-.45,0-.88,0-1.3s0-.78,0-1.15c0-1.11-.1-2.1-.19-2.91a2.23,2.23,0,0,1-.54-.25,1.31,1.31,0,0,1-.6-.81c-.15-.54-3-11.24-3-19.78a33.35,33.35,0,0,1,1.13-9.08c.12-.43.25-.83.39-1.21s.23-.61.35-.89a10.13,10.13,0,0,1,1.18-2.1A4.18,4.18,0,0,1,50.64,30a2,2,0,0,1,.43-.18,7.13,7.13,0,0,1,2-.27h.27a8.72,8.72,0,0,1,.55-1.27,4.5,4.5,0,0,1,1.76-1.89l.55-.26c.25-.11.5-.21.77-.3l.47-.13a7.64,7.64,0,0,1,1.87-.25,4.3,4.3,0,0,1,1.3.18l.25.08.09-.15a5,5,0,0,1,.43-.6,3.08,3.08,0,0,1,.68-.62,4.28,4.28,0,0,1,2.47-.66h0a6,6,0,0,1,3.46,1l.09.08a1.74,1.74,0,0,1,.4.57A2.36,2.36,0,0,1,69.63,25h.83a3.84,3.84,0,0,1,3.44,1.42,3.35,3.35,0,0,1,.43.89c0,.12.07.25.1.39s.14.6.2.95a86.55,86.55,0,0,1,.79,9.11c0,.75,0,1.69,0,2.76h0c0,.8,0,1.68,0,2.6,0,.62,0,1.25,0,1.9-.06,2.28-.14,4.74-.22,7.06,0,.62,0,1.22-.07,1.81q0,.45,0,.87c0,1.43-.08,2.71-.1,3.69,0,.52,0,1,0,1.41,0,.23,0,.45,0,.66s0,.39,0,.58c0,.54,0,1,0,1.33s0,.44,0,.63l0,.25a3.73,3.73,0,0,1-.18.67,2,2,0,0,1-.25.45,1.75,1.75,0,0,1-.69.54c-.32,4.27.81,8.44.25,10.24a1,1,0,0,1-.08.21,1.23,1.23,0,0,1-.37.51,1.26,1.26,0,0,1-.33.16l-.43.1-.16,0-.32,0H72l-.34,0h-.56l-.55,0h-.22l-.85,0h-.15l-.83-.06-.82,0-.45,0-.79,0-.36,0c-.77-.05-1.58-.09-2.44-.11h-1.8l-1,0h-.45L58.91,76,57.76,76l-.31,0-.78,0H54.34l-.54,0-.25,0-.46,0-.21,0-.47-.06-.11,0c-.18,0-.35-.06-.5-.09l-.12,0-.31-.08-.14,0L51,75.58l-.11,0-.2-.1-.07,0a1.16,1.16,0,0,1-.21-.16l0,0a.76.76,0,0,1-.11-.14.21.21,0,0,1,0-.06l-.06-.12a.64.64,0,0,1,0-.07.51.51,0,0,1,0-.13s0,0,0-.06A1.36,1.36,0,0,1,50.14,74.42ZM75.67,63.16l.68.15,1.78.38c.61.14,1.25.27,1.89.43l2,.44,2,.46c.64.14,1.27.31,1.89.45l1.76.43,1.59.39.7.18.63.16,1.93.51-.93-.1c-.58-.07-1.42-.18-2.42-.34l-1.61-.27-1.79-.33-1.91-.39-2-.43-2-.47L78,64.32l-.89-.24-.86-.24-.64-.18a2.09,2.09,0,0,0,0-.21A2.54,2.54,0,0,0,75.67,63.16Zm1.27-1.73h0l.11,0,.38.09,1.38.32,1.94.46c.7.17,1.46.35,2.22.51s1.5.36,2.22.52l1.94.44.4.09,1,.22.52.13-.53,0-1.41-.14-2-.3c-.72-.13-1.48-.29-2.24-.45l-2.22-.58-1-.32-.46-.14-.44-.15-1.32-.49ZM75.8,59l.73.15.86.19,1.85.4c.63.14,1.3.28,2,.44l2,.46,2,.48,2,.47c1.28.3,2.47.59,3.48.85,2,.51,3.39.89,3.39.89s-.35,0-1-.11L91.38,63l-.74-.12-.81-.13L89,62.58l-1.87-.35c-.64-.13-1.31-.26-2-.41l-2-.45-2-.49c-.67-.16-1.32-.34-2-.5s-1.24-.34-1.82-.5-1-.29-1.46-.43Zm5-22c-.13.5-.25,1-.37,1.48s-.26.9-.36,1.28l-.17.5-.07.22-.06.17L79.7,41l0-.35.12-.94c0-.19.07-.4.1-.62s.08-.45.12-.69c.09-.48.2-1,.3-1.49s.25-1,.37-1.48.25-.91.36-1.28l.29-.9.13-.34,0,.21,0,.15c0,.12,0,.25,0,.41l0,.25,0,.28c-.07.38-.14.83-.22,1.31S81,36.5,80.85,37Zm-2.64-5.67.38,0h.51l.59.05.58.12.5.14.34.15.13.06-.14,0-.37,0h-.52l-.59-.05L79,31.72l-.49-.15-.35-.14-.13-.06ZM76.3,41.5c.31,0,.64,0,1,.07a9.26,9.26,0,0,1,1.67.37l.54.21.2.1-.22,0-.25,0a2.69,2.69,0,0,1-.32,0,8.47,8.47,0,0,1-1.71-.06l-.46-.07-.43-.09C76.29,41.92,76.29,41.71,76.3,41.5Zm1.9-11.23a3,3,0,0,1,.45-.09,5.43,5.43,0,0,1,1.35,0,5.63,5.63,0,0,1,1.31.3,3.74,3.74,0,0,1,.42.18l.12.07,0,0-.17.06-.46.09a5.93,5.93,0,0,1-1.34,0,5.65,5.65,0,0,1-1.31-.29,3.81,3.81,0,0,1-.43-.19.92.92,0,0,1-.15-.09ZM76.28,42.72l.76,0,.74.12.65.16.45.16.16.08H77.73L77,43.24l-.72-.09C76.27,43,76.28,42.86,76.28,42.72Z"/><path class="cls-4" d="M91.36,69.83c-.06.11-.13.23-.2.38l-.11.24q-.06.12-.12.27A9.37,9.37,0,0,0,90.46,72a7.63,7.63,0,0,0-.2.76c-.06.26-.11.52-.16.79s-.08.54-.1.81,0,.53-.06.78,0,.5,0,.73,0,.46,0,.66c0,.41.08.74.12,1s.08.37.08.37,0-.14.07-.37.09-.57.15-1c0-.2.06-.42.09-.64s.08-.46.11-.71.08-.5.12-.75.08-.52.12-.78.09-.52.14-.77.08-.51.13-.75c.09-.49.17-1,.24-1.34l.17-1c0-.23,0-.37,0-.37Z"/><path class="cls-4" d="M89.6,72.09c-.08.37-.15.78-.21,1.18s-.1.82-.13,1.2,0,.74-.05,1,0,.57,0,.74v.29s0-.11,0-.28,0-.44.08-.74.09-.66.13-1,.1-.78.16-1.18.11-.81.18-1.19.11-.73.17-1,.1-.55.13-.73l0-.27-.09.26c-.06.17-.14.42-.22.71S89.68,71.71,89.6,72.09Z"/><path class="cls-4" d="M84.84,58.78c-.08.27-.14.48-.19.63l4,.94.29-.68c.36-.86.93-2.24,1.46-3.64.32-.86.64-1.73.9-2.48l.12-.36c.36-1.06.6-1.8.6-1.8s-.45,2.42-1,4.82c-.24,1-.51,2-.73,2.85a103.74,103.74,0,0,0,6-24.71,9.65,9.65,0,0,0-.12-1.16,4.47,4.47,0,0,0-.76-1.95,2.5,2.5,0,0,0-.35-.38,6.35,6.35,0,0,0-3.59-1.49,1.77,1.77,0,0,0-.48.05l-.14.06a47.23,47.23,0,0,1-.51,6.07c-.26,1.85-.61,3.8-1,5.76C87.76,48.73,85.59,56.25,84.84,58.78ZM95,40.08c-.11.57-.24,1.15-.37,1.68s-.28,1-.41,1.44-.27.76-.36,1l-.15.38s0-.15.06-.4,0-.28.08-.45,0-.18.05-.28,0-.2,0-.31c.09-.43.18-.93.27-1.46s.21-1.1.3-1.68.22-1.13.3-1.67.2-1,.26-1.46.15-.79.2-1l.08-.39v.4c0,.25,0,.62,0,1.06s-.07,1-.12,1.49S95.12,39.5,95,40.08ZM91.7,32.61l-.13-.12h.18a2.25,2.25,0,0,1,.44,0,5.06,5.06,0,0,1,1.25.29,5.8,5.8,0,0,1,.62.27l.28.15.24.16c.15.1.26.2.35.27l.12.13h-.62a5,5,0,0,1-1.24-.29,6,6,0,0,1-.63-.27L92.28,33,92,32.89A4.26,4.26,0,0,1,91.7,32.61Zm3.23,2.17h-.14l-.35-.05L94,34.59l-.51-.19-.5-.25-.41-.26-.15-.12-.12-.1-.1-.09h.14l.35,0,.46.12.52.19.49.25.41.26.28.22ZM89.61,44h.24l.31,0a8.22,8.22,0,0,1,1.58.41,8.08,8.08,0,0,1,1.47.7,5.4,5.4,0,0,1,.45.31,1.56,1.56,0,0,1,.17.14h-.21l-.55,0a8.81,8.81,0,0,1-1.58-.41,8.2,8.2,0,0,1-1.48-.7,4.58,4.58,0,0,1-.45-.32.69.69,0,0,1-.12-.1l0,0Zm2.78,2.75-.61-.16-.69-.21-.67-.26-.58-.26-.4-.22-.15-.09h.18l.2,0,.25,0,.63.12.7.21.67.28.57.3.38.25.14.11-.18,0Z"/><path class="cls-4" d="M100,49.28c1.76-8.33.26-13.29-1-14a6.19,6.19,0,0,0-1.82-.61c-.31,2.87-.76,5.63-1.27,8.22-.3,1.47-.62,2.89-.95,4.24q-.36,1.52-.75,2.91c-.08.31-.17.61-.25.91-.17.6-.34,1.17-.5,1.73-.09.28-.17.55-.25.82-.25.79-.49,1.54-.72,2.23s-.45,1.32-.65,1.9c-.55,1.52-1,2.6-1.2,3.15l4.16,1c.28-.58,1.1-2.33,1.87-4.11.94-2.18,1.81-4.4,1.81-4.4s-.58,2.31-1.24,4.6c-.18.63-.37,1.26-.54,1.84A66.33,66.33,0,0,0,100,49.28ZM97.17,38.63l.15,0,.37,0a3.47,3.47,0,0,1,1,.22,3.26,3.26,0,0,1,.93.5,1.86,1.86,0,0,1,.28.25l.1.11-.15,0h-.37a3.52,3.52,0,0,1-2-.72,1.71,1.71,0,0,1-.27-.25A.51.51,0,0,1,97.17,38.63ZM98.81,51h-.14a2.63,2.63,0,0,1-.46,0,6,6,0,0,1-2.51-.91,2.52,2.52,0,0,1-.36-.28.84.84,0,0,1-.13-.12l.18,0,.46,0a5.77,5.77,0,0,1,1.31.32,5.17,5.17,0,0,1,1.2.6,2.52,2.52,0,0,1,.36.28l.14.12ZM97.69,40l-.06-.09h.1l.27,0,.35.06.39.11.38.14.32.16.23.14.09.06-.11,0-.27,0-.37,0a3.15,3.15,0,0,1-.42-.09l-.39-.17-.31-.21ZM98.13,52,97.71,52l-.57-.12-.63-.19-.62-.26-.51-.26L95,50.91l-.13-.09h.16l.42.06L96,51l.63.2.62.25.52.27.35.22.13.1Zm2-5.77c-.06.46-.14.92-.22,1.34s-.19.82-.28,1.15-.2.6-.26.79l-.12.3v-.18l0-.14c0-.2,0-.48.08-.82,0-.17.05-.36.07-.55s0-.4.06-.62l.09-.65c0-.22,0-.45.07-.67.06-.45.11-.9.15-1.33s.11-.82.14-1.16c0-.17.05-.33.06-.47s0-.26,0-.36.05-.31.05-.31,0,.11,0,.32,0,.48.07.83,0,.75,0,1.18S100.19,45.8,100.15,46.26Z"/><path class="cls-4" d="M85.82,50.1l-1.63,7.41c.52-1.8,1.36-4.77,2.23-8.22.15-.63.31-1.27.47-1.93.56-2.29,1.1-4.72,1.57-7.12.07-.34.13-.68.19-1a55.62,55.62,0,0,0,1.14-10.07,3.35,3.35,0,0,0-.75-1.7,2.59,2.59,0,0,0-.59-.44,4,4,0,0,0-.73-.29,6.26,6.26,0,0,0-1.59-.21,3.5,3.5,0,0,0-1.51.26,1.76,1.76,0,0,0-.57.84c-.41,2.7-1.3,7.31-2.28,12.14-.58,2.81-1.18,5.7-1.74,8.33-.24,1.12-.47,2.2-.69,3.2-.07.33-.14.66-.21,1-.2,1-.39,1.82-.55,2.57-.06.26-.11.5-.16.72-.24,1.13-.42,1.94-.5,2.29l4.76,1.11Zm3-15.39c0,.41-.1.88-.17,1.39s-.16,1-.25,1.57-.21,1.06-.31,1.56-.22,1-.31,1.36-.2.72-.27.95l-.11.36s0-.14,0-.38l0-.19,0-.23c0-.17,0-.36,0-.56,0-.4.11-.87.18-1.38s.16-1,.24-1.58.22-1.06.32-1.56.22-1,.31-1.36.2-.72.27-.95l.11-.36,0,.38C88.92,34,88.89,34.31,88.85,34.71Zm-6.63,6.9.23,0a4.93,4.93,0,0,1,.61,0,11.26,11.26,0,0,1,1.78.2,11,11,0,0,1,1.73.5l.55.26a1.35,1.35,0,0,1,.2.11l-.23,0-.6,0a9.5,9.5,0,0,1-1.79-.2A9.09,9.09,0,0,1,83,42c-.23-.09-.42-.18-.56-.25Zm4.33,2.24H86l-.73-.07-.82-.12-.81-.19L83,43.25l-.49-.18L82.36,43l0,0H83l.72.06.82.13.81.19.7.21.49.18.18.09ZM84.49,31.72l.16,0,.42,0h.6l.67.09.66.17.56.2.39.19.14.09H87.5l-.59-.06-.66-.1-.65-.15L85,31.92l-.4-.14Zm.21-1.27c.12,0,.29,0,.5,0a6.91,6.91,0,0,1,1.47.18,6.08,6.08,0,0,1,.76.22,5,5,0,0,1,.64.26,3.23,3.23,0,0,1,.44.24l.17.11-.2,0a3.34,3.34,0,0,1-.5,0,6.83,6.83,0,0,1-1.47-.18,6.37,6.37,0,0,1-1.4-.47,4.08,4.08,0,0,1-.45-.25l-.16-.11Z"/><path class="cls-3" d="M97.27,38.74a1.71,1.71,0,0,0,.27.25,3.52,3.52,0,0,0,2,.72h.37l.15,0-.1-.11a1.86,1.86,0,0,0-.28-.25,3.26,3.26,0,0,0-.93-.5,3.47,3.47,0,0,0-1-.22l-.37,0-.15,0A.51.51,0,0,0,97.27,38.74Z"/><path class="cls-3" d="M98.72,50.88a2.52,2.52,0,0,0-.36-.28,5.17,5.17,0,0,0-1.2-.6,5.77,5.77,0,0,0-1.31-.32l-.46,0-.18,0a.84.84,0,0,0,.13.12,2.52,2.52,0,0,0,.36.28,6,6,0,0,0,2.51.91,2.63,2.63,0,0,0,.46,0h.19Z"/><path class="cls-3" d="M89.56,44.17a4.58,4.58,0,0,0,.45.32,8.2,8.2,0,0,0,1.48.7,8.81,8.81,0,0,0,1.58.41l.55,0h.21a1.56,1.56,0,0,0-.17-.14,5.4,5.4,0,0,0-.45-.31,8.08,8.08,0,0,0-1.47-.7,8.22,8.22,0,0,0-1.58-.41l-.31,0h-.46l0,0A.69.69,0,0,0,89.56,44.17Z"/><path class="cls-3" d="M83,42a9.09,9.09,0,0,0,1.72.5,9.5,9.5,0,0,0,1.79.2l.6,0,.23,0a1.35,1.35,0,0,0-.2-.11l-.55-.26a11,11,0,0,0-1.73-.5,11.26,11.26,0,0,0-1.78-.2,4.93,4.93,0,0,0-.61,0l-.23,0,.2.12C82.56,41.8,82.75,41.89,83,42Z"/><path class="cls-3" d="M76.29,42.14l.43.09.46.07a8.47,8.47,0,0,0,1.71.06,2.69,2.69,0,0,0,.32,0l.25,0,.22,0-.2-.1-.54-.21a9.26,9.26,0,0,0-1.67-.37c-.33,0-.66-.06-1-.07C76.29,41.71,76.29,41.92,76.29,42.14Z"/><path class="cls-3" d="M92.28,33l.28.16a6,6,0,0,0,.63.27,5,5,0,0,0,1.24.29h.62l-.12-.13c-.09-.07-.2-.17-.35-.27l-.24-.16-.28-.15a5.8,5.8,0,0,0-.62-.27,5.06,5.06,0,0,0-1.25-.29,2.25,2.25,0,0,0-.44,0h-.18l.13.12a4.26,4.26,0,0,0,.34.28Z"/><path class="cls-3" d="M84.66,30.59a4.08,4.08,0,0,0,.45.25,6.37,6.37,0,0,0,1.4.47,6.83,6.83,0,0,0,1.47.18,3.34,3.34,0,0,0,.5,0l.2,0-.17-.11a3.23,3.23,0,0,0-.44-.24,5,5,0,0,0-.64-.26,6.08,6.08,0,0,0-.76-.22,6.91,6.91,0,0,0-1.47-.18c-.21,0-.38,0-.5,0l-.2,0Z"/><path class="cls-3" d="M78,30.32a.92.92,0,0,0,.15.09,3.81,3.81,0,0,0,.43.19,5.65,5.65,0,0,0,1.31.29,5.93,5.93,0,0,0,1.34,0l.46-.09.17-.06,0,0-.12-.07a3.74,3.74,0,0,0-.42-.18,5.63,5.63,0,0,0-1.31-.3,5.43,5.43,0,0,0-1.35,0,3,3,0,0,0-.45.09Z"/><path class="cls-3" d="M75.58,63.66l.64.18.86.24.89.24,1.89.49,2,.47,2,.43,1.91.39,1.79.33,1.61.27c1,.16,1.84.27,2.42.34l.93.1-1.93-.51-.63-.16-.7-.18-1.59-.39-1.76-.43c-.62-.14-1.25-.31-1.89-.45l-2-.46-2-.44c-.64-.16-1.28-.29-1.89-.43l-1.78-.38-.68-.15a2.54,2.54,0,0,1,0,.29A2.09,2.09,0,0,1,75.58,63.66Z"/><path class="cls-3" d="M77.26,59.88c.58.16,1.19.34,1.82.5s1.29.34,2,.5l2,.49,2,.45c.67.15,1.34.28,2,.41l1.87.35.86.15.81.13.74.12,1.77.25c.61.08,1,.11,1,.11s-1.35-.38-3.39-.89c-1-.26-2.2-.55-3.48-.85l-2-.47-2-.48-2-.46c-.67-.16-1.34-.3-2-.44l-1.85-.4-.86-.19L75.8,59v.44C76.25,59.59,76.74,59.74,77.26,59.88Z"/><path class="cls-3" d="M100.25,44.91c0-.43,0-.84,0-1.18s0-.63-.07-.83,0-.32,0-.32,0,.11-.05.31,0,.23,0,.36,0,.3-.06.47c0,.34-.08.74-.14,1.16s-.09.88-.15,1.33c0,.22,0,.45-.07.67l-.09.65c0,.22,0,.42-.06.62s0,.38-.07.55c0,.34-.06.62-.08.82l0,.14v.18l.12-.3c.06-.19.16-.46.26-.79s.19-.73.28-1.15.16-.88.22-1.34S100.22,45.34,100.25,44.91Z"/><path class="cls-3" d="M95.39,36.89c0-.44,0-.81,0-1.06v-.4l-.08.39c0,.25-.11.61-.2,1s-.15.93-.26,1.46-.19,1.11-.3,1.67-.2,1.15-.3,1.68-.18,1-.27,1.46c0,.11,0,.21,0,.31s0,.19-.05.28-.06.32-.08.45-.06.4-.06.4l.15-.38c.09-.23.21-.58.36-1s.27-.91.41-1.44.26-1.11.37-1.68.18-1.15.24-1.7S95.36,37.33,95.39,36.89Z"/><path class="cls-3" d="M89,33.35l-.11.36c-.07.23-.16.56-.27.95s-.2.86-.31,1.36-.21,1-.32,1.56-.17,1.08-.24,1.58-.13,1-.18,1.38c0,.2,0,.39,0,.56l0,.23,0,.19c0,.24,0,.38,0,.38l.11-.36c.07-.23.16-.56.27-.95s.2-.86.31-1.36.21-1,.31-1.56.17-1.07.25-1.57.12-1,.17-1.39.07-.74.09-1Z"/><path class="cls-3" d="M81.37,34.21l0-.28,0-.25c0-.16,0-.29,0-.41l0-.15,0-.21-.13.34-.29.9c-.11.37-.23.81-.36,1.28s-.25,1-.37,1.48-.21,1-.3,1.49q-.06.36-.12.69c0,.22-.07.43-.1.62l-.12.94,0,.35.12-.34.06-.17.07-.22.17-.5c.1-.38.23-.81.36-1.28s.24-1,.37-1.48.2-1,.3-1.49S81.3,34.59,81.37,34.21Z"/><path class="cls-3" d="M93,46.9l-.14-.11-.38-.25-.57-.3L91.25,46l-.7-.21-.63-.12-.25,0-.2,0h-.18l.15.09.4.22.58.26.67.26.69.21.61.16.44.08Z"/><path class="cls-3" d="M86.57,43.75l-.49-.18-.7-.21-.81-.19L83.75,43,83,43h-.72l0,0,.13.07.49.18.69.21.81.19.82.12.73.07h.72Z"/><path class="cls-3" d="M76.27,43.15l.72.09.74.06H79l-.16-.08L78.43,43l-.65-.16L77,42.76l-.76,0C76.28,42.86,76.27,43,76.27,43.15Z"/><path class="cls-3" d="M98.16,51.94l-.35-.22-.52-.27-.62-.25L96,51l-.57-.12-.42-.06h-.16l.13.09.36.23.51.26.62.26.63.19.57.12.42.06h.16Z"/><path class="cls-3" d="M98.2,40.35l.39.17a3.15,3.15,0,0,0,.42.09l.37,0,.27,0,.11,0-.09-.06-.23-.14-.32-.16-.38-.14L98.35,40,98,39.89l-.27,0h-.1l.06.09.2.19Z"/><path class="cls-3" d="M94.83,34.68l-.28-.22-.41-.26L93.65,34l-.52-.19-.46-.12-.35,0h-.14l.1.09.12.1.15.12.41.26.5.25.51.19.47.13.35.05h.14Z"/><path class="cls-3" d="M84.64,31.78l.4.14.56.16.65.15.66.1.59.06h.59L88,32.31l-.39-.19-.56-.2-.66-.17-.67-.09h-.6l-.42,0-.16,0Z"/><path class="cls-3" d="M78.2,31.43l.35.14.49.15.58.12.59.05h.52l.37,0,.14,0-.13-.06-.34-.15-.5-.14-.58-.12-.59-.05h-.51l-.38,0-.14,0Z"/><path class="cls-3" d="M77.44,61.64l1.32.49.44.15.46.14,1,.32,2.22.58c.76.16,1.52.32,2.24.45l2,.3,1.41.14.53,0-.52-.13-1-.22-.4-.09-1.94-.44c-.72-.16-1.47-.33-2.22-.52s-1.52-.34-2.22-.51l-1.94-.46-1.38-.32-.38-.09-.11,0h0Z"/><path class="cls-4" d="M52.54,72.34c0,.31-.06.56-.07.74l0,.28.07-.27c0-.17.11-.42.16-.73s.12-.65.17-1,.09-.79.12-1.2,0-.82,0-1.21,0-.74,0-1,0-.56-.06-.74,0-.28,0-.28v.28c0,.18,0,.44,0,.74s0,.66,0,1,0,.78-.06,1.19c0,.2,0,.41,0,.61s0,.39,0,.58C52.59,71.68,52.57,72,52.54,72.34Z"/><path class="cls-4" d="M73,73.42c0-.42,0-.91,0-1.44s0-1.09,0-1.66-.07-1.12-.11-1.65-.1-1-.14-1.44-.1-.77-.13-1,0-.31-.06-.36v0s0,.18,0,.36,0,.43,0,.72c0,.1,0,.2,0,.3,0,.42,0,.92.07,1.44s0,1.09.07,1.65.06,1.13.08,1.65,0,1,.06,1.44,0,.78.06,1l0,.39s0-.14,0-.39S73,73.85,73,73.42Z"/><path class="cls-4" d="M66.67,74.29l.35,0,.6.07.23,0,.46,0-.45-.1c-.28-.06-.68-.15-1.18-.22S65.62,74,65,73.94s-1.28-.1-1.94-.12-1.33,0-2,0-1.19.08-1.69.14-.9.12-1.18.17l-.33.06-.12,0h.12l.33,0,1.2-.08c.49,0,1.06,0,1.68-.06s1.28,0,1.93,0,1.32,0,1.93.09S66.18,74.23,66.67,74.29Z"/><path class="cls-4" d="M69.55,75.58l.41.06.74.09h0L70,75.49c-.49-.14-1.19-.34-2-.51a25.69,25.69,0,0,0-3-.45c-.54,0-1.11-.09-1.68-.11s-1.16,0-1.74,0-1.17.06-1.74.1-1.13.12-1.67.19l-1.55.2-1.38.15c-.85.08-1.57.1-2.08.1l-.58,0h-.21l.2,0a4.71,4.71,0,0,0,.58.12,13.14,13.14,0,0,0,2.11.18q.66,0,1.41,0l1.56-.1,1.66-.12.85,0,.86,0c.57,0,1.14,0,1.7,0l.84,0c.27,0,.55,0,.82,0,1.07,0,2.07.13,2.93.21Z"/><path class="cls-4" d="M54.32,30.64a94.3,94.3,0,0,0-.47,10.76q0,1.66.09,3.21c.06,1.38.14,2.68.23,3.89,0,.61.1,1.19.16,1.75.37,3.9.84,6.6,1,7.4l4.1-.09c0-.38-.08-1.05-.12-1.86,0-.41,0-.85-.07-1.31s0-.94,0-1.42c-.08-2.47,0-4.93,0-4.93s.26,2.45.64,4.87c.18,1.18.38,2.34.55,3.24-.4-5.14-1.42-20.91.31-29.16l-.14-.08-.23-.1a2.21,2.21,0,0,0-.61-.11l-.35,0a6.57,6.57,0,0,0-.74.05,5.93,5.93,0,0,0-.78.15,6.45,6.45,0,0,0-1.56.6C55,28.14,54.47,30,54.32,30.64Zm5,.64c0,.26,0,.62,0,1.06s0,.94-.05,1.48,0,1.12,0,1.7,0,1.16-.05,1.7,0,1.05,0,1.49,0,.8,0,1v.4s0-.14-.07-.39-.09-.62-.14-1.05-.08-.95-.11-1.5,0-1.13,0-1.71c0-.3,0-.59,0-.87l.06-.85c.07-.54.14-1,.2-1.48s.15-.79.21-1l.09-.39Zm-3.79-1a.92.92,0,0,1,.15-.09,2.75,2.75,0,0,1,.39-.2,5,5,0,0,1,1.24-.33,5.08,5.08,0,0,1,1.28,0,3,3,0,0,1,.44.08l.16.05-.14.1c-.1.05-.23.12-.4.19a4.67,4.67,0,0,1-.57.2l-.33.07a1.86,1.86,0,0,1-.34.06,5.07,5.07,0,0,1-1.28,0,2.57,2.57,0,0,1-.43-.08ZM54.31,42.18l.19-.1c.12-.06.3-.13.51-.21a8.8,8.8,0,0,1,3.21-.46l.55.06.22.05-.2.1a5.09,5.09,0,0,1-.51.21l-.34.11-.39.11c-.27.06-.56.12-.85.16a8.6,8.6,0,0,1-1.63.08,4.47,4.47,0,0,1-.55-.07Zm3.13-11.49.49,0,.35,0,.13,0-.11.07-.32.16-.45.17-.53.14-.55.08-.48,0-.35,0-.14,0,.12-.08.31-.15.46-.17.53-.15Zm1.32,12.37-.16.06-.44.13-.62.13-.71.12-.71.07-.63,0h-.63l.15-.08.43-.17.61-.17.72-.14.73,0h.64l.45.06Z"/><path class="cls-4" d="M51.72,73.23c.06-.2.12-.41.17-.64s.1-.47.14-.72.08-.51.1-.78,0-.54.07-.81,0-.54,0-.81,0-.53,0-.78A11.81,11.81,0,0,0,52,67.31c-.08-.4-.17-.73-.24-1s-.12-.35-.12-.35,0,.13,0,.37,0,.57,0,1,0,.87,0,1.36c0,.25,0,.51,0,.76l0,.79c0,.26,0,.53,0,.79s0,.51,0,.76,0,.48,0,.71,0,.44,0,.64c0,.4,0,.74-.05,1s0,.37,0,.37.06-.12.15-.34c0-.06.05-.12.07-.19A7,7,0,0,0,51.72,73.23Z"/><path class="cls-4" d="M47.52,44.46A72.65,72.65,0,0,0,49.09,57.8l4.08-.1c0-.18,0-.43-.07-.74,0-.15,0-.31-.05-.49-.09-.89-.19-2-.27-3.21s-.14-2.08-.18-2.92c0-.37,0-.69-.05-1,0-.55,0-.88,0-.88s0,.23.1.62c0,.07,0,.16,0,.25s.07.38.11.6l.2,1.09c.12.66.26,1.39.41,2.12.3,1.45.62,2.9.83,3.78a104,104,0,0,1-.89-26.18h-.24a5.81,5.81,0,0,0-.8,0l-.43.06-.44.11a2,2,0,0,0-.88.66c-.1.12-.21.26-.32.42C48.92,33.92,47.52,38.07,47.52,44.46Zm2-9.41L49.6,35a1.73,1.73,0,0,1,.32-.18,3.24,3.24,0,0,1,1-.3,3.41,3.41,0,0,1,1.06,0l.36.09.11,0,0,0-.12.09-.14.08a.77.77,0,0,1-.18.1,3.24,3.24,0,0,1-1,.3,3.75,3.75,0,0,1-1.06,0l-.36-.09Zm3.09,2.72c0,.34,0,.74,0,1.16s0,.89-.05,1.34c0,.23,0,.45,0,.68s0,.44,0,.65c0,.43,0,.83,0,1.17s0,.63,0,.83l0,.32-.07-.31c0-.2-.08-.48-.13-.83S52,42,52,41.61s0-.9,0-1.36.07-.92.11-1.35.13-.83.2-1.17.14-.61.2-.81.09-.3.09-.3v.31C52.58,37.14,52.57,37.42,52.57,37.77Zm-.86-2-.23.15-.35.14-.42.09h-.43l-.37-.06L49.66,36l-.1-.05.1,0,.25-.08.35-.09.4-.06.4,0h.36l.26,0,.08,0h0Zm-1.91,10c.12,0,.24-.05.36-.06a5.61,5.61,0,0,1,1.34,0,3,3,0,0,1,.46.08.69.69,0,0,1,.17.05l-.15.09a2.81,2.81,0,0,1-.42.2,5,5,0,0,1-.94.28,2.25,2.25,0,0,1-.36.06,5.61,5.61,0,0,1-1.34,0,3,3,0,0,1-.46-.08l-.13,0,0,0,.15-.09.18-.1.24-.1A5,5,0,0,1,49.8,45.81Zm-1,1.63.39-.14.56-.16.66-.12.66-.06h.58l.42,0,.16,0-.15.07-.39.14-.57.15-.65.13-.66.05h-.58l-.42,0-.12,0h0Z"/><path class="cls-4" d="M61.17,53.93c0,.52.06,1,.1,1.43.07,1.07.14,1.83.16,2.15l4.82-.11.49-9.54.62,8.41c0-3-.08-10.57,0-17.63,0-.37,0-.74,0-1.11,0-1.1,0-2.19,0-3.23,0-3.13.11-5.9.22-7.75a1.73,1.73,0,0,0-.39-.95,5,5,0,0,0-2.67-.69,3.18,3.18,0,0,0-1.79.45,2.28,2.28,0,0,0-.34.29,3.65,3.65,0,0,0-.29.37,4.61,4.61,0,0,0-.45.85C60.1,33.89,60.73,47.37,61.17,53.93Zm.13-13.36.22-.07c.15,0,.35-.09.59-.13a10.61,10.61,0,0,1,1.8-.14,10,10,0,0,1,1.78.18l.59.14a1.4,1.4,0,0,1,.22.08l-.22.07a5.58,5.58,0,0,1-.59.13A9.63,9.63,0,0,1,63.9,41a9.38,9.38,0,0,1-1.79-.17,5,5,0,0,1-.59-.15Zm1-11.24.18-.07a3.49,3.49,0,0,1,.48-.15,7,7,0,0,1,1.47-.18,6.63,6.63,0,0,1,1.48.13c.2.05.37.09.48.13l.19.07-.18.08c-.12,0-.29.1-.49.15a6.32,6.32,0,0,1-1.47.17A6.53,6.53,0,0,1,63,29.53a4.13,4.13,0,0,1-.49-.13Zm-.68,12.54.2,0,.51-.08.35,0,.38,0,.83,0,.83.05.72.09.51.1.2.05-.2,0-.51.08-.73.06-.83,0-.83,0L62.32,42l-.51-.1Zm1.62-11.63.59-.09.68,0,.68.06.59.11.41.12.11.05h0l-.16,0-.18,0-.24,0-.28,0-.31,0h-.67l-.66,0-.59-.06-.42-.07-.16,0,.16-.06ZM66.83,37c0,.51-.09,1-.12,1.39,0,.2,0,.39-.07.55l0,.43-.06.37s0-.08,0-.22l0-.16v-.19c0-.22,0-.49,0-.79s0-.89,0-1.4,0-1.05,0-1.59.06-1.08.08-1.59.09-1,.12-1.39l.12-1L66.8,31l0,.22,0,.15a1.41,1.41,0,0,0,0,.2c0,.22,0,.48,0,.79s0,.88,0,1.39,0,1,0,1.6S66.85,36.46,66.83,37Z"/><path class="cls-4" d="M73.75,58.43a1.62,1.62,0,0,1,0-.22l-24.47.56c.12.57.24,1.11.35,1.61,0,.17.07.33.11.49.07.31.14.6.2.88s.07.26.1.39.11.48.16.68,0,.19.07.28l.22.83c0,.08.14.15.34.21l.24.06a13.25,13.25,0,0,0,1.44.18c.76.05,1.69.09,2.73.11h2.6c6.4,0,14.72-.44,15.17-.57a.71.71,0,0,0,.33-.18.39.39,0,0,0,.08-.1C73.72,63.2,73.69,62,73.75,58.43ZM66,63.72c-.63,0-1.28.07-1.94.09l-2,0-2,0c-.67,0-1.32,0-1.95,0l-1.82,0c-.58,0-1.13,0-1.64-.06-1,0-1.85-.12-2.44-.17l-.92-.09,1.41-.08.58,0,1.38,0c.5,0,1-.05,1.63-.06l1.81-.06,2,0,2,0,2,0c.66,0,1.31,0,1.94,0l1.82,0H69.4l1.38,0h1.46l.53,0h-.06l-.86.11c-.58.07-1.42.16-2.43.24-.5.05-1,.1-1.63.13Zm-13.52-4.4,1.43-.06,3.59-.12,2,0,2.09,0,2.08,0,2,0c1.31,0,2.54,0,3.59,0H70.7l1.11,0h1l-1,.12c-.61.07-1.49.17-2.53.25-.53,0-1.1.1-1.7.13l-.92.06-1,.05c-.65,0-1.33.07-2,.09l-2.09.06-2.09,0c-.69,0-1.37,0-2,0s-1.29,0-1.89,0l-1.7-.07c-1.05,0-1.92-.11-2.53-.16l-1-.08,1.21-.07.26,0Zm3.24,2,1.41,0,2,0h1.12l1.16,0c.77,0,1.55,0,2.27-.05s1.41,0,2,0h.8l.61,0h.54l-.53.1-.28,0-.7.11-.42.06-2,.2-2.29.11-2.29,0-2-.12L56,61.47l-.28,0-.53-.07Z"/><path class="cls-4" d="M68.78,26.63a1.88,1.88,0,0,0-.22.26c-.41,7.48-.24,28.14-.22,30.47l4.34-.1L73.5,48l.3,8.47c.08-2.73.22-6.42.33-9.92l0-1.3c.08-3,.12-5.74,0-7.44-.09-1.92-.21-3.81-.35-5.45,0-.47-.08-.92-.13-1.34a20.42,20.42,0,0,0-.56-3.35c-.4-1.28-1.44-1.46-2.7-1.46h-.8a1.3,1.3,0,0,0-.63.19A1.64,1.64,0,0,0,68.78,26.63Zm.92,3.27a5.36,5.36,0,0,1,1.34,0,5.65,5.65,0,0,1,1.31.29l.43.18.16.09-.18.06-.45.09a5.36,5.36,0,0,1-1.34,0,5.74,5.74,0,0,1-1.32-.29l-.42-.18-.16-.09.18-.06Zm3.46,13.46H72l-.75-.06-.74-.1-.65-.12L69.64,43l-.2,0-.17-.05.18,0,.47-.06.66,0,.76,0,.75.12.64.16.26.09.19.07.17.08Zm-.48-11.9-.14,0-.37.07-.25,0-.27,0h-.59l-.58-.07-.51-.1-.36-.12-.13-.05.14,0,.37-.07.52,0h.58l.59.07.51.11.35.11ZM69.07,41.72a4.59,4.59,0,0,1,.57-.09,8.72,8.72,0,0,1,1.71,0A9.24,9.24,0,0,1,73,41.9l.31.09.24.09.15.07.06,0-.22.06-.57.09a8.81,8.81,0,0,1-1.72,0,9.12,9.12,0,0,1-1.68-.29,4.79,4.79,0,0,1-.55-.19l-.21-.08Zm4.5-3.36v1.33c0,.39,0,.71,0,.94l0,.36-.06-.36c0-.22-.09-.54-.15-.93l-.14-1.32c0-.48-.08-1-.12-1.52s0-1,0-1.52V34c0-.39,0-.71,0-.94l0-.36.07.35c0,.23.08.55.14.93s.1.84.15,1.33.08,1,.12,1.52S73.55,37.87,73.57,38.36Z"/><path class="cls-3" d="M50.13,74.68a.51.51,0,0,0,0,.13.64.64,0,0,0,0,.07l.06.12a.21.21,0,0,0,0,.06.76.76,0,0,0,.11.14l0,0a1.16,1.16,0,0,0,.21.16l.07,0,.2.1.11,0,.23.08.14,0,.31.08.12,0c.15,0,.32.07.5.09l.11,0,.47.06.21,0,.46,0,.25,0,.54,0h2.33l.78,0,.31,0L58.91,76l1.51-.06h.45l1,0h1.8c.86,0,1.67.06,2.44.11l.36,0,.79,0,.45,0,.82,0,.83.06h.15l.85,0h.22l.55,0h.56l.34,0h.21l.32,0,.16,0,.43-.1a1.26,1.26,0,0,0,.33-.16,1.23,1.23,0,0,0,.37-.51,1,1,0,0,0,.08-.21c.56-1.8-.57-6-.25-10.24a1.75,1.75,0,0,0,.69-.54,2,2,0,0,0,.25-.45,3.73,3.73,0,0,0,.18-.67l0-.25c0-.19,0-.39,0-.63s0-.79,0-1.33c0-.19,0-.38,0-.58s0-.43,0-.66c0-.43,0-.89,0-1.41,0-1,.06-2.26.1-3.69q0-.42,0-.87c0-.59,0-1.19.07-1.81.08-2.32.16-4.78.22-7.06,0-.65,0-1.28,0-1.9,0-.92,0-1.8,0-2.6h0c0-1.07,0-2,0-2.76a86.55,86.55,0,0,0-.79-9.11c-.06-.35-.13-.68-.2-.95s-.07-.27-.1-.39a3.35,3.35,0,0,0-.43-.89A3.84,3.84,0,0,0,70.46,25h-.83a2.36,2.36,0,0,0-1.14.31,1.74,1.74,0,0,0-.4-.57L68,24.67a6,6,0,0,0-3.46-1h0a4.28,4.28,0,0,0-2.47.66,3.08,3.08,0,0,0-.68.62,5,5,0,0,0-.43.6l-.09.15-.25-.08a4.3,4.3,0,0,0-1.3-.18,7.64,7.64,0,0,0-1.87.25l-.47.13c-.27.09-.52.19-.77.3l-.55.26a4.5,4.5,0,0,0-1.76,1.89,8.72,8.72,0,0,0-.55,1.27h-.27a7.13,7.13,0,0,0-2,.27,2,2,0,0,0-.43.18,4.18,4.18,0,0,0-1.29,1.17,10.13,10.13,0,0,0-1.18,2.1c-.12.28-.24.57-.35.89s-.27.78-.39,1.21a33.35,33.35,0,0,0-1.13,9.08c0,8.54,2.87,19.24,3,19.78a1.31,1.31,0,0,0,.6.81,2.23,2.23,0,0,0,.54.25c.09.81.17,1.8.19,2.91,0,.37,0,.75,0,1.15s0,.85,0,1.3a25.25,25.25,0,0,1-.47,3.76,1.36,1.36,0,0,0,0,.2S50.13,74.66,50.13,74.68ZM73.35,63.75a.71.71,0,0,1-.33.18c-.45.13-8.77.55-15.17.57h-2.6c-1,0-2-.06-2.73-.11a13.25,13.25,0,0,1-1.44-.18l-.24-.06c-.2-.06-.32-.13-.34-.21l-.22-.83c0-.09,0-.18-.07-.28s-.1-.43-.16-.68-.07-.26-.1-.39-.13-.57-.2-.88c0-.16-.07-.32-.11-.49-.11-.5-.23-1-.35-1.61l24.47-.56a1.62,1.62,0,0,0,0,.22c-.06,3.6,0,4.77-.32,5.22A.39.39,0,0,1,73.35,63.75ZM67.89,75.39C67,75.31,66,75.23,65,75.18c-.27,0-.55,0-.82,0l-.84,0c-.56,0-1.13,0-1.7,0l-.86,0-.85,0-1.66.12-1.56.1q-.75,0-1.41,0a13.14,13.14,0,0,1-2.11-.18,4.71,4.71,0,0,1-.58-.12l-.2,0h.21l.58,0c.51,0,1.23,0,2.08-.1l1.38-.15,1.55-.2c.54-.07,1.09-.14,1.67-.19s1.15-.08,1.74-.1,1.16,0,1.74,0,1.14.06,1.68.11A25.69,25.69,0,0,1,68,75c.86.17,1.56.37,2,.51l.75.25h0L70,75.64l-.41-.06ZM65,74.15c-.61-.05-1.27-.08-1.93-.09s-1.31,0-1.93,0-1.19,0-1.68.06l-1.2.08-.33,0h-.12l.12,0,.33-.06c.28,0,.69-.12,1.18-.17s1.07-.11,1.69-.14,1.29,0,2,0,1.32.06,1.94.12,1.19.14,1.68.22.9.16,1.18.22l.45.1-.46,0-.23,0-.6-.07-.35,0C66.18,74.23,65.6,74.2,65,74.15Zm8,.29c0,.25,0,.39,0,.39l0-.39c0-.24,0-.59-.06-1s0-.91-.06-1.44,0-1.08-.08-1.65,0-1.12-.07-1.65,0-1-.07-1.44c0-.1,0-.2,0-.3q0-.43,0-.72c0-.18,0-.31,0-.36v0s0,.18.06.36.08.59.13,1,.1.91.14,1.44.07,1.09.11,1.65,0,1.13,0,1.66,0,1,0,1.44S73,74.2,73,74.44Zm-21.6-.28c-.09.22-.15.34-.15.34s0-.14,0-.37,0-.58.05-1c0-.2,0-.41,0-.64s0-.47,0-.71,0-.51,0-.76,0-.53,0-.79l0-.79c0-.25,0-.51,0-.76,0-.49,0-1,0-1.36s0-.73,0-1,0-.37,0-.37.05.12.12.35.16.56.24,1a11.81,11.81,0,0,1,.19,1.38c0,.25,0,.51,0,.78s0,.54,0,.81,0,.54-.07.81-.07.53-.1.78-.09.49-.14.72-.11.44-.17.64a7,7,0,0,1-.25.74C51.45,74,51.42,74.1,51.4,74.16Zm1.32-4c0-.41.05-.81.06-1.19s0-.74,0-1,0-.56,0-.74v-.28s0,.1,0,.28.05.43.06.74,0,.67,0,1,0,.8,0,1.21-.07.81-.12,1.2-.11.73-.17,1-.12.56-.16.73l-.07.27,0-.28c0-.18,0-.43.07-.74s.05-.66.09-1c0-.19,0-.38,0-.58S52.71,70.31,52.72,70.11Zm3.52-42.63a6.45,6.45,0,0,1,1.56-.6,5.93,5.93,0,0,1,.78-.15,6.57,6.57,0,0,1,.74-.05l.35,0a2.21,2.21,0,0,1,.61.11l.23.1.14.08c-1.73,8.25-.71,24-.31,29.16-.17-.9-.37-2.06-.55-3.24-.38-2.42-.64-4.87-.64-4.87s0,2.46,0,4.93c0,.48,0,1,0,1.42s0,.9.07,1.31c0,.81.09,1.48.12,1.86l-4.1.09c-.15-.8-.62-3.5-1-7.4-.06-.56-.11-1.14-.16-1.75-.09-1.21-.17-2.51-.23-3.89q-.06-1.55-.09-3.21a94.3,94.3,0,0,1,.47-10.76C54.47,30,55,28.14,56.24,27.48Zm5.43-.61a4.61,4.61,0,0,1,.45-.85,3.65,3.65,0,0,1,.29-.37,2.28,2.28,0,0,1,.34-.29,3.18,3.18,0,0,1,1.79-.45,5,5,0,0,1,2.67.69,1.73,1.73,0,0,1,.39.95c-.11,1.85-.18,4.62-.22,7.75,0,1,0,2.13,0,3.23,0,.37,0,.74,0,1.11,0,7.06,0,14.65,0,17.63l-.62-8.41-.49,9.54-4.82.11c0-.32-.09-1.08-.16-2.15,0-.43-.07-.91-.1-1.43C60.73,47.37,60.1,33.89,61.67,26.87Zm8.79-.65c1.26,0,2.3.18,2.7,1.46A20.42,20.42,0,0,1,73.72,31c0,.42.09.87.13,1.34.14,1.64.26,3.53.35,5.45.08,1.7,0,4.44,0,7.44l0,1.3c-.11,3.5-.25,7.19-.33,9.92L73.5,48l-.82,9.25-4.34.1c0-2.33-.19-23,.22-30.47a1.88,1.88,0,0,1,.22-.26,1.64,1.64,0,0,1,.25-.21,1.3,1.3,0,0,1,.63-.19ZM51.41,31l.44-.11.43-.06a5.81,5.81,0,0,1,.8,0h.24A104,104,0,0,0,54.21,57c-.21-.88-.53-2.33-.83-3.78-.15-.73-.29-1.46-.41-2.12L52.77,50c0-.22-.07-.43-.11-.6s0-.18,0-.25c-.07-.39-.1-.62-.1-.62s0,.33,0,.88c0,.27,0,.59.05,1,0,.84.1,1.88.18,2.92s.18,2.32.27,3.21c0,.18,0,.34.05.49,0,.31,0,.56.07.74l-4.08.1a72.65,72.65,0,0,1-1.57-13.34c0-6.39,1.4-10.54,2.69-12.38.11-.16.22-.3.32-.42A2,2,0,0,1,51.41,31Z"/><path class="cls-3" d="M49.62,35.11l.36.09a3.75,3.75,0,0,0,1.06,0,3.24,3.24,0,0,0,1-.3.77.77,0,0,0,.18-.1l.14-.08.12-.09,0,0-.11,0L52,34.48a3.41,3.41,0,0,0-1.06,0,3.24,3.24,0,0,0-1,.3,1.73,1.73,0,0,0-.32.18l-.12.09Z"/><path class="cls-3" d="M48.44,46.29l-.15.09,0,0,.13,0a3,3,0,0,0,.46.08,5.61,5.61,0,0,0,1.34,0,2.25,2.25,0,0,0,.36-.06,5,5,0,0,0,.94-.28,2.81,2.81,0,0,0,.42-.2l.15-.09a.69.69,0,0,0-.17-.05,3,3,0,0,0-.46-.08,5.61,5.61,0,0,0-1.34,0c-.12,0-.24,0-.36.06a5,5,0,0,0-.94.28l-.24.1Z"/><path class="cls-3" d="M54.52,42.22a4.47,4.47,0,0,0,.55.07,8.6,8.6,0,0,0,1.63-.08c.29,0,.58-.1.85-.16l.39-.11.34-.11a5.09,5.09,0,0,0,.51-.21l.2-.1-.22-.05-.55-.06a8.8,8.8,0,0,0-3.21.46c-.21.08-.39.15-.51.21l-.19.1Z"/><path class="cls-3" d="M61.52,40.64a5,5,0,0,0,.59.15A9.38,9.38,0,0,0,63.9,41a9.63,9.63,0,0,0,1.79-.13,5.58,5.58,0,0,0,.59-.13l.22-.07a1.4,1.4,0,0,0-.22-.08l-.59-.14a10,10,0,0,0-1.78-.18,10.61,10.61,0,0,0-1.8.14c-.24,0-.44.09-.59.13l-.22.07Z"/><path class="cls-3" d="M69.61,42.05a9.12,9.12,0,0,0,1.68.29,8.81,8.81,0,0,0,1.72,0l.57-.09.22-.06-.06,0-.15-.07L73.35,42,73,41.9a9.24,9.24,0,0,0-1.69-.29,8.72,8.72,0,0,0-1.71,0,4.59,4.59,0,0,0-.57.09l-.22.06.21.08A4.79,4.79,0,0,0,69.61,42.05Z"/><path class="cls-3" d="M55.74,30.34a2.57,2.57,0,0,0,.43.08,5.07,5.07,0,0,0,1.28,0,1.86,1.86,0,0,0,.34-.06l.33-.07a4.67,4.67,0,0,0,.57-.2c.17-.07.3-.14.4-.19l.14-.1-.16-.05a3,3,0,0,0-.44-.08,5.08,5.08,0,0,0-1.28,0,5,5,0,0,0-1.24.33,2.75,2.75,0,0,0-.39.2.92.92,0,0,0-.15.09Z"/><path class="cls-3" d="M63,29.53a6.53,6.53,0,0,0,1.47.13,6.32,6.32,0,0,0,1.47-.17c.2,0,.37-.11.49-.15l.18-.08-.19-.07c-.11,0-.28-.08-.48-.13a6.63,6.63,0,0,0-1.48-.13,7,7,0,0,0-1.47.18,3.49,3.49,0,0,0-.48.15l-.18.07.18.07A4.13,4.13,0,0,0,63,29.53Z"/><path class="cls-3" d="M69.25,30l-.18.06.16.09.42.18a5.74,5.74,0,0,0,1.32.29,5.36,5.36,0,0,0,1.34,0l.45-.09.18-.06-.16-.09-.43-.18A5.65,5.65,0,0,0,71,29.88a5.36,5.36,0,0,0-1.34,0Z"/><path class="cls-3" d="M69.42,63.48c1-.08,1.85-.17,2.43-.24l.86-.11h.06l-.53,0H70.78l-1.38,0H67.77l-1.82,0c-.63,0-1.28,0-1.94,0l-2,0-2,0-2,0-1.81.06c-.58,0-1.13,0-1.63.06l-1.38,0-.58,0-1.41.08.92.09c.59,0,1.43.12,2.44.17.51,0,1.06.05,1.64.06l1.82,0c.63,0,1.28,0,1.95,0l2,0,2,0c.66,0,1.31-.06,1.94-.09l1.82-.11C68.37,63.58,68.92,63.53,69.42,63.48Z"/><path class="cls-3" d="M50.38,59.44l1,.08c.61,0,1.48.12,2.53.16l1.7.07c.6,0,1.24,0,1.89,0s1.34,0,2,0l2.09,0,2.09-.06c.69,0,1.37-.06,2-.09l1-.05.92-.06c.6,0,1.17-.08,1.7-.13,1-.08,1.92-.18,2.53-.25l1-.12h-1L70.7,59H69.27c-1,0-2.28,0-3.59,0l-2,0-2.08,0-2.09,0-2,0-3.59.12-1.43.06-.6,0-.26,0Z"/><path class="cls-3" d="M52.59,36.62s0,.11-.09.3-.13.48-.2.81-.13.74-.2,1.17-.08.89-.11,1.35,0,.92,0,1.36.07.83.11,1.17.1.63.13.83l.07.31,0-.32c0-.2,0-.48,0-.83s0-.74,0-1.17c0-.21,0-.43,0-.65s0-.45,0-.68c0-.45,0-.91.05-1.34s0-.82,0-1.16,0-.63,0-.84v-.31Z"/><path class="cls-3" d="M59.27,31.27c-.06.25-.13.61-.21,1s-.13.94-.2,1.48l-.06.85c0,.28,0,.57,0,.87,0,.58,0,1.17,0,1.71s.07,1.06.11,1.5.1.79.14,1.05.07.39.07.39v-.4c0-.25,0-.62,0-1s0-1,0-1.49,0-1.12.05-1.7,0-1.16,0-1.7,0-1,.05-1.48,0-.8,0-1.06v-.4Z"/><path class="cls-3" d="M66.93,33.78c0-.51,0-1,0-1.39s0-.57,0-.79a1.41,1.41,0,0,1,0-.2l0-.15,0-.22-.06.37-.12,1c0,.41-.07.88-.12,1.39s0,1-.08,1.59,0,1.09,0,1.59,0,1,0,1.4,0,.57,0,.79v.19l0,.16c0,.14,0,.22,0,.22l.06-.37,0-.43c0-.16,0-.35.07-.55,0-.41.07-.88.12-1.39s0-1,.08-1.59S66.92,34.29,66.93,33.78Z"/><path class="cls-3" d="M73.4,35.32c-.05-.49-.1-.94-.15-1.33s-.11-.7-.14-.93L73,32.71l0,.36c0,.23,0,.55,0,.94v1.33c0,.49,0,1,0,1.52s.08,1,.12,1.52l.14,1.32c.06.39.11.71.15.93l.06.36,0-.36c0-.23,0-.55,0-.94V38.36c0-.49,0-1,0-1.52S73.44,35.8,73.4,35.32Z"/><path class="cls-3" d="M58.14,43H57.5l-.73,0-.72.14-.61.17-.43.17-.15.08h.63l.63,0,.71-.07.71-.12.62-.13.44-.13.16-.06-.17,0Z"/><path class="cls-3" d="M62.32,42l.72.08.83,0,.83,0,.73-.06.51-.08.2,0-.2-.05-.51-.1-.72-.09-.83-.05-.83,0-.38,0-.35,0-.51.08-.2,0,.2.05Z"/><path class="cls-3" d="M73.18,43.26,73,43.19l-.26-.09-.64-.16-.75-.12-.76,0-.66,0-.47.06-.18,0,.17.05.2,0,.26.07.65.12.74.1.75.06h1.12l.19,0Z"/><path class="cls-3" d="M48.79,47.54l.42,0h.58l.66-.05.65-.13.57-.15.39-.14.15-.07-.16,0-.42,0h-.58l-.66.06-.66.12-.56.16-.39.14-.15.07h0Z"/><path class="cls-3" d="M51.68,35.71l-.26,0h-.36l-.4,0-.4.06-.35.09-.25.08-.1,0,.1.05.25.09.37.06h.43l.42-.09.35-.14.23-.15.08-.07h0Z"/><path class="cls-3" d="M56.37,30.92l-.46.17-.31.15-.12.08.14,0,.35,0,.48,0,.55-.08.53-.14.45-.17.32-.16.11-.07-.13,0-.35,0-.49,0-.54.08Z"/><path class="cls-3" d="M62.66,30.4l.16,0,.42.07.59.06.66,0h.67l.31,0,.28,0,.24,0,.18,0,.16,0h0l-.11-.05-.41-.12-.59-.11-.68-.06-.68,0-.59.09-.41.1Z"/><path class="cls-3" d="M72.19,31.29l-.51-.11-.59-.07h-.58l-.52,0-.37.07-.14,0,.13.05.36.12.51.1.58.07h.59l.27,0,.25,0,.37-.07.14,0-.14-.06Z"/><path class="cls-3" d="M56,61.47l1.13.12,2,.12,2.29,0,2.29-.11,2-.2.42-.06.7-.11.28,0,.53-.1H67l-.61,0h-.8c-.58,0-1.26,0-2,0s-1.5,0-2.27.05l-1.16,0H59.09l-2,0-1.41,0-.54,0,.53.07Z"/><path class="cls-4" d="M28.74,99.38a7.93,7.93,0,0,1,5.83,2.14l-2.5,3.69a4.76,4.76,0,0,0-2.71-1.07,2.34,2.34,0,1,0,0,4.67,4.76,4.76,0,0,0,2.71-1.07l2.5,3.7a8,8,0,0,1-5.83,2.13c-4.38,0-7.71-3.11-7.71-7.09S24.36,99.38,28.74,99.38Z"/><path class="cls-4" d="M43.11,113.28l-2.5-4.47H40.4v4.47H35V99.67s2.91-.19,6-.19c4.58,0,6.66,1.94,6.66,4.76A4.15,4.15,0,0,1,45.82,108l3.54,5.25Zm-2.08-8a1.08,1.08,0,1,0,0-2.14H40.4v2.14Z"/><path class="cls-4" d="M55.19,113.28H49.77V99.67h5.42Z"/><path class="cls-4" d="M63.73,99.38a7.93,7.93,0,0,1,5.83,2.14l-2.5,3.69a4.76,4.76,0,0,0-2.71-1.07,2.34,2.34,0,1,0,0,4.67,4.76,4.76,0,0,0,2.71-1.07l2.5,3.7a8,8,0,0,1-5.83,2.13c-4.38,0-7.71-3.11-7.71-7.09S59.35,99.38,63.73,99.38Z"/><path class="cls-4" d="M80.18,106.48l4.37,6.8H78.31l-2.92-5.44v5.44H70V99.67h5.42v5.45l2.5-5.45h6.25Z"/><path class="cls-4" d="M90.18,109.39h6.24v3.89H84.76V99.67H96v3.89H90.18v1h5.41v3.89H90.18Z"/><path class="cls-4" d="M110,99.67v4.47h-4v9.14h-5.41v-9.14h-4V99.67Z"/><path class="cls-4" d="M53.4,118.9a5.48,5.48,0,0,1-.08,1.16h-3l0-.17.49-.2v-2.86l-.44,0v-.27H52l0,.18a4.23,4.23,0,0,1-.5.19v2.78l1.29-.08.19-.71Z"/><path class="cls-4" d="M58.34,119a4.81,4.81,0,0,1-.07,1H55.4l0-.17.49-.2v-2.87l-.42,0v-.27h2.84v.16a4.61,4.61,0,0,1-.08.8h-.4l-.09-.52-1.16-.07v1.23l1.3-.09v.51l-1.3,0v1.18l1.2-.06L58,119Z"/><path class="cls-4" d="M64.39,119.8v.26H62.7l0-.17a3,3,0,0,1,.54-.21l-.28-.65H61.45l-.29.7.57.07v.26H60.18l0-.17a3.69,3.69,0,0,1,.48-.19l1.32-3-.05-.14.61-.17L64,119.75Zm-1.62-1.15-.58-1.4-.59,1.4Z"/><path class="cls-4" d="M69.42,119.68h0l-1.19.49h-.16a2.14,2.14,0,0,1-1.09-.26,1.69,1.69,0,0,1-.65-.68,1.93,1.93,0,0,1-.21-.88,1.85,1.85,0,0,1,.57-1.4,2,2,0,0,1,1.49-.55,2.11,2.11,0,0,1,1.2.33h0v.13a2.56,2.56,0,0,1-.11.71h-.44l-.1-.55a2.32,2.32,0,0,0-1-.21h-.22a1.19,1.19,0,0,0-.51.59,2.15,2.15,0,0,0-.17.85,1.52,1.52,0,0,0,.35,1,1.12,1.12,0,0,0,.9.4,2.62,2.62,0,0,0,.63-.07v-.79a4.74,4.74,0,0,1-.61-.23l0-.19h1.69v.26l-.45.07Z"/><path class="cls-4" d="M75.82,116.69a4.67,4.67,0,0,1-.49.19v1.66c0,1.08-.51,1.63-1.46,1.63a1.69,1.69,0,0,1-1.22-.44,1.67,1.67,0,0,1-.45-1.21v-1.69l-.45,0v-.27h1.61l0,.18a3.91,3.91,0,0,1-.49.19v1.72a1.14,1.14,0,0,0,.27.82,1,1,0,0,0,.75.29,1.36,1.36,0,0,0,.53-.11,1.32,1.32,0,0,0,.34-1v-1.71l-.51-.06v-.27h1.49Z"/><path class="cls-4" d="M80.69,119a4.81,4.81,0,0,1-.07,1H77.75l0-.17.49-.2v-2.87l-.42,0v-.27h2.84v.16a3.85,3.85,0,0,1-.09.8h-.4l-.08-.52-1.16-.07v1.23l1.3-.09v.51l-1.3,0v1.18l1.2-.06.18-.59Z"/><path class="cls-3" d="M127.54,83.77l-.25-.08a5.45,5.45,0,0,0-1.19-.12H93.22c-.38,0-.74,0-1.09,0a9.47,9.47,0,0,1-1-.13,8,8,0,0,1-3.64-1.5.54.54,0,0,0-.18-.1h-.07l-.12,0h0l-.13,0H87l-.09,0-.08.05h0l-.2,0h-.4l-.22,0h-.64l-.4,0h-.19l-.66,0H84l-.66,0H83l-.54,0-.33,0-.58,0-.4,0-.61,0-.43,0-.68,0H79l-.76,0h-.44l-1.26,0h-.22l-1.14,0-.49,0-.92,0-.62,0-.91,0-.63,0-1,0-.63,0-1.07,0h-.63l-1.18,0H66.5l-1.81,0h-.24c-.55,0-1.1,0-1.66,0h-.61l-1.34,0H41.4l-2.69,0q-3.69,0-7.06-.17l-2.21-.09c-5-.22-9.45-.54-13.18-.86l-.26,0-4.17-.38L9.22,81l-.89-.09H8.28l-.72-.07H7.41l-.62-.06h-.1l-.58,0h0l-.51,0h0l-.44,0H5l-.37,0H3.26l-.07,0-.1,0H3l-.09,0,0,0-.09,0,0,0-.12.06h0a3.94,3.94,0,0,0-1.76,3c0,.16,0,.32,0,.47A3.46,3.46,0,0,0,1,85.4a2.56,2.56,0,0,0,.5.86,9.62,9.62,0,0,0,2,1.28c.37.2.79.41,1.25.63.92.44,2,.93,3.28,1.43A78.85,78.85,0,0,0,36.8,95.09h0c5.92,0,11.61-.18,16.88-.46l4-.24.53,0q1.92-.12,3.75-.27l2.32-.18,3.46-.31,3.7-.37L73.11,93l1.75-.2,2.56-.3,1.66-.22c1.58-.2,3-.39,4.1-.56l.28,0c1.34-.19,2.32-.35,2.93-.45l.25,0,.4-.07h.27a.67.67,0,0,0,.21-.1l.14-.11a.58.58,0,0,0,.15-.11,9.35,9.35,0,0,1,5.41-1.46H126.1a4.9,4.9,0,0,0,1.19-.12l.25-.07c.91-.32,1.46-1.09,1.46-2.71S128.45,84.09,127.54,83.77Zm-.85,4.11c-.11.2-.22.37-.32.52a2.7,2.7,0,0,1-.41.47,2.72,2.72,0,0,1,0-.62,5.55,5.55,0,0,1,.11-.6c.06-.21.13-.43.21-.65a5.25,5.25,0,0,1,.61-1.14,2.7,2.7,0,0,1,.41-.47,3.67,3.67,0,0,1,0,.62,5.75,5.75,0,0,1-.32,1.25C126.89,87.48,126.79,87.69,126.69,87.88Zm-3.73,1a2.72,2.72,0,0,1,0-.62,5.55,5.55,0,0,1,.11-.6,4.45,4.45,0,0,1,.21-.65,5.25,5.25,0,0,1,.61-1.14,2.45,2.45,0,0,1,.4-.47,2.72,2.72,0,0,1,0,.62,5.23,5.23,0,0,1-.32,1.25,3.92,3.92,0,0,1-.29.62,3.58,3.58,0,0,1-.32.52A2.45,2.45,0,0,1,123,88.87Zm-3,0a3.67,3.67,0,0,1,0-.62,4,4,0,0,1,.12-.6,4.45,4.45,0,0,1,.21-.65,4.85,4.85,0,0,1,.6-1.14,2.7,2.7,0,0,1,.41-.47,2.72,2.72,0,0,1,0,.62,5.23,5.23,0,0,1-.32,1.25c-.09.22-.19.43-.29.62a3.58,3.58,0,0,1-.32.52A2.7,2.7,0,0,1,120,88.87Zm-3,0a2.72,2.72,0,0,1,0-.62,5.55,5.55,0,0,1,.11-.6c.06-.21.13-.43.21-.65a3.09,3.09,0,0,1,.14-.32l.15-.31a3.45,3.45,0,0,1,.32-.51,3,3,0,0,1,.4-.47,3,3,0,0,1,0,.62,5.82,5.82,0,0,1-.33,1.25,3.92,3.92,0,0,1-.29.62,3.58,3.58,0,0,1-.32.52A2.45,2.45,0,0,1,117,88.87Zm-3,0a2.72,2.72,0,0,1,0-.62,3.85,3.85,0,0,1,.11-.6,4.45,4.45,0,0,1,.21-.65c0-.11.09-.22.13-.32a3,3,0,0,1,.16-.31,3.45,3.45,0,0,1,.32-.51,2.45,2.45,0,0,1,.4-.47,2.72,2.72,0,0,1,0,.62c0,.09,0,.18,0,.28s0,.21-.07.31a4.2,4.2,0,0,1-.21.66,3.92,3.92,0,0,1-.29.62,3.58,3.58,0,0,1-.32.52A3,3,0,0,1,114,88.87Zm-3,0a3.67,3.67,0,0,1,0-.62,4,4,0,0,1,.12-.6,6,6,0,0,1,.2-.65c0-.11.09-.22.14-.32a5.21,5.21,0,0,1,.31-.58l.16-.24c.11-.15.21-.27.28-.35l.09-.09,0,0v0s0,.08,0,.13a4.37,4.37,0,0,1,0,.45,5.23,5.23,0,0,1-.32,1.25c-.09.22-.19.43-.29.62s-.22.37-.32.52A2.7,2.7,0,0,1,110.94,88.87Zm-3-.62a5.55,5.55,0,0,1,.11-.6c.06-.21.13-.43.21-.65a5.25,5.25,0,0,1,.61-1.14,2.36,2.36,0,0,1,.28-.35,1.06,1.06,0,0,1,.12-.12.06.06,0,0,1,0,0,4.47,4.47,0,0,1,0,.58,5.82,5.82,0,0,1-.33,1.25,3.92,3.92,0,0,1-.29.62,3.58,3.58,0,0,1-.32.52,2.45,2.45,0,0,1-.4.47A2.72,2.72,0,0,1,108,88.25Zm-3,.62a2.72,2.72,0,0,1,0-.62,3.85,3.85,0,0,1,.11-.6,4.45,4.45,0,0,1,.21-.65,5.25,5.25,0,0,1,.61-1.14,2.45,2.45,0,0,1,.4-.47,1.15,1.15,0,0,1,0,.17,1.48,1.48,0,0,1,0,.2,2.5,2.5,0,0,1,0,.25,5.23,5.23,0,0,1-.32,1.25,3.92,3.92,0,0,1-.29.62,3.58,3.58,0,0,1-.32.52A3,3,0,0,1,104.94,88.87Zm-3,0a2.72,2.72,0,0,1,0-.62,4,4,0,0,1,.12-.6,6,6,0,0,1,.2-.65,5.25,5.25,0,0,1,.61-1.14,2.7,2.7,0,0,1,.41-.47,2.72,2.72,0,0,1,0,.62,5.75,5.75,0,0,1-.32,1.25c-.09.22-.19.43-.29.62s-.22.37-.32.52A2.7,2.7,0,0,1,101.93,88.87Zm-3,0a2.72,2.72,0,0,1,0-.62,5.55,5.55,0,0,1,.11-.6,6.11,6.11,0,0,1,.21-.65,4.51,4.51,0,0,1,.29-.63,3.45,3.45,0,0,1,.32-.51,3,3,0,0,1,.4-.47,2.72,2.72,0,0,1,0,.62c0,.09,0,.18,0,.28s0,.21-.07.31a4.2,4.2,0,0,1-.21.66,3.92,3.92,0,0,1-.29.62,3.58,3.58,0,0,1-.32.52A2.45,2.45,0,0,1,98.93,88.87Zm-3,0a3,3,0,0,1,0-.62,4,4,0,0,1,.12-.6,4.45,4.45,0,0,1,.21-.65,3.05,3.05,0,0,1,.13-.32c.1-.21.21-.41.31-.58l.16-.24c.11-.15.21-.27.28-.35l.13-.12a1.83,1.83,0,0,1,0,.37,2.5,2.5,0,0,1,0,.25,5.23,5.23,0,0,1-.32,1.25c-.09.22-.19.43-.29.62a3.58,3.58,0,0,1-.32.52A3,3,0,0,1,95.93,88.87Zm-7.75-.41a5.58,5.58,0,0,0-.93.55v0c0,.36,0,.66,0,.87v.33a4.59,4.59,0,0,1-.45-1.13,6.5,6.5,0,0,1-.25-1.23,10.27,10.27,0,0,1,0-2.86,8.71,8.71,0,0,1,.25-1.22,4.8,4.8,0,0,1,.45-1.14s0,.49,0,1.2,0,1.66,0,2.59c0,.37,0,.75,0,1.11a6.21,6.21,0,0,1,.88.11,5.82,5.82,0,0,1,.86.23c.23.07.37.13.37.13h0A6.27,6.27,0,0,0,88.18,88.46Zm-84.5-2c-.29-.15-.58-.31-.86-.49a3.76,3.76,0,0,1-.5-.36.44.44,0,0,1-.08-.09l0,0s0,0-.08-.13A1.59,1.59,0,0,1,2,85a2.85,2.85,0,0,1-.05-1.19,3.65,3.65,0,0,1,.34-1.06,2.38,2.38,0,0,1,.81-.94l.15-.07.06,0,.16,0,.21,0h.66c.33,0,.65,0,1,.06,1.29.11,2.57.24,3.84.37l3.82.38,3.8.34c5,.44,10,.75,14.82.94,2.41.09,4.78.15,7.1.2l6.8.1c4.43,0,8.61.06,12.47,0l4.2,0c5.86,0,10.8-.12,14.45-.22l4.65-.13,1.6,0,.82,0,2.59-.14q-.12.61-.21,1.41h-.17c-.89.07-2.18.12-3.73.1-3.11,0-7.28-.42-11.49-.46a64.32,64.32,0,0,0-11.51.94l-1.62.3-.48.1c-.63.12-1.17.25-1.62.35l-1.4.34,1.42-.27c.89-.17,2.18-.39,3.74-.58a64.38,64.38,0,0,1,11.44-.41c4.15.23,8.3.83,11.47,1,.76,0,1.45.07,2.07.08l-1,.14-4.06.5-1.21.14-1.29.14c-.88.1-1.81.2-2.78.29-1.93.21-4,.39-6.26.59s-4.56.39-7,.57-4.94.33-7.49.45c-1.28.08-2.57.13-3.86.18s-2.59.12-3.89.15l-3.88.12-3.86.07c-1.26,0-2.55,0-3.8,0s-2.47-.06-3.68-.13c-2.43-.11-4.77-.31-7-.55l-1.63-.19c-1.61-.2-3.14-.44-4.58-.66-1.92-.31-3.67-.64-5.22-1s-2.89-.63-4-.92-2-.53-2.54-.72l-.89-.29,0,0,.79.39c.56.25,1.39.6,2.46,1s2.41.8,3.94,1.23c.77.21,1.59.42,2.46.62l1.35.3,1.41.29c1.92.37,4,.71,6.25,1s4.59.53,7,.7c1.22.09,2.47.15,3.74.2s2.52.08,3.82.08h3.88l3.9,0c1.31,0,2.61,0,3.91-.08s2.59-.06,3.87-.12c2.57-.09,5.09-.22,7.54-.35s4.8-.3,7-.47L71,89.85l1.55-.14L74,89.57c1.94-.18,3.73-.37,5.31-.54l3.2-.38.89-.1,2.63-.35c0,.08,0,.16,0,.23L72.21,90.84,84.76,90l-.57.08c-.6.1-1.3.2-2.09.31h0l-.47.07-1.36.21-.48.07-.52.08c-1.1.16-2.51.36-4.18.57s-3.63.45-5.81.7l-1.12.12c-3.39.37-7.32.73-11.65,1-3.86.27-8,.49-12.47.63a121.22,121.22,0,0,1-13.95-.15A79.24,79.24,0,0,1,15.39,91l-1.83-.55c-.61-.2-1.22-.39-1.83-.6-1.22-.41-2.42-.86-3.62-1.34s-2.39-1-3.55-1.59C4.26,86.75,4,86.6,3.68,86.44ZM91.25,86a5.23,5.23,0,0,1-.32,1.25,3.92,3.92,0,0,1-.29.62,3.58,3.58,0,0,1-.32.52,2.45,2.45,0,0,1-.4.47,2.72,2.72,0,0,1,0-.62,5.55,5.55,0,0,1,.11-.6,4.45,4.45,0,0,1,.21-.65,4.51,4.51,0,0,1,.29-.63,3.45,3.45,0,0,1,.32-.51,2.36,2.36,0,0,1,.28-.35.75.75,0,0,1,.09-.09l0,0a.16.16,0,0,0,0,0v.33C91.27,85.83,91.27,85.92,91.25,86Zm1.67,2.86a2.72,2.72,0,0,1,0-.62,5.55,5.55,0,0,1,.11-.6c.06-.21.13-.43.21-.65a5.25,5.25,0,0,1,.61-1.14,2.7,2.7,0,0,1,.41-.47,3.67,3.67,0,0,1,0,.62c0,.09,0,.18-.05.28s0,.21-.07.31a5.53,5.53,0,0,1-.2.66c-.09.22-.19.43-.29.62s-.22.37-.32.52A2.7,2.7,0,0,1,92.92,88.87Z"/><path class="cls-4" d="M126.1,82.72H93.22A8.24,8.24,0,0,1,88,81.23a1.42,1.42,0,0,0-1.5-.17C85,81.16,71,82,49.18,82c-3.46,0-7,0-10.46-.06-13.06-.17-23.3-1.18-29.42-1.78-2.9-.29-4.45-.44-5.38-.44a3.19,3.19,0,0,0-1.69.36A4.88,4.88,0,0,0,0,84.31a3.71,3.71,0,0,0,.89,2.52c1.22,1.35,15.86,9.1,35.91,9.1A331.92,331.92,0,0,0,87.07,92h.08a1.41,1.41,0,0,0,.89-.3l.1-.08.18-.12a8.46,8.46,0,0,1,4.9-1.3H126.1c2.52,0,3.75-1.22,3.75-3.75S128.62,82.72,126.1,82.72Zm1.44,6.46-.25.07a4.9,4.9,0,0,1-1.19.12H93.22a9.35,9.35,0,0,0-5.41,1.46.58.58,0,0,1-.15.11l-.14.11a.67.67,0,0,1-.21.1H87l-.4.07-.25,0c-.61.1-1.59.26-2.93.45l-.28,0c-1.15.17-2.52.36-4.1.56l-1.66.22-2.56.3-1.75.2-1.66.18-3.7.37-3.46.31L62,94.08q-1.83.15-3.75.27l-.53,0-4,.24c-5.27.28-11,.46-16.88.46h0A78.85,78.85,0,0,1,8.06,89.6c-1.26-.5-2.36-1-3.28-1.43-.46-.22-.88-.43-1.25-.63a9.62,9.62,0,0,1-2-1.28A2.56,2.56,0,0,1,1,85.4a3.46,3.46,0,0,1-.17-1.09c0-.15,0-.31,0-.47a3.94,3.94,0,0,1,1.76-3h0l.12-.06,0,0,.09,0,0,0,.09,0h.06l.1,0,.07,0H4.64l.37,0h.07l.44,0h0l.51,0h0l.58,0h.1l.62.06h.15l.72.07h.05l.89.09,2.61.26,4.17.38.26,0c3.73.32,8.16.64,13.18.86l2.21.09q3.38.12,7.06.17l2.69,0H60.84l1.34,0h.61c.56,0,1.11,0,1.66,0h.24l1.81,0h.59l1.18,0h.63l1.07,0,.63,0,1,0,.63,0,.91,0,.62,0,.92,0,.49,0,1.14,0h.22l1.26,0h.44l.76,0h.45l.68,0,.43,0,.61,0,.4,0,.58,0,.33,0,.54,0h.32l.66,0H84l.66,0h.19l.4,0h.64l.22,0h.4l.2,0h0l.08-.05.09,0H87l.13,0h0l.12,0h.07a.54.54,0,0,1,.18.1,8,8,0,0,0,3.64,1.5,9.47,9.47,0,0,0,1,.13c.35,0,.71,0,1.09,0H126.1a5.45,5.45,0,0,1,1.19.12l.25.08c.91.32,1.46,1.09,1.46,2.7S128.45,88.86,127.54,89.18Z"/><path class="cls-4" d="M111.67,87.88c.1-.19.2-.4.29-.62a5.23,5.23,0,0,0,.32-1.25,4.37,4.37,0,0,0,0-.45s0-.1,0-.13v0l0,0-.09.09c-.07.08-.17.2-.28.35l-.16.24a5.21,5.21,0,0,0-.31.58c0,.1-.09.21-.14.32a6,6,0,0,0-.2.65,4,4,0,0,0-.12.6,3.67,3.67,0,0,0,0,.62,2.7,2.7,0,0,0,.41-.47C111.45,88.25,111.56,88.08,111.67,87.88Z"/><path class="cls-4" d="M99.65,87.88a3.92,3.92,0,0,0,.29-.62,4.2,4.2,0,0,0,.21-.66c0-.1,0-.21.07-.31s0-.19,0-.28a2.72,2.72,0,0,0,0-.62,3,3,0,0,0-.4.47,3.45,3.45,0,0,0-.32.51,4.51,4.51,0,0,0-.29.63,6.11,6.11,0,0,0-.21.65,5.55,5.55,0,0,0-.11.6,2.72,2.72,0,0,0,0,.62,2.45,2.45,0,0,0,.4-.47A3.58,3.58,0,0,0,99.65,87.88Z"/><path class="cls-4" d="M102.66,87.88c.1-.19.2-.4.29-.62a5.75,5.75,0,0,0,.32-1.25,2.72,2.72,0,0,0,0-.62,2.7,2.7,0,0,0-.41.47,5.25,5.25,0,0,0-.61,1.14,6,6,0,0,0-.2.65,4,4,0,0,0-.12.6,2.72,2.72,0,0,0,0,.62,2.7,2.7,0,0,0,.41-.47C102.44,88.25,102.55,88.08,102.66,87.88Z"/><path class="cls-4" d="M114.67,87.88a3.92,3.92,0,0,0,.29-.62,4.2,4.2,0,0,0,.21-.66c0-.1,0-.21.07-.31s0-.19,0-.28a2.72,2.72,0,0,0,0-.62,2.45,2.45,0,0,0-.4.47,3.45,3.45,0,0,0-.32.51,3,3,0,0,0-.16.31c0,.1-.09.21-.13.32a4.45,4.45,0,0,0-.21.65,3.85,3.85,0,0,0-.11.6,2.72,2.72,0,0,0,0,.62,3,3,0,0,0,.4-.47A3.58,3.58,0,0,0,114.67,87.88Z"/><path class="cls-4" d="M107.94,88.87a2.45,2.45,0,0,0,.4-.47,3.58,3.58,0,0,0,.32-.52,3.92,3.92,0,0,0,.29-.62,5.82,5.82,0,0,0,.33-1.25,4.47,4.47,0,0,0,0-.58.06.06,0,0,0,0,0,1.06,1.06,0,0,0-.12.12,2.36,2.36,0,0,0-.28.35,5.25,5.25,0,0,0-.61,1.14c-.08.22-.15.44-.21.65a5.55,5.55,0,0,0-.11.6A2.72,2.72,0,0,0,107.94,88.87Z"/><path class="cls-4" d="M123.68,87.88a3.92,3.92,0,0,0,.29-.62,5.23,5.23,0,0,0,.32-1.25,2.72,2.72,0,0,0,0-.62,2.45,2.45,0,0,0-.4.47A5.25,5.25,0,0,0,123.3,87a4.45,4.45,0,0,0-.21.65,5.55,5.55,0,0,0-.11.6,2.72,2.72,0,0,0,0,.62,2.45,2.45,0,0,0,.4-.47A3.58,3.58,0,0,0,123.68,87.88Z"/><path class="cls-4" d="M127.3,86a3.67,3.67,0,0,0,0-.62,2.7,2.7,0,0,0-.41.47A5.25,5.25,0,0,0,126.3,87c-.08.22-.15.44-.21.65a5.55,5.55,0,0,0-.11.6,2.72,2.72,0,0,0,0,.62,2.7,2.7,0,0,0,.41-.47c.1-.15.21-.32.32-.52s.2-.4.29-.62A5.75,5.75,0,0,0,127.3,86Z"/><path class="cls-4" d="M120.68,87.88c.1-.19.2-.4.29-.62a5.23,5.23,0,0,0,.32-1.25,2.72,2.72,0,0,0,0-.62,2.7,2.7,0,0,0-.41.47,4.85,4.85,0,0,0-.6,1.14,4.45,4.45,0,0,0-.21.65,4,4,0,0,0-.12.6,3.67,3.67,0,0,0,0,.62,2.7,2.7,0,0,0,.41-.47A3.58,3.58,0,0,0,120.68,87.88Z"/><path class="cls-4" d="M117.67,87.88a3.92,3.92,0,0,0,.29-.62,5.82,5.82,0,0,0,.33-1.25,3,3,0,0,0,0-.62,3,3,0,0,0-.4.47,3.45,3.45,0,0,0-.32.51l-.15.31a3.09,3.09,0,0,0-.14.32c-.08.22-.15.44-.21.65a5.55,5.55,0,0,0-.11.6,2.72,2.72,0,0,0,0,.62,2.45,2.45,0,0,0,.4-.47A3.58,3.58,0,0,0,117.67,87.88Z"/><path class="cls-4" d="M105.66,87.88a3.92,3.92,0,0,0,.29-.62,5.23,5.23,0,0,0,.32-1.25,2.5,2.5,0,0,0,0-.25,1.48,1.48,0,0,0,0-.2,1.15,1.15,0,0,0,0-.17,2.45,2.45,0,0,0-.4.47,5.25,5.25,0,0,0-.61,1.14,4.45,4.45,0,0,0-.21.65,3.85,3.85,0,0,0-.11.6,2.72,2.72,0,0,0,0,.62,3,3,0,0,0,.4-.47A3.58,3.58,0,0,0,105.66,87.88Z"/><path class="cls-4" d="M89.3,88.06h0s-.14-.06-.37-.13a5.82,5.82,0,0,0-.86-.23,6.21,6.21,0,0,0-.88-.11c0-.36,0-.74,0-1.11,0-.93,0-1.88,0-2.59s0-1.2,0-1.2a4.8,4.8,0,0,0-.45,1.14A8.71,8.71,0,0,0,86.59,85a10.27,10.27,0,0,0,0,2.86,6.5,6.5,0,0,0,.25,1.23,4.59,4.59,0,0,0,.45,1.13v-.33c0-.21,0-.51,0-.87v0a5.58,5.58,0,0,1,.93-.55A6.27,6.27,0,0,1,89.3,88.06Z"/><path class="cls-4" d="M96.65,87.88c.1-.19.2-.4.29-.62A5.23,5.23,0,0,0,97.26,86a2.5,2.5,0,0,0,0-.25,1.83,1.83,0,0,0,0-.37l-.13.12c-.07.08-.17.2-.28.35l-.16.24c-.1.17-.21.37-.31.58a3.05,3.05,0,0,0-.13.32,4.45,4.45,0,0,0-.21.65,4,4,0,0,0-.12.6,3,3,0,0,0,0,.62,3,3,0,0,0,.4-.47A3.58,3.58,0,0,0,96.65,87.88Z"/><path class="cls-5" d="M8.11,88.48c1.2.48,2.4.93,3.62,1.34.61.21,1.22.4,1.83.6l1.83.55A79.24,79.24,0,0,0,30.1,93.68a121.22,121.22,0,0,0,13.95.15c4.43-.14,8.61-.36,12.47-.63,4.33-.29,8.26-.65,11.65-1l1.12-.12c2.18-.25,4.13-.48,5.81-.7s3.08-.41,4.18-.57l.52-.08.48-.07,1.36-.21.47-.07h0c.79-.11,1.49-.21,2.09-.31l.57-.08-12.55.87,13.87-2.41c0-.07,0-.15,0-.23l-2.63.35-.89.1-3.2.38c-1.58.17-3.37.36-5.31.54l-1.49.14L71,89.85l-3.26.26c-2.23.17-4.59.32-7,.47s-5,.26-7.54.35c-1.28.06-2.57.09-3.87.12s-2.6.07-3.91.08l-3.9,0H37.6c-1.3,0-2.55,0-3.82-.08S31.26,91,30,90.87c-2.44-.17-4.8-.41-7-.7s-4.33-.63-6.25-1l-1.41-.29L14,88.58c-.87-.2-1.69-.41-2.46-.62-1.53-.43-2.86-.85-3.94-1.23s-1.9-.75-2.46-1l-.79-.39,0,0,.89.29c.58.19,1.43.45,2.54.72s2.43.61,4,.92,3.3.64,5.22,1c1.44.22,3,.46,4.58.66l1.63.19c2.21.24,4.55.44,7,.55,1.21.07,2.44.1,3.68.13s2.54,0,3.8,0l3.86-.07,3.88-.12c1.3,0,2.6-.09,3.89-.15s2.58-.1,3.86-.18c2.55-.12,5.06-.29,7.49-.45s4.77-.36,7-.57,4.33-.38,6.26-.59c1-.09,1.9-.19,2.78-.29l1.29-.14L79.11,87l4.06-.5,1-.14c-.62,0-1.31,0-2.07-.08-3.17-.16-7.32-.76-11.47-1a64.38,64.38,0,0,0-11.44.41c-1.56.19-2.85.41-3.74.58L54,86.57l1.4-.34c.45-.1,1-.23,1.62-.35l.48-.1,1.62-.3a64.32,64.32,0,0,1,11.51-.94c4.21,0,8.38.45,11.49.46,1.55,0,2.84,0,3.73-.1H86q.09-.8.21-1.41l-2.59.14-.82,0-1.6,0-4.65.13c-3.65.1-8.59.17-14.45.22l-4.2,0c-3.86,0-8,0-12.47,0l-6.8-.1c-2.32,0-4.69-.11-7.1-.2-4.81-.19-9.78-.5-14.82-.94L13,82.44l-3.82-.38c-1.27-.13-2.55-.26-3.84-.37-.33,0-.65,0-1-.06H3.65l-.21,0-.16,0-.06,0-.15.07a2.38,2.38,0,0,0-.81.94,3.65,3.65,0,0,0-.34,1.06A2.85,2.85,0,0,0,2,85a1.59,1.59,0,0,0,.15.35c0,.08.06.09.08.13l0,0a.44.44,0,0,0,.08.09,3.76,3.76,0,0,0,.5.36c.28.18.57.34.86.49s.58.31.88.45C5.72,87.47,6.91,88,8.11,88.48Zm48.8-.17-2.59.15L53,88.54l-1.34.06c-1.79.05-3.58.08-5.27.1l-4.59-.07-3.25-.16-1.23-.09,1.23-.07,2.28-.1,1,0c1.34,0,2.9-.1,4.58-.18s3.46-.12,5.25-.2c.89,0,1.79,0,2.67-.09l2.58-.1,1.24,0,2.3-.08,1,0,3.25-.09,1.23,0-1.22.18-3.22.4C60.15,88,58.59,88.17,56.91,88.31Zm-33.23.13c-1.45-.17-3-.41-4.48-.7l-1.53-.31-1.51-.33-3-.7-1.43-.35c-1.88-.47-3.63-.9-5.13-1.22L5.55,84.6l-.5-.11c-.82-.16-1.51-.29-2.06-.38H2.93a.76.76,0,0,1,0-.15,2.16,2.16,0,0,1,.59-1.24c.87.2,2,.48,3.41.85l1.17.32,1.24.36c2.57.74,5.52,1.65,8.5,2.44,2,.52,4,1,5.9,1.28.95.15,1.87.27,2.75.35s1.71.14,2.48.16a28.41,28.41,0,0,0,3.73-.12c.45,0,.8-.1,1-.12l.37,0-.37.06c-.24,0-.58.12-1,.17a28.15,28.15,0,0,1-3.74.31A42.66,42.66,0,0,1,23.68,88.44Zm-5.54-3.17h.26c.75,0,1.82.08,3.1.11,1,.06,2,.1,3.2.14l1.18,0c1.59.08,3.3.15,5,.19s3.41.14,5,.17l1.18,0,1.12,0,2.07,0c1.28.06,2.35.09,3.1.11l1.18.06-.67.08-.5.06c-.75.07-1.82.17-3.1.27s-2.78.13-4.39.18-3.32,0-5,0l-1.28-.07-1.27-.08-2.47-.17c-1.6-.17-3.09-.33-4.37-.5s-2.33-.36-3.07-.49l-1.08-.21h.23Zm16.3,6.54c1.77.07,3.66.12,5.54.14s3.78.08,5.55.08,3.43,0,4.85,0,2.6,0,3.43,0h1.28l-1.27.16c-.83.08-2,.2-3.42.31s-3.08.18-4.86.25-3.67.05-5.57,0-3.79-.14-5.57-.25-3.43-.29-4.84-.44l-1.48-.18-.86-.12-1.07-.15-1.28-.21,1.3,0,.32,0,.36,0,1.26.06h.47l1,0C31,91.7,32.67,91.76,34.44,91.81Z"/><path class="cls-4" d="M91.28,85.43a.16.16,0,0,1,0,0l0,0a.75.75,0,0,0-.09.09,2.36,2.36,0,0,0-.28.35,3.45,3.45,0,0,0-.32.51,4.51,4.51,0,0,0-.29.63,4.45,4.45,0,0,0-.21.65,5.55,5.55,0,0,0-.11.6,2.72,2.72,0,0,0,0,.62,2.45,2.45,0,0,0,.4-.47,3.58,3.58,0,0,0,.32-.52,3.92,3.92,0,0,0,.29-.62A5.23,5.23,0,0,0,91.25,86c0-.09,0-.18,0-.25Z"/><path class="cls-4" d="M93.65,87.88c.1-.19.2-.4.29-.62a5.53,5.53,0,0,0,.2-.66c0-.1,0-.21.07-.31s0-.19.05-.28a3.67,3.67,0,0,0,0-.62,2.7,2.7,0,0,0-.41.47A5.25,5.25,0,0,0,93.26,87c-.08.22-.15.44-.21.65a5.55,5.55,0,0,0-.11.6,2.72,2.72,0,0,0,0,.62,2.7,2.7,0,0,0,.41-.47C93.43,88.25,93.54,88.08,93.65,87.88Z"/><path class="cls-3" d="M32.72,88.41c.45,0,.79-.13,1-.17l.37-.06-.37,0c-.24,0-.59.08-1,.12a28.41,28.41,0,0,1-3.73.12c-.77,0-1.6-.07-2.48-.16s-1.8-.2-2.75-.35c-1.9-.31-3.91-.76-5.9-1.28-3-.79-5.93-1.7-8.5-2.44l-1.24-.36-1.17-.32c-1.37-.37-2.54-.65-3.41-.85A2.16,2.16,0,0,0,2.94,84a.76.76,0,0,0,0,.15H3c.55.09,1.24.22,2.06.38l.5.11,1.08.23c1.5.32,3.25.75,5.13,1.22l1.43.35,3,.7,1.51.33,1.53.31c1.52.29,3,.53,4.48.7a42.66,42.66,0,0,0,5.3.28A28.15,28.15,0,0,0,32.72,88.41Z"/><path class="cls-3" d="M17.3,85.26l1.08.21c.74.13,1.8.3,3.07.49s2.77.33,4.37.5l2.47.17,1.27.08,1.28.07c1.72,0,3.43,0,5,0s3.11-.11,4.39-.18,2.35-.2,3.1-.27l.5-.06.67-.08-1.18-.06c-.75,0-1.82,0-3.1-.11l-2.07,0-1.12,0-1.18,0c-1.6,0-3.31-.09-5-.17s-3.41-.11-5-.19l-1.18,0c-1.16,0-2.24-.08-3.2-.14-1.28,0-2.35-.07-3.1-.11h-.26l-.61,0H17.3Z"/><path class="cls-3" d="M64.71,87.5l1.22-.18-1.23,0-3.25.09-1,0-2.3.08-1.24,0-2.58.1c-.88,0-1.78.06-2.67.09-1.79.08-3.57.15-5.25.2s-3.24.14-4.58.18l-1,0-2.28.1-1.23.07,1.23.09,3.25.16,4.59.07c1.69,0,3.48,0,5.27-.1L53,88.54l1.33-.08,2.59-.15c1.68-.14,3.24-.28,4.58-.41Z"/><path class="cls-3" d="M28.58,91.58h-.47l-1.26-.06-.36,0-.32,0-1.3,0,1.28.21,1.07.15.86.12,1.48.18c1.41.15,3.07.3,4.84.44s3.67.19,5.57.25,3.79,0,5.57,0,3.44-.15,4.86-.25,2.59-.23,3.42-.31L55.09,92H53.81c-.83,0-2,0-3.43,0s-3.08,0-4.85,0S41.87,92,40,92s-3.77-.07-5.54-.14S31,91.7,29.6,91.62Z"/><path class="cls-4" d="M6.32,110.1l1.25.59c.82.39,2,1,3.54,1.66.77.34,1.61.74,2.55,1.13l3,1.25,3.49,1.32,3.9,1.35c2.74.88,5.72,1.8,8.92,2.59s6.59,1.53,10.12,2.15,7.22,1.06,11,1.41,7.59.49,11.4.49c1,0,1.93,0,2.89,0l2.85-.09c1,0,1.9-.11,2.84-.16s1.89-.12,2.83-.22c3.76-.31,7.43-.82,11-1.4,1.77-.33,3.51-.64,5.19-1S96.4,120.39,98,120s3.13-.86,4.63-1.26,2.92-.88,4.28-1.33c2.73-.92,5.21-1.83,7.39-2.68l3-1.24,2.54-1.13c1.54-.68,2.72-1.28,3.54-1.66l1.25-.59-1.21.67c-.79.43-1.92,1.13-3.44,1.86l-2.5,1.26-3,1.39c-1.07.5-2.23,1-3.44,1.49s-2.53,1-3.88,1.51-2.79,1-4.27,1.5-3,1-4.64,1.39-3.25.89-5,1.28-3.45.75-5.23,1.11c-.89.18-1.8.31-2.71.47s-1.82.31-2.75.43l-2.79.38-2.84.29c-.94.1-1.9.16-2.86.23s-1.91.15-2.88.17l-2.91.11c-1,0-1.93,0-2.89,0-3.88,0-7.75-.17-11.55-.54s-7.52-.88-11.08-1.57c-.9-.16-1.78-.34-2.65-.53s-1.74-.37-2.58-.57c-1.7-.43-3.36-.82-5-1.29-3.21-.87-6.18-1.91-8.91-2.89-1.35-.51-2.65-1-3.87-1.5l-3.44-1.49-3-1.4c-.92-.44-1.74-.88-2.5-1.26-1.51-.74-2.65-1.43-3.44-1.86Z"/><polygon class="cls-1" points="12.4 102.29 13.53 104.57 16.05 104.94 14.22 106.72 14.65 109.23 12.4 108.04 10.14 109.23 10.57 106.72 8.75 104.94 11.27 104.57 12.4 102.29"/><polygon class="cls-1" points="118.59 102.29 119.72 104.57 122.24 104.94 120.42 106.72 120.85 109.23 118.59 108.04 116.34 109.23 116.77 106.72 114.95 104.94 117.47 104.57 118.59 102.29"/></g></g></svg>