<svg width="48" height="62" viewBox="0 0 48 62" fill="none" xmlns="http://www.w3.org/2000/svg">
<g id="Group 10478">
<path id="Vector" d="M23.959 1C25.272 1 26.563 1.335 27.71 1.972L33.211 5.028C33.7407 5.32248 34.1821 5.75319 34.4894 6.27556C34.7968 6.79792 34.9589 7.39293 34.959 7.999V13.999L35.962 18.85C36.0161 19.1099 36.0116 19.3786 35.9488 19.6365C35.886 19.8944 35.7665 20.1351 35.599 20.3411C35.4315 20.547 35.2201 20.713 34.9804 20.827C34.7406 20.941 34.4785 21.0001 34.213 21C33.3814 20.9999 32.5538 20.8841 31.754 20.656L27.882 19.55C26.6063 19.185 25.2859 18.9999 23.959 19H24C22.6732 19.0001 21.3529 19.1849 20.077 19.549L16.205 20.655C15.4054 20.884 14.5778 21.0001 13.746 21C13.2829 21 12.8387 20.8161 12.5111 20.4887C12.1835 20.1613 11.9993 19.7172 11.999 19.254V19.173C11.999 19.058 12.01 18.943 12.033 18.83L13 14V8C13 6.766 13.669 5.628 14.748 5.029L20.249 1.973C21.3962 1.3349 22.6873 1.00001 24 1H23.959Z" stroke="black" stroke-width="2" stroke-miterlimit="10" stroke-linejoin="round"/>
<path id="Vector_2" d="M34.959 14.0001L27.956 12.4371C25.3532 11.8557 22.6544 11.8543 20.051 12.4331L13 14.0001M29 31.4811V35.0001L24 38.0001L19 35.0001V31.5251" stroke="black" stroke-width="2" stroke-miterlimit="10" stroke-linejoin="round"/>
<path id="Vector_3" d="M14.397 20.9767L14.947 25.1037C15.2383 27.2964 16.3185 29.308 17.9855 30.7621C19.6524 32.2162 21.792 33.0133 24.004 33.0042C26.2161 32.9951 28.3491 32.1806 30.004 30.7128C31.659 29.2451 32.7227 27.2248 32.996 25.0297L33.503 20.9727M19 35.0007L15 37.0007M15 37.0007L19 43.0007L24 38.0007L29 43.0007L33 37.0007L29 35.0007M15 37.0007L11.5 37.5007C9.2282 37.8254 7.12298 38.8782 5.50025 40.5009C3.87751 42.1236 2.82477 44.2289 2.5 46.5007L1 57.0007H10.966" stroke="black" stroke-width="2" stroke-miterlimit="10" stroke-linejoin="round"/>
<path id="Vector_4" d="M9.328 38.057C10.4411 45.3741 11.0001 52.7648 11 60.166V62M15 37V62M21 41V62M27 41V62M33 37V62M3 57V62" stroke="black" stroke-width="2" stroke-miterlimit="10" stroke-linejoin="round"/>
<path id="Vector_5" d="M6 57V52.403C6 48.812 7.448 45.394 9.982 42.903M33 37L36.5 37.5C38.7718 37.8248 40.877 38.8775 42.4998 40.5002C44.1225 42.123 45.1752 44.2282 45.5 46.5L47 57H37.034" stroke="black" stroke-width="2" stroke-miterlimit="10" stroke-linejoin="round"/>
<path id="Vector_6" d="M38.672 38.0566C37.5589 45.3737 36.9999 52.7644 37 60.1656V61.9996M45 56.9996V61.9996" stroke="black" stroke-width="2" stroke-miterlimit="10" stroke-linejoin="round"/>
<path id="Vector_7" d="M42.0001 56.9993V52.4023C42.0001 48.8113 40.5521 45.3933 38.0181 42.9023" stroke="black" stroke-width="2" stroke-miterlimit="10" stroke-linejoin="round"/>
</g>
</svg>
