<svg width="53" height="53" viewBox="0 0 53 53" fill="none" xmlns="http://www.w3.org/2000/svg">
<path d="M21.5612 2.134C21.697 2.13268 21.697 2.13268 21.8356 2.13134C21.9842 2.13229 21.9842 2.13229 22.1358 2.13325C22.2926 2.13243 22.2926 2.13243 22.4526 2.1316C22.7989 2.13023 23.1452 2.13114 23.4916 2.13219C23.7318 2.13198 23.972 2.13168 24.2121 2.13129C24.7158 2.13083 25.2195 2.1315 25.7231 2.13295C26.3696 2.13471 27.016 2.1337 27.6624 2.13184C28.1585 2.13072 28.6545 2.13107 29.1506 2.13188C29.389 2.13208 29.6273 2.13183 29.8657 2.13111C30.1986 2.13032 30.5314 2.13152 30.8643 2.13325C30.9633 2.13262 31.0624 2.13199 31.1644 2.13134C31.255 2.13222 31.3456 2.1331 31.4389 2.134C31.5569 2.13417 31.5569 2.13417 31.6774 2.13435C31.9466 2.18556 32.0358 2.2609 32.1934 2.48398C32.2316 2.71134 32.2316 2.71134 32.2307 2.98112C32.2314 3.13462 32.2314 3.13462 32.232 3.29122C32.2309 3.40335 32.2298 3.51548 32.2286 3.63102C32.2287 3.74919 32.2287 3.86736 32.2288 3.98912C32.2286 4.38065 32.2261 4.77214 32.2237 5.16366C32.2231 5.43475 32.2227 5.70585 32.2224 5.97694C32.2214 6.61814 32.2189 7.25933 32.2157 7.90052C32.2123 8.6305 32.2106 9.36049 32.209 10.0905C32.2058 11.5921 32.2003 13.0937 32.1934 14.5953C32.3421 14.5943 32.3421 14.5943 32.4939 14.5932C33.4276 14.5869 34.3613 14.5823 35.295 14.5792C35.7751 14.5776 36.2551 14.5754 36.7352 14.5719C37.1983 14.5685 37.6614 14.5666 38.1245 14.5658C38.3014 14.5653 38.4783 14.5641 38.6551 14.5625C38.9025 14.5602 39.1498 14.5599 39.3971 14.5601C39.4706 14.5589 39.544 14.5578 39.6196 14.5567C40.1188 14.5598 40.1188 14.5598 40.3332 14.7279C40.491 14.9264 40.5386 15.06 40.5923 15.3065C40.6108 15.3893 40.6293 15.4721 40.6484 15.5574C40.6677 15.6495 40.6869 15.7416 40.7068 15.8366C40.7284 15.936 40.7501 16.0355 40.7724 16.138C40.8474 16.486 40.9201 16.8345 40.9922 17.1832C41.0322 17.3766 41.0322 17.3766 41.0731 17.5739C41.2783 18.5693 41.4779 19.5658 41.6772 20.5625C41.7659 21.0061 41.855 21.4496 41.9441 21.8932C42.0962 22.6504 42.248 23.4077 42.3997 24.165C42.7761 26.0435 43.1535 27.9218 43.5308 29.8001C43.5907 30.098 43.6505 30.3958 43.7103 30.6937C44.5457 34.8522 45.3897 39.0088 46.2384 43.1647C46.345 43.6871 46.4516 44.2095 46.5578 44.7321C46.5968 44.9239 46.6358 45.1158 46.6749 45.3077C46.6934 45.3991 46.712 45.4906 46.7312 45.5849C46.8343 46.0913 46.9388 46.5974 47.0447 47.1033C47.091 47.3248 47.137 47.5463 47.1827 47.768C47.2358 48.0246 47.2896 48.2811 47.3443 48.5374C47.6258 49.9097 47.6258 49.9097 47.5137 50.5152C47.3987 50.6812 47.3987 50.6812 47.2031 50.8258C46.8994 50.8647 46.8994 50.8647 46.5191 50.8649C46.449 50.8653 46.3788 50.8658 46.3065 50.8662C46.0696 50.8674 45.8328 50.8663 45.5959 50.8652C45.4251 50.8656 45.2543 50.8661 45.0834 50.8667C44.6126 50.868 44.1418 50.8673 43.671 50.8664C43.1638 50.8657 42.6566 50.8668 42.1494 50.8676C41.1553 50.869 40.1611 50.8687 39.1669 50.8678C38.3592 50.8671 37.5516 50.867 36.7439 50.8673C36.6291 50.8674 36.5143 50.8674 36.396 50.8675C36.1629 50.8676 35.9297 50.8677 35.6966 50.8678C33.5083 50.8687 31.32 50.8676 29.1317 50.866C27.2524 50.8646 25.3732 50.8648 23.4939 50.8663C21.3137 50.8679 19.1334 50.8686 16.9531 50.8676C16.7208 50.8675 16.4885 50.8674 16.2562 50.8673C16.1419 50.8673 16.0275 50.8672 15.9098 50.8672C15.1027 50.8669 14.2956 50.8674 13.4885 50.8681C12.5055 50.869 11.5224 50.8687 10.5394 50.8671C10.0374 50.8663 9.5355 50.8659 9.03356 50.867C8.5746 50.8679 8.11566 50.8674 7.6567 50.8657C7.49015 50.8654 7.32359 50.8656 7.15704 50.8663C6.93163 50.8673 6.7063 50.8663 6.48089 50.8649C6.3554 50.8648 6.2299 50.8648 6.1006 50.8647C5.79689 50.8258 5.79689 50.8258 5.60127 50.6814C5.27305 50.2069 5.48638 49.4193 5.58036 48.8881C5.62409 48.6676 5.66892 48.4474 5.71463 48.2273C5.75138 48.0444 5.75138 48.0444 5.78886 47.8578C5.85633 47.523 5.92469 47.1883 5.99344 46.8537C6.06705 46.4944 6.13949 46.1349 6.21207 45.7754C6.35329 45.0769 6.49556 44.3786 6.63818 43.6803C6.80434 42.8666 6.96935 42.0526 7.1343 41.2386C7.45355 39.6634 7.77401 38.0884 8.09501 36.5135C8.30665 35.4751 8.51801 34.4367 8.72904 33.3982C8.75604 33.2654 8.78303 33.1325 8.81085 32.9957C8.86414 32.7334 8.91743 32.4712 8.97072 32.2089C9.29487 30.6137 9.61922 29.0185 9.94492 27.4236C10.0395 26.9604 10.1341 26.4971 10.2287 26.0338C10.2515 25.9219 10.2743 25.8101 10.2978 25.6948C10.6051 24.1888 10.909 22.6821 11.2097 21.1747C11.2693 20.8759 11.329 20.5772 11.3888 20.2785C11.408 20.1829 11.4271 20.0873 11.4468 19.9889C11.4846 19.8002 11.5223 19.6116 11.5601 19.423C11.6668 18.8899 11.7726 18.3567 11.8776 17.8233C11.9407 17.5041 12.0046 17.185 12.0687 16.866C12.0978 16.7207 12.1264 16.5753 12.1548 16.4298C12.1931 16.2331 12.2327 16.0366 12.2724 15.8402C12.2939 15.7314 12.3155 15.6225 12.3377 15.5104C12.437 15.1637 12.5777 14.8536 12.836 14.5953C13.0848 14.5855 13.3306 14.5823 13.5794 14.5836C13.6572 14.5835 13.7349 14.5835 13.815 14.5835C14.0732 14.5836 14.3314 14.5844 14.5897 14.5852C14.7682 14.5854 14.9468 14.5855 15.1253 14.5856C15.5962 14.586 16.0671 14.5871 16.538 14.5882C17.0181 14.5893 17.4982 14.5897 17.9784 14.5903C18.9211 14.5914 19.8639 14.5931 20.8067 14.5953C20.8064 14.5332 20.8061 14.471 20.8058 14.407C20.7989 12.896 20.7938 11.385 20.7906 9.87403C20.789 9.14332 20.7868 8.41263 20.7832 7.68192C20.7798 6.97718 20.778 6.27245 20.7772 5.5677C20.7766 5.29839 20.7755 5.02909 20.7738 4.75978C20.7716 4.38351 20.7713 4.00729 20.7714 3.63102C20.7703 3.51888 20.7692 3.40675 20.768 3.29122C20.7684 3.18888 20.7689 3.08655 20.7693 2.98112C20.769 2.89209 20.7687 2.80306 20.7684 2.71134C20.8067 2.48398 20.8067 2.48398 20.9365 2.3001C21.1617 2.14226 21.2875 2.1344 21.5612 2.134ZM22.2559 3.62265C22.2559 7.24363 22.2559 10.8646 22.2559 14.5953C23.4173 14.5953 24.5788 14.5953 25.7754 14.5953C25.7754 10.9743 25.7754 7.35335 25.7754 3.62265C24.614 3.62265 23.4525 3.62265 22.2559 3.62265ZM27.2246 3.62265C27.2246 7.24363 27.2246 10.8646 27.2246 14.5953C28.3861 14.5953 29.5475 14.5953 30.7442 14.5953C30.7442 10.9743 30.7442 7.35335 30.7442 3.62265C29.5827 3.62265 28.4213 3.62265 27.2246 3.62265ZM13.8711 16.0445C13.2396 18.4082 13.2396 18.4082 12.9395 20.8062C21.8894 20.8062 30.8394 20.8062 40.0606 20.8062C39.8146 19.2077 39.4645 17.6267 39.1289 16.0445C30.7938 16.0445 22.4588 16.0445 13.8711 16.0445ZM12.6289 22.2555C12.1357 24.5493 12.1357 24.5493 11.6605 26.8466C11.6306 26.9936 11.6008 27.1406 11.5709 27.2876C11.4921 27.676 11.4134 28.0644 11.3348 28.4528C11.2512 28.866 11.1673 29.2792 11.0836 29.6923C10.9431 30.385 10.8028 31.0776 10.6626 31.7703C10.5021 32.5629 10.3415 33.3556 10.1807 34.1482C10.0238 34.9215 9.86708 35.6948 9.71043 36.4682C9.64474 36.7925 9.579 37.1167 9.51322 37.441C9.43535 37.8249 9.35761 38.2088 9.27997 38.5927C9.23904 38.7949 9.198 38.9971 9.15694 39.1993C8.89017 40.5197 8.63923 41.8425 8.38478 43.1656C12.484 43.1656 16.5832 43.1656 20.8067 43.1656C20.8408 41.2185 20.875 39.2714 20.9102 37.2652C21.1584 37.017 21.2112 37.0322 21.5494 37.0319C21.64 37.0313 21.7306 37.0307 21.8239 37.0301C21.9733 37.0308 21.9733 37.0308 22.1257 37.0314C22.2827 37.0309 22.2827 37.0309 22.4429 37.0303C22.7903 37.0294 23.1377 37.03 23.4851 37.0307C23.7257 37.0306 23.9663 37.0304 24.2069 37.0301C24.7116 37.0298 25.2163 37.0302 25.721 37.0312C26.3692 37.0324 27.0174 37.0317 27.6656 37.0305C28.1625 37.0297 28.6594 37.03 29.1564 37.0305C29.3954 37.0306 29.6345 37.0305 29.8735 37.03C30.2071 37.0295 30.5407 37.0303 30.8744 37.0314C30.974 37.031 31.0736 37.0306 31.1762 37.0301C31.312 37.031 31.312 37.031 31.4506 37.0319C31.5296 37.032 31.6085 37.0321 31.6898 37.0321C31.8828 37.0582 31.8828 37.0582 32.0899 37.2652C32.124 39.2124 32.1582 41.1595 32.1934 43.1656C36.2926 43.1656 40.3918 43.1656 44.6153 43.1656C43.8797 39.4818 43.8797 39.4818 43.143 35.7982C43.1074 35.6203 43.1074 35.6203 43.071 35.4388C42.5346 32.7598 41.9959 30.0813 41.4556 27.4032C41.3867 27.0619 41.318 26.7206 41.2493 26.3793C41.1414 25.8436 41.0333 25.3079 40.925 24.7722C40.8853 24.5753 40.8456 24.3785 40.806 24.1816C40.752 23.9136 40.6978 23.6457 40.6436 23.3777C40.6278 23.2993 40.6121 23.2208 40.5959 23.1399C40.5345 22.8378 40.4687 22.5483 40.3711 22.2555C31.2162 22.2555 22.0613 22.2555 12.6289 22.2555ZM22.2559 38.4039C22.2559 39.9753 22.2559 41.5466 22.2559 43.1656C23.4173 43.1656 24.5788 43.1656 25.7754 43.1656C25.7754 41.5942 25.7754 40.0229 25.7754 38.4039C24.614 38.4039 23.4525 38.4039 22.2559 38.4039ZM27.2246 38.4039C27.2246 39.9753 27.2246 41.5466 27.2246 43.1656C28.3861 43.1656 29.5475 43.1656 30.7442 43.1656C30.7442 41.5942 30.7442 40.0229 30.7442 38.4039C29.5827 38.4039 28.4213 38.4039 27.2246 38.4039ZM8.07424 44.6148C7.44636 46.9793 7.44636 46.9793 7.1426 49.3766C11.6517 49.3766 16.1609 49.3766 20.8067 49.3766C20.8067 47.8052 20.8067 46.2338 20.8067 44.6148C16.605 44.6148 12.4033 44.6148 8.07424 44.6148ZM22.2559 44.6148C22.2559 46.1862 22.2559 47.7576 22.2559 49.3766C23.4173 49.3766 24.5788 49.3766 25.7754 49.3766C25.7754 47.8052 25.7754 46.2338 25.7754 44.6148C24.614 44.6148 23.4525 44.6148 22.2559 44.6148ZM27.2246 44.6148C27.2246 46.1862 27.2246 47.7576 27.2246 49.3766C28.3861 49.3766 29.5475 49.3766 30.7442 49.3766C30.7442 47.8052 30.7442 46.2338 30.7442 44.6148C29.5827 44.6148 28.4213 44.6148 27.2246 44.6148ZM32.1934 44.6148C32.1934 46.1862 32.1934 47.7576 32.1934 49.3766C36.7025 49.3766 41.2117 49.3766 45.8574 49.3766C45.5629 47.7863 45.259 46.1975 44.9258 44.6148C40.7241 44.6148 36.5224 44.6148 32.1934 44.6148Z" fill="#2A373F"/>
<path d="M21.5612 36.9152C21.6971 36.9139 21.6971 36.9139 21.8356 36.9126C21.9842 36.9135 21.9842 36.9135 22.1358 36.9145C22.2927 36.9137 22.2927 36.9137 22.4526 36.9128C22.799 36.9115 23.1453 36.9124 23.4916 36.9134C23.7318 36.9132 23.972 36.9129 24.2122 36.9125C24.7159 36.9121 25.2195 36.9127 25.7232 36.9142C26.3696 36.916 27.016 36.9149 27.6625 36.9131C28.1585 36.912 28.6546 36.9123 29.1506 36.9131C29.389 36.9133 29.6274 36.9131 29.8658 36.9124C30.1986 36.9116 30.5314 36.9128 30.8643 36.9145C30.9634 36.9139 31.0624 36.9132 31.1645 36.9126C31.255 36.9135 31.3456 36.9143 31.4389 36.9152C31.557 36.9154 31.557 36.9154 31.6774 36.9156C31.9466 36.9668 32.0359 37.0421 32.1934 37.2652C32.2316 37.4926 32.2316 37.4926 32.2308 37.7624C32.2312 37.8647 32.2316 37.967 32.2321 38.0725C32.2309 38.1846 32.2298 38.2967 32.2287 38.4123C32.2287 38.5895 32.2287 38.5895 32.2288 38.7704C32.2286 39.1619 32.2262 39.5534 32.2238 39.9449C32.2232 40.216 32.2227 40.4871 32.2224 40.7582C32.2215 41.3994 32.2189 42.0406 32.2158 42.6818C32.2123 43.4118 32.2106 44.1417 32.2091 44.8717C32.2058 46.3733 32.2003 47.8749 32.1934 49.3766C31.7152 49.3766 31.2369 49.3766 30.7442 49.3766C30.7442 47.8052 30.7442 46.2338 30.7442 44.6148C29.5828 44.6148 28.4213 44.6148 27.2247 44.6148C27.2247 46.1862 27.2247 47.7576 27.2247 49.3766C26.7464 49.3766 26.2682 49.3766 25.7755 49.3766C25.7755 47.8052 25.7755 46.2338 25.7755 44.6148C24.614 44.6148 23.4526 44.6148 22.2559 44.6148C22.2559 46.1862 22.2559 47.7576 22.2559 49.3766C21.7777 49.3766 21.2994 49.3766 20.8067 49.3766C20.7995 47.8028 20.794 46.2291 20.7906 44.6553C20.789 43.9246 20.7868 43.1939 20.7833 42.4632C20.7799 41.7584 20.778 41.0537 20.7772 40.349C20.7767 40.0796 20.7755 39.8103 20.7739 39.541C20.7716 39.1648 20.7713 38.7885 20.7714 38.4123C20.7703 38.3001 20.7692 38.188 20.7681 38.0725C20.7685 37.9701 20.7689 37.8678 20.7694 37.7624C20.7691 37.6733 20.7688 37.5843 20.7685 37.4926C20.8067 37.2652 20.8067 37.2652 20.9366 37.0813C21.1617 36.9235 21.2875 36.9157 21.5612 36.9152ZM22.2559 38.4039C22.2559 39.9753 22.2559 41.5466 22.2559 43.1656C23.4174 43.1656 24.5788 43.1656 25.7755 43.1656C25.7755 41.5943 25.7755 40.0229 25.7755 38.4039C24.614 38.4039 23.4526 38.4039 22.2559 38.4039ZM27.2247 38.4039C27.2247 39.9753 27.2247 41.5466 27.2247 43.1656C28.3861 43.1656 29.5476 43.1656 30.7442 43.1656C30.7442 41.5943 30.7442 40.0229 30.7442 38.4039C29.5828 38.4039 28.4213 38.4039 27.2247 38.4039Z" fill="#2A373F"/>
<path d="M21.5612 2.134C21.6971 2.13268 21.6971 2.13268 21.8356 2.13134C21.9842 2.13229 21.9842 2.13229 22.1358 2.13325C22.2927 2.13243 22.2927 2.13243 22.4526 2.1316C22.799 2.13023 23.1453 2.13114 23.4916 2.13219C23.7318 2.13198 23.972 2.13168 24.2122 2.13129C24.7159 2.13083 25.2195 2.1315 25.7232 2.13295C26.3696 2.13471 27.016 2.1337 27.6625 2.13184C28.1585 2.13072 28.6546 2.13107 29.1506 2.13188C29.389 2.13208 29.6274 2.13183 29.8658 2.13111C30.1986 2.13032 30.5314 2.13152 30.8643 2.13325C30.9634 2.13262 31.0624 2.13199 31.1645 2.13134C31.255 2.13222 31.3456 2.1331 31.4389 2.134C31.557 2.13417 31.557 2.13417 31.6774 2.13435C31.9466 2.18556 32.0359 2.2609 32.1934 2.48398C32.2316 2.71134 32.2316 2.71134 32.2308 2.98112C32.2312 3.08345 32.2316 3.18578 32.2321 3.29122C32.2309 3.40335 32.2298 3.51548 32.2287 3.63102C32.2287 3.80828 32.2287 3.80828 32.2288 3.98912C32.2286 4.38065 32.2262 4.77214 32.2238 5.16366C32.2232 5.43475 32.2227 5.70585 32.2224 5.97694C32.2215 6.61814 32.2189 7.25933 32.2158 7.90052C32.2123 8.6305 32.2106 9.36049 32.2091 10.0905C32.2058 11.5921 32.2003 13.0937 32.1934 14.5953C31.7152 14.5953 31.2369 14.5953 30.7442 14.5953C30.7442 10.9743 30.7442 7.35335 30.7442 3.62265C29.5828 3.62265 28.4213 3.62265 27.2247 3.62265C27.2247 7.24363 27.2247 10.8646 27.2247 14.5953C26.7464 14.5953 26.2682 14.5953 25.7755 14.5953C25.7755 10.9743 25.7755 7.35335 25.7755 3.62265C24.614 3.62265 23.4526 3.62265 22.2559 3.62265C22.2559 7.24363 22.2559 10.8646 22.2559 14.5953C21.7777 14.5953 21.2994 14.5953 20.8067 14.5953C20.7995 13.0216 20.794 11.4478 20.7906 9.87403C20.789 9.14332 20.7868 8.41263 20.7833 7.68192C20.7799 6.97718 20.778 6.27245 20.7772 5.5677C20.7767 5.29839 20.7755 5.02909 20.7739 4.75978C20.7716 4.38351 20.7713 4.00729 20.7714 3.63102C20.7703 3.51888 20.7692 3.40675 20.7681 3.29122C20.7685 3.18888 20.7689 3.08655 20.7694 2.98112C20.7691 2.89209 20.7688 2.80306 20.7685 2.71134C20.8067 2.48398 20.8067 2.48398 20.9366 2.3001C21.1617 2.14226 21.2875 2.1344 21.5612 2.134Z" fill="#2A373F"/>
<path d="M27.2246 43.166C28.3861 43.166 29.5475 43.166 30.7441 43.166C30.7441 43.6443 30.7441 44.1225 30.7441 44.6152C29.5827 44.6152 28.4212 44.6152 27.2246 44.6152C27.2246 44.137 27.2246 43.6588 27.2246 43.166Z" fill="#2A373F"/>
<path d="M22.2559 43.166C23.4173 43.166 24.5787 43.166 25.7754 43.166C25.7754 43.6443 25.7754 44.1225 25.7754 44.6152C24.6139 44.6152 23.4525 44.6152 22.2559 44.6152C22.2559 44.137 22.2559 43.6588 22.2559 43.166Z" fill="#2A373F"/>
</svg>
