<svg xmlns="http://www.w3.org/2000/svg" version="1.1" xmlns:xlink="http://www.w3.org/1999/xlink" width="512" height="512" x="0" y="0" viewBox="0 0 53 53" style="enable-background:new 0 0 512 512" xml:space="preserve" class=""><g><path fill="#ffcccc" d="M9.205 34.692c.764 2.77 2.08 5.253 4.386 7.22l-2.452 2.636c-2.948-3.274-5.496-6.523-7.47-9.735a2.69 2.69 0 0 1 .698-3.583l1.344-.984z" opacity="1" data-original="#ffcccc" class=""></path><path fill="#6699ff" d="M36.786 21.494c3.38 1.71 10.562 9.588 10.562 9.588l-4.675 3.15-5.013-4.116v19.02c0 .753-.611 1.364-1.365 1.364H18.572a1.365 1.365 0 0 1-1.365-1.365v-17.08c0-.864-.933-1.406-1.684-.978l-6.325 3.607-3.48-4.433 8.55-6.723a12.615 12.615 0 0 1 3.813-2.034l9.36-3.099s7.149 1.989 9.345 3.1z" opacity="1" data-original="#6699ff" class=""></path><path fill="#5591f2" d="M33.735 23.703c-.636-1.541-1.446-2.13-2.575-.985l-1.653.636a1.069 1.069 0 0 0-.683 1v5.5h-2.78v-5.5c0-.444-.271-.841-.684-1l-1.653-.636c-1.128-1.144-1.939-.556-2.574.985-.557-2.987.19-5.387 2.24-7.167h8.12c2.051 1.78 2.798 4.18 2.242 7.167z" opacity="1" data-original="#5591f2" class=""></path><path fill="#ffcccc" d="M47.348 31.082c.894.855 1.544 1.72 2.078 2.6.57.942.327 2.186-.592 2.792-2.294 1.512-4.9 2.16-7.938 2.49l-1.953-3.104c1.915-.016 3.344-.413 3.73-1.629z" opacity="1" data-original="#ffcccc" class=""></path><path fill="#d3dcfd" d="M10.045 43.312c1.121 1.47 2.234 2.822 3.251 2.933l4.188 2.728c.614-.011.918-.272.869-.816.79-.073 1.188-.415 1.147-1.06.673-.302.722-.846.364-1.547.396-.535.515-1.078.192-1.633-1.17-1.678-2.784-2.655-5.006-2.676-1.06-.301-1.55-.206-1.754.087l-.794-.46c-1.228.54-2.02 1.373-2.457 2.444z" opacity="1" data-original="#d3dcfd"></path><g fill="#c4d1f2"><path d="M19.88 45.564c-.34-.553-.802-1.02-1.303-1.436-.53-.373-1.114-.698-1.752-.823.595.247 1.17.533 1.661.942.524.367.954.844 1.393 1.317zM19.508 47.103c-.279-.557-.7-1.031-1.162-1.452-.493-.381-1.036-.715-1.638-.878.551.282 1.09.578 1.542.993.487.373.873.853 1.258 1.337zM18.352 48.165c-.14-.534-.448-1.014-.825-1.422-.411-.373-.896-.679-1.434-.805.489.246.964.512 1.328.911.403.36.673.834.93 1.316z" fill="#c4d1f2" opacity="1" data-original="#c4d1f2"></path></g><path fill="#ffcc66" d="m39.763 32.952 3.199-18.214a1.387 1.387 0 0 0-1.128-1.608l-4.488-.789a1.387 1.387 0 0 0-1.608 1.128l-3.199 18.215a1.387 1.387 0 0 0 1.128 1.608l4.488.788a1.387 1.387 0 0 0 1.608-1.128z" opacity="1" data-original="#ffcc66" class=""></path><path fill="#f4bb56" d="m38.155 34.08-.242-.042 2.368-13.484a5.7 5.7 0 0 0-4.628-6.599l.085-.486a1.39 1.39 0 0 1 1.608-1.128l4.488.789a1.39 1.39 0 0 1 1.128 1.608l-3.199 18.214a1.39 1.39 0 0 1-1.608 1.128z" opacity="1" data-original="#f4bb56" class=""></path><path fill="#666666" d="m33.388 41.799 1.458-8.302 2.32.407-1.458 8.302z" opacity="1" data-original="#666666" class=""></path><g fill="#5b5959"><path d="m34.956 42.075 1.041-5.93a1.595 1.595 0 0 0-1.295-1.847l.14-.8 2.32.408-1.458 8.3z" fill="#5b5959" opacity="1" data-original="#5b5959"></path><path d="m35.862 43.352.253-1.442a.262.262 0 0 0-.213-.304l-2.499-.439a.262.262 0 0 0-.304.213l-.253 1.442a.262.262 0 0 0 .213.304l2.5.439a.262.262 0 0 0 .303-.213z" fill="#5b5959" opacity="1" data-original="#5b5959"></path></g><path fill="#d3dcfd" d="M42.042 38.845c-1.486.948-2.97 1.62-3.916 1.386l-4.64 1.068c-.546-.212-.732-.544-.51-1.016-.683-.323-.927-.76-.679-1.324-.503-.49-.369-.993.18-1.503-.177-.608-.106-1.133.365-1.524 1.596-1.118 3.361-1.463 5.355-.753 1.047.078 1.446.222 1.533.551l.861-.15c.921.885 1.41 2.163 1.45 3.265z" opacity="1" data-original="#d3dcfd"></path><path fill="#c4d1f2" d="M32.478 37.456c.507-.404 1.101-.686 1.713-.906.626-.17 1.285-.277 1.928-.177-.644.03-1.281.103-1.883.32-.618.166-1.184.468-1.758.763zM32.297 38.96c.452-.43 1.01-.732 1.587-.97.594-.19 1.218-.32 1.84-.268-.615.078-1.222.173-1.789.408-.584.186-1.11.505-1.638.83zM32.976 40.283c.313-.454.767-.8 1.26-1.055.514-.211 1.074-.333 1.622-.269-.543.065-1.08.154-1.559.404-.501.202-.917.555-1.323.92z" opacity="1" data-original="#c4d1f2"></path><path fill="#f2bbbb" d="m24.433 14.245-.308 2.953c.07 2.384 1.228 4.632 3.309 4.632 2.08 0 3.239-2.248 3.308-4.632l-.308-2.953z" opacity="1" data-original="#f2bbbb" class=""></path><path fill="#666666" d="M21.265 13.54V7.398A4.899 4.899 0 0 1 26.163 2.5h2.54a4.899 4.899 0 0 1 4.9 4.899v6.14z" opacity="1" data-original="#666666" class=""></path><path fill="#ffcccc" d="M35.072 13.125c0 .819-.666 1.466-1.485 1.466a1.455 1.455 0 0 1-1.466-1.466c0-.819.647-1.485 1.466-1.485s1.485.666 1.485 1.485z" opacity="1" data-original="#ffcccc" class=""></path><path fill="#f2bbbb" d="M34.428 13.122c0 .536-.436.96-.973.96s-.96-.424-.96-.96c0-.537.423-.974.96-.974s.973.437.973.974z" opacity="1" data-original="#f2bbbb" class=""></path><path fill="#ffcccc" d="M19.795 13.125c0 .819.666 1.466 1.485 1.466.82 0 1.467-.647 1.467-1.466s-.648-1.485-1.467-1.485c-.819 0-1.485.666-1.485 1.485z" opacity="1" data-original="#ffcccc" class=""></path><path fill="#f2bbbb" d="M20.439 13.122c0 .536.437.96.973.96.537 0 .961-.424.961-.96a.964.964 0 0 0-.96-.974.975.975 0 0 0-.974.974z" opacity="1" data-original="#f2bbbb" class=""></path><path fill="#ffcccc" d="M33.04 10.175v4.12a5.607 5.607 0 1 1-11.214 0v-4.12a2.976 2.976 0 0 1 2.976-2.976h5.263a2.976 2.976 0 0 1 2.976 2.976z" opacity="1" data-original="#ffcccc" class=""></path><g fill="#666"><path d="M30.83 12.774a.907.907 0 0 1-.886.887.893.893 0 0 1-.887-.887.88.88 0 0 1 .887-.886c.474 0 .887.391.887.886zM25.81 12.774a.907.907 0 0 1-.887.887.893.893 0 0 1-.886-.887.88.88 0 0 1 .886-.886c.475 0 .887.391.887.886z" fill="#666666" opacity="1" data-original="#666666" class=""></path></g><path fill="#f2bbbb" d="M25.333 15.622c.568.373 1.298.568 2.109.568.795 0 1.54-.195 2.092-.552a2.2 2.2 0 0 1-2.092 1.476 2.22 2.22 0 0 1-2.109-1.492z" opacity="1" data-original="#f2bbbb" class=""></path></g></svg>