<svg width="53" height="53" viewBox="0 0 53 53" fill="none" xmlns="http://www.w3.org/2000/svg">
<g clip-path="url(#clip0_1635_133)">
<path d="M9.91673 0.172452C9.61238 0.476801 9.75794 0.834081 10.4857 1.58834C10.8827 2.01178 11.1738 2.39552 11.1209 2.44845C10.9886 2.58078 14.8128 6.37853 15.0113 6.31236C15.0907 6.27267 15.2627 6.36529 15.395 6.51085C15.7258 6.88136 16.3478 6.84167 16.533 6.43146C16.6653 6.14034 16.6389 6.03448 16.3875 5.69043C16.2154 5.46548 16.1228 5.25376 16.1625 5.20083C16.2948 5.08173 12.3912 1.21782 12.2192 1.28399C12.1398 1.31045 11.7693 1.0458 11.412 0.67529C10.7504 0.000429153 10.2608 -0.171594 9.91673 0.172452Z" fill="#2A373F"/>
<path d="M3.35333 2.46235C1.48753 2.85932 0.680349 3.08427 0.600953 3.24306C0.534791 3.36216 0.415697 3.45479 0.323069 3.45479C-0.14007 3.45479 -0.828164 3.75914 -0.894327 3.98409C-1.00019 4.34137 -0.735536 4.77805 -0.417954 4.77805H-0.14007L-0.417954 5.22795L-0.695838 5.66463V26.1354V46.593H-1.13251C-1.91323 46.593 -2.29698 47.3075 -1.72798 47.7045C-1.47656 47.8897 -0.788466 47.9162 3.02251 47.9162H7.48189L9.49324 49.9673C11.8883 52.3888 12.325 52.7196 13.1322 52.7329L13.7277 52.7461L25.3062 41.1676C36.3553 30.1184 36.8714 29.5891 36.6729 29.3245C35.9054 28.2923 35.6276 26.9691 36.0113 26.2413C36.2363 25.8311 46.7429 15.3641 47.5104 14.7951C47.775 14.5966 48 14.3584 48 14.279C48 14.0408 46.2136 12.3206 45.9754 12.3206C45.8563 12.3206 45.6711 12.4265 45.5652 12.5456C45.4594 12.6779 42.8658 15.3244 39.7826 18.4473C35.482 22.7876 34.0661 24.1373 33.7221 24.2299C33.1001 24.4019 32.1739 24.177 31.2608 23.6212C30.8374 23.3698 30.4669 23.1713 30.4139 23.1713C30.2551 23.1713 7.2437 46.2621 7.2437 46.4342C7.2437 46.5533 6.66147 46.593 4.86184 46.593H2.47998L2.45351 26.0957L2.41381 5.59846L2.10947 5.17502C1.93744 4.95007 1.81835 4.73835 1.84481 4.72511C1.85805 4.69865 2.86372 4.48693 4.06789 4.23551C5.54993 3.93116 6.30419 3.70621 6.43651 3.54742C6.55561 3.42832 6.7541 3.32246 6.88642 3.32246C7.00552 3.32246 7.3231 3.22984 7.57452 3.13721C7.91856 2.99165 8.03765 2.85932 8.03765 2.62114C8.03765 2.09183 7.73331 1.95951 6.85996 2.05214C6.42328 2.10506 6.05277 2.09183 6.02631 2.02567C6.01307 1.95951 4.79568 2.158 3.35333 2.46235Z" fill="#2A373F"/>
<path d="M7.68044 4.71244C6.78063 5.09619 6.84679 3.56121 6.84679 25.8449V45.998L8.36854 44.4763L9.89028 42.9546V24.2569C9.89028 7.12077 9.87705 5.53286 9.67856 5.22851C9.24188 4.56688 8.4744 4.3684 7.68044 4.71244Z" fill="#2A373F"/>
<path d="M19.0074 5.88786C18.2399 6.15251 18.0811 6.52302 17.5386 9.55328L17.049 12.3453L17.6842 12.9276C18.9148 14.0259 19.2721 15.7593 18.5972 17.2282C18.1605 18.1677 17.5518 18.7631 16.5726 19.213L15.7787 19.5703L13.9129 30.1299C12.8807 35.9522 12.0603 40.7292 12.1 40.7689C12.1265 40.7954 12.9866 39.9882 14.0055 38.9693L15.8581 37.1167L18.4913 22.2301C19.9602 13.9068 21.0849 7.19788 21.0452 6.98616C20.9526 6.49656 20.3174 5.87462 19.8278 5.80846C19.6161 5.78199 19.2456 5.80846 19.0074 5.88786Z" fill="#2A373F"/>
<path d="M13.6615 12.3744C12.9072 12.7185 12.1133 13.5389 11.8089 14.2667C11.5178 14.968 11.5311 16.278 11.8486 16.9794C12.4706 18.3688 13.6086 19.123 15.1171 19.123C16.6388 19.123 17.7636 18.382 18.3988 16.9661C18.7031 16.2648 18.7296 14.9548 18.4517 14.2799C17.9092 12.9964 16.5065 12.0569 15.1171 12.0569C14.5613 12.0569 14.1246 12.1495 13.6615 12.3744Z" fill="black"/>
</g>
<defs>
<clipPath id="clip0_1635_133">
<rect width="53" height="53" fill="white"/>
</clipPath>
</defs>
</svg>
