<svg width="58" height="58" viewBox="0 0 58 58" fill="none" xmlns="http://www.w3.org/2000/svg">
<path d="M29.986 7.92244C28.7216 8.35164 27.8284 9.11724 27.2948 10.2656C27.0164 10.8688 26.97 11.1008 26.97 12.0056C26.97 12.9104 27.0164 13.1424 27.2948 13.7572C27.7124 14.6504 28.5012 15.4392 29.406 15.8568C30.0092 16.1352 30.2412 16.1816 31.146 16.1816C32.0392 16.1816 32.2828 16.1352 32.8512 15.8684C33.7676 15.4392 34.4984 14.7316 34.9508 13.8152C35.2872 13.1308 35.322 12.9568 35.322 12.0056C35.322 11.0544 35.2872 10.8804 34.9508 10.196C34.2316 8.74604 32.9208 7.87604 31.32 7.80644C30.8096 7.78324 30.2644 7.84124 29.986 7.92244Z" fill="black"/>
<path d="M9.75559 12.2612C8.96679 12.5396 8.17799 13.398 7.93439 14.2216C7.48199 15.7876 8.10839 17.2608 9.52359 17.9684C10.8576 18.6296 12.2844 18.3744 13.2588 17.284C13.8736 16.6228 14.0708 16.0892 14.0824 15.196C14.0824 13.9896 13.3864 12.8644 12.3076 12.3424C11.7392 12.0524 10.4168 12.0176 9.75559 12.2612Z" fill="black"/>
<path d="M35.032 16.4251C34.8116 16.5179 33.7792 17.4343 32.712 18.4899C31.6564 19.5339 29.7192 21.3899 28.3852 22.6079L25.984 24.8235H21.9124C17.458 24.8235 17.3536 24.8351 16.7852 25.5079C15.9036 26.5519 16.2284 28.1759 17.4348 28.7559C17.922 28.9879 18.1076 28.9995 22.5968 28.9995C26.3436 28.9995 27.3412 28.9647 27.6544 28.8371C27.8748 28.7443 29.0348 27.7583 30.2528 26.6331L32.4568 24.5915L34.3592 26.8187C35.4032 28.0367 36.656 29.5099 37.1432 30.0899C37.642 30.6699 38.0016 31.1803 37.9552 31.2151C37.9088 31.2615 35.8672 32.2823 33.408 33.4771C30.9488 34.6719 28.768 35.7739 28.5592 35.9247C28.0488 36.3075 27.84 36.7599 27.84 37.5255C27.84 38.1055 27.9328 38.3491 28.7216 39.8803C29.2204 40.8199 30.4848 43.2791 31.552 45.3555C32.6192 47.4319 33.582 49.2763 33.6864 49.4387C33.8024 49.6127 34.1272 49.8679 34.4056 50.0071C35.4844 50.5291 36.7604 50.0883 37.2476 49.0211C37.6768 48.0815 37.6304 47.9771 35.4496 43.6851C34.336 41.5159 33.2804 39.4627 33.0948 39.1263C32.9208 38.8015 32.8048 38.4999 32.828 38.4651C32.944 38.3607 39.846 35.0547 39.8808 35.0895C39.904 35.1127 39.4632 35.8435 38.9064 36.7367C37.3984 39.1379 37.2592 39.5323 37.642 40.4603C37.874 41.0055 46.4812 49.6707 47.1424 50.0187C47.8036 50.3551 48.778 50.2739 49.358 49.8331C50.1236 49.2531 50.4252 48.1279 50.0656 47.2927C49.9728 47.0839 48.2096 45.2279 46.1216 43.1515C44.0452 41.0751 42.34 39.3467 42.34 39.3003C42.34 39.2539 42.8504 38.3955 43.4768 37.3863C45.7852 33.6627 47.3396 31.0991 47.502 30.6931C47.7224 30.1827 47.7224 29.5679 47.5252 29.0807C47.4324 28.8719 46.2724 27.4335 44.95 25.8675C38.4424 18.2347 37.3636 16.9819 37.1432 16.7847C36.8532 16.5179 36.1224 16.2511 35.728 16.2511C35.5656 16.2511 35.2524 16.3323 35.032 16.4251Z" fill="black"/>
</svg>
