<svg width="75" height="53" viewBox="0 0 75 53" fill="none" xmlns="http://www.w3.org/2000/svg">
<path d="M19.2862 12.2209L20.1118 8.37052C20.4449 6.80119 22.1395 6.49097 22.8058 7.93257C22.9941 8.35228 23.052 8.84497 22.9506 9.33767L21.5312 16.053C21.5022 16.1624 21.0967 17.9325 19.3441 19.1734C18.4896 19.7756 17.3164 20.2683 15.6942 20.396L15.2017 22.7317C15.1583 22.9142 14.999 23.042 14.8541 22.9872L11.4938 21.8558L8.14806 22.9872C7.98874 23.042 7.82942 22.9142 7.78596 22.7317L7.29351 20.396C5.68579 20.2683 4.5126 19.7756 3.65804 19.1734C1.891 17.9325 1.49994 16.1624 1.47097 16.053L0.0515458 9.33767C-0.281585 7.76834 1.06542 6.41798 2.20965 7.25739C2.5283 7.49462 2.78901 7.87783 2.8904 8.37052L3.7015 12.2209C4.70089 12.0201 5.33818 12.9143 6.39551 13.3887C7.82942 14.0092 8.40877 13.188 9.36471 13.626C9.84268 13.8267 10.2048 14.3194 10.4945 15.3413L11.4938 20.0675L12.5077 15.3413C13.0871 13.3705 13.8402 13.3522 15.2452 13.6077C16.0708 13.7537 17.0702 13.2063 17.7219 12.7136C18.3303 12.2574 18.8662 12.1296 19.2862 12.2209Z" fill="#2A373F"/>
<mask id="path-2-inside-1_1637_157" fill="white">
<path d="M9.08027 4.49497C7.86996 5.7942 7.50514 7.84448 8.30779 9.56739C9.14195 11.3583 10.9722 12.221 12.6955 11.7836L12.5951 11.568L12.5857 11.5394L12.6134 11.4162L12.7215 11.3712L12.8159 11.4431L12.9276 11.6835L12.7937 11.759C13.0147 11.6963 13.233 11.6103 13.4472 11.5032L9.88031 3.83635C9.58954 4.01824 9.32088 4.23973 9.08027 4.49497ZM9.24134 4.3611L9.4621 4.2362L9.54385 4.41148L9.52632 4.50323L9.40077 4.57412L9.32076 4.53213L9.24134 4.3611ZM10.0985 3.70412L13.6718 11.3859C15.589 10.2698 16.3517 7.67859 15.371 5.57442C14.3913 3.47138 12.0387 2.64273 10.0985 3.70412ZM10.6353 3.56249L10.8566 3.43761L10.9363 3.60947L10.931 3.69864L10.7803 3.78409L10.7204 3.74536L10.6353 3.56249ZM9.59471 4.93009L9.70308 4.88478L9.79771 4.95697L9.90943 5.19687L9.91911 5.22566L9.89113 5.34864L9.78275 5.39394L9.68837 5.32203L9.57641 5.08185L9.56697 5.05334L9.59471 4.93009ZM10.989 4.13178L11.0974 4.08647L11.192 4.15811L11.3034 4.39825L11.3134 4.4268L11.2854 4.54973L11.177 4.59504L11.0827 4.52316L10.971 4.28326L10.9613 4.25447L10.989 4.13178ZM9.93006 5.65115L10.0384 5.60584L10.1331 5.67747L10.2445 5.91765L10.2545 5.94616L10.2265 6.0691L10.1181 6.11444L10.0237 6.04252L9.91202 5.80262L9.90233 5.77383L9.93006 5.65115ZM11.3246 4.85255L11.4327 4.80697L11.5271 4.87889L11.639 5.11903L11.6488 5.14785L11.6207 5.27079L11.5126 5.31581L11.4177 5.24391L11.3063 5.00376L11.2969 4.97524L11.3246 4.85255ZM10.2654 6.37164L10.3738 6.32633L10.4684 6.39853L10.5801 6.63839L10.5898 6.66722L10.5618 6.79015L10.4537 6.83518L10.3588 6.7633L10.2474 6.52312L10.2379 6.4946L10.2654 6.37164ZM11.66 5.57305L11.7683 5.52774L11.8624 5.59935L11.9744 5.83952L11.9841 5.86832L11.9561 5.99129L11.848 6.03631L11.7533 5.96468L11.6417 5.72425L11.6319 5.69599L11.66 5.57305ZM10.601 7.09241L10.7094 7.04711L10.8035 7.11875L10.9155 7.35889L10.9252 7.38771L10.8972 7.51065L10.7891 7.55568L10.6944 7.48408L10.5827 7.24362L10.573 7.21539L10.601 7.09241ZM11.9953 6.29355L12.1037 6.24824L12.198 6.32012L12.31 6.5603L12.3197 6.58909L12.2915 6.71178L12.1833 6.75737L12.0887 6.68517L11.977 6.44531L11.9673 6.41648L11.9953 6.29355ZM10.9364 7.81291L11.0448 7.7676L11.1389 7.83981L11.2506 8.08023L11.2608 8.10849L11.2325 8.23115L11.1244 8.27673L11.0298 8.20454L10.9181 7.96467L10.9084 7.93585L10.9364 7.81291ZM12.3307 7.0146L12.4388 6.96899L12.5331 7.04146L12.6449 7.28136L12.6551 7.30958L12.6271 7.43256L12.5187 7.47786L12.4243 7.40595L12.3124 7.16577L12.3029 7.13726L12.3307 7.0146ZM11.2715 8.53369L11.3799 8.48838L11.4742 8.56083L11.5859 8.80073L11.5961 8.82895L11.5681 8.95192L11.4598 8.99723L11.3654 8.92531L11.2535 8.68517L11.244 8.65662L11.2715 8.53369ZM12.666 7.73507L12.7744 7.68976L12.8685 7.76196L12.9802 8.00182L12.9904 8.03008L12.9624 8.15302L12.854 8.19833L12.7594 8.12673L12.648 7.88654L12.6383 7.85775L12.666 7.73507ZM11.6071 9.25446L11.7155 9.20916L11.8096 9.28132L11.9213 9.52122L11.9315 9.54945L11.9035 9.67242L11.7951 9.71772L11.701 9.64608L11.589 9.40591L11.5793 9.37712L11.6071 9.25446ZM13.0016 8.45584L13.1097 8.41025L13.2039 8.48246L13.3158 8.7226L13.326 8.75085L13.298 8.87379L13.1896 8.9191L13.0947 8.84719L12.9833 8.60704L12.9736 8.57881L13.0016 8.45584ZM11.9424 9.97493L12.0508 9.92962L12.1449 10.0018L12.2569 10.242L12.2671 10.2702L12.2391 10.3932L12.1307 10.4385L12.0358 10.3666L11.9244 10.1264L11.9147 10.0982L11.9424 9.97493ZM13.337 9.17633L13.4453 9.13103L13.5392 9.20292L13.6509 9.44338L13.6611 9.47163L13.6331 9.59457L13.5247 9.63988L13.4304 9.56796L13.3184 9.32782L13.309 9.29927L13.337 9.17633ZM12.278 10.6957L12.3864 10.6504L12.4803 10.7223L12.592 10.9627L12.6022 10.991L12.5742 11.1139L12.4658 11.1592L12.3715 11.0874L12.2595 10.8472L12.2501 10.8187L12.278 10.6957ZM13.6723 9.89739L13.7802 9.85153L13.8748 9.92369L13.9865 10.1641L13.9967 10.1924L13.9685 10.3151L13.8604 10.3607L13.7657 10.2885L13.654 10.0486L13.6443 10.0198L13.6723 9.89739ZM14.0074 10.6176L14.1158 10.5723L14.2101 10.6447L14.3219 10.8846L14.1013 11.0092L13.9894 10.7691L13.9799 10.7405L14.0074 10.6176Z"/>
</mask>
<path d="M9.08027 4.49497C7.86996 5.7942 7.50514 7.84448 8.30779 9.56739C9.14195 11.3583 10.9722 12.221 12.6955 11.7836L12.5951 11.568L12.5857 11.5394L12.6134 11.4162L12.7215 11.3712L12.8159 11.4431L12.9276 11.6835L12.7937 11.759C13.0147 11.6963 13.233 11.6103 13.4472 11.5032L9.88031 3.83635C9.58954 4.01824 9.32088 4.23973 9.08027 4.49497ZM9.24134 4.3611L9.4621 4.2362L9.54385 4.41148L9.52632 4.50323L9.40077 4.57412L9.32076 4.53213L9.24134 4.3611ZM10.0985 3.70412L13.6718 11.3859C15.589 10.2698 16.3517 7.67859 15.371 5.57442C14.3913 3.47138 12.0387 2.64273 10.0985 3.70412ZM10.6353 3.56249L10.8566 3.43761L10.9363 3.60947L10.931 3.69864L10.7803 3.78409L10.7204 3.74536L10.6353 3.56249ZM9.59471 4.93009L9.70308 4.88478L9.79771 4.95697L9.90943 5.19687L9.91911 5.22566L9.89113 5.34864L9.78275 5.39394L9.68837 5.32203L9.57641 5.08185L9.56697 5.05334L9.59471 4.93009ZM10.989 4.13178L11.0974 4.08647L11.192 4.15811L11.3034 4.39825L11.3134 4.4268L11.2854 4.54973L11.177 4.59504L11.0827 4.52316L10.971 4.28326L10.9613 4.25447L10.989 4.13178ZM9.93006 5.65115L10.0384 5.60584L10.1331 5.67747L10.2445 5.91765L10.2545 5.94616L10.2265 6.0691L10.1181 6.11444L10.0237 6.04252L9.91202 5.80262L9.90233 5.77383L9.93006 5.65115ZM11.3246 4.85255L11.4327 4.80697L11.5271 4.87889L11.639 5.11903L11.6488 5.14785L11.6207 5.27079L11.5126 5.31581L11.4177 5.24391L11.3063 5.00376L11.2969 4.97524L11.3246 4.85255ZM10.2654 6.37164L10.3738 6.32633L10.4684 6.39853L10.5801 6.63839L10.5898 6.66722L10.5618 6.79015L10.4537 6.83518L10.3588 6.7633L10.2474 6.52312L10.2379 6.4946L10.2654 6.37164ZM11.66 5.57305L11.7683 5.52774L11.8624 5.59935L11.9744 5.83952L11.9841 5.86832L11.9561 5.99129L11.848 6.03631L11.7533 5.96468L11.6417 5.72425L11.6319 5.69599L11.66 5.57305ZM10.601 7.09241L10.7094 7.04711L10.8035 7.11875L10.9155 7.35889L10.9252 7.38771L10.8972 7.51065L10.7891 7.55568L10.6944 7.48408L10.5827 7.24362L10.573 7.21539L10.601 7.09241ZM11.9953 6.29355L12.1037 6.24824L12.198 6.32012L12.31 6.5603L12.3197 6.58909L12.2915 6.71178L12.1833 6.75737L12.0887 6.68517L11.977 6.44531L11.9673 6.41648L11.9953 6.29355ZM10.9364 7.81291L11.0448 7.7676L11.1389 7.83981L11.2506 8.08023L11.2608 8.10849L11.2325 8.23115L11.1244 8.27673L11.0298 8.20454L10.9181 7.96467L10.9084 7.93585L10.9364 7.81291ZM12.3307 7.0146L12.4388 6.96899L12.5331 7.04146L12.6449 7.28136L12.6551 7.30958L12.6271 7.43256L12.5187 7.47786L12.4243 7.40595L12.3124 7.16577L12.3029 7.13726L12.3307 7.0146ZM11.2715 8.53369L11.3799 8.48838L11.4742 8.56083L11.5859 8.80073L11.5961 8.82895L11.5681 8.95192L11.4598 8.99723L11.3654 8.92531L11.2535 8.68517L11.244 8.65662L11.2715 8.53369ZM12.666 7.73507L12.7744 7.68976L12.8685 7.76196L12.9802 8.00182L12.9904 8.03008L12.9624 8.15302L12.854 8.19833L12.7594 8.12673L12.648 7.88654L12.6383 7.85775L12.666 7.73507ZM11.6071 9.25446L11.7155 9.20916L11.8096 9.28132L11.9213 9.52122L11.9315 9.54945L11.9035 9.67242L11.7951 9.71772L11.701 9.64608L11.589 9.40591L11.5793 9.37712L11.6071 9.25446ZM13.0016 8.45584L13.1097 8.41025L13.2039 8.48246L13.3158 8.7226L13.326 8.75085L13.298 8.87379L13.1896 8.9191L13.0947 8.84719L12.9833 8.60704L12.9736 8.57881L13.0016 8.45584ZM11.9424 9.97493L12.0508 9.92962L12.1449 10.0018L12.2569 10.242L12.2671 10.2702L12.2391 10.3932L12.1307 10.4385L12.0358 10.3666L11.9244 10.1264L11.9147 10.0982L11.9424 9.97493ZM13.337 9.17633L13.4453 9.13103L13.5392 9.20292L13.6509 9.44338L13.6611 9.47163L13.6331 9.59457L13.5247 9.63988L13.4304 9.56796L13.3184 9.32782L13.309 9.29927L13.337 9.17633ZM12.278 10.6957L12.3864 10.6504L12.4803 10.7223L12.592 10.9627L12.6022 10.991L12.5742 11.1139L12.4658 11.1592L12.3715 11.0874L12.2595 10.8472L12.2501 10.8187L12.278 10.6957ZM13.6723 9.89739L13.7802 9.85153L13.8748 9.92369L13.9865 10.1641L13.9967 10.1924L13.9685 10.3151L13.8604 10.3607L13.7657 10.2885L13.654 10.0486L13.6443 10.0198L13.6723 9.89739ZM14.0074 10.6176L14.1158 10.5723L14.2101 10.6447L14.3219 10.8846L14.1013 11.0092L13.9894 10.7691L13.9799 10.7405L14.0074 10.6176Z" stroke="#2A373F" stroke-width="2" mask="url(#path-2-inside-1_1637_157)"/>
<path d="M59.4639 5.03138C56.5034 7.79525 53.9569 10.1968 53.7912 10.3521L53.4911 10.6419L53.9258 11.1388L54.3606 11.6357L53.9672 12.0187L53.5739 12.412L52.9528 12.205C51.8555 11.822 51.2344 12.029 49.7955 13.2609C48.3153 14.5238 45.6653 16.1283 44.3299 16.563C43.9159 16.6976 43.8744 16.6872 43.6571 16.4802C43.5225 16.3353 43.4707 16.2214 43.5328 16.1593C43.595 16.1076 44.4748 15.6003 45.4996 15.031C47.2905 14.0372 50.9342 11.9359 51.0377 11.8324C51.0584 11.8117 51.017 11.7392 50.9342 11.6874C50.6237 11.4804 49.3711 11.6667 48.3463 12.0601C46.2657 12.8779 43.7916 13.7474 42.6944 14.0683C41.5971 14.3892 41.5246 14.3995 41.2244 14.2443C40.034 13.6335 38.1397 14.265 37.1045 15.621C36.2039 16.8011 35.9244 18.2193 36.3489 19.4822C36.6284 20.3103 36.8043 20.5484 38.9885 23.1363C41.9387 26.6144 43.036 28.0533 44.2057 29.9269L44.7336 30.755L44.4127 31.1587C43.9159 31.7902 43.0256 32.5562 42.0526 33.1876C41.5557 33.5085 40.6344 34.1193 39.9926 34.5437C37.3633 36.2827 36.1522 38.2288 34.7754 42.8767C34.4856 43.8601 34.0922 45.1644 33.8955 45.7751C33.4194 47.2761 33.4194 47.9283 33.8852 48.6115C34.3717 49.3464 35.086 49.688 36.0901 49.688C36.97 49.688 37.3737 49.5535 37.9327 49.0669C38.4295 48.6218 38.709 48.0525 39.1852 46.5308C40.6034 41.8829 41.2141 40.5993 42.6737 39.1605C43.2741 38.5704 45.127 37.2144 45.2098 37.3076C45.2305 37.3283 45.158 37.7113 45.0442 38.1564C44.4955 40.3716 44.4127 42.5765 44.8061 44.6158C45.2512 46.9449 46.4416 50.9406 46.9178 51.7273C47.6528 52.9384 49.2366 53.3214 50.6133 52.6175C51.3586 52.2345 51.752 51.6859 51.8244 50.9199C51.8762 50.4333 51.8037 50.1228 51.2965 48.5494C50.6237 46.448 49.9612 43.8497 49.7955 42.6386C49.7127 42.0279 49.7127 41.4896 49.7955 40.6408C49.9301 39.264 50.0543 38.6843 50.7996 35.9826C51.1102 34.8542 51.4311 33.5706 51.5243 33.1462C51.6278 32.6493 51.783 32.2249 51.9694 31.9661C52.5905 31.1173 52.7871 29.7406 52.4559 28.6536C52.1143 27.5357 50.3338 24.6994 48.5119 22.3288L47.425 20.9107L48.336 20.4449C50.2924 19.4615 52.0936 18.2503 53.5946 16.9046C54.6815 15.9316 54.9196 15.4658 54.8368 14.5134L54.785 13.8199L55.2094 13.3747L55.6338 12.94L56.11 13.4058L56.5862 13.8716L62.2174 8.58197L67.859 3.28197L67.8487 2.65052C67.8383 1.71888 67.6416 1.1599 67.1448 0.663021C66.6686 0.186848 66.1821 0.000518799 65.3643 0.000518799H64.826L59.4639 5.03138Z" fill="#2A373F"/>
<path d="M36.7421 6.35673L36.0796 7.1331L35.562 7.06064C34.4854 6.90537 33.7608 6.99853 32.9638 7.40224C32.1046 7.82666 31.5249 8.41669 31.0901 9.30693C30.8417 9.81416 30.8106 10.0108 30.8003 10.87C30.8003 11.5843 30.8521 11.9776 30.9866 12.3089C31.6284 13.8823 32.9741 14.8036 34.6718 14.814C36.0071 14.8347 37.2079 14.2032 37.9429 13.0956C38.1499 12.7747 38.3983 12.5263 38.4915 12.5263C38.7399 12.5263 39.4128 11.9569 39.5991 11.5946C39.9614 10.8907 39.889 9.4415 39.4231 8.23037C39.1747 7.56787 39.0919 7.54716 38.2845 7.91982C37.9843 8.06474 37.6944 8.17861 37.6323 8.17861C37.5806 8.17861 37.3425 8.02333 37.1147 7.82666L36.711 7.48505L37.3218 6.7915L37.9222 6.09794L37.6634 5.83916L37.4046 5.58037L36.7421 6.35673ZM39.0091 8.4581C39.1437 8.81005 39.3403 9.53466 39.3403 9.70029C39.3403 9.8038 38.8331 10.0419 38.6054 10.0419C38.564 10.0419 38.4708 9.86591 38.3983 9.65888C38.3362 9.45185 38.181 9.13095 38.0774 8.93427L37.8704 8.59267L38.3155 8.38564C38.8952 8.12685 38.8849 8.12685 39.0091 8.4581ZM39.33 10.8183C39.2265 11.3462 38.9884 11.7602 38.6882 11.9259C38.4915 12.0294 38.4812 12.0087 38.5433 11.636C38.5847 11.4083 38.6157 11.0563 38.6157 10.8493C38.6157 10.5388 38.6571 10.4663 38.8538 10.4249C39.4231 10.311 39.4231 10.3214 39.33 10.8183Z" fill="#2A373F"/>
<path d="M28.5955 28.9016C28.4402 29.0568 28.4402 29.4295 28.5955 29.5848C28.6783 29.6676 29.1648 29.709 30.0861 29.709C31.1937 29.709 31.4939 29.6779 31.6181 29.5434C31.8251 29.3363 31.8251 29.15 31.6181 28.943C31.4939 28.8084 31.1937 28.7773 30.0861 28.7773C29.1648 28.7773 28.6783 28.8187 28.5955 28.9016Z" fill="#2A373F"/>
<path d="M32.5291 28.9016C32.3738 29.0568 32.3738 29.4295 32.5291 29.5848C32.6119 29.6676 33.088 29.709 34.0093 29.709C35.4275 29.709 35.6138 29.6572 35.6138 29.2432C35.6138 28.8291 35.4275 28.7773 34.0093 28.7773C33.088 28.7773 32.6119 28.8187 32.5291 28.9016Z" fill="#2A373F"/>
<path d="M27.9847 29.9174C27.757 30.052 27.6327 30.2176 27.5913 30.4557C27.5603 30.642 27.5499 34.9172 27.5603 39.9378L27.5913 49.0885L27.8812 49.337C28.3884 49.7717 28.9991 49.6268 29.2579 49.0161C29.3822 48.7159 29.4029 47.1838 29.4029 39.6686C29.4029 33.2196 29.3718 30.5799 29.289 30.3315C29.2062 30.1038 29.0613 29.9485 28.8232 29.8553C28.3884 29.669 28.3781 29.669 27.9847 29.9174Z" fill="#2A373F"/>
<path d="M31.7216 29.8122C31.1316 30.0502 31.1626 29.5637 31.1626 39.6772V48.9832L31.4732 49.2834C31.7113 49.5319 31.8562 49.594 32.115 49.5629C32.4255 49.5319 32.4566 49.5008 32.4255 49.2213C32.4048 49.0454 32.3841 48.4657 32.3738 47.9274C32.3634 47.0786 32.4048 46.8094 32.6947 45.9399L33.0363 44.9358L33.0052 37.6586C32.9742 29.6983 32.9949 30.0399 32.3634 29.8122C32.0218 29.6879 32.0115 29.6879 31.7216 29.8122Z" fill="#2A373F"/>
<path d="M35.4067 29.7811C35.3239 29.8121 35.1479 29.9363 35.0237 30.0502L34.7856 30.2572V34.874V39.4805L35.2308 38.6006C35.4792 38.1141 35.8829 37.4309 36.1106 37.0789L36.5454 36.4475V33.3937C36.5454 30.3711 36.5454 30.34 36.3177 30.0812C36.0692 29.8121 35.6759 29.6775 35.4067 29.7811Z" fill="#2A373F"/>
</svg>
