<svg width="59" height="43" viewBox="0 0 59 43" fill="none" xmlns="http://www.w3.org/2000/svg">
<path d="M58.9878 19.8222V19.5651L58.3135 12.4271C58.2895 9.48871 56.8566 7.44405 54.8217 7.44405C54.3762 7.44405 53.9548 7.55424 53.5695 7.73789C53.4731 4.92189 52.0764 2.98741 50.0776 2.98741C49.5599 2.98741 49.0903 3.12209 48.6689 3.35472C48.2354 1.3223 46.9832 0 45.3456 0C43.3468 0 41.9501 1.94672 41.8538 4.76272C41.4685 4.57907 41.0591 4.46888 40.6015 4.46888C38.5426 4.46888 37.1097 6.53803 37.1097 9.5132V14.7412C36.7244 14.5575 36.315 14.4473 35.8695 14.4473C33.8105 14.4473 32.3777 16.5165 32.3777 19.4916V30.1925C32.3777 30.5475 32.5463 30.8903 32.8232 31.1107L36.592 34.0002V41.7993C36.592 42.436 37.0977 42.9502 37.7238 42.9502H55.8331C56.4593 42.9502 56.965 42.436 56.965 41.7993V33.9635L58.9999 19.8467C58.9878 19.8345 58.9878 19.8345 58.9878 19.8222ZM34.6293 19.5039C34.6293 17.7898 35.2554 16.7613 35.8695 16.7613C36.4836 16.7613 37.1097 17.7898 37.1097 19.5039V26.2623C37.1097 26.899 37.6154 27.4132 38.2415 27.4132C38.8677 27.4132 39.3734 26.899 39.3734 26.2623V9.5132C39.3734 7.79911 39.9995 6.77065 40.6136 6.77065C41.2277 6.77065 41.8538 7.79911 41.8538 9.5132V19.6753C41.8538 20.312 42.3595 20.8262 42.9856 20.8262C43.6117 20.8262 44.1174 20.312 44.1174 19.6753V5.03208C44.1174 3.31799 44.7436 2.28953 45.3577 2.28953C45.9717 2.28953 46.5979 3.31799 46.5979 5.03208V19.6631C46.5979 20.2997 47.1036 20.8139 47.7297 20.8139C48.3558 20.8139 48.8615 20.2997 48.8615 19.6631V8.01949C48.8615 6.3054 49.4876 5.27695 50.1017 5.27695C50.7158 5.27695 51.3419 6.3054 51.3419 8.01949V19.6631C51.3419 20.2997 51.8476 20.8139 52.4738 20.8139C53.0999 20.8139 53.6056 20.2997 53.6056 19.6631V12.4761C53.6056 10.762 54.2317 9.73358 54.8458 9.73358C55.4599 9.73358 56.086 10.762 56.086 12.4761V12.5863L56.7482 19.6386L54.8699 32.6656H38.5907L38.5426 32.6167L34.6293 29.617V19.5039ZM38.8436 34.9797H48.9578V40.6606H38.8436V34.9797ZM54.7013 40.6606H51.2215V34.9797H54.7013V40.6606Z" fill="#2A373F"/>
<path d="M43.0217 30.401H52.4978C53.1239 30.401 53.6297 29.8868 53.6297 29.2501V24.3037C53.6297 23.6671 53.1239 23.1528 52.4978 23.1528H43.0217C42.3956 23.1528 41.8899 23.6671 41.8899 24.3037V29.2501C41.8899 29.8868 42.3956 30.401 43.0217 30.401ZM44.1536 25.4546H51.366V28.0992H44.1536V25.4546ZM23.1303 14.4844C22.6848 14.4844 22.2634 14.5824 21.8901 14.7783V9.55031C21.8901 6.57514 20.4573 4.50599 18.3983 4.50599C17.9528 4.50599 17.5314 4.60393 17.1461 4.79983C17.0618 1.98382 15.653 0.0371094 13.6543 0.0371094C12.0167 0.0371094 10.7645 1.35941 10.331 3.39183C9.90957 3.14696 9.42794 3.02452 8.92222 3.02452C6.93549 3.02452 5.52672 4.95899 5.43039 7.775C5.04509 7.59135 4.6357 7.48116 4.17815 7.48116C2.13122 7.48116 0.698365 9.52582 0.674284 12.4643L0 19.6022V19.8838L2.03489 34.0128V41.8486C2.03489 42.4853 2.54061 42.9995 3.16673 42.9995H21.2761C21.9022 42.9995 22.4079 42.4853 22.4079 41.8486V34.0495L26.1767 31.1601C26.4656 30.9397 26.6222 30.6091 26.6222 30.2418V19.5288C26.6342 16.5536 25.1893 14.4844 23.1303 14.4844ZM4.3106 35.0045H7.79039V40.6855H4.3106V35.0045ZM20.1563 40.6855H10.042V35.0045H20.1563V40.6855ZM24.3706 29.6541L20.4573 32.6538C20.4332 32.666 20.4212 32.6905 20.4091 32.7028H4.15407L2.27571 19.6757L2.93795 12.6234V12.5132C2.93795 10.7991 3.56407 9.77069 4.17815 9.77069C4.79223 9.77069 5.41835 10.7991 5.41835 12.5132V19.7002C5.41835 20.3368 5.92407 20.8511 6.55019 20.8511C7.17631 20.8511 7.68202 20.3368 7.68202 19.7002V8.0566C7.68202 6.34251 8.30814 5.31406 8.92222 5.31406C9.5363 5.31406 10.1624 6.34251 10.1624 8.0566V19.7002C10.1624 20.3368 10.6681 20.8511 11.2943 20.8511C11.9204 20.8511 12.4261 20.3368 12.4261 19.7002V5.06919C12.4261 3.3551 13.0522 2.32664 13.6663 2.32664C14.2804 2.32664 14.9065 3.3551 14.9065 5.06919V19.7124C14.9065 20.3491 15.4122 20.8633 16.0383 20.8633C16.6644 20.8633 17.1702 20.3491 17.1702 19.7124V9.55031C17.1702 7.83622 17.7963 6.80776 18.4104 6.80776C19.0244 6.80776 19.6506 7.83622 19.6506 9.55031V26.2872C19.6506 26.9238 20.1563 27.4381 20.7824 27.4381C21.4085 27.4381 21.9142 26.9238 21.9142 26.2872V19.5288C21.9142 17.8147 22.5403 16.7862 23.1544 16.7862C23.7685 16.7862 24.3946 17.8147 24.3946 19.5288V29.6541H24.3706Z" fill="#2A373F"/>
<path d="M15.9898 23.127H6.51367C5.88755 23.127 5.38184 23.6412 5.38184 24.2778V29.2242C5.38184 29.8609 5.88755 30.3751 6.51367 30.3751H15.9898C16.6159 30.3751 17.1216 29.8609 17.1216 29.2242V24.2778C17.1216 23.6412 16.6159 23.127 15.9898 23.127ZM14.8579 28.0733H7.6455V25.4287H14.8579V28.0733Z" fill="#2A373F"/>
</svg>
