<svg width="49" height="50" viewBox="0 0 49 50" fill="none" xmlns="http://www.w3.org/2000/svg">
<path d="M45.6207 7.13183H44.7497C45.4653 6.63775 45.9959 5.94497 46.266 5.1522C46.5361 4.35944 46.5319 3.50714 46.2539 2.71677C45.9759 1.92639 45.4384 1.23826 44.7179 0.750442C43.9974 0.262622 43.1307 0 42.2414 0C41.352 0 40.4854 0.262622 39.7649 0.750442C39.0444 1.23826 38.5069 1.92639 38.2289 2.71677C37.9509 3.50714 37.9467 4.35944 38.2168 5.1522C38.4868 5.94497 39.0175 6.63775 39.7331 7.13183H38.8621C37.9658 7.13183 37.1063 7.46493 36.4725 8.05785C35.8388 8.65076 35.4828 9.45493 35.4828 10.2934V18.1974C35.4828 18.4071 35.5718 18.6081 35.7302 18.7563C35.8886 18.9046 36.1035 18.9878 36.3276 18.9878H48.1552C48.3792 18.9878 48.5941 18.9046 48.7526 18.7563C48.911 18.6081 49 18.4071 49 18.1974V10.2934C49 9.45493 48.644 8.65076 48.0102 8.05785C47.3765 7.46493 46.5169 7.13183 45.6207 7.13183ZM39.7069 3.97023C39.7069 3.50125 39.8555 3.04281 40.134 2.65286C40.4125 2.26292 40.8084 1.959 41.2715 1.77953C41.7346 1.60006 42.2442 1.5531 42.7358 1.64459C43.2275 1.73609 43.6791 1.96192 44.0335 2.29354C44.388 2.62516 44.6294 3.04767 44.7272 3.50763C44.825 3.9676 44.7748 4.44437 44.5829 4.87765C44.3911 5.31093 44.0663 5.68126 43.6495 5.94181C43.2327 6.20236 42.7427 6.34143 42.2414 6.34143C41.5692 6.34143 40.9245 6.09161 40.4492 5.64692C39.9739 5.20224 39.7069 4.59911 39.7069 3.97023ZM47.3103 17.407H37.1724V10.2934C37.1724 9.87418 37.3504 9.4721 37.6673 9.17564C37.9842 8.87918 38.4139 8.71264 38.8621 8.71264H45.6207C46.0688 8.71264 46.4986 8.87918 46.8155 9.17564C47.1323 9.4721 47.3103 9.87418 47.3103 10.2934V17.407ZM10.1379 37.1671H9.26691C9.9825 36.673 10.5132 35.9802 10.7833 35.1874C11.0533 34.3947 11.0491 33.5424 10.7711 32.752C10.4931 31.9616 9.95561 31.2735 9.23513 30.7857C8.51465 30.2978 7.64798 30.0352 6.75862 30.0352C5.86926 30.0352 5.00259 30.2978 4.28211 30.7857C3.56163 31.2735 3.0241 31.9616 2.74612 32.752C2.46814 33.5424 2.4639 34.3947 2.73399 35.1874C3.00409 35.9802 3.53474 36.673 4.25033 37.1671H3.37931C2.48306 37.1671 1.62352 37.5002 0.989777 38.0931C0.356033 38.686 0 39.4902 0 40.3287V48.2327C0 48.4423 0.0890083 48.6433 0.247444 48.7916C0.40588 48.9398 0.620765 49.0231 0.844828 49.0231H12.6724C12.8965 49.0231 13.1114 48.9398 13.2698 48.7916C13.4282 48.6433 13.5172 48.4423 13.5172 48.2327V40.3287C13.5172 39.4902 13.1612 38.686 12.5275 38.0931C11.8937 37.5002 11.0342 37.1671 10.1379 37.1671ZM4.22414 34.0055C4.22414 33.5365 4.37278 33.078 4.65128 32.6881C4.92977 32.2981 5.3256 31.9942 5.78872 31.8148C6.25183 31.6353 6.76143 31.5883 7.25307 31.6798C7.74472 31.7713 8.19632 31.9971 8.55077 32.3288C8.90522 32.6604 9.14661 33.0829 9.2444 33.5429C9.3422 34.0028 9.29201 34.4796 9.10018 34.9129C8.90835 35.3462 8.5835 35.7165 8.1667 35.977C7.74991 36.2376 7.25989 36.3767 6.75862 36.3767C6.08643 36.3767 5.44178 36.1268 4.96647 35.6821C4.49116 35.2375 4.22414 34.6343 4.22414 34.0055ZM11.8276 47.4423H1.68966V40.3287C1.68966 39.9094 1.86767 39.5073 2.18454 39.2109C2.50142 38.9144 2.93119 38.7479 3.37931 38.7479H10.1379C10.5861 38.7479 11.0158 38.9144 11.3327 39.2109C11.6496 39.5073 11.8276 39.9094 11.8276 40.3287V47.4423ZM43.8643 23.0047C43.9091 23.5066 43.931 24.0164 43.931 24.5206C43.9252 29.3404 41.8762 33.9612 38.2334 37.3693C34.5906 40.7774 29.6516 42.6944 24.5 42.6999C24.2144 42.6999 23.9357 42.6769 23.6552 42.6643V41.1191C23.6551 40.9792 23.6154 40.8418 23.5401 40.7209C23.4647 40.6001 23.3565 40.5001 23.2263 40.4313C23.0962 40.3624 22.9488 40.327 22.7993 40.3289C22.6498 40.3307 22.5034 40.3696 22.3753 40.4417L18.1511 42.8129C18.0262 42.8832 17.9229 42.9825 17.8511 43.1012C17.7794 43.2199 17.7416 43.3539 17.7416 43.4903C17.7416 43.6266 17.7794 43.7607 17.8511 43.8794C17.9229 43.9981 18.0262 44.0974 18.1511 44.1676L22.3753 46.5388C22.5034 46.6109 22.6498 46.6498 22.7993 46.6516C22.9488 46.6535 23.0962 46.6182 23.2263 46.5493C23.3565 46.4804 23.4647 46.3804 23.5401 46.2596C23.6154 46.1387 23.6551 46.0014 23.6552 45.8615V44.2451C23.9357 44.2562 24.2144 44.2807 24.5 44.2807C30.0996 44.2748 35.4681 42.1911 39.4277 38.4866C43.3872 34.7822 45.6144 29.7595 45.6207 24.5206C45.6207 23.9737 45.5962 23.4196 45.5489 22.875L43.8643 23.0047ZM21.9655 44.4648L20.2286 43.4903L21.9655 42.5157V44.4648ZM25.7732 8.60988C25.9034 8.67888 26.0508 8.71429 26.2004 8.71249C26.3501 8.71068 26.4965 8.67173 26.6247 8.59961L30.8489 6.22841C30.9738 6.15814 31.0771 6.05883 31.1489 5.94013C31.2206 5.82144 31.2584 5.6874 31.2584 5.55103C31.2584 5.41467 31.2206 5.28063 31.1489 5.16193C31.0771 5.04324 30.9738 4.94393 30.8489 4.87366L26.6247 2.50246C26.4966 2.43041 26.3502 2.39148 26.2007 2.38965C26.0512 2.38782 25.9038 2.42314 25.7737 2.49202C25.6435 2.5609 25.5353 2.66087 25.4599 2.78171C25.3846 2.90255 25.3449 3.03993 25.3448 3.17983V4.7962C25.0627 4.78514 24.7813 4.76063 24.5 4.76063C18.9004 4.76649 13.5319 6.85022 9.57233 10.5547C5.61279 14.2591 3.38557 19.2818 3.37931 24.5206C3.37931 25.0384 3.40297 25.5908 3.44943 26.1615L5.13402 26.0414C5.09203 25.5354 5.07033 25.0281 5.06897 24.5206C5.07478 19.7009 7.12384 15.0801 10.7666 11.672C14.4094 8.26392 19.3484 6.34687 24.5 6.34143C24.7813 6.34143 25.0627 6.36436 25.3448 6.377V7.92224C25.3448 8.06206 25.3845 8.19937 25.4597 8.32018C25.535 8.44098 25.6431 8.54095 25.7732 8.60988ZM27.0345 4.57647L28.7714 5.55103L27.0345 6.5256V4.57647Z" fill="#2A373F"/>
</svg>
