<svg xmlns="http://www.w3.org/2000/svg" version="1.1" xmlns:xlink="http://www.w3.org/1999/xlink" xmlns:svgjs="http://svgjs.com/svgjs" width="512" height="512" x="0" y="0" viewBox="0 0 512 512" style="enable-background:new 0 0 512 512" xml:space="preserve"><g><path d="M292.594 54.094h-73.188c-5.523 0-10-4.477-10-10V17.5c0-5.523 4.477-10 10-10h73.188c5.523 0 10 4.477 10 10v26.594c0 5.523-4.477 10-10 10zM232.703 55.094v30.505M279.297 85.599V55.094M332.876 194.656h0c-6.065-6.065-15.899-6.065-21.964 0l-45.873 45.873c-.616.616-1.505.848-2.357.661a31.205 31.205 0 0 0-7.143-.717c-17.073.248-30.922 14.594-30.596 31.666.319 16.672 13.775 30.129 30.447 30.45 17.072.329 31.421-13.52 31.669-30.594a31.214 31.214 0 0 0-.717-7.144c-.187-.852.044-1.74.661-2.357l45.873-45.873c6.065-6.066 6.065-15.9 0-21.965zM256 271.531h0M256 178.344v-15.532M190.106 205.638l-10.982-10.983M162.812 271.531h-15.531M190.106 337.425l-10.982 10.982M321.894 337.425l10.982 10.982M349.188 271.531h15.531M194.761 468.318c-5.514-9.996-8.651-21.485-8.651-33.708 0-38.6 31.291-69.891 69.891-69.891s69.891 31.291 69.891 69.891S294.6 504.5 256 504.5c-13.655 0-26.395-3.916-37.159-10.686" style="stroke-width:15;stroke-linecap:round;stroke-linejoin:round;stroke-miterlimit:10;" fill="none" stroke="#000000" stroke-width="15" stroke-linecap="round" stroke-linejoin="round" stroke-miterlimit="10" data-original="#000000"></path><path d="M287.062 450.141h-62.125a5 5 0 0 1-5-5v-21.062a5 5 0 0 1 5-5h62.125a5 5 0 0 1 5 5v21.062a5 5 0 0 1-5 5zM408.477 162.983l27.15-27.15c3.905-3.905 3.905-10.237 0-14.142L405.84 91.904c-3.905-3.905-10.237-3.905-14.142 0l-27.062 27.062M103.523 162.983l-27.15-27.15c-3.905-3.905-3.905-10.237 0-14.142l29.787-29.787c3.905-3.905 10.237-3.905 14.142 0l27.062 27.062M354.498 172.35c-25.268-25.095-60.073-40.6-98.498-40.6-77.199 0-139.781 62.582-139.781 139.781 0 55.549 32.403 103.53 79.339 126.073M316.259 397.692c47.035-22.506 79.522-70.539 79.522-126.161 0-26.081-7.143-50.494-19.579-71.388" style="stroke-width:15;stroke-linecap:round;stroke-linejoin:round;stroke-miterlimit:10;" fill="none" stroke="#000000" stroke-width="15" stroke-linecap="round" stroke-linejoin="round" stroke-miterlimit="10" data-original="#000000"></path><path d="M166.673 107.918c-57.829 31.64-97.048 93.047-97.048 163.613 0 78.214 48.179 145.175 116.479 172.824M325.791 444.399c68.355-27.623 116.584-94.613 116.584-172.867C442.375 168.6 358.932 85.157 256 85.157c-18.558 0-36.483 2.712-53.4 7.763" style="stroke-width:15;stroke-linecap:round;stroke-linejoin:round;stroke-miterlimit:10;" fill="none" stroke="#000000" stroke-width="15" stroke-linecap="round" stroke-linejoin="round" stroke-miterlimit="10" data-original="#000000"></path></g></svg>