<svg xmlns="http://www.w3.org/2000/svg" version="1.1" xmlns:xlink="http://www.w3.org/1999/xlink" width="512" height="512" x="0" y="0" viewBox="0 0 428.498 503.992" style="enable-background:new 0 0 512 512" xml:space="preserve" class=""><g><path fill="#d6eae8" d="M398.069 418.322c-4.18-8.25-8.62-15.86-13.25-22.86-22.14-33.51-48.64-53.32-71.27-64.85l-92.36-13.89s-7.12-2.37-16.79-6.04c-5.97-2.27-12.92-5.04-19.77-8.05-36.075 1.878-54.334 21.007-48.47 63.37 25.79 23.95 51.56 46.04 51.56 46.04l-6.39 87.95h172.76l53.66-60.04a256.92 256.92 0 0 0-9.68-21.63z" opacity="1" data-original="#d6eae8"></path><path fill="#e7f2f1" d="M313.549 330.612c-1.11-3.3-2.27-6.19-3.44-8.34-6.58-12.08-22.51-16.23-22.51-16.23l-13.42 47.47c13.39 9.18 29.79 14.32 48.62 16.22 0 0-4.13-23.9-9.25-39.12zM239.599 306.042s-10.92 2.84-18.41 10.68c-1.56 1.63-2.97 3.47-4.1 5.55-6.57 12.07-12.68 47.46-12.68 47.46 18.82-1.9 35.22-7.04 48.61-16.22z" opacity="1" data-original="#e7f2f1"></path><path fill="#655f68" d="M374.299 85.832c-12.45-35.26-45.61-39.4-45.61-39.4s-20.18-49.68-78.74-41.54c-58.57 8.15-69.63 70.98-116.13 81.16 7.74 5.51 16.92 7.85 28.21 5.48-11.02 29.68-9.78 57.83 3.33 84.5h196.48s24.91-54.94 12.46-90.2z" opacity="1" data-original="#655f68" class=""></path><path fill="#f7b6ad" d="M365.369 177.062c12.1 4.85 17.53 20.77 12.13 35.56-4.68 12.81-15.96 20.7-26.75 19.4h-.01c-10.389-19.387-9.347-39.927 11.1-55.99 1.21.24 2.35.55 3.53 1.03zM176.459 232.022c-10.8 1.3-22.08-6.59-26.76-19.4-5.4-14.79.03-30.71 12.13-35.56 1.18-.48 2.32-.79 3.53-1.03 15.478 21.426 17.289 41.136 11.1 55.99z" opacity="1" data-original="#f7b6ad"></path><path fill="#fec4b9" d="M313.569 83.362c-15.12 28.81-40.02 43.81-73.97 46.09 12.32-14.65 16.86-30.44 15.24-47.13-15.24 38.41-80.73 47.41-89.48 93.71 2.09 21.43 5.97 41.14 11.1 55.99 2.17 6.29 4.57 11.71 7.15 16.01 9.24 15.4 30.34 35.55 55.99 44V320.042c0 11.83 4.75 23.13 13.42 33.47 3.06 3.65 6.59 7.17 10.58 10.55 3.99-3.38 7.52-6.9 10.58-10.55 8.67-10.34 13.42-21.64 13.42-33.47V292.032c25.65-8.45 46.75-28.6 55.99-44 2.58-4.3 4.98-9.72 7.15-16.01 5.13-14.85 9.01-34.56 11.1-55.99-2.39-38.2-20.24-68.15-48.27-92.67z" opacity="1" data-original="#fec4b9" class=""></path><path fill="#1ea6bc" d="m107.279 166.412-2.94-7.75c-1.36-3.58-4.65-6.08-8.47-6.38-26.056-10.84-41.864-3.913-50.03 16.26-3.14 2.81-4.19 7.28-2.59 11.18l3.31 8.11c1.9 4.64 7.71 6.09 11.62 2.96l42.11-14.28c5.23.07 8.84-5.22 6.99-10.1z" opacity="1" data-original="#1ea6bc"></path><path fill="#e7f2f1" d="M108.979 77.792a11.364 11.364 0 0 0-10.99-8.47c-2.81 0-5.38 1.02-7.37 2.72l-78.69 36.2s-.82 32.02 8.07 43.63c8.88 11.61 25.84 16.67 25.84 16.67 13.62-12.23 30.25-17.77 50.03-16.26 0 0 18.24-23.61 18.24-41.62 0-11.19-2.92-24.44-5.13-32.87z" opacity="1" data-original="#e7f2f1"></path><path fill="#d14b62" d="M74.469 101.312c-1.26 1.43-2.48 2.98-3.55 4.73-4.57 7.44-3.7 16.6-3.7 16.6-34.295-7.151-53.589-27.694-55.29-64.79 4.54-6.5 10.8-11.72 18.11-14.98 27.196 8.748 39.695 30.168 44.43 58.44z" opacity="1" data-original="#d14b62"></path><path fill="#e15c63" d="M90.619 72.042c-.13.11-.26.23-.39.35-2.03 1.9-3.36 4.56-3.58 7.54-.23 3.06-.68 6.2-1.58 8.5-1.88 4.87-6.49 8.24-10.6 12.88-21.53-14.17-36.34-33.65-44.43-58.44a43.83 43.83 0 0 1 17.97-3.83c20.5 0 37.73 14.02 42.61 33zM67.219 122.642c-5.8 2.83-12.32 4.41-19.21 4.41-14.94 0-28.13-7.44-36.08-18.81-5-7.13-7.93-15.82-7.93-25.19 0-9.38 2.93-18.07 7.93-25.2 8.2 28.71 26.73 50.24 55.29 64.79z" opacity="1" data-original="#e15c63"></path><path fill="#fec4b9" d="M424.499 499.992h-70.41c-1.73-15.1-4.67-29.71-8.9-43.84 18.29-13.02 38.92-19.08 62.56-16.2 6.89 17.5 12.64 37.4 16.75 60.04zM155.909 286.292c5.66 5.32 17.03 11.19 28.72 16.34-24.59 12.77-40.75 33.89-48.47 63.37-18.82-17.48-37.65-35.95-46.49-47.56-20.95-27.52-31.49-127.65-31.49-127.65 12.14-9.74 26.18-14.49 42.11-14.28 0 0 41.29 96.31 55.62 109.78z" opacity="1" data-original="#fec4b9" class=""></path><path fill="#f7b6ad" d="M287.599 306.042v2.01c-24.94 8.35-48-4.75-48-4.75v-11.27c7.66 2.52 15.72 4 24 4s16.34-1.48 24-4zM378.459 499.992h-24.37c-1.73-15.1-4.67-29.71-8.9-43.84 4.59-3.27 9.33-6.09 14.22-8.45 7.47 12.94 14.54 30.04 19.05 52.29z" opacity="1" data-original="#f7b6ad"></path><g fill="#c3ddda"><path d="M326.899 412.042s17.11 9.02 32.51 35.66c-4.89 2.36-9.63 5.18-14.22 8.45-4.58-15.3-10.65-30.01-18.29-44.11zM228.709 499.992h-47.38l6.39-87.95 1.67-23.04s7.42 110.99 39.32 110.99z" fill="#c3ddda" opacity="1" data-original="#c3ddda"></path></g><g fill="#3a322b"><circle cx="303.61" cy="176.036" r="8" fill="#3a322b" opacity="1" data-original="#3a322b" class=""></circle><circle cx="223.61" cy="176.036" r="8" fill="#3a322b" opacity="1" data-original="#3a322b" class=""></circle><path d="M276.699 198.186a4 4 0 0 0-2.179-7.697c-7.254 2.054-14.566 2.054-21.82 0a4 4 0 0 0-2.179 7.697c4.336 1.228 8.74 1.851 13.09 1.851s8.752-.623 13.088-1.851zM238.107 151.925l-22.912-9.708a4 4 0 0 0-3.121 7.367l22.912 9.708a4.002 4.002 0 0 0 3.121-7.367zM290.654 159.609c.521 0 1.049-.102 1.559-.318l22.912-9.708a4 4 0 0 0 2.122-5.244 3.998 3.998 0 0 0-5.243-2.123l-22.912 9.708a4 4 0 0 0 1.562 7.685z" fill="#3a322b" opacity="1" data-original="#3a322b" class=""></path><path d="M428.434 499.278c-5.584-30.787-14.6-58.631-26.799-82.758-4.108-8.128-8.642-15.956-13.474-23.267-18.919-28.632-42.926-50.638-71.351-65.445-1.085-3.062-2.134-5.512-3.189-7.451-5.557-10.204-16.676-15.288-22.024-17.228v-8.243c26.145-9.548 46.752-30.34 55.423-44.791 2.312-3.854 4.488-8.554 6.499-13.96 11.65-.235 22.967-9.073 27.738-22.138 6.067-16.615-.215-34.653-13.998-40.477 5.62-13.744 21.763-57.99 10.808-89.018-11.344-32.129-38.522-39.988-46.619-41.646-2.038-4.184-7.472-13.978-17.458-23.188C302.075 8.68 281.194-3.491 249.395.931c-33.05 4.596-51.201 25.321-68.754 45.363-14.158 16.167-27.532 31.438-47.68 35.846a4 4 0 0 0-1.465 7.166c7.366 5.247 15.637 7.61 24.646 7.063-8.462 26.709-7.229 52.632 3.664 77.211-13.687 5.886-19.907 23.858-13.862 40.417 4.771 13.066 16.088 21.904 27.739 22.138 2.011 5.406 4.187 10.106 6.499 13.96 8.671 14.452 29.279 35.244 55.424 44.792v8.242c-3.656 1.326-10.004 4.125-15.435 9.022-9.972-3.448-49.662-17.622-61.516-28.77-10.707-10.07-40.214-75.059-52.872-104.246 1.525-.828 2.869-2 3.897-3.47a11.49 11.49 0 0 0 1.338-10.674l-2.938-7.749a13.972 13.972 0 0 0-5.831-6.981c5.444-7.982 15.862-25.143 15.862-39.599 0-11.431-2.858-24.733-5.257-33.879-1.768-6.747-7.881-11.458-14.864-11.458-1.753 0-3.443.301-5.022.854-6.943-18.563-24.763-31.135-44.96-31.135C21.534 35.042 0 56.577 0 83.047a47.716 47.716 0 0 0 7.905 26.347c-.081 6.728.172 33.482 8.915 44.908 6.509 8.506 16.721 13.701 22.816 16.224-1.42 3.354-1.523 7.207-.092 10.705l3.316 8.115a11.328 11.328 0 0 0 7.71 6.741c.97.251 1.949.375 2.919.375.435 0 .866-.034 1.296-.083 2.496 21.164 12.864 99.737 31.704 124.485 19.583 25.725 85.851 83.212 97.091 92.898l-6.24 85.939a3.999 3.999 0 0 0 3.99 4.29h243.168a4 4 0 0 0 3.936-4.713zM306.595 324.182c.987 1.813 2.051 4.405 3.161 7.704 3.522 10.472 6.609 25.379 8.118 33.225-14.688-2.043-27.377-6.276-37.85-12.606 7.607-10.286 11.573-21.282 11.573-32.466v-8.283c4.696 2.068 11.497 5.998 14.998 12.426zM263.6 358.733c-13.097-11.964-19.996-25.287-19.996-38.694v-22.658c6.422 1.683 13.112 2.656 19.996 2.656 6.885 0 13.575-.973 19.997-2.656v22.658c0 13.407-6.901 26.729-19.997 38.694zm110.141-147.481c-3.217 8.812-10.084 15.128-17.436 16.585 3.921-12.905 7.019-28.768 8.987-46.395 9.08 4.715 12.884 17.667 8.449 29.81zM165.783 92.929a4.002 4.002 0 0 0-4.571-5.308c-6.126 1.284-11.71 1.086-16.878-.621 17.332-6.898 29.527-20.822 42.325-35.436 16.587-18.94 33.739-38.525 63.837-42.71 22.926-3.186 42.38 2.356 57.832 16.476 11.666 10.66 16.606 22.496 16.652 22.608a3.999 3.999 0 0 0 3.211 2.464c.307.038 30.839 4.208 42.333 36.762 7.942 22.497-.353 54.138-6.652 72.48-5.513-30.092-21.214-56.155-47.675-79.29a4 4 0 0 0-6.175 1.152c-13.031 24.831-33.29 38.97-61.77 43.031 8.504-12.967 12.056-27.26 10.568-42.604a4 4 0 0 0-3.421-3.574 3.981 3.981 0 0 0-4.278 2.485c-6.476 16.325-22.993 27.158-40.48 38.626-18.554 12.168-37.646 24.689-45.966 44.869-8.424-22.752-8.062-46.724 1.108-71.41zm-12.325 118.324c-4.433-12.143-.63-25.094 8.449-29.81 1.969 17.627 5.067 33.489 8.988 46.394-7.347-1.459-14.22-7.773-17.437-16.584zm33.581 34.725c-8.044-13.407-14.623-39.443-17.636-69.726 4.661-23.214 25.478-36.878 45.625-50.091 13.023-8.541 26.37-17.293 35.484-28.72-1.611 10.512-6.239 20.236-13.972 29.441a4.002 4.002 0 0 0-.505 4.383 3.991 3.991 0 0 0 3.835 2.181c33.877-2.274 58.999-16.987 74.752-43.753 26.906 24.83 41.05 53.105 43.201 86.285-2.999 30.401-9.594 56.552-17.664 70.001-10.685 17.807-40.918 46.058-76.561 46.058s-65.874-28.251-76.559-46.059zm33.565 78.205c3.501-6.429 10.302-10.359 14.999-12.428v8.283c0 11.184 3.966 22.18 11.573 32.466-10.474 6.331-23.163 10.564-37.85 12.606 1.957-10.19 6.569-32.278 11.278-40.927zM48.004 43.042c17.533 0 32.917 11.369 38.144 27.903a15.377 15.377 0 0 0-3.492 8.7c-.291 4.02-.874 6.211-1.312 7.342-1.024 2.647-3.336 4.964-6.013 7.647-.465.466-.944.949-1.426 1.441-18.16-12.731-31.2-29.819-38.82-50.88a39.819 39.819 0 0 1 12.919-2.153zm-20.22 5.508c8.129 22.112 21.863 40.12 40.894 53.638-.401.568-.795 1.15-1.172 1.763-2.5 4.072-3.59 8.527-4.046 12.11-23.78-13.605-39.611-32.889-47.123-57.418A40.311 40.311 0 0 1 27.784 48.55zM11.022 67.811c8.597 22.681 24.209 40.823 46.562 54.091a40.018 40.018 0 0 1-9.581 1.15C25.945 123.052 8 105.105 8 83.047a39.78 39.78 0 0 1 3.022-15.236zm33.951 96.212c-4.502-1.66-15.51-6.363-21.8-14.582-4.667-6.1-6.467-19.962-7.042-30.539 8.484 7.551 19.649 12.151 31.874 12.151 7.347 0 14.4-1.619 20.966-4.811a3.997 3.997 0 0 0 2.232-3.977c-.007-.079-.642-7.998 3.122-14.127 1.861-3.033 4.306-5.483 6.67-7.852 3.037-3.044 6.178-6.192 7.811-10.41.923-2.385 1.538-5.633 1.829-9.652.28-3.869 3.51-6.899 7.353-6.899a7.364 7.364 0 0 1 7.126 5.487c2.278 8.691 4.995 21.272 4.995 31.851 0 13.825-12.212 31.985-16.175 37.513-18.858-.961-35.31 4.362-48.961 15.847zm7.604 24.32c-.62-.161-1.744-.637-2.312-2.023l-3.317-8.116c-.944-2.311-.318-4.996 1.559-6.681 11.577-10.391 25.026-15.486 40.974-15.486 1.989 0 4.021.08 6.088.238h.001c2.242.171 4.216 1.665 5.027 3.804l2.938 7.749a3.454 3.454 0 0 1-.41 3.249 3.387 3.387 0 0 1-2.778 1.438c-16.799-.234-31.84 4.872-44.67 15.155a3.517 3.517 0 0 1-3.1.673zm40.277 127.675C74.5 291.907 64.1 207.359 62.404 192.587c10.294-7.7 22.155-11.765 35.263-12.061 6.684 15.445 41.877 95.864 55.505 108.682 4.819 4.531 13.351 9.356 22.74 13.827-20.005 12.46-34.031 31.103-41.774 55.596-17.046-15.988-33.355-32.199-41.284-42.613zm92.777 179.974 7.747-106.7a3.999 3.999 0 0 0-3.699-4.279 3.995 3.995 0 0 0-4.279 3.699l-1.095 15.087c-8.811-7.666-26.089-22.846-43.625-39.073 7.44-26.35 22.281-45.725 44.156-57.64a390.181 390.181 0 0 0 10.973 4.557c-10.566 7.922-18.592 18.476-23.888 31.482a4 4 0 0 0 7.41 3.018c5.419-13.309 14.001-23.73 25.5-31.011a509.152 509.152 0 0 0 9.749 3.548 27.92 27.92 0 0 0-1.001 1.678c-6.814 12.512-12.861 47.218-13.115 48.689a3.997 3.997 0 0 0 4.342 4.659c18.624-1.871 34.579-6.904 47.501-14.963a94.825 94.825 0 0 0 8.705 8.367c.746.634 1.667.95 2.588.95s1.842-.316 2.588-.95a94.84 94.84 0 0 0 8.706-8.367c12.921 8.059 28.876 13.091 47.501 14.963a4.003 4.003 0 0 0 4.342-4.659c-.138-.799-2.828-16.259-6.581-30.255 24.148 14.038 44.76 33.793 61.332 58.872a221.957 221.957 0 0 1 9.897 16.527c-9.546.204-18.937 2.066-27.999 5.558a4 4 0 1 0 2.877 7.465c9.448-3.641 19.287-5.294 29.273-4.977a247.805 247.805 0 0 1 6.025 13.187c-19.307-1.034-37.484 3.805-54.177 14.448-4.478-13.834-10.13-27.112-16.962-39.734a4 4 0 0 0-7.035 3.809c13.499 24.938 22.286 52.524 26.171 82.046H185.631zm171.989 0c-1.671-13.1-4.269-25.841-7.796-38.157 17.023-11.44 35.085-16.082 55.065-14.148 6.192 16.146 11.146 33.638 14.787 52.304H357.62z" fill="#3a322b" opacity="1" data-original="#3a322b" class=""></path></g></g></svg>