<svg width="53" height="53" viewBox="0 0 53 53" fill="none" xmlns="http://www.w3.org/2000/svg">
<path d="M15.7757 10.0404C14.4714 10.3199 14.047 11.9865 15.0407 12.9182C15.1753 13.0527 17.7943 14.2639 20.8583 15.6199C26.2308 18.0008 26.4171 18.0939 26.179 18.2492C26.0445 18.332 23.3945 19.9262 20.2993 21.7895C15.5376 24.6568 14.5439 25.2158 13.8296 25.4332L12.9808 25.692L8.01203 25.2676C5.28957 25.0295 2.8466 24.8432 2.59816 24.8432C0.828045 24.8432 -0.393439 26.4994 0.155193 28.1557C0.403631 28.901 1.07648 29.5531 1.79074 29.7498C2.09094 29.8326 4.8134 30.3088 7.85676 30.8057L13.3845 31.7166L15.0821 31.2922C16.0034 31.0645 16.7695 30.9092 16.7695 30.9506C16.7695 31.1473 15.2995 35.5053 15.2374 35.5053C15.196 35.5053 12.6081 36.085 9.4716 36.7992C3.22961 38.2174 3.28137 38.1967 2.64992 39.1076C2.39113 39.4699 2.32902 39.677 2.29797 40.267C2.24621 41.1262 2.38078 41.5506 2.8466 42.1096C3.33312 42.6686 3.98527 42.9688 4.68918 42.9688C5.58976 42.9688 18.3015 40.8984 18.8501 40.6707C19.1089 40.5568 19.523 40.2566 19.7611 40.0186C20.1648 39.6045 20.3097 39.2939 21.4691 36.1781L22.732 32.7932L28.5288 29.2943L34.3153 25.8059L37.721 27.8037C40.1536 29.2322 41.2405 29.8223 41.5511 29.8637C42.607 29.9982 49.3769 30.2053 49.7702 30.1018C50.9089 29.8119 51.6025 28.5387 51.2298 27.4207C50.8675 26.3648 50.2671 26.0439 48.3417 25.8783C46.2921 25.7127 44.0355 25.4746 43.3316 25.3504C42.6277 25.2262 41.4372 24.6568 40.164 23.8391C38.632 22.8557 38.0937 22.2346 36.4581 19.5639C34.688 16.6758 33.6529 15.5475 32.0484 14.7607C31.5411 14.5123 28.9015 13.6738 24.1087 12.2557C20.1544 11.0859 16.7384 10.0922 16.5107 10.0508C16.2829 10.0094 15.9517 10.0094 15.7757 10.0404Z" fill="#2A373F"/>
<path d="M39.9052 10.0501C37.8142 10.3089 36.0027 11.9237 35.4437 14.0251C35.2574 14.6876 35.2574 15.9505 35.4437 16.613C35.9199 18.4038 37.3794 19.9151 39.1392 20.4327C39.8017 20.6398 41.1578 20.6605 41.872 20.4845C43.6111 20.0704 45.1949 18.5487 45.7228 16.789C45.9609 16.0126 45.9609 14.6255 45.7228 13.8491C44.9671 11.3337 42.4931 9.71886 39.9052 10.0501Z" fill="black"/>
<path d="M49.8117 21.5418C48.3521 22.2664 48.2072 24.3471 49.5632 25.2994C50.9504 26.2828 53 25.2062 53 23.4982C53 21.9144 51.2402 20.8379 49.8117 21.5418Z" fill="#2A373F"/>
</svg>
