<svg width="23" height="40" viewBox="0 0 23 40" fill="none" xmlns="http://www.w3.org/2000/svg">
<path d="M22.901 14.1401C22.9051 14.1204 22.9216 14.1035 22.9216 14.0834C22.9216 14.0509 22.8985 14.022 22.8878 13.9914C22.8524 13.6197 22.8055 13.2874 22.7462 13.0105C22.3766 11.2827 20.4396 9.45604 18.8698 7.97401C18.1816 7.32546 17.402 6.59085 17.2497 6.27092C16.9797 5.70109 16.8504 5.07908 16.7887 4.64518C17.1172 4.45935 17.3114 4.20625 17.3114 3.93392V1.87748C17.3106 1.37969 16.9545 0.902432 16.3214 0.550442C15.6884 0.198453 14.83 0.000492165 13.9347 7.4626e-06H9.0654C8.62108 -0.000691419 8.18095 0.0477046 7.77056 0.142384C7.36017 0.237064 6.98771 0.37614 6.67481 0.551533C6.36096 0.725218 6.11225 0.931817 5.9431 1.15935C5.77395 1.38688 5.68773 1.63082 5.68943 1.87702V3.93392C5.68943 4.20625 5.88289 4.4589 6.21217 4.64518C6.15125 5.0777 6.02118 5.70017 5.7487 6.27092C5.59394 6.59543 4.81107 7.33369 4.10723 7.99735C2.55385 9.46244 0.621781 11.2859 0.252162 13.0096C0.186392 13.335 0.139447 13.6615 0.111396 13.9886C0.0998712 14.0202 0.0768216 14.0495 0.0768216 14.0829C0.0768216 14.104 0.0941065 14.1213 0.0982226 14.1419C-0.0417223 15.7549 -0.000559978 18.0434 0.031545 19.8178L0.0373074 20.1305C0.0504787 20.8811 0.0611781 21.5264 0.052946 21.9736C0.0443214 22.5198 0.220532 23.0619 0.572389 23.5719C1.1157 24.3651 2.38015 26.3904 2.38015 28.0596C2.38015 29.3274 1.85741 30.8053 1.39724 32.1093C0.984817 33.2755 0.62919 34.2829 0.62919 35.0926C0.62919 36.8808 1.38983 38.1482 2.9531 38.9674C3.80676 39.4142 4.93785 39.6503 6.22616 39.6503C7.04278 39.6503 7.88657 39.5487 8.60111 39.3652L8.63568 39.3565C9.22098 39.6215 10.0071 39.8819 10.9505 39.9684C11.1209 39.9918 11.3037 40.0023 11.4873 39.9982C11.6758 40.0045 11.8649 39.9944 12.0479 39.9684C12.9987 39.8824 13.8046 39.6183 14.4072 39.3501C14.4261 39.3556 14.4467 39.3601 14.4664 39.3652C15.2139 39.5507 16.0229 39.647 16.8414 39.648C18.0861 39.648 19.1933 39.4123 20.0445 38.967C21.6102 38.1486 22.3717 36.8808 22.3717 35.0921C22.3717 34.2893 22.0169 33.2865 21.5954 32.0901C21.1377 30.7879 20.6183 29.3128 20.6183 28.0591C20.6183 26.3904 21.8827 24.3651 22.426 23.5719C22.778 23.0613 22.9542 22.5185 22.9455 21.9718C22.9364 21.5255 22.9479 20.8802 22.9611 20.13L22.9652 19.8989C22.9998 18.0997 23.0442 15.7755 22.901 14.1401ZM1.89116 20.1213L1.8854 19.8082C1.85659 18.1903 1.81955 16.1393 1.91833 14.5983H21.0825C21.1838 16.1613 21.1443 18.2461 21.113 19.8897L21.1089 20.1213C21.0968 20.6833 21.0911 21.2454 21.0916 21.8075H1.90763C1.91174 21.3681 1.90187 20.7905 1.89116 20.1213ZM2.6798 11.8324C2.73824 11.8388 2.7934 11.8521 2.85596 11.8521H20.1433C20.2058 11.8521 20.261 11.8388 20.3203 11.8324C20.6034 12.2741 20.8175 12.7116 20.9072 13.1327C20.9352 13.2636 20.9591 13.4119 20.9821 13.5684H2.01794C2.04016 13.4115 2.06486 13.2627 2.09285 13.1323C2.18258 12.7116 2.39744 12.2741 2.6798 11.8324ZM5.71578 8.50906C6.57685 7.69802 7.3202 6.99683 7.54082 6.53501C7.7919 6.00683 7.93267 5.45805 8.01499 4.98708H12.0405C12.2861 4.98708 12.5216 4.93283 12.6953 4.83626C12.869 4.7397 12.9666 4.60873 12.9666 4.47217C12.9666 4.33561 12.869 4.20464 12.6953 4.10807C12.5216 4.01151 12.2861 3.95726 12.0405 3.95726H7.60915C7.5861 3.95039 7.56716 3.94078 7.54247 3.93483V1.87657C7.54165 1.65138 7.69888 1.43901 7.987 1.27927C8.12828 1.19995 8.29652 1.13704 8.48195 1.09422C8.66737 1.05139 8.86626 1.02951 9.06704 1.02983H13.9363C14.7768 1.02983 15.4609 1.41017 15.4609 1.87748L15.4782 3.92019C15.3009 3.96103 15.1508 4.03151 15.0487 4.12188C14.9466 4.21225 14.8976 4.31803 14.9085 4.42457C14.962 4.96923 15.102 5.77798 15.4609 6.53409C15.679 6.99179 16.4191 7.68932 17.2909 8.51135C18.04 9.21758 18.8796 10.0121 19.5687 10.8223H3.43467C4.12287 10.014 4.96337 9.21895 5.71578 8.50906ZM18.7669 28.0601C18.7669 29.4135 19.3036 30.9408 19.7901 32.3235C20.182 33.4321 20.5203 34.39 20.5203 35.0926C20.5203 36.5819 19.9498 37.6035 18.7759 38.2173C18.268 38.4837 17.6169 38.6187 16.8422 38.6187C16.2902 38.6178 15.7445 38.5535 15.2394 38.4297C15.0466 38.3806 14.855 38.3299 14.6648 38.2777C14.4942 38.2311 14.302 38.2149 14.1142 38.2311C13.9264 38.2474 13.7522 38.2955 13.6153 38.3688C13.2613 38.5583 12.5443 38.8864 11.7235 38.9546C11.6794 38.9583 11.6356 38.9635 11.5926 38.9702C11.5299 38.9675 11.4669 38.9671 11.4041 38.9693C11.3643 38.9631 11.3239 38.9582 11.2831 38.9546C10.5118 38.8896 9.86144 38.6059 9.45148 38.3788C9.31433 38.303 9.13793 38.253 8.94703 38.2358C8.75614 38.2185 8.56033 38.235 8.38707 38.2827C8.23314 38.3248 8.04545 38.3738 7.82565 38.4301C7.32361 38.5558 6.77919 38.6205 6.22863 38.6201C5.66556 38.6201 4.86211 38.55 4.22577 38.2168C3.05353 37.6031 2.48387 36.581 2.48387 35.0921C2.48387 34.3827 2.82303 33.4211 3.21653 32.3075C3.69398 30.9577 4.23483 29.4277 4.23483 28.0596C4.23483 26.2192 2.88477 24.0515 2.30441 23.2053C2.22304 23.0846 2.15432 22.9614 2.09861 22.8364H20.9039C20.8483 22.9616 20.7796 23.0849 20.6981 23.2057C20.1161 24.0525 18.7669 26.2201 18.7669 28.0601Z" fill="black"/>
</svg>
