<svg width="53" height="50" viewBox="0 0 53 50" fill="none" xmlns="http://www.w3.org/2000/svg">
<path d="M44.6758 26.8878C42.9068 26.0016 41.2714 28.2381 38.7014 29.3353C35.1302 30.8967 33.5949 29.1243 31.8594 29.8839C31.1585 30.2215 30.5911 31.0654 30.0904 32.8378L27.3202 45.8772L33.9287 48.1137L35.0301 42.9655C35.0968 42.6279 35.3305 42.3747 35.6309 42.3325C39.369 42.1215 42.0057 41.0243 43.9081 39.674C47.4793 37.142 48.247 33.7662 48.3137 33.513L51.5846 17.9839C52.2855 14.6502 48.3137 13.2998 47.6128 16.6335L45.7104 25.664C47.6462 27.2254 47.8465 31.4452 44.7091 33.3864L39.903 36.5935C39.1353 37.142 38.5012 35.6229 39.2688 35.1165L44.1084 31.9094C46.6783 30.1793 45.8773 27.4786 44.6758 26.8878ZM44.4421 25.0732L46.3446 16.1693C47.1122 12.5403 51.0172 11.8229 52.5525 15.1566C52.9864 16.1271 53.1199 17.2665 52.8862 18.4059L49.6154 33.935C49.5486 34.1881 48.6141 38.2814 44.5756 41.1509C42.6064 42.5435 39.903 43.6828 36.1649 43.9782L35.0301 49.3797C34.93 49.8016 34.5628 50.097 34.2291 49.9704L26.4858 47.3541L18.776 49.9704C18.4088 50.097 18.0417 49.8016 17.9416 49.3797L16.8068 43.9782C13.102 43.6828 10.3986 42.5435 8.42941 41.1509C4.35753 38.2814 3.45638 34.1881 3.38963 33.935L0.11878 18.4059C-0.648869 14.7768 2.4551 11.6541 5.0918 13.5952C5.82608 14.1438 6.42685 15.03 6.66048 16.1693L8.52953 25.0732C10.8325 24.6091 12.301 26.6768 14.7375 27.774C18.0417 29.2087 19.3767 27.3098 21.5796 28.3225C22.681 28.7867 23.5154 29.9261 24.1829 32.2892L26.4858 43.2186L28.8221 32.2892C30.1572 27.7318 31.8927 27.6896 35.1302 28.2803C37.0326 28.6179 39.3356 27.352 40.8375 26.2126C42.2393 25.1576 43.4742 24.8623 44.4421 25.0732ZM8.32928 26.8878C6.7606 27.6474 6.72723 30.6857 8.82992 31.8672C8.86329 31.8672 8.86329 31.8672 8.89667 31.9094L13.7028 35.1165C14.5038 35.6229 13.8697 37.142 13.102 36.5935L8.26253 33.3864C5.12518 31.4452 5.35881 27.2254 7.29462 25.664L5.35881 16.6335C4.65792 13.2998 0.686172 14.6502 1.38707 17.9839L4.69129 33.513C4.72467 33.7662 5.52569 37.142 9.06355 39.674C10.966 41.0243 13.6361 42.1215 17.3742 42.3325C17.6746 42.3747 17.9082 42.6279 17.9749 42.9655L19.0764 48.1137L25.6848 45.8772L22.9146 32.8378C22.0134 29.2087 20.4448 29.5041 18.0751 29.9683C15.8055 30.3481 13.2356 28.9977 11.4666 27.6896C10.1316 26.6346 9.06355 26.508 8.32928 26.8878Z" fill="#2A373F"/>
<mask id="path-2-inside-1_1019_112" fill="white">
<path d="M21.1399 7.07078C18.3322 10.0847 17.4859 14.8409 19.3479 18.8376C21.2829 22.9921 25.5288 24.9933 29.5264 23.9786L29.2934 23.4784L29.2716 23.4123L29.3359 23.1264L29.5867 23.0219L29.8056 23.1888L30.0647 23.7465L29.7542 23.9215C30.2669 23.7762 30.7732 23.5766 31.2702 23.3283L22.9958 5.54294C22.3213 5.96489 21.698 6.47868 21.1399 7.07078ZM21.5135 6.76025L22.0256 6.4705L22.2153 6.87711L22.1746 7.08994L21.8834 7.25439L21.6977 7.15699L21.5135 6.76025ZM23.502 5.2362L31.7912 23.0562C36.2386 20.467 38.0079 14.456 35.7329 9.57486C33.4603 4.6963 28.0028 2.77402 23.502 5.2362ZM24.7473 4.90765L25.2606 4.61796L25.4454 5.01663L25.4331 5.2235L25.0834 5.42171L24.9446 5.33186L24.7473 4.90765ZM22.3332 8.08016L22.5846 7.97505L22.8042 8.14252L23.0633 8.69903L23.0858 8.76582L23.0209 9.05109L22.7695 9.15619L22.5505 8.98936L22.2908 8.43221L22.2689 8.36606L22.3332 8.08016ZM25.5677 6.22827L25.8191 6.12317L26.0386 6.28934L26.2971 6.84643L26.3202 6.91264L26.2552 7.19782L26.0038 7.30293L25.785 7.13617L25.5258 6.57967L25.5033 6.51288L25.5677 6.22827ZM23.1112 9.75284L23.3626 9.64773L23.5821 9.81391L23.8407 10.3711L23.8637 10.4372L23.7987 10.7224L23.5474 10.8276L23.3285 10.6607L23.0693 10.1042L23.0469 10.0374L23.1112 9.75284ZM26.3462 7.90029L26.597 7.79455L26.8159 7.96138L27.0756 8.51845L27.0981 8.58532L27.0332 8.8705L26.7824 8.97495L26.5622 8.80814L26.3038 8.25105L26.2819 8.1849L26.3462 7.90029ZM23.8891 11.4242L24.1405 11.3191L24.3601 11.4866L24.6191 12.043L24.6417 12.1099L24.5767 12.3951L24.3259 12.4995L24.1058 12.3328L23.8473 11.7756L23.8254 11.7095L23.8891 11.4242ZM27.1241 9.57167L27.3755 9.46657L27.5938 9.63268L27.8536 10.1898L27.876 10.2566L27.8111 10.5419L27.5603 10.6463L27.3408 10.4802L27.0817 9.92243L27.0592 9.85686L27.1241 9.57167ZM24.6677 13.0962L24.9191 12.9911L25.1374 13.1573L25.3971 13.7144L25.4196 13.7813L25.3546 14.0665L25.1038 14.1709L24.8844 14.0048L24.6252 13.447L24.6028 13.3815L24.6677 13.0962ZM27.9021 11.2431L28.1535 11.138L28.3724 11.3047L28.6321 11.8619L28.6546 11.9286L28.5891 12.2133L28.3383 12.319L28.1187 12.1515L27.8597 11.5951L27.8371 11.5282L27.9021 11.2431ZM25.4456 14.7676L25.697 14.6625L25.9154 14.83L26.1744 15.3877L26.1982 15.4533L26.1326 15.7378L25.8818 15.8436L25.6623 15.6761L25.4032 15.1197L25.3806 15.0528L25.4456 14.7676ZM28.68 12.9157L28.9308 12.8099L29.1497 12.978L29.4089 13.5346L29.4325 13.6L29.3676 13.8853L29.1162 13.9904L28.8973 13.8236L28.6375 13.2664L28.6157 13.2003L28.68 12.9157ZM26.223 16.4397L26.4744 16.3346L26.6932 16.5026L26.9524 17.0591L26.9761 17.1246L26.9111 17.4099L26.6597 17.515L26.4408 17.3481L26.1811 16.7911L26.1592 16.7248L26.223 16.4397ZM29.4579 14.587L29.7093 14.4819L29.9277 14.6494L30.1867 15.2059L30.2105 15.2714L30.1455 15.5566L29.8941 15.6617L29.6746 15.4956L29.4161 14.9384L29.3936 14.8716L29.4579 14.587ZM27.0015 18.1117L27.2529 18.0066L27.4712 18.174L27.7303 18.7305L27.754 18.796L27.6891 19.0812L27.4377 19.1863L27.2193 19.0201L26.9596 18.463L26.9371 18.3962L27.0015 18.1117ZM30.2365 16.2591L30.4873 16.1533L30.7056 16.3208L30.9653 16.8779L30.989 16.9434L30.924 17.2286L30.6726 17.3337L30.4525 17.1669L30.194 16.6098L30.1715 16.5443L30.2365 16.2591ZM27.7794 19.783L28.0308 19.6779L28.2491 19.8454L28.5089 20.4025L28.5325 20.468L28.4676 20.7533L28.2162 20.8584L27.9961 20.6915L27.7376 20.1344L27.7151 20.0689L27.7794 19.783ZM31.0144 17.9304L31.2658 17.8253L31.4835 17.9921L31.7426 18.5499L31.7664 18.6155L31.7014 18.9007L31.45 19.0058L31.231 18.8389L30.9714 18.2819L30.9494 18.2156L31.0144 17.9304ZM28.5579 21.455L28.8093 21.3499L29.0271 21.5168L29.2862 22.0745L29.3099 22.14L29.2449 22.4252L28.9935 22.5303L28.7746 22.3636L28.5149 21.8064L28.493 21.7403L28.5579 21.455ZM31.7924 19.6031L32.0426 19.4967L32.262 19.6641L32.5212 20.2219L32.5449 20.2875L32.4793 20.572L32.2285 20.6778L32.009 20.5103L31.7499 19.9539L31.7274 19.887L31.7924 19.6031ZM32.5697 21.2739L32.8211 21.1687L33.04 21.3368L33.2991 21.8933L32.7875 22.1823L32.5278 21.6252L32.5059 21.559L32.5697 21.2739Z"/>
</mask>
<path d="M21.1399 7.07078C18.3322 10.0847 17.4859 14.8409 19.3479 18.8376C21.2829 22.9921 25.5288 24.9933 29.5264 23.9786L29.2934 23.4784L29.2716 23.4123L29.3359 23.1264L29.5867 23.0219L29.8056 23.1888L30.0647 23.7465L29.7542 23.9215C30.2669 23.7762 30.7732 23.5766 31.2702 23.3283L22.9958 5.54294C22.3213 5.96489 21.698 6.47868 21.1399 7.07078ZM21.5135 6.76025L22.0256 6.4705L22.2153 6.87711L22.1746 7.08994L21.8834 7.25439L21.6977 7.15699L21.5135 6.76025ZM23.502 5.2362L31.7912 23.0562C36.2386 20.467 38.0079 14.456 35.7329 9.57486C33.4603 4.6963 28.0028 2.77402 23.502 5.2362ZM24.7473 4.90765L25.2606 4.61796L25.4454 5.01663L25.4331 5.2235L25.0834 5.42171L24.9446 5.33186L24.7473 4.90765ZM22.3332 8.08016L22.5846 7.97505L22.8042 8.14252L23.0633 8.69903L23.0858 8.76582L23.0209 9.05109L22.7695 9.15619L22.5505 8.98936L22.2908 8.43221L22.2689 8.36606L22.3332 8.08016ZM25.5677 6.22827L25.8191 6.12317L26.0386 6.28934L26.2971 6.84643L26.3202 6.91264L26.2552 7.19782L26.0038 7.30293L25.785 7.13617L25.5258 6.57967L25.5033 6.51288L25.5677 6.22827ZM23.1112 9.75284L23.3626 9.64773L23.5821 9.81391L23.8407 10.3711L23.8637 10.4372L23.7987 10.7224L23.5474 10.8276L23.3285 10.6607L23.0693 10.1042L23.0469 10.0374L23.1112 9.75284ZM26.3462 7.90029L26.597 7.79455L26.8159 7.96138L27.0756 8.51845L27.0981 8.58532L27.0332 8.8705L26.7824 8.97495L26.5622 8.80814L26.3038 8.25105L26.2819 8.1849L26.3462 7.90029ZM23.8891 11.4242L24.1405 11.3191L24.3601 11.4866L24.6191 12.043L24.6417 12.1099L24.5767 12.3951L24.3259 12.4995L24.1058 12.3328L23.8473 11.7756L23.8254 11.7095L23.8891 11.4242ZM27.1241 9.57167L27.3755 9.46657L27.5938 9.63268L27.8536 10.1898L27.876 10.2566L27.8111 10.5419L27.5603 10.6463L27.3408 10.4802L27.0817 9.92243L27.0592 9.85686L27.1241 9.57167ZM24.6677 13.0962L24.9191 12.9911L25.1374 13.1573L25.3971 13.7144L25.4196 13.7813L25.3546 14.0665L25.1038 14.1709L24.8844 14.0048L24.6252 13.447L24.6028 13.3815L24.6677 13.0962ZM27.9021 11.2431L28.1535 11.138L28.3724 11.3047L28.6321 11.8619L28.6546 11.9286L28.5891 12.2133L28.3383 12.319L28.1187 12.1515L27.8597 11.5951L27.8371 11.5282L27.9021 11.2431ZM25.4456 14.7676L25.697 14.6625L25.9154 14.83L26.1744 15.3877L26.1982 15.4533L26.1326 15.7378L25.8818 15.8436L25.6623 15.6761L25.4032 15.1197L25.3806 15.0528L25.4456 14.7676ZM28.68 12.9157L28.9308 12.8099L29.1497 12.978L29.4089 13.5346L29.4325 13.6L29.3676 13.8853L29.1162 13.9904L28.8973 13.8236L28.6375 13.2664L28.6157 13.2003L28.68 12.9157ZM26.223 16.4397L26.4744 16.3346L26.6932 16.5026L26.9524 17.0591L26.9761 17.1246L26.9111 17.4099L26.6597 17.515L26.4408 17.3481L26.1811 16.7911L26.1592 16.7248L26.223 16.4397ZM29.4579 14.587L29.7093 14.4819L29.9277 14.6494L30.1867 15.2059L30.2105 15.2714L30.1455 15.5566L29.8941 15.6617L29.6746 15.4956L29.4161 14.9384L29.3936 14.8716L29.4579 14.587ZM27.0015 18.1117L27.2529 18.0066L27.4712 18.174L27.7303 18.7305L27.754 18.796L27.6891 19.0812L27.4377 19.1863L27.2193 19.0201L26.9596 18.463L26.9371 18.3962L27.0015 18.1117ZM30.2365 16.2591L30.4873 16.1533L30.7056 16.3208L30.9653 16.8779L30.989 16.9434L30.924 17.2286L30.6726 17.3337L30.4525 17.1669L30.194 16.6098L30.1715 16.5443L30.2365 16.2591ZM27.7794 19.783L28.0308 19.6779L28.2491 19.8454L28.5089 20.4025L28.5325 20.468L28.4676 20.7533L28.2162 20.8584L27.9961 20.6915L27.7376 20.1344L27.7151 20.0689L27.7794 19.783ZM31.0144 17.9304L31.2658 17.8253L31.4835 17.9921L31.7426 18.5499L31.7664 18.6155L31.7014 18.9007L31.45 19.0058L31.231 18.8389L30.9714 18.2819L30.9494 18.2156L31.0144 17.9304ZM28.5579 21.455L28.8093 21.3499L29.0271 21.5168L29.2862 22.0745L29.3099 22.14L29.2449 22.4252L28.9935 22.5303L28.7746 22.3636L28.5149 21.8064L28.493 21.7403L28.5579 21.455ZM31.7924 19.6031L32.0426 19.4967L32.262 19.6641L32.5212 20.2219L32.5449 20.2875L32.4793 20.572L32.2285 20.6778L32.009 20.5103L31.7499 19.9539L31.7274 19.887L31.7924 19.6031ZM32.5697 21.2739L32.8211 21.1687L33.04 21.3368L33.2991 21.8933L32.7875 22.1823L32.5278 21.6252L32.5059 21.559L32.5697 21.2739Z" stroke="#2A373F" stroke-width="2" mask="url(#path-2-inside-1_1019_112)"/>
</svg>
