<svg xmlns="http://www.w3.org/2000/svg" version="1.1" xmlns:xlink="http://www.w3.org/1999/xlink" width="512" height="512" x="0" y="0" viewBox="0 0 128 128" style="enable-background:new 0 0 512 512" xml:space="preserve" class=""><g><path d="m103.9 71.7-1.6-.7c-.1 0-.1 0-.2-.1-.5-.2-.8-.3-.9-.3C94 69.1 86.9 68 80 67.3c-.6-.1-2.5-1.1-3.4-4.3-.2-.5-.3-.9-.4-1.5 4.5-3.4 8-8.8 9.5-15.2 1.5-1.3 7-6.7 5.7-13.8 0-.3-.3-2.2-1.7-3.4v-4.8c.1-7.3-2.1-13.4-6.4-17.8C79.1 2.3 73.1 0 66 0h-1.3c-7-.4-13.4 2-18 6.6s-6.9 11-6.5 17.9v4.6c-.8.7-1.3 1.7-1.5 2.7-.5 2.3-1.4 9.9 5.9 15.1 1.5 5.7 4.5 10.6 8.3 13.9-.3 1.2-.6 2.2-1 3C51 66 49.8 67 48 67.3c-6.9.6-14 1.8-21.2 3.4 0 0-.3.1-.8.3-.1 0-.1 0-.2.1l-1.6.7c-5.5 2.2-9.1 7.4-9.2 13.3v41c0 .7.6 1.3 1.3 1.4l10.9.6h73.7l10.8-.6c.7 0 1.3-.6 1.3-1.4V85c-.1-5.9-3.7-11.1-9.1-13.3zM48.7 8.5c4-4.1 9.7-6.1 15.9-5.8h1.3c6.3 0 11.7 2 15.4 5.8 3.8 3.8 5.7 9.3 5.6 15.8v3.9c-.3 0-.5 0-.8.1.4-3.1.5-8.1-2-10.4-1-.9-2.7-1.8-5.6-1-.3.1-.6.1-.9 0-2.8-1-12.3-4-19.3-.6-4 2-6.9.8-7.7.5-.5-.2-1.1-.2-1.5.2-.2.2-4.7 4.1-4.7 11.5-.4-.2-.8-.3-1.2-.4h-.3v-3.7c-.2-6.2 1.8-11.8 5.8-15.9zm-1.5 37.3c-.1-.3-.3-.6-.6-.8-6.2-4.2-5.7-10.2-5.2-12.6.1-.5.4-1 .7-1.3.1 0 .1-.1.2-.1l.1-.1c.1-.1.3-.1.3-.1h.1c.7.1 1.6 1 2.1 1.9.3.6 1 .8 1.7.6.6-.2 1-.9.8-1.5-1.2-6.6 1.6-10.7 2.9-12.1 2.7 1 6.1.7 9.2-.8 6.1-2.9 14.7-.2 17.2.8.8.3 1.7.3 2.6.1 2-.6 2.8.1 3 .4 1.8 1.7 1.5 7.3.8 10.4-.1.5.1 1.1.6 1.4.4.3 1 .3 1.5 0 1.1-.7 2-.9 2.5-.7.6.3.9 1.3 1 1.9 1.1 6.3-4.5 11.1-5 11.5-.3.2-.5.5-.5.8-2.2 9.9-9.8 17.3-18 17.3-8.1 0-15.7-7.2-18-17zm7.3 19c.3-.7.6-1.4.8-2.3 3 1.9 6.3 3 9.8 3 3 0 6-.8 8.7-2.3.1.2.1.5.2.7.9 3.1 2.7 4.9 4.2 5.7-.3 1.5-.8 2.9-1.5 4.1-.6 1.1-1.4 2.1-2.2 3-2.8 2.9-6.5 4.5-10.5 4.5s-7.7-1.6-10.5-4.5c-.8-.9-1.6-1.9-2.2-3-.7-1.2-1.2-2.5-1.5-3.9 2.1-.9 3.6-2.4 4.7-5zM17.7 85V84c0-.3.1-.5.1-.7v-.1c0-.3.1-.5.2-.8.1-.3.1-.5.2-.8.1-.3.2-.5.3-.8.1-.3.2-.5.3-.8v-.1c.1-.2.2-.5.4-.7v-.1c.1-.2.3-.4.4-.7l.1-.1c.3-.4.6-.9 1-1.3 1.2-1.3 2.6-2.3 4.3-2.9l.5-.2c3.1 5.8 7.1 15.5 9.2 30.2.4 2.9.7 5.9 1 9-5.3 1.4-11.8 1.4-18.2 0V85zm9.5 40.3-9.5-.6V116c3.2.7 6.4 1 9.5 1s6.1-.4 8.9-1c.2 3 .3 6.1.3 9.2h-9.2zM89.3 114v.3c-.3 3.5-.4 7.2-.4 10.9H39.1c0-3.7-.2-7.4-.4-10.9v-.3c-.3-3.5-.6-6.9-1.1-10.2-2.1-14.7-6-24.6-9.2-30.7 6.4-1.4 12.7-2.4 18.8-3 .4 1.8 1 3.4 1.8 4.8.7 1.3 1.6 2.5 2.6 3.5 3.3 3.4 7.7 5.3 12.5 5.3 4.7 0 9.2-1.9 12.5-5.3 1-1.1 1.8-2.2 2.6-3.5.8-1.4 1.4-3 1.8-4.8 6.1.6 12.4 1.6 18.8 3-3.2 6.1-7.1 16-9.2 30.7-.7 3.3-1 6.7-1.3 10.2zm21 10.7-9.4.6h-9.3c0-3.1.2-6.2.3-9.2 2.7.7 5.7 1 8.9 1 3.1 0 6.3-.3 9.5-1zm0-11.5c-6.4 1.4-12.9 1.4-18.2 0 .3-3.1.6-6.1 1-9 2.1-14.7 6-24.4 9.2-30.2l.5.2c3.9 1.5 6.6 5 7.3 9 .1.5.1.9.2 1.4v.3z" fill="#000000" opacity="1" data-original="#000000" class=""></path><path fill="#7a7879" d="M87.1 24.4v3.9c-.3 0-.5 0-.8.1.4-3.1.5-8.1-2-10.4-1-.9-2.7-1.8-5.6-1-.3.1-.6.1-.9 0-2.8-1-12.3-4-19.3-.6-4 2-6.9.8-7.7.5-.5-.2-1.1-.2-1.5.2-.2.2-4.7 4.1-4.7 11.5-.4-.2-.8-.3-1.2-.4h-.3v-3.7c-.4-6.2 1.6-11.8 5.7-15.8 4-4.1 9.7-6.1 15.9-5.8H66c6.3 0 11.7 2 15.4 5.8 3.8 3.7 5.7 9.1 5.7 15.7z" opacity="1" data-original="#7a7879"></path><path fill="#ffdc7d" d="M36.4 125.3h-9.2l-9.5-.6V116c3.2.7 6.4 1 9.5 1s6.1-.4 8.9-1c.1 3 .3 6.1.3 9.3z" opacity="1" data-original="#ffdc7d" class=""></path><path fill="#f4cf73" d="M23.7 116.9v8.2l-6-.4V116c2 .5 4 .7 6 .9z" opacity="1" data-original="#f4cf73"></path><path fill="#ffdc7d" d="M110.3 116v8.7l-9.4.6h-9.3c0-3.1.2-6.2.3-9.2 2.7.7 5.7 1 8.9 1 3.1-.1 6.3-.4 9.5-1.1z" opacity="1" data-original="#ffdc7d" class=""></path><path fill="#f4cf73" d="M110.3 116v8.7l-3.9.2v-8.3c1.3-.1 2.6-.3 3.9-.6z" opacity="1" data-original="#f4cf73"></path><g fill="#ffdc7d"><path d="M35.9 113.2c-5.3 1.4-11.8 1.4-18.2 0V84c0-.3.1-.5.1-.7v-.1c0-.3.1-.5.2-.8.1-.3.1-.5.2-.8.1-.3.2-.5.3-.8.1-.3.2-.5.3-.8v-.1c.1-.2.2-.5.4-.7v-.1c.1-.2.3-.4.4-.7l.1-.1c.3-.4.6-.9 1-1.3 1.2-1.3 2.6-2.3 4.3-2.9l.5-.2c3.1 5.8 7.1 15.5 9.2 30.2.6 3 .9 6.1 1.2 9.1zM110.3 85v28.2c-6.4 1.4-12.9 1.4-18.2 0 .3-3.1.6-6.1 1-9 2.1-14.7 6-24.4 9.2-30.2l.5.2c3.9 1.5 6.6 5 7.3 9 .1.5.1.9.2 1.4z" fill="#ffdc7d" opacity="1" data-original="#ffdc7d" class=""></path><path d="M80.9 70.2c-.4 1.8-1 3.4-1.8 4.8-.7 1.3-1.6 2.5-2.6 3.5-3.3 3.4-7.7 5.3-12.5 5.3-4.7 0-9.2-1.9-12.5-5.3-1-1.1-1.9-2.2-2.6-3.5-.8-1.4-1.4-3-1.8-4.8-6.1.6-12.4 1.6-18.8 3 3.2 6.1 7.1 16 9.2 30.7.5 3.3.8 6.7 1.1 10.2v.3c.3 3.5.4 7.2.4 10.9h49.8c0-3.7.2-7.4.4-10.9v-.3c.3-3.5.6-6.9 1.1-10.2 2.1-14.7 6-24.6 9.2-30.7-6.2-1.4-12.5-2.4-18.6-3zm-3.2 28h-6.6c-.8 0-1.4-.6-1.4-1.4s.6-1.4 1.4-1.4H73v-6.8l-2.2.9c-.7.3-1.5-.1-1.8-.8s.1-1.5.8-1.8l4.1-1.6c.4-.2.9-.1 1.3.2s.6.7.6 1.1v8.8h1.9c.8 0 1.4.6 1.4 1.4s-.6 1.4-1.4 1.4zm5.7 0c-2.9 0-5.3-2.9-5.3-6.4 0-3.6 2.4-6.4 5.3-6.4s5.3 2.9 5.3 6.4-2.4 6.4-5.3 6.4z" fill="#ffdc7d" opacity="1" data-original="#ffdc7d" class=""></path></g><path fill="#f4cf73" d="M30 83.8c-3.9 4.3-6.3 10-6.3 16.2v14.1c-2-.2-4-.5-6-.9V84c0-.3.1-.5.1-.7v-.1c0-.3.1-.5.2-.8.1-.3.1-.5.2-.8.1-.3.2-.5.3-.8.1-.3.2-.5.3-.8v-.1c.1-.2.2-.5.4-.7v-.1c.1-.2.3-.4.4-.7l.1-.1c.3-.4.6-.9 1-1.3 1.2-1.3 2.6-2.3 4.3-2.9l.5-.2c1.6 2.6 3.1 5.8 4.5 9.9zM110.3 85v28.2c-1.3.3-2.6.5-3.9.7V100c0-7-3-13.4-7.8-17.8 1.3-3.3 2.6-6.1 3.7-8.2l.5.2c3.9 1.5 6.6 5 7.3 9 .1.5.1.9.2 1.4z" opacity="1" data-original="#f4cf73"></path><path fill="#f6d3bd" d="M78.2 69.5c-.3 1.5-.8 2.9-1.5 4.1-.6 1.1-1.4 2.1-2.2 3-2.8 2.9-6.5 4.5-10.5 4.5s-7.7-1.6-10.5-4.5c-.8-.9-1.6-1.9-2.2-3-.7-1.2-1.2-2.5-1.5-3.9 2.1-.7 3.6-2.3 4.7-4.8.3-.7.6-1.4.8-2.3 3 1.9 6.3 3 9.8 3 3 0 6-.8 8.7-2.3.1.2.1.5.2.7.9 3 2.7 4.7 4.2 5.5zM88.8 33c-.1-.6-.4-1.6-1-1.9-.5-.2-1.4 0-2.5.7-.5.3-1.1.3-1.5 0-.5-.3-.7-.9-.6-1.4.7-3.1 1-8.7-.8-10.4-.2-.2-1-.9-3-.4-.9.3-1.8.2-2.6-.1-2.5-.9-11.1-3.7-17.2-.8-3.1 1.5-6.5 1.8-9.2.8-1.3 1.4-4.1 5.5-2.9 12.1.1.7-.2 1.3-.8 1.5s-1.3 0-1.7-.6c-.5-.9-1.4-1.8-2.1-1.9h-.1c-.1 0-.2 0-.3.1l-.1.1c-.1 0-.1.1-.2.1-.3.3-.6.7-.7 1.3-.5 2.4-1 8.5 5.2 12.6.3.2.5.5.6.8 2.4 9.9 9.9 17 18 17 8.3 0 15.9-7.4 18.1-17.5.1-.3.3-.6.5-.8.4-.2 6-5.1 4.9-11.3zM53 34.2c-.7.4-1.5.2-1.9-.5s-.2-1.5.5-1.9c3.2-1.9 6.4-1.9 9.5 0 .7.4.9 1.2.5 1.9-.3.4-.7.7-1.2.7-.2 0-.5-.1-.7-.2-2.2-1.3-4.4-1.3-6.7 0zm17.4 19.9c-1.4 1.3-3.3 2.2-5.3 2.2H65c-4.3 0-7.8-3.5-7.8-7.8 0-.8.6-1.4 1.4-1.4h12.9c.8 0 1.4.6 1.4 1.4-.1 2.2-1 4.2-2.5 5.6zM80 33.7c-.3.4-.7.7-1.2.7-.2 0-.5-.1-.7-.2-2.3-1.3-4.5-1.3-6.8 0-.7.4-1.5.2-1.9-.5s-.2-1.5.5-1.9c3.2-1.9 6.4-1.9 9.5 0 .8.4 1 1.3.6 1.9z" opacity="1" data-original="#f6d3bd" class=""></path><path d="M71.5 47.1H58.6c-.8 0-1.4.6-1.4 1.4 0 4.3 3.5 7.8 7.8 7.8h.1c2.1 0 3.9-.8 5.3-2.1 1.5-1.4 2.4-3.4 2.4-5.6 0-.9-.6-1.5-1.3-1.5zm-6.4 6.4c-2.4 0-4.3-1.5-4.9-3.7H70c-.7 2.2-2.6 3.7-4.9 3.7z" fill="#000000" opacity="1" data-original="#000000" class=""></path><path fill="#f6d3bd" d="M69.9 49.9c-.6 2.1-2.6 3.7-4.8 3.7H65c-2.3 0-4.2-1.5-4.8-3.7z" opacity="1" data-original="#f6d3bd" class=""></path><path d="M61.7 33.7c-.3.4-.7.7-1.2.7-.2 0-.5-.1-.7-.2-2.3-1.3-4.5-1.3-6.8 0-.7.4-1.5.2-1.9-.5s-.2-1.5.5-1.9c3.2-1.9 6.4-1.9 9.5 0 .7.4 1 1.3.6 1.9zM80 33.7c-.3.4-.7.7-1.2.7-.2 0-.5-.1-.7-.2-2.3-1.3-4.5-1.3-6.8 0-.7.4-1.5.2-1.9-.5s-.2-1.5.5-1.9c3.2-1.9 6.4-1.9 9.5 0 .8.4 1 1.3.6 1.9zM79.1 96.8c0 .8-.6 1.4-1.4 1.4h-6.6c-.8 0-1.4-.6-1.4-1.4s.6-1.4 1.4-1.4H73v-6.8l-2.2.9c-.7.3-1.5-.1-1.8-.8s.1-1.5.8-1.8l4.1-1.6c.4-.2.9-.1 1.3.2s.6.7.6 1.1v8.8h1.9c.8 0 1.4.6 1.4 1.4z" fill="#000000" opacity="1" data-original="#000000" class=""></path><path d="M83.4 85.3c-2.9 0-5.3 2.9-5.3 6.4 0 3.6 2.4 6.4 5.3 6.4s5.3-2.9 5.3-6.4-2.4-6.4-5.3-6.4zm0 10.1c-1.4 0-2.6-1.7-2.6-3.7S82 88 83.4 88s2.6 1.7 2.6 3.7-1.2 3.7-2.6 3.7z" fill="#000000" opacity="1" data-original="#000000" class=""></path><path fill="#ffdc7d" d="M86 91.7c0 2-1.2 3.7-2.6 3.7s-2.6-1.7-2.6-3.7S82 88 83.4 88s2.6 1.7 2.6 3.7z" opacity="1" data-original="#ffdc7d" class=""></path></g></svg>