<svg width="53" height="53" viewBox="0 0 53 53" fill="none" xmlns="http://www.w3.org/2000/svg">
<g clip-path="url(#clip0_1656_758)">
<path d="M23.8085 17.288C23.8676 17.3284 23.9267 17.3687 23.9877 17.4103C24.9085 18.04 25.7638 18.728 26.6034 19.4618C26.6859 19.5339 26.7683 19.6059 26.8533 19.6802C26.9892 19.7992 27.1248 19.9186 27.2601 20.0384C27.4161 20.1731 27.5788 20.3 27.7421 20.4258C27.8446 20.5123 27.8446 20.5123 27.9491 20.6005C27.9491 20.6688 27.9491 20.7371 27.9491 20.8075C27.4299 20.9263 26.9106 21.0442 26.3911 21.1613C26.2145 21.2012 26.038 21.2414 25.8616 21.2818C25.6073 21.34 25.3529 21.3973 25.0984 21.4545C24.9809 21.4816 24.9809 21.4816 24.8611 21.5094C23.8037 21.7445 23.8037 21.7445 23.4114 21.5333C23.3588 21.4881 23.3063 21.4429 23.2521 21.3963C22.8735 21.0982 22.5046 20.9595 22.0487 20.8075C22.0487 20.705 22.0487 20.6025 22.0487 20.497C21.9014 20.3607 21.9014 20.3607 21.6993 20.2467C21.6237 20.2005 21.548 20.1543 21.4701 20.1067C21.3878 20.0583 21.3054 20.0099 21.2206 19.96C21.0954 19.8849 21.0954 19.8849 20.9676 19.8084C19.6393 19.0206 19.6393 19.0206 18.2186 18.4266C18.1845 18.5974 18.1503 18.7682 18.1151 18.9442C18.0468 18.9442 17.9785 18.9442 17.9081 18.9442C17.7679 18.7903 17.6357 18.6291 17.507 18.4655C17.424 18.3626 17.341 18.2597 17.2555 18.1537C17.1119 17.9749 16.9687 17.7958 16.8263 17.6161C15.9216 16.4479 15.9216 16.4479 14.5903 15.9059C14.0964 15.8694 13.7457 16.0197 13.3287 16.2556C13.1464 16.3563 13.1464 16.3563 12.8358 16.4598C12.7176 16.6443 12.7176 16.6443 12.6288 16.8739C12.5936 16.9517 12.5583 17.0295 12.522 17.1097C12.3276 17.656 12.307 18.2945 12.4941 18.8476C12.6249 19.0726 12.7724 19.2617 12.9393 19.4618C12.9816 19.5127 13.0239 19.5636 13.0674 19.6161C13.3792 19.9898 13.6977 20.3571 14.0181 20.7234C14.3662 21.123 14.7075 21.5284 15.0481 21.9345C15.2297 22.151 15.4145 22.3642 15.602 22.5758C15.6884 22.6754 15.7747 22.7751 15.8637 22.8778C15.941 22.9654 16.0184 23.0529 16.0982 23.1431C16.2518 23.3954 16.2518 23.3954 16.2238 23.6266C16.1363 23.9587 16.0324 24.2818 15.9227 24.6073C15.8772 24.7443 15.8318 24.8813 15.7864 25.0183C15.7158 25.2305 15.6449 25.4426 15.5732 25.6544C15.2247 26.6855 14.9772 27.7037 14.8026 28.7782C14.8599 28.7999 14.9171 28.8215 14.9761 28.8438C16.6446 29.4749 18.312 30.1086 19.9784 30.745C20.0747 30.7818 20.1711 30.8185 20.2703 30.8564C20.7585 31.0429 21.2462 31.2303 21.7332 31.4197C21.8725 31.4738 22.012 31.5275 22.1516 31.5809C22.788 31.8246 23.3859 32.0709 23.9621 32.4372C24.3542 32.6847 24.6032 32.7778 25.0765 32.7247C25.4851 32.7043 25.6513 32.7027 26.0341 32.8735C26.731 33.553 26.8066 34.2572 26.9139 35.1962C26.709 35.2303 26.504 35.2645 26.2929 35.2997C26.2716 35.1987 26.2504 35.0977 26.2286 34.9936C26.2007 34.8619 26.1728 34.7302 26.1441 34.5945C26.1164 34.4636 26.0888 34.3327 26.0603 34.1978C25.9891 33.8535 25.9891 33.8535 25.8788 33.5399C25.4963 33.3323 25.1709 33.288 24.7401 33.3329C24.463 33.4588 24.2822 33.5618 24.102 33.8084C23.9739 34.1772 24.0206 34.5296 24.0543 34.9115C24.0602 34.9886 24.0661 35.0658 24.0721 35.1452C24.0867 35.3348 24.1027 35.5243 24.119 35.7138C23.5447 35.8179 22.9701 35.921 22.3955 36.0233C22.2002 36.0582 22.0051 36.0934 21.8099 36.1288C21.5284 36.1798 21.2468 36.2299 20.965 36.2799C20.8787 36.2957 20.7924 36.3116 20.7035 36.3279C19.8133 36.4838 19.1263 36.4792 18.2829 36.1306C18.1598 36.0818 18.1598 36.0818 18.0342 36.032C17.7652 35.925 17.497 35.8162 17.2288 35.7073C17.0402 35.632 16.8516 35.5568 16.663 35.4819C16.3709 35.3657 16.0788 35.2495 15.787 35.1328C14.8645 34.7639 13.9376 34.4072 13.0095 34.0527C12.5902 33.8922 12.1714 33.7303 11.7525 33.5686C11.2327 33.3681 10.712 33.1704 10.1893 32.9775C8.99093 32.5297 8.04544 32.0788 7.4522 30.876C7.41831 30.7986 7.38442 30.7212 7.3495 30.6415C7.31774 30.5705 7.28598 30.4995 7.25326 30.4264C6.05915 27.3558 7.63088 22.7316 8.88742 19.8713C10.9685 15.2683 10.9685 15.2683 13.2996 14.2808C16.6757 13.0876 21.0867 15.3976 23.8085 17.288Z" fill="black"/>
<path d="M34.0566 22.3594C34.8134 22.573 35.5439 22.8325 36.2762 23.1184C36.3896 23.1623 36.503 23.2061 36.6198 23.2514C36.9927 23.3958 37.3653 23.5407 37.7379 23.6857C38.0015 23.7879 38.265 23.89 38.5286 23.9921C38.9383 24.1508 39.3478 24.3095 39.7574 24.4684C41.0466 24.9687 42.3369 25.4664 43.6273 25.9639C45.674 26.7531 47.7199 27.5444 49.7651 28.3374C49.9289 28.4009 49.9289 28.4009 50.096 28.4657C50.4014 28.5841 50.7068 28.7025 51.0122 28.821C51.1017 28.8557 51.1912 28.8904 51.2835 28.9262C51.6839 29.0817 52.084 29.2377 52.4824 29.3984C52.7164 30.5045 52.3362 31.5578 51.7578 32.5039C51.5184 32.8339 51.5184 32.8339 51.2402 33.0215C50.5724 32.991 50.0165 32.7934 49.4 32.5468C49.3025 32.5087 49.205 32.4705 49.1045 32.4313C48.7831 32.3054 48.4622 32.1782 48.1412 32.051C47.9133 31.9615 47.6853 31.8721 47.4573 31.7829C46.9842 31.5975 46.5114 31.4118 46.0386 31.2257C45.0813 30.8492 44.1221 30.4776 43.1628 30.1062C42.854 29.9866 42.5454 29.8669 42.2367 29.7472C41.0554 29.289 39.8736 28.8321 38.6914 28.3762C38.5571 28.3244 38.4229 28.2727 38.2886 28.2209C37.6403 27.9709 36.9921 27.721 36.3437 27.4713C35.7812 27.2547 35.2191 27.037 34.6572 26.8189C34.3906 26.7161 34.1236 26.615 33.8562 26.5144C33.713 26.4596 33.5698 26.4048 33.4267 26.35C33.3084 26.3055 33.1901 26.2609 33.0682 26.2151C32.8145 26.0859 32.8145 26.0859 32.7109 25.7754C32.7965 25.5085 32.8892 25.2565 32.9952 24.9978C33.0402 24.8847 33.0402 24.8847 33.0862 24.7694C33.1823 24.5285 33.2798 24.2883 33.3773 24.048C33.4427 23.8849 33.508 23.7217 33.5732 23.5585C33.7333 23.1584 33.8947 22.7588 34.0566 22.3594Z" fill="black"/>
<path d="M25.7236 3.77089C26.755 4.73828 27.4885 6.22844 27.5481 7.6592C27.5438 7.72752 27.5396 7.79584 27.5352 7.86623C27.6516 7.86082 27.6516 7.86082 27.7705 7.85531C28.5221 7.83543 29.3871 7.82086 29.9957 8.33003C30.123 8.48732 30.123 8.48732 30.136 8.69435C29.9454 9.03315 29.6508 9.08738 29.2949 9.21193C28.9503 9.29329 28.6326 9.32829 28.2789 9.32789C28.1815 9.32804 28.0841 9.32818 27.9838 9.32833C27.8782 9.32795 27.7726 9.32758 27.6638 9.3272C27.4956 9.32722 27.4956 9.32722 27.324 9.32724C26.9538 9.32717 26.5835 9.32637 26.2133 9.32555C25.9564 9.32536 25.6996 9.32521 25.4427 9.32511C24.7669 9.32472 24.0911 9.3237 23.4154 9.32255C22.7257 9.32144 22.036 9.32102 21.3463 9.3205C19.9932 9.31939 18.6402 9.31764 17.2871 9.31545C17.3001 9.03867 17.314 8.762 17.3284 8.4853C17.3319 8.40803 17.3354 8.33077 17.339 8.25116C17.4291 6.57443 18.0306 4.89496 19.2802 3.73854C21.1586 2.285 23.8685 2.26395 25.7236 3.77089Z" fill="black"/>
<path d="M18.3222 19.9785C18.8488 20.3701 19.233 20.8333 19.6412 21.3452C19.9074 21.675 20.1875 21.9893 20.4738 22.3016C20.5995 22.4629 20.5995 22.4629 20.5995 22.6699C20.7161 22.645 20.8326 22.62 20.9526 22.5943C21.0304 22.5776 21.1082 22.5609 21.1884 22.5437C21.3648 22.5059 21.5411 22.4681 21.7175 22.4303C22.2087 22.325 22.6999 22.2199 23.1911 22.1152C24.0742 21.9267 24.9569 21.7375 25.8376 21.5381C25.9667 21.5093 26.0959 21.4804 26.2289 21.4506C26.4616 21.3984 26.6941 21.3452 26.9262 21.2908C27.7324 21.1114 28.7316 20.8907 29.5019 21.2854C29.9769 21.6614 30.2256 22.0065 30.3235 22.6052C30.3566 23.0965 30.2718 23.4881 30.0195 23.9121C29.1932 24.819 27.7234 24.8902 26.5739 25.1329C26.4013 25.1695 26.2286 25.2062 26.0559 25.2429C25.6957 25.3194 25.3354 25.3954 24.9751 25.4713C24.5152 25.5681 24.0557 25.6663 23.5962 25.7647C23.2403 25.8408 22.8842 25.916 22.5281 25.9909C22.3586 26.0267 22.1892 26.0628 22.0199 26.0992C19.9893 26.5352 19.9893 26.5352 19.2474 26.293C18.5163 25.7952 17.9713 25.1037 17.4241 24.4172C17.2583 24.2117 17.0878 24.01 16.9138 23.8114C16.8278 23.7123 16.7417 23.6131 16.653 23.511C16.5341 23.3769 16.5341 23.3769 16.4128 23.2401C16.2519 22.9805 16.2519 22.9805 16.2592 22.7221C16.6603 21.6416 17.5161 20.7744 18.3222 19.9785Z" fill="black"/>
<path d="M9.10938 33.125C9.7386 33.1907 10.2949 33.4288 10.8788 33.6579C10.9891 33.7007 11.0993 33.7435 11.2129 33.7876C11.4455 33.8779 11.6779 33.9686 11.9103 34.0596C12.2651 34.1984 12.6202 34.3362 12.9754 34.4739C13.2018 34.562 13.4281 34.6502 13.6544 34.7384C13.8131 34.8 13.8131 34.8 13.975 34.8629C14.1693 34.9391 14.363 35.0168 14.556 35.0963C14.7549 35.1761 14.9585 35.2445 15.1629 35.3092C15.5996 35.6384 15.6538 36.1105 15.7789 36.6255C15.8078 36.7378 15.8368 36.8502 15.8667 36.9659C15.9276 37.2044 15.9872 37.4433 16.0456 37.6825C16.1341 38.0426 16.2274 38.4012 16.3215 38.7599C16.6049 39.8722 16.8525 40.9259 16.7746 42.0797C16.745 42.5472 16.8116 42.7843 17.0801 43.166C17.1687 43.7145 17.1489 44.1719 16.8925 44.667C16.8177 44.7524 16.743 44.8378 16.666 44.9258C16.6105 44.9898 16.555 45.0539 16.4978 45.1199C16.3555 45.2363 16.3555 45.2363 16.1484 45.2363C16.0801 45.0655 16.0118 44.8947 15.9414 44.7188C16.0076 44.6483 16.0738 44.5778 16.142 44.5052C16.399 44.1392 16.459 43.923 16.459 43.4766C16.2282 43.0358 16.2282 43.0358 15.8379 42.752C15.3074 42.7259 14.983 42.7545 14.4922 42.959C14.1142 42.917 13.9695 42.7698 13.7352 42.4802C13.4973 42.1951 13.2571 41.9243 12.9912 41.665C12.7393 41.4176 12.5033 41.1629 12.2731 40.8951C11.9597 40.5311 11.6277 40.193 11.2824 39.8592C11.2143 39.789 11.1463 39.7188 11.0762 39.6465C10.9531 39.5264 10.9531 39.5264 10.8275 39.4038C10.43 38.9213 10.3342 38.322 10.191 37.7266C10.1596 37.6016 10.1282 37.4766 10.0958 37.3478C10.013 37.0174 9.9318 36.6866 9.85125 36.3556C9.78497 36.0847 9.71724 35.8143 9.64942 35.5438C9.5095 34.9857 9.37071 34.4273 9.2342 33.8683C9.21001 33.7695 9.18583 33.6707 9.16091 33.5689C9.10938 33.332 9.10938 33.332 9.10938 33.125Z" fill="black"/>
<path d="M17.5976 9.7312C18.0633 9.70398 18.5288 9.68754 18.995 9.67297C19.192 9.66126 19.192 9.66126 19.3929 9.64932C20.3513 9.62685 20.3513 9.62685 20.7569 9.9193C20.97 10.1564 21.1487 10.3969 21.3241 10.6628C21.4116 10.7775 21.4997 10.8918 21.5886 11.0053C21.6678 11.1122 21.7471 11.2191 21.8288 11.3292C22.5659 12.298 23.4533 13.1306 24.3261 13.9753C24.3944 13.9412 24.4627 13.907 24.5331 13.8718C24.0207 13.3594 23.5083 12.847 22.9804 12.3191C23.0487 12.1824 23.117 12.0458 23.1874 11.905C24.3147 11.905 25.442 11.905 26.6034 11.905C26.6034 11.8025 26.6034 11.7001 26.6034 11.5945C25.5103 11.5945 24.4172 11.5945 23.2909 11.5945C23.1543 10.9796 23.0176 10.3647 22.8769 9.7312C24.3457 9.7312 25.8146 9.7312 27.328 9.7312C27.328 10.8699 27.328 10.8699 27.2245 11.3874C27.4295 11.4387 27.4295 11.4387 27.6386 11.491C27.6185 11.8337 27.5949 12.1755 27.5658 12.5176C27.5422 12.7998 27.5356 13.0682 27.5367 13.353C27.5015 14.325 27.5015 14.325 27.173 14.643C26.7134 14.9714 26.1136 15.3376 25.5363 15.3093C25.3257 15.1989 25.2266 15.076 25.083 14.8876C24.931 14.7124 24.931 14.7124 24.7401 14.5964C24.4066 14.5988 24.1226 14.6991 23.8085 14.8035C22.5418 15.1164 21.1363 14.9737 20.0011 14.3296C18.7954 13.5233 18.1148 12.6195 17.6699 11.2463C17.5724 10.7389 17.5835 10.2462 17.5976 9.7312ZM26.914 12.0085C26.8056 12.1794 26.7006 12.3524 26.5969 12.5261C26.2457 13.0885 25.8478 13.529 25.3612 13.9753C25.2929 14.0437 25.2246 14.112 25.1542 14.1824C25.3592 14.3532 25.5641 14.524 25.7753 14.6999C25.9272 14.6265 26.078 14.5505 26.2282 14.4735C26.3543 14.4105 26.3543 14.4105 26.4829 14.3461C26.7695 14.1367 26.8236 14.0074 26.914 13.6648C26.9502 13.3783 26.9663 13.0927 26.9787 12.8043C26.9827 12.7277 26.9867 12.651 26.9908 12.572C27.0005 12.3842 27.0091 12.1964 27.0175 12.0085C26.9833 12.0085 26.9492 12.0085 26.914 12.0085Z" fill="black"/>
<path d="M4.34787 43.0631C4.47219 43.3053 4.57655 43.5383 4.67621 43.7906C4.70588 43.8635 4.73556 43.9363 4.76613 44.0114C4.82862 44.1657 4.89054 44.3201 4.95193 44.4748C5.0463 44.7122 5.14274 44.9486 5.23948 45.185C5.29985 45.3348 5.3601 45.4846 5.42023 45.6344C5.44922 45.7055 5.47822 45.7766 5.50809 45.8498C5.57612 46.0228 5.63567 46.199 5.69357 46.3756C5.53565 46.6915 5.29197 46.7226 4.96856 46.852C4.77991 46.928 4.77991 46.928 4.58745 47.0056C4.45368 47.0587 4.31991 47.1118 4.18612 47.1649C4.05192 47.2188 3.91774 47.2727 3.78359 47.3267C3.45435 47.4589 3.12486 47.5904 2.79513 47.7213C2.76481 48.3876 2.76481 48.3876 2.98922 49.0023C3.02525 49.0693 3.06128 49.1363 3.0984 49.2053C3.21146 49.3945 3.21146 49.3945 3.41623 49.5846C4.10345 49.5634 4.69971 49.2744 5.3248 49.0088C5.43015 48.9648 5.5355 48.9209 5.64404 48.8756C5.90241 48.7676 6.16043 48.6589 6.41818 48.5495C6.57345 48.6853 6.57345 48.6853 6.72873 48.86C6.72873 48.9625 6.72873 49.065 6.72873 49.1706C6.34464 49.3344 5.95987 49.4965 5.57441 49.657C5.44361 49.7118 5.313 49.767 5.18259 49.8227C4.99423 49.9031 4.8051 49.9816 4.61596 50.0601C4.50266 50.1078 4.38936 50.1556 4.27263 50.2047C3.89667 50.3207 3.60053 50.3399 3.2092 50.3092C2.87777 50.1104 2.72128 49.999 2.61398 49.6234C2.5125 49.3613 2.5125 49.3613 2.28726 49.3133C2.12218 49.2822 1.95692 49.252 1.79152 49.2227C1.10153 49.0719 0.605962 48.4802 0.207243 47.9284C-0.14972 47.2287 -0.126774 46.2923 0.0907875 45.5483C0.581505 44.4862 1.43298 44.0689 2.47412 43.6185C2.66752 43.5347 2.85971 43.4484 3.0519 43.3618C3.99695 42.9462 3.99695 42.9462 4.34787 43.0631Z" fill="black"/>
<path d="M28.2145 43.9883C28.3394 43.9915 28.3394 43.9915 28.4668 43.9948C28.554 44.4475 28.6399 44.9004 28.7256 45.3534C28.7626 45.5455 28.7626 45.5455 28.8004 45.7416C28.8237 45.8657 28.8471 45.9898 28.8712 46.1176C28.8928 46.2315 28.9145 46.3453 28.9369 46.4626C29.0111 46.9737 29.0571 47.2912 28.7838 47.7407C28.3552 48.1968 27.8161 48.329 27.2048 48.3582C27.0896 48.3615 26.9745 48.3648 26.8558 48.3683C26.2348 48.4015 25.9833 48.5561 25.557 48.9922C25.1251 49.3858 24.5925 49.4627 24.0286 49.5264C23.3038 49.4916 22.5899 49.2303 22.0553 48.7371C21.4302 48.0115 21.2532 47.1963 21.1431 46.2656C21.1301 46.1661 21.1172 46.0667 21.1038 45.9642C21.0725 45.7219 21.0425 45.4795 21.0137 45.2369C21.5771 45.133 22.1407 45.0299 22.7044 44.9274C22.896 44.8924 23.0876 44.8573 23.2791 44.8219C23.555 44.771 23.831 44.7209 24.107 44.6708C24.1921 44.655 24.2772 44.6391 24.3649 44.6228C24.8069 44.5434 25.2205 44.4946 25.6719 44.5123C25.7586 44.9716 25.8447 45.431 25.9307 45.8904C25.9553 46.0211 25.98 46.1518 26.0055 46.2864C26.0288 46.4115 26.0522 46.5366 26.0762 46.6655C26.1088 46.8387 26.1088 46.8387 26.1419 47.0154C26.1895 47.3073 26.1895 47.3073 26.1895 47.6178C27.267 47.667 27.267 47.667 28.2598 47.3073C28.2097 46.4422 28.0897 45.5967 27.9418 44.7439C27.9057 44.5293 27.8752 44.3138 27.8457 44.0983C27.9492 43.9948 27.9492 43.9948 28.2145 43.9883Z" fill="black"/>
<path d="M14.4208 16.2188C14.5165 16.2149 14.6122 16.211 14.7108 16.207C15.3573 16.3024 15.7611 16.7742 16.1806 17.241C16.2292 17.2949 16.2778 17.3488 16.3278 17.4044C16.8036 17.9367 17.2558 18.488 17.701 19.046C17.8165 19.1807 17.8165 19.1807 17.9343 19.3182C18.1151 19.5636 18.1151 19.5636 18.1151 19.8742C18.0169 19.9531 17.9186 20.0321 17.8175 20.1135C17.0676 20.7195 16.5257 21.6361 16.0448 22.462C15.7391 22.3263 15.545 22.1894 15.3286 21.9352C15.274 21.8716 15.2194 21.808 15.1631 21.7425C15.106 21.6747 15.049 21.6068 14.9902 21.5369C14.9308 21.4672 14.8714 21.3975 14.8102 21.3258C14.6342 21.1187 14.4594 20.9107 14.285 20.7023C14.2377 20.6458 14.1904 20.5894 14.1416 20.5312C12.5872 18.6697 12.5872 18.6697 12.5996 17.8237C12.6684 17.2874 12.9221 16.8835 13.3081 16.5164C13.6826 16.2763 13.9841 16.2302 14.4208 16.2188Z" fill="black"/>
<path d="M24.9473 40.1641C25.0169 40.5521 25.0857 40.9404 25.1543 41.3286C25.1741 41.4387 25.1938 41.5488 25.2142 41.6622C25.2329 41.7683 25.2515 41.8744 25.2708 41.9837C25.2968 42.13 25.2968 42.13 25.3234 42.2794C25.3614 42.5449 25.3614 42.5449 25.3614 42.959C24.796 43.0628 24.2305 43.1659 23.665 43.2686C23.4727 43.3036 23.2804 43.3387 23.0881 43.374C22.8115 43.4248 22.5347 43.475 22.2579 43.5251C22.1723 43.5409 22.0866 43.5568 21.9984 43.5731C21.596 43.6454 21.2175 43.7039 20.8067 43.6836C20.7541 43.3732 20.7025 43.0626 20.6514 42.752C20.6366 42.6651 20.6218 42.5782 20.6065 42.4887C20.5855 42.3596 20.5855 42.3596 20.5641 42.2279C20.551 42.1498 20.538 42.0718 20.5246 41.9914C20.4863 41.6221 20.492 41.2599 20.4961 40.8887C21.0634 40.785 21.6308 40.6818 22.1982 40.5791C22.3912 40.5441 22.5842 40.5089 22.7772 40.4736C23.0546 40.4229 23.3321 40.3727 23.6097 40.3226C23.6959 40.3067 23.782 40.2909 23.8708 40.2745C23.9516 40.26 24.0324 40.2455 24.1156 40.2306C24.1864 40.2177 24.2572 40.2048 24.3302 40.1916C24.5332 40.1641 24.5332 40.1641 24.9473 40.1641Z" fill="black"/>
<path d="M52.197 21.8127C52.5852 22.0947 52.8468 22.4167 53.0001 22.8765C53.0708 23.6145 53.1036 24.2748 52.6418 24.8862C52.1653 25.3772 51.6579 25.5378 50.9799 25.5768C50.4489 25.5585 50.077 25.4274 49.686 25.0629C49.1389 24.4592 49.016 24.0162 49.0249 23.2024C49.1025 22.5951 49.4008 22.171 49.8768 21.7957C50.6183 21.3632 51.4593 21.393 52.197 21.8127Z" fill="black"/>
<path d="M8.28125 41.1992C8.75949 42.3607 9.23773 43.5221 9.73047 44.7188C9.44265 45.0066 9.30921 45.0969 8.94763 45.2408C8.85663 45.2771 8.76562 45.3135 8.67186 45.351C8.57712 45.3879 8.48238 45.4248 8.38477 45.4628C8.29002 45.5009 8.19528 45.539 8.09767 45.5782C7.3911 45.8574 7.3911 45.8574 7.03906 45.8574C6.84672 45.3916 6.65509 44.9256 6.46412 44.4592C6.39904 44.3006 6.33377 44.1421 6.26831 43.9836C6.17427 43.7559 6.08093 43.5279 5.98773 43.2999C5.9583 43.229 5.92886 43.1581 5.89853 43.0851C5.77634 42.7845 5.69336 42.5623 5.69336 42.2344C6.06601 42.0609 6.43925 41.8887 6.81262 41.7168C6.97165 41.6427 6.97165 41.6427 7.13388 41.5672C7.23563 41.5205 7.33738 41.4738 7.44221 41.4257C7.53599 41.3823 7.62977 41.3389 7.7264 41.2942C7.9707 41.1992 7.9707 41.1992 8.28125 41.1992Z" fill="black"/>
<path d="M10.1445 39.4395C10.5735 39.4792 10.7711 39.602 11.0632 39.9117C11.1345 39.9866 11.2057 40.0615 11.2792 40.1386C11.5341 40.4194 11.7833 40.7046 12.0305 40.9922C12.2876 41.2809 12.5634 41.5488 12.8388 41.8199C13.1023 42.0876 13.3453 42.3705 13.5901 42.6553C13.8193 42.9137 14.0643 43.1534 14.3106 43.3953C14.5667 43.6559 14.8026 43.9322 15.0397 44.2101C15.2085 44.3989 15.386 44.5673 15.5726 44.7382C15.8379 45.0293 15.8379 45.0293 15.8896 45.314C15.8379 45.5469 15.8379 45.5469 15.6309 45.7539C15.2218 45.7248 15.0268 45.6133 14.755 45.3136C14.69 45.243 14.6249 45.1725 14.5579 45.0998C14.4892 45.0232 14.4206 44.9465 14.3499 44.8676C14.2015 44.7058 14.0531 44.5441 13.9047 44.3823C13.8298 44.3 13.755 44.2177 13.678 44.1328C13.3472 43.7703 13.0106 43.4133 12.6742 43.056C12.5472 42.9205 12.4202 42.7849 12.2933 42.6492C12.0216 42.3592 11.7492 42.0698 11.4765 41.7807C11.4062 41.7061 11.336 41.6315 11.2636 41.5547C11.1296 41.4124 10.9954 41.2702 10.861 41.1282C10.1807 40.4053 10.1807 40.4053 9.9375 40.0605C9.9678 39.6162 9.9678 39.6162 10.1445 39.4395Z" fill="black"/>
<path d="M4.45125 41.5098C4.70023 41.527 4.70023 41.527 4.96882 41.6133C5.11527 41.8074 5.11527 41.8074 5.22918 42.0618C5.27196 42.1559 5.31474 42.2499 5.35882 42.3469C5.40092 42.4464 5.44302 42.5459 5.4864 42.6484C5.52682 42.7435 5.56724 42.8386 5.60888 42.9365C5.73539 43.2419 5.85765 43.5487 5.97891 43.8563C6.02339 43.968 6.06788 44.0797 6.11371 44.1947C6.2544 44.5482 6.39447 44.902 6.5345 45.2557C6.67539 45.6106 6.81641 45.9653 6.9575 46.3201C7.04487 46.5398 7.13209 46.7597 7.21915 46.9795C7.38702 47.4027 7.55516 47.8247 7.73903 48.2412C7.86718 48.5486 7.91416 48.7381 7.86726 49.0664C7.79894 49.1347 7.73062 49.203 7.66023 49.2734C7.40665 49.2707 7.40665 49.2707 7.14265 49.1699C6.985 48.9244 6.985 48.9244 6.85232 48.5925C6.80117 48.4676 6.75001 48.3427 6.6973 48.214C6.64297 48.0755 6.5887 47.9369 6.5345 47.7983C6.4773 47.6561 6.41993 47.5139 6.36239 47.3718C6.23887 47.066 6.11651 46.7598 5.99468 46.4533C5.78881 45.9377 5.57469 45.4257 5.36024 44.9137C5.25203 44.6535 5.14403 44.3933 5.03614 44.133C4.96554 43.9632 4.89457 43.7935 4.82321 43.624C4.72299 43.3853 4.62452 43.146 4.52646 42.9064C4.48111 42.8 4.48111 42.8 4.43486 42.6915C4.27401 42.293 4.20357 42.0252 4.34773 41.6133C4.38189 41.5791 4.41605 41.545 4.45125 41.5098Z" fill="black"/>
<path d="M8.48817 39.8535C8.73751 39.8717 8.73751 39.8717 9.00575 39.957C9.14904 40.1429 9.14904 40.1429 9.26049 40.3909C9.3033 40.485 9.3461 40.5791 9.39019 40.676C9.63593 41.2596 9.87434 41.8455 10.1056 42.4349C10.214 42.7097 10.3227 42.9844 10.4315 43.259C10.4589 43.3284 10.4864 43.3977 10.5146 43.4692C10.705 43.9494 10.9007 44.4272 11.0995 44.9039C11.1527 45.032 11.2058 45.1601 11.259 45.2881C11.3594 45.5293 11.4605 45.7702 11.5624 46.0109C11.6074 46.1194 11.6524 46.228 11.6988 46.3398C11.7386 46.4344 11.7784 46.5291 11.8194 46.6265C11.9092 46.9083 11.9361 47.1165 11.9042 47.4102C11.8359 47.4785 11.7675 47.5468 11.6972 47.6172C11.4403 47.6062 11.4403 47.6062 11.1796 47.5137C11.0442 47.3239 11.0442 47.3239 10.9418 47.0677C10.9011 46.9688 10.8604 46.87 10.8184 46.7681C10.7753 46.6576 10.7323 46.5471 10.6879 46.4332C10.6413 46.3181 10.5948 46.203 10.5469 46.0844C10.4398 45.8193 10.3337 45.554 10.2281 45.2884C10.0544 44.8533 9.87486 44.4207 9.6945 43.9883C9.53058 43.5951 9.36789 43.2014 9.20539 42.8075C9.12413 42.6111 9.04249 42.4147 8.96047 42.2186C8.84431 41.9401 8.72993 41.661 8.61595 41.3816C8.56283 41.2557 8.56283 41.2557 8.50863 41.1273C8.21601 40.4014 8.21601 40.4014 8.38466 39.957C8.41882 39.9229 8.45298 39.8887 8.48817 39.8535Z" fill="black"/>
<path d="M28.6738 42.8561C28.7251 43.1123 28.7251 43.1123 28.7773 43.3736C28.3745 43.6474 28.0317 43.7516 27.5536 43.8351C27.4502 43.8536 27.4502 43.8536 27.3447 43.8725C27.1183 43.9127 26.8917 43.9513 26.665 43.9899C26.5068 44.0175 26.3486 44.0451 26.1905 44.0728C25.8596 44.1306 25.5286 44.1876 25.1975 44.244C24.7737 44.3163 24.3502 44.3904 23.9267 44.4651C23.6004 44.5224 23.2739 44.5789 22.9474 44.635C22.7912 44.662 22.635 44.6892 22.4789 44.7168C22.2605 44.7551 22.042 44.7922 21.8234 44.829C21.6992 44.8504 21.575 44.8718 21.4471 44.8938C21.1322 44.9249 20.9032 44.9047 20.5996 44.8229C20.5996 44.6179 20.5996 44.4129 20.5996 44.2018C20.9582 43.994 21.3017 43.9272 21.7081 43.8556C21.777 43.8433 21.8459 43.8309 21.9169 43.8183C22.1439 43.7779 22.3711 43.7385 22.5984 43.6992C22.7567 43.6714 22.915 43.6436 23.0733 43.6157C23.4048 43.5576 23.7364 43.5 24.0681 43.4427C24.4927 43.3693 24.9171 43.2945 25.3414 43.2192C25.6681 43.1614 25.9951 43.1046 26.322 43.0479C26.4785 43.0207 26.635 42.9932 26.7914 42.9653C27.0103 42.9265 27.2293 42.8889 27.4484 42.8515C27.5729 42.8299 27.6974 42.8082 27.8256 42.7859C28.1412 42.7541 28.3697 42.7739 28.6738 42.8561Z" fill="black"/>
<path d="M27.8457 38.5075C27.9492 38.6111 27.9492 38.6111 27.9686 38.8634C27.9492 39.1286 27.9492 39.1286 27.7422 39.3357C27.5248 39.3902 27.3047 39.4342 27.084 39.4732C27.0165 39.4853 26.949 39.4975 26.8794 39.51C26.6556 39.55 26.4317 39.5888 26.2076 39.6276C26.0519 39.6551 25.8961 39.6827 25.7403 39.7103C25.4133 39.768 25.0862 39.8252 24.759 39.882C24.3409 39.9546 23.923 40.0284 23.5053 40.1027C23.1832 40.1598 22.8611 40.2163 22.5389 40.2727C22.3849 40.2996 22.231 40.3268 22.077 40.3541C21.8609 40.3924 21.6446 40.4299 21.4283 40.4671C21.3055 40.4886 21.1826 40.51 21.0561 40.5321C20.6899 40.5796 20.3473 40.6001 19.9785 40.5779C19.9102 40.5095 19.8419 40.4412 19.7715 40.3708C19.8103 40.0991 19.8103 40.0991 19.875 39.8532C20.7848 39.6347 21.6959 39.4477 22.6174 39.2859C22.7447 39.2634 22.872 39.2409 23.0032 39.2176C23.2699 39.1706 23.5366 39.1237 23.8033 39.077C24.0754 39.0293 24.3475 38.9813 24.6194 38.9327C25.0152 38.8622 25.411 38.7925 25.8069 38.7231C25.9886 38.6906 25.9886 38.6906 26.1739 38.6574C26.7368 38.5598 27.2739 38.4678 27.8457 38.5075Z" fill="black"/>
<path d="M27.3281 35.6097C27.4316 35.7132 27.4316 35.7132 27.4381 35.9784C27.436 36.0617 27.4338 36.145 27.4316 36.2308C27.0479 36.3983 26.6849 36.4929 26.2731 36.5658C26.0823 36.6 26.0823 36.6 25.8877 36.6349C25.7496 36.659 25.6115 36.6831 25.4733 36.7071C25.3303 36.7323 25.1873 36.7575 25.0444 36.7828C24.7448 36.8356 24.4452 36.8879 24.1456 36.9399C23.7641 37.0062 23.3829 37.0738 23.0017 37.1418C22.7063 37.1943 22.4108 37.2459 22.1152 37.2974C21.9748 37.3219 21.8343 37.3468 21.694 37.3719C20.9082 37.5122 20.1565 37.6156 19.3574 37.5765C19.3233 37.4057 19.2891 37.2349 19.2539 37.0589C19.6573 36.7847 20.0005 36.6808 20.4793 36.5974C20.5484 36.5851 20.6175 36.5728 20.6887 36.5601C20.9156 36.5199 21.1427 36.4812 21.3699 36.4426C21.5283 36.4151 21.6867 36.3874 21.8451 36.3597C22.1764 36.3019 22.5079 36.2449 22.8394 36.1885C23.2642 36.1161 23.6887 36.0421 24.113 35.9674C24.4398 35.9102 24.7667 35.8537 25.0937 35.7975C25.2503 35.7705 25.4068 35.7432 25.5633 35.7158C25.782 35.6775 26.0007 35.6404 26.2196 35.6035C26.344 35.5821 26.4684 35.5608 26.5966 35.5388C26.8842 35.5092 27.0607 35.5086 27.3281 35.6097Z" fill="black"/>
<path d="M24.4297 37.1621C24.498 37.6404 24.5663 38.1186 24.6367 38.6113C23.7828 38.8222 22.9276 38.9947 22.0618 39.1483C21.9597 39.1668 21.8576 39.1853 21.7524 39.2044C21.2218 39.2968 20.7241 39.3577 20.1855 39.3359C20.1172 38.8919 20.0489 38.4478 19.9785 37.9902C20.5035 37.8307 21.0219 37.7172 21.5628 37.6271C21.6419 37.6136 21.7211 37.6001 21.8026 37.5862C22.0528 37.5437 22.3032 37.5017 22.5535 37.4597C22.7238 37.4308 22.8942 37.4018 23.0646 37.3728C24.3064 37.1621 24.3064 37.1621 24.4297 37.1621Z" fill="black"/>
<path d="M30.5371 22.1523C30.9147 22.2159 31.2339 22.3259 31.5852 22.4758C32.1957 22.7067 32.6973 22.6794 33.332 22.5664C33.2683 23.1753 33.0394 23.701 32.808 24.2615C32.769 24.3574 32.7299 24.4534 32.6897 24.5522C32.5938 24.7876 32.4974 25.0228 32.4004 25.2578C32.2979 25.2237 32.1954 25.1895 32.0898 25.1543C32.0429 25.0604 31.9959 24.9664 31.9475 24.8696C31.6191 24.3258 30.8996 24.2016 30.3301 24.0156C30.3809 23.8823 30.3809 23.8823 30.4328 23.7463C30.5393 23.387 30.5583 23.1076 30.55 22.7346C30.5482 22.6249 30.5463 22.5152 30.5444 22.4022C30.542 22.3198 30.5396 22.2373 30.5371 22.1523Z" fill="black"/>
<path d="M9.62695 40.4746C10.0734 40.5228 10.2528 40.7753 10.5392 41.1022C10.6385 41.2143 10.738 41.3263 10.8376 41.4382C10.8915 41.499 10.9455 41.5599 11.0011 41.6225C11.1972 41.8397 11.3976 42.052 11.5994 42.2639C11.7057 42.3757 11.7057 42.3757 11.8142 42.4897C11.9552 42.6375 12.0964 42.7851 12.238 42.9323C12.3344 43.034 12.3344 43.034 12.4328 43.1377C12.4906 43.1981 12.5484 43.2585 12.608 43.3207C12.7324 43.4766 12.7324 43.4766 12.7324 43.6836C12.5149 43.7705 12.297 43.8566 12.079 43.9424C11.9577 43.9904 11.8364 44.0385 11.7114 44.088C11.3867 44.2012 11.3867 44.2012 11.0762 44.2012C10.8693 43.7039 10.6629 43.2065 10.457 42.7088C10.3868 42.5395 10.3165 42.3702 10.2461 42.201C10.1451 41.958 10.0445 41.7149 9.94397 41.4718C9.91227 41.3958 9.88057 41.3199 9.84791 41.2417C9.62695 40.7052 9.62695 40.7052 9.62695 40.4746Z" fill="black"/>
<path d="M20.9102 9.73047C21.4567 9.73047 22.0033 9.73047 22.5664 9.73047C22.6586 10.0341 22.7489 10.3381 22.8381 10.6427C22.8646 10.729 22.891 10.8152 22.9182 10.9041C22.9422 10.9872 22.9662 11.0702 22.991 11.1558C23.0137 11.2323 23.0365 11.3087 23.06 11.3875C23.084 11.5938 23.084 11.5938 22.877 11.9043C22.5087 11.8463 22.3658 11.7314 22.1354 11.4429C22.0769 11.3704 22.0185 11.2979 21.9583 11.2232C21.8985 11.1469 21.8387 11.0706 21.7771 10.9921C21.7165 10.917 21.6559 10.8419 21.5935 10.7646C21.3211 10.4232 21.1073 10.1247 20.9102 9.73047Z" fill="black"/>
<path d="M10.4551 46.8926C10.5576 46.9951 10.66 47.0975 10.7656 47.2031C10.7656 47.3056 10.7656 47.4081 10.7656 47.5137C10.3955 47.673 10.0243 47.8297 9.65283 47.986C9.54768 48.0313 9.44253 48.0766 9.3342 48.1232C9.23278 48.1656 9.13137 48.208 9.02689 48.2516C8.88703 48.311 8.88703 48.311 8.74434 48.3715C8.46955 48.4507 8.33891 48.4393 8.07422 48.3418C8.04006 48.2052 8.0059 48.0685 7.9707 47.9277C8.79055 47.5861 9.61039 47.2445 10.4551 46.8926Z" fill="black"/>
<path d="M14.5194 45.4133C14.6992 45.5477 14.6992 45.5477 14.8027 45.8582C14.3935 46.0342 13.9836 46.2084 13.5735 46.3823C13.3983 46.4577 13.3983 46.4577 13.2197 46.5345C13.1083 46.5816 12.9968 46.6286 12.882 46.6771C12.779 46.721 12.676 46.7649 12.5699 46.8101C12.3184 46.8934 12.3184 46.8934 12.1113 46.7899C12.0466 46.5246 12.0466 46.5246 12.0078 46.2723C12.3777 46.1101 12.7489 45.9515 13.1206 45.7935C13.2258 45.7474 13.3309 45.7012 13.4392 45.6536C13.5914 45.5896 13.5914 45.5896 13.7466 45.5242C13.8398 45.4841 13.933 45.444 14.0291 45.4027C14.2852 45.3407 14.2852 45.3407 14.5194 45.4133Z" fill="black"/>
<path d="M27.742 39.7495C27.8035 39.9748 27.8035 39.9748 27.8528 40.2695C27.8798 40.428 27.8798 40.428 27.9074 40.5897C27.9344 40.7566 27.9344 40.7566 27.962 40.9269C27.9808 41.0374 27.9996 41.1479 28.019 41.2617C28.1561 42.0801 28.1561 42.0801 28.1561 42.4409C27.9511 42.475 27.7462 42.5092 27.535 42.5444C27.4652 42.1757 27.3965 41.8069 27.328 41.438C27.3082 41.3338 27.2885 41.2295 27.2681 41.122C27.2494 41.021 27.2308 40.9199 27.2115 40.8157C27.1942 40.723 27.1768 40.6303 27.1589 40.5348C27.1212 40.2691 27.1142 40.0175 27.1209 39.7495C27.5091 39.633 27.5091 39.633 27.742 39.7495Z" fill="black"/>
<path d="M26.707 36.748C26.8778 36.7822 27.0486 36.8164 27.2246 36.8516C27.2929 37.2956 27.3612 37.7397 27.4316 38.1973C27.2267 38.1973 27.0217 38.1973 26.8105 38.1973C26.5538 37.2232 26.5538 37.2232 26.707 36.748Z" fill="black"/>
</g>
<defs>
<clipPath id="clip0_1656_758">
<rect width="53" height="53" fill="white"/>
</clipPath>
</defs>
</svg>
