<svg width="80" height="53" viewBox="0 0 80 53" fill="none" xmlns="http://www.w3.org/2000/svg">
<path d="M8.81317 4C8.81317 13.8208 8.81317 23.6416 8.81317 33.76C8.33797 33.76 7.86277 33.76 7.37317 33.76C7.37317 24.256 7.37317 14.752 7.37317 4.96C6.58117 5.2768 5.78917 5.5936 4.97317 5.92C4.97317 15.7408 4.97317 25.5616 4.97317 35.68C4.65637 35.68 4.33957 35.68 4.01317 35.68C4.01317 26.176 4.01317 16.672 4.01317 6.88C3.06277 7.1968 2.11237 7.5136 1.13317 7.84C1.13317 18.4528 1.13317 29.0656 1.13317 40C0.816367 40 0.499567 40 0.173167 40C0.13982 35.8317 0.114224 31.6635 0.0985565 27.4952C0.0910376 25.5597 0.0808369 23.6243 0.0645337 21.6889C0.048902 19.8215 0.0402799 17.9542 0.0365433 16.0868C0.03388 15.3739 0.0286793 14.661 0.0209152 13.9482C0.0104808 12.9505 0.0090216 11.9533 0.00968994 10.9557C0.00649226 10.3875 0.00329458 9.81942 0 9.23408C0.173167 7.84 0.173167 7.84 0.830259 6.9384C1.61317 6.4 1.61317 6.4 2.78317 6.19C4.09059 6.02443 4.09059 6.02443 4.94317 4.93C5.93317 4 5.93317 4 8.81317 4Z" fill="black"/>
<path d="M4.49317 5.91992C4.49317 15.7407 4.49317 25.5615 4.49317 35.6799C4.33477 35.6799 4.17637 35.6799 4.01317 35.6799C4.01317 26.1759 4.01317 16.6719 4.01317 6.87992C3.06277 7.19672 2.11237 7.51352 1.13317 7.83992C1.13317 18.4527 1.13317 29.0655 1.13317 39.9999C0.816366 39.9999 0.499566 39.9999 0.173166 39.9999C0.13982 35.8317 0.114224 31.6635 0.098557 27.4951C0.091038 25.5596 0.0808369 23.6242 0.0645337 21.6888C0.048902 19.8214 0.0402799 17.9541 0.0365433 16.0867C0.03388 15.3738 0.0286792 14.6609 0.0209152 13.9481C0.0104808 12.9505 0.00902159 11.9532 0.00968994 10.9556C0.00649226 10.3875 0.00329458 9.81934 0 9.23401C0.173166 7.83992 0.173166 7.83992 0.824634 6.94582C1.94317 6.17146 3.13313 5.91992 4.49317 5.91992Z" fill="black"/>
<path d="M49.5596 0.361847C49.0933 0.613571 48.6435 1.08556 48.0439 1.96659C47.5775 2.65883 46.9113 3.5084 46.5782 3.83879C45.9952 4.4209 45.9785 4.48383 46.2284 4.67263C46.395 4.78276 46.6115 4.89289 46.7114 4.92435C46.8114 4.95582 46.6115 5.28621 46.2617 5.64806C45.5955 6.3403 45.5455 6.63922 45.8953 7.63039C45.9619 7.83491 45.862 8.13383 45.6121 8.47996C45.2956 8.92048 45.0458 9.06207 44.1464 9.26659C42.7806 9.59698 40.9983 10.5252 39.9823 11.4692C39.0163 12.3345 38.7498 13.0897 38.3667 15.8114C38.1834 17.2274 38.0169 17.8724 37.7004 18.4073C37.4672 18.8006 37.0841 19.4614 36.8676 19.9019C36.3179 20.956 34.0694 23.017 33.4864 23.0013C33.2532 22.9856 32.4371 22.7968 31.6542 22.5765C30.8714 22.3405 29.6055 21.9944 28.8393 21.7741C28.0731 21.5539 27.3236 21.3179 27.1737 21.255C27.0238 21.1763 25.8579 20.8302 24.5753 20.4683C23.2928 20.1222 21.2108 19.5086 19.9616 19.131C17.0134 18.2185 15.0646 17.841 11.1504 17.4634C7.68593 17.133 6.81981 17.1802 6.30347 17.7938C5.8371 18.3129 5.92038 19.2569 6.47003 19.8233C6.85312 20.2323 7.08631 20.311 8.25225 20.4526C11.0172 20.783 13.0992 21.1448 19.2453 22.3563C27.257 23.9295 26.9738 23.8666 28.7061 24.3228C30.0052 24.669 30.1885 24.6847 30.5382 24.4802C30.8214 24.3071 31.0879 24.2757 31.7208 24.4015C32.6869 24.5746 32.6869 24.5746 32.9201 25.2196C33.0367 25.55 33.2199 25.7388 33.4864 25.7703C33.9028 25.8332 33.9195 25.7231 33.3365 28.319C32.9534 30.0024 33.0533 31.3082 33.653 32.4252C34.1027 33.2276 34.086 34.7851 33.653 36.0752C33.4697 36.6101 33.2032 37.9632 33.07 39.0959C32.8868 40.6535 32.6869 41.4716 32.2538 42.5414C31.954 43.3123 31.5709 44.0045 31.4377 44.0675C31.1712 44.2248 29.9719 44.036 28.6061 43.6584C27.4402 43.328 26.0411 43.3595 23.8924 43.7528C21.8937 44.1304 15.6976 44.4136 14.4484 44.1933C13.4323 44.0203 10.6674 44.3192 10.2676 44.6496C10.0178 44.8698 9.98449 45.0744 10.0511 45.8925C10.1011 46.4746 10.2676 47.0882 10.4509 47.3871C12.7661 50.9899 13.5656 52.1698 13.7488 52.28C13.882 52.3429 14.9647 52.4373 16.1473 52.5002C17.7963 52.5789 18.3792 52.5474 18.5791 52.3901C18.9455 52.0912 18.8789 51.9181 18.3292 51.7451C18.0294 51.6349 17.8296 51.4619 17.8296 51.2888C17.8296 51.0528 18.0461 51.0056 19.6951 50.9427C20.7277 50.8955 22.41 50.9584 23.4094 51.0685C30.8214 51.8866 30.8047 51.8866 32.054 52.217C32.8868 52.4373 33.3198 52.4845 33.7029 52.3744C34.0027 52.2957 34.5857 52.2328 35.0354 52.2328C36.0181 52.2328 37.8004 51.7765 38.9663 51.2259C39.4493 50.9899 40.3821 50.7067 41.015 50.5808C43.2969 50.1718 43.9798 49.0862 43.0804 47.2769C42.5307 46.1599 41.7978 45.5149 40.7152 45.216C40.1988 45.0744 39.8158 44.8856 39.8158 44.7597C39.8158 44.4922 41.6313 42.1481 42.6473 41.1412C43.2969 40.4804 43.4801 40.15 43.7966 39.033C44.0131 38.3093 44.213 37.4754 44.263 37.1922C44.3129 36.8933 44.4462 36.6573 44.5461 36.6573C44.6461 36.6573 45.1457 36.9091 45.6621 37.208C46.1951 37.5226 47.4276 37.9789 48.6602 38.3093C52.3745 39.3476 53.4738 39.6938 53.7237 39.9455C53.8569 40.0871 54.4066 40.7321 54.9396 41.3772C55.4559 42.0222 56.3387 42.9504 56.8717 43.4224C57.4214 43.8944 58.3041 44.6968 58.8371 45.1845C59.4368 45.7194 60.1197 46.1757 60.6027 46.3487C61.6187 46.7106 64.0172 48.0479 64.6002 48.5985C64.85 48.8345 65.2997 49.1806 65.5829 49.3851C65.9993 49.6526 66.1659 49.9043 66.2325 50.3763C66.2991 50.7224 66.5156 51.1944 66.7155 51.4147C66.9154 51.6507 67.1819 52.044 67.3151 52.2957C67.4817 52.6261 67.7316 52.8149 68.1146 52.9093C68.4311 52.9879 70.3965 53.0194 72.4619 52.9879L76.2262 52.9407L77.0923 52.4216C78.125 51.7765 79.4575 50.1875 79.4575 49.5739C79.4575 48.7086 78.3915 48.2996 76.1762 48.2996H74.8104L73.7611 47.1983C73.1781 46.5847 71.8956 45.4362 70.8796 44.6496C69.3805 43.4696 65.8661 40.4332 63.8173 38.561C62.8346 37.6642 61.9685 36.5787 61.9685 36.2325C61.9685 36.0438 61.752 35.6347 61.4688 35.3515C61.2023 35.0526 60.9691 34.7222 60.9691 34.6278C60.9691 34.5334 60.7693 34.3604 60.5194 34.2345C60.2529 34.1086 59.8865 33.8254 59.6866 33.6052C59.4701 33.3849 59.1703 33.1961 59.0204 33.1961C58.8538 33.1961 58.554 33.0231 58.3375 32.8185C58.1376 32.614 57.7711 32.3938 57.5046 32.3308C56.7551 32.1578 54.7564 31.2138 54.0735 30.6946C53.7237 30.4272 53.2906 30.2069 53.1241 30.2069C52.8242 30.2069 52.1413 30.7733 52.1413 31.025C52.1413 31.5285 50.1759 30.5688 48.8934 29.4203C48.5269 29.1056 47.944 28.6336 47.5942 28.3976L46.9446 27.9414L47.6275 27.6425C48.6269 27.2019 49.3764 26.2894 49.7095 25.1252C50.2425 23.3002 50.3258 23.1272 50.8088 22.8912C51.0753 22.7653 51.575 22.6552 51.9248 22.6552C52.5577 22.6552 52.6743 22.5765 54.1068 21.192C56.322 19.0209 56.8384 18.486 57.2215 17.8567C57.6046 17.2588 57.6712 17.0071 57.5879 16.4093C57.488 15.481 56.3221 13.2784 55.356 12.1614C54.6231 11.3119 54.2234 10.4151 54.4566 10.1162C54.5065 10.0375 54.9229 9.73857 55.356 9.43966C55.839 9.10926 56.1888 8.74741 56.2388 8.51142C56.2887 8.29116 56.4386 7.91357 56.5719 7.67759C56.7051 7.45732 56.8051 7.14267 56.8051 6.96961C56.8051 6.81228 56.9217 6.54483 57.0549 6.3875C57.388 5.97845 57.3714 5.71099 56.9716 5.23901C56.7385 4.95582 56.6385 4.59396 56.6385 4.02758C56.6385 3.03642 56.0222 1.7778 55.2561 1.16422C54.2067 0.330383 53.1907 -3.8147e-06 51.6417 -3.8147e-06C50.4924 -3.8147e-06 50.1093 0.0629272 49.5596 0.361847ZM47.6442 7.48879C47.6442 7.89784 47.361 8.00797 47.2111 7.63039C47.0779 7.31573 47.2611 6.87521 47.4776 7.00108C47.5609 7.04827 47.6442 7.26853 47.6442 7.48879ZM56.472 7.00108C56.472 7.31573 55.9556 8.18103 55.8057 8.10237C55.5725 7.96077 55.5892 7.75625 55.9056 7.31573C56.1555 6.96961 56.472 6.78082 56.472 7.00108ZM55.1395 9.09354C55.1395 9.15647 54.9729 9.29806 54.7897 9.40819C54.4066 9.64418 54.0068 9.45539 54.2067 9.14073C54.34 8.95194 55.1395 8.90474 55.1395 9.09354Z" fill="#2A373F"/>
</svg>
