<svg width="59" height="59" viewBox="0 0 59 59" fill="none" xmlns="http://www.w3.org/2000/svg">
<path d="M42.5677 5.6006C39.272 8.67736 36.4372 11.3508 36.2529 11.5237L35.9187 11.8463L36.4027 12.3994L36.8867 12.9526L36.4488 13.3789L36.0109 13.8168L35.3195 13.5863C34.098 13.16 33.4066 13.3904 31.8048 14.7617C30.157 16.1676 27.207 17.9537 25.7204 18.4377C25.2595 18.5875 25.2134 18.576 24.9714 18.3455C24.8216 18.1842 24.764 18.0574 24.8331 17.9883C24.9023 17.9307 25.8818 17.366 27.0226 16.7322C29.0161 15.626 33.0724 13.2867 33.1876 13.1715C33.2107 13.1485 33.1646 13.0678 33.0724 13.0102C32.7267 12.7797 31.3324 12.9871 30.1915 13.425C27.8753 14.3354 25.1212 15.3033 23.8997 15.6606C22.6783 16.0178 22.5976 16.0293 22.2634 15.8565C20.9382 15.1766 18.8294 15.8795 17.6771 17.3891C16.6745 18.7028 16.3634 20.2815 16.8359 21.6873C17.147 22.6092 17.3429 22.8742 19.7744 25.7551C23.0585 29.627 24.28 31.2287 25.5822 33.3145L26.1699 34.2363L25.8126 34.6858C25.2595 35.3887 24.2685 36.2414 23.1853 36.9444C22.6322 37.3016 21.6066 37.9815 20.8921 38.4539C17.9652 40.3899 16.6169 42.5563 15.0843 47.7303C14.7617 48.825 14.3238 50.277 14.1048 50.9569C13.5747 52.6278 13.5747 53.3537 14.0933 54.1143C14.6349 54.9324 15.43 55.3127 16.5478 55.3127C17.5273 55.3127 17.9767 55.1629 18.599 54.6213C19.1521 54.1258 19.4632 53.492 19.9933 51.7981C21.572 46.624 22.2519 45.1951 23.8767 43.5934C24.5451 42.9365 26.6077 41.427 26.6999 41.5307C26.723 41.5537 26.6423 41.9801 26.5156 42.4756C25.9048 44.9416 25.8126 47.3961 26.2505 49.6662C26.746 52.259 28.0712 56.707 28.6013 57.5828C29.4195 58.9311 31.1826 59.3574 32.7152 58.5738C33.5449 58.1475 33.9827 57.5367 34.0634 56.684C34.121 56.1424 34.0404 55.7967 33.4757 54.0451C32.7267 51.7059 31.9892 48.8135 31.8048 47.4653C31.7126 46.7854 31.7126 46.1862 31.8048 45.2412C31.9546 43.7086 32.0929 43.0633 32.9226 40.0557C33.2683 38.7996 33.6255 37.3707 33.7292 36.8983C33.8445 36.3451 34.0173 35.8727 34.2247 35.5846C34.9161 34.6397 35.1351 33.107 34.7663 31.8971C34.3861 30.6526 32.404 27.4951 30.3759 24.8563L29.166 23.2776L30.18 22.759C32.3579 21.6643 34.363 20.316 36.0339 18.818C37.2439 17.7348 37.5089 17.2162 37.4167 16.1561L37.3591 15.384L37.8316 14.8885L38.304 14.4045L38.8341 14.9231L39.3642 15.4416L45.6329 9.55314L51.9132 3.65314L51.9017 2.95021C51.8902 1.9131 51.6712 1.29084 51.1181 0.737713C50.588 0.207634 50.0464 0.000213623 49.1361 0.000213623H48.5368L42.5677 5.6006Z" fill="black"/>
<path d="M17.2736 7.07504L16.5361 7.93929L15.96 7.85863C14.7615 7.68578 13.9549 7.78949 13.0676 8.2389C12.1111 8.71137 11.4658 9.3682 10.9818 10.3592C10.7053 10.9239 10.6707 11.1428 10.6592 12.0993C10.6592 12.8944 10.7168 13.3323 10.8666 13.701C11.5811 15.4526 13.0791 16.4782 14.9689 16.4897C16.4555 16.5127 17.7922 15.8098 18.6104 14.5768C18.8408 14.2196 19.1174 13.943 19.2211 13.943C19.4977 13.943 20.2467 13.3092 20.4541 12.9059C20.8574 12.1223 20.7768 10.509 20.2582 9.16078C19.9816 8.42328 19.8895 8.40023 18.9906 8.81508C18.6564 8.9764 18.3338 9.10316 18.2646 9.10316C18.207 9.10316 17.942 8.93031 17.6885 8.71137L17.2391 8.33109L17.9189 7.55902L18.5873 6.78695L18.2992 6.49887L18.0111 6.21078L17.2736 7.07504ZM19.7973 9.41429C19.9471 9.80609 20.166 10.6127 20.166 10.7971C20.166 10.9123 19.6014 11.1774 19.3479 11.1774C19.3018 11.1774 19.198 10.9815 19.1174 10.751C19.0482 10.5205 18.8754 10.1633 18.7602 9.94437L18.5297 9.5641L19.0252 9.33363C19.6705 9.04555 19.659 9.04555 19.7973 9.41429ZM20.1545 12.0416C20.0393 12.6293 19.7742 13.0903 19.44 13.2746C19.2211 13.3899 19.2096 13.3668 19.2787 12.952C19.3248 12.6985 19.3594 12.3067 19.3594 12.0762C19.3594 11.7305 19.4055 11.6498 19.6244 11.6037C20.2582 11.477 20.2582 11.4885 20.1545 12.0416Z" fill="black"/>
<path d="M48.698 17.769C47.9605 20.696 45.7826 23.4846 42.6367 25.5358C41.5766 26.2157 39.5139 27.2298 38.4076 27.6216C37.7162 27.852 37.4512 28.0018 37.4512 28.1401C37.4512 28.4858 37.6701 28.4858 38.5229 28.1632C41.1156 27.1837 44.1117 25.2132 45.7596 23.4155C46.6123 22.4591 47.5918 21.0186 48.0412 20.0276C48.41 19.2094 49.0207 17.2389 48.9516 17.043C48.9285 16.9854 48.8133 17.3081 48.698 17.769Z" fill="black"/>
<path d="M8.20483 32.1734C8.03198 32.3463 8.03198 32.7611 8.20483 32.934C8.29702 33.0262 8.83862 33.0723 9.86421 33.0723C11.0972 33.0723 11.4314 33.0377 11.5697 32.8879C11.8001 32.6574 11.8001 32.45 11.5697 32.2195C11.4314 32.0697 11.0972 32.0352 9.86421 32.0352C8.83862 32.0352 8.29702 32.0813 8.20483 32.1734Z" fill="black"/>
<path d="M12.5837 32.1734C12.4109 32.3463 12.4109 32.7611 12.5837 32.934C12.6759 33.0262 13.206 33.0723 14.2316 33.0723C15.8103 33.0723 16.0177 33.0146 16.0177 32.5537C16.0177 32.0928 15.8103 32.0352 14.2316 32.0352C13.206 32.0352 12.6759 32.0813 12.5837 32.1734Z" fill="black"/>
<path d="M7.52488 33.3039C7.27136 33.4537 7.13308 33.6381 7.08699 33.9031C7.05242 34.1105 7.04089 38.8697 7.05242 44.4586L7.08699 54.6453L7.40964 54.9218C7.97429 55.4058 8.65417 55.2445 8.94226 54.5646C9.08054 54.2304 9.10359 52.525 9.10359 44.159C9.10359 36.9799 9.06902 34.0414 8.97683 33.7648C8.88464 33.5113 8.72332 33.3384 8.45828 33.2347C7.97429 33.0273 7.96277 33.0273 7.52488 33.3039Z" fill="black"/>
<path d="M11.6848 33.1887C11.028 33.4537 11.0626 32.9121 11.0626 44.1705V54.5301L11.4083 54.8642C11.6733 55.1408 11.8346 55.21 12.1227 55.1754C12.4684 55.1408 12.503 55.1062 12.4684 54.7951C12.4454 54.5992 12.4223 53.9539 12.4108 53.3547C12.3993 52.4098 12.4454 52.1101 12.768 51.1422L13.1483 50.0244L13.1137 41.9234C13.0792 33.0619 13.1022 33.4422 12.3993 33.1887C12.019 33.0504 12.0075 33.0504 11.6848 33.1887Z" fill="black"/>
<path d="M15.7871 33.1537C15.6949 33.1883 15.499 33.3266 15.3607 33.4533L15.0957 33.6838V38.8232V43.9512L15.5912 42.9717C15.8678 42.4301 16.3172 41.6695 16.5707 41.2777L17.0547 40.5748V37.1754C17.0547 33.8105 17.0547 33.776 16.8012 33.4879C16.5246 33.1883 16.0867 33.0385 15.7871 33.1537Z" fill="black"/>
<path d="M36.0391 45.3166C35.9866 45.3261 35.8721 45.3595 35.7815 45.3881L35.6194 45.4358L37.1407 46.9572C37.9753 47.7965 38.6764 48.4785 38.6907 48.4785C38.7575 48.4785 38.8433 47.9682 38.8433 47.6201C38.829 46.3181 37.7607 45.2689 36.4683 45.288C36.2871 45.2928 36.0915 45.3023 36.0391 45.3166Z" fill="black"/>
<path d="M34.7659 46.0033L34.4797 46.299L36.1394 47.9586C37.055 48.8743 37.8181 49.623 37.842 49.623C37.861 49.623 38.0041 49.4895 38.1662 49.3274L38.4572 49.0364L36.7927 47.372C35.8819 46.4611 35.114 45.7124 35.095 45.7124C35.0711 45.7124 34.9233 45.8459 34.7659 46.0033ZM35.5146 46.3848C35.7531 46.6042 35.8055 46.7139 35.7292 46.857C35.6434 47.0191 35.4574 46.9762 35.2237 46.7425C34.9996 46.5184 34.9519 46.3276 35.0997 46.2418C35.2333 46.1607 35.2905 46.1798 35.5146 46.3848ZM36.6544 47.5246C36.7737 47.6534 36.8738 47.7774 36.8738 47.7965C36.8738 47.8871 36.7164 48.0492 36.6306 48.0492C36.4828 48.0492 36.1108 47.6773 36.1108 47.5294C36.1108 47.2099 36.3588 47.2051 36.6544 47.5246ZM37.718 48.5834C37.9469 48.8075 37.9898 49.0126 37.8324 49.0984C37.6893 49.1748 37.6512 49.1604 37.4223 48.9506C37.1838 48.7312 37.1314 48.6215 37.2077 48.4785C37.2935 48.3163 37.489 48.3592 37.718 48.5834Z" fill="black"/>
<path d="M34.1315 47.0565C33.7882 48.2154 34.5894 49.5842 35.8389 49.9609C36.1012 50.042 36.249 50.0563 36.6258 50.042C36.8785 50.0277 37.1504 49.9943 37.2267 49.9609L37.3698 49.9037L35.8246 48.3585C34.9709 47.5048 34.2603 46.8085 34.2412 46.8085C34.2222 46.8085 34.1745 46.9182 34.1315 47.0565Z" fill="black"/>
</svg>
