<svg width="40" height="40" viewBox="0 0 40 40" fill="none" xmlns="http://www.w3.org/2000/svg">
<path d="M7.5 11.2498V0.62499C7.5 0.459233 7.43415 0.300264 7.31694 0.183055C7.19973 0.065847 7.04076 0 6.875 0C6.70924 0 6.55027 0.065847 6.43306 0.183055C6.31585 0.300264 6.25 0.459233 6.25 0.62499V8.74986H4.375V0.62499C4.375 0.459233 4.30915 0.300264 4.19194 0.183055C4.07473 0.065847 3.91576 0 3.75 0C3.58424 0 3.42527 0.065847 3.30806 0.183055C3.19085 0.300264 3.125 0.459233 3.125 0.62499V8.74986H1.25V0.62499C1.25 0.459233 1.18415 0.300264 1.06694 0.183055C0.949732 0.065847 0.79076 0 0.625 0C0.45924 0 0.300269 0.065847 0.183058 0.183055C0.065848 0.300264 0 0.459233 0 0.62499L0 11.2498C0.00187256 11.8972 0.171837 12.533 0.493252 13.095C0.814667 13.657 1.27651 14.1259 1.83358 14.4557L0.77515 36.8744V37.0118C0.774312 37.8022 1.08705 38.5606 1.64476 39.1207C2.20247 39.6808 2.95959 39.9968 3.75 39.9994C4.15572 39.9985 4.557 39.915 4.92935 39.7539C5.30169 39.5927 5.63726 39.3573 5.91557 39.0621C6.19388 38.7669 6.40907 38.4181 6.54801 38.0369C6.68694 37.6557 6.74671 37.2502 6.72364 36.8451L5.66644 14.4557C6.2235 14.1259 6.68534 13.657 7.00675 13.095C7.32817 12.533 7.49813 11.8972 7.5 11.2498ZM5.00125 38.2099C4.84102 38.381 4.64719 38.5173 4.43189 38.6101C4.21659 38.7029 3.98446 38.7504 3.75 38.7494C3.29101 38.7472 2.85164 38.563 2.52829 38.2372C2.20493 37.9115 2.02399 37.4707 2.02515 37.0118L2.0239 36.9037L3.0615 14.9302C3.28835 14.9746 3.51884 14.9979 3.75 14.9998C3.98115 14.9979 4.21163 14.9746 4.43848 14.9302L5.47607 36.9092C5.49057 37.147 5.45588 37.3852 5.37419 37.609C5.29249 37.8328 5.16554 38.0373 5.00125 38.2099ZM3.75 13.7498C3.08719 13.749 2.45175 13.4854 1.98307 13.0167C1.51439 12.5481 1.25076 11.9126 1.25 11.2498V9.99985H6.25V11.2498C6.24924 11.9126 5.98561 12.5481 5.51693 13.0167C5.04825 13.4854 4.41281 13.749 3.75 13.7498ZM27.0715 12.9289C27.0635 12.9209 27.0527 12.9184 27.0443 12.9108C25.1739 11.0466 22.6408 9.99985 20 9.99985C17.3592 9.99985 14.8261 11.0466 12.9557 12.9108C12.9473 12.9183 12.9365 12.9209 12.9285 12.9289C12.9205 12.9369 12.9178 12.9479 12.9102 12.9564C11.0465 14.8267 10 17.3594 10 19.9997C10 22.6401 11.0465 25.1728 12.9102 27.0431C12.9177 27.0515 12.9204 27.0624 12.9285 27.0706C12.9366 27.0787 12.9473 27.0811 12.9557 27.0887C14.8261 28.9528 17.3592 29.9996 20 29.9996C22.6408 29.9996 25.1739 28.9528 27.0443 27.0887C27.0527 27.0812 27.0635 27.0786 27.0715 27.0706C27.0795 27.0626 27.0822 27.0516 27.0898 27.0431C28.9535 25.1728 30 22.6401 30 19.9997C30 17.3594 28.9535 14.8267 27.0898 12.9564C27.0822 12.9479 27.0796 12.937 27.0715 12.9289ZM28.125 20.6247H28.7183C28.5853 22.5075 27.8437 24.296 26.6054 25.7206L26.1877 25.3029C26.0701 25.1877 25.9118 25.1235 25.7472 25.1244C25.5825 25.1252 25.4249 25.191 25.3084 25.3074C25.192 25.4238 25.1262 25.5815 25.1254 25.7461C25.1246 25.9108 25.1887 26.0691 25.304 26.1867L25.7215 26.6042C24.2969 27.8429 22.5081 28.5847 20.625 28.7179V28.1246C20.625 27.9588 20.5592 27.7998 20.4419 27.6826C20.3247 27.5654 20.1658 27.4996 20 27.4996C19.8342 27.4996 19.6753 27.5654 19.5581 27.6826C19.4408 27.7998 19.375 27.9588 19.375 28.1246V28.7179C17.4919 28.5848 15.7031 27.8429 14.2785 26.6043L14.696 26.1868C14.8112 26.0692 14.8754 25.9109 14.8746 25.7462C14.8737 25.5816 14.808 25.4239 14.6915 25.3075C14.5751 25.1911 14.4175 25.1253 14.2528 25.1245C14.0882 25.1236 13.9298 25.1878 13.8122 25.303L13.3946 25.7207C12.1563 24.2961 11.4147 22.5075 11.2817 20.6247H11.875C12.0408 20.6247 12.1997 20.5588 12.3169 20.4416C12.4342 20.3244 12.5 20.1654 12.5 19.9997C12.5 19.8339 12.4342 19.675 12.3169 19.5578C12.1997 19.4405 12.0408 19.3747 11.875 19.3747H11.2817C11.4147 17.4919 12.1563 15.7033 13.3946 14.2788L13.8123 14.6964C13.9299 14.8117 14.0882 14.8759 14.2528 14.875C14.4175 14.8742 14.5751 14.8084 14.6916 14.692C14.808 14.5756 14.8738 14.4179 14.8746 14.2533C14.8754 14.0886 14.8113 13.9303 14.696 13.8127L14.2785 13.3952C15.7031 12.1565 17.4919 11.4146 19.375 11.2815V11.8748C19.375 12.0406 19.4408 12.1995 19.5581 12.3168C19.6753 12.434 19.8342 12.4998 20 12.4998C20.1658 12.4998 20.3247 12.434 20.4419 12.3168C20.5592 12.1995 20.625 12.0406 20.625 11.8748V11.2815C22.5081 11.4146 24.2969 12.1564 25.7215 13.3951L25.304 13.8126C25.245 13.8704 25.1981 13.9393 25.1659 14.0154C25.1337 14.0915 25.1169 14.1732 25.1165 14.2558C25.1161 14.3384 25.132 14.4202 25.1635 14.4966C25.1949 14.573 25.2411 14.6424 25.2995 14.7008C25.3579 14.7592 25.4273 14.8055 25.5037 14.8369C25.5801 14.8683 25.662 14.8843 25.7446 14.8839C25.8272 14.8834 25.9089 14.8666 25.9849 14.8345C26.061 14.8023 26.1299 14.7553 26.1878 14.6963L26.6054 14.2787C27.8437 15.7033 28.5853 17.4918 28.7183 19.3747H28.125C27.9592 19.3747 27.8003 19.4405 27.6831 19.5578C27.5658 19.675 27.5 19.8339 27.5 19.9997C27.5 20.1654 27.5658 20.3244 27.6831 20.4416C27.8003 20.5588 27.9592 20.6247 28.125 20.6247ZM39.6545 0.0659115C39.5507 0.0141383 39.4345 -0.0077428 39.319 0.00271368C39.2035 0.0131702 39.0931 0.0555522 39.0002 0.125123C37.3738 1.35103 36.0534 2.93697 35.1425 4.75863C34.2316 6.58028 33.755 8.58815 33.75 10.6248V24.3746C33.75 24.4567 33.7661 24.538 33.7975 24.6139C33.8289 24.6897 33.8749 24.7586 33.933 24.8167C33.991 24.8747 34.0599 24.9207 34.1358 24.9521C34.2116 24.9835 34.2929 24.9997 34.375 24.9996H34.8972L33.96 36.7328C33.9273 37.139 33.9771 37.5476 34.1063 37.9341C34.2355 38.3205 34.4414 38.6769 34.7117 38.9818C34.9821 39.2867 35.3112 39.5339 35.6794 39.7084C36.0476 39.883 36.4473 39.9813 36.8545 39.9976C37.2617 40.0138 37.6679 39.9477 38.0489 39.803C38.4298 39.6584 38.7776 39.4382 39.0714 39.1558C39.3652 38.8735 39.5989 38.5346 39.7584 38.1597C39.918 37.7847 40.0002 37.3814 40 36.9739V0.62499C39.9999 0.508946 39.9675 0.395223 39.9065 0.296504C39.8455 0.197785 39.7583 0.117953 39.6545 0.0659115ZM38.75 36.9739C38.7496 37.4446 38.5625 37.8959 38.2297 38.2287C37.897 38.5616 37.4458 38.7488 36.9751 38.7494C36.73 38.7494 36.4876 38.6987 36.2631 38.6005C36.0386 38.5023 35.8369 38.3586 35.6706 38.1786C35.5043 37.9986 35.3772 37.7861 35.297 37.5545C35.2169 37.3229 35.1856 37.0772 35.2051 36.8329L36.1504 24.9996H38.75V36.9739ZM38.75 23.7496H35V10.6248C35.0041 9.00259 35.3387 7.39819 35.9835 5.90956C36.6282 4.42093 37.5695 3.07929 38.75 1.96652V23.7496ZM20 7.49988C17.5277 7.49988 15.111 8.23298 13.0554 9.60648C10.9998 10.98 9.3976 12.9322 8.45151 15.2162C7.50541 17.5003 7.25787 20.0136 7.74018 22.4383C8.2225 24.863 9.41301 27.0903 11.1612 28.8384C12.9093 30.5865 15.1366 31.777 17.5614 32.2593C19.9861 32.7416 22.4995 32.4941 24.7835 31.548C27.0676 30.6019 29.0199 28.9998 30.3934 26.9442C31.7669 24.8886 32.5 22.4719 32.5 19.9997C32.4962 16.6857 31.178 13.5085 28.8346 11.1652C26.4913 8.82183 23.314 7.50368 20 7.49988ZM20 31.2495C17.775 31.2495 15.5999 30.5897 13.7498 29.3536C11.8998 28.1174 10.4578 26.3605 9.60636 24.3048C8.75487 22.2492 8.53208 19.9872 8.96617 17.805C9.40025 15.6227 10.4717 13.6182 12.045 12.0449C13.6184 10.4715 15.6229 9.4001 17.8052 8.96603C19.9875 8.53195 22.2495 8.75473 24.3052 9.60621C26.3609 10.4577 28.1179 11.8996 29.354 13.7496C30.5902 15.5996 31.25 17.7747 31.25 19.9997C31.2466 22.9823 30.0603 25.8418 27.9512 27.9508C25.8422 30.0598 22.9827 31.2462 20 31.2495ZM20.625 18.2398V16.2497C20.625 16.084 20.5592 15.925 20.4419 15.8078C20.3247 15.6906 20.1658 15.6248 20 15.6248C19.8342 15.6248 19.6753 15.6906 19.5581 15.8078C19.4408 15.925 19.375 16.084 19.375 16.2497V18.2398C19.0105 18.3683 18.6946 18.6064 18.4708 18.9215C18.247 19.2366 18.1262 19.6132 18.125 19.9997C18.1265 20.2782 18.1907 20.5527 18.3129 20.803L16.4331 22.6828C16.3741 22.7406 16.3272 22.8095 16.295 22.8856C16.2628 22.9616 16.246 23.0433 16.2456 23.1259C16.2452 23.2085 16.2611 23.2904 16.2925 23.3668C16.324 23.4432 16.3702 23.5126 16.4286 23.571C16.487 23.6294 16.5564 23.6756 16.6328 23.7071C16.7092 23.7385 16.7911 23.7544 16.8737 23.754C16.9563 23.7536 17.038 23.7368 17.114 23.7046C17.1901 23.6724 17.259 23.6255 17.3169 23.5665L19.1967 21.6867C19.4469 21.8089 19.7215 21.8732 20 21.8747C20.4419 21.8758 20.8699 21.7204 21.2082 21.436C21.5464 21.1517 21.7731 20.7568 21.848 20.3213C21.9229 19.8858 21.8411 19.4378 21.6173 19.0568C21.3934 18.6758 21.0419 18.3864 20.625 18.2398ZM20 20.6247C19.8764 20.6247 19.7555 20.588 19.6528 20.5194C19.55 20.4507 19.4699 20.3531 19.4226 20.2389C19.3753 20.1247 19.3629 19.999 19.387 19.8778C19.4111 19.7565 19.4706 19.6452 19.5581 19.5578C19.6455 19.4703 19.7568 19.4108 19.8781 19.3867C19.9993 19.3626 20.125 19.375 20.2392 19.4223C20.3534 19.4696 20.451 19.5497 20.5197 19.6525C20.5883 19.7552 20.625 19.8761 20.625 19.9997C20.6248 20.1654 20.5589 20.3242 20.4417 20.4414C20.3245 20.5585 20.1657 20.6245 20 20.6247Z" fill="black"/>
</svg>
