<svg width="53" height="57" viewBox="0 0 53 57" fill="none" xmlns="http://www.w3.org/2000/svg">
<path d="M26.1673 11.0391C22.0743 11.0371 18.0728 12.2491 14.6688 14.5218C11.2648 16.7945 8.61136 20.0257 7.04414 23.8067C5.47692 27.5877 5.06635 31.7486 5.86436 35.763C6.66237 39.7774 8.6331 43.465 11.5273 46.3591C14.4214 49.2533 18.1089 51.224 22.1233 52.022C26.1377 52.82 30.2986 52.4094 34.0796 50.8422C37.8606 49.275 41.0919 46.6216 43.3646 43.2176C45.6373 39.8136 46.8493 35.812 46.8473 31.7191C46.842 26.236 44.6615 20.9791 40.7844 17.1019C36.9073 13.2248 31.6503 11.0444 26.1673 11.0391ZM26.1673 50.4091C22.4703 50.411 18.8558 49.3166 15.781 47.2641C12.7061 45.2116 10.309 42.2933 8.89286 38.8784C7.47672 35.4634 7.10517 31.7051 7.8252 28.079C8.54523 24.4528 10.3245 21.1216 12.9379 18.5068C15.5514 15.8919 18.8816 14.1109 22.5074 13.3889C26.1332 12.667 29.8916 13.0365 33.3073 14.4508C36.7231 15.8651 39.6426 18.2606 41.6968 21.3344C43.7509 24.4082 44.8473 28.0221 44.8473 31.7191C44.8446 36.6734 42.876 41.4242 39.3737 44.9284C35.8714 48.4326 31.1216 50.4038 26.1673 50.4091Z" fill="#2A373F"/>
<path d="M52.3075 15.2C52.3048 12.8987 51.3895 10.6925 49.7622 9.06524C48.135 7.43799 45.9287 6.52265 43.6275 6.52C42.4234 6.51694 41.2322 6.76734 40.1313 7.25492C39.0304 7.7425 38.0444 8.45633 37.2375 9.35C34.1022 7.78453 30.6693 6.90501 27.1675 6.77V6.19H33.3575C33.6227 6.19 33.877 6.08464 34.0646 5.89711C34.2521 5.70957 34.3575 5.45522 34.3575 5.19V1C34.3575 0.734784 34.2521 0.48043 34.0646 0.292893C33.877 0.105357 33.6227 0 33.3575 0H18.9775C18.7123 0 18.4579 0.105357 18.2704 0.292893C18.0828 0.48043 17.9775 0.734784 17.9775 1V5.19C17.9775 5.45522 18.0828 5.70957 18.2704 5.89711C18.4579 6.08464 18.7123 6.19 18.9775 6.19H25.1675V6.77C21.6657 6.90501 18.2328 7.78453 15.0975 9.35C14.2897 8.45815 13.3033 7.74618 12.2024 7.26035C11.1015 6.77452 9.91078 6.52568 8.70747 6.53C6.91723 6.52226 5.16848 7.06891 3.70137 8.09488C2.23425 9.12085 1.12071 10.5758 0.513658 12.26C-0.0933986 13.9442 -0.164203 15.775 0.310966 17.5011C0.786136 19.2272 1.78398 20.7638 3.16747 21.9C1.71494 25.3097 1.03869 28.9998 1.18769 32.703C1.33669 36.4062 2.30721 40.03 4.02899 43.312C5.75076 46.594 8.18073 49.4522 11.143 51.6795C14.1052 53.9069 17.5257 55.4478 21.1567 56.1906C24.7877 56.9335 28.5385 56.8597 32.1375 55.9747C35.7365 55.0896 39.0937 53.4154 41.9661 51.0733C44.8384 48.7312 47.1541 45.7797 48.7455 42.4325C50.3369 39.0854 51.1642 35.4262 51.1675 31.72C51.1765 28.3414 50.496 24.9965 49.1675 21.89C50.1536 21.077 50.9468 20.0551 51.4898 18.8981C52.0328 17.7412 52.3121 16.478 52.3075 15.2ZM19.9775 2H32.3575V4.19H19.9775V2ZM43.6275 8.52C44.9628 8.51496 46.2688 8.91145 47.376 9.65799C48.4831 10.4045 49.3403 11.4667 49.8362 12.7065C50.3322 13.9463 50.444 15.3066 50.1571 16.6108C49.8702 17.9149 49.1979 19.1027 48.2275 20.02C46.0963 16.0338 42.9325 12.6938 39.0675 10.35C40.2942 9.17408 41.9282 8.51831 43.6275 8.52ZM2.02747 15.2C2.03012 13.4292 2.73475 11.7316 3.98692 10.4794C5.23909 9.22728 6.93664 8.52264 8.70747 8.52C10.4067 8.51831 12.0408 9.17408 13.2675 10.35C9.39633 12.6951 6.23131 16.0432 4.10747 20.04C3.44845 19.4182 2.92387 18.6679 2.56613 17.8355C2.20838 17.003 2.02505 16.1061 2.02747 15.2ZM26.1675 54.7C21.6185 54.7 17.1717 53.3511 13.3894 50.8238C9.60703 48.2965 6.65906 44.7044 4.91824 40.5017C3.17743 36.299 2.72195 31.6745 3.60941 27.2129C4.49687 22.7514 6.68741 18.6532 9.90402 15.4365C13.1206 12.2199 17.2188 10.0294 21.6804 9.14194C26.142 8.25448 30.7665 8.70996 34.9692 10.4508C39.1719 12.1916 42.764 15.1396 45.2913 18.9219C47.8185 22.7042 49.1675 27.151 49.1675 31.7C49.1675 37.8 46.7443 43.6501 42.4309 47.9635C38.1176 52.2768 32.2675 54.7 26.1675 54.7Z" fill="#2A373F"/>
<path d="M26.1675 18.3496C25.9023 18.3496 25.6479 18.455 25.4604 18.6425C25.2729 18.83 25.1675 19.0844 25.1675 19.3496V30.7196H16.9575C16.6923 30.7196 16.4379 30.825 16.2504 31.0125C16.0629 31.2 15.9575 31.4544 15.9575 31.7196C15.9575 31.9848 16.0629 32.2392 16.2504 32.4267C16.4379 32.6143 16.6923 32.7196 16.9575 32.7196H26.1675C26.4327 32.7196 26.6871 32.6143 26.8746 32.4267C27.0622 32.2392 27.1675 31.9848 27.1675 31.7196V19.3496C27.1675 19.0844 27.0622 18.83 26.8746 18.6425C26.6871 18.455 26.4327 18.3496 26.1675 18.3496Z" fill="#2A373F"/>
</svg>
