<svg width="66" height="53" viewBox="0 0 66 53" fill="none" xmlns="http://www.w3.org/2000/svg">
<g clip-path="url(#clip0_1659_61)">
<path d="M42.3674 0.361719C43.5268 0.672266 44.4791 1.39688 45.2037 2.51484C45.8455 3.49824 46.332 5.24766 46.332 6.5416V7.15234L40.1936 7.12129C33.8066 7.07988 33.5996 7.06953 33.0613 6.62441L32.8232 6.42773L33.0406 6.21035C33.2994 5.94121 34.2518 5.69277 35.0178 5.69277C35.525 5.69277 35.5664 5.67207 35.6285 5.40293C35.8873 4.22285 36.0322 3.77773 36.3945 3.04277C37.0777 1.63496 38.1543 0.734375 39.5518 0.361719C40.3074 0.16504 41.6428 0.175391 42.3674 0.361719Z" fill="#2A373F"/>
<path d="M46.0007 8.47754C45.8869 10.465 44.3652 12.2766 42.3052 12.877C41.3115 13.1668 39.6656 13.0529 38.8892 12.6285C38.6718 12.5146 38.6097 12.5457 38.1439 13.0012L37.6367 13.498L36.7568 13.0736C35.7734 12.5768 35.8666 12.7527 35.6699 11.024C35.5146 9.61621 35.525 9.52305 35.8148 9.52305C36.0529 9.52305 36.0632 9.50234 35.9701 9.1918C35.9183 9.00547 35.8769 8.58105 35.8769 8.26016V7.65977H38.1646C39.9554 7.65977 40.4419 7.69082 40.4005 7.78398C40.3798 7.85645 40.2763 8.28086 40.1728 8.71562L39.9761 9.52305H38.2371H36.498V9.78184V10.0406H38.3509C39.6759 10.0406 40.2349 10.0717 40.2867 10.1648C40.3384 10.2373 40.0175 10.61 39.4585 11.1482C38.8478 11.7383 38.5683 12.0695 38.6097 12.173C38.6408 12.2662 38.7443 12.318 38.8271 12.2973C39.1066 12.2352 41.1044 10.1648 42.0878 8.9123L43.0712 7.67012L44.5619 7.65977H46.0525L46.0007 8.47754ZM36.1046 10.7342C36.3117 12.4732 36.2392 12.2869 36.9328 12.6389L37.5642 12.9598L37.8748 12.6492L38.1853 12.3387L37.5332 11.7383C37.1812 11.407 36.7464 10.8895 36.5808 10.5893C36.146 9.81289 35.9908 9.86465 36.1046 10.7342Z" fill="#2A373F"/>
<path d="M42.1707 8.09474C41.974 8.34318 41.5599 8.85041 41.2597 9.24377C40.7732 9.85451 40.68 9.92697 40.5558 9.7924C40.4212 9.65783 40.4316 9.52326 40.649 8.67443L40.8974 7.71174L41.7152 7.68068L42.533 7.64963L42.1707 8.09474Z" fill="#2A373F"/>
<path d="M23.9208 17.4525C28.7033 20.5476 32.6058 23.1252 32.5954 23.1769C32.5747 23.239 32.0986 24.005 31.5189 24.8953C30.5148 26.4377 30.463 26.4998 30.2456 26.3652C30.1318 26.2824 26.1878 23.7359 21.4986 20.7029L12.9792 15.1855L13.031 14.7818C13.1449 13.933 14.1075 12.4216 14.7908 11.9972C14.9771 11.8937 15.1427 11.8006 15.1738 11.8006C15.2048 11.8109 19.1384 14.347 23.9208 17.4525Z" fill="#2A373F"/>
<path d="M49.541 12.3167C54.6133 12.9378 58.3088 15.8155 60.141 20.5462C60.8242 22.3266 61.4039 25.1112 61.2279 25.8462C61.0416 26.6743 60.3584 27.2229 59.5096 27.2229C58.8678 27.2229 58.4744 27.0469 58.0914 26.6018C57.8119 26.2602 57.7601 26.1153 57.4289 24.3659C56.901 21.6538 55.9279 19.7077 54.3648 18.2481C53.7851 17.6995 52.4187 16.7678 52.2014 16.7678C52.1599 16.7678 52.3566 17.2233 52.6361 17.7719C53.9094 20.3391 54.5926 22.8028 54.9756 26.3223C55.0998 27.5024 55.1101 27.9682 55.0273 28.5272C54.8928 29.3553 54.5408 30.2766 54.1889 30.7321C54.0129 30.9702 46.3424 37.2432 44.9242 38.3094C44.831 38.3819 40.1418 37.6469 40.0693 37.5538C40.059 37.5331 40.1004 37.1915 40.1521 36.7878C40.2763 35.8975 40.1521 35.4835 39.6656 35.1833C39.1584 34.8727 38.6305 34.9245 38.206 35.3178C37.8955 35.6077 37.8127 35.7733 37.7092 36.353C37.6367 36.736 37.5539 37.0465 37.5021 37.0465C37.1088 37.088 37.0984 37.0672 37.1605 36.56C37.2744 35.8044 37.4297 35.3799 37.7299 35.0487C38.2578 34.469 39.0135 34.3241 39.7588 34.6657L40.1728 34.852L43.6406 32.0571L47.1084 29.2622L47.098 28.7756C47.0773 28.1649 46.8289 26.9227 46.4562 25.6184L46.1664 24.5936L46.8185 23.6206C48.423 21.2604 49.6342 17.9893 49.5203 16.302C49.4892 15.7741 49.4168 15.536 49.1683 15.1944C48.7853 14.6251 47.9365 14.1799 47.2637 14.1799C46.6012 14.1799 45.742 14.6251 45.3797 15.1633C45.1933 15.4325 45.0174 15.9294 44.8724 16.6126C44.6551 17.6477 44.1892 19.0452 44.065 19.0452C43.9822 19.0452 43.4853 17.8858 43.3197 17.2854C43.2472 17.0266 43.1955 16.3952 43.1955 15.888C43.2058 13.9626 44.0547 12.7825 45.6799 12.4305C46.4459 12.2753 48.6197 12.2131 49.541 12.3167Z" fill="#2A373F"/>
<path d="M48.04 14.8645C49.0131 15.3717 49.2201 16.0031 48.9199 17.5145C48.6508 18.7981 48.2057 20.0713 47.5639 21.3756C46.7771 22.9594 46.9117 22.918 45.9076 21.8828C45.4314 21.3963 44.8103 20.8477 44.5412 20.6717C44.2721 20.4957 44.065 20.299 44.0961 20.2473C44.1168 20.1852 44.3342 19.709 44.5619 19.1914C44.9346 18.3633 45.1312 17.7008 45.5246 16.0238C45.7627 14.9783 47.0877 14.3676 48.04 14.8645Z" fill="#2A373F"/>
<path d="M44.2617 21.0846C45.1623 21.7678 46.4355 23.0618 46.4355 23.2895C46.4355 23.4965 44.9346 25.2873 44.0857 26.0844C42.5537 27.5336 40.7939 28.6827 38.8893 29.5108C37.6574 30.0387 37.1502 30.1733 36.674 30.0801C36.2393 29.9973 35.6389 29.5211 35.4008 29.076C35.1834 28.6412 35.2145 27.8649 35.4939 27.3784C35.7424 26.9332 35.8459 26.8711 37.7506 26.0016C39.9037 25.0079 41.8498 23.4448 43.1437 21.6643C43.4854 21.1881 43.7959 20.8051 43.8373 20.8051C43.8684 20.8051 44.065 20.9293 44.2617 21.0846Z" fill="#2A373F"/>
<path d="M33.1856 24.4804C33.2891 24.8013 33.4858 24.9772 34.5002 25.6294L35.6907 26.4058L35.4112 26.6853C35.2456 26.8405 35.0282 27.1614 34.9247 27.4099C34.7901 27.7101 34.6762 27.8446 34.5727 27.8032C34.5002 27.7722 34.0034 27.4616 33.4754 27.0993C32.6887 26.5714 32.4196 26.4368 31.9848 26.3954L31.4569 26.3437L32.1608 25.2567C32.5438 24.6667 32.9061 24.1595 32.9579 24.1388C33.02 24.1181 33.1131 24.2733 33.1856 24.4804Z" fill="#2A373F"/>
<path d="M41.4357 30.1023C42.0258 30.4854 42.502 30.8373 42.502 30.8891C42.502 31.034 41.6635 32.2969 41.56 32.2969C41.3736 32.2969 38.4441 30.3094 38.527 30.2369C38.6305 30.1541 40.2971 29.3881 40.3488 29.4088C40.3695 29.4088 40.8561 29.7297 41.4357 30.1023Z" fill="#2A373F"/>
<path d="M54.1371 32.007C54.1889 32.1726 54.4062 34.9262 54.4062 35.423C54.4062 35.7129 54.3545 35.8164 54.1992 35.8682C54.0854 35.8992 53.2883 36.8308 52.4291 37.9178C51.5596 39.015 50.8039 39.9674 50.7314 40.0398C50.6383 40.1433 50.5348 40.1433 50.1725 40.0088C49.4479 39.7603 49.0752 39.8017 48.6301 40.2055C48.2885 40.5264 48.2471 40.6092 48.2471 41.0853C48.2471 41.5305 48.2988 41.6547 48.5887 41.9549C48.8164 42.1826 48.8992 42.3586 48.8578 42.4724C48.775 42.7105 48.6818 42.6898 48.3195 42.3896C47.8848 42.0273 47.6467 41.3752 47.7295 40.8058C47.802 40.2883 48.3713 39.5844 48.7957 39.4705C49.0441 39.4084 49.0545 39.398 48.982 38.6217C48.951 38.1869 48.8992 37.4416 48.8578 36.9551L48.7957 36.0752L51.2594 34.1084C54.2406 31.7172 54.0854 31.831 54.1371 32.007Z" fill="#2A373F"/>
<path d="M54.7479 36.354C54.841 36.4057 54.9238 36.53 54.9238 36.6231C54.9238 36.8302 49.924 43.1446 49.6963 43.2274C49.51 43.2999 49.2305 43.0929 49.2305 42.8858C49.2305 42.7098 54.2303 36.385 54.4373 36.3022C54.5098 36.2712 54.6547 36.2919 54.7479 36.354Z" fill="#2A373F"/>
<path d="M56.7146 36.8088C56.7561 36.8502 56.7871 36.9537 56.7871 37.0469C56.7871 37.14 56.166 38.9308 55.4104 41.0426C54.0957 44.7277 54.0336 44.8726 53.7645 44.9037C53.5367 44.9347 53.4746 44.883 53.4229 44.6967C53.3918 44.5414 53.8576 43.1025 54.7479 40.6285C56.0314 37.0365 56.135 36.7984 56.373 36.7674C56.518 36.7467 56.6732 36.7674 56.7146 36.8088Z" fill="#2A373F"/>
<path d="M55.2344 37.6794C55.2344 37.814 54.0232 41.2093 53.9508 41.2818C53.8369 41.3853 52.4291 40.847 52.4809 40.7125C52.5119 40.64 53.0812 39.905 53.7437 39.0769C54.81 37.7519 55.2344 37.3482 55.2344 37.6794Z" fill="#2A373F"/>
<path d="M41.1046 38.249C45.0071 38.9426 45.2142 39.0047 44.9761 39.4498C44.9243 39.5637 44.8208 39.6465 44.7587 39.6465C44.3757 39.6465 36.7362 38.2594 36.6224 38.1662C36.5499 38.1145 36.4981 37.9592 36.5188 37.8453C36.5706 37.4934 37.0882 37.5348 41.1046 38.249Z" fill="#2A373F"/>
<path d="M58.3916 38.6304C59.0748 38.8581 59.6441 39.0651 59.6545 39.0755C59.7269 39.1272 58.3502 42.802 58.257 42.8331C58.1638 42.8642 55.783 42.0671 55.6588 41.9636C55.5863 41.9015 56.9424 38.1956 57.0459 38.206C57.0976 38.206 57.7084 38.4026 58.3916 38.6304Z" fill="#2A373F"/>
<path d="M61.0623 38.3616C61.1037 38.403 61.1348 38.5169 61.1348 38.61C61.1348 38.7757 58.5262 46.1563 58.3916 46.3737C58.2777 46.5497 57.843 46.4876 57.7705 46.2805C57.7395 46.1667 58.2777 44.5104 59.0955 42.2227C60.3791 38.6411 60.5033 38.3512 60.7311 38.3202C60.876 38.2995 61.0209 38.3202 61.0623 38.3616Z" fill="#2A373F"/>
<path d="M37.1813 39.4589C37.0985 40.1732 37.0157 40.3284 36.7569 40.2249C36.612 40.1732 36.5913 40.0696 36.6431 39.6659C36.7569 38.931 36.8087 38.8171 37.0364 38.8171C37.2331 38.8171 37.2434 38.8585 37.1813 39.4589Z" fill="#2A373F"/>
<path d="M41.1563 39.5418C41.6946 39.635 42.4813 39.7799 42.9057 39.8523L43.6614 39.9766L43.5889 40.6184C43.5579 40.96 43.4958 41.2809 43.4543 41.3223C43.3819 41.3947 39.6657 40.7736 39.5622 40.6701C39.5311 40.6391 39.5518 40.3285 39.6139 39.9766C39.7485 39.2312 39.6553 39.2623 41.1563 39.5418Z" fill="#2A373F"/>
<path d="M63.0602 40.1416C64.7164 40.7006 65.1822 41.0008 65.648 41.8393C65.9068 42.3051 65.9482 42.5018 65.9482 43.1643C65.9482 43.8268 65.9068 44.0234 65.6377 44.4996C65.2754 45.1621 64.7785 45.5969 64.0953 45.835C63.6813 45.9799 63.5674 46.0834 63.4018 46.4354C63.1223 47.015 62.6564 47.4395 62.3045 47.4395C62.0664 47.4395 59.1059 46.4457 58.9816 46.3215C58.9609 46.3008 58.992 46.1973 59.0541 46.0834C59.1576 45.8867 59.2197 45.9074 60.7207 46.4354C61.9111 46.8598 62.3355 46.9736 62.4805 46.8908C62.8014 46.7148 63.143 45.866 63.1533 45.2346V44.6652L61.6006 44.1062C60.7414 43.7957 60.0375 43.5369 60.0168 43.5162C59.9857 43.4955 60.9691 40.6902 61.3107 39.7689C61.3832 39.593 61.4246 39.6033 63.0602 40.1416Z" fill="#2A373F"/>
<path d="M40.3489 41.3534C42.3778 41.7157 44.1376 42.0366 44.2618 42.0781C44.593 42.1816 44.5102 42.6888 44.1583 42.7302C44.0133 42.7406 42.1501 42.4507 40.0176 42.0781C35.9598 41.3741 35.7528 41.312 35.9909 40.8773C36.053 40.7531 36.1979 40.6806 36.3739 40.6909C36.5292 40.6909 38.32 40.9911 40.3489 41.3534Z" fill="#2A373F"/>
<path d="M36.5912 42.017C36.705 42.0895 36.6947 42.3275 36.4876 43.4662C36.291 44.6359 36.2289 44.8223 36.0632 44.8223C35.9597 44.8223 35.8458 44.7602 35.8251 44.6877C35.763 44.491 36.2289 41.9963 36.3427 41.9549C36.3945 41.9445 36.5083 41.9652 36.5912 42.017Z" fill="#2A373F"/>
<path d="M41.2805 42.7934C42.2949 42.9797 43.1334 43.1453 43.1541 43.1764C43.1955 43.2178 42.8125 45.8678 42.7607 45.9403C42.7297 45.9713 39.0445 45.3606 38.8168 45.2881C38.734 45.2674 38.765 44.8533 38.941 43.8699C39.0756 43.1143 39.1895 42.4828 39.1895 42.4621C39.1895 42.4207 39.4068 42.4518 41.2805 42.7934Z" fill="#2A373F"/>
<path d="M51.8599 43.2784C52.481 43.4958 53.0089 43.7028 53.0399 43.7235C53.0606 43.7546 53.0503 43.8685 53.0089 43.9823C52.9468 44.179 52.9054 44.179 51.7046 43.7546C51.0317 43.5268 50.4728 43.2991 50.4728 43.2681C50.4728 43.237 50.5349 43.1335 50.597 43.0403C50.7212 42.8851 50.8351 42.9058 51.8599 43.2784Z" fill="#2A373F"/>
<path d="M56.2385 44.8423C57.1391 45.1632 57.4082 45.3081 57.4082 45.453C57.4082 45.5565 57.3668 45.66 57.315 45.6911C57.2426 45.7428 54.7582 44.894 54.6443 44.7905C54.5512 44.6973 54.7582 44.4075 54.9135 44.4178C55.0066 44.4178 55.607 44.6145 56.2385 44.8423Z" fill="#2A373F"/>
<path d="M39.6554 45.9288C43.4337 46.5913 43.827 46.6948 43.7132 47.0364C43.5993 47.3677 43.2991 47.3366 39.5518 46.6948C37.4608 46.3325 35.6286 46.0116 35.4837 45.9702C35.2559 45.9081 35.2042 45.8357 35.2042 45.5872C35.2042 45.3284 35.2456 45.287 35.5147 45.2663C35.6804 45.256 37.5436 45.5562 39.6554 45.9288Z" fill="#2A373F"/>
<path d="M35.7632 46.5708C35.8874 46.6536 35.8667 46.9021 35.639 48.2271C35.494 49.0966 35.3905 49.8626 35.4216 49.9351C35.5251 50.1939 36.3118 50.463 36.9847 50.463C37.3366 50.463 37.6679 50.4112 37.73 50.3595C37.7817 50.2974 37.9577 49.5314 38.113 48.6515C38.2579 47.7716 38.3925 47.0366 38.4028 47.0263C38.4339 46.9952 42.4089 47.6991 42.4503 47.7405C42.5435 47.8337 41.9534 50.8874 41.7774 51.229C41.4876 51.7983 40.9804 52.2745 40.3386 52.5644C39.8728 52.7817 39.6761 52.8128 39.0964 52.7714C38.703 52.7403 38.2372 52.6265 37.9991 52.5023C37.5333 52.2745 36.7673 51.4981 36.6638 51.1669C36.612 51.022 36.4774 50.9392 36.2083 50.8874C35.7425 50.8149 35.2146 50.5044 34.9972 50.1731C34.8523 49.9351 34.8523 49.8005 35.1317 48.2271C35.287 47.3058 35.463 46.5294 35.5251 46.5087C35.5769 46.4983 35.6804 46.519 35.7632 46.5708Z" fill="#2A373F"/>
</g>
<path d="M9.84422 18.3783C9.45606 18.7032 9.19443 19.0743 9.04117 19.604C8.9705 20.4543 8.93766 21.2151 9.39943 21.9195C9.87591 22.4852 10.3834 22.6703 11.0613 22.7152C11.5924 22.6941 11.9642 22.5431 12.3553 22.1231C12.9023 21.4275 13.0253 20.9171 13.0164 19.9795C12.9388 19.2798 12.6405 18.7911 12.1644 18.3587C11.423 17.8604 10.582 17.8947 9.84422 18.3783Z" fill="black"/>
<path d="M8.81317 4C8.81317 13.8208 8.81317 23.6416 8.81317 33.76C8.33797 33.76 7.86277 33.76 7.37317 33.76C7.37317 24.256 7.37317 14.752 7.37317 4.96C6.58117 5.2768 5.78917 5.5936 4.97317 5.92C4.97317 15.7408 4.97317 25.5616 4.97317 35.68C4.65637 35.68 4.33957 35.68 4.01317 35.68C4.01317 26.176 4.01317 16.672 4.01317 6.88C3.06277 7.1968 2.11237 7.5136 1.13317 7.84C1.13317 18.4528 1.13317 29.0656 1.13317 40C0.816367 40 0.499567 40 0.173167 40C0.13982 35.8317 0.114224 31.6635 0.0985565 27.4952C0.0910376 25.5597 0.0808369 23.6243 0.0645337 21.6889C0.048902 19.8215 0.0402799 17.9542 0.0365433 16.0868C0.03388 15.3739 0.0286793 14.661 0.0209152 13.9482C0.0104808 12.9505 0.0090216 11.9533 0.00968994 10.9557C0.00649226 10.3875 0.00329458 9.81942 0 9.23408C0.173167 7.84 0.173167 7.84 0.830259 6.9384C1.61317 6.4 1.61317 6.4 2.78317 6.19C4.09059 6.02443 4.09059 6.02443 4.94317 4.93C5.93317 4 5.93317 4 8.81317 4Z" fill="black"/>
<path d="M4.49317 5.91992C4.49317 15.7407 4.49317 25.5615 4.49317 35.6799C4.33477 35.6799 4.17637 35.6799 4.01317 35.6799C4.01317 26.1759 4.01317 16.6719 4.01317 6.87992C3.06277 7.19672 2.11237 7.51352 1.13317 7.83992C1.13317 18.4527 1.13317 29.0655 1.13317 39.9999C0.816366 39.9999 0.499566 39.9999 0.173166 39.9999C0.13982 35.8317 0.114224 31.6635 0.098557 27.4951C0.091038 25.5596 0.0808369 23.6242 0.0645337 21.6888C0.048902 19.8214 0.0402799 17.9541 0.0365433 16.0867C0.03388 15.3738 0.0286792 14.6609 0.0209152 13.9481C0.0104808 12.9505 0.00902159 11.9532 0.00968994 10.9556C0.00649226 10.3875 0.00329458 9.81934 0 9.23401C0.173166 7.83992 0.173166 7.83992 0.824634 6.94582C1.94317 6.17146 3.13313 5.91992 4.49317 5.91992Z" fill="black"/>
<defs>
<clipPath id="clip0_1659_61">
<rect width="53" height="53" fill="white" transform="matrix(-1 0 0 1 66 0)"/>
</clipPath>
</defs>
</svg>
