<svg width="40" height="40" viewBox="0 0 40 40" fill="none" xmlns="http://www.w3.org/2000/svg">
<path d="M38.0495 19.4315C38.4636 18.2129 38.6817 16.9098 38.692 15.5921C38.692 12.93 37.8185 10.377 36.2637 8.49456C34.7089 6.61217 32.6001 5.55465 30.4012 5.55465H29.966C29.6107 3.97151 28.838 2.57221 27.7655 1.56963C26.6929 0.567053 25.3792 0.0160888 24.0243 0.000562662C23.105 -0.0132772 22.1953 0.228366 21.3653 0.706902C20.5352 1.18544 19.8069 1.88812 19.2363 2.76088C18.4433 2.56202 17.6349 2.46668 16.8251 2.47648C16.4589 2.47648 16.0997 2.47648 15.7473 2.53503C13.0188 2.82917 10.472 4.31584 8.58271 6.71732L8.52052 6.80097C8.35471 7.01845 8.1958 7.23593 8.04381 7.46177C7.89181 7.68761 7.87799 7.70434 7.80199 7.82981C7.72599 7.95528 7.62236 8.12257 7.53254 8.27314C7.44272 8.4237 7.27691 8.72482 7.15946 8.95903L7.05582 9.16815C6.35598 10.6044 5.88712 12.1881 5.67403 13.8356C5.67403 13.8356 5.67403 13.8941 5.67403 13.9276C5.67403 14.12 5.61876 14.304 5.59803 14.4964C3.994 14.7354 2.52477 15.7028 1.48733 17.2031C0.449898 18.7034 -0.0783366 20.6246 0.00941447 22.5783C0.0971655 24.532 0.794357 26.3725 1.96004 27.7278C3.12573 29.083 4.67295 29.8518 6.28893 29.8789H35.3273C36.3259 29.8497 37.2919 29.4433 38.0901 28.7164C38.8883 27.9895 39.4788 26.9786 39.7789 25.8252C40.0789 24.6718 40.0735 23.4337 39.7634 22.2842C39.4533 21.1347 38.854 20.1314 38.0495 19.4148V19.4315ZM35.2859 28.2227H6.2682C4.9757 28.175 3.74882 27.5224 2.8456 26.4021C1.94237 25.2818 1.43319 23.781 1.42513 22.2155C1.41708 20.65 1.91078 19.1418 2.80241 18.0079C3.69404 16.874 4.91411 16.203 6.20602 16.1358H6.83473L6.87619 15.383C7.06729 12.2776 8.24372 9.38218 10.159 7.30353C12.0742 5.22489 14.5796 4.12433 17.1502 4.23246C19.7208 4.3406 22.1571 5.64904 23.9486 7.88362C25.74 10.1182 26.7476 13.1055 26.7602 16.2195C26.7576 17.4447 26.6039 18.6627 26.3042 19.833C26.2602 20.038 26.282 20.2557 26.3654 20.442C26.4487 20.6283 26.5874 20.7694 26.7533 20.8367C26.818 20.8626 26.8855 20.8767 26.9537 20.8786C27.1069 20.8865 27.258 20.8324 27.3831 20.7249C27.5082 20.6174 27.6002 20.4625 27.6446 20.2847C27.9856 18.9547 28.1603 17.5703 28.1627 16.1777C28.1579 15.5056 28.114 14.8348 28.0315 14.1702C28.7501 14.2454 29.4519 14.4748 30.1042 14.8477C31.4093 15.6263 32.4082 16.9965 32.8842 18.6611C33.3602 20.3257 33.2748 22.1504 32.6467 23.7393C32.6068 23.8386 32.5836 23.9465 32.5784 24.0567C32.5731 24.167 32.586 24.2774 32.6162 24.3816C32.6464 24.4858 32.6933 24.5817 32.7543 24.6638C32.8152 24.746 32.889 24.8127 32.9714 24.8601C33.065 24.9098 33.1662 24.9354 33.2685 24.9354C33.3987 24.9349 33.5262 24.8899 33.6362 24.8056C33.7462 24.7212 33.8343 24.601 33.8903 24.4586C34.6746 22.4692 34.7785 20.1854 34.1795 18.1038C33.5805 16.0221 32.3269 14.3108 30.6914 13.3421C29.7629 12.8061 28.7492 12.5207 27.7206 12.5056C27.2295 10.4042 26.3324 8.47455 25.1034 6.87607C23.8744 5.27758 22.3488 4.05621 20.6527 3.31294C21.0896 2.78022 21.6096 2.35799 22.1824 2.07079C22.7553 1.78359 23.3697 1.63716 23.9897 1.64002C25.1394 1.65212 26.248 2.15972 27.1165 3.07178C27.9851 3.98384 28.5569 5.2407 28.7293 6.61695L28.8467 7.52032L29.5791 7.30284C29.845 7.23815 30.1165 7.21287 30.3874 7.22756C32.2198 7.22756 33.9771 8.10883 35.2728 9.67749C36.5685 11.2462 37.2964 13.3737 37.2964 15.5921C37.2808 16.9126 37.0236 18.2124 36.5433 19.398L36.2739 20.1174L36.8473 20.4938C37.5004 20.932 38.0164 21.6178 38.316 22.4458C38.6156 23.2738 38.6822 24.198 38.5056 25.0762C38.3289 25.9545 37.9188 26.7382 37.3383 27.3067C36.7578 27.8752 36.0391 28.197 35.2928 28.2227H35.2859ZM14.2757 32.0453C14.1053 31.9661 13.9158 31.9717 13.7488 32.0611C13.5818 32.1504 13.4508 32.3161 13.3844 32.5221L12.3205 35.8679C12.2882 35.9706 12.273 36.08 12.2757 36.1898C12.2784 36.2996 12.299 36.4077 12.3362 36.5079C12.3734 36.6081 12.4266 36.6985 12.4926 36.7738C12.5587 36.8491 12.6363 36.9079 12.7212 36.9469C12.8 36.9865 12.8846 37.0064 12.9699 37.0055C13.1099 37.0043 13.2463 36.9517 13.361 36.8546C13.4758 36.7575 13.5634 36.6205 13.6124 36.4618L14.6764 33.1159C14.7394 32.9095 14.7326 32.6814 14.6576 32.481C14.5826 32.2806 14.4454 32.1241 14.2757 32.0453ZM27.1195 32.0453C26.949 31.9661 26.7596 31.9717 26.5926 32.0611C26.4256 32.1504 26.2946 32.3161 26.2282 32.5221L25.1642 35.8679C25.132 35.9706 25.1168 36.08 25.1195 36.1898C25.1222 36.2996 25.1428 36.4077 25.18 36.5079C25.2172 36.6081 25.2703 36.6985 25.3364 36.7738C25.4025 36.8491 25.4801 36.9079 25.565 36.9469C25.6416 36.9856 25.7238 37.0055 25.8068 37.0055C25.9479 37.006 26.0859 36.9542 26.202 36.857C26.3181 36.7598 26.4068 36.6219 26.4562 36.4618L27.5202 33.1159C27.5831 32.9095 27.5764 32.6814 27.5014 32.481C27.4264 32.2806 27.2892 32.1241 27.1195 32.0453ZM21.1363 32.0369C20.9641 31.9616 20.7742 31.9721 20.6083 32.0662C20.4425 32.1603 20.3143 32.3303 20.252 32.5388L18.3727 38.8791C18.3105 39.0877 18.3192 39.3176 18.3969 39.5184C18.4747 39.7191 18.6151 39.8743 18.7873 39.9498C18.8626 39.9829 18.9421 39.9999 19.0222 40C19.1642 39.9999 19.3027 39.9469 19.4189 39.8481C19.5351 39.7493 19.6233 39.6096 19.6716 39.4479L21.5508 33.1076C21.6131 32.899 21.6044 32.6691 21.5266 32.4684C21.4489 32.2676 21.3085 32.1124 21.1363 32.0369Z" fill="black"/>
</svg>
