<svg width="69" height="56" viewBox="0 0 69 56" fill="none" xmlns="http://www.w3.org/2000/svg">
<path d="M36.0206 17.6688C34.6761 18.9543 34.052 20.4722 34.0001 22.316C34.0536 24.1423 34.6437 25.6187 35.9871 26.8937C37.3632 27.9868 38.9244 28.5343 40.6879 28.3775C42.463 28.1102 43.8851 27.3506 45.0125 25.9358C46.0123 24.4157 46.1469 22.8817 46.0221 21.1037C45.6945 19.5309 44.8398 18.2467 43.5268 17.3253C41.1489 15.8654 38.2586 15.903 36.0206 17.6688Z" fill="black"/>
<path d="M48.9316 41.9551C48.7182 42.0084 48.5048 42.0618 48.285 42.1167C47.7516 42.1167 47.2182 42.1167 46.6686 42.1167H43.9207L43.759 53.5932C43.3754 54.642 44.703 55.1471 45.8604 55.5329C47.0433 55.6398 48.1308 55.6526 49.0932 54.8863C50.1 53.7788 50.1334 52.6988 50.086 51.2583C50.0102 49.8925 49.8246 48.5329 49.6576 47.1758C49.5876 46.6075 49.5197 46.039 49.4521 45.4704C49.4086 45.1079 49.3649 44.7454 49.3211 44.3828C49.3008 44.2135 49.2804 44.0441 49.2594 43.8696C49.2303 43.6338 49.2303 43.6338 49.2006 43.3933C49.1837 43.2556 49.1668 43.1179 49.1494 42.976C49.0971 42.6276 49.0236 42.295 48.9316 41.9551Z" fill="black"/>
<path d="M44.9895 32.9043C43.9289 33.4797 43.7655 33.7125 43.6431 33.955C43.4598 34.1 43.8879 35.0056 43.8879 35.0056V37.511V38.885V39.8548C43.8879 40.7083 43.8879 41.5618 43.8879 42.4411C45.0189 42.4411 46.1499 42.4411 47.3152 42.4411C47.1284 42.2811 46.9416 42.121 46.7491 41.9562C44.8756 39.9833 45.1015 36.982 44.9742 34.7329C44.9637 34.5558 45.0004 34.299 44.9895 34.1166C44.9639 33.6859 45.0139 33.335 44.9895 32.9043Z" fill="black"/>
<path d="M41.3345 3C41.1745 3.05334 41.0145 3.10668 40.8496 3.16164C40.9133 3.70281 41.023 3.98708 41.3345 4.44466C41.6969 4.99952 41.8195 5.24794 41.8195 5.90953C41.7218 6.18478 41.6164 6.45734 41.5063 6.72783C41.0632 7.86093 40.9448 9.02421 41.2966 10.2037C41.4558 10.5567 41.4558 10.5567 41.8195 11.082C42.1655 11.1957 42.1655 11.1957 42.466 11.2437C42.5091 10.7408 42.5083 10.4989 42.2236 10.0718C41.8722 9.42762 41.8756 8.8918 41.9811 8.17249C42.1311 7.71002 42.3052 7.26117 42.4812 6.80802C42.8476 5.77348 42.5807 4.97792 42.168 4.00962C41.9516 3.58934 41.7065 3.29229 41.3345 3Z" fill="black"/>
<path d="M35.677 3C35.4637 3.05334 35.2503 3.10668 35.0305 3.16164C35.1028 3.63161 35.2251 3.85248 35.5154 4.24261C35.9243 4.91989 36.0586 5.44335 36.0003 6.23281C35.8581 6.69136 35.6842 7.12915 35.5053 7.57455C35.1054 8.726 35.3544 9.67845 35.8387 10.7587C35.9454 10.9188 36.0521 11.0788 36.162 11.2437C36.322 11.2437 36.482 11.2437 36.6469 11.2437C36.8085 10.7587 36.8085 10.7587 36.6829 10.4683C36.621 10.3641 36.5591 10.2599 36.4954 10.1526C36.157 9.5042 36.0596 9.07608 36.162 8.33413C36.2646 8.07275 36.3728 7.81356 36.4853 7.55624C36.9404 6.48877 36.9808 5.50641 36.6065 4.40425C36.3774 3.86399 36.0724 3.43624 35.677 3Z" fill="black"/>
<path d="M38.4249 3C38.2648 3.05334 38.1048 3.10668 37.9399 3.16164C38.0034 3.70116 38.1097 3.98159 38.4249 4.43456C38.811 5.03796 38.9098 5.35326 38.9098 6.07117C38.8139 6.35703 38.7085 6.6398 38.5966 6.91978C38.1371 8.0829 38.0669 9.17566 38.4855 10.3647C38.7481 10.9204 38.7481 10.9204 39.0714 11.2437C39.2314 11.2437 39.3915 11.2437 39.5563 11.2437C39.603 10.7145 39.5678 10.457 39.3139 9.98084C39.0192 9.35457 38.9577 8.84631 39.0714 8.17249C39.1718 7.90358 39.2801 7.63753 39.3947 7.37439C39.8025 6.41707 39.9304 5.65761 39.5525 4.66818C39.2451 4.02529 38.9562 3.48304 38.4249 3Z" fill="black"/>
<path d="M40.5982 14.7842C40.1906 15.1338 39.8774 15.5022 39.5564 15.9315C39.7089 15.9436 39.8614 15.9556 40.0186 15.9681C41.8255 16.1531 43.5189 16.5939 44.7939 17.9911C45.9385 19.6086 46.494 21.2277 46.3453 23.2053C46.1868 24.0084 45.9388 24.7257 45.5169 25.4278C45.0213 26.2869 45.0277 27.1547 44.9954 28.1315C44.9915 28.247 44.9877 28.3626 44.9837 28.4816C44.9718 28.8578 44.9613 29.234 44.9512 29.6103C44.9476 29.7395 44.9441 29.8687 44.9405 30.0018C44.8604 33.0722 44.8601 36.1379 45.2744 39.1875C45.2928 39.3239 45.3112 39.4604 45.3302 39.601C45.4794 40.5672 45.6983 41.3394 46.4463 42.0162C47.1438 42.352 47.6859 42.4138 48.4466 42.2788C49.1551 41.9246 49.6106 41.5673 49.9014 40.8241C50.0047 39.9631 49.8936 39.1459 49.7391 38.2985C49.4596 36.3762 49.53 34.4274 49.5377 32.4895C49.538 32.2828 49.5383 32.0761 49.5386 31.8632C49.5442 28.4299 49.6475 25.0127 49.9014 21.5889C50.0614 21.5889 50.2215 21.5889 50.3863 21.5889C50.333 21.7489 50.2796 21.9089 50.2247 22.0738C50.1914 22.3735 50.1655 22.674 50.1439 22.9748C50.1306 23.1575 50.1174 23.3401 50.1037 23.5283C50.0903 23.7251 50.0769 23.9219 50.063 24.1246C50.042 24.43 50.042 24.43 50.0205 24.7415C49.8402 27.4287 49.7273 30.1092 49.7196 32.8027C49.7188 32.9823 49.7181 33.1619 49.7173 33.347C49.7193 34.3944 49.7736 35.4201 49.9014 36.4598C50.2935 36.1479 50.6627 35.8271 51.0329 35.49C51.1864 35.3527 51.3399 35.2155 51.498 35.0742C52.9637 33.6815 53.3832 32.3853 53.7202 30.4286C53.7702 30.1686 53.8209 29.9088 53.8723 29.6491C53.9661 29.1725 54.0556 28.6954 54.1411 28.2172C54.2613 27.5621 54.4218 26.9211 54.589 26.2765C54.6957 26.2765 54.8024 26.2765 54.9123 26.2765C54.8754 26.4181 54.8386 26.5598 54.8007 26.7058C54.3326 28.5389 53.9217 30.3825 53.5263 32.2326C53.4163 32.746 53.3043 33.2589 53.1923 33.7719C53.1215 34.1021 53.0508 34.4323 52.9802 34.7626C52.9302 34.9897 52.9302 34.9897 52.8792 35.2213C52.4125 37.4357 52.4125 37.4357 52.9019 38.4323C52.9612 38.5541 53.0206 38.6759 53.0818 38.8014C53.5186 39.6306 53.9683 40.4515 54.4273 41.2686C54.5363 41.4635 54.6452 41.6584 54.7541 41.8533C55.6243 43.4088 56.5063 44.9574 57.3942 46.5027C57.7501 47.1232 58.1045 47.7444 58.4589 48.3657C58.8466 49.0452 59.2351 49.7243 59.6238 50.4032C60.0109 51.0792 60.3958 51.7563 60.7781 52.435C60.9342 52.7101 61.0904 52.9852 61.2466 53.2603C61.3146 53.3825 61.3827 53.5048 61.4528 53.6307C61.9928 54.5769 62.6256 55.3952 63.6409 55.8566C64.6951 56.1243 65.5792 56.019 66.5504 55.5334C67.3452 55.0374 67.8233 54.4949 68.0961 53.593C68.4895 51.798 67.3697 50.1864 66.51 48.6838C66.3625 48.4232 66.3625 48.4232 66.212 48.1573C65.895 47.598 65.5764 47.0396 65.2573 46.4815C65.15 46.2937 65.0428 46.1059 64.9356 45.9181C64.5039 45.1623 64.072 44.4067 63.6393 43.6515C62.6237 41.8782 61.6203 40.098 60.6319 38.3094C60.4943 38.0666 60.3519 37.8264 60.2019 37.591C59.5954 36.6337 59.701 35.7986 59.9377 34.7202C59.9636 34.6076 59.9896 34.4951 60.0163 34.3791C60.0569 34.1964 60.0569 34.1964 60.0983 34.0099C60.1568 33.747 60.2158 33.4841 60.2753 33.2214C60.3696 32.8042 60.4622 32.3867 60.5543 31.969C60.8161 30.782 61.0805 29.5956 61.3476 28.4097C61.5112 27.6826 61.6723 26.955 61.8318 26.2269C61.8927 25.9511 61.9546 25.6756 62.0176 25.4003C62.8376 21.812 62.8376 21.812 61.9133 20.3362C61.7393 20.1038 61.5609 19.8746 61.3779 19.6492C61.2619 19.4998 61.2619 19.4998 61.1437 19.3474C58.6638 16.29 54.6384 14.0169 50.8713 13.0219C50.7294 12.9828 50.5875 12.9436 50.4413 12.9032C47.0609 12.13 43.3867 12.7396 40.5982 14.7842Z" fill="black"/>
<path d="M7.70925 0C7.89372 0.0512405 7.97832 0.105094 8.10798 0.248778C8.29022 0.620003 8.20386 0.969854 8.07812 1.34954C8.06098 1.39902 8.04385 1.4485 8.02619 1.49949C7.99089 1.60567 7.95568 1.71189 7.92055 1.81813C7.90311 1.87028 7.88568 1.92243 7.86772 1.97617C7.76213 2.29751 7.66997 2.6228 7.57661 2.94785C7.54573 3.05332 7.51333 3.15821 7.4805 3.26309C7.34924 3.69266 7.23961 4.05764 7.39232 4.49164C7.50484 4.6546 7.58713 4.7113 7.76378 4.79835C7.91904 4.82199 7.91904 4.82199 8.08572 4.8176C8.14923 4.8178 8.21274 4.818 8.27817 4.81821C8.34628 4.8177 8.41439 4.81719 8.48456 4.81667C8.59208 4.81718 8.6996 4.81769 8.80712 4.81829C9.07167 4.81951 9.33623 4.81897 9.60078 4.818C9.74948 4.81752 9.89814 4.81776 10.0468 4.81876C10.1867 4.81962 10.3266 4.81937 10.4665 4.81787C10.9918 4.82237 10.9918 4.82237 11.1592 4.98172C11.2638 5.14128 11.2987 5.25029 11.3217 5.43904C11.3287 5.49162 11.3357 5.54419 11.343 5.59836C11.3494 5.65825 11.3559 5.71813 11.3625 5.77984C11.3717 5.84859 11.3809 5.91734 11.3903 5.98817C11.4292 6.33963 11.427 6.69137 11.4281 7.0446C11.4284 7.09916 11.4284 7.09916 11.4286 7.15482C11.4294 7.34688 11.4299 7.53894 11.4302 7.731C11.4305 7.92833 11.4318 8.12564 11.4333 8.32296C11.4344 8.47584 11.4346 8.62871 11.4347 8.78159C11.435 8.88944 11.436 8.99729 11.437 9.10514C11.436 9.52607 11.4261 9.83413 11.141 10.1624C10.9644 10.3106 10.8559 10.3125 10.6288 10.3133C10.5666 10.3137 10.5043 10.3141 10.4402 10.3145C10.3388 10.3148 10.3388 10.3148 10.2354 10.3151C10.0931 10.3164 9.95081 10.3177 9.80853 10.3191C9.58358 10.3211 9.35863 10.3227 9.13366 10.3233C8.91699 10.324 8.70036 10.3264 8.4837 10.3288C8.41656 10.3287 8.34941 10.3286 8.28023 10.3285C7.81382 10.3331 7.81382 10.3331 7.43662 10.5782C7.23149 10.9761 7.18491 11.4361 7.10605 11.8732C7.08139 12.0073 7.05657 12.1414 7.03174 12.2755C7.01387 12.372 6.99604 12.4685 6.97825 12.5651C6.90712 12.9501 6.83336 13.3345 6.75866 13.7188C6.49313 15.0855 6.23729 16.453 6.00268 17.8254C5.96856 18.0247 5.93363 18.2239 5.89837 18.423C5.80597 18.9452 5.71782 19.4674 5.64411 19.9926C5.6057 20.2605 5.55798 20.5257 5.50688 20.7915C5.12189 22.7604 5.12189 22.7604 5.09197 24.7551C5.09629 24.809 5.10062 24.8628 5.10507 24.9182C5.20677 26.0931 5.40334 27.2786 5.74629 28.4084C5.77349 28.4981 5.77349 28.4981 5.80124 28.5895C6.55233 30.9373 7.69818 33.1387 8.79968 35.3359C8.83246 35.4013 8.83246 35.4013 8.86589 35.468C8.9089 35.5537 8.952 35.6393 8.99519 35.7248C9.09936 35.9314 9.20188 36.1384 9.30118 36.3474C9.32038 36.3872 9.33957 36.4271 9.35935 36.4682C9.39513 36.5426 9.43039 36.6173 9.46501 36.6923C9.57269 36.9149 9.68209 37.0531 9.89032 37.1872C10.2459 37.2607 10.6085 37.2518 10.9706 37.252C11.0261 37.2527 11.0815 37.2533 11.1386 37.254C11.4697 37.2547 11.7767 37.226 12.1005 37.1562C12.2414 37.1316 12.3651 37.1198 12.5076 37.1327C12.6024 37.2605 12.6024 37.2605 12.6882 37.4326C13.2532 38.4623 14.3852 38.9123 15.4589 39.2422C16.526 39.5529 17.6238 39.6529 18.7305 39.6512C18.7901 39.6511 18.7901 39.6511 18.8509 39.6511C19.4506 39.6497 20.04 39.6339 20.6321 39.5319C20.6755 39.5246 20.7189 39.5173 20.7636 39.5097C22.0347 39.2895 23.7686 38.8918 24.5717 37.7802C24.5989 37.743 24.6262 37.7057 24.6543 37.6673C24.7242 37.5699 24.7242 37.5699 24.7761 37.4599C25.0271 37.4912 25.2247 37.5594 25.4528 37.6675C25.4856 37.6829 25.5183 37.6983 25.552 37.7142C25.6582 37.7642 25.7641 37.8148 25.8701 37.8654C25.9439 37.9002 26.0177 37.935 26.0915 37.9698C26.4183 38.1239 26.7441 38.2797 27.0688 38.4382C27.5736 38.6839 28.0733 38.9017 28.6058 39.0801C28.8362 39.1588 29.0584 39.2497 29.2818 39.3459C29.4308 39.4083 29.5801 39.4675 29.7308 39.5253C31.0497 40.0331 31.0497 40.0331 31.3739 40.6224C31.5779 41.1656 31.5597 41.7219 31.556 42.292C31.556 42.3931 31.556 42.4942 31.5561 42.5953C31.5561 42.8679 31.5552 43.1405 31.554 43.4131C31.553 43.6986 31.5529 43.9842 31.5527 44.2697C31.5522 44.8097 31.5509 45.3496 31.5492 45.8895C31.5474 46.5045 31.5465 47.1196 31.5457 47.7346C31.544 48.999 31.541 50.2634 31.5374 51.5278C30.4578 51.5278 29.3782 51.5278 28.2658 51.5278C28.2644 51.0671 28.263 50.6064 28.2616 50.1318C28.26 49.803 28.2583 49.4741 28.2565 49.1453C28.2541 48.7193 28.252 48.2933 28.2511 47.8673C28.2503 47.4939 28.2484 47.1206 28.2458 46.7472C28.2449 46.6048 28.2445 46.4623 28.2445 46.3198C28.2443 46.1203 28.2429 45.9209 28.2411 45.7214C28.2415 45.6329 28.2415 45.6329 28.2419 45.5426C28.2373 45.2131 28.2144 45.017 27.9932 44.7665C27.7648 44.6083 27.4968 44.6149 27.2298 44.6574C27.0596 44.7492 26.9359 44.8637 26.8481 45.0391C26.8301 47.1804 26.8122 49.3216 26.7936 51.5278C19.6681 51.5278 12.5425 51.5278 5.20102 51.5278C5.18303 48.3969 5.16504 45.2659 5.1465 42.0401C5.01962 41.4058 4.88332 40.8031 4.64918 40.2032C4.58968 40.0468 4.53387 39.8892 4.47792 39.7314C4.33344 39.3255 4.1849 38.9211 4.0353 38.517C4.02199 38.481 4.00867 38.445 3.99496 38.4079C3.92475 38.2182 3.8545 38.0285 3.78419 37.8388C3.71226 37.6446 3.64052 37.4504 3.56882 37.2562C3.51293 37.1049 3.45689 36.9537 3.40082 36.8025C3.37432 36.7309 3.34786 36.6594 3.32147 36.5878C3.1925 36.2381 3.05988 35.8933 2.90519 35.5542C2.82129 35.362 2.75561 35.164 2.68853 34.9655C2.45964 34.3007 2.21421 33.6422 1.96896 32.9834C1.90075 32.8001 1.83272 32.6167 1.76476 32.4334C1.50818 31.741 1.25092 31.0489 0.987984 30.3589C0.892217 30.1076 0.796987 29.856 0.701762 29.6045C0.657499 29.4881 0.612943 29.3718 0.568067 29.2557C0.221634 28.359 -0.0127275 27.5351 0.000535409 26.5648C0.00104939 26.5044 0.00156338 26.4441 0.00209294 26.3819C0.0429448 24.123 1.02813 21.8937 1.78925 19.7962C1.9019 19.4847 2.01082 19.1778 2.08959 18.856C2.17163 18.5365 2.26492 18.2227 2.36563 17.9086C2.48117 17.548 2.59085 17.1866 2.69322 16.8219C2.75382 16.6077 2.81692 16.3943 2.88023 16.1808C2.97347 15.8659 3.06278 15.5502 3.14946 15.2334C3.26897 14.7975 3.40023 14.3656 3.53313 13.9336C3.6318 13.6116 3.72567 13.2888 3.814 12.9637C3.9037 12.6337 4.00211 12.3077 4.10708 11.9823C4.24725 11.5476 4.37053 11.1095 4.48716 10.668C4.5453 10.4493 4.60586 10.2366 4.68579 10.0248C4.79785 9.69591 4.8241 9.35088 4.86099 9.00723C4.88277 8.80528 4.90647 8.60355 4.93009 8.4018C4.93465 8.36269 4.9392 8.32358 4.94389 8.28328C4.99346 7.86241 5.06275 7.4493 5.1465 7.03395C5.16222 6.95039 5.17791 6.86683 5.19357 6.78326C5.36471 5.89484 5.65881 5.08456 6.01337 4.25406C6.21937 3.76481 6.39918 3.2681 6.57442 2.76723C6.58842 2.72726 6.60243 2.68728 6.61686 2.6461C6.74819 2.27081 6.87799 1.89505 7.00424 1.51802C7.41712 0.292137 7.41712 0.292137 7.70925 0Z" fill="black"/>
<path d="M7.70925 0C7.89372 0.0512405 7.97832 0.105094 8.10798 0.248778C8.29022 0.620003 8.20386 0.969854 8.07812 1.34954C8.06098 1.39902 8.04385 1.4485 8.02619 1.49949C7.99089 1.60567 7.95568 1.71189 7.92055 1.81813C7.90311 1.87028 7.88568 1.92243 7.86772 1.97617C7.76213 2.29751 7.66997 2.6228 7.57661 2.94785C7.54573 3.05332 7.51333 3.15821 7.4805 3.26309C7.34924 3.69266 7.23961 4.05764 7.39232 4.49164C7.50484 4.6546 7.58713 4.7113 7.76378 4.79835C7.91904 4.82199 7.91904 4.82199 8.08572 4.8176C8.14923 4.8178 8.21274 4.818 8.27817 4.81821C8.34628 4.8177 8.41439 4.81719 8.48456 4.81667C8.59208 4.81718 8.6996 4.81769 8.80712 4.81829C9.07167 4.81951 9.33623 4.81897 9.60078 4.818C9.74948 4.81752 9.89814 4.81776 10.0468 4.81876C10.1867 4.81962 10.3266 4.81937 10.4665 4.81787C10.9918 4.82237 10.9918 4.82237 11.1592 4.98172C11.2638 5.14128 11.2987 5.25029 11.3217 5.43904C11.3287 5.49162 11.3357 5.54419 11.343 5.59836C11.3494 5.65825 11.3559 5.71813 11.3625 5.77984C11.3717 5.84859 11.3809 5.91734 11.3903 5.98817C11.4292 6.33963 11.427 6.69137 11.4281 7.0446C11.4284 7.09916 11.4284 7.09916 11.4286 7.15482C11.4294 7.34688 11.4299 7.53894 11.4302 7.731C11.4305 7.92833 11.4318 8.12564 11.4333 8.32296C11.4344 8.47584 11.4346 8.62871 11.4347 8.78159C11.435 8.88944 11.436 8.99729 11.437 9.10514C11.436 9.52607 11.4261 9.83413 11.141 10.1624C10.9644 10.3106 10.8559 10.3125 10.6288 10.3133C10.5666 10.3137 10.5043 10.3141 10.4402 10.3145C10.3388 10.3148 10.3388 10.3148 10.2354 10.3151C10.0931 10.3164 9.95081 10.3177 9.80853 10.3191C9.58358 10.3211 9.35863 10.3227 9.13366 10.3233C8.91699 10.324 8.70036 10.3264 8.4837 10.3288C8.41656 10.3287 8.34941 10.3286 8.28023 10.3285C7.81382 10.3331 7.81382 10.3331 7.43662 10.5782C7.23149 10.9761 7.18491 11.4361 7.10605 11.8732C7.08139 12.0073 7.05657 12.1414 7.03174 12.2755C7.01387 12.372 6.99604 12.4685 6.97825 12.5651C6.90712 12.9501 6.83336 13.3345 6.75866 13.7188C6.49313 15.0855 6.23729 16.453 6.00268 17.8254C5.96856 18.0247 5.93363 18.2239 5.89837 18.423C5.80597 18.9452 5.71782 19.4674 5.64411 19.9926C5.6057 20.2605 5.55798 20.5257 5.50688 20.7915C5.12189 22.7604 5.12189 22.7604 5.09197 24.7551C5.09629 24.809 5.10062 24.8628 5.10507 24.9182C5.20677 26.0931 5.40334 27.2786 5.74629 28.4084C5.77349 28.4981 5.77349 28.4981 5.80124 28.5895C6.55233 30.9373 7.69818 33.1387 8.79968 35.3359C8.83246 35.4013 8.83246 35.4013 8.86589 35.468C8.9089 35.5537 8.952 35.6393 8.99519 35.7248C9.09936 35.9314 9.20188 36.1384 9.30118 36.3474C9.32038 36.3872 9.33957 36.4271 9.35935 36.4682C9.39513 36.5426 9.43039 36.6173 9.46501 36.6923C9.57269 36.9149 9.68209 37.0531 9.89032 37.1872C10.2459 37.2607 10.6085 37.2518 10.9706 37.252C11.0261 37.2527 11.0815 37.2533 11.1386 37.254C11.4697 37.2547 11.7767 37.226 12.1005 37.1562C12.2414 37.1316 12.3651 37.1198 12.5076 37.1327C12.6024 37.2605 12.6024 37.2605 12.6882 37.4326C13.2532 38.4623 14.3852 38.9123 15.4589 39.2422C16.526 39.5529 17.6238 39.6529 18.7305 39.6512C18.7901 39.6511 18.7901 39.6511 18.8509 39.6511C19.4506 39.6497 20.04 39.6339 20.6321 39.5319C20.6755 39.5246 20.7189 39.5173 20.7636 39.5097C22.0347 39.2895 23.7686 38.8918 24.5717 37.7802C24.5989 37.743 24.6262 37.7057 24.6543 37.6673C24.7242 37.5699 24.7242 37.5699 24.7761 37.4599C25.0271 37.4912 25.2247 37.5594 25.4528 37.6675C25.4856 37.6829 25.5183 37.6983 25.552 37.7142C25.6582 37.7642 25.7641 37.8148 25.8701 37.8654C25.9439 37.9002 26.0177 37.935 26.0915 37.9698C26.4183 38.1239 26.7441 38.2797 27.0688 38.4382C27.5736 38.6839 28.0733 38.9017 28.6058 39.0801C28.8362 39.1588 29.0584 39.2497 29.2818 39.3459C29.4308 39.4083 29.5801 39.4675 29.7308 39.5253C31.0497 40.0331 31.0497 40.0331 31.3739 40.6224C31.5779 41.1656 31.5597 41.7219 31.556 42.292C31.556 42.3931 31.556 42.4942 31.5561 42.5953C31.5561 42.8679 31.5552 43.1405 31.554 43.4131C31.553 43.6986 31.5529 43.9842 31.5527 44.2697C31.5522 44.8097 31.5509 45.3496 31.5492 45.8895C31.5474 46.5045 31.5465 47.1196 31.5457 47.7346C31.544 48.999 31.541 50.2634 31.5374 51.5278C30.4578 51.5278 29.3782 51.5278 28.2658 51.5278C28.2644 51.0671 28.263 50.6064 28.2616 50.1318C28.26 49.803 28.2583 49.4741 28.2565 49.1453C28.2541 48.7193 28.252 48.2933 28.2511 47.8673C28.2503 47.4939 28.2484 47.1206 28.2458 46.7472C28.2449 46.6048 28.2445 46.4623 28.2445 46.3198C28.2443 46.1203 28.2429 45.9209 28.2411 45.7214C28.2415 45.6329 28.2415 45.6329 28.2419 45.5426C28.2373 45.2131 28.2144 45.017 27.9932 44.7665C27.7648 44.6083 27.4968 44.6149 27.2298 44.6574C27.0596 44.7492 26.9359 44.8637 26.8481 45.0391C26.8301 47.1804 26.8122 49.3216 26.7936 51.5278C19.6681 51.5278 12.5425 51.5278 5.20102 51.5278C5.18303 48.3969 5.16504 45.2659 5.1465 42.0401C5.01962 41.4058 4.88332 40.8031 4.64918 40.2032C4.58968 40.0468 4.53387 39.8892 4.47792 39.7314C4.33344 39.3255 4.1849 38.9211 4.0353 38.517C4.02199 38.481 4.00867 38.445 3.99496 38.4079C3.92475 38.2182 3.8545 38.0285 3.78419 37.8388C3.71226 37.6446 3.64052 37.4504 3.56882 37.2562C3.51293 37.1049 3.45689 36.9537 3.40082 36.8025C3.37432 36.7309 3.34786 36.6594 3.32147 36.5878C3.1925 36.2381 3.05988 35.8933 2.90519 35.5542C2.82129 35.362 2.75561 35.164 2.68853 34.9655C2.45964 34.3007 2.21421 33.6422 1.96896 32.9834C1.90075 32.8001 1.83272 32.6167 1.76476 32.4334C1.50818 31.741 1.25092 31.0489 0.987984 30.3589C0.892217 30.1076 0.796987 29.856 0.701762 29.6045C0.657499 29.4881 0.612943 29.3718 0.568067 29.2557C0.221634 28.359 -0.0127275 27.5351 0.000535409 26.5648C0.00104939 26.5044 0.00156338 26.4441 0.00209294 26.3819C0.0429448 24.123 1.02813 21.8937 1.78925 19.7962C1.9019 19.4847 2.01082 19.1778 2.08959 18.856C2.17163 18.5365 2.26492 18.2227 2.36563 17.9086C2.48117 17.548 2.59085 17.1866 2.69322 16.8219C2.75382 16.6077 2.81692 16.3943 2.88023 16.1808C2.97347 15.8659 3.06278 15.5502 3.14946 15.2334C3.26897 14.7975 3.40023 14.3656 3.53313 13.9336C3.6318 13.6116 3.72567 13.2888 3.814 12.9637C3.9037 12.6337 4.00211 12.3077 4.10708 11.9823C4.24725 11.5476 4.37053 11.1095 4.48716 10.668C4.5453 10.4493 4.60586 10.2366 4.68579 10.0248C4.79785 9.69591 4.8241 9.35088 4.86099 9.00723C4.88277 8.80528 4.90647 8.60355 4.93009 8.4018C4.93465 8.36269 4.9392 8.32358 4.94389 8.28328C4.99346 7.86241 5.06275 7.4493 5.1465 7.03395C5.16222 6.95039 5.17791 6.86683 5.19357 6.78326C5.36471 5.89484 5.65881 5.08456 6.01337 4.25406C6.21937 3.76481 6.39918 3.2681 6.57442 2.76723C6.58842 2.72726 6.60243 2.68728 6.61686 2.6461C6.74819 2.27081 6.87799 1.89505 7.00424 1.51802C7.41712 0.292137 7.41712 0.292137 7.70925 0Z" fill="black"/>
<path d="M14.6064 22.1545C14.7321 22.1536 14.8575 22.1563 14.9833 22.159C15.074 22.1584 15.1648 22.1575 15.2556 22.1563C15.5012 22.154 15.7467 22.1562 15.9923 22.1593C16.2498 22.1619 16.5072 22.1608 16.7646 22.1603C17.1969 22.16 17.629 22.1626 18.0612 22.1669C18.5605 22.1718 19.0596 22.1724 19.5589 22.1708C20.0398 22.1693 20.5207 22.1705 21.0016 22.1731C21.206 22.1742 21.4103 22.1744 21.6147 22.1737C21.8555 22.1732 22.0962 22.1751 22.3369 22.1788C22.4251 22.1798 22.5134 22.18 22.6016 22.1793C23.2656 22.1745 23.2656 22.1745 23.4926 22.3525C23.5918 22.4771 23.667 22.5969 23.7401 22.738C23.789 22.8188 23.838 22.8994 23.8871 22.98C23.932 23.0625 23.9761 23.1455 24.0196 23.2288C24.0429 23.2734 24.0662 23.318 24.0902 23.364C24.3081 23.7954 24.4484 24.2308 24.558 24.701C24.572 24.7551 24.586 24.8091 24.6004 24.8648C24.7278 25.3911 24.7499 25.8909 24.7454 26.4288C24.7452 26.4721 24.745 26.5153 24.7448 26.5599C24.7342 28.152 24.2532 29.6449 23.1948 30.8625C23.1574 30.9072 23.1199 30.9519 23.0813 30.998C22.305 31.8987 21.2902 32.52 20.1413 32.8255C20.1038 32.8361 20.0663 32.8467 20.0276 32.8576C18.6069 33.2423 17.1247 32.8975 15.8699 32.1852C14.3668 31.2869 13.3899 29.8224 12.9063 28.1635C12.8813 28.0638 12.8574 27.9638 12.8348 27.8636C12.8235 27.8144 12.8123 27.7653 12.8007 27.7147C12.5036 26.153 12.7937 24.4551 13.5849 23.0795C13.6585 22.9499 13.6585 22.9499 13.729 22.7822C13.9378 22.3614 14.1088 22.173 14.6064 22.1545Z" fill="black"/>
<path d="M15.8524 15.1905C15.9226 15.1901 15.9928 15.1898 16.0652 15.1894C16.256 15.1884 16.4469 15.1885 16.6377 15.1888C16.7979 15.1889 16.958 15.1886 17.1182 15.1883C17.4964 15.1875 17.8746 15.1876 18.2529 15.1882C18.6412 15.1889 19.0296 15.1881 19.418 15.1866C19.7531 15.1854 20.0883 15.1851 20.4234 15.1854C20.6228 15.1856 20.8222 15.1854 21.0217 15.1845C21.2444 15.1835 21.467 15.1843 21.6897 15.1852C21.7546 15.1847 21.8194 15.1841 21.8862 15.1836C22.6949 15.1906 23.37 15.4629 23.9684 16.0066C25.1781 17.2861 24.7215 19.04 24.7215 20.7197C20.7989 20.7197 16.8762 20.7197 12.8347 20.7197C12.8347 16.8386 12.8347 16.8386 13.6073 16.0132C14.2745 15.3908 14.9516 15.1871 15.8524 15.1905Z" fill="black"/>
<path d="M14.9068 33.3711C15.1239 33.4527 15.3302 33.5518 15.5385 33.6532C17.0508 34.3867 18.7642 34.6654 20.414 34.2435C20.4633 34.233 20.5126 34.2224 20.5633 34.2116C20.9019 34.1325 21.2185 34.0019 21.5386 33.8687C21.5816 33.8508 21.6246 33.8329 21.6688 33.8145C21.9367 33.7001 22.1893 33.5703 22.4405 33.4228C22.5406 33.3711 22.5406 33.3711 22.6496 33.3711C22.8514 33.9638 23.0437 34.5578 23.215 35.16C23.2514 35.2865 23.2891 35.4125 23.3269 35.5385C23.3523 35.6249 23.3775 35.7112 23.4028 35.7975C23.4147 35.8366 23.4267 35.8758 23.439 35.9161C23.5235 36.2102 23.6128 36.5715 23.4689 36.8574C22.8937 37.6702 21.5036 37.9352 20.601 38.0979C19.4471 38.2909 18.2997 38.2705 17.1424 38.1149C17.1018 38.1099 17.0612 38.105 17.0194 38.0999C15.9675 37.9689 14.9108 37.6636 14.0889 36.9699C13.9702 36.8155 13.9208 36.7463 13.939 36.5507C13.9799 36.4246 13.9799 36.4246 14.0344 36.3155C14.0451 36.2213 14.0552 36.127 14.0651 36.0327C14.1265 35.6126 14.2664 35.2288 14.41 34.8305C14.545 34.4557 14.6657 34.0799 14.7727 33.6963C14.8474 33.4306 14.8474 33.4306 14.9068 33.3711Z" fill="black"/>
<path d="M32.9551 52.5098C32.9731 52.5098 32.9911 52.5098 33.0096 52.5098C33.0096 52.6717 33.0096 52.8337 33.0096 53.0005C32.8297 53.0005 32.6497 53.0005 32.4644 53.0005C32.5183 52.9645 32.5723 52.9285 32.6279 52.8915C32.8427 52.7396 32.8427 52.7396 32.9551 52.5098Z" fill="#E5E5E5"/>
</svg>
