<svg width="53" height="53" viewBox="0 0 53 53" fill="none" xmlns="http://www.w3.org/2000/svg">
<g clip-path="url(#clip0_1649_113)">
<path d="M27.5333 3.68295C28.6883 4.72835 29.132 6.23257 29.2126 7.7427C29.2507 9.7336 28.8826 11.6271 27.71 13.2751C27.0522 13.9483 26.3654 14.2288 25.4326 14.3168C23.7494 14.1741 22.475 13.2742 21.3244 12.1106C21.24 12.0273 21.1557 11.944 21.0688 11.8583C19.8798 10.6204 19.0339 8.98425 19.047 7.24534C19.1068 5.97427 19.6077 4.72845 20.4962 3.80224C22.6063 1.96828 25.3877 1.9648 27.5333 3.68295ZM23.6017 11.9035C23.7012 12.1606 23.7535 12.2899 24.0045 12.4159C24.232 12.4428 24.232 12.4428 24.4153 12.2873C24.4799 12.2226 24.5445 12.1578 24.611 12.0912C25.3579 11.4005 26.138 11.1882 27.1212 10.9719C27.1212 10.7328 27.1212 10.4937 27.1212 10.2473C25.7548 10.2473 24.5767 11.0133 23.6017 11.9035Z" fill="black"/>
<path d="M16.9766 37.1618C17.0278 37.3667 17.0278 37.3667 17.0801 37.5758C14.3643 37.9345 14.3643 37.9345 11.5938 38.3005C11.5938 38.5626 11.6731 38.6442 11.8238 38.8564C11.871 38.9244 11.9182 38.9924 11.9668 39.0625C12.0674 39.2057 12.1685 39.3485 12.27 39.4911C12.3171 39.5592 12.3641 39.6273 12.4126 39.6975C12.4565 39.7596 12.5004 39.8217 12.5456 39.8857C12.6289 40.0602 12.6289 40.0602 12.5254 40.3708C12.295 40.4553 12.295 40.4553 11.9864 40.5201C11.8714 40.5449 11.7563 40.5697 11.6378 40.5953C11.5125 40.6209 11.3872 40.6465 11.2581 40.6728C11.1303 40.7 11.0026 40.7271 10.8709 40.755C10.6 40.8123 10.3291 40.8691 10.0579 40.9249C9.71042 40.9965 9.36322 41.0695 9.01611 41.1432C8.68526 41.2133 8.35427 41.2827 8.02327 41.3521C7.8984 41.3783 7.77353 41.4045 7.64487 41.4315C7.52917 41.4554 7.41347 41.4793 7.29426 41.5039C7.19228 41.525 7.0903 41.5461 6.98524 41.5679C6.72852 41.613 6.72852 41.613 6.41797 41.613C6.3002 41.1713 6.21094 40.8299 6.21094 40.3708C9.55098 39.8168 9.55098 39.8168 11.1797 39.6462C10.5648 38.5701 10.5648 38.5701 9.9375 37.4723C10.3181 37.282 10.441 37.2388 10.8395 37.2323C10.9843 37.2292 10.9843 37.2292 11.132 37.2261C11.2359 37.2249 11.3399 37.2237 11.447 37.2224C11.5553 37.2204 11.6636 37.2184 11.7752 37.2164C12.1223 37.2102 12.4694 37.2054 12.8165 37.2006C13.0459 37.1966 13.2752 37.1926 13.5045 37.1885C14.6619 37.1685 15.819 37.1554 16.9766 37.1618Z" fill="black"/>
<path d="M12.1113 32.2969C12.5117 32.457 12.8701 32.6245 13.248 32.8274C13.3677 32.8916 13.4874 32.9557 13.6108 33.0219C13.7385 33.0907 13.8663 33.1596 13.994 33.2285C14.1243 33.2986 14.2546 33.3686 14.3849 33.4386C15.392 33.9805 16.3938 34.5314 17.3906 35.0918C17.3906 35.1943 17.3906 35.2968 17.3906 35.4023C16.8013 35.3449 16.3221 35.1821 15.7801 34.9491C15.6984 34.9147 15.6167 34.8804 15.5325 34.8451C15.2738 34.7362 15.0156 34.6261 14.7574 34.516C14.5812 34.4416 14.405 34.3672 14.2287 34.293C13.7985 34.1117 13.369 33.9289 12.9395 33.7461C12.9395 34.361 12.9395 34.9759 12.9395 35.6094C12.2747 35.4708 11.6345 35.2959 10.9884 35.0878C10.8955 35.0582 10.8027 35.0286 10.707 34.9981C10.4137 34.9046 10.1206 34.8106 9.82751 34.7166C9.6273 34.6526 9.42708 34.5887 9.22684 34.5249C8.73898 34.3692 8.25128 34.2131 7.76367 34.0566C7.86615 33.715 7.96863 33.3734 8.07422 33.0215C8.58276 33.0855 9.03091 33.2386 9.50322 33.4295C9.57816 33.4592 9.65311 33.4889 9.73032 33.5196C9.96783 33.6139 10.205 33.7091 10.4421 33.8043C10.6039 33.8687 10.7656 33.9331 10.9274 33.9974C11.3223 34.1544 11.7168 34.3126 12.1113 34.4707C12.1113 33.7533 12.1113 33.036 12.1113 32.2969Z" fill="black"/>
<path d="M14.7066 4.18015C14.8804 4.32208 14.8804 4.32208 15.1134 4.55499C15.0098 4.76202 15.0098 4.76202 14.7438 4.85542C14.6223 4.89079 14.5009 4.92615 14.3758 4.96258C13.5131 5.22576 12.7234 5.62129 11.9262 6.03956C11.3512 6.32991 10.7977 6.58423 10.1446 6.41827C9.84939 6.18299 9.74985 5.9634 9.70587 5.58489C9.68714 5.014 9.7392 4.67951 10.1446 4.24444C11.4281 3.36082 13.3879 3.30189 14.7066 4.18015Z" fill="black"/>
<path d="M18.3223 39.2324C18.4247 39.2837 18.4247 39.2837 18.5293 39.3359C18.5293 39.4384 18.5293 39.5409 18.5293 39.6465C18.2995 39.8128 18.0746 39.9565 17.8306 40.0994C17.68 40.1903 17.5296 40.2814 17.3793 40.3727C17.2577 40.4463 17.2577 40.4463 17.1337 40.5213C16.6615 40.8118 16.1983 41.116 15.7344 41.4192C15.6422 41.4793 15.55 41.5394 15.4551 41.6013C15.2375 41.7432 15.0201 41.8852 14.8027 42.0273C15.0767 42.3126 15.3657 42.5099 15.702 42.7196C15.8049 42.7841 15.9078 42.8485 16.0138 42.9149C16.0924 42.9636 16.171 43.0123 16.252 43.0625C15.9178 43.529 15.5336 43.8307 15.0745 44.1624C14.9262 44.2714 14.7781 44.3806 14.6301 44.4899C14.5181 44.5724 14.5181 44.5724 14.4039 44.6566C14.0599 44.913 13.7225 45.1774 13.3859 45.4434C13.2984 45.5123 13.2984 45.5123 13.2092 45.5827C12.8767 45.8455 12.5455 46.1099 12.2148 46.375C11.8694 46.2321 11.6742 46.0831 11.4902 45.7539C11.4917 45.564 11.4917 45.564 11.5938 45.3398C11.8182 45.1586 12.0348 45.0024 12.2759 44.8465C12.3783 44.7785 12.3783 44.7785 12.4828 44.7091C12.6272 44.6135 12.7719 44.5185 12.917 44.4241C13.1396 44.2791 13.361 44.1323 13.5822 43.9852C13.7225 43.8927 13.8629 43.8002 14.0033 43.7079C14.0699 43.6639 14.1364 43.6199 14.2049 43.5746C14.6751 43.2695 14.6751 43.2695 14.9062 43.2695C14.9062 43.2012 14.9062 43.1329 14.9062 43.0625C14.8343 43.0382 14.7624 43.0139 14.6883 42.9889C14.3321 42.8303 14.041 42.6145 13.7352 42.3767C13.6783 42.3332 13.6214 42.2897 13.5628 42.2449C13.4236 42.1384 13.285 42.0312 13.1465 41.9238C13.4323 41.6989 13.7169 41.5216 14.0414 41.3578C14.1833 41.2859 14.1833 41.2859 14.3281 41.2124C14.4295 41.1616 14.5309 41.1108 14.6353 41.0585C14.7923 40.9795 14.7923 40.9795 14.9523 40.899C15.1731 40.7881 15.3939 40.6774 15.6148 40.567C15.9542 40.397 16.2929 40.2258 16.6316 40.0545C16.846 39.947 17.0605 39.8395 17.275 39.7322C17.3768 39.6806 17.4786 39.6289 17.5834 39.5757C17.6774 39.5291 17.7714 39.4824 17.8682 39.4343C17.9511 39.3927 18.034 39.3511 18.1194 39.3083C18.1863 39.2832 18.2533 39.2582 18.3223 39.2324Z" fill="black"/>
<path d="M15.3205 0.00039779C16.1916 0.319548 16.7319 0.971548 17.1838 1.76016C17.3522 2.19594 17.4131 2.53475 17.3908 3.00235C16.8829 2.80346 16.3848 2.58297 15.8858 2.36299C15.5218 2.20293 15.1572 2.04485 14.79 1.89239C14.7234 1.8646 14.6569 1.83681 14.5884 1.80818C14.4047 1.73171 14.2207 1.65595 14.0367 1.58022C13.7678 1.44962 13.7678 1.44962 13.6642 1.24259C13.6197 0.841758 13.6315 0.670665 13.8583 0.330354C14.2813 -0.105104 14.7415 -0.0806916 15.3205 0.00039779Z" fill="black"/>
<path d="M16.7697 7.65927C16.7697 7.72759 16.7697 7.79591 16.7697 7.8663C16.5372 8.01751 16.3054 8.15679 16.0645 8.2933C15.4465 8.6506 14.8816 9.03156 14.3233 9.47767C14.0387 9.65002 13.8877 9.67411 13.5607 9.62607C13.2468 9.34613 13.1564 9.16857 13.0884 8.75265C13.1603 8.29684 13.3075 8.04278 13.6642 7.76278C14.6087 7.19574 15.8013 7.11882 16.7697 7.65927Z" fill="black"/>
<path fill-rule="evenodd" clip-rule="evenodd" d="M33.9449 9.21114C33.6309 8.91906 33.3154 8.62554 32.9597 8.38558C32.3407 8.13581 31.6232 8.08253 31.0382 8.44381C30.1535 9.06046 29.7077 9.58747 29.5161 10.6561C29.3263 11.7199 28.9068 12.7138 28.2562 13.5808C27.5366 14.401 26.7403 14.8222 25.6554 14.9653C24.1486 14.9958 22.6964 14.2826 21.6183 13.2573C21.3693 12.9963 21.2763 12.9016 20.9126 12.8683L20.5831 12.895C20.537 12.8981 20.4906 12.901 20.4442 12.9039C19.832 12.9426 19.199 12.9827 18.7004 13.3673C18.5377 13.5475 18.4225 13.6752 18.3349 13.8196C18.1221 14.1703 18.0719 14.6196 17.8997 16.1598C17.8889 16.2567 17.878 16.3536 17.8669 16.4504C17.8588 16.5218 17.8506 16.5932 17.8424 16.6645C17.801 17.02 17.7598 17.3754 17.7195 17.731C17.6682 18.1872 17.6165 18.6434 17.5637 19.0994C17.5279 19.4078 17.4923 19.7162 17.4568 20.0247C17.441 20.1617 17.4253 20.2986 17.4096 20.4356L17.3802 20.6922C17.3344 21.0904 17.2882 21.4885 17.2461 21.8872C17.2109 22.224 17.1755 22.5605 17.1319 22.8964C16.9525 24.2581 16.9721 25.4375 17.2643 26.7804C17.306 26.9718 17.3466 27.1635 17.3861 27.3554C17.4904 27.8694 17.5967 28.3829 17.7064 28.8958C17.8175 29.4152 17.9258 29.9351 18.0328 30.4553C18.2174 31.3528 18.4047 32.2496 18.5957 33.1457C18.7058 33.6621 18.8157 34.1784 18.9203 34.6958C18.9453 34.8201 18.9703 34.9444 18.9954 35.0686C19.014 35.1608 19.0326 35.253 19.0514 35.3451L19.1695 35.9232L19.1814 35.9847C19.3105 36.6499 19.4177 37.2022 19.8585 37.7387C20.2559 38.107 20.5479 38.1789 21.0748 38.1851C21.6857 38.1693 22.0126 37.9609 22.4464 37.5317C22.8958 36.8425 22.7732 36.1852 22.6201 35.4176L22.559 35.1224L22.4281 34.4733C22.3561 34.1211 22.284 33.7689 22.2128 33.4166C22.0869 32.7924 21.9607 32.1683 21.8338 31.5444C21.6268 30.5269 21.42 29.5093 21.2145 28.4915C21.1422 28.1333 21.0698 27.7751 20.9966 27.4171C20.9504 27.191 20.9045 26.9649 20.8587 26.7388L20.7944 26.4206C20.7869 26.3844 20.7795 26.3482 20.7719 26.3119C20.6059 25.5091 20.4362 24.6882 20.5009 23.8661L20.5491 23.4645C20.5757 23.2359 20.6026 23.0073 20.631 22.7789C20.651 22.6193 20.6705 22.4596 20.6897 22.2999C20.8415 21.0253 21.0123 19.754 21.2042 18.4848C21.5464 19.7399 21.8995 20.9911 22.2817 22.2346L22.4035 22.6287C22.5895 23.2313 22.7757 23.8338 22.9635 24.4359C23.0488 24.7092 23.1341 24.9826 23.2186 25.2562L23.3999 25.8441C23.4336 25.9515 23.4684 26.0581 23.5029 26.1642C23.7849 27.0299 24.0556 27.8606 23.6864 28.7485L23.5887 28.9662C23.4882 29.2061 23.3875 29.4458 23.2842 29.6845C23.1777 29.9293 23.0718 30.1743 22.9666 30.4197L22.767 30.8942C22.408 31.702 22.3785 32.3283 22.5569 33.1906L22.6049 33.4109C22.6549 33.6519 22.7049 33.8928 22.756 34.1336C22.8086 34.3806 22.8611 34.6277 22.9134 34.8749L23.0125 35.3518C23.1015 35.7614 23.1696 36.1568 23.189 36.577C23.1555 37.1986 22.8828 37.7164 22.4464 38.1528C21.8487 38.6055 21.2683 38.6047 20.5378 38.5814L20.2726 38.5669C20.2712 38.819 20.2721 39.0703 20.2803 39.3223L20.2915 39.5702L20.3042 39.8568L20.3184 40.1675C20.3339 40.5139 20.3495 40.8602 20.3652 41.2066L20.3991 41.9508C20.4225 42.4681 20.446 42.9855 20.4696 43.5028C20.5004 44.1755 20.531 44.8481 20.5612 45.5207C20.5847 46.0454 20.6085 46.5701 20.6324 47.0948L20.6668 47.8469C20.6829 48.2068 20.6989 48.5667 20.7155 48.9265L20.7309 49.2578L20.7341 49.3332C20.7829 50.4562 20.8282 51.4993 21.6352 52.3712C22.1874 52.8659 22.727 53.0824 23.4721 53.0989C24.4262 53.0942 25.0939 52.8832 25.7848 52.2115C26.1698 51.5927 26.4017 51.0583 26.4005 50.3143L26.397 50.0996C26.3896 49.2597 26.357 48.4212 26.3168 47.5823C26.3029 47.2982 26.289 47.014 26.2755 46.7298C26.2419 46.0101 26.2076 45.2904 26.1729 44.5708C26.1431 43.9509 26.1134 43.3311 26.0843 42.7113C26.0707 42.4193 26.0569 42.1273 26.0426 41.8354C26.0169 41.311 25.993 40.7866 25.9742 40.2619L25.9659 40.0161C25.9634 39.9444 25.9607 39.8728 25.958 39.8012C25.9285 39.0177 25.8991 38.2396 26.1681 37.4891L26.2583 37.2677C26.3225 37.0996 26.3871 36.9317 26.4522 36.764C26.5557 36.5104 26.6582 36.2572 26.7537 36.0004C27.1666 34.8836 27.6194 34.0847 28.5492 33.327C28.7313 33.1846 28.9118 33.0402 29.0879 32.8905C30.3428 31.818 31.6244 31.1369 33.212 30.6997C33.212 30.8509 33.212 30.9285 33.2247 31.0039C33.2381 31.0834 33.2656 31.1605 33.322 31.3189L33.4781 31.7021L33.6539 32.1368C33.7506 32.3739 33.8472 32.6111 33.9429 32.8487L33.9875 32.9597C34.2465 33.6046 34.5055 34.2495 34.7668 34.8935C34.9395 35.3184 35.1115 35.7436 35.2815 36.1696C35.3463 36.3326 35.4113 36.4955 35.4764 36.6583C35.5714 36.89 35.6662 37.1216 35.7587 37.3543L35.8444 37.5709C36.0591 38.0834 36.1407 38.5122 36.1254 39.0688C36.1202 39.1818 36.1151 39.2949 36.1102 39.4079C36.1075 39.4711 36.1048 39.5343 36.1023 39.5976C36.0857 40.01 36.0672 40.4224 36.0473 40.8348C36.0334 41.1197 36.0195 41.4047 36.006 41.6897C35.9672 42.5145 35.9283 43.3394 35.8883 44.1642C35.8742 44.4555 35.8597 44.7468 35.8452 45.0382C35.7677 46.5953 35.6902 48.1533 35.6671 49.7119L35.664 50.0438C35.6516 50.7231 35.6905 51.209 36.0069 51.8169C36.3963 52.45 36.9542 52.8476 37.6632 53.059C38.6227 53.1861 39.4566 53.1235 40.2511 52.5415C40.5317 52.273 40.73 52.0833 40.8743 51.8589C41.222 51.3179 41.2557 50.5752 41.3707 48.0423L41.3964 47.4785C41.4148 47.0799 41.4332 46.6814 41.4513 46.2828L41.4526 46.2537C41.4708 45.8546 41.4889 45.4554 41.5073 45.0563C41.5616 43.8842 41.6153 42.712 41.6658 41.5397C41.6808 41.1902 41.6957 40.8406 41.7116 40.4911C41.729 40.1125 41.7461 39.7339 41.7615 39.3552L41.7779 38.951C41.828 37.9003 41.734 37.1203 41.3473 36.1403L41.2498 35.8981C41.1415 35.625 41.0329 35.3519 40.9237 35.0791C40.8455 34.8836 40.7675 34.6881 40.6897 34.4925C40.2956 33.5006 39.8992 32.5096 39.5004 31.5195C38.6768 29.4749 37.8717 27.4285 37.129 25.3528C36.9866 24.9545 36.8445 24.5561 36.7024 24.1577C35.5286 20.8656 34.354 17.5714 32.9791 14.3571C32.6798 13.6693 32.4032 12.9896 32.1769 12.2739C33.0492 12.9612 33.8983 13.6745 34.7408 14.3979L34.9257 14.5569L35.2953 14.8747C35.63 15.1629 35.9655 15.4491 36.3078 15.7283L36.5892 15.9552C36.7743 16.1087 36.9598 16.2617 37.1456 16.4145C38.1571 17.1882 38.6024 17.8308 38.9377 19.0509C38.9823 19.2139 39.0284 19.3765 39.0759 19.5387C39.2035 19.9675 39.3282 20.397 39.4488 20.8278C39.548 21.1823 39.6491 21.536 39.7526 21.8892C39.9721 22.6366 40.191 23.3842 40.4027 24.1338L40.464 24.352L40.5746 24.7435C40.6201 24.9277 40.6497 25.0961 40.6799 25.2681C40.7162 25.4748 40.7535 25.6868 40.8204 25.9379C40.8583 26.0801 40.8687 26.1479 40.8887 26.2937C40.9023 26.3928 40.908 26.4657 40.9146 26.5496C40.9174 26.5844 40.9203 26.6212 40.9239 26.6625C40.9267 26.6941 40.9278 26.7229 40.9288 26.7499C40.9316 26.8277 40.934 26.8919 40.9757 26.973C41.0478 27.1135 41.1109 27.1853 41.2345 27.2836C41.3926 27.4095 41.5027 27.4769 41.7003 27.5424C41.7221 27.5496 41.7395 27.5568 41.7556 27.5634C41.798 27.5807 41.8308 27.5942 41.9073 27.5942C41.9073 27.5942 42.1058 27.6482 42.2344 27.6394C42.2922 27.6355 42.3165 27.6362 42.3642 27.6376C42.3844 27.6382 42.4087 27.6389 42.4414 27.6394C42.483 27.6399 42.528 27.6397 42.5727 27.6394C42.6168 27.6392 42.6605 27.6389 42.7002 27.6394C43.1438 27.6461 43.376 27.5552 43.7382 27.2772L43.9776 27.0766C43.9907 27.0818 44.0032 27.0867 44.0152 27.0915L44.2503 25.0163L44.1847 25.0063C44.1847 24.8525 44.1847 24.7749 44.175 24.6985C44.1651 24.6206 44.1451 24.544 44.1048 24.3894L43.9902 24.0059C43.9227 23.7788 43.855 23.5518 43.7867 23.3249L43.7124 23.0783C43.6084 22.7327 43.5044 22.3871 43.4002 22.0416C43.2147 21.4281 43.0304 20.8144 42.8497 20.1995C42.7143 19.7388 42.5781 19.2784 42.4409 18.8183C42.3729 18.5907 42.305 18.3631 42.2373 18.1355C42.1411 17.8054 42.0449 17.4754 41.9461 17.1461L41.8535 16.8391C41.5979 15.944 41.2546 15.4162 40.5681 14.7926C40.4041 14.6578 40.2402 14.5228 40.0768 14.3873L39.896 14.237C39.5851 13.9799 39.2783 13.7182 38.9727 13.4547C38.4893 13.0376 38.0035 12.6247 37.5079 12.2221C37.0702 11.8669 36.6409 11.5032 36.214 11.1352C35.7789 10.7601 35.3407 10.3904 34.8941 10.0289C34.6146 9.80278 34.3418 9.57447 34.0757 9.33259C34.0321 9.29223 33.9885 9.2517 33.9449 9.21114Z" fill="black"/>
</g>
<defs>
<clipPath id="clip0_1649_113">
<rect width="53" height="53" fill="white"/>
</clipPath>
</defs>
</svg>
