<svg width="53" height="53" viewBox="0 0 53 53" fill="none" xmlns="http://www.w3.org/2000/svg">
<g clip-path="url(#clip0_1640_191)">
<path d="M23.6326 0.361719C22.4732 0.672266 21.5209 1.39688 20.7963 2.51484C20.1545 3.49824 19.668 5.24766 19.668 6.5416V7.15234L25.8064 7.12129C32.1934 7.07988 32.4004 7.06953 32.9387 6.62441L33.1768 6.42773L32.9594 6.21035C32.7006 5.94121 31.7482 5.69277 30.9822 5.69277C30.475 5.69277 30.4336 5.67207 30.3715 5.40293C30.1127 4.22285 29.9678 3.77773 29.6055 3.04277C28.9223 1.63496 27.8457 0.734375 26.4482 0.361719C25.6926 0.16504 24.3572 0.175391 23.6326 0.361719Z" fill="#2A373F"/>
<path d="M19.9993 8.47754C20.1131 10.465 21.6348 12.2766 23.6948 12.877C24.6885 13.1668 26.3344 13.0529 27.1108 12.6285C27.3282 12.5146 27.3903 12.5457 27.8561 13.0012L28.3633 13.498L29.2432 13.0736C30.2266 12.5768 30.1334 12.7527 30.3301 11.024C30.4854 9.61621 30.475 9.52305 30.1852 9.52305C29.9471 9.52305 29.9368 9.50234 30.0299 9.1918C30.0817 9.00547 30.1231 8.58105 30.1231 8.26016V7.65977H27.8354C26.0446 7.65977 25.5581 7.69082 25.5995 7.78398C25.6202 7.85645 25.7237 8.28086 25.8272 8.71562L26.0239 9.52305H27.7629H29.502V9.78184V10.0406H27.6491C26.3241 10.0406 25.7651 10.0717 25.7133 10.1648C25.6616 10.2373 25.9825 10.61 26.5415 11.1482C27.1522 11.7383 27.4317 12.0695 27.3903 12.173C27.3592 12.2662 27.2557 12.318 27.1729 12.2973C26.8934 12.2352 24.8956 10.1648 23.9122 8.9123L22.9288 7.67012L21.4381 7.65977H19.9475L19.9993 8.47754ZM29.8954 10.7342C29.6883 12.4732 29.7608 12.2869 29.0672 12.6389L28.4358 12.9598L28.1252 12.6492L27.8147 12.3387L28.4668 11.7383C28.8188 11.407 29.2536 10.8895 29.4192 10.5893C29.854 9.81289 30.0092 9.86465 29.8954 10.7342Z" fill="#2A373F"/>
<path d="M23.8293 8.09474C24.026 8.34318 24.4401 8.85041 24.7403 9.24377C25.2268 9.85451 25.32 9.92697 25.4442 9.7924C25.5788 9.65783 25.5684 9.52326 25.351 8.67443L25.1026 7.71174L24.2848 7.68068L23.467 7.64963L23.8293 8.09474Z" fill="#2A373F"/>
<path d="M42.0792 17.4525C37.2967 20.5476 33.3942 23.1252 33.4046 23.1769C33.4253 23.239 33.9014 24.005 34.4811 24.8953C35.4852 26.4377 35.537 26.4998 35.7544 26.3652C35.8682 26.2824 39.8122 23.7359 44.5014 20.7029L53.0208 15.1855L52.969 14.7818C52.8551 13.933 51.8925 12.4216 51.2092 11.9972C51.0229 11.8937 50.8573 11.8006 50.8262 11.8006C50.7952 11.8109 46.8616 14.347 42.0792 17.4525Z" fill="#2A373F"/>
<path d="M16.459 12.3167C11.3867 12.9378 7.69123 15.8155 5.859 20.5462C5.1758 22.3266 4.59611 25.1112 4.77209 25.8462C4.95841 26.6743 5.64162 27.2229 6.49045 27.2229C7.13224 27.2229 7.5256 27.0469 7.90861 26.6018C8.1881 26.2602 8.23986 26.1153 8.57111 24.3659C9.09904 21.6538 10.0721 19.7077 11.6352 18.2481C12.2149 17.6995 13.5813 16.7678 13.7986 16.7678C13.8401 16.7678 13.6434 17.2233 13.3639 17.7719C12.0906 20.3391 11.4074 22.8028 11.0244 26.3223C10.9002 27.5024 10.8899 27.9682 10.9727 28.5272C11.1072 29.3553 11.4592 30.2766 11.8111 30.7321C11.9871 30.9702 19.6576 37.2432 21.0758 38.3094C21.169 38.3819 25.8582 37.6469 25.9307 37.5538C25.941 37.5331 25.8996 37.1915 25.8479 36.7878C25.7237 35.8975 25.8479 35.4835 26.3344 35.1833C26.8416 34.8727 27.3695 34.9245 27.794 35.3178C28.1045 35.6077 28.1873 35.7733 28.2908 36.353C28.3633 36.736 28.4461 37.0465 28.4979 37.0465C28.8912 37.088 28.9016 37.0672 28.8395 36.56C28.7256 35.8044 28.5703 35.3799 28.2701 35.0487C27.7422 34.469 26.9865 34.3241 26.2412 34.6657L25.8272 34.852L22.3594 32.0571L18.8916 29.2622L18.902 28.7756C18.9227 28.1649 19.1711 26.9227 19.5438 25.6184L19.8336 24.5936L19.1815 23.6206C17.577 21.2604 16.3658 17.9893 16.4797 16.302C16.5108 15.7741 16.5832 15.536 16.8317 15.1944C17.2147 14.6251 18.0635 14.1799 18.7363 14.1799C19.3988 14.1799 20.258 14.6251 20.6203 15.1633C20.8067 15.4325 20.9826 15.9294 21.1276 16.6126C21.3449 17.6477 21.8108 19.0452 21.935 19.0452C22.0178 19.0452 22.5147 17.8858 22.6803 17.2854C22.7528 17.0266 22.8045 16.3952 22.8045 15.888C22.7942 13.9626 21.9453 12.7825 20.3201 12.4305C19.5541 12.2753 17.3803 12.2131 16.459 12.3167Z" fill="#2A373F"/>
<path d="M17.96 14.8645C16.9869 15.3717 16.7799 16.0031 17.0801 17.5145C17.3492 18.7981 17.7943 20.0713 18.4361 21.3756C19.2229 22.9594 19.0883 22.918 20.0924 21.8828C20.5686 21.3963 21.1897 20.8477 21.4588 20.6717C21.7279 20.4957 21.935 20.299 21.9039 20.2473C21.8832 20.1852 21.6658 19.709 21.4381 19.1914C21.0654 18.3633 20.8688 17.7008 20.4754 16.0238C20.2373 14.9783 18.9123 14.3676 17.96 14.8645Z" fill="#2A373F"/>
<path d="M21.7383 21.0846C20.8377 21.7678 19.5645 23.0618 19.5645 23.2895C19.5645 23.4965 21.0654 25.2873 21.9143 26.0844C23.4463 27.5336 25.2061 28.6827 27.1107 29.5108C28.3426 30.0387 28.8498 30.1733 29.326 30.0801C29.7607 29.9973 30.3611 29.5211 30.5992 29.076C30.8166 28.6412 30.7855 27.8649 30.5061 27.3784C30.2576 26.9332 30.1541 26.8711 28.2494 26.0016C26.0963 25.0079 24.1502 23.4448 22.8563 21.6643C22.5146 21.1881 22.2041 20.8051 22.1627 20.8051C22.1316 20.8051 21.935 20.9293 21.7383 21.0846Z" fill="#2A373F"/>
<path d="M32.8144 24.4804C32.7109 24.8013 32.5142 24.9772 31.4998 25.6294L30.3093 26.4058L30.5888 26.6853C30.7544 26.8405 30.9718 27.1614 31.0753 27.4099C31.2099 27.7101 31.3238 27.8446 31.4273 27.8032C31.4998 27.7722 31.9966 27.4616 32.5246 27.0993C33.3113 26.5714 33.5804 26.4368 34.0152 26.3954L34.5431 26.3437L33.8392 25.2567C33.4562 24.6667 33.0939 24.1595 33.0421 24.1388C32.98 24.1181 32.8869 24.2733 32.8144 24.4804Z" fill="#2A373F"/>
<path d="M24.5643 30.1023C23.9742 30.4854 23.498 30.8373 23.498 30.8891C23.498 31.034 24.3365 32.2969 24.44 32.2969C24.6264 32.2969 27.5559 30.3094 27.473 30.2369C27.3695 30.1541 25.7029 29.3881 25.6512 29.4088C25.6305 29.4088 25.1439 29.7297 24.5643 30.1023Z" fill="#2A373F"/>
<path d="M11.8629 32.007C11.8111 32.1726 11.5938 34.9262 11.5938 35.423C11.5938 35.7129 11.6455 35.8164 11.8008 35.8682C11.9146 35.8992 12.7117 36.8308 13.5709 37.9178C14.4404 39.015 15.1961 39.9674 15.2686 40.0398C15.3617 40.1433 15.4652 40.1433 15.8275 40.0088C16.5521 39.7603 16.9248 39.8017 17.3699 40.2055C17.7115 40.5264 17.7529 40.6092 17.7529 41.0853C17.7529 41.5305 17.7012 41.6547 17.4113 41.9549C17.1836 42.1826 17.1008 42.3586 17.1422 42.4724C17.225 42.7105 17.3182 42.6898 17.6805 42.3896C18.1152 42.0273 18.3533 41.3752 18.2705 40.8058C18.198 40.2883 17.6287 39.5844 17.2043 39.4705C16.9559 39.4084 16.9455 39.398 17.018 38.6217C17.049 38.1869 17.1008 37.4416 17.1422 36.9551L17.2043 36.0752L14.7406 34.1084C11.7594 31.7172 11.9146 31.831 11.8629 32.007Z" fill="#2A373F"/>
<path d="M11.2521 36.354C11.159 36.4057 11.0762 36.53 11.0762 36.6231C11.0762 36.8302 16.076 43.1446 16.3037 43.2274C16.49 43.2999 16.7695 43.0929 16.7695 42.8858C16.7695 42.7098 11.7697 36.385 11.5627 36.3022C11.4902 36.2712 11.3453 36.2919 11.2521 36.354Z" fill="#2A373F"/>
<path d="M9.28535 36.8088C9.24395 36.8502 9.21289 36.9537 9.21289 37.0469C9.21289 37.14 9.83398 38.9308 10.5896 41.0426C11.9043 44.7277 11.9664 44.8726 12.2355 44.9037C12.4633 44.9347 12.5254 44.883 12.5771 44.6967C12.6082 44.5414 12.1424 43.1025 11.2521 40.6285C9.96855 37.0365 9.86504 36.7984 9.62695 36.7674C9.48203 36.7467 9.32676 36.7674 9.28535 36.8088Z" fill="#2A373F"/>
<path d="M10.7656 37.6794C10.7656 37.814 11.9768 41.2093 12.0492 41.2818C12.1631 41.3853 13.5709 40.847 13.5191 40.7125C13.4881 40.64 12.9188 39.905 12.2563 39.0769C11.19 37.7519 10.7656 37.3482 10.7656 37.6794Z" fill="#2A373F"/>
<path d="M24.8954 38.249C20.9929 38.9426 20.7858 39.0047 21.0239 39.4498C21.0757 39.5637 21.1792 39.6465 21.2413 39.6465C21.6243 39.6465 29.2638 38.2594 29.3776 38.1662C29.4501 38.1145 29.5019 37.9592 29.4812 37.8453C29.4294 37.4934 28.9118 37.5348 24.8954 38.249Z" fill="#2A373F"/>
<path d="M7.60843 38.6304C6.92522 38.8581 6.35589 39.0651 6.34554 39.0755C6.27307 39.1272 7.64983 42.802 7.743 42.8331C7.83616 42.8642 10.217 42.0671 10.3412 41.9636C10.4137 41.9015 9.05764 38.1956 8.95413 38.206C8.90237 38.206 8.29163 38.4026 7.60843 38.6304Z" fill="#2A373F"/>
<path d="M4.9377 38.3616C4.89629 38.403 4.86523 38.5169 4.86523 38.61C4.86523 38.7757 7.47383 46.1563 7.6084 46.3737C7.72227 46.5497 8.15703 46.4876 8.22949 46.2805C8.26055 46.1667 7.72227 44.5104 6.90449 42.2227C5.6209 38.6411 5.49668 38.3512 5.26895 38.3202C5.12402 38.2995 4.9791 38.3202 4.9377 38.3616Z" fill="#2A373F"/>
<path d="M28.8187 39.4589C28.9015 40.1732 28.9843 40.3284 29.2431 40.2249C29.388 40.1732 29.4087 40.0696 29.3569 39.6659C29.2431 38.931 29.1913 38.8171 28.9636 38.8171C28.7669 38.8171 28.7566 38.8585 28.8187 39.4589Z" fill="#2A373F"/>
<path d="M24.8437 39.5418C24.3054 39.635 23.5187 39.7799 23.0943 39.8523L22.3386 39.9766L22.4111 40.6184C22.4421 40.96 22.5042 41.2809 22.5457 41.3223C22.6181 41.3947 26.3343 40.7736 26.4378 40.6701C26.4689 40.6391 26.4482 40.3285 26.3861 39.9766C26.2515 39.2312 26.3447 39.2623 24.8437 39.5418Z" fill="#2A373F"/>
<path d="M2.93984 40.1416C1.28359 40.7006 0.817773 41.0008 0.351953 41.8393C0.0931641 42.3051 0.0517578 42.5018 0.0517578 43.1643C0.0517578 43.8268 0.0931641 44.0234 0.362305 44.4996C0.724609 45.1621 1.22148 45.5969 1.90469 45.835C2.31875 45.9799 2.43262 46.0834 2.59824 46.4354C2.87773 47.015 3.34355 47.4395 3.69551 47.4395C3.93359 47.4395 6.89414 46.4457 7.01836 46.3215C7.03906 46.3008 7.00801 46.1973 6.9459 46.0834C6.84238 45.8867 6.78027 45.9074 5.2793 46.4354C4.08887 46.8598 3.66445 46.9736 3.51953 46.8908C3.19863 46.7148 2.85703 45.866 2.84668 45.2346V44.6652L4.39941 44.1062C5.25859 43.7957 5.9625 43.5369 5.9832 43.5162C6.01426 43.4955 5.03086 40.6902 4.68926 39.7689C4.6168 39.593 4.57539 39.6033 2.93984 40.1416Z" fill="#2A373F"/>
<path d="M25.6511 41.3534C23.6222 41.7157 21.8624 42.0366 21.7382 42.0781C21.407 42.1816 21.4898 42.6888 21.8417 42.7302C21.9867 42.7406 23.8499 42.4507 25.9824 42.0781C30.0402 41.3741 30.2472 41.312 30.0091 40.8773C29.947 40.7531 29.8021 40.6806 29.6261 40.6909C29.4708 40.6909 27.68 40.9911 25.6511 41.3534Z" fill="#2A373F"/>
<path d="M29.4088 42.017C29.295 42.0895 29.3053 42.3275 29.5124 43.4662C29.709 44.6359 29.7711 44.8223 29.9368 44.8223C30.0403 44.8223 30.1542 44.7602 30.1749 44.6877C30.237 44.491 29.7711 41.9963 29.6573 41.9549C29.6055 41.9445 29.4917 41.9652 29.4088 42.017Z" fill="#2A373F"/>
<path d="M24.7195 42.7934C23.7051 42.9797 22.8666 43.1453 22.8459 43.1764C22.8045 43.2178 23.1875 45.8678 23.2393 45.9403C23.2703 45.9713 26.9555 45.3606 27.1832 45.2881C27.266 45.2674 27.235 44.8533 27.059 43.8699C26.9244 43.1143 26.8105 42.4828 26.8105 42.4621C26.8105 42.4207 26.5932 42.4518 24.7195 42.7934Z" fill="#2A373F"/>
<path d="M14.1401 43.2784C13.519 43.4958 12.9911 43.7028 12.9601 43.7235C12.9394 43.7546 12.9497 43.8685 12.9911 43.9823C13.0532 44.179 13.0946 44.179 14.2954 43.7546C14.9683 43.5268 15.5272 43.2991 15.5272 43.2681C15.5272 43.237 15.4651 43.1335 15.403 43.0403C15.2788 42.8851 15.1649 42.9058 14.1401 43.2784Z" fill="#2A373F"/>
<path d="M9.76152 44.8423C8.86094 45.1632 8.5918 45.3081 8.5918 45.453C8.5918 45.5565 8.6332 45.66 8.68496 45.6911C8.75742 45.7428 11.2418 44.894 11.3557 44.7905C11.4488 44.6973 11.2418 44.4075 11.0865 44.4178C10.9934 44.4178 10.393 44.6145 9.76152 44.8423Z" fill="#2A373F"/>
<path d="M26.3446 45.9288C22.5663 46.5913 22.173 46.6948 22.2868 47.0364C22.4007 47.3677 22.7009 47.3366 26.4482 46.6948C28.5392 46.3325 30.3714 46.0116 30.5163 45.9702C30.7441 45.9081 30.7958 45.8357 30.7958 45.5872C30.7958 45.3284 30.7544 45.287 30.4853 45.2663C30.3196 45.256 28.4564 45.5562 26.3446 45.9288Z" fill="#2A373F"/>
<path d="M30.2368 46.5708C30.1126 46.6536 30.1333 46.9021 30.361 48.2271C30.506 49.0966 30.6095 49.8626 30.5784 49.9351C30.4749 50.1939 29.6882 50.463 29.0153 50.463C28.6634 50.463 28.3321 50.4112 28.27 50.3595C28.2183 50.2974 28.0423 49.5314 27.887 48.6515C27.7421 47.7716 27.6075 47.0366 27.5972 47.0263C27.5661 46.9952 23.5911 47.6991 23.5497 47.7405C23.4565 47.8337 24.0466 50.8874 24.2226 51.229C24.5124 51.7983 25.0196 52.2745 25.6614 52.5644C26.1272 52.7817 26.3239 52.8128 26.9036 52.7714C27.297 52.7403 27.7628 52.6265 28.0009 52.5023C28.4667 52.2745 29.2327 51.4981 29.3362 51.1669C29.388 51.022 29.5226 50.9392 29.7917 50.8874C30.2575 50.8149 30.7854 50.5044 31.0028 50.1731C31.1477 49.9351 31.1477 49.8005 30.8683 48.2271C30.713 47.3058 30.537 46.5294 30.4749 46.5087C30.4231 46.4983 30.3196 46.519 30.2368 46.5708Z" fill="#2A373F"/>
</g>
<defs>
<clipPath id="clip0_1640_191">
<rect width="53" height="53" fill="white"/>
</clipPath>
</defs>
</svg>
