<svg width="68" height="53" viewBox="0 0 68 53" fill="none" xmlns="http://www.w3.org/2000/svg">
<path d="M28.3021 23.9492C28.4082 23.9492 28.5143 23.9492 28.6237 23.9492C28.6237 24.721 28.6237 25.4928 28.6237 26.2881C28.7298 26.2881 28.8359 26.2881 28.9453 26.2881C28.9453 25.6265 28.9453 24.9649 28.9453 24.2833C29.1222 24.2833 29.299 24.2833 29.4813 24.2833C29.4813 24.9449 29.4813 25.6064 29.4813 26.2881C29.6581 26.3248 29.835 26.3616 30.0172 26.3994C30.036 26.4985 30.0547 26.5977 30.074 26.6998C30.2533 27.6495 30.433 28.5991 30.6129 29.5487C30.7053 30.0365 30.7976 30.5243 30.8897 31.0122C31.2576 32.9607 31.6286 34.9078 32.034 36.8484C32.3284 38.261 32.6023 39.6778 32.8724 41.0956C32.9454 41.4784 33.0194 41.861 33.0937 42.2436C33.1654 42.6142 33.2358 42.9851 33.3064 43.356C33.3331 43.4925 33.3598 43.629 33.3873 43.7697C33.4228 43.9585 33.4228 43.9585 33.459 44.1512C33.4802 44.2615 33.5013 44.3718 33.5231 44.4855C33.5546 44.775 33.5519 44.9523 33.4475 45.2215C32.9005 45.6295 32.3742 45.5849 31.7324 45.5556C31.4728 44.815 31.302 44.076 31.1582 43.303C31.1236 43.1212 31.1236 43.1212 31.0883 42.9359C31.0125 42.537 30.9376 42.1379 30.8627 41.7389C30.8095 41.4581 30.7562 41.1774 30.7028 40.8966C30.5768 40.2323 30.4512 39.5678 30.3259 38.9033C30.0899 37.6517 29.8529 36.4002 29.6155 35.1488C29.5387 34.743 29.4622 34.3372 29.3858 33.9313C29.0871 32.3497 28.7717 30.7727 28.443 29.1976C28.3531 28.7642 28.2637 28.3306 28.1775 27.8963C28.1521 27.7683 28.1521 27.7683 28.1261 27.6378C28.0483 27.1595 28.0476 26.7471 28.1949 26.2881C28.0534 26.2881 27.9119 26.2881 27.7661 26.2881C27.7661 25.6265 27.7661 24.9649 27.7661 24.2833C27.943 24.2833 28.1199 24.2833 28.3021 24.2833C28.3021 24.1731 28.3021 24.0628 28.3021 23.9492Z" fill="#060606"/>
<path d="M24.3357 24.5059C24.548 24.5059 24.7602 24.5059 24.9789 24.5059C24.9789 25.0204 24.9789 25.5349 24.9789 26.0651C24.8728 26.1202 24.8728 26.1202 24.7645 26.1765C24.8353 26.25 24.906 26.3235 24.9789 26.3992C25.0053 26.724 25.0053 26.724 25.0047 27.149C25.0049 27.227 25.0051 27.3049 25.0052 27.3852C25.0056 27.6478 25.0044 27.9102 25.0032 28.1727C25.0032 28.3604 25.0032 28.5481 25.0033 28.7357C25.0034 29.2463 25.0021 29.7569 25.0006 30.2675C24.9993 30.8007 24.9992 31.3338 24.9989 31.867C24.9983 32.8772 24.9965 33.8873 24.9944 34.8975C24.992 36.0473 24.9908 37.1971 24.9897 38.3469C24.9875 40.7126 24.9837 43.0783 24.9789 45.444C24.6163 45.6462 24.3682 45.6969 23.9538 45.6946C23.8011 45.6954 23.8011 45.6954 23.6452 45.6963C23.371 45.6667 23.371 45.6667 23.0494 45.444C23.0098 45.1174 23.0098 45.1174 23.0107 44.6899C23.0104 44.6115 23.0101 44.5331 23.0099 44.4523C23.0093 44.1883 23.0111 43.9243 23.0129 43.6602C23.0129 43.4715 23.0129 43.2827 23.0127 43.0939C23.0126 42.5803 23.0145 42.0668 23.0168 41.5532C23.0188 41.0169 23.019 40.4806 23.0193 39.9443C23.0203 38.9282 23.023 37.9122 23.0262 36.8961C23.0298 35.7396 23.0316 34.583 23.0332 33.4265C23.0365 31.0469 23.0422 28.6674 23.0494 26.2878C23.7461 25.9537 23.7461 25.9537 24.2285 25.9537C24.2273 25.8585 24.226 25.7633 24.2248 25.6653C24.2238 25.5422 24.2228 25.4192 24.2218 25.2924C24.2206 25.1697 24.2193 25.0469 24.2181 24.9205C24.2285 24.6172 24.2285 24.6172 24.3357 24.5059Z" fill="#020202"/>
<path d="M43.3636 28.127C43.8588 28.1959 44.0794 28.3328 44.4887 28.6247C44.7031 28.9588 44.7031 28.9588 44.6845 29.2176C44.5802 29.5686 44.432 29.8473 44.2509 30.163C44.1979 30.2561 44.1979 30.2561 44.1439 30.3511C44.0273 30.5557 43.9096 30.7596 43.7919 30.9635C43.7093 31.1081 43.6267 31.2527 43.5443 31.3974C43.3728 31.698 43.201 31.9984 43.029 32.2987C42.6746 32.9177 42.3246 33.5394 41.9746 34.1612C41.7855 34.4969 41.5962 34.8323 41.4068 35.1678C41.3309 35.3024 41.255 35.437 41.179 35.5715C40.7234 36.379 40.7234 36.379 40.6095 36.5809C40.5336 36.7154 40.4577 36.85 40.3817 36.9846C40.192 37.3209 40.0023 37.6572 39.8125 37.9934C39.4313 38.6689 39.0503 39.3446 38.6695 40.0204C37.9343 41.3253 37.1978 42.6295 36.4569 43.9309C36.3806 44.0651 36.3043 44.1992 36.2281 44.3334C36.1232 44.518 36.0181 44.7024 35.913 44.8868C35.8533 44.9917 35.7936 45.0965 35.7321 45.2045C35.5914 45.442 35.5914 45.442 35.4842 45.5533C34.9031 45.6258 34.599 45.5148 34.1421 45.1727C33.9335 44.9411 33.8546 44.7439 33.769 44.4396C33.8437 44.2027 33.8437 44.2027 33.9889 43.9628C34.0701 43.8247 34.0701 43.8247 34.1529 43.6838C34.2448 43.5342 34.2448 43.5342 34.3385 43.3816C34.4693 43.1605 34.6 42.9394 34.7305 42.7181C34.8008 42.6002 34.8711 42.4822 34.9436 42.3607C35.2841 41.7834 35.6114 41.1984 35.9392 40.6133C36.1323 40.2691 36.3262 39.9255 36.5201 39.5818C36.5781 39.4792 36.5781 39.4792 36.6372 39.3744C37.0434 38.6553 37.4529 37.9382 37.8626 37.2213C38.5168 36.0762 39.1649 34.9277 39.8098 33.777C40.0946 33.2688 40.3799 32.761 40.6657 32.2534C40.7052 32.1831 40.7448 32.1128 40.7855 32.0404C40.9835 31.6888 41.182 31.3375 41.3814 30.9867C41.7036 30.4196 42.0247 29.8528 42.3268 29.2737C42.3696 29.1936 42.4124 29.1135 42.4565 29.031C42.5622 28.8321 42.6651 28.6317 42.7677 28.4311C42.988 28.1792 42.988 28.1792 43.3636 28.127Z" fill="#040404"/>
<path d="M36.02 21.3867C36.1095 21.4694 36.1095 21.4694 36.2009 21.5538C36.4897 21.7484 36.6475 21.75 36.9848 21.7208C36.9848 22.2656 36.8811 22.3335 36.5292 22.7162C36.2687 23.0023 36.0212 23.2783 35.7939 23.5937C35.727 23.674 35.6601 23.7542 35.5912 23.8369C35.4851 23.8369 35.3789 23.8369 35.2696 23.8369C35.2586 23.7519 35.2475 23.6669 35.2361 23.5794C35.1577 23.2611 35.0799 23.1512 34.8408 22.9459C34.9936 22.5919 35.1814 22.3293 35.4304 22.041C35.4956 21.9649 35.5608 21.8889 35.628 21.8105C35.7555 21.6661 35.8867 21.5252 36.02 21.3867Z" fill="#0A0A0A"/>
<path d="M26.1581 23.9492C26.2642 23.9492 26.3704 23.9492 26.4797 23.9492C26.4797 24.8313 26.4797 25.7134 26.4797 26.6222C26.3736 26.6222 26.2675 26.6222 26.1581 26.6222C26.1581 26.5119 26.1581 26.4017 26.1581 26.2881C25.8751 26.2881 25.5921 26.2881 25.3005 26.2881C25.3005 25.6265 25.3005 24.9649 25.3005 24.2833C25.5835 24.2833 25.8665 24.2833 26.1581 24.2833C26.1581 24.1731 26.1581 24.0628 26.1581 23.9492Z" fill="#0A0A0A"/>
<path d="M37.5076 22.4051C37.6735 22.4516 37.6735 22.4516 37.8426 22.499C37.7792 22.8851 37.6476 23.0833 37.3937 23.3691C37.3269 23.4456 37.26 23.5222 37.1911 23.601C37.0891 23.7171 37.0891 23.7171 36.9851 23.8355C36.8617 23.9835 36.7388 24.1319 36.6166 24.281C36.5259 24.3912 36.4353 24.5015 36.3419 24.6151C36.2357 24.5784 36.1296 24.5416 36.0203 24.5037C35.9332 24.1592 35.9332 24.1592 35.9131 23.7241C36.0853 23.434 36.2266 23.2391 36.4491 23.0002C36.5247 22.9085 36.5247 22.9085 36.6019 22.8149C36.9147 22.4662 37.0422 22.3856 37.5076 22.4051Z" fill="#0B0B0B"/>
<path d="M38.1046 23.1133C38.3383 23.1477 38.3383 23.1477 38.7001 23.2799C38.5508 23.6235 38.3737 23.878 38.1306 24.157C37.8907 24.4337 37.6608 24.7125 37.4405 25.0062C37.3609 25.0981 37.2813 25.19 37.1993 25.2846C37.0932 25.2846 36.987 25.2846 36.8777 25.2846C36.8137 24.9769 36.7705 24.7099 36.7705 24.3936C37.5514 23.2299 37.5514 23.2299 38.1046 23.1133Z" fill="#0A0A0A"/>
<path d="M27.2301 23.9492C27.3362 23.9492 27.4423 23.9492 27.5516 23.9492C27.5516 24.8313 27.5516 25.7134 27.5516 26.6222C27.4455 26.6222 27.3394 26.6222 27.2301 26.6222C27.2301 26.5119 27.2301 26.4017 27.2301 26.2881C27.0886 26.2881 26.9471 26.2881 26.8013 26.2881C26.8013 25.6265 26.8013 24.9649 26.8013 24.2833C26.9428 24.2833 27.0843 24.2833 27.2301 24.2833C27.2301 24.1731 27.2301 24.0628 27.2301 23.9492Z" fill="#050505"/>
<path d="M24.3355 24.5059C24.5478 24.5059 24.76 24.5059 24.9787 24.5059C24.9787 25.0204 24.9787 25.5349 24.9787 26.0651C24.4972 26.1651 24.2622 26.1657 23.7996 26.0651C23.9411 26.0283 24.0826 25.9916 24.2283 25.9537C24.2271 25.8585 24.2259 25.7633 24.2246 25.6653C24.2231 25.4807 24.2231 25.4807 24.2216 25.2924C24.2204 25.1697 24.2192 25.0469 24.2179 24.9205C24.2283 24.6172 24.2283 24.6172 24.3355 24.5059Z" fill="#313131"/>
<path d="M38.5927 23.8379C38.7342 23.9114 38.8757 23.9849 39.0215 24.0606C38.9645 24.5215 38.7236 24.759 38.4252 25.0908C38.3366 25.1902 38.2481 25.2895 38.1568 25.3919C38.0884 25.4671 38.02 25.5423 37.9495 25.6199C37.808 25.5464 37.6665 25.4728 37.5208 25.3971C37.6884 25.0048 37.9168 24.6987 38.1773 24.3669C38.255 24.2676 38.3327 24.1682 38.4127 24.0659C38.5018 23.953 38.5018 23.953 38.5927 23.8379Z" fill="#0C0C0C"/>
<path d="M29.8027 24.5059C30.015 24.5059 30.2272 24.5059 30.4459 24.5059C30.6144 24.856 30.578 25.2362 30.5531 25.6196C30.5177 25.7298 30.4824 25.8401 30.4459 25.9537C30.2337 25.9537 30.0214 25.9537 29.8027 25.9537C29.8027 25.4759 29.8027 24.9981 29.8027 24.5059Z" fill="#1A1A1A"/>
<path d="M35.1826 20.9414C35.3769 21.0528 35.3769 21.0528 35.5913 21.3869C35.3083 21.7177 35.0253 22.0485 34.7337 22.3893C34.5569 22.279 34.38 22.1687 34.1978 22.0551C34.3468 21.5625 34.621 20.9414 35.1826 20.9414Z" fill="#0F0F0F"/>
<path d="M39.1288 24.7285C39.5442 24.9234 39.5442 24.9234 39.6648 25.174C39.3932 25.6443 39.1753 25.9295 38.7 26.1764C38.5939 26.0661 38.4878 25.9558 38.3784 25.8422C38.5572 25.4033 38.8316 25.0861 39.1288 24.7285Z" fill="#0B0B0B"/>
<path d="M4.70797 17.9844C7.96418 19.1831 10.7955 21.8424 12.3227 24.9315C12.8539 25.6627 13.4547 25.9057 14.2738 26.2575C14.2439 26.8555 14.211 27.4534 14.1769 28.0511C14.1589 28.3841 14.1409 28.717 14.1223 29.06C14.071 29.8416 13.9025 30.4907 13.6638 31.2344C13.2819 32.8716 14.0769 34.1554 14.8232 35.581C14.9663 35.8587 15.1093 36.1364 15.2567 36.4225C16.4538 38.6247 17.4607 39.6158 19.7031 40.7356C20.4444 41.2 21.164 41.694 21.8845 42.1899C22.0589 42.3048 22.2333 42.4197 22.4129 42.5381C23.5245 43.2881 24.3456 44.0395 25.1324 45.1307C25.2865 46.0749 25.2042 46.5314 24.793 47.3929C24.1692 48.2247 23.7145 48.4674 22.6924 48.6533C21.1561 48.6059 20.0653 47.6307 18.8684 46.7543C18.3728 46.3962 17.8699 46.0509 17.3641 45.7074C15.4431 44.4024 15.4431 44.4024 14.7752 43.9274C14.4419 43.6961 14.1005 43.476 13.7522 43.2679C11.9743 42.1266 11.2713 40.4721 10.3958 38.6027C10.2437 38.29 10.0912 37.9776 9.93828 37.6655C8.84455 35.4012 8.84455 35.4012 8.84455 34.7893C8.41797 34.7893 7.99138 34.7893 7.55187 34.7893C7.54187 34.4243 7.54187 34.4243 7.53167 34.052C7.48437 31.6068 7.48437 31.6068 6.25919 29.6185C5.33359 28.9121 4.55151 28.755 3.41528 28.5844C3.54585 26.1172 3.88116 23.7061 4.26361 21.2676C4.43437 20.1754 4.57661 19.082 4.70797 17.9844Z" fill="#040404"/>
<path d="M7.75625 12.9274C8.40469 13.243 8.9328 13.5407 9.51753 13.9454C9.6742 14.0504 9.83088 14.1553 9.99231 14.2635C12.7733 16.169 15.7165 18.4698 17.5262 21.7015C17.5262 21.7015 18.0763 22.3331 18.4311 22.7357C18.8331 23.1917 19.0633 23.5724 19.4653 24.0284C19.8201 24.4309 19.9275 24.6878 20.2953 25.0787C20.6798 25.4873 20.8505 25.5742 21.3294 26.1128C21.8083 26.6515 22.1931 27.0848 22.6221 27.664C22.781 27.868 22.9754 28.0234 23.1392 28.2335C23.4534 28.6374 23.735 29.066 24.044 29.4738C24.5187 30.0999 24.9714 30.8024 25.466 31.4128C25.695 31.7033 25.7495 31.7628 25.9831 32.0592C26.4482 32.6368 26.9258 33.1738 27.405 33.7396C27.5583 33.9228 27.7642 34.1973 27.9221 34.386C28.2269 34.7498 28.3879 35.0444 28.6977 35.404C30.1197 37.2299 30.1964 36.9759 30.1197 38.264C29.6026 38.9104 29.7541 38.9245 29.0532 39.5243C28.8259 39.7263 28.9222 39.4619 28.5141 39.9284C27.8132 40.3828 27.9564 40.3162 27.3506 40.3162C26.4292 40.107 26.0212 39.7357 25.4116 39.0235C25.3003 38.8954 25.1385 38.7677 25.0238 38.6357C24.0751 37.5354 23.0923 36.5344 22.1799 35.404C21.6186 34.7238 21.0934 34.1166 20.4994 33.465C19.6648 32.542 18.8523 31.5667 18.0433 30.621C17.8484 30.3954 17.5979 30.0779 17.397 29.8454C16.9108 29.0971 17.1384 29.451 16.2336 28.2335C15.3287 27.016 15.0702 26.743 15.0702 26.743L14.1653 25.7089C14.1653 25.7089 13.0507 24.2745 12.3443 23.181C10.7228 20.7107 8.56198 18.8484 5.99799 17.4154C5.4464 17.0745 5.04946 16.8013 4.65381 16.2884C4.47848 15.495 4.50277 14.7584 4.65381 13.9615C5.56385 12.8309 6.36251 12.8023 7.75625 12.9274Z" fill="#040404"/>
<path d="M2.97103 29.6875C4.29383 29.7481 5.04946 29.8987 6.00075 30.9095C6.87214 32.6523 6.21664 35.5913 6.06943 37.5012C6.04893 37.7692 6.02842 38.0371 6.0073 38.3133C5.96368 38.8736 5.91933 39.4338 5.87426 39.9941C5.80654 40.8509 5.74511 41.708 5.68364 42.5653C5.64027 43.1126 5.59652 43.6598 5.55235 44.207C5.53507 44.462 5.51779 44.717 5.49998 44.9798C5.38059 46.3594 5.25381 47.2433 4.191 48.2314C3.3626 48.6456 2.50446 48.6174 1.60563 48.49C0.715457 47.9407 0.386328 47.676 0.0544119 46.6802C-0.125584 43.76 0.178086 40.8102 0.425238 37.9022C0.469164 37.3735 0.510453 36.8445 0.549204 36.3154C0.60588 35.5416 0.670107 34.7688 0.7361 33.9958C0.752049 33.7606 0.767998 33.5255 0.78443 33.2833C0.929634 31.7251 1.29724 30.2206 2.97103 29.6875Z" fill="#040404"/>
<path d="M18.0034 5.85806C19.3058 6.78027 20.2954 7.87818 20.5757 9.49575C20.6568 10.9704 20.2881 12.1236 19.4446 13.3314C18.2951 14.4514 17.2176 14.904 15.6312 15.0119C14.0897 14.9728 13.0336 14.4113 11.947 13.3314C11.0829 12.0456 10.6876 10.7438 10.9129 9.1948C11.4332 7.6719 12.1905 6.75202 13.4982 5.83383C14.9293 5.3568 16.605 5.22754 18.0034 5.85806Z" fill="#040404"/>
<path d="M32.5999 29.8791C33.0126 30.2143 33.2783 30.4732 33.515 30.9467C33.5752 31.6684 33.5841 32.0287 33.2577 32.6816C32.7409 33.2682 32.3807 33.3567 31.6181 33.4537C30.8923 33.3646 30.6711 33.1359 30.1596 32.6244C29.8773 32.0598 29.9362 31.4105 30.0071 30.7942C30.6281 29.7295 31.4647 29.5593 32.5999 29.8791Z" fill="#484A49"/>
<path d="M31.7515 30.9082C31.945 30.9271 31.945 30.9271 32.1423 30.9463C32.4474 31.4039 32.4474 31.4039 32.3997 31.728C32.2949 32.014 32.2949 32.014 32.1423 32.1665C31.7706 32.1951 31.7706 32.1951 31.3797 32.1665C31.2791 32.0658 31.1784 31.9652 31.0747 31.8614C31.1839 30.9664 31.1839 30.9664 31.7515 30.9082Z" fill="#484A49"/>
<path d="M51.66 0.0121471C53.0573 0.448332 54.0991 1.32865 54.7835 2.4873C54.8739 3.10246 54.855 3.36253 54.4414 3.87183C54.2811 4.01279 54.1208 4.15375 53.9557 4.29898C53.6842 4.54112 53.6842 4.54112 53.4073 4.78816C53.2089 4.96016 53.0105 5.13216 52.8061 5.30938C52.6034 5.48869 52.4007 5.66801 52.1919 5.85275C51.652 6.33013 51.1089 6.80447 50.5651 7.27831C50.126 7.66192 49.6893 8.04764 49.2526 8.43349C45.6031 11.6581 45.6031 11.6581 44.0882 12.8007C43.5724 13.2098 43.1392 13.6775 42.6891 14.1429C41.7524 14.9999 41.7524 14.9999 40.9504 15.0422C40.5449 14.9814 40.1404 14.9149 39.7374 14.842C39.1679 14.7727 39.1679 14.7727 38.6861 15.0632C38.2568 15.4222 37.9325 15.698 37.6644 16.1657C37.7705 16.9312 38.0719 17.5756 38.4237 18.2766C38.5306 18.4908 38.6374 18.705 38.7475 18.9257C38.8594 19.1474 38.9712 19.369 39.0865 19.5974C39.1992 19.8228 39.3119 20.0481 39.428 20.2803C39.706 20.8357 39.9849 21.3907 40.2648 21.9453C41.8686 21.8489 43.389 21.6411 44.9509 21.3072C45.1567 21.2648 45.3626 21.2224 45.5747 21.1787C46.5318 20.9808 47.4859 20.7753 48.4366 20.5546C52.9198 19.5267 52.9198 19.5267 54.9054 20.3319C57.0745 22.2108 57.3376 24.4888 57.9121 27.0507C58.1338 28.0321 58.3584 29.013 58.5862 29.9933C58.6843 30.4233 58.7771 30.8541 58.8697 31.2851C59.3455 33.4246 60.1453 35.3314 61.1354 37.3215C61.3671 37.7966 61.5974 38.2721 61.8276 38.7477C61.9855 39.0739 62.1438 39.3999 62.3024 39.7258C63.1705 41.5131 63.9895 43.3176 64.8058 45.124C65.0684 45.7054 65.3314 46.2866 65.5947 46.8677C65.6543 46.9997 65.714 47.1318 65.7755 47.2678C66.1531 48.0991 66.5506 48.9188 66.9852 49.7278C67.2804 50.4064 67.2553 50.8905 67.1352 51.6141C66.7164 52.2747 66.409 52.6626 65.5837 52.9107C64.7257 53.0393 64.3093 53.0883 63.5653 52.6385C62.9719 52.1544 62.7422 51.7964 62.4348 51.1399C62.3344 50.9289 62.2339 50.7178 62.1305 50.5004C62.0256 50.2719 61.9207 50.0434 61.8126 49.8079C61.6993 49.5662 61.5857 49.3246 61.4719 49.0831C61.1155 48.3231 60.7658 47.5607 60.4176 46.7977C60.3624 46.6768 60.3071 46.5559 60.2502 46.4313C59.5978 45.0023 58.9548 43.5701 58.3166 42.136C57.907 41.2166 57.4922 40.2991 57.0758 39.382C56.8941 38.9814 56.7126 38.5808 56.531 38.1801C56.414 37.9222 56.2968 37.6645 56.1793 37.4068C56.017 37.0505 55.8556 36.6939 55.6943 36.3372C55.5557 36.0322 55.5557 36.0322 55.4143 35.7211C55.2169 35.2385 55.2169 35.2385 55.2169 34.8532C54.158 35.7271 53.3199 36.7301 52.454 37.755C52.1462 38.1188 51.8384 38.4825 51.5305 38.8462C51.3826 39.0211 51.2348 39.196 51.0824 39.3762C50.7279 39.7901 50.3671 40.1973 49.9984 40.6012C49.821 40.7984 49.6436 40.9955 49.4609 41.1987C49.3086 41.3634 49.1564 41.528 48.9995 41.6977C48.6153 42.3432 48.7409 42.6223 48.9327 43.3299C49.1634 43.8585 49.4356 44.3666 49.7123 44.8772C49.8696 45.1754 50.0269 45.4737 50.1842 45.772C50.4321 46.2378 50.6808 46.7032 50.9304 47.1683C51.1721 47.6198 51.4107 48.0726 51.649 48.5256C51.7242 48.6635 51.7993 48.8014 51.8768 48.9435C52.2907 49.7336 52.5234 50.3383 52.3998 51.2288C51.7155 52.3036 51.7155 52.3036 51.0996 52.5773C50.6688 52.6232 50.6688 52.6232 50.1651 52.6375C50.0006 52.6447 49.8361 52.6519 49.6666 52.6594C48.9262 52.5419 48.612 52.2665 48.0659 51.8067C47.7348 51.3357 47.4883 50.8398 47.2397 50.331C47.1669 50.1874 47.094 50.0439 47.019 49.896C46.7874 49.4382 46.5598 48.979 46.3323 48.5196C46.1796 48.216 46.0267 47.9126 45.8735 47.6093C45.5784 47.0247 45.2862 46.4389 44.9957 45.8524C44.665 45.188 44.3084 44.537 43.9486 43.8846C43.4899 42.9689 43.308 42.4016 43.5152 41.4034C43.9124 40.7515 44.4044 40.1876 44.9238 39.6093C45.0616 39.4484 45.1995 39.2875 45.3416 39.1217C45.9285 38.4379 46.5263 37.7638 47.1441 37.1018C47.3008 36.928 47.4575 36.7541 47.6189 36.575C47.755 36.4337 47.891 36.2924 48.0312 36.1468C48.6452 34.8694 47.9616 33.0909 47.6655 31.7662C47.6273 31.5911 47.5892 31.4161 47.5498 31.2357C47.4293 30.6834 47.3076 30.1313 47.1856 29.5793C47.0628 29.0231 46.9404 28.4668 46.819 27.9104C46.7438 27.5659 46.6678 27.2215 46.5911 26.8773C46.5571 26.7216 46.523 26.5659 46.488 26.4055C46.4579 26.2692 46.4277 26.133 46.3967 25.9927C46.3323 25.6058 46.3323 25.6058 46.3323 24.8352C46.1576 24.8692 45.9829 24.9032 45.8028 24.9382C45.1471 25.0655 44.4912 25.1922 43.8352 25.3184C43.4147 25.3996 42.9943 25.4814 42.574 25.5633C41.8053 25.711 41.0356 25.8524 40.2648 25.9911C40.0849 26.0264 39.905 26.0617 39.7197 26.098C38.9924 26.2182 38.6288 26.2378 37.9914 25.8846C37.3542 25.332 37.0246 24.76 36.6783 24.045C36.6125 23.9144 36.5467 23.7839 36.4789 23.6494C36.3412 23.3749 36.2048 23.1 36.0698 22.8245C35.8626 22.4018 35.6514 21.9809 35.4395 21.56C35.3059 21.2927 35.1726 21.0253 35.0395 20.7578C34.9451 20.5685 34.9451 20.5685 34.8487 20.3753C34.414 19.4863 34.414 19.4863 34.414 19.0555C34.2709 19.0555 34.1279 19.0555 33.9806 19.0555C33.9537 19.1747 33.9269 19.2939 33.8993 19.4168C33.7639 19.8262 33.7639 19.8262 33.3305 20.2115C32.7977 20.1656 32.5044 20.045 32.0709 19.766C31.8136 19.4408 31.8136 19.4408 31.8 19.0796C32.0303 18.6702 32.0303 18.6702 32.6668 18.2488C33.4476 17.7195 33.5012 17.192 33.6623 16.3629C33.7639 15.9731 33.7639 15.9731 34.116 15.5878C34.6307 15.3951 34.6307 15.3951 35.4433 15.371C36.3388 15.3006 36.7405 14.9669 37.3529 14.3957C37.998 13.7053 37.998 13.7053 38.0978 12.8304C38.0263 12.6595 37.9548 12.4887 37.8811 12.3127C37.8811 11.542 37.8811 11.542 38.2314 11.1366C38.3956 10.9918 38.5597 10.847 38.7289 10.6978C38.9142 10.5325 39.0995 10.3672 39.2904 10.1969C39.4935 10.0197 39.6966 9.84248 39.9059 9.6599C40.1157 9.47433 40.3253 9.28861 40.5347 9.10274C40.975 8.71275 41.4167 8.32405 41.8595 7.93631C42.4228 7.44309 42.9838 6.94787 43.5439 6.4518C44.0821 5.97524 44.6214 5.49964 45.1608 5.02416C45.3604 4.84812 45.56 4.67208 45.7657 4.4907C46.7495 3.62883 47.7431 2.78951 48.795 1.99338C49.4596 1.47446 50.0373 0.879746 50.6282 0.29586C51.0996 -0.0172025 51.0996 -0.0172025 51.66 0.0121471Z" fill="#030303"/>
<path d="M52.2728 11.3079C53.569 11.9629 54.3157 12.981 54.779 14.2445C54.9055 15.5562 54.6462 16.6045 53.9213 17.7537C53.0855 18.6105 52.1506 19.2508 50.8824 19.3857C49.2471 19.4133 48.079 19.3724 46.8452 18.3386C46.3493 17.8633 46.3493 17.8633 45.9874 17.3638C45.8017 17.1105 45.8017 17.1105 45.6122 16.852C45.1661 15.7569 45.1111 14.6775 45.5251 13.5621C46.8395 11.1721 49.5517 10.2171 52.2728 11.3079Z" fill="#040404"/>
</svg>
