<svg width="63" height="46" viewBox="0 0 63 46" fill="none" xmlns="http://www.w3.org/2000/svg">
<path d="M36.7939 14.682C37.0549 14.682 37.3053 14.585 37.4899 14.4125C37.6745 14.24 37.7782 14.006 37.7782 13.762V12.3084L40.0304 14.4317C40.1203 14.5223 40.2287 14.5951 40.3493 14.6457C40.4699 14.6963 40.6002 14.7237 40.7323 14.7262C40.8645 14.7287 40.9958 14.7063 41.1185 14.6604C41.2412 14.6144 41.3527 14.5459 41.4465 14.4588C41.5402 14.3716 41.6142 14.2678 41.6641 14.1534C41.7139 14.039 41.7386 13.9163 41.7366 13.7928C41.7347 13.6693 41.7061 13.5474 41.6527 13.4344C41.5993 13.3214 41.522 13.2196 41.4256 13.1351L39.1563 11.0007H40.7313C40.8606 11.0009 40.9887 10.9772 41.1082 10.931C41.2277 10.8849 41.3363 10.8171 41.4277 10.7316C41.5191 10.6462 41.5916 10.5447 41.6411 10.433C41.6905 10.3213 41.7158 10.2016 41.7156 10.0807V6.40075C41.7156 6.15675 41.6119 5.92274 41.4273 5.75021C41.2427 5.57767 40.9923 5.48075 40.7313 5.48075H36.7939C36.5328 5.48075 36.2824 5.57767 36.0978 5.75021C35.9132 5.92274 35.8095 6.15675 35.8095 6.40075V13.7607C35.8093 13.8817 35.8347 14.0014 35.8841 14.1132C35.9334 14.225 36.0059 14.3265 36.0973 14.4121C36.1888 14.4976 36.2973 14.5655 36.4169 14.6118C36.5364 14.6581 36.6645 14.682 36.7939 14.682ZM37.7782 7.32197H39.7469V9.16197H37.7782V7.32197ZM28.919 14.682H32.8564C33.1175 14.682 33.3679 14.585 33.5525 14.4125C33.7371 14.24 33.8408 14.006 33.8408 13.762V6.40197C33.8408 6.15797 33.7371 5.92397 33.5525 5.75144C33.3679 5.5789 33.1175 5.48197 32.8564 5.48197H28.919C28.658 5.48197 28.4076 5.5789 28.223 5.75144C28.0384 5.92397 27.9347 6.15797 27.9347 6.40197V13.762C27.9347 14.006 28.0384 14.24 28.223 14.4125C28.4076 14.585 28.658 14.682 28.919 14.682ZM29.9034 7.32197H31.8721V12.842H29.9034V7.32197ZM44.6687 14.682H48.6061C48.8672 14.682 49.1176 14.585 49.3022 14.4125C49.4868 14.24 49.5905 14.006 49.5905 13.762C49.5905 13.518 49.4868 13.284 49.3022 13.1114C49.1176 12.9389 48.8672 12.842 48.6061 12.842H45.653V11.002H48.6061C48.8672 11.002 49.1176 10.905 49.3022 10.7325C49.4868 10.56 49.5905 10.326 49.5905 10.082C49.5905 9.83797 49.4868 9.60397 49.3022 9.43143C49.1176 9.2589 48.8672 9.16197 48.6061 9.16197H45.653V7.32197H48.6061C48.8672 7.32197 49.1176 7.22504 49.3022 7.05251C49.4868 6.87998 49.5905 6.64597 49.5905 6.40197C49.5905 6.15797 49.4868 5.92397 49.3022 5.75144C49.1176 5.5789 48.8672 5.48197 48.6061 5.48197H44.6687C44.4076 5.48197 44.1573 5.5789 43.9726 5.75144C43.788 5.92397 43.6843 6.15797 43.6843 6.40197V13.762C43.6843 14.006 43.788 14.24 43.9726 14.4125C44.1573 14.585 44.4076 14.682 44.6687 14.682ZM52.1695 20.2609H10.8266C9.5219 20.2625 8.27118 20.7477 7.34875 21.61C6.42632 22.4724 5.90752 23.6415 5.90613 24.8609V35.9009C5.90752 37.1204 6.42651 38.2897 7.34922 39.1521C8.27193 40.0145 9.52299 40.4996 10.8279 40.5009H52.1708C53.4756 40.4992 54.7265 40.0141 55.6491 39.1517C56.5717 38.2894 57.0908 37.1203 57.0926 35.9009V24.8609C57.0908 23.6411 56.5715 22.4719 55.6486 21.6095C54.7257 20.7472 53.4745 20.2622 52.1695 20.2609ZM2.95306 44.1809H60.0456C60.3067 44.1809 60.5571 44.0839 60.7417 43.9114C60.9263 43.7389 61.03 43.5048 61.03 43.2608V2.78085C61.03 2.53685 60.9263 2.30285 60.7417 2.13032C60.5571 1.95778 60.3067 1.86085 60.0456 1.86085H2.95306C2.692 1.86085 2.44162 1.95778 2.25702 2.13032C2.07242 2.30285 1.96871 2.53685 1.96871 2.78085V43.2608C1.96871 43.5046 2.07224 43.7385 2.25656 43.911C2.44087 44.0835 2.69091 44.1805 2.95175 44.1809H2.95306ZM3.93742 6.46085C3.93811 5.72905 4.24946 5.02742 4.80312 4.50996C5.35677 3.9925 6.10749 3.7015 6.89048 3.70085H56.1082C56.8911 3.70183 57.6416 3.99292 58.1952 4.51031C58.7488 5.0277 59.0602 5.72915 59.0613 6.46085V13.8209C59.0602 14.5526 58.7488 15.254 58.1952 15.7714C57.6416 16.2888 56.8911 16.5799 56.1082 16.5809H6.89048C6.10749 16.5802 5.35677 16.2892 4.80312 15.7717C4.24946 15.2543 3.93811 14.5527 3.93742 13.8209V6.46085ZM3.93742 18.4209H59.0613V42.3409H3.93742V18.4209ZM63 46H0V0H62.9987L63 46ZM21.0442 14.7126H24.9816C25.2427 14.7126 25.493 14.6157 25.6776 14.4432C25.8622 14.2706 25.966 14.0366 25.966 13.7926C25.966 13.5486 25.8622 13.3146 25.6776 13.1421C25.493 12.9696 25.2427 12.8726 24.9816 12.8726H22.0285V7.35264H24.9816C25.2427 7.35264 25.493 7.25571 25.6776 7.08318C25.8622 6.91064 25.966 6.67664 25.966 6.43264C25.966 6.18864 25.8622 5.95464 25.6776 5.7821C25.493 5.60957 25.2427 5.51264 24.9816 5.51264H21.0442C20.7831 5.51264 20.5327 5.60957 20.3481 5.7821C20.1635 5.95464 20.0598 6.18864 20.0598 6.43264V13.7926C20.0598 14.0366 20.1635 14.2706 20.3481 14.4432C20.5327 14.6157 20.7831 14.7126 21.0442 14.7126ZM13.1693 12.9597C12.9083 12.9597 12.6579 13.0567 12.4733 13.2292C12.2887 13.4017 12.185 13.6357 12.185 13.8797C12.185 14.1237 12.2887 14.3577 12.4733 14.5303C12.6579 14.7028 12.9083 14.7997 13.1693 14.7997H17.1068C17.2361 14.7999 17.3642 14.7762 17.4837 14.73C17.6032 14.6839 17.7118 14.6161 17.8032 14.5306C17.8946 14.4452 17.9671 14.3437 18.0165 14.232C18.0659 14.1203 18.0913 14.0006 18.0911 13.8797V10.1997C18.0911 9.95573 17.9874 9.72173 17.8028 9.54919C17.6182 9.37666 17.3678 9.27973 17.1068 9.27973H14.1537V7.43973H17.1068C17.3678 7.43973 17.6182 7.3428 17.8028 7.17027C17.9874 6.99774 18.0911 6.76373 18.0911 6.51973C18.0911 6.27573 17.9874 6.04173 17.8028 5.8692C17.6182 5.69666 17.3678 5.59973 17.1068 5.59973H13.1693C12.9083 5.59973 12.6579 5.69666 12.4733 5.8692C12.2887 6.04173 12.185 6.27573 12.185 6.51973V10.1997C12.185 10.4437 12.2887 10.6777 12.4733 10.8503C12.6579 11.0228 12.9083 11.1197 13.1693 11.1197H16.1224V12.9597H13.1693Z" fill="#2A373F"/>
</svg>
