<svg width="40" height="40" viewBox="0 0 40 40" fill="none" xmlns="http://www.w3.org/2000/svg">
<path opacity="0.981" fill-rule="evenodd" clip-rule="evenodd" d="M17.1569 0C20.5641 0 23.9713 0 27.3785 0C28.995 0.286104 30.5208 0.806937 31.956 1.5625C31.8383 0.858367 32.1198 0.337532 32.8004 0C34.9336 0 37.0668 0 39.2 0C39.5537 0.141782 39.8055 0.376157 39.9555 0.703125C40.0148 4.92188 40.0148 9.14062 39.9555 13.3594C39.8222 13.6849 39.5704 13.9062 39.2 14.0234C37.0668 14.0755 34.9336 14.0755 32.8004 14.0234C32.2718 13.7923 31.9903 13.4148 31.956 12.8906C30.4725 13.889 28.7984 14.2666 26.9341 14.0234C26.3859 13.9409 25.8526 13.8107 25.3342 13.6328C24.4219 13.1864 23.5182 12.7307 22.6233 12.2656C22.2826 12.813 21.9863 13.3859 21.7344 13.9844C21.665 14.0972 21.6798 14.2013 21.7789 14.2969C22.8298 14.764 23.526 15.4932 23.8676 16.4844C23.9827 18.4337 24.042 20.3868 24.0454 22.3438C24.0721 23.1384 24.2795 23.8936 24.6676 24.6094C25.1713 25.3906 25.6749 26.1719 26.1786 26.9531C27.0632 29.0552 26.7818 31.0214 25.3342 32.8516C25.9305 32.8817 26.3601 33.1291 26.623 33.5938C26.6823 35.4948 26.6823 37.3959 26.623 39.2969C26.473 39.6238 26.2212 39.8582 25.8675 40C21.0678 40 16.2681 40 11.4684 40C11.1147 39.8582 10.8629 39.6238 10.7129 39.2969C10.6536 37.3959 10.6536 35.4948 10.7129 33.5938C11.0758 32.9851 11.6535 32.7377 12.4461 32.8516C11.5555 31.5855 10.9777 30.2184 10.7129 28.75C10.6536 25.7552 10.6536 22.7604 10.7129 19.7656C10.8389 18.958 11.0759 18.1767 11.4239 17.4219C12.2865 15.5283 13.1604 13.6402 14.046 11.7578C13.0389 11.6084 12.1945 11.2047 11.5128 10.5469C11.302 10.2261 11.0502 9.93969 10.7573 9.6875C8.79138 10.3952 6.80634 11.0592 4.8021 11.6797C2.32895 11.9153 0.743861 10.9909 0.0468367 8.90625C-0.212108 7.05291 0.602661 5.71177 2.49113 4.88281C6.498 3.49185 10.4978 2.0856 14.4904 0.664062C15.3668 0.367637 16.2556 0.146283 17.1569 0ZM18.4013 2.34375C21.3069 2.31129 24.2104 2.35035 27.1119 2.46094C27.7262 2.55414 28.3188 2.71039 28.8895 2.92969C29.8969 3.3724 30.9043 3.8151 31.9116 4.25781C32.0144 5.46294 32.0293 6.67387 31.956 7.89062C31.9087 9.36758 31.1829 10.5004 29.7784 11.2891C28.5186 11.7765 27.2743 11.7504 26.0453 11.2109C24.6349 10.2331 23.035 9.63414 21.2456 9.41406C19.0235 9.38805 16.8014 9.36195 14.5793 9.33594C13.3324 9.05758 13.0213 8.41961 13.646 7.42188C13.8089 7.33073 13.972 7.23959 14.1349 7.14844C17.2203 7.07195 20.3015 6.99383 23.3788 6.91406C23.8314 6.67838 24.0388 6.32682 24.0009 5.85938C24.0073 5.33138 23.7406 4.95377 23.201 4.72656C20.0605 4.67448 16.9199 4.67448 13.7793 4.72656C12.3335 5.00345 11.3409 5.74564 10.8017 6.95312C8.70942 7.7661 6.59097 8.5343 4.44657 9.25781C2.95287 9.32859 2.46402 8.74266 2.97999 7.5C3.19398 7.30812 3.44582 7.16489 3.7355 7.07031C8.10146 5.51611 12.4864 4.00569 16.8903 2.53906C17.4061 2.46944 17.9098 2.40433 18.4013 2.34375ZM34.667 2.34375C35.5558 2.34375 36.4446 2.34375 37.3335 2.34375C37.3335 5.46875 37.3335 8.59375 37.3335 11.7188C36.4446 11.7188 35.5558 11.7188 34.667 11.7188C34.667 8.59375 34.667 5.46875 34.667 2.34375ZM16.9791 11.7188C17.8995 11.6928 18.818 11.7188 19.7345 11.7969C19.3938 12.5521 19.0531 13.3073 18.7124 14.0625C17.7399 14.4634 16.9695 15.0623 16.4014 15.8594C16.2475 16.1612 16.1289 16.4737 16.0459 16.7969C15.9866 19.5573 15.9866 22.3177 16.0459 25.0781C16.5038 25.7793 17.1704 25.9746 18.0457 25.6641C18.31 25.5262 18.5026 25.3309 18.6235 25.0781C18.6266 22.4188 18.6858 19.7626 18.8013 17.1094C19.1959 16.4222 19.8032 16.2269 20.6234 16.5234C21.0268 16.749 21.249 17.0745 21.29 17.5C21.3196 19.4271 21.3493 21.3541 21.3789 23.2812C21.6457 24.8697 22.3272 26.302 23.4232 27.5781C24.3886 29.4576 23.9293 31.0071 22.0455 32.2266C21.5714 32.4741 21.0677 32.6563 20.5345 32.7734C18.8777 32.8923 17.2185 32.9183 15.557 32.8516C15.0272 31.9592 14.5087 31.0608 14.0015 30.1562C13.7337 29.6321 13.5559 29.0852 13.4682 28.5156C13.2912 25.6512 13.2912 22.7866 13.4682 19.9219C13.5621 19.44 13.7103 18.9713 13.9127 18.5156C14.9615 16.2574 15.9837 13.9918 16.9791 11.7188ZM13.3349 35.2344C16.8903 35.2344 20.4456 35.2344 24.0009 35.2344C24.0009 36.0416 24.0009 36.849 24.0009 37.6562C20.4456 37.6562 16.8903 37.6562 13.3349 37.6562C13.3349 36.849 13.3349 36.0416 13.3349 35.2344Z" fill="black"/>
</svg>
