<svg width="53" height="53" viewBox="0 0 53 53" fill="none" xmlns="http://www.w3.org/2000/svg">
<path d="M13.7472 1.85291C10.5175 2.85701 7.85712 3.70584 7.81572 3.73689C7.78466 3.76795 7.85712 4.10955 7.98134 4.49256C8.09521 4.88591 8.17802 5.20681 8.15732 5.21716C8.13661 5.22752 7.53622 5.4242 6.81161 5.64158C6.087 5.85896 5.43486 6.07634 5.37275 6.11775C5.26923 6.17986 5.35204 6.55252 5.69365 7.64978C5.94208 8.4572 6.15947 9.10935 6.16982 9.10935C6.18017 9.10935 6.85302 8.90232 7.65009 8.65388C8.45751 8.40545 9.13036 8.22947 9.14072 8.27088C9.16142 8.30193 9.26493 8.62283 9.36845 8.97478C9.47197 9.33709 9.60654 9.62693 9.66865 9.62693C9.85497 9.63728 21.3659 6.07634 21.4694 5.98318C21.5522 5.92107 21.397 5.23787 21.1485 4.59607C21.1278 4.53396 21.7489 4.29588 22.6185 4.03709C23.5708 3.74724 24.1091 3.54021 24.078 3.46775C24.0573 3.39529 23.8399 2.73279 23.6122 1.98748C23.3741 1.23181 23.1567 0.621071 23.1153 0.621071C23.0843 0.621071 22.4528 0.807399 21.7179 1.03513C20.9726 1.26287 20.3308 1.4492 20.279 1.4492C20.2376 1.4492 20.0927 1.11795 19.9685 0.724586C19.8339 0.320875 19.7097 -2.28882e-05 19.6786 0.0103283C19.6372 0.0206804 16.9768 0.838453 13.7472 1.85291Z" fill="#2A373F"/>
<path d="M33.032 0.714258C32.9078 1.11797 32.7732 1.44922 32.7422 1.44922C32.7008 1.44922 32.0486 1.26289 31.2826 1.02481C30.5166 0.797071 29.8541 0.641797 29.8127 0.693555C29.7299 0.776368 28.8707 3.54023 28.9121 3.58164C28.9224 3.58164 29.5953 3.78867 30.4027 4.03711L31.8623 4.48223L31.7174 4.9584C31.3758 6.06602 31.2722 5.93145 32.7732 6.40762C37.007 7.72227 43.2283 9.62695 43.3215 9.62695C43.3836 9.62695 43.4871 9.43027 43.5492 9.18184C43.6113 8.94375 43.7148 8.62285 43.7769 8.46758L43.8805 8.19844L45.3504 8.65391C46.1681 8.90234 46.8306 9.09902 46.841 9.07832C46.9652 8.9127 47.7105 6.16953 47.6484 6.10742C47.607 6.07637 46.9652 5.85898 46.2303 5.6416C45.5056 5.41387 44.8846 5.18613 44.8639 5.12402C44.8328 5.06191 44.9156 4.74102 45.0295 4.39941C45.1433 4.06816 45.2055 3.75762 45.164 3.71621C45.1123 3.67481 42.4726 2.83633 39.2844 1.85293C36.0961 0.879883 33.4357 0.0517588 33.3736 0.0310555C33.3012 9.53674e-07 33.1666 0.289845 33.032 0.714258Z" fill="#2A373F"/>
<path d="M24.5852 12.4942C22.8565 12.8565 21.4073 13.6225 20.1133 14.844C17.8981 16.935 16.8215 19.8231 17.1735 22.7422C17.2667 23.5393 17.629 24.9989 17.7635 25.1438C17.7842 25.1645 18.2501 24.7504 18.809 24.2328C21.0657 22.1108 22.6598 21.2516 26.6555 19.9784C29.1399 19.1916 30.496 18.3635 32.4524 16.4381L33.4876 15.4133L32.7733 14.7405C31.5725 13.6121 30.0405 12.8358 28.3428 12.4838C27.3491 12.2768 25.5583 12.2768 24.5852 12.4942Z" fill="#2A373F"/>
<path d="M7.24619 17.2035C5.6831 17.4313 4.38916 17.628 4.37881 17.6383C4.3581 17.6487 4.57549 19.2428 4.85498 21.1785C5.31045 24.3979 5.37256 24.6877 5.54853 24.667C5.65205 24.6567 7.01845 24.4807 8.58154 24.2633C10.5173 23.9942 11.4282 23.8285 11.4593 23.7354C11.5007 23.6215 10.8071 18.2697 10.6001 17.1C10.5483 16.8412 10.4862 16.7688 10.3103 16.7791C10.1964 16.7895 8.80928 16.9758 7.24619 17.2035Z" fill="#2A373F"/>
<path d="M42.4414 16.8001C42.4414 16.8208 42.2343 18.301 41.9756 20.0815C41.7168 21.862 41.5304 23.3422 41.5615 23.3733C41.6339 23.4561 47.7207 24.2946 47.7207 24.2221C47.7207 24.1807 47.9277 22.6901 48.1865 20.9096C48.4453 19.1292 48.642 17.6592 48.6316 17.6385C48.5902 17.6075 42.7726 16.769 42.5759 16.769C42.5035 16.769 42.4414 16.7897 42.4414 16.8001Z" fill="#2A373F"/>
<path d="M34.2636 19.0671C32.0897 21.1168 30.5267 21.9966 27.0485 23.1457C25.7546 23.5804 24.3364 24.1084 23.912 24.3361C22.8562 24.8847 21.5622 25.8785 20.4442 27.0068L19.5229 27.9488L20.0302 28.4767C21.1274 29.5947 22.8665 30.5056 24.5849 30.8576C27.7421 31.5097 31.0753 30.4849 33.2491 28.1765C34.1083 27.2552 34.5017 26.6962 34.9882 25.6404C35.9095 23.6115 36.1062 21.6964 35.5886 19.4502C35.2884 18.0837 35.2987 18.0941 34.2636 19.0671Z" fill="#2A373F"/>
<path d="M40.7956 28.2485C40.661 29.2215 40.5782 30.0496 40.6196 30.0911C40.7542 30.2256 46.7063 31.0227 46.7374 30.9088C46.8202 30.6707 47.2342 27.4307 47.1928 27.3996C47.1721 27.3789 45.8989 27.1823 44.3565 26.9752C42.8245 26.7579 41.4477 26.5612 41.3028 26.5301L41.0337 26.4784L40.7956 28.2485Z" fill="#2A373F"/>
<path d="M8.88174 27.3689C7.24619 27.6069 5.87979 27.8243 5.84873 27.8554C5.79697 27.9175 6.26279 31.3439 6.33525 31.4163C6.35596 31.437 7.74307 31.261 9.42002 31.0126L12.4737 30.5778L12.4427 30.2259C12.422 30.0292 12.3185 29.2425 12.2046 28.4868C12.1011 27.7312 12.0079 27.0687 12.0079 27.0065C12.0079 26.9548 11.9769 26.9237 11.9354 26.9237C11.8837 26.9341 10.5173 27.1308 8.88174 27.3689Z" fill="#2A373F"/>
<path d="M38.7252 42.9271C37.9695 48.2685 37.3277 52.7197 37.307 52.8232C37.2553 52.9888 37.4312 52.9992 40.4332 52.9785L43.6215 52.9474L44.9465 43.631C45.6711 38.507 46.2508 34.2629 46.2301 34.2111C46.2094 34.149 44.9154 33.9316 43.3627 33.7142C41.7996 33.4865 40.4332 33.2898 40.309 33.2588C40.1019 33.2173 40.0605 33.4554 38.7252 42.9271Z" fill="#2A373F"/>
<path d="M9.85465 34.1187C8.18805 34.3568 6.80094 34.5742 6.79059 34.5949C6.76988 34.6053 7.33922 38.7562 8.06383 43.8078L9.36813 53H12.5357H15.7033L15.6619 52.7619C15.6412 52.6377 15.0408 48.4143 14.3369 43.373C13.6226 38.3318 13.0119 34.098 12.9705 33.9428L12.8877 33.684L9.85465 34.1187Z" fill="#2A373F"/>
<path d="M23.3945 43.4145V53H26.5H29.6055V43.4248C29.6055 38.1559 29.5744 33.8496 29.533 33.8496C29.4813 33.8496 29.0879 33.9221 28.6428 34.0049C27.3281 34.2533 25.2164 34.2119 23.7361 33.891L23.3945 33.8186V43.4145Z" fill="#2A373F"/>
</svg>
