<svg width="45" height="55" viewBox="0 0 45 55" fill="none" xmlns="http://www.w3.org/2000/svg">
<path d="M18.5612 6.134C18.697 6.13268 18.697 6.13268 18.8356 6.13134C18.9842 6.13229 18.9842 6.13229 19.1358 6.13325C19.2926 6.13243 19.2926 6.13243 19.4526 6.1316C19.7989 6.13023 20.1452 6.13114 20.4916 6.13219C20.7318 6.13198 20.972 6.13168 21.2121 6.13129C21.7158 6.13083 22.2195 6.1315 22.7231 6.13295C23.3696 6.13471 24.016 6.1337 24.6624 6.13184C25.1585 6.13072 25.6545 6.13107 26.1506 6.13188C26.389 6.13208 26.6273 6.13183 26.8657 6.13111C27.1986 6.13032 27.5314 6.13152 27.8643 6.13325C27.9633 6.13262 28.0624 6.13199 28.1644 6.13134C28.255 6.13222 28.3456 6.1331 28.4389 6.134C28.5569 6.13417 28.5569 6.13417 28.6774 6.13435C28.9466 6.18556 29.0358 6.2609 29.1934 6.48398C29.2316 6.71134 29.2316 6.71134 29.2307 6.98112C29.2314 7.13462 29.2314 7.13462 29.232 7.29122C29.2309 7.40335 29.2298 7.51548 29.2286 7.63102C29.2287 7.74919 29.2287 7.86736 29.2288 7.98912C29.2286 8.38065 29.2261 8.77214 29.2237 9.16366C29.2231 9.43475 29.2227 9.70585 29.2224 9.97694C29.2214 10.6181 29.2189 11.2593 29.2157 11.9005C29.2123 12.6305 29.2106 13.3605 29.209 14.0905C29.2058 15.5921 29.2003 17.0937 29.1934 18.5953C29.3421 18.5943 29.3421 18.5943 29.4939 18.5932C30.4276 18.5869 31.3613 18.5823 32.295 18.5792C32.7751 18.5776 33.2551 18.5754 33.7352 18.5719C34.1983 18.5685 34.6614 18.5666 35.1245 18.5658C35.3014 18.5653 35.4783 18.5641 35.6551 18.5625C35.9025 18.5602 36.1498 18.5599 36.3971 18.5601C36.4706 18.5589 36.544 18.5578 36.6196 18.5567C37.1188 18.5598 37.1188 18.5598 37.3332 18.7279C37.491 18.9264 37.5386 19.06 37.5923 19.3065C37.6108 19.3893 37.6293 19.4721 37.6484 19.5574C37.6677 19.6495 37.6869 19.7416 37.7068 19.8366C37.7284 19.936 37.7501 20.0355 37.7724 20.138C37.8474 20.486 37.9201 20.8345 37.9922 21.1832C38.0322 21.3766 38.0322 21.3766 38.0731 21.5739C38.2783 22.5693 38.4779 23.5658 38.6772 24.5625C38.7659 25.0061 38.855 25.4496 38.9441 25.8932C39.0962 26.6504 39.248 27.4077 39.3997 28.165C39.7761 30.0435 40.1535 31.9218 40.5308 33.8001C40.5907 34.098 40.6505 34.3958 40.7103 34.6937C41.5457 38.8522 42.3897 43.0088 43.2384 47.1647C43.345 47.6871 43.4516 48.2095 43.5578 48.7321C43.5968 48.9239 43.6358 49.1158 43.6749 49.3077C43.6934 49.3991 43.712 49.4906 43.7312 49.5849C43.8343 50.0913 43.9388 50.5974 44.0447 51.1033C44.091 51.3248 44.137 51.5463 44.1827 51.768C44.2358 52.0246 44.2896 52.2811 44.3443 52.5374C44.6258 53.9097 44.6258 53.9097 44.5137 54.5152C44.3987 54.6812 44.3987 54.6812 44.2031 54.8258C43.8994 54.8647 43.8994 54.8647 43.5191 54.8649C43.449 54.8653 43.3788 54.8658 43.3065 54.8662C43.0696 54.8674 42.8328 54.8663 42.5959 54.8652C42.4251 54.8656 42.2543 54.8661 42.0834 54.8667C41.6126 54.868 41.1418 54.8673 40.671 54.8664C40.1638 54.8657 39.6566 54.8668 39.1494 54.8676C38.1553 54.869 37.1611 54.8687 36.1669 54.8678C35.3592 54.8671 34.5516 54.867 33.7439 54.8673C33.6291 54.8674 33.5143 54.8674 33.396 54.8675C33.1629 54.8676 32.9297 54.8677 32.6966 54.8678C30.5083 54.8687 28.32 54.8676 26.1317 54.866C24.2524 54.8646 22.3732 54.8648 20.4939 54.8663C18.3137 54.8679 16.1334 54.8686 13.9531 54.8676C13.7208 54.8675 13.4885 54.8674 13.2562 54.8673C13.1419 54.8673 13.0275 54.8672 12.9098 54.8672C12.1027 54.8669 11.2956 54.8674 10.4885 54.8681C9.50545 54.869 8.52241 54.8687 7.53936 54.8671C7.03742 54.8663 6.5355 54.8659 6.03356 54.867C5.5746 54.8679 5.11566 54.8674 4.6567 54.8657C4.49015 54.8654 4.32359 54.8656 4.15704 54.8663C3.93163 54.8673 3.7063 54.8663 3.48089 54.8649C3.3554 54.8648 3.2299 54.8648 3.1006 54.8647C2.79689 54.8258 2.79689 54.8258 2.60127 54.6814C2.27305 54.2069 2.48638 53.4193 2.58036 52.8881C2.62409 52.6676 2.66892 52.4474 2.71463 52.2273C2.75138 52.0444 2.75138 52.0444 2.78886 51.8578C2.85633 51.523 2.92469 51.1883 2.99344 50.8537C3.06705 50.4944 3.13949 50.1349 3.21207 49.7754C3.35329 49.0769 3.49556 48.3786 3.63818 47.6803C3.80434 46.8666 3.96935 46.0526 4.1343 45.2386C4.45355 43.6634 4.77401 42.0884 5.09501 40.5135C5.30665 39.4751 5.51801 38.4367 5.72904 37.3982C5.75604 37.2654 5.78303 37.1325 5.81085 36.9957C5.86414 36.7334 5.91743 36.4712 5.97072 36.2089C6.29487 34.6137 6.61922 33.0185 6.94492 31.4236C7.03951 30.9604 7.13409 30.4971 7.22866 30.0338C7.25149 29.9219 7.27432 29.8101 7.29785 29.6948C7.60513 28.1888 7.90904 26.6821 8.20967 25.1747C8.26929 24.8759 8.32903 24.5772 8.38883 24.2785C8.40796 24.1829 8.42709 24.0873 8.4468 23.9889C8.48456 23.8002 8.52233 23.6116 8.5601 23.423C8.66677 22.8899 8.77256 22.3567 8.87765 21.8233C8.94074 21.5041 9.00462 21.185 9.06874 20.866C9.09777 20.7207 9.12645 20.5753 9.15475 20.4298C9.19305 20.2331 9.23268 20.0366 9.27238 19.8402C9.29393 19.7314 9.31549 19.6225 9.33769 19.5104C9.43699 19.1637 9.57766 18.8536 9.83596 18.5953C10.0848 18.5855 10.3306 18.5823 10.5794 18.5836C10.6572 18.5835 10.7349 18.5835 10.815 18.5835C11.0732 18.5836 11.3314 18.5844 11.5897 18.5852C11.7682 18.5854 11.9468 18.5855 12.1253 18.5856C12.5962 18.586 13.0671 18.5871 13.538 18.5882C14.0181 18.5893 14.4982 18.5897 14.9784 18.5903C15.9211 18.5914 16.8639 18.5931 17.8067 18.5953C17.8064 18.5332 17.8061 18.471 17.8058 18.407C17.7989 16.896 17.7938 15.385 17.7906 13.874C17.789 13.1433 17.7868 12.4126 17.7832 11.6819C17.7798 10.9772 17.778 10.2725 17.7772 9.5677C17.7766 9.29839 17.7755 9.02909 17.7738 8.75978C17.7716 8.38351 17.7713 8.00729 17.7714 7.63102C17.7703 7.51888 17.7692 7.40675 17.768 7.29122C17.7684 7.18888 17.7689 7.08655 17.7693 6.98112C17.769 6.89209 17.7687 6.80306 17.7684 6.71134C17.8067 6.48398 17.8067 6.48398 17.9365 6.3001C18.1617 6.14226 18.2875 6.1344 18.5612 6.134ZM19.2559 7.62265C19.2559 11.2436 19.2559 14.8646 19.2559 18.5953C20.4173 18.5953 21.5788 18.5953 22.7754 18.5953C22.7754 14.9743 22.7754 11.3534 22.7754 7.62265C21.614 7.62265 20.4525 7.62265 19.2559 7.62265ZM24.2246 7.62265C24.2246 11.2436 24.2246 14.8646 24.2246 18.5953C25.3861 18.5953 26.5475 18.5953 27.7442 18.5953C27.7442 14.9743 27.7442 11.3534 27.7442 7.62265C26.5827 7.62265 25.4213 7.62265 24.2246 7.62265ZM10.8711 20.0445C10.2396 22.4082 10.2396 22.4082 9.93947 24.8062C18.8894 24.8062 27.8394 24.8062 37.0606 24.8062C36.8146 23.2077 36.4645 21.6267 36.1289 20.0445C27.7938 20.0445 19.4588 20.0445 10.8711 20.0445ZM9.62892 26.2555C9.13573 28.5493 9.13573 28.5493 8.66046 30.8466C8.63063 30.9936 8.60078 31.1406 8.57092 31.2876C8.49207 31.676 8.41342 32.0644 8.33482 32.4528C8.25117 32.866 8.16735 33.2792 8.08356 33.6923C7.94313 34.385 7.80283 35.0776 7.66261 35.7703C7.50214 36.5629 7.34146 37.3556 7.18067 38.1482C7.0238 38.9215 6.86708 39.6948 6.71043 40.4682C6.64474 40.7925 6.579 41.1167 6.51322 41.441C6.43535 41.8249 6.35761 42.2088 6.27997 42.5927C6.23904 42.7949 6.198 42.9971 6.15694 43.1993C5.89017 44.5197 5.63923 45.8425 5.38478 47.1656C9.484 47.1656 13.5832 47.1656 17.8067 47.1656C17.8408 45.2185 17.875 43.2714 17.9102 41.2652C18.1584 41.017 18.2112 41.0322 18.5494 41.0319C18.64 41.0313 18.7306 41.0307 18.8239 41.0301C18.9733 41.0308 18.9733 41.0308 19.1257 41.0314C19.2827 41.0309 19.2827 41.0309 19.4429 41.0303C19.7903 41.0294 20.1377 41.03 20.4851 41.0307C20.7257 41.0306 20.9663 41.0304 21.2069 41.0301C21.7116 41.0298 22.2163 41.0302 22.721 41.0312C23.3692 41.0324 24.0174 41.0317 24.6656 41.0305C25.1625 41.0297 25.6594 41.03 26.1564 41.0305C26.3954 41.0306 26.6345 41.0305 26.8735 41.03C27.2071 41.0295 27.5407 41.0303 27.8744 41.0314C27.974 41.031 28.0736 41.0306 28.1762 41.0301C28.312 41.031 28.312 41.031 28.4506 41.0319C28.5296 41.032 28.6085 41.0321 28.6898 41.0321C28.8828 41.0582 28.8828 41.0582 29.0899 41.2652C29.124 43.2124 29.1582 45.1595 29.1934 47.1656C33.2926 47.1656 37.3918 47.1656 41.6153 47.1656C40.8797 43.4818 40.8797 43.4818 40.143 39.7982C40.1074 39.6203 40.1074 39.6203 40.071 39.4388C39.5346 36.7598 38.9959 34.0813 38.4556 31.4032C38.3867 31.0619 38.318 30.7206 38.2493 30.3793C38.1414 29.8436 38.0333 29.3079 37.925 28.7722C37.8853 28.5753 37.8456 28.3785 37.806 28.1816C37.752 27.9136 37.6978 27.6457 37.6436 27.3777C37.6278 27.2993 37.6121 27.2208 37.5959 27.1399C37.5345 26.8378 37.4687 26.5483 37.3711 26.2555C28.2162 26.2555 19.0613 26.2555 9.62892 26.2555ZM19.2559 42.4039C19.2559 43.9753 19.2559 45.5466 19.2559 47.1656C20.4173 47.1656 21.5788 47.1656 22.7754 47.1656C22.7754 45.5942 22.7754 44.0229 22.7754 42.4039C21.614 42.4039 20.4525 42.4039 19.2559 42.4039ZM24.2246 42.4039C24.2246 43.9753 24.2246 45.5466 24.2246 47.1656C25.3861 47.1656 26.5475 47.1656 27.7442 47.1656C27.7442 45.5942 27.7442 44.0229 27.7442 42.4039C26.5827 42.4039 25.4213 42.4039 24.2246 42.4039ZM5.07424 48.6148C4.44636 50.9793 4.44636 50.9793 4.1426 53.3766C8.65174 53.3766 13.1609 53.3766 17.8067 53.3766C17.8067 51.8052 17.8067 50.2338 17.8067 48.6148C13.605 48.6148 9.40326 48.6148 5.07424 48.6148ZM19.2559 48.6148C19.2559 50.1862 19.2559 51.7576 19.2559 53.3766C20.4173 53.3766 21.5788 53.3766 22.7754 53.3766C22.7754 51.8052 22.7754 50.2338 22.7754 48.6148C21.614 48.6148 20.4525 48.6148 19.2559 48.6148ZM24.2246 48.6148C24.2246 50.1862 24.2246 51.7576 24.2246 53.3766C25.3861 53.3766 26.5475 53.3766 27.7442 53.3766C27.7442 51.8052 27.7442 50.2338 27.7442 48.6148C26.5827 48.6148 25.4213 48.6148 24.2246 48.6148ZM29.1934 48.6148C29.1934 50.1862 29.1934 51.7576 29.1934 53.3766C33.7025 53.3766 38.2117 53.3766 42.8574 53.3766C42.5629 51.7863 42.259 50.1975 41.9258 48.6148C37.7241 48.6148 33.5224 48.6148 29.1934 48.6148Z" fill="#2A373F"/>
<path d="M18.5612 40.9152C18.6971 40.9139 18.6971 40.9139 18.8356 40.9126C18.9842 40.9135 18.9842 40.9135 19.1358 40.9145C19.2927 40.9137 19.2927 40.9137 19.4526 40.9128C19.799 40.9115 20.1453 40.9124 20.4916 40.9134C20.7318 40.9132 20.972 40.9129 21.2122 40.9125C21.7159 40.9121 22.2195 40.9127 22.7232 40.9142C23.3696 40.916 24.016 40.9149 24.6625 40.9131C25.1585 40.912 25.6546 40.9123 26.1506 40.9131C26.389 40.9133 26.6274 40.9131 26.8658 40.9124C27.1986 40.9116 27.5314 40.9128 27.8643 40.9145C27.9634 40.9139 28.0624 40.9132 28.1645 40.9126C28.255 40.9135 28.3456 40.9143 28.4389 40.9152C28.557 40.9154 28.557 40.9154 28.6774 40.9156C28.9466 40.9668 29.0359 41.0421 29.1934 41.2652C29.2316 41.4926 29.2316 41.4926 29.2308 41.7624C29.2312 41.8647 29.2316 41.967 29.2321 42.0725C29.2309 42.1846 29.2298 42.2967 29.2287 42.4123C29.2287 42.5895 29.2287 42.5895 29.2288 42.7704C29.2286 43.1619 29.2262 43.5534 29.2238 43.9449C29.2232 44.216 29.2227 44.4871 29.2224 44.7582C29.2215 45.3994 29.2189 46.0406 29.2158 46.6818C29.2123 47.4118 29.2106 48.1417 29.2091 48.8717C29.2058 50.3733 29.2003 51.8749 29.1934 53.3766C28.7152 53.3766 28.2369 53.3766 27.7442 53.3766C27.7442 51.8052 27.7442 50.2338 27.7442 48.6148C26.5828 48.6148 25.4213 48.6148 24.2247 48.6148C24.2247 50.1862 24.2247 51.7576 24.2247 53.3766C23.7464 53.3766 23.2682 53.3766 22.7755 53.3766C22.7755 51.8052 22.7755 50.2338 22.7755 48.6148C21.614 48.6148 20.4526 48.6148 19.2559 48.6148C19.2559 50.1862 19.2559 51.7576 19.2559 53.3766C18.7777 53.3766 18.2994 53.3766 17.8067 53.3766C17.7995 51.8028 17.794 50.2291 17.7906 48.6553C17.789 47.9246 17.7868 47.1939 17.7833 46.4632C17.7799 45.7584 17.778 45.0537 17.7772 44.349C17.7767 44.0796 17.7755 43.8103 17.7739 43.541C17.7716 43.1648 17.7713 42.7885 17.7714 42.4123C17.7703 42.3001 17.7692 42.188 17.7681 42.0725C17.7685 41.9701 17.7689 41.8678 17.7694 41.7624C17.7691 41.6733 17.7688 41.5843 17.7685 41.4926C17.8067 41.2652 17.8067 41.2652 17.9366 41.0813C18.1617 40.9235 18.2875 40.9157 18.5612 40.9152ZM19.2559 42.4039C19.2559 43.9753 19.2559 45.5466 19.2559 47.1656C20.4174 47.1656 21.5788 47.1656 22.7755 47.1656C22.7755 45.5943 22.7755 44.0229 22.7755 42.4039C21.614 42.4039 20.4526 42.4039 19.2559 42.4039ZM24.2247 42.4039C24.2247 43.9753 24.2247 45.5466 24.2247 47.1656C25.3861 47.1656 26.5476 47.1656 27.7442 47.1656C27.7442 45.5943 27.7442 44.0229 27.7442 42.4039C26.5828 42.4039 25.4213 42.4039 24.2247 42.4039Z" fill="#2A373F"/>
<path d="M18.5612 6.134C18.6971 6.13268 18.6971 6.13268 18.8356 6.13134C18.9842 6.13229 18.9842 6.13229 19.1358 6.13325C19.2927 6.13243 19.2927 6.13243 19.4526 6.1316C19.799 6.13023 20.1453 6.13114 20.4916 6.13219C20.7318 6.13198 20.972 6.13168 21.2122 6.13129C21.7159 6.13083 22.2195 6.1315 22.7232 6.13295C23.3696 6.13471 24.016 6.1337 24.6625 6.13184C25.1585 6.13072 25.6546 6.13107 26.1506 6.13188C26.389 6.13208 26.6274 6.13183 26.8658 6.13111C27.1986 6.13032 27.5314 6.13152 27.8643 6.13325C27.9634 6.13262 28.0624 6.13199 28.1645 6.13134C28.255 6.13222 28.3456 6.1331 28.4389 6.134C28.557 6.13417 28.557 6.13417 28.6774 6.13435C28.9466 6.18556 29.0359 6.2609 29.1934 6.48398C29.2316 6.71134 29.2316 6.71134 29.2308 6.98112C29.2312 7.08345 29.2316 7.18578 29.2321 7.29122C29.2309 7.40335 29.2298 7.51548 29.2287 7.63102C29.2287 7.80828 29.2287 7.80828 29.2288 7.98912C29.2286 8.38065 29.2262 8.77214 29.2238 9.16366C29.2232 9.43475 29.2227 9.70585 29.2224 9.97694C29.2215 10.6181 29.2189 11.2593 29.2158 11.9005C29.2123 12.6305 29.2106 13.3605 29.2091 14.0905C29.2058 15.5921 29.2003 17.0937 29.1934 18.5953C28.7152 18.5953 28.2369 18.5953 27.7442 18.5953C27.7442 14.9743 27.7442 11.3534 27.7442 7.62265C26.5828 7.62265 25.4213 7.62265 24.2247 7.62265C24.2247 11.2436 24.2247 14.8646 24.2247 18.5953C23.7464 18.5953 23.2682 18.5953 22.7755 18.5953C22.7755 14.9743 22.7755 11.3534 22.7755 7.62265C21.614 7.62265 20.4526 7.62265 19.2559 7.62265C19.2559 11.2436 19.2559 14.8646 19.2559 18.5953C18.7777 18.5953 18.2994 18.5953 17.8067 18.5953C17.7995 17.0216 17.794 15.4478 17.7906 13.874C17.789 13.1433 17.7868 12.4126 17.7833 11.6819C17.7799 10.9772 17.778 10.2725 17.7772 9.5677C17.7767 9.29839 17.7755 9.02909 17.7739 8.75978C17.7716 8.38351 17.7713 8.00729 17.7714 7.63102C17.7703 7.51888 17.7692 7.40675 17.7681 7.29122C17.7685 7.18888 17.7689 7.08655 17.7694 6.98112C17.7691 6.89209 17.7688 6.80306 17.7685 6.71134C17.8067 6.48398 17.8067 6.48398 17.9366 6.3001C18.1617 6.14226 18.2875 6.1344 18.5612 6.134Z" fill="#2A373F"/>
<path d="M24.2246 47.166C25.3861 47.166 26.5475 47.166 27.7441 47.166C27.7441 47.6443 27.7441 48.1225 27.7441 48.6152C26.5827 48.6152 25.4212 48.6152 24.2246 48.6152C24.2246 48.137 24.2246 47.6588 24.2246 47.166Z" fill="#2A373F"/>
<path d="M19.2559 47.166C20.4173 47.166 21.5787 47.166 22.7754 47.166C22.7754 47.6443 22.7754 48.1225 22.7754 48.6152C21.6139 48.6152 20.4525 48.6152 19.2559 48.6152C19.2559 48.137 19.2559 47.6588 19.2559 47.166Z" fill="#2A373F"/>
<path d="M2.57126 0C2.63278 0.0170902 2.661 0.0350519 2.70424 0.0829746C2.76502 0.206789 2.73622 0.323474 2.69428 0.450109C2.68857 0.466613 2.68285 0.483117 2.67696 0.500121C2.66519 0.535537 2.65345 0.570963 2.64173 0.606397C2.63591 0.623792 2.6301 0.641187 2.62411 0.659109C2.58889 0.766284 2.55815 0.874779 2.52702 0.983193C2.51672 1.01837 2.50591 1.05335 2.49496 1.08833C2.45118 1.23161 2.41462 1.35334 2.46555 1.49809C2.50308 1.55244 2.53053 1.57135 2.58944 1.60039C2.64123 1.60827 2.64123 1.60827 2.69682 1.60681C2.718 1.60687 2.73918 1.60694 2.76101 1.60701C2.78372 1.60684 2.80644 1.60667 2.82984 1.6065C2.8657 1.60667 2.90156 1.60684 2.93743 1.60704C3.02566 1.60744 3.1139 1.60726 3.20214 1.60694C3.25173 1.60678 3.30131 1.60686 3.3509 1.60719C3.39756 1.60748 3.44421 1.6074 3.49087 1.6069C3.66606 1.6084 3.66606 1.6084 3.72191 1.66154C3.75681 1.71476 3.76843 1.75112 3.77609 1.81408C3.77844 1.83161 3.78078 1.84915 3.7832 1.86721C3.78535 1.88719 3.78751 1.90716 3.78973 1.92774C3.79279 1.95067 3.79585 1.9736 3.799 1.99723C3.81196 2.11445 3.81122 2.23176 3.81161 2.34958C3.81169 2.36777 3.81169 2.36777 3.81177 2.38633C3.81204 2.45039 3.81221 2.51445 3.81229 2.57851C3.81239 2.64432 3.81283 2.71013 3.81334 2.77595C3.81368 2.82693 3.81378 2.87792 3.8138 2.92891C3.81388 2.96488 3.81422 3.00085 3.81457 3.03682C3.81422 3.17722 3.81094 3.27996 3.71585 3.38946C3.65693 3.43887 3.62076 3.43951 3.54502 3.43978C3.52426 3.4399 3.50349 3.44003 3.4821 3.44016C3.44829 3.44028 3.44829 3.44028 3.41379 3.44039C3.36634 3.44082 3.31888 3.44125 3.27143 3.44171C3.1964 3.44237 3.12137 3.44291 3.04634 3.44312C2.97407 3.44334 2.90182 3.44414 2.82956 3.44494C2.80716 3.44491 2.78477 3.44487 2.76169 3.44483C2.60613 3.4464 2.60613 3.4464 2.48032 3.52813C2.41191 3.66083 2.39637 3.81427 2.37007 3.96005C2.36185 4.00478 2.35357 4.04951 2.34529 4.09423C2.33932 4.12642 2.33338 4.15862 2.32744 4.19081C2.30372 4.31921 2.27912 4.44743 2.2542 4.57561C2.16564 5.03144 2.08031 5.48755 2.00207 5.94527C1.99068 6.01175 1.97904 6.07818 1.96727 6.1446C1.93646 6.31877 1.90706 6.49294 1.88247 6.66811C1.86966 6.75747 1.85375 6.84591 1.8367 6.93456C1.7083 7.59126 1.7083 7.59126 1.69832 8.25655C1.69976 8.27449 1.7012 8.29244 1.70269 8.31093C1.73661 8.7028 1.80217 9.09818 1.91655 9.47502C1.92562 9.50491 1.92562 9.50491 1.93488 9.53541C2.18539 10.3185 2.56756 11.0527 2.93495 11.7855C2.94588 11.8073 2.94588 11.8073 2.95703 11.8296C2.97137 11.8582 2.98575 11.8867 3.00015 11.9152C3.03489 11.9841 3.06909 12.0532 3.10221 12.1229C3.10861 12.1362 3.11501 12.1495 3.12161 12.1632C3.13354 12.188 3.1453 12.2129 3.15685 12.2379C3.19276 12.3122 3.22925 12.3583 3.29871 12.403C3.41731 12.4275 3.53825 12.4245 3.65902 12.4246C3.6775 12.4248 3.69599 12.425 3.71503 12.4253C3.82547 12.4255 3.92785 12.4159 4.03586 12.3927C4.08284 12.3844 4.1241 12.3805 4.17164 12.3848C4.20326 12.4274 4.20326 12.4274 4.23189 12.4848C4.42031 12.8283 4.79788 12.9784 5.15597 13.0884C5.51189 13.192 5.87804 13.2254 6.24715 13.2248C6.26703 13.2248 6.26703 13.2248 6.28732 13.2248C6.48733 13.2243 6.68393 13.219 6.88139 13.185C6.89587 13.1826 6.91035 13.1801 6.92527 13.1776C7.34921 13.1042 7.9275 12.9715 8.19535 12.6008C8.20444 12.5884 8.21354 12.5759 8.22291 12.5631C8.24622 12.5306 8.24622 12.5306 8.26354 12.4939C8.34725 12.5044 8.41315 12.5271 8.48924 12.5632C8.50016 12.5683 8.51108 12.5735 8.52234 12.5788C8.55775 12.5954 8.59308 12.6123 8.62841 12.6292C8.65302 12.6408 8.67764 12.6524 8.70226 12.664C8.81125 12.7154 8.91993 12.7674 9.02822 12.8202C9.19659 12.9022 9.36323 12.9748 9.54084 13.0343C9.61768 13.0606 9.69179 13.0909 9.76632 13.123C9.816 13.1438 9.8658 13.1635 9.91608 13.1828C10.356 13.3522 10.356 13.3522 10.4641 13.5487C10.5321 13.7299 10.5261 13.9154 10.5248 14.1056C10.5248 14.1393 10.5248 14.173 10.5249 14.2068C10.5249 14.2977 10.5245 14.3886 10.5242 14.4795C10.5238 14.5747 10.5238 14.67 10.5237 14.7652C10.5236 14.9453 10.5231 15.1254 10.5226 15.3055C10.522 15.5106 10.5217 15.7157 10.5214 15.9208C10.5208 16.3426 10.5198 16.7643 10.5186 17.186C10.1585 17.186 9.79846 17.186 9.42746 17.186C9.42699 17.0323 9.42653 16.8787 9.42604 16.7204C9.42553 16.6107 9.42496 16.501 9.42434 16.3914C9.42353 16.2493 9.42283 16.1072 9.42253 15.9651C9.42227 15.8406 9.42163 15.7161 9.42076 15.5915C9.42049 15.544 9.42035 15.4965 9.42034 15.449C9.42029 15.3824 9.4198 15.3159 9.4192 15.2494C9.41934 15.2199 9.41934 15.2199 9.41948 15.1898C9.41795 15.0798 9.4103 15.0145 9.33653 14.9309C9.26037 14.8781 9.17097 14.8804 9.08192 14.8945C9.02515 14.9251 8.98388 14.9633 8.95462 15.0218C8.94862 15.736 8.94262 16.4502 8.93643 17.186C6.55986 17.186 4.18328 17.186 1.73469 17.186C1.72869 16.1417 1.72269 15.0975 1.7165 14.0216C1.67419 13.81 1.62873 13.609 1.55063 13.4089C1.53079 13.3567 1.51218 13.3042 1.49351 13.2516C1.44532 13.1162 1.39578 12.9813 1.34589 12.8465C1.34145 12.8345 1.33701 12.8225 1.33243 12.8101C1.30902 12.7469 1.28558 12.6836 1.26214 12.6203C1.23814 12.5556 1.21422 12.4908 1.1903 12.426C1.17166 12.3756 1.15297 12.3251 1.13427 12.2747C1.12543 12.2508 1.11661 12.2269 1.1078 12.2031C1.06479 12.0864 1.02056 11.9714 0.968964 11.8583C0.940979 11.7942 0.919074 11.7282 0.896703 11.662C0.82036 11.4403 0.738503 11.2206 0.656705 11.0009C0.633953 10.9398 0.611266 10.8786 0.588599 10.8174C0.503022 10.5865 0.417219 10.3557 0.329521 10.1256C0.29758 10.0417 0.265818 9.95784 0.234058 9.87394C0.219295 9.83513 0.204434 9.79635 0.189467 9.75761C0.0739212 9.45853 -0.00424498 9.18374 0.000178574 8.8601C0.000350002 8.83997 0.000521431 8.81985 0.000698054 8.79911C0.0143233 8.0457 0.34291 7.30218 0.596768 6.60258C0.634337 6.4987 0.670667 6.39633 0.696938 6.28902C0.724299 6.18246 0.755417 6.0778 0.789006 5.97304C0.827542 5.85275 0.864121 5.73221 0.898265 5.61059C0.918477 5.53914 0.939523 5.46795 0.960639 5.39676C0.991737 5.29173 1.02152 5.18643 1.05043 5.08078C1.09029 4.93539 1.13407 4.79134 1.1784 4.64726C1.21131 4.53985 1.24262 4.43218 1.27208 4.32377C1.302 4.21371 1.33482 4.10497 1.36983 3.99642C1.41658 3.85145 1.4577 3.70535 1.49659 3.55809C1.51599 3.48514 1.53619 3.4142 1.56284 3.34357C1.60022 3.23386 1.60897 3.11879 1.62128 3.00417C1.62854 2.93681 1.63645 2.86953 1.64433 2.80224C1.64585 2.7892 1.64736 2.77615 1.64893 2.76271C1.66546 2.62234 1.68857 2.48455 1.7165 2.34602C1.72175 2.31815 1.72698 2.29028 1.7322 2.26241C1.78928 1.9661 1.88737 1.69584 2.00563 1.41885C2.07434 1.25567 2.13431 1.09 2.19276 0.922951C2.19743 0.909618 2.2021 0.896286 2.20691 0.88255C2.25071 0.757378 2.29401 0.632054 2.33611 0.506302C2.47382 0.0974359 2.47382 0.0974359 2.57126 0Z" fill="black"/>
<path d="M2.57126 0C2.63278 0.0170902 2.661 0.0350519 2.70424 0.0829746C2.76502 0.206789 2.73622 0.323474 2.69428 0.450109C2.68857 0.466613 2.68285 0.483117 2.67696 0.500121C2.66519 0.535537 2.65345 0.570963 2.64173 0.606397C2.63591 0.623792 2.6301 0.641187 2.62411 0.659109C2.58889 0.766284 2.55815 0.874779 2.52702 0.983193C2.51672 1.01837 2.50591 1.05335 2.49496 1.08833C2.45118 1.23161 2.41462 1.35334 2.46555 1.49809C2.50308 1.55244 2.53053 1.57135 2.58944 1.60039C2.64123 1.60827 2.64123 1.60827 2.69682 1.60681C2.718 1.60687 2.73918 1.60694 2.76101 1.60701C2.78372 1.60684 2.80644 1.60667 2.82984 1.6065C2.8657 1.60667 2.90156 1.60684 2.93743 1.60704C3.02566 1.60744 3.1139 1.60726 3.20214 1.60694C3.25173 1.60678 3.30131 1.60686 3.3509 1.60719C3.39756 1.60748 3.44421 1.6074 3.49087 1.6069C3.66606 1.6084 3.66606 1.6084 3.72191 1.66154C3.75681 1.71476 3.76843 1.75112 3.77609 1.81408C3.77844 1.83161 3.78078 1.84915 3.7832 1.86721C3.78535 1.88719 3.78751 1.90716 3.78973 1.92774C3.79279 1.95067 3.79585 1.9736 3.799 1.99723C3.81196 2.11445 3.81122 2.23176 3.81161 2.34958C3.81169 2.36777 3.81169 2.36777 3.81177 2.38633C3.81204 2.45039 3.81221 2.51445 3.81229 2.57851C3.81239 2.64432 3.81283 2.71013 3.81334 2.77595C3.81368 2.82693 3.81378 2.87792 3.8138 2.92891C3.81388 2.96488 3.81422 3.00085 3.81457 3.03682C3.81422 3.17722 3.81094 3.27996 3.71585 3.38946C3.65693 3.43887 3.62076 3.43951 3.54502 3.43978C3.52426 3.4399 3.50349 3.44003 3.4821 3.44016C3.44829 3.44028 3.44829 3.44028 3.41379 3.44039C3.36634 3.44082 3.31888 3.44125 3.27143 3.44171C3.1964 3.44237 3.12137 3.44291 3.04634 3.44312C2.97407 3.44334 2.90182 3.44414 2.82956 3.44494C2.80716 3.44491 2.78477 3.44487 2.76169 3.44483C2.60613 3.4464 2.60613 3.4464 2.48032 3.52813C2.41191 3.66083 2.39637 3.81427 2.37007 3.96005C2.36185 4.00478 2.35357 4.04951 2.34529 4.09423C2.33932 4.12642 2.33338 4.15862 2.32744 4.19081C2.30372 4.31921 2.27912 4.44743 2.2542 4.57561C2.16564 5.03144 2.08031 5.48755 2.00207 5.94527C1.99068 6.01175 1.97904 6.07818 1.96727 6.1446C1.93646 6.31877 1.90706 6.49294 1.88247 6.66811C1.86966 6.75747 1.85375 6.84591 1.8367 6.93456C1.7083 7.59126 1.7083 7.59126 1.69832 8.25655C1.69976 8.27449 1.7012 8.29244 1.70269 8.31093C1.73661 8.7028 1.80217 9.09818 1.91655 9.47502C1.92562 9.50491 1.92562 9.50491 1.93488 9.53541C2.18539 10.3185 2.56756 11.0527 2.93495 11.7855C2.94588 11.8073 2.94588 11.8073 2.95703 11.8296C2.97137 11.8582 2.98575 11.8867 3.00015 11.9152C3.03489 11.9841 3.06909 12.0532 3.10221 12.1229C3.10861 12.1362 3.11501 12.1495 3.12161 12.1632C3.13354 12.188 3.1453 12.2129 3.15685 12.2379C3.19276 12.3122 3.22925 12.3583 3.29871 12.403C3.41731 12.4275 3.53825 12.4245 3.65902 12.4246C3.6775 12.4248 3.69599 12.425 3.71503 12.4253C3.82547 12.4255 3.92785 12.4159 4.03586 12.3927C4.08284 12.3844 4.1241 12.3805 4.17164 12.3848C4.20326 12.4274 4.20326 12.4274 4.23189 12.4848C4.42031 12.8283 4.79788 12.9784 5.15597 13.0884C5.51189 13.192 5.87804 13.2254 6.24715 13.2248C6.26703 13.2248 6.26703 13.2248 6.28732 13.2248C6.48733 13.2243 6.68393 13.219 6.88139 13.185C6.89587 13.1826 6.91035 13.1801 6.92527 13.1776C7.34921 13.1042 7.9275 12.9715 8.19535 12.6008C8.20444 12.5884 8.21354 12.5759 8.22291 12.5631C8.24622 12.5306 8.24622 12.5306 8.26354 12.4939C8.34725 12.5044 8.41315 12.5271 8.48924 12.5632C8.50016 12.5683 8.51108 12.5735 8.52234 12.5788C8.55775 12.5954 8.59308 12.6123 8.62841 12.6292C8.65302 12.6408 8.67764 12.6524 8.70226 12.664C8.81125 12.7154 8.91993 12.7674 9.02822 12.8202C9.19659 12.9022 9.36323 12.9748 9.54084 13.0343C9.61768 13.0606 9.69179 13.0909 9.76632 13.123C9.816 13.1438 9.8658 13.1635 9.91608 13.1828C10.356 13.3522 10.356 13.3522 10.4641 13.5487C10.5321 13.7299 10.5261 13.9154 10.5248 14.1056C10.5248 14.1393 10.5248 14.173 10.5249 14.2068C10.5249 14.2977 10.5245 14.3886 10.5242 14.4795C10.5238 14.5747 10.5238 14.67 10.5237 14.7652C10.5236 14.9453 10.5231 15.1254 10.5226 15.3055C10.522 15.5106 10.5217 15.7157 10.5214 15.9208C10.5208 16.3426 10.5198 16.7643 10.5186 17.186C10.1585 17.186 9.79846 17.186 9.42746 17.186C9.42699 17.0323 9.42653 16.8787 9.42604 16.7204C9.42553 16.6107 9.42496 16.501 9.42434 16.3914C9.42353 16.2493 9.42283 16.1072 9.42253 15.9651C9.42227 15.8406 9.42163 15.7161 9.42076 15.5915C9.42049 15.544 9.42035 15.4965 9.42034 15.449C9.42029 15.3824 9.4198 15.3159 9.4192 15.2494C9.41934 15.2199 9.41934 15.2199 9.41948 15.1898C9.41795 15.0798 9.4103 15.0145 9.33653 14.9309C9.26037 14.8781 9.17097 14.8804 9.08192 14.8945C9.02515 14.9251 8.98388 14.9633 8.95462 15.0218C8.94862 15.736 8.94262 16.4502 8.93643 17.186C6.55986 17.186 4.18328 17.186 1.73469 17.186C1.72869 16.1417 1.72269 15.0975 1.7165 14.0216C1.67419 13.81 1.62873 13.609 1.55063 13.4089C1.53079 13.3567 1.51218 13.3042 1.49351 13.2516C1.44532 13.1162 1.39578 12.9813 1.34589 12.8465C1.34145 12.8345 1.33701 12.8225 1.33243 12.8101C1.30902 12.7469 1.28558 12.6836 1.26214 12.6203C1.23814 12.5556 1.21422 12.4908 1.1903 12.426C1.17166 12.3756 1.15297 12.3251 1.13427 12.2747C1.12543 12.2508 1.11661 12.2269 1.1078 12.2031C1.06479 12.0864 1.02056 11.9714 0.968964 11.8583C0.940979 11.7942 0.919074 11.7282 0.896703 11.662C0.82036 11.4403 0.738503 11.2206 0.656705 11.0009C0.633953 10.9398 0.611266 10.8786 0.588599 10.8174C0.503022 10.5865 0.417219 10.3557 0.329521 10.1256C0.29758 10.0417 0.265818 9.95784 0.234058 9.87394C0.219295 9.83513 0.204434 9.79635 0.189467 9.75761C0.0739212 9.45853 -0.00424498 9.18374 0.000178574 8.8601C0.000350002 8.83997 0.000521431 8.81985 0.000698054 8.79911C0.0143233 8.0457 0.34291 7.30218 0.596768 6.60258C0.634337 6.4987 0.670667 6.39633 0.696938 6.28902C0.724299 6.18246 0.755417 6.0778 0.789006 5.97304C0.827542 5.85275 0.864121 5.73221 0.898265 5.61059C0.918477 5.53914 0.939523 5.46795 0.960639 5.39676C0.991737 5.29173 1.02152 5.18643 1.05043 5.08078C1.09029 4.93539 1.13407 4.79134 1.1784 4.64726C1.21131 4.53985 1.24262 4.43218 1.27208 4.32377C1.302 4.21371 1.33482 4.10497 1.36983 3.99642C1.41658 3.85145 1.4577 3.70535 1.49659 3.55809C1.51599 3.48514 1.53619 3.4142 1.56284 3.34357C1.60022 3.23386 1.60897 3.11879 1.62128 3.00417C1.62854 2.93681 1.63645 2.86953 1.64433 2.80224C1.64585 2.7892 1.64736 2.77615 1.64893 2.76271C1.66546 2.62234 1.68857 2.48455 1.7165 2.34602C1.72175 2.31815 1.72698 2.29028 1.7322 2.26241C1.78928 1.9661 1.88737 1.69584 2.00563 1.41885C2.07434 1.25567 2.13431 1.09 2.19276 0.922951C2.19743 0.909618 2.2021 0.896286 2.20691 0.88255C2.25071 0.757378 2.29401 0.632054 2.33611 0.506302C2.47382 0.0974359 2.47382 0.0974359 2.57126 0Z" fill="black"/>
<path d="M4.87152 7.38872C4.91346 7.38845 4.95529 7.38934 4.99723 7.39025C5.0275 7.39005 5.05777 7.38975 5.08805 7.38935C5.16998 7.38859 5.25185 7.3893 5.33378 7.39033C5.41964 7.3912 5.5055 7.39086 5.59137 7.39069C5.73552 7.39059 5.87965 7.39144 6.02381 7.39286C6.19033 7.3945 6.3568 7.39473 6.52333 7.39417C6.68373 7.39366 6.84411 7.39409 7.00451 7.39496C7.07268 7.39531 7.14084 7.39536 7.20901 7.39516C7.28932 7.39497 7.36959 7.3956 7.44989 7.39685C7.47931 7.39718 7.50873 7.39724 7.53815 7.397C7.75962 7.39543 7.75962 7.39543 7.83534 7.45477C7.86843 7.49632 7.89349 7.53629 7.91789 7.58337C7.93419 7.61029 7.95053 7.63719 7.9669 7.66407C7.98189 7.69159 7.99661 7.71925 8.01109 7.74704C8.01886 7.76192 8.02664 7.7768 8.03464 7.79213C8.10732 7.93604 8.15411 8.08125 8.19068 8.23807C8.19535 8.2561 8.20002 8.27413 8.20483 8.29271C8.24732 8.46822 8.2547 8.63494 8.25319 8.81435C8.25313 8.82878 8.25306 8.8432 8.25299 8.85807C8.24946 9.38906 8.08902 9.887 7.73602 10.2931C7.72353 10.308 7.71103 10.3229 7.69816 10.3383C7.43925 10.6387 7.10078 10.8459 6.71759 10.9478C6.70508 10.9514 6.69256 10.9549 6.67966 10.9585C6.20581 11.0868 5.71147 10.9718 5.29296 10.7343C4.79163 10.4346 4.46579 9.9462 4.30451 9.3929C4.29616 9.35965 4.28821 9.3263 4.28064 9.29287C4.27689 9.27648 4.27314 9.2601 4.26927 9.24321C4.1702 8.72236 4.26695 8.15607 4.53084 7.69726C4.55537 7.65402 4.55537 7.65402 4.57889 7.59808C4.64852 7.45774 4.70556 7.3949 4.87152 7.38872Z" fill="black"/>
<path d="M5.28725 5.06676C5.31067 5.06664 5.33408 5.06651 5.35821 5.06638C5.42187 5.06606 5.48552 5.06608 5.54917 5.06618C5.60259 5.06624 5.656 5.06613 5.70941 5.06602C5.83556 5.06576 5.96171 5.06579 6.08787 5.066C6.2174 5.06621 6.34693 5.06595 6.47647 5.06546C6.58825 5.06506 6.70003 5.06494 6.81181 5.06505C6.87832 5.06511 6.94483 5.06507 7.01134 5.06475C7.08562 5.06441 7.15989 5.06468 7.23417 5.06499C7.25579 5.06481 7.27741 5.06463 7.29969 5.06445C7.56943 5.0668 7.79456 5.1576 7.99416 5.33895C8.39763 5.76571 8.24536 6.35069 8.24536 6.91092C6.93704 6.91092 5.62872 6.91092 4.28076 6.91092C4.28076 5.61645 4.28076 5.61645 4.53842 5.34115C4.76099 5.13356 4.98681 5.06563 5.28725 5.06676Z" fill="black"/>
<path d="M4.97173 11.1309C5.04415 11.1581 5.11295 11.1911 5.18243 11.2249C5.68681 11.4696 6.25827 11.5625 6.80854 11.4218C6.82498 11.4183 6.84141 11.4148 6.85834 11.4112C6.97127 11.3848 7.07685 11.3413 7.18363 11.2968C7.19796 11.2908 7.2123 11.2849 7.22706 11.2788C7.3164 11.2406 7.40063 11.1973 7.48444 11.1481C7.51781 11.1309 7.51781 11.1309 7.55418 11.1309C7.62146 11.3286 7.6856 11.5267 7.74275 11.7275C7.75489 11.7697 7.76747 11.8117 7.78008 11.8538C7.78853 11.8826 7.79696 11.9113 7.80538 11.9401C7.80936 11.9532 7.81335 11.9662 7.81746 11.9797C7.84563 12.0778 7.87543 12.1983 7.82742 12.2936C7.6356 12.5648 7.17194 12.6531 6.87089 12.7074C6.48604 12.7718 6.10336 12.765 5.71737 12.7131C5.70383 12.7114 5.69028 12.7097 5.67633 12.708C5.3255 12.6644 4.97306 12.5625 4.69894 12.3312C4.65934 12.2797 4.64286 12.2566 4.64893 12.1913C4.66257 12.1493 4.66257 12.1493 4.68075 12.1129C4.68433 12.0815 4.6877 12.05 4.69098 12.0186C4.71147 11.8785 4.75814 11.7504 4.80604 11.6176C4.85106 11.4926 4.89131 11.3673 4.927 11.2393C4.9519 11.1507 4.9519 11.1507 4.97173 11.1309Z" fill="black"/>
<path d="M10.9916 17.5137C10.9976 17.5137 11.0036 17.5137 11.0097 17.5137C11.0097 17.5677 11.0097 17.6217 11.0097 17.6773C10.9497 17.6773 10.8897 17.6773 10.8279 17.6773C10.8459 17.6653 10.8639 17.6533 10.8824 17.641C10.9541 17.5903 10.9541 17.5903 10.9916 17.5137Z" fill="#E5E5E5"/>
</svg>
