<svg width="32" height="32" viewBox="0 0 32 32" fill="none" xmlns="http://www.w3.org/2000/svg">
<path d="M9.24905 11.6712L1.82154 11.5454L1.95087 3.91016" stroke="#920000" stroke-width="3" stroke-linecap="round" stroke-linejoin="round"/>
<path d="M6.73796 25.9835C8.57565 27.9728 10.9367 29.3463 13.5225 29.9304C16.1082 30.5145 18.8027 30.2828 21.265 29.2648C23.7273 28.2467 25.8469 26.4879 27.3559 24.2109C28.8648 21.9338 29.6952 19.2407 29.742 16.4722C29.7889 13.7036 29.0502 10.984 27.6193 8.65712C26.1884 6.33027 24.1295 4.50073 21.7031 3.39985C19.2766 2.29897 16.5916 1.97621 13.9875 2.47237C11.3834 2.96854 8.97726 4.26134 7.07325 6.18731L1.82227 11.4989" stroke="#920000" stroke-width="3" stroke-linecap="round" stroke-linejoin="round"/>
</svg>
