<svg xmlns="http://www.w3.org/2000/svg" version="1.1" xmlns:xlink="http://www.w3.org/1999/xlink" width="512" height="512" x="0" y="0" viewBox="0 0 359.958 504.005" style="enable-background:new 0 0 512 512" xml:space="preserve" class=""><g><path fill="#f69552" d="M317.679 379.148c-17.91-64.78-52.13-99.59-82.06-118.01-5.66 2.47-12.06 4.87-18.46 7.06l81.54 105.88c.01.01.01.02.01.02v.01c5.554 9.598 12.165 10.859 18.97 5.04zM124.339 261.138c-29.93 18.42-64.15 53.23-82.06 118.01 6.944 6.684 13.541 4.08 18.97-5.04v-.01s0-.01.01-.02l81.54-105.88c-6.4-2.19-12.8-4.59-18.46-7.06z" opacity="1" data-original="#f69552"></path><path fill="#655f68" d="M278.339 327.918c-16.38-27.38-33.62-45.52-61.18-59.72h-.01v.01a470.49 470.49 0 0 1-15.71 5.04h-42.92a470.49 470.49 0 0 1-15.71-5.04v-.01h-.01c-27.56 14.2-44.8 32.34-61.18 59.72-8.21 13.73-15 29.13-20.36 46.16l78.72 91.11s17.73 7.9 40 7.9 40-7.9 40-7.9l78.72-91.11c-5.36-17.03-12.15-32.43-20.36-46.16z" opacity="1" data-original="#655f68"></path><path fill="#5d5560" d="M179.979 3.998c-62.97 0-102.59 46.81-102.59 115.4h205.18c0-68.59-39.62-115.4-102.59-115.4z" opacity="1" data-original="#5d5560"></path><path fill="#655f68" d="M282.569 119.398c-17.07-5.73-60.72-18.84-102.59-18.84s-85.52 13.11-102.59 18.84c-4.46 1.5-7.46 5.68-7.46 10.39 0 6.26 5.12 10.96 10.94 10.96 1.18 0 2.38-.19 3.58-.6 2.06-.71 4.3-1.45 6.71-2.23h177.64c2.41.78 4.65 1.52 6.71 2.23 7.12 2.44 14.52-2.84 14.52-10.36 0-4.71-3-8.89-7.46-10.39z" opacity="1" data-original="#655f68"></path><path fill="#cdc7b9" d="m286.729 149.348-17.93-11.43c-8.648 12.434-9.509 28.486-5.46 46.82v.01c.89.21 1.75.43 2.6.64 6.78 1.7 11.41 7.26 12.39 13.58a15.5 15.5 0 0 0 11.67-12.47l3.67-21.46a15.532 15.532 0 0 0-6.94-15.69zM91.159 137.918l-17.93 11.43a15.532 15.532 0 0 0-6.94 15.69l3.67 21.46a15.5 15.5 0 0 0 11.67 12.47c.98-6.32 5.61-11.88 12.39-13.58.85-.21 1.71-.43 2.6-.64v-.01c5.299-17.158 5.31-33.164-5.46-46.82z" opacity="1" data-original="#cdc7b9"></path><path fill="#fec4b9" d="M240.479 129.958c-18.26-4.36-39.6-7.94-60.5-7.94s-42.24 3.58-60.5 7.94c-13.303 15.603-19.239 34.701-22.86 54.78v.01c1.89 8.98 4.17 17.06 6.77 23.78 1.57 4.08 3.26 7.66 5.05 10.65 4.79 8 13.16 16.71 23.83 23.89 7.71 5.2 16.62 9.6 26.25 12.36v25.46s0 19.77 21.46 19.77 21.46-19.77 21.46-19.77v-25.46c9.63-2.76 18.54-7.16 26.25-12.36 10.67-7.18 19.04-15.89 23.83-23.89 1.79-2.99 3.48-6.57 5.05-10.65 2.6-6.72 4.88-14.8 6.77-23.78v-.01c-3.851-23.378-11.029-42.012-22.86-54.78z" opacity="1" data-original="#fec4b9"></path><path fill="#e7f2f1" d="M215.099 399.468c.02-2.03.84-41.79 32.94-47.69 32.48-5.97 50.17 21.53 50.66 22.3.01.01.01.02.01.02v.01c5.57.99 12.18 2.83 18.97 5.04v.01c10.88 3.54 22.23 8.03 30.54 11.48 6.79 2.83 9.71 10.85 6.34 17.39a12.574 12.574 0 0 1-11.16 6.81c-.78 0-1.57-.08-2.36-.23-4.94-.95-11.07-1.87-16.12-1.87-4.32 0-7.89 1.23-11.57 2.66l15.93 42.93c.55 1.49.82 3.02.82 4.52 0 5.29-3.25 10.26-8.49 12.2-6.71 2.49-14.17-.9-16.7-7.59l5.57 15.01c.55 1.49.82 3.02.82 4.53 0 5.28-3.24 10.25-8.49 12.19-6.74 2.5-14.22-.93-16.72-7.67l-8.75-23.6c.54 1.47.79 2.99.79 4.47 0 5.28-3.24 10.25-8.49 12.2-6.73 2.5-14.22-.93-16.72-7.67l-3.44-9.27c.52 1.46.77 2.96.77 4.44 0 5.4-3.31 10.48-8.68 12.47-6.73 2.5-14.23-.8-16.94-7.46-1.41-3.48-3.01-7.53-4.65-11.91-6.41-17.09-13.46-39.08-12.37-50.75.61-6.43 3.62-11.3 7.49-14.97z" opacity="1" data-original="#e7f2f1"></path><path fill="#604533" d="M268.799 137.918c-.16 5.78-.49 11.43-.96 16.86-1.04 10.62-2.56 20.77-4.5 29.96-13.15-15.28-20.77-33.53-22.86-54.78 10.75 2.57 20.43 5.41 28.32 7.96z" opacity="1" data-original="#604533"></path><path fill="#e7f2f1" d="M46.609 415.398c-3.68-1.43-7.25-2.66-11.57-2.66-5.05 0-11.18.92-16.12 1.87-.79.15-1.58.23-2.36.23-4.64 0-8.97-2.58-11.16-6.81-3.37-6.54-.45-14.56 6.34-17.39 8.31-3.45 19.66-7.94 30.54-11.48v-.01c6.79-2.21 13.4-4.05 18.97-5.04v-.01s0-.01.01-.02c.49-.77 18.18-28.27 50.66-22.3 32.1 5.9 32.92 45.66 32.94 47.69 3.87 3.67 6.88 8.54 7.49 14.97 1.09 11.67-5.96 33.66-12.37 50.75-1.64 4.38-3.24 8.43-4.65 11.91-2.71 6.66-10.21 9.96-16.94 7.46-5.37-1.99-8.68-7.07-8.68-12.47 0-1.48.25-2.98.77-4.44l-3.44 9.27c-2.5 6.74-9.99 10.17-16.72 7.67-5.25-1.95-8.49-6.92-8.49-12.2 0-1.48.25-3 .79-4.47l-8.75 23.6c-2.5 6.74-9.98 10.17-16.72 7.67-5.25-1.94-8.49-6.91-8.49-12.19 0-1.51.27-3.04.82-4.53l5.57-15.01c-2.53 6.69-9.99 10.08-16.7 7.59-5.24-1.94-8.49-6.91-8.49-12.2 0-1.5.27-3.03.82-4.52z" opacity="1" data-original="#e7f2f1"></path><path fill="#604533" d="M119.479 129.958c-2.09 21.25-9.71 39.5-22.86 54.78-1.94-9.19-3.46-19.34-4.5-29.96-.47-5.42-.8-11.09-.96-16.86 7.89-2.55 17.57-5.39 28.32-7.96z" opacity="1" data-original="#604533"></path><path fill="#5d5560" d="M275.469 354.728c-7.45-3.22-16.62-4.94-27.43-2.95l-7.01-26s19.9-.46 34.44 28.95zM217.149 268.198h.01c13.14 6.77 23.94 14.44 33.41 23.58-13.98 23.84-58.84 25.76-58.84 25.76s24.57-12.97 30.55-25.69-5.13-23.64-5.13-23.64z" opacity="1" data-original="#5d5560"></path><path fill="#dd864a" d="M254.639 274.868c.25 6.6-1.31 12.19-4.07 16.91-9.47-9.14-20.27-16.81-33.41-23.58 6.4-2.19 12.8-4.59 18.46-7.06a160.47 160.47 0 0 1 19.02 13.73zM142.799 268.198c-11.18 5.76-20.66 12.17-29.07 19.58-3.48-9.07-3.2-16.78-3.19-17.1v-.01c4.65-3.58 9.27-6.74 13.8-9.53 5.66 2.47 12.06 4.87 18.46 7.06z" opacity="1" data-original="#dd864a"></path><path fill="#5d5560" d="M142.809 268.198v.01s-11.11 10.92-5.13 23.64 30.55 25.69 30.55 25.69c-35.64.55-49.29-16.14-54.5-29.76 8.41-7.41 17.89-13.82 29.07-19.58zM118.929 325.778l-7.01 26c-7.78-1.43-14.71-.94-20.76.65 8.2-26.4 27.77-26.65 27.77-26.65z" opacity="1" data-original="#5d5560"></path><g fill="#f7b6ad"><path d="M201.439 255.428v17.82c-12.1 3.65-21.46 6-21.46 6v-20.72c7.4 0 14.61-1.13 21.46-3.1z" fill="#f7b6ad" opacity="1" data-original="#f7b6ad"></path><path d="M179.979 258.528v20.72s-9.36-2.35-21.46-6v-17.82c6.85 1.97 14.06 3.1 21.46 3.1z" fill="#f7b6ad" opacity="1" data-original="#f7b6ad"></path></g><g fill="#3a322b"><circle cx="215.762" cy="154.783" r="7.155" fill="#3a322b" opacity="1" data-original="#3a322b"></circle><path d="M144.213 147.628c-3.952 0-7.155 3.203-7.155 7.155s3.203 7.155 7.155 7.155a7.155 7.155 0 0 0 0-14.31z" fill="#3a322b" opacity="1" data-original="#3a322b"></path><path d="M358.956 396.561a16.603 16.603 0 0 0-9.2-9.614c-8.846-3.678-19.056-7.676-28.822-10.937-17.729-62.263-50.52-96.234-77.13-114.332 4.869-2.5 8.855-5.066 11.34-7.608 6.338-6.484 14.898-21.238 25.444-43.853a20.601 20.601 0 0 0 1.931-8.46 19.48 19.48 0 0 0 11.421-14.584l3.667-21.462a19.478 19.478 0 0 0-8.727-19.731l-3.868-2.467a15.26 15.26 0 0 0 2.759-1.559c3.979-2.842 6.261-7.277 6.261-12.168a14.93 14.93 0 0 0-7.483-12.947c-.475-33.795-10.354-62.624-28.653-83.495C238.772 11.53 211.828 0 179.979 0s-58.793 11.53-77.917 33.342c-18.299 20.871-28.178 49.7-28.653 83.495a14.93 14.93 0 0 0-7.483 12.947c0 4.892 2.282 9.327 6.261 12.168a15.248 15.248 0 0 0 2.769 1.553l-3.882 2.476a19.476 19.476 0 0 0-8.723 19.729l3.667 21.462a19.48 19.48 0 0 0 11.421 14.585 20.605 20.605 0 0 0 1.931 8.46c10.546 22.615 19.106 37.369 25.444 43.853 2.485 2.542 6.471 5.108 11.34 7.608-26.61 18.098-59.401 52.068-77.13 114.332-9.766 3.261-19.976 7.259-28.822 10.937a16.6 16.6 0 0 0-9.2 9.614 16.63 16.63 0 0 0 .846 13.3c3.346 6.478 10.675 10.046 17.819 8.678 6.151-1.178 11.468-1.801 15.375-1.801 2.274 0 4.34.428 6.408 1.069L26.933 456.94a16.904 16.904 0 0 0 .487 13.01 16.9 16.9 0 0 0 9.544 8.854 16.92 16.92 0 0 0 5.896 1.063c1.169 0 2.324-.131 3.453-.366l-.586 1.58c-3.263 8.794 1.237 18.602 10.031 21.863a16.898 16.898 0 0 0 5.896 1.063c6.91 0 13.424-4.244 15.965-11.093l3.761-10.138a16.893 16.893 0 0 0 7.543 5.566 16.913 16.913 0 0 0 5.898 1.063c5.559 0 10.855-2.75 14.039-7.388a17.198 17.198 0 0 0 8.132 6.291 17.445 17.445 0 0 0 6.08 1.101c6.833-.001 13.229-4.074 15.959-10.803a514.833 514.833 0 0 0 3.253-8.211c6.603 2.392 20.823 6.697 37.694 6.697 16.87 0 31.091-4.305 37.694-6.697a511.142 511.142 0 0 0 3.254 8.212c2.73 6.728 9.125 10.802 15.959 10.802 2.016 0 4.07-.354 6.08-1.101a17.162 17.162 0 0 0 8.136-6.285 17.077 17.077 0 0 0 14.035 7.382 16.95 16.95 0 0 0 5.898-1.063 16.878 16.878 0 0 0 7.543-5.566l3.761 10.138c2.541 6.849 9.054 11.093 15.965 11.093 1.961 0 3.954-.342 5.897-1.063 8.793-3.262 13.293-13.069 10.03-21.863l-.586-1.58c1.129.235 2.284.366 3.453.366 1.961 0 3.954-.342 5.897-1.063a16.897 16.897 0 0 0 9.543-8.854 16.9 16.9 0 0 0 .487-13.01l-14.517-39.133c2.067-.641 4.133-1.069 6.408-1.069 3.907 0 9.224.623 15.374 1.801 7.146 1.367 14.474-2.2 17.82-8.678a16.623 16.623 0 0 0 .847-13.3zm-47.202-23.421c-3.503-1.01-6.86-1.866-9.975-2.512-5.321-16.369-12.038-31.428-20.012-44.764-15.928-26.638-32.234-43.658-54.867-56.875a214.68 214.68 0 0 0 8.373-3.348c25.373 16.103 58.148 47.579 76.481 107.499zm-72.219-168.614c.677-6.742 1.063-13.728 1.188-20.949a866.933 866.933 0 0 1 17.861 4.127c-1.43 6.215-3.042 11.877-4.798 16.822zm10.986 8a53.438 53.438 0 0 1-2.43 4.593c-3.159 5.265-7.731 10.622-13.346 15.579 1.594-6.478 2.865-13.199 3.823-20.172zm2.805-34.293c-22.875-5.338-53.973-11.638-73.348-11.638s-50.473 6.3-73.348 11.638c8.91-13.157 14.437-28.247 16.5-45.013 17.352-3.999 37.329-7.198 56.847-7.198s39.495 3.199 56.847 7.198c2.066 16.767 7.593 31.856 16.502 45.013zm-8.145-42.98a382.161 382.161 0 0 1 19.513 5.557c-.168 4.479-.445 9.04-.835 13.584a288.392 288.392 0 0 1-2.799 20.926c-8.283-11.694-13.604-25.119-15.879-40.067zm-12.438 46.619c-.091 7.85-.505 15.4-1.262 22.654h-47.502v-29.842c13.546.547 31.789 3.66 48.764 7.188zm-56.764-7.187v29.842h-47.502c-.757-7.255-1.171-14.805-1.262-22.654 16.975-3.529 35.217-6.642 48.764-7.188zm-77.082.637a287.69 287.69 0 0 1-2.794-20.882c-.393-4.582-.671-9.15-.839-13.631a383.19 383.19 0 0 1 19.513-5.557c-2.275 14.95-7.597 28.376-15.88 40.07zm20.337 8.256c.125 7.221.511 14.207 1.188 20.948h-14.251c-1.756-4.945-3.369-10.608-4.799-16.821a867.11 867.11 0 0 1 17.862-4.127zm2.156 28.948c.958 6.973 2.229 13.694 3.823 20.172-5.615-4.957-10.187-10.315-13.346-15.579a53.16 53.16 0 0 1-2.43-4.593zm8.431 35.732a160.01 160.01 0 0 0 5.093 12.844c-6.919-2.622-13.228-5.358-17.935-8.025zm-.349-35.732h46.507v20.136l-40.865 5.949c-2.456-8.25-4.332-16.932-5.642-26.085zm14.48 32.883 32.027-4.663v13.652c-11.366-.655-22.321-4.038-32.027-8.989zm10.565 12.942v9.475a433.573 433.573 0 0 1-8.883-2.896 148.833 148.833 0 0 1-5.822-12.739 96.636 96.636 0 0 0 14.705 6.16zm21.462 4.058v11.664a516.051 516.051 0 0 1-13.462-3.802v-9.726c4.4.985 8.902 1.623 13.462 1.864zm-13.462 16.228a502.81 502.81 0 0 0 16.487 4.488 3.964 3.964 0 0 0 1.95 0 502.81 502.81 0 0 0 16.487-4.488v2.231c-.017 1.616-.652 15.792-17.462 15.792s-17.445-14.176-17.462-15.771zm21.462-4.564v-11.664c4.56-.24 9.062-.879 13.462-1.863v9.726a519.657 519.657 0 0 1-13.462 3.801zm0-19.675v-13.652l32.027 4.663c-9.707 4.951-20.661 8.334-32.027 8.989zm21.462 3.953a96.678 96.678 0 0 0 14.705-6.16 148.22 148.22 0 0 1-5.822 12.739 435.585 435.585 0 0 1-8.883 2.896zm-21.462-25.689v-20.136h46.507c-1.309 9.152-3.186 17.835-5.642 26.085zm46.157 15.596 12.843 4.819c-4.707 2.667-11.016 5.403-17.935 8.025a160.379 160.379 0 0 0 5.092-12.844zm20.33-.916-14.421-5.412c8.116-6.394 14.66-13.621 18.905-20.695 1.511-2.518 2.957-5.438 4.329-8.709h11.361c-8.138 16.916-15.181 29.084-20.174 34.816zm23.674-42.816h-11.889c1.492-4.508 2.866-9.469 4.102-14.821a12.55 12.55 0 0 1 6.939 6.369 12.558 12.558 0 0 1 .848 8.452zm15.582-40.164-3.667 21.462a11.498 11.498 0 0 1-5.127 7.744 20.526 20.526 0 0 0-12.911-11.748c1.592-8.239 2.881-17.207 3.808-26.696.29-3.381.515-6.754.688-10.096l12.061 7.693a11.494 11.494 0 0 1 5.148 11.641zM179.979 8c58.24 0 96.436 41.35 98.5 105.855-19.819-6.309-59.896-17.3-98.5-17.3s-78.681 10.991-98.5 17.3C83.543 49.35 121.739 8 179.979 8zM73.926 129.784a6.944 6.944 0 0 1 4.732-6.593c16.698-5.603 59.999-18.636 101.32-18.636s84.622 13.033 101.32 18.636c2.83.95 4.732 3.6 4.732 6.593a6.879 6.879 0 0 1-2.91 5.659 6.892 6.892 0 0 1-6.314.919c-19.973-6.849-59.11-18.339-96.828-18.339s-76.855 11.49-96.828 18.339a6.895 6.895 0 0 1-6.314-.919 6.877 6.877 0 0 1-2.91-5.659zm5.52 62.847c-.148.31-.284.623-.416.938a11.498 11.498 0 0 1-5.127-7.744l-3.667-21.462a11.49 11.49 0 0 1 5.145-11.638l12.065-7.695c.173 3.348.398 6.733.691 10.142.925 9.469 2.213 18.422 3.803 26.651a20.513 20.513 0 0 0-12.494 10.808zm7.22 3.444a12.548 12.548 0 0 1 6.938-6.369c1.236 5.351 2.611 10.312 4.103 14.82H85.818a12.549 12.549 0 0 1 .848-8.451zm22.826 51.267c-4.993-5.732-12.037-17.9-20.173-34.816h11.361c1.372 3.271 2.818 6.19 4.329 8.709 4.245 7.074 10.789 14.301 18.905 20.695zm15.192 18.299a216.27 216.27 0 0 0 8.373 3.348c-22.633 13.217-38.938 30.237-54.867 56.875-7.974 13.335-14.69 28.395-20.012 44.764-3.115.646-6.472 1.502-9.975 2.512 18.333-59.92 51.108-91.396 76.481-107.499zm6.935 209.955a9.247 9.247 0 0 1-11.844 5.21c-4.806-1.783-7.266-7.144-5.482-11.949v-.001l10.04-27.064a4 4 0 1 0-7.5-2.784l-13.547 36.519c-1.729 4.657-6.926 7.04-11.58 5.313a8.955 8.955 0 0 1-5.055-4.689 8.951 8.951 0 0 1-.258-6.89l.002-.006 10.188-27.463a4 4 0 1 0-7.5-2.784l-18.964 51.121c-1.729 4.656-6.926 7.041-11.579 5.313a8.95 8.95 0 0 1-5.055-4.689 8.95 8.95 0 0 1-.259-6.891l16.766-45.194a4 4 0 1 0-7.5-2.784l-11.168 30.105c-1.728 4.656-6.924 7.037-11.579 5.313-4.658-1.729-7.041-6.923-5.313-11.58l14.514-39.125c4.367 1.65 9.386 3.201 16.105 3.201 15.309 0 29.529-16.735 30.127-17.448a4 4 0 1 0-6.127-5.143c-3.406 4.059-14.357 14.591-24 14.591-6.516 0-11.174-1.837-15.68-3.613-4.3-1.695-8.745-3.448-14.33-3.448-4.467 0-10.146.654-16.88 1.943-3.683.706-7.476-1.141-9.207-4.492a8.494 8.494 0 0 1-.438-6.885 8.479 8.479 0 0 1 4.756-4.971c26.043-10.827 46.329-17.037 55.656-17.037 18.194 0 31.98 7.094 32.186 7.201a4 4 0 0 0 3.733-7.075c-.614-.325-14.941-7.772-34.548-8.11 7.149-7.306 20.948-17.27 40.897-13.603 20.849 3.831 27.043 23.695 28.885 35.344-7.803-4.388-15.585-5.735-16.212-5.838a3.995 3.995 0 0 0-4.593 3.302 4 4 0 0 0 3.302 4.593c.241.04 24.135 4.146 25.785 21.698.948 10.081-5.156 32.237-16.744 60.789zm48.36-6.506c-15.478 0-28.805-4.026-34.873-6.198 6.611-18.076 12.285-37.524 11.222-48.831-.653-6.948-3.629-12.277-7.525-16.357-.189-3.633-.98-12.125-4.305-21.155-5.333-14.487-14.85-23.968-27.649-27.693l5.944-22.036a4.001 4.001 0 0 0-2.82-4.904 4.006 4.006 0 0 0-4.904 2.82l-6.087 22.566c-16.397-1.9-29.097 4.148-37.741 10.737 4.039-10.037 8.655-19.437 13.817-28.069 14.086-23.557 28.431-39.193 47.543-51.331-1.116 4.667-.945 9.798 1.46 14.911 6.479 13.776 31.253 26.975 32.305 27.529a3.998 3.998 0 0 0 5.403-1.669 4 4 0 0 0-1.668-5.405c-6.508-3.44-24.367-14.434-28.802-23.859-3.436-7.308.275-13.965 2.759-17.251a433.586 433.586 0 0 0 10.46 3.357v4.637c0 .61.088 6.123 3.166 11.795 2.965 5.464 9.24 11.978 22.296 11.978s19.331-6.514 22.296-11.978c3.078-5.672 3.166-11.185 3.166-11.794v-4.638a430.584 430.584 0 0 0 10.46-3.357c2.485 3.285 6.196 9.941 2.759 17.251-4.435 9.426-22.294 20.419-28.802 23.859a4 4 0 0 0 3.735 7.074c1.052-.555 25.826-13.753 32.306-27.529 2.405-5.114 2.577-10.245 1.461-14.91 19.112 12.138 33.457 27.774 47.542 51.33 5.16 8.631 9.776 18.029 13.814 28.063-8.644-6.589-21.342-12.635-37.739-10.732l-6.087-22.565a4 4 0 1 0-7.724 2.084l5.944 22.036c-12.8 3.725-22.316 13.206-27.649 27.693-3.324 9.03-4.116 17.522-4.305 21.155-3.897 4.08-6.872 9.408-7.525 16.357-1.063 11.308 4.612 30.758 11.224 48.836-6.055 2.173-19.345 6.193-34.877 6.193zm171.024-62.902c-1.73 3.352-5.516 5.198-9.208 4.492-6.733-1.289-12.412-1.943-16.879-1.943-5.585 0-10.03 1.753-14.33 3.448-4.506 1.776-9.164 3.613-15.68 3.613-9.601 0-20.581-10.535-24-14.591a3.999 3.999 0 1 0-6.127 5.143c.598.713 14.818 17.448 30.127 17.448 6.719 0 11.738-1.551 16.105-3.201l14.514 39.125c1.728 4.657-.655 9.852-5.313 11.58-4.658 1.725-9.853-.657-11.58-5.313l-11.168-30.105a4 4 0 1 0-7.5 2.784l16.766 45.194a8.95 8.95 0 0 1-.259 6.891 8.944 8.944 0 0 1-5.054 4.689c-4.66 1.726-9.853-.656-11.58-5.313l-18.964-51.121a4 4 0 1 0-7.5 2.784l10.188 27.463.002.006a8.951 8.951 0 0 1-.258 6.89 8.947 8.947 0 0 1-5.056 4.689c-4.658 1.728-9.851-.656-11.579-5.313l-13.547-36.519a4 4 0 1 0-7.5 2.784l10.04 27.064v.001c1.783 4.806-.677 10.166-5.482 11.949-4.744 1.755-9.944-.53-11.844-5.21-11.588-28.552-17.691-50.708-16.743-60.787 1.635-17.396 25.353-21.624 25.787-21.698a4 4 0 0 0 3.3-4.593 3.993 3.993 0 0 0-4.593-3.302c-.626.102-8.409 1.45-16.211 5.837 1.842-11.651 8.037-31.514 28.884-35.344 19.942-3.671 33.745 6.296 40.896 13.603-19.607.338-33.934 7.785-34.548 8.11a3.997 3.997 0 0 0-1.668 5.397 4.004 4.004 0 0 0 5.4 1.679c.138-.072 13.946-7.202 32.187-7.202 9.327 0 29.613 6.21 55.656 17.037a8.476 8.476 0 0 1 4.756 4.971 8.488 8.488 0 0 1-.437 6.884z" fill="#3a322b" opacity="1" data-original="#3a322b"></path></g></g></svg>